<?xml version="1.0" encoding="utf-8"?>
<!-- Generator: Adobe Illustrator 25.0.0, SVG Export Plug-In . SVG Version: 6.00 Build 0)  -->
<svg version="1.1" id="Layer_1" xmlns="http://www.w3.org/2000/svg" xmlns:xlink="http://www.w3.org/1999/xlink" x="0px" y="0px"
	 viewBox="0 0 1500 1500" style="enable-background:new 0 0 1500 1500;" xml:space="preserve">
<style type="text/css">
	.st0{fill:none;stroke:#FFFFFF;stroke-width:100;stroke-miterlimit:10;}
	.st1{fill:#D84440;}
	.st2{fill:#53B67B;}
</style>
<g>
	<path d="M1349.5,1328.5"/>
	<path class="st0" d="M1349.5,1328.5"/>
</g>
<path class="st1" d="M1432.3,231.9c-3.1-7.5-10.4-12.3-18.5-12.3h-129.2V90.4c0-8.1-4.9-15.4-12.3-18.5c-7.5-3.1-16.1-1.4-21.8,4.3
	l-149.2,149.2c-3.7,3.7-5.9,8.8-5.9,14.1v140.9L653.9,822.1c-7.8,7.8-7.8,20.5,0,28.3c3.9,3.9,9,5.9,14.1,5.9
	c5.1,0,10.2-1.9,14.1-5.9l27.7-27.7c1.4,4.3,2.2,8.9,2.2,13.5c0,24.2-19.7,44-44,44c-24.2,0-44-19.7-44-44c0-11-8.9-20-20-20
	c-11,0-20,8.9-20,20c0,46.3,37.6,83.9,83.9,83.9c46.3,0,83.9-37.6,83.9-83.9c0-15.5-4.3-30.5-12.2-43.5l32.6-32.6
	c16.1,22,24.8,48.5,24.8,76.1c0,71.2-58,129.2-129.2,129.2s-129.2-58-129.2-129.2s58-129.2,129.2-129.2c10.1,0,20.2,1.2,29.9,3.5
	c10.7,2.5,21.5-4.1,24-14.8c2.5-10.7-4.1-21.5-14.8-24c-12.8-3-25.9-4.6-39.1-4.6c-93.3,0-169.2,75.9-169.2,169.2
	s75.9,169.2,169.2,169.2s169.2-75.9,169.2-169.2c0-38.3-12.8-74.9-36.3-104.6l62.4-62.4c39.9,46.6,61.7,105.3,61.7,167.1
	c0,141.7-115.3,257.1-257.1,257.1S411,978,411,836.3S526.3,579.2,668,579.2c44.3,0,88,11.4,126.3,33.1c9.6,5.4,21.8,2,27.2-7.6
	c5.4-9.6,2-21.8-7.6-27.2c-44.3-25-94.8-38.3-145.9-38.3c-163.8,0-297,133.2-297,297s133.2,297,297,297s297-133.2,297-297
	c0-72.4-25.9-141.3-73.3-195.4l32.1-32.1c55.9,62.7,86.6,142.8,86.6,227.5c0,188.7-153.6,342.3-342.3,342.3S325.7,1025,325.7,836.3
	S479.3,494,668,494c64.3,0,126.9,17.9,181.1,51.8c9.4,5.8,21.7,3,27.5-6.4c5.8-9.4,3-21.7-6.4-27.5C809.7,474,739.8,454,668,454
	c-210.8,0-382.3,171.5-382.3,382.3s171.5,382.3,382.3,382.3s382.3-171.5,382.3-382.3c0-95.4-34.7-185.5-98.2-255.8l62.2-62.2
	c80,87,123.9,199.4,123.9,318c0,259.3-210.9,470.2-470.2,470.2s-470.2-210.9-470.2-470.2S408.8,366.1,668,366.1
	c95.1,0,186.8,28.3,265,81.7c9.1,6.2,21.5,3.9,27.8-5.2c6.2-9.1,3.9-21.5-5.2-27.8c-84.9-58-184.3-88.7-287.5-88.7
	c-281.3,0-510.1,228.8-510.1,510.1s228.8,510.1,510.1,510.1s510.1-228.8,510.1-510.1c0-129.3-48.1-251.8-135.6-346.3l32-32
	c96.1,103.1,148.8,236.8,148.8,378.3c0,306.3-249.2,555.4-555.4,555.4s-555.4-249.2-555.4-555.4S361.8,280.9,668,280.9
	c119.4,0,233.3,37.3,329.1,108c8.9,6.5,21.4,4.7,27.9-4.2c6.5-8.9,4.7-21.4-4.2-27.9C918.1,280.9,796.1,240.9,668,240.9
	c-159,0-308.5,61.9-421,174.4c-112.4,112.4-174.4,262-174.4,421s61.9,308.5,174.4,421c112.5,112.5,262,174.4,421,174.4
	s308.5-61.9,421-174.4c112.4-112.5,174.4-262,174.4-421c0-152.2-56.9-295.9-160.5-406.6l20.9-20.9h140.9c5.3,0,10.4-2.1,14.1-5.9
	L1428,253.7C1433.7,248,1435.4,239.4,1432.3,231.9z M1256.4,368.8h-92.7l51.1-51.1c7.8-7.8,7.8-20.5,0-28.3s-20.5-7.8-28.3,0
	l-51.1,51.1v-92.7l109.2-109.2v100.9c0,11,8.9,20,20,20h100.9L1256.4,368.8z"/>
<path class="st2" d="M1104.6,427.6l20.9-20.9h140.9c5.3,0,10.4-2.1,14.1-5.9l149.2-149.2c5.7-5.7,7.4-14.3,4.3-21.8
	c-3.1-7.5-10.4-12.3-18.5-12.3h-129.2V88.3c0-8.1-4.9-15.4-12.3-18.5c-7.5-3.1-16.1-1.4-21.8,4.3l-149.2,149.2
	c-3.7,3.7-5.9,8.8-5.9,14.1v140.9L655.6,820.1c-7.8,7.8-7.8,20.5,0,28.3c3.9,3.9,9,5.9,14.1,5.9c5.1,0,10.2-2,14.1-5.9l27.7-27.7
	c0.1,0.4,0.2,0.9,0.4,1.3c9.4-11,19.6-20.8,30.4-29.9c-0.3-0.5-0.5-0.9-0.8-1.4l32.6-32.6 M1044.3,487.9l32-32 M953.8,578.4
	l62.2-62.2 M893.4,638.8l32.1-32.1 M802.6,729.6l62.4-62.4"/>
<path class="st1" d="M1256.4,368.8h-92.7l51.1-51.1c7.8-7.8,7.8-20.5,0-28.3s-20.5-7.8-28.3,0l-51.1,51.1v-92.7l109.2-109.2v100.9
	c0,11,8.9,20,20,20h100.9L1256.4,368.8z"/>
<polygon class="st2" points="773.3,900.7 833.9,856.6 680.3,818.7 692.5,662.5 632,706.6 619.8,862.8 "/>
</svg>
