<svg xmlns="http://www.w3.org/2000/svg" xmlns:xlink="http://www.w3.org/1999/xlink" viewBox="0 0 127.79 158.45"><defs><style>.cls-1{fill:none;}.cls-2{isolation:isolate;}.cls-13,.cls-3,.cls-9{opacity:0.3;}.cls-4{fill:#d74340;}.cls-5{fill:#fa7c55;}.cls-6{fill:#7298f7;}.cls-7{fill:#3f68ea;}.cls-8{clip-path:url(#clip-path);}.cls-9{fill:#38502b;}.cls-13,.cls-50,.cls-9{mix-blend-mode:multiply;}.cls-10{fill:#052a7a;}.cls-11{fill:#7194ea;}.cls-11,.cls-34{mix-blend-mode:overlay;}.cls-12{fill:#9cb240;}.cls-14{fill:#1745ba;}.cls-15{fill:#2057d1;}.cls-16{fill:#e8caff;}.cls-17{fill:#ffc700;}.cls-18{fill:#f9ad9b;}.cls-19,.cls-61,.cls-65{fill:#fff;}.cls-20{fill:#476acf;}.cls-21{fill:#587fdd;}.cls-22{fill:#3f5ec1;}.cls-23,.cls-48{fill:#000402;}.cls-23,.cls-61{opacity:0.2;}.cls-24{fill:#030000;}.cls-25{fill:#f99987;}.cls-26{fill:#443b35;}.cls-27{fill:#022f4a;}.cls-28{fill:#2db78e;}.cls-29{fill:#0db585;}.cls-30{fill:#0ba779;}.cls-31{fill:#48bc96;}.cls-32{fill:#7dcab4;}.cls-33{fill:#233ac4;}.cls-34{fill:#5b80d3;}.cls-35{fill:#fbf8d0;}.cls-36{fill:#e2cb23;}.cls-37{fill:#36201b;}.cls-38{fill:#c9a268;}.cls-38,.cls-39{fill-rule:evenodd;}.cls-39{fill:#bbbcb9;}.cls-40{fill:#041937;}.cls-41{fill:#8799ae;}.cls-42{fill:#140d0c;}.cls-43{fill:#290920;}.cls-44{fill:#126fb7;}.cls-45{fill:#466491;}.cls-46{fill:#54b67a;}.cls-47{fill:#3f3a39;}.cls-49{clip-path:url(#clip-path-2);}.cls-51{fill:#3232d8;}.cls-52{fill:#a4a4f4;}.cls-53{fill:#8a8aff;}.cls-54{fill:#2222c6;}.cls-55{fill:#106299;}.cls-56{fill:#db4226;}.cls-57{fill:#bddbf2;}.cls-58{fill:#ffc9c9;}.cls-58,.cls-62{opacity:0.22;}.cls-59{fill:#271d35;}.cls-60{fill:#090002;opacity:0.23;}.cls-62{fill:#8e0000;}.cls-63{fill:#e38939;}.cls-64{fill:#680101;opacity:0.21;}.cls-65{opacity:0.39;}</style><clipPath id="clip-path" transform="translate(-1.12 -0.04)"><path class="cls-1" d="M22.83,84.94s4.79-10.37,4.5-14.47,2.78-6.53,6-5.85,3.61,9.75-.58,14.82S26.18,85.09,22.83,84.94Z"/></clipPath><clipPath id="clip-path-2" transform="translate(-1.12 -0.04)"><path class="cls-1" d="M81,44.4s-5.9-.32-7.25,4-1,14.87-.35,17,2.86,3.07,4.32,2.41,2.38-4,2.38-4,1.9,4.93,0,8.21A45.78,45.78,0,0,0,73.5,97.16s6.65,3,12.13.36,8.19-1.33,8.19-1.33l1.85-16.78,2.54,16.18s2.74.15,3.34,1.2c0,0-.34-17-2.17-21.71s-2.8-6.94-2.8-6.94A3.86,3.86,0,0,0,99.85,64c0-3.82.65-17.92-4.75-19.26s-6-.56-6-.56l-3.66,1.12-2.82-.12-1,.21Z"/></clipPath></defs><g class="cls-2"><g id="Layer_1" data-name="Layer 1"><g class="cls-3"><path class="cls-4" d="M5.1,15.55l2,9.29S3,24.64,3,27.4,8.76,29.85,8.2,26a76.27,76.27,0,0,0-1.64-7.82s4.6,1,4.45,5.13C11,23.32,12.36,17.4,5.1,15.55Z" transform="translate(-1.12 -0.04)"/><path class="cls-4" d="M17,21.63v3.09s-1.15,0-1.23.82,1.65.66,1.69-.63V22.63h1.67V25s-.91,0-1,.67,1.46.4,1.51-.65v-3.4Z" transform="translate(-1.12 -0.04)"/><path class="cls-4" d="M17.82,28.87l-2.37,4.64s-1.76-.81-2.47.3,2,2.24,3,.33l1.75-3.42L20.24,32l-1.82,3.56s-1.37-.67-2,.27,1.88,1.7,2.78.16l2.61-5.1Z" transform="translate(-1.12 -0.04)"/><path class="cls-4" d="M24.35,20.06l-.3,0c0-.1,1.89-9.39,11.4-10.53,1.94-.23,3.75-.31,5.35-.39C47.17,8.8,51,8.63,52.58,0l.3,0c-1.61,8.83-5.77,9-12.07,9.31-1.59.07-3.39.15-5.32.38C26.2,10.89,24.37,20,24.35,20.06Z" transform="translate(-1.12 -0.04)"/><path class="cls-4" d="M25.89,22.42l-.3-.06c0-.09,1.9-9.39,11.41-10.52,1.94-.24,3.75-.32,5.34-.39,6.37-.29,10.21-.47,11.78-9.06l.3.06c-1.61,8.83-5.77,9-12.06,9.3-1.59.07-3.4.16-5.33.39C27.74,13.25,25.91,22.32,25.89,22.42Z" transform="translate(-1.12 -0.04)"/><path class="cls-4" d="M27.88,24.75l-.3-.06c0-.09,1.9-9.38,11.41-10.52,1.94-.23,3.75-.32,5.34-.39,6.37-.29,10.21-.46,11.78-9.06l.3.06c-1.61,8.83-5.77,9-12.06,9.3-1.59.08-3.4.16-5.33.39C29.73,15.58,27.9,24.66,27.88,24.75Z" transform="translate(-1.12 -0.04)"/></g><path class="cls-4" d="M95.23,15.74l1.3,6s-2.66-.13-2.69,1.65,3.75,1.58,3.39-.9a51.52,51.52,0,0,0-1.06-5s3,.63,2.87,3.32C99,20.76,99.92,16.93,95.23,15.74Z" transform="translate(-1.12 -0.04)"/><path class="cls-4" d="M102.93,19.66v2s-.74,0-.79.53,1.06.42,1.09-.41V20.31h1.08v1.53s-.59,0-.64.44.94.25,1-.43V19.66Z" transform="translate(-1.12 -0.04)"/><path class="cls-4" d="M103.44,24.34l-1.53,3s-1.14-.53-1.6.19,1.27,1.45,2,.22l1.13-2.21,1.62.81-1.18,2.3s-.89-.44-1.29.17,1.21,1.1,1.79.1L106,25.63Z" transform="translate(-1.12 -0.04)"/><path class="cls-4" d="M107.66,18.65l-.19,0c0-.06,1.22-6.06,7.37-6.8,1.25-.15,2.42-.2,3.45-.25,4.11-.19,6.6-.3,7.61-5.85l.19,0c-1,5.7-3.72,5.82-7.79,6-1,0-2.19.1-3.44.25C108.86,12.73,107.67,18.59,107.66,18.65Z" transform="translate(-1.12 -0.04)"/><path class="cls-4" d="M108.66,20.17l-.2,0c0-.06,1.23-6.06,7.37-6.8,1.26-.15,2.42-.2,3.46-.25,4.11-.19,6.59-.3,7.6-5.85l.2,0c-1,5.7-3.73,5.82-7.79,6-1,0-2.2.1-3.44.25C109.85,14.25,108.67,20.11,108.66,20.17Z" transform="translate(-1.12 -0.04)"/><path class="cls-4" d="M110,21.68l-.2,0c0-.06,1.22-6.06,7.37-6.8,1.25-.15,2.42-.2,3.45-.25,4.12-.19,6.6-.3,7.61-5.85l.2,0c-1,5.71-3.73,5.83-7.8,6-1,0-2.19.1-3.44.24C111.14,15.75,110,21.62,110,21.68Z" transform="translate(-1.12 -0.04)"/><path class="cls-4" d="M126.46,154.07c0,2.44-28.06,4.42-62.67,4.42s-62.67-2-62.67-4.42,28.06-4.43,62.67-4.43S126.46,151.62,126.46,154.07Z" transform="translate(-1.12 -0.04)"/><path class="cls-4" d="M114.78,153.15s2-12.14,11.45-19c0,0-6.86,9.17-5.82,19.62,0,0-.5-5.71,5.82-10.83a11.53,11.53,0,0,0-3.42,10,7.08,7.08,0,0,1,6.1-4.92s-4.22.73-4.1,6.51Z" transform="translate(-1.12 -0.04)"/><polygon class="cls-5" points="78.56 149.38 77.45 145.81 79.42 148.54 80.96 141.34 80.34 148.44 82.07 144.94 80.68 149.38 78.56 149.38"/><polygon class="cls-4" points="104.89 150.79 102.41 146.91 104.89 149.38 107.79 141.8 107.45 149.38 109.5 146.91 108.3 150.79 104.89 150.79"/><polygon class="cls-6" points="25.92 117.29 25.83 117.08 38.72 111.89 38.8 112.09 25.92 117.29"/><polygon class="cls-6" points="28.91 117.49 28.85 117.28 39.87 114.34 39.93 114.56 28.91 117.49"/><polygon class="cls-6" points="31.57 117.93 31.56 117.7 41.67 116.98 41.69 117.2 31.57 117.93"/><rect class="cls-6" x="39.1" y="114.73" width="0.22" height="8.78" transform="translate(-82.45 153.67) rotate(-87.79)"/><polygon class="cls-6" points="35.46 119.83 35.51 119.62 42.95 121.31 42.9 121.53 35.46 119.83"/><path class="cls-7" d="M27.45,103.94a7.13,7.13,0,0,1-1.12-6.1c1-3.55,5.81,0,5.81,0s2.82.46,3,2.68S35.05,104,27.45,103.94Z" transform="translate(-1.12 -0.04)"/><path class="cls-7" d="M22.83,84.94s4.79-10.37,4.5-14.47,2.78-6.53,6-5.85,3.61,9.75-.58,14.82S26.18,85.09,22.83,84.94Z" transform="translate(-1.12 -0.04)"/><g class="cls-8"><polygon class="cls-6" points="31.77 67.27 29.72 64.02 29.89 63.92 31.94 67.16 31.77 67.27"/><polygon class="cls-6" points="36.71 66.34 32.56 66.14 32.57 65.95 36.72 66.14 36.71 66.34"/><polygon class="cls-6" points="30.76 68.95 27.26 65.14 27.4 65 30.9 68.82 30.76 68.95"/><polygon class="cls-6" points="36.71 68.31 31.35 68.13 31.36 67.93 36.72 68.11 36.71 68.31"/><polygon class="cls-6" points="36.87 71.06 29.84 70.6 29.85 70.4 36.89 70.86 36.87 71.06"/><polygon class="cls-6" points="28.88 72.02 24.91 67.28 25.06 67.15 29.03 71.89 28.88 72.02"/><rect class="cls-6" x="33.15" y="69.69" width="0.2" height="8.2" transform="translate(-43.9 101.49) rotate(-85.79)"/><polygon class="cls-6" points="27.09 74.95 23.03 70.8 23.17 70.66 27.24 74.82 27.09 74.95"/><rect class="cls-6" x="31.8" y="72.21" width="0.2" height="9.12" transform="translate(-47.99 103.34) rotate(-86.1)"/><polygon class="cls-6" points="24.9 78.5 22.23 74.94 22.39 74.83 25.06 78.39 24.9 78.5"/><polygon class="cls-6" points="33.2 80.86 24.29 79.67 24.32 79.48 33.23 80.67 33.2 80.86"/><polygon class="cls-6" points="30.82 83.66 22.46 82.67 22.49 82.47 30.84 83.47 30.82 83.66"/><polygon class="cls-6" points="28.74 85.34 21.97 84.4 22 84.2 28.77 85.15 28.74 85.34"/><polygon class="cls-6" points="16.42 92.86 16.08 92.66 33.93 63.44 34.27 63.64 16.42 92.86"/></g><path class="cls-9" d="M28.25,72.12a11.58,11.58,0,0,1,.17-5.69,5.92,5.92,0,0,0-1.09,4c.29,4.1-4.5,14.47-4.5,14.47a12.48,12.48,0,0,0,2,0C29.69,82.45,29.23,77.36,28.25,72.12Z" transform="translate(-1.12 -0.04)"/><path class="cls-10" d="M28.25,66.79a9.16,9.16,0,0,0-2,4c-.26,2-.61,7.91-2.52,10.24s-.88,3.9-.88,3.9,4.45-3.58,4.68-7.86S27,71.23,28.25,66.79Z" transform="translate(-1.12 -0.04)"/><path class="cls-11" d="M34.55,68s-.78,11.9-3.62,12.79-1.77-2.75-.31-5.43S34.55,68,34.55,68Z" transform="translate(-1.12 -0.04)"/><polygon class="cls-12" points="26 109.2 25.8 109.1 32.61 96.45 32.81 96.55 26 109.2"/><polygon class="cls-12" points="28.09 107.6 27.91 107.47 36.28 96.46 36.46 96.6 28.09 107.6"/><polygon class="cls-12" points="30.12 106.56 29.95 106.41 39.32 96.26 39.49 96.41 30.12 106.56"/><polygon class="cls-12" points="32.91 105.47 32.76 105.3 41.43 97.99 41.58 98.16 32.91 105.47"/><polygon class="cls-12" points="35.51 104.74 35.4 104.54 44.21 99.6 44.32 99.8 35.51 104.74"/><polygon class="cls-12" points="37.91 104.83 37.82 104.62 45.88 101.21 45.98 101.41 37.91 104.83"/><polygon class="cls-12" points="39.85 104.81 39.8 104.6 47.25 102.97 47.3 103.19 39.85 104.81"/><g class="cls-13"><path class="cls-14" d="M35.4,122.52l.12.07Z" transform="translate(-1.12 -0.04)"/></g><path class="cls-15" d="M32,125.49a12.77,12.77,0,0,0-4.7-5l.09-.17a12.85,12.85,0,0,1,4.81,5.14Z" transform="translate(-1.12 -0.04)"/><path class="cls-15" d="M27,120.32l-.13-.15A43,43,0,0,1,37,115.83l.05.19A42.3,42.3,0,0,0,27,120.32Z" transform="translate(-1.12 -0.04)"/><path class="cls-15" d="M29.65,120.82l-.1-.18a30.11,30.11,0,0,1,7.93-2l0,.2A30,30,0,0,0,29.65,120.82Z" transform="translate(-1.12 -0.04)"/><path class="cls-16" d="M31.34,121.4s3.71-60.35,11.25-49,6.07,10.41,15.29-11.53,21.7-27.47,23.85-15.18,11.45,16.18,16.5,2.84,18.64-15.32,19.33,7.34S102.34,84.55,84,87.92s-28.24,16.88-36.74,30S30.34,134.05,31.34,121.4Z" transform="translate(-1.12 -0.04)"/><path class="cls-17" d="M37.07,144.54s6.9,8.52,5.46,10.63c0,0-1.3,1-2.11.51s-12-8.63-12.51-9.11-1.31-1.31-.39-2,1.65-1.09,1.87-1.81,1.32-3.65,4.3-.31,2,1,2,1Z" transform="translate(-1.12 -0.04)"/><path class="cls-18" d="M35.9,137.51l-2.49,5.59a5.33,5.33,0,0,0,3.26,1.72,23.4,23.4,0,0,0,5.64-5.55c2-3.11-2.83-1.56-3.37-1.55a15.93,15.93,0,0,0-2.34.52Z" transform="translate(-1.12 -0.04)"/><path class="cls-19" d="M42.54,155.14l-11.71-8.5.76-2.56-2.13-1.5c0,.07-.05.14-.07.19-.22.72-.95,1.14-1.87,1.81s-.07,1.5.39,2,11.71,8.64,12.51,9.11,2.11-.51,2.11-.51Z" transform="translate(-1.12 -0.04)"/><path class="cls-19" d="M38.43,146.32l-1.17.43,2,4.56,2.32-.11A43.43,43.43,0,0,0,38.43,146.32Z" transform="translate(-1.12 -0.04)"/><path class="cls-20" d="M52,79.7s1.39,11,1.87,17.61,1.88,22.09-.94,28.61S39.5,142.71,39.5,142.71a21.78,21.78,0,0,1-5.39-5.23s8.14-10.73,9.06-16.39-3.51-22.25-3.51-22.25l-.6-8.21-1.54-5.5s1.07-3.29,1-3.33a13.32,13.32,0,0,1,1.57-2.65c.24-.08,5.34-.78,5.34-.78Z" transform="translate(-1.12 -0.04)"/><path class="cls-21" d="M53.82,96.19c-.16,5.51-.44,14.22-.84,22.56-.53,11-11,19.88-14.95,22.87a17.72,17.72,0,0,0,1.47,1.09S50.15,132.45,53,125.92s1.42-22,.94-28.61C53.88,97,53.85,96.58,53.82,96.19Z" transform="translate(-1.12 -0.04)"/><path class="cls-19" d="M50.48,126c2-4.3,1.79-13.42-.56-27.09-1.75-10.17-4.11-19.2-4.13-19.29l-.31.08c.09.36,9.37,36,4.71,46.17-2.33,5.08-8,10.62-13.11,14.9l.24.21C42.44,136.72,48.13,131.16,50.48,126Z" transform="translate(-1.12 -0.04)"/><path class="cls-17" d="M37.81,149.05s9.64,3,9.71,5.51c0,0-.44,1.55-1.28,1.63s-13.48-.11-14.08-.24-1.67-.31-1.35-1.39a4.85,4.85,0,0,0,.41-2.54c-.22-.7-1-3.73,3-2.73s2-.33,2-.33Z" transform="translate(-1.12 -0.04)"/><path class="cls-18" d="M32,144l1.27,6a5.43,5.43,0,0,0,3.68-.47,23.21,23.21,0,0,0,1.3-7.75c-.19-3.69-3.22.36-3.66.67A16.52,16.52,0,0,0,33,144.2Z" transform="translate(-1.12 -0.04)"/><path class="cls-19" d="M36.23,146.7a19.39,19.39,0,0,1-3.73-.16l.73,3.44a5.43,5.43,0,0,0,3.68-.47,25.89,25.89,0,0,0,.84-3A12.64,12.64,0,0,1,36.23,146.7Z" transform="translate(-1.12 -0.04)"/><path class="cls-19" d="M47.52,154.53l-13.17-.19-.82-2.51H31.16c0,.07,0,.14.06.19a4.85,4.85,0,0,1-.41,2.54c-.32,1.08.74,1.26,1.35,1.39s13.24.32,14.08.24,1.28-1.63,1.28-1.63Z" transform="translate(-1.12 -0.04)"/><path class="cls-19" d="M39.77,149.72l-.64,1,3.94,2.53,1.64-1.42A37.5,37.5,0,0,0,39.77,149.72Z" transform="translate(-1.12 -0.04)"/><path class="cls-20" d="M25.41,80.49s.48,11.48.56,23.9S28.29,140,31.8,144.63a10.82,10.82,0,0,0,6.54-1.33s1.14-26.65,1.57-35.46,0-9.43,0-9.43l-.53-16L35.47,79.7Z" transform="translate(-1.12 -0.04)"/><path class="cls-22" d="M39.91,107.84c.16-3.27.2-5.41.19-6.81-3.83,7.25-3.83,28.8-3.91,36.29,0,4.89-3.15,5.65-5.33,5.58a7.58,7.58,0,0,0,.94,1.73,10.82,10.82,0,0,0,6.54-1.33S39.48,116.65,39.91,107.84Z" transform="translate(-1.12 -0.04)"/><path class="cls-19" d="M34.19,144.64c-4-16-4.32-32.34-3.83-43.52a174.44,174.44,0,0,1,2.16-21.19l-.33,0A177,177,0,0,0,30,101.1c-.49,11.19-.18,27.55,3.83,43.57Z" transform="translate(-1.12 -0.04)"/><path class="cls-19" d="M31.88,85.19a4.14,4.14,0,0,0-1.12.79,25,25,0,0,0-3.4,3.79c-.07.1-.25,0-.17-.1a25.09,25.09,0,0,1,3.52-3.91A4,4,0,0,1,31.83,85c.12,0,.17.15.05.19Z" transform="translate(-1.12 -0.04)"/><path class="cls-19" d="M48.32,83.94a4.3,4.3,0,0,1,1.12.79,24.56,24.56,0,0,1,3.4,3.8c.07.1.25,0,.17-.1a25.16,25.16,0,0,0-3.52-3.92,4.26,4.26,0,0,0-1.12-.76c-.12,0-.17.15,0,.19Z" transform="translate(-1.12 -0.04)"/><path class="cls-23" d="M53.18,89.62l-8-1.55L25.73,90c0,1,.05,2.14.08,3.28L53.72,95.1C53.57,93.36,53.38,91.47,53.18,89.62Z" transform="translate(-1.12 -0.04)"/><path class="cls-18" d="M45.2,38.45l1.36,4.82-1.51,5-2.19,3a6,6,0,0,1-1.76-1c-.44-.51-4.39-6.12-4.39-6.37s-1-2.64-1-2.78.66-3.73.66-3.73l5.19,1.81Z" transform="translate(-1.12 -0.04)"/><path class="cls-18" d="M39.24,32.58s2.42-3.87,2.55-5.73.36-4.15,3.2-5.51,8.47.58,7.49,4.1-1.87,7.2-3.19,7.79c0,0-2.07.16-2.73,1.17s-1.88,6.19-1.88,6.19L35.49,39Z" transform="translate(-1.12 -0.04)"/><path class="cls-24" d="M40.44,26.89s-2.06-3.28-1-5.89a4.74,4.74,0,0,1,5.84-3s4.21-2.55,7.77-.67,1.72,7.47-1.65,6.71-3.34-1.3-3.34-1.3-1,3.58-3.25,3.35l-1,3.24Z" transform="translate(-1.12 -0.04)"/><path class="cls-25" d="M42.87,26.49s-1.38-1.3-2.21-.4-.32,2.71,1.43,3.22,1.14-1.74,1.14-1.74Z" transform="translate(-1.12 -0.04)"/><path class="cls-24" d="M50.89,27.24a2.13,2.13,0,0,1-2.62,1.47,2.09,2.09,0,0,1-1.5-2.58,2.13,2.13,0,0,1,2.62-1.47A2.09,2.09,0,0,1,50.89,27.24Z" transform="translate(-1.12 -0.04)"/><polygon class="cls-24" points="50.75 27.36 44.92 25.79 44.96 25.63 50.8 27.2 50.75 27.36"/><path class="cls-24" d="M50.85,27.78c-.06.24-.11.48-.17.72s-.08.35-.13.52a1.6,1.6,0,0,1,0,.21c0,.06-.07.13,0,0l.19,0a4.17,4.17,0,0,1-.5-.52c-.13-.15-.36.07-.22.21a2.52,2.52,0,0,0,.56.57.17.17,0,0,0,.19,0A2.33,2.33,0,0,0,51,28.7c.06-.28.13-.55.19-.83s-.26-.28-.3-.09Z" transform="translate(-1.12 -0.04)"/><path class="cls-24" d="M54.93,28.32a2.13,2.13,0,0,1-2.62,1.47,2.09,2.09,0,0,1-1.5-2.58,2.13,2.13,0,0,1,2.62-1.47A2.1,2.1,0,0,1,54.93,28.32Z" transform="translate(-1.12 -0.04)"/><path class="cls-26" d="M39.93,21.79s-.54,3.36.23,3.5.75-.25.41-1.06a4.64,4.64,0,0,1-.31-2.62C40.46,21.14,40,21.23,39.93,21.79Z" transform="translate(-1.12 -0.04)"/><path class="cls-26" d="M47.23,18.24s2.15-1,3-.49.26,1.46-.28,1a4.77,4.77,0,0,0-2.62-.4C47,18.5,46.93,18.36,47.23,18.24Z" transform="translate(-1.12 -0.04)"/><path class="cls-26" d="M52.12,19s.69.62.44.8-1.05-.22-1-.54S51.7,18.77,52.12,19Z" transform="translate(-1.12 -0.04)"/><path class="cls-24" d="M45.06,33.76A7.26,7.26,0,0,1,45.93,36a8.28,8.28,0,0,1,.63-1.58,3.47,3.47,0,0,1,2.14-1.09C47.94,33.13,45.91,32.78,45.06,33.76Z" transform="translate(-1.12 -0.04)"/><path class="cls-27" d="M49.49,29.62a.87.87,0,0,0,1,1.06c.09,0,.13.1,0,.12a1,1,0,0,1-1.19-1.2c0-.08.15-.06.13,0Z" transform="translate(-1.12 -0.04)"/><rect class="cls-28" x="24.53" y="53.46" width="27.67" height="38.61"/><path class="cls-29" d="M50.06,40.69l1.66.44A38.3,38.3,0,0,1,57,47.88c3.26,4.94,7.2,8.61,4.54,11.42S51.7,53,51.7,53Z" transform="translate(-1.12 -0.04)"/><path class="cls-30" d="M36.18,49.59c.14,2.31.24,4.82.3,7.32a38.54,38.54,0,0,0-1.81-5.47,45.35,45.35,0,0,0-5.82-10.11c1.7-1,3.59-1.95,5.11-2.72C34.68,39.89,35.75,42.88,36.18,49.59Z" transform="translate(-1.12 -0.04)"/><path class="cls-28" d="M36.53,70c0,1.4,0,2.57-.06,3.39l-8.86,2s-5-30.18-1.53-32.44c.77-.51,1.74-1.08,2.77-1.66a45.35,45.35,0,0,1,5.82,10.11l-4,3.36A105.82,105.82,0,0,1,36.53,70Z" transform="translate(-1.12 -0.04)"/><path class="cls-19" d="M48.27,48.85c.14,2.17.23,4.52.29,6.89.09,3.83.1,7.7.08,10.89,0,1.52,0,2.89,0,4L36.47,73.41c0-.82,0-2,.06-3.39,0-3.42.06-8.27-.05-13.11-.06-2.5-.16-5-.3-7.32-.43-6.71-1.5-9.7-2.22-11,1-.52,1.87-.94,2.39-1.19a17.07,17.07,0,0,1,4,6.1c1.46,4.11,2.07,6.17,2.07,6.17s2.38-7.39,2.79-11.24l1.36.5C47.2,40.61,47.93,43.58,48.27,48.85Z" transform="translate(-1.12 -0.04)"/><path class="cls-30" d="M50.7,40.6c-.08,1.39-.35,5.68-1,10a46.53,46.53,0,0,1-1.1,5.17c-.06-2.37-.15-4.72-.29-6.89-.34-5.27-1.07-8.24-1.71-9.9C47.91,39.46,49.62,40.12,50.7,40.6Z" transform="translate(-1.12 -0.04)"/><path class="cls-28" d="M53.68,69.49,48.6,70.65c0-1.13,0-2.5,0-4,1.53-5.94,2.61-14,2.61-14a11.86,11.86,0,0,0-1.59-2.06c.69-4.29,1-8.58,1-10a4.82,4.82,0,0,1,1,.53C52.16,41.6,53.68,69.49,53.68,69.49Z" transform="translate(-1.12 -0.04)"/><path class="cls-31" d="M36.48,56.91c.11,4.84.09,9.69.05,13.11A105.82,105.82,0,0,0,30.66,54.8l4-3.36A38.54,38.54,0,0,1,36.48,56.91Z" transform="translate(-1.12 -0.04)"/><path class="cls-31" d="M51.25,52.63s-1.08,8.06-2.61,14c0-3.19,0-7.06-.08-10.89a46.53,46.53,0,0,0,1.1-5.17A11.86,11.86,0,0,1,51.25,52.63Z" transform="translate(-1.12 -0.04)"/><path class="cls-29" d="M29.48,47.36s-.47-3.9-3.32-4.09-5,14.92-5.08,18.9-.16,5.93,1.11,7.34,6.45,1.72,6.45,1.72-.28-6.07-.05-10.06S30.62,51.74,29.48,47.36Z" transform="translate(-1.12 -0.04)"/><path class="cls-30" d="M23.75,66a.09.09,0,0,1-.07,0,.09.09,0,0,1,0-.13c.09-.1,2.33-2.33,4.16-2.7-.43-.15-1.56-.24-4,1.26a.1.1,0,0,1-.13,0,.08.08,0,0,1,0-.12c3.47-2.12,4.43-1.15,4.47-1.11a.09.09,0,0,1,0,.1.1.1,0,0,1-.08.06c-1.8.17-4.29,2.66-4.32,2.68A.09.09,0,0,1,23.75,66Z" transform="translate(-1.12 -0.04)"/><path class="cls-32" d="M64,55.12A3.68,3.68,0,1,1,60,51.21,3.93,3.93,0,0,1,64,55.12Z" transform="translate(-1.12 -0.04)"/><path class="cls-33" d="M48.26,59.1S45.47,57,42.57,57.65s-4.13,4.38-4,6.6a3.23,3.23,0,0,1-2.8,3.68,12.88,12.88,0,0,0-9.34,6.82c-2.39,5.06-.34,10.76,5.68,14.69s12.55,5,17-1c0,0,3.66-4,1.9-11.57a2.71,2.71,0,0,1,1.14-3.68,8.66,8.66,0,0,0,4.29-4.36c.7-1.72-1.66-1.38-1.66-1.38s-3.51,1.14-3.95-3S48.26,59.1,48.26,59.1Z" transform="translate(-1.12 -0.04)"/><path class="cls-34" d="M49,84.5a1.11,1.11,0,0,1-1.5.38,1.07,1.07,0,0,1-.39-1.48A1.1,1.1,0,0,1,48.59,83,1.07,1.07,0,0,1,49,84.5Z" transform="translate(-1.12 -0.04)"/><path class="cls-35" d="M48.56,84.26a.62.62,0,0,1-.85.21.61.61,0,1,1,.85-.21Z" transform="translate(-1.12 -0.04)"/><path class="cls-36" d="M44.33,84.76a1.11,1.11,0,0,1-1.51.38,1.07,1.07,0,0,1-.38-1.48A1.1,1.1,0,0,1,44,83.28,1.07,1.07,0,0,1,44.33,84.76Z" transform="translate(-1.12 -0.04)"/><path class="cls-35" d="M43.91,84.52a.61.61,0,0,1-.84.21.59.59,0,0,1-.21-.83.61.61,0,0,1,.84-.21A.59.59,0,0,1,43.91,84.52Z" transform="translate(-1.12 -0.04)"/><path class="cls-28" d="M42,88.27a1.11,1.11,0,0,1-1.5.38,1.08,1.08,0,0,1-.39-1.49,1.12,1.12,0,0,1,1.51-.38A1.08,1.08,0,0,1,42,88.27Z" transform="translate(-1.12 -0.04)"/><path class="cls-35" d="M41.62,88a.63.63,0,0,1-.85.22.6.6,0,0,1-.21-.83.62.62,0,0,1,.84-.22A.61.61,0,0,1,41.62,88Z" transform="translate(-1.12 -0.04)"/><path class="cls-34" d="M46.7,88.48a1.11,1.11,0,0,1-1.5.38,1.07,1.07,0,0,1-.39-1.48A1.1,1.1,0,0,1,46.32,87,1.07,1.07,0,0,1,46.7,88.48Z" transform="translate(-1.12 -0.04)"/><path class="cls-35" d="M46.29,88.24a.63.63,0,0,1-.85.21.59.59,0,0,1-.21-.83.61.61,0,0,1,1.06.62Z" transform="translate(-1.12 -0.04)"/><path class="cls-19" d="M40,82.36a.75.75,0,0,1-.42-.1l-3.46-2a.72.72,0,0,1,.19-1.33.73.73,0,0,1,.56.08l3.46,2a.72.72,0,0,1-.2,1.33Zm-.33-.26a.62.62,0,0,0,.42.06.56.56,0,0,0,.33-.25.53.53,0,0,0-.19-.74l-3.45-2a.52.52,0,0,0-.42-.06.57.57,0,0,0-.34.25.54.54,0,0,0,.2.74Z" transform="translate(-1.12 -0.04)"/><path class="cls-19" d="M40.47,82a.67.67,0,0,1,.89-.23.64.64,0,0,1,.22.87.65.65,0,0,1-.88.22A.62.62,0,0,1,40.47,82Z" transform="translate(-1.12 -0.04)"/><path class="cls-19" d="M34.76,78.62a.66.66,0,0,1,.88-.23.63.63,0,0,1,.23.87.65.65,0,0,1-.88.22A.62.62,0,0,1,34.76,78.62Z" transform="translate(-1.12 -0.04)"/><path class="cls-35" d="M42.49,60.29a.47.47,0,0,1-.65.17.46.46,0,0,1-.16-.64.47.47,0,0,1,.65-.17A.46.46,0,0,1,42.49,60.29Z" transform="translate(-1.12 -0.04)"/><path class="cls-34" d="M49.18,71.83a5.28,5.28,0,1,1-5.28-5.2A5.24,5.24,0,0,1,49.18,71.83Z" transform="translate(-1.12 -0.04)"/><path class="cls-37" d="M48.11,71.83a4.21,4.21,0,1,1-4.21-4.14A4.18,4.18,0,0,1,48.11,71.83Z" transform="translate(-1.12 -0.04)"/><polygon class="cls-38" points="66.47 25.92 69.82 27.88 69.56 28.32 66.2 26.36 66.47 25.92"/><path class="cls-39" d="M67.22,26.93l-.53-.31c-.38-.44.19-1.38.76-1.26l.53.31C68.18,26,67.61,26.94,67.22,26.93Z" transform="translate(-1.12 -0.04)"/><polygon class="cls-38" points="65.2 28.01 68.56 29.97 68.29 30.41 64.94 28.45 65.2 28.01"/><path class="cls-39" d="M66,29l-.53-.31c-.39-.44.19-1.38.76-1.26l.53.3C66.92,28.1,66.35,29,66,29Z" transform="translate(-1.12 -0.04)"/><polygon class="cls-38" points="63.94 30.11 67.3 32.07 67.03 32.51 63.68 30.55 63.94 30.11"/><path class="cls-39" d="M64.69,31.12l-.52-.3c-.39-.45.18-1.39.76-1.27l.52.31C65.65,30.19,65.09,31.14,64.69,31.12Z" transform="translate(-1.12 -0.04)"/><polygon class="cls-38" points="72.19 29.26 68.83 27.3 68.57 27.74 71.92 29.7 72.19 29.26"/><path class="cls-39" d="M72.62,30.09l.52.3c.58.13,1.15-.82.76-1.26l-.52-.31C73,28.81,72.42,29.75,72.62,30.09Z" transform="translate(-1.12 -0.04)"/><polygon class="cls-38" points="70.93 31.36 67.57 29.4 67.31 29.84 70.66 31.8 70.93 31.36"/><path class="cls-39" d="M71.35,32.18l.53.31c.58.12,1.14-.82.76-1.26l-.53-.31C71.72,30.91,71.15,31.85,71.35,32.18Z" transform="translate(-1.12 -0.04)"/><polygon class="cls-38" points="69.66 33.45 66.31 31.5 66.05 31.93 69.4 33.9 69.66 33.45"/><path class="cls-39" d="M70.09,34.28l.53.31c.58.12,1.14-.83.76-1.27l-.53-.3C70.46,33,69.89,34,70.09,34.28Z" transform="translate(-1.12 -0.04)"/><path class="cls-40" d="M49,67.06a.36.36,0,0,0,.5-.12L67.35,36.23a1.84,1.84,0,0,1,1.37-.92,1.05,1.05,0,0,0,.81-.48l3.76-6.25A1,1,0,0,0,73,27.24a1.35,1.35,0,0,1-.54-.62c-.16-.56-1-.69-1-.69a1,1,0,0,0-.86-.44,2,2,0,0,1-1-.2h0a1,1,0,0,0-1.42.36l-3.75,6.23a1,1,0,0,0-.06.93,1.54,1.54,0,0,1-.34,1.52l-19,30a.36.36,0,0,0,.13.5Z" transform="translate(-1.12 -0.04)"/><path class="cls-35" d="M69.06,27.47a.44.44,0,0,1-.59.15.42.42,0,0,1-.15-.58.43.43,0,0,1,.59-.15A.42.42,0,0,1,69.06,27.47Z" transform="translate(-1.12 -0.04)"/><path class="cls-35" d="M67.89,29.3a.43.43,0,0,1-.59.15.42.42,0,0,1-.15-.58.45.45,0,0,1,.59-.15A.42.42,0,0,1,67.89,29.3Z" transform="translate(-1.12 -0.04)"/><path class="cls-35" d="M66.76,31.28a.43.43,0,0,1-.59.15.42.42,0,0,1-.15-.58.44.44,0,0,1,.59-.15A.42.42,0,0,1,66.76,31.28Z" transform="translate(-1.12 -0.04)"/><path class="cls-35" d="M72.19,29.3a.43.43,0,0,1-.59.15.42.42,0,0,1-.15-.58.44.44,0,0,1,.59-.15A.42.42,0,0,1,72.19,29.3Z" transform="translate(-1.12 -0.04)"/><path class="cls-35" d="M71,31.13a.43.43,0,0,1-.74-.43.44.44,0,0,1,.59-.14A.4.4,0,0,1,71,31.13Z" transform="translate(-1.12 -0.04)"/><path class="cls-35" d="M69.89,33.11a.42.42,0,0,1-.58.15.41.41,0,0,1-.15-.58.43.43,0,0,1,.58-.15A.42.42,0,0,1,69.89,33.11Z" transform="translate(-1.12 -0.04)"/><path class="cls-41" d="M40.3,81.24h0a.1.1,0,0,1,0-.13c1.15-1.95,28-47.7,28.88-48.49a.11.11,0,0,1,.14,0,.09.09,0,0,1,0,.13c-.87.77-28.56,48-28.84,48.44A.1.1,0,0,1,40.3,81.24Z" transform="translate(-1.12 -0.04)"/><path class="cls-41" d="M39.63,80.81h-.06a.1.1,0,0,1,0-.13c.26-.44,26.28-44.54,30.77-50.26a.11.11,0,0,1,.14,0,.09.09,0,0,1,0,.13C66,36.24,40,80.32,39.7,80.77A.08.08,0,0,1,39.63,80.81Z" transform="translate(-1.12 -0.04)"/><path class="cls-41" d="M36.52,79h-.05a.09.09,0,0,1,0-.13c.29-.46,29-45.6,30.09-47.74a.11.11,0,0,1,.13,0,.1.1,0,0,1,0,.13C65.58,33.38,36.89,78.53,36.6,79A.12.12,0,0,1,36.52,79Z" transform="translate(-1.12 -0.04)"/><path class="cls-41" d="M37.23,79.41h-.06a.1.1,0,0,1,0-.13C47.84,62.52,68,30.53,67.8,29.32a.09.09,0,0,1,.07-.11.1.1,0,0,1,.11.08c.28,1.58-29.41,48.1-30.68,50.08A.07.07,0,0,1,37.23,79.41Z" transform="translate(-1.12 -0.04)"/><path class="cls-41" d="M37.93,79.82h-.06a.09.09,0,0,1,0-.13c.08-.13,8.15-12.82,16-25.54C67.55,31.93,69.3,27.94,69.1,27.55h0a.09.09,0,1,1,0-.18.18.18,0,0,1,.22.06c.18.23.72.93-15.21,26.75-7.86,12.73-16,25.46-16,25.59A.1.1,0,0,1,37.93,79.82Z" transform="translate(-1.12 -0.04)"/><path class="cls-41" d="M38.72,80.29l0,0a.09.09,0,0,1,0-.13c.07-.12,7.8-13,15.64-25.62C70.19,28.84,71.09,28.77,71.39,28.75a.16.16,0,0,1,.14.06.09.09,0,0,1,0,.13.09.09,0,0,1-.12,0C70,29.13,51.17,59.69,38.8,80.24A.14.14,0,0,1,38.72,80.29Z" transform="translate(-1.12 -0.04)"/><path class="cls-41" d="M67.7,35.91a.06.06,0,0,1,0,0l-3.39-2a.08.08,0,0,1,0-.12.1.1,0,0,1,.13,0l3.39,2a.1.1,0,0,1,0,.13A.1.1,0,0,1,67.7,35.91Z" transform="translate(-1.12 -0.04)"/><path class="cls-41" d="M66.32,38.21h0l-3.44-2a.09.09,0,1,1,.1-.16l3.44,2a.09.09,0,0,1,0,.13A.12.12,0,0,1,66.32,38.21Z" transform="translate(-1.12 -0.04)"/><path class="cls-41" d="M65,40.32h0l-3.4-2a.1.1,0,0,1,0-.13.1.1,0,0,1,.13,0l3.4,2a.1.1,0,0,1,0,.18Z" transform="translate(-1.12 -0.04)"/><path class="cls-41" d="M63.72,42.64h-.06L60.1,40.55a.09.09,0,0,1,0-.13.09.09,0,0,1,.13,0l3.56,2.08a.09.09,0,0,1,0,.13A.08.08,0,0,1,63.72,42.64Z" transform="translate(-1.12 -0.04)"/><path class="cls-41" d="M62.47,44.62l-.06,0-3.52-2.05a.1.1,0,0,1,0-.13.09.09,0,0,1,.13,0l3.52,2a.1.1,0,0,1,0,.13S62.5,44.61,62.47,44.62Z" transform="translate(-1.12 -0.04)"/><path class="cls-41" d="M61.26,46.62l0,0-3.59-2.09a.1.1,0,0,1,0-.13.09.09,0,0,1,.13,0l3.59,2.09a.1.1,0,0,1,0,.18Z" transform="translate(-1.12 -0.04)"/><path class="cls-41" d="M60.25,48.4l0,0-3.67-2.14a.1.1,0,0,1,0-.13.1.1,0,0,1,.13,0l3.66,2.14a.1.1,0,0,1,0,.13A.14.14,0,0,1,60.25,48.4Z" transform="translate(-1.12 -0.04)"/><path class="cls-41" d="M59.27,50.25a.07.07,0,0,1-.06,0L55.45,48a.09.09,0,0,1,0-.13.1.1,0,0,1,.13,0l3.76,2.2a.1.1,0,0,1,0,.13A.08.08,0,0,1,59.27,50.25Z" transform="translate(-1.12 -0.04)"/><path class="cls-41" d="M58.35,52h-.06l-3.84-2.25a.08.08,0,0,1,0-.12.1.1,0,0,1,.13,0l3.84,2.24a.1.1,0,0,1,0,.13S58.38,52,58.35,52Z" transform="translate(-1.12 -0.04)"/><path class="cls-41" d="M57.42,53.44l-.06,0-3.9-2.28a.1.1,0,0,1,0-.13.1.1,0,0,1,.13,0l3.91,2.28a.1.1,0,0,1,0,.13S57.45,53.43,57.42,53.44Z" transform="translate(-1.12 -0.04)"/><path class="cls-41" d="M56.54,55h-.06l-4-2.34a.1.1,0,0,1,.09-.17l4,2.35a.08.08,0,0,1,0,.12A.08.08,0,0,1,56.54,55Z" transform="translate(-1.12 -0.04)"/><path class="cls-41" d="M55.75,56.31a.07.07,0,0,1-.06,0l-4-2.35a.1.1,0,0,1,0-.13.09.09,0,0,1,.13,0l4,2.35a.1.1,0,0,1,0,.13A.08.08,0,0,1,55.75,56.31Z" transform="translate(-1.12 -0.04)"/><path class="cls-41" d="M55,57.68l-.05,0-4.09-2.39a.1.1,0,0,1,0-.13.11.11,0,0,1,.13,0L55,57.5a.1.1,0,0,1,0,.13A.1.1,0,0,1,55,57.68Z" transform="translate(-1.12 -0.04)"/><path class="cls-41" d="M54.25,58.89h-.06l-4.11-2.41a.08.08,0,0,1,0-.12.1.1,0,0,1,.13,0l4.11,2.41a.08.08,0,0,1,0,.12A.08.08,0,0,1,54.25,58.89Z" transform="translate(-1.12 -0.04)"/><path class="cls-41" d="M53.55,60.1h-.06l-4.17-2.44a.1.1,0,0,1,0-.13.1.1,0,0,1,.13,0l4.18,2.44a.09.09,0,0,1,0,.13A.1.1,0,0,1,53.55,60.1Z" transform="translate(-1.12 -0.04)"/><path class="cls-41" d="M52.84,61.31h-.05l-4.2-2.45a.1.1,0,0,1,0-.13.1.1,0,0,1,.13,0l4.19,2.45a.1.1,0,0,1,0,.13A.09.09,0,0,1,52.84,61.31Z" transform="translate(-1.12 -0.04)"/><path class="cls-41" d="M52.2,62.42a.07.07,0,0,1-.06,0L47.93,60a.09.09,0,1,1,.1-.16l4.21,2.46a.1.1,0,0,1,0,.13A.08.08,0,0,1,52.2,62.42Z" transform="translate(-1.12 -0.04)"/><path class="cls-41" d="M51.61,63.43a.07.07,0,0,1-.06,0L47.33,61a.09.09,0,0,1,0-.13.09.09,0,0,1,.13,0l4.22,2.47a.09.09,0,0,1,0,.13A.07.07,0,0,1,51.61,63.43Z" transform="translate(-1.12 -0.04)"/><path class="cls-41" d="M51.06,64.47l-.06,0L46.73,62a.1.1,0,0,1,0-.13.11.11,0,0,1,.13,0l4.28,2.5a.1.1,0,0,1,0,.13A.14.14,0,0,1,51.06,64.47Z" transform="translate(-1.12 -0.04)"/><path class="cls-41" d="M50.48,65.34a0,0,0,0,1,0,0l-4.25-2.48a.09.09,0,0,1,0-.13.11.11,0,0,1,.13,0l4.24,2.48a.1.1,0,0,1,0,.13A.09.09,0,0,1,50.48,65.34Z" transform="translate(-1.12 -0.04)"/><path class="cls-41" d="M50.09,66,50,66l-4.3-2.51a.1.1,0,0,1,.09-.17l4.31,2.52a.09.09,0,0,1,0,.13S50.12,66,50.09,66Z" transform="translate(-1.12 -0.04)"/><path class="cls-41" d="M49.67,66.77l-.05,0L45.2,64.17a.09.09,0,0,1,.1-.16l4.42,2.58a.1.1,0,0,1,0,.13A.1.1,0,0,1,49.67,66.77Z" transform="translate(-1.12 -0.04)"/><path class="cls-18" d="M58.57,55.19a3.17,3.17,0,0,0,1.57,1.87c.79.39,1.84.49,2.55-1.13,1.26-2.88,4.1-13.61,4.1-13.61s1.3-3.47.83-5.18-1.71-3-2-2.79,1.1,2.14,1.23,3.59a.6.6,0,0,1-.35.48s-1.17-3.54-2.39-3.12c0,0-.34.15,0,.63,0,0-.42-.11-.59.15s.38,1.25.38,1.25-.61-.48-.85-.24.15,1.13.45,1.59a5.62,5.62,0,0,1,.45,3c-.21.76-.35,2.13.12,2.63,0,0-4.43,6.17-5,7.69A4.18,4.18,0,0,0,58.57,55.19Z" transform="translate(-1.12 -0.04)"/><path class="cls-42" d="M64.07,35.93a2.84,2.84,0,0,1,.69.65,4.58,4.58,0,0,1,.48.8,7.19,7.19,0,0,1,.37.86c.1.3.18.6.25.9,0,0,0,0,0,0h0a9,9,0,0,0-.33-.86,6.4,6.4,0,0,0-.41-.83c-.16-.26-.34-.51-.51-.76s-.35-.5-.55-.75h0Z" transform="translate(-1.12 -0.04)"/><path class="cls-42" d="M63.86,37.33a3,3,0,0,1,.48.58,5.32,5.32,0,0,1,.35.67A8.69,8.69,0,0,1,65.23,40h0c-.1-.23-.2-.46-.31-.68s-.22-.44-.35-.66-.26-.42-.37-.63-.24-.44-.34-.67c0,0,0,0,0,0Z" transform="translate(-1.12 -0.04)"/><path class="cls-32" d="M32.53,66.09S33,64,32,63.43s-3.13-1.15-3.92-.28-2.39,2.68-1.79,7.19a1.89,1.89,0,0,0,2,1.66c1.93,0,2.9-.5,3.34-2.26S32.53,66.09,32.53,66.09Z" transform="translate(-1.12 -0.04)"/><path class="cls-18" d="M31.84,64.15s-2.18,1.76-1.64,6.39l10.61-1.72s5.7-.08,5.74-.67-1.08-.57-1.08-.57,2.68-.11,2.71-.84-.4-.61-.4-.61.72-.08.61-.55-.68-.59-.68-.59.82,0,.69-.45c-.21-.66-2.89-.76-2.89-.76s.92-.69.15-.76a5.84,5.84,0,0,0-5.37,2.75Z" transform="translate(-1.12 -0.04)"/><path class="cls-43" d="M44.28,65.31a5.2,5.2,0,0,1,.84-.22A6.3,6.3,0,0,1,46,65a11.11,11.11,0,0,1,1.73,0h0s0,0,0,0a12.32,12.32,0,0,0-1.71.14c-.28,0-.56.1-.85.13a8.1,8.1,0,0,1-.86.06s0,0,0,0Z" transform="translate(-1.12 -0.04)"/><path class="cls-43" d="M44.33,64a.79.79,0,0,1,.28-.13,1.45,1.45,0,0,1,.3,0l.6,0h0c-.19.06-.39.11-.58.15a1,1,0,0,1-.29.06.84.84,0,0,1-.31,0v0Z" transform="translate(-1.12 -0.04)"/><path class="cls-43" d="M44.69,66.39a6.8,6.8,0,0,1,.76-.15c.26,0,.52,0,.78,0l1.55-.07h0l-1.55.2c-.26,0-.51.08-.77.09a5.08,5.08,0,0,1-.78,0h0Z" transform="translate(-1.12 -0.04)"/><path class="cls-43" d="M44.53,67.54a.55.55,0,0,1,.24-.07.6.6,0,0,1,.23,0l.47.08h0l-.47,0a.65.65,0,0,1-.24,0,.48.48,0,0,1-.23-.09h0Z" transform="translate(-1.12 -0.04)"/><path class="cls-30" d="M30.42,71.22a.18.18,0,0,1-.19-.14s-1.17-4.18,1.49-7.16a.2.2,0,0,1,.27,0,.18.18,0,0,1,0,.26C29.49,67,30.58,70.94,30.59,71a.19.19,0,0,1-.13.23Z" transform="translate(-1.12 -0.04)"/><path class="cls-44" d="M97.76,33.06c-.91,2.56-6.47,3-12.43.95s-10-5.78-9.15-8.34,6.47-3,12.43-1S98.66,30.49,97.76,33.06Z" transform="translate(-1.12 -0.04)"/><path class="cls-40" d="M81.94,26.68a4.19,4.19,0,0,0-2.69,3.82c0,2.9-.71,3.85-1.66,4.32s-3.36,1.57-2.39,3.7,2.69,2.4,1.56,3.62S74,44.3,76.64,45.91s5.25-.48,5.58,1.75,12.9,10.19,15.66,9.64c8.63-1.71,1.43-9.49-3-14.06-1.23-1.25-1.3-2.78,0-3.23s2.11-1.51.95-3.06S93.12,34.69,93,32.38,89.86,22.81,81.94,26.68Z" transform="translate(-1.12 -0.04)"/><path class="cls-45" d="M87.38,28a8.35,8.35,0,0,1,2.41,3.37,5.55,5.55,0,0,1,.36,1.59.1.1,0,0,1,0,0,.07.07,0,0,0,.07.07h0a.09.09,0,0,0,.08-.08s0-.06,0-.15a7.8,7.8,0,0,0-2.81-4.95,19.17,19.17,0,0,1-2.27-2.23l-.18,0A19.59,19.59,0,0,0,87.38,28Z" transform="translate(-1.12 -0.04)"/><path class="cls-45" d="M91,32.11h.23c.13-.92.29-2.27.34-3.45l-.14-.21c0,1-.17,2.27-.29,3.21a12,12,0,0,0-.36-2.3,8.44,8.44,0,0,0-1.51-3L89,26.22a8.47,8.47,0,0,1,1.69,3.17A10.74,10.74,0,0,1,91,32.11Z" transform="translate(-1.12 -0.04)"/><path class="cls-45" d="M80.27,33.33a4.86,4.86,0,0,1-1.26,1l-.57.38a2.28,2.28,0,0,0-1.14,2,2.5,2.5,0,0,0,1,1.5l.24.19a3.88,3.88,0,0,1,1,1,1.22,1.22,0,0,1,.18.68,1.94,1.94,0,0,1-.47,1l-.06.09A3.27,3.27,0,0,0,78.47,43a1.37,1.37,0,0,0,0,.28h.14a2.72,2.72,0,0,1,0-.28,3.2,3.2,0,0,1,.72-1.7l.06-.08a2.07,2.07,0,0,0,.5-1,1.32,1.32,0,0,0-.2-.76,4,4,0,0,0-1-1.08l-.24-.19a2.39,2.39,0,0,1-1-1.41c-.11-.87.72-1.58,1.08-1.85l.56-.38a5.12,5.12,0,0,0,1.3-1.06l.07-.09a2.44,2.44,0,0,1,0-.27C80.4,33.15,80.33,33.24,80.27,33.33Z" transform="translate(-1.12 -0.04)"/><path class="cls-45" d="M82.39,39.43l0,.06a2.84,2.84,0,0,1,.39,1.95,3.65,3.65,0,0,1-.59,1.14,6.07,6.07,0,0,0-.48.82,2.71,2.71,0,0,0-.21,1l.15,0a2.35,2.35,0,0,1,.2-.92,5.4,5.4,0,0,1,.47-.8,3.81,3.81,0,0,0,.6-1.19,2.89,2.89,0,0,0-.35-2Z" transform="translate(-1.12 -0.04)"/><path class="cls-45" d="M91.09,37.24a3.12,3.12,0,0,0,.19-1.41l-.14.07A3.17,3.17,0,0,1,91,37.19,5.2,5.2,0,0,1,89.58,39a7.86,7.86,0,0,0-1.09,1.22,3.7,3.7,0,0,0-.31,3.62l0,0h.17l-.06-.11a3.59,3.59,0,0,1,.3-3.48,8.14,8.14,0,0,1,1.08-1.2A5.35,5.35,0,0,0,91.09,37.24Z" transform="translate(-1.12 -0.04)"/><path class="cls-45" d="M93.34,33.89h0l0,0Z" transform="translate(-1.12 -0.04)"/><path class="cls-45" d="M93.38,35.92A4.62,4.62,0,0,1,92.7,39a4.7,4.7,0,0,1-1.32,1l-.24.14a3.26,3.26,0,0,0-1.42,1.38,3.48,3.48,0,0,0,.07,2.27h.09l.06,0s0,0,0-.05a3.42,3.42,0,0,1-.08-2.18,3.21,3.21,0,0,1,1.36-1.32l.24-.14a4.93,4.93,0,0,0,1.37-1,4.74,4.74,0,0,0,.71-3.2l0-1.64a3.45,3.45,0,0,1-.14-.34l0,0V34Z" transform="translate(-1.12 -0.04)"/><path class="cls-46" d="M99.17,98.51h-5.4l0,0s1.51-15.11,1.69-22.62a.22.22,0,0,1,.43,0C96.82,81.52,99.05,95,99.17,98.51Z" transform="translate(-1.12 -0.04)"/><path class="cls-47" d="M73.5,97.16s5.22-2.41,10.09-.58,11.64,4.27,18,.21c0,0-.27-1.83-3.41-3.16s-17.66-.18-17.66-.18l-2.09.22-2.74.93C75.54,94.64,73.5,97.16,73.5,97.16Z" transform="translate(-1.12 -0.04)"/><path class="cls-46" d="M100.43,92.12s3.46,27.67.08,52.26H96.2S89.51,97.3,89.77,92.12,100.43,92.12,100.43,92.12Z" transform="translate(-1.12 -0.04)"/><path class="cls-48" d="M100.28,153.33l.23-9H96.2s-.78,5-2.15,6.7-5.82,2.55-5.82,2.55A1.69,1.69,0,0,0,86.69,155l8.12-.15s3.37-4.93,3.75-4.66.22,4.64.22,4.64l1.52-.05Z" transform="translate(-1.12 -0.04)"/><path class="cls-19" d="M96.49,140.89s1-4.06,0-4.84-.84.77-.56,2.11S95.75,142,96.49,140.89Z" transform="translate(-1.12 -0.04)"/><path class="cls-19" d="M96,132.55s-.52-2.56-1-2.05.4,2.31.64,2.43S96,133.24,96,132.55Z" transform="translate(-1.12 -0.04)"/><path class="cls-42" d="M100.43,92.12s-.87-.44-2.12-.93c-.77-5.29-1.86-11.82-2.46-15.37a.22.22,0,0,0-.43,0c-.09,3.76-.52,9.44-.92,14.16-2.38-.47-4.6-.26-4.73,2.1A44.68,44.68,0,0,0,90,96.63c1.12-.2,3.47-.45,4.59.82l1-14.09,1.94,13.12a5.57,5.57,0,0,1,3.35.54C100.66,93.93,100.43,92.12,100.43,92.12Z" transform="translate(-1.12 -0.04)"/><path class="cls-46" d="M86.38,92.2s2.54,28.3-4.28,52.18l-4.27-.6s-3-47.95-2-53S86.38,92.2,86.38,92.2Z" transform="translate(-1.12 -0.04)"/><path class="cls-48" d="M80.6,153.21l1.5-8.83-4.27-.6s-1.48,4.86-3.08,6.35-6.12,1.72-6.12,1.72A1.71,1.71,0,0,0,66.92,153l8.06,1s4-4.42,4.36-4.1-.43,4.62-.43,4.62l1.51.16Z" transform="translate(-1.12 -0.04)"/><path class="cls-19" d="M84.87,99.2s2,3.7,1.17,4.69-1-.54-1.05-1.91S83.88,98.31,84.87,99.2Z" transform="translate(-1.12 -0.04)"/><path class="cls-19" d="M85.62,107.61s.13,2.61-.45,2.23-.18-2.34,0-2.52S85.47,106.93,85.62,107.61Z" transform="translate(-1.12 -0.04)"/><path class="cls-42" d="M78.24,93.2l-2.61,3.13c0,.78,0,1.63,0,2.52,2,1,6.63,2.52,11.07-.34-.14-3.94-.35-6.31-.35-6.31s-.28-.19-.75-.48a16.56,16.56,0,0,0-2.15-.63Z" transform="translate(-1.12 -0.04)"/><path class="cls-44" d="M81,44.4s-5.9-.32-7.25,4-1,14.87-.35,17,2.86,3.07,4.32,2.41,2.38-4,2.38-4,1.9,4.93,0,8.21A45.78,45.78,0,0,0,73.5,97.16s6.65,3,12.13.36,8.19-1.33,8.19-1.33l1.85-16.78,2.54,16.18s2.74.15,3.34,1.2c0,0-.34-17-2.17-21.71s-2.8-6.94-2.8-6.94A3.86,3.86,0,0,0,99.85,64c0-3.82.65-17.92-4.75-19.26s-6-.56-6-.56l-3.66,1.12-2.82-.12-1,.21Z" transform="translate(-1.12 -0.04)"/><g class="cls-49"><g class="cls-50"><path class="cls-51" d="M80.66,91l.17,0c1.14.38,2.13-.82,3.27-.44.82.28,1.59.77,2.49,1A20.38,20.38,0,0,1,93,94c3.41,2.35-2.92,3.54-4.39,3.89s-2.51.92-4,.48a10.26,10.26,0,0,1-3.25-2c-1-.84-3-1.91-3.36-3.24C77.46,91.55,78.37,90.33,80.66,91Z" transform="translate(-1.12 -0.04)"/><path class="cls-52" d="M77.13,91.56c4.5,3.43,16.31,3.86,16.43,3.86v-.09c-.13,0-12.45-.45-16.68-4.08l-.06.07A1.76,1.76,0,0,0,77.13,91.56Z" transform="translate(-1.12 -0.04)"/><path class="cls-53" d="M69.61,78.05a9.23,9.23,0,0,1,4.59,5.39,15.82,15.82,0,0,0,1.14,3,4.37,4.37,0,0,1,.4,3l-.1.28c.22,3.26-4.39-.24-5.36-.86-2.16-1.4-4.94-2.93-5.21-6C64.91,80.66,66.86,76.79,69.61,78.05Z" transform="translate(-1.12 -0.04)"/><path class="cls-54" d="M85,85.23a10.48,10.48,0,0,1,3.3.25c1.51.08,7.12.3,4.42,2.52C91.35,89.12,81.43,89.3,82,87l0-.1A6.1,6.1,0,0,1,85,85.23Z" transform="translate(-1.12 -0.04)"/><path class="cls-53" d="M79.72,85c2-2.13.72-4.92-.32-7.14-.48-1.08-2-5.52-3.68-3.15-.82,1,.09,2.8.3,3.92s0,2.41.2,3.59c.3,1.78,1.58,3.23,3.44,2.86" transform="translate(-1.12 -0.04)"/><path class="cls-52" d="M84.71,82l.13,0c.61,0,8.74-.36,6.92,1.34-.6.62-3.6.12-4.42.09a4.28,4.28,0,0,1-2.91-.9C84.47,82.34,84.22,82.32,84.71,82Z" transform="translate(-1.12 -0.04)"/><path class="cls-51" d="M82.75,77c.77,1.18.73,2.93.77,4.26l0,0c-.67,1-2.57-3.2-2.5-4.21C81.24,75.84,81.91,75.75,82.75,77Z" transform="translate(-1.12 -0.04)"/><path class="cls-53" d="M87.77,73.2c1.72.12,2,3.9,1.82,5.07-.27,1.58-2,2.19-3.58,2.26h-.07c-1.4-.29-1.38-1.7-1-3.29C85.23,76.14,86.34,73.18,87.77,73.2Z" transform="translate(-1.12 -0.04)"/><path class="cls-52" d="M80.18,86.77c1.21.46,4.33.88,12.33.28l.4,0v-.1l-.41,0c-8,.6-11.09.19-12.29-.27Z" transform="translate(-1.12 -0.04)"/><path class="cls-52" d="M80.27,86.18a.72.72,0,0,0,.17.1l0-.09s-1-.41-1.4-3.37c0-.06-1.1-6.2-2.46-8.06l-.07,0c1.34,1.85,2.42,8,2.44,8C79.28,85.17,80,85.94,80.27,86.18Z" transform="translate(-1.12 -0.04)"/><path class="cls-52" d="M83.48,82.58c1.29-.2,7.94.39,8,.39v-.09a76.53,76.53,0,0,0-8-.39Z" transform="translate(-1.12 -0.04)"/><path class="cls-52" d="M83.49,82.56l.09,0A17.09,17.09,0,0,0,83.07,80a12.11,12.11,0,0,0-1.28-3.42l-.07,0C82.66,78,83.51,82.41,83.49,82.56Z" transform="translate(-1.12 -0.04)"/><path class="cls-52" d="M73.14,98.34l.09,0a47.65,47.65,0,0,1,3.26-6.31,79.68,79.68,0,0,1,7-9.33c3.74-3.86,4.72-6.86,4.72-6.89l-.09,0s-1,3-4.71,6.85a82.22,82.22,0,0,0-7,9.34A49.28,49.28,0,0,0,73.14,98.34Z" transform="translate(-1.12 -0.04)"/><path class="cls-52" d="M76.66,91.61l.06-.07c-.08-.07-8.11-7.76-8.69-12.42l-.09,0C68.51,83.82,76.58,91.53,76.66,91.61Z" transform="translate(-1.12 -0.04)"/></g><g class="cls-50"><path class="cls-51" d="M102.82,87.67l-.18,0c-1.14.38-2.13-.83-3.27-.44-.82.28-1.58.76-2.48,1-2.24.63-4.4,1.1-6.36,2.45-3.42,2.35,2.92,3.54,4.38,3.89s2.52.92,4,.49a10.22,10.22,0,0,0,3.26-2c1-.83,3-1.9,3.36-3.24C106,88.27,105.11,87.05,102.82,87.67Z" transform="translate(-1.12 -0.04)"/><path class="cls-52" d="M106.35,88.29c-4.51,3.43-16.32,3.85-16.44,3.85v-.09c.12,0,12.44-.45,16.68-4.08l.06.08Z" transform="translate(-1.12 -0.04)"/><path class="cls-53" d="M113.86,74.77a9.18,9.18,0,0,0-4.58,5.39,16.55,16.55,0,0,1-1.15,3,4.34,4.34,0,0,0-.39,3l.1.28c-.22,3.26,4.39-.25,5.35-.87,2.16-1.4,5-2.93,5.21-6C118.56,77.38,116.61,73.51,113.86,74.77Z" transform="translate(-1.12 -0.04)"/><path class="cls-54" d="M98.49,82a11.08,11.08,0,0,0-3.3.25c-1.51.08-7.13.31-4.42,2.53,1.35,1.11,11.27,1.29,10.69-1l0-.1A6.15,6.15,0,0,0,98.49,82Z" transform="translate(-1.12 -0.04)"/><path class="cls-53" d="M103.76,81.74c-2-2.13-.72-4.92.32-7.13.48-1.08,1.94-5.53,3.68-3.16.81,1-.1,2.81-.31,3.92s0,2.41-.2,3.6c-.3,1.77-1.57,3.22-3.43,2.85" transform="translate(-1.12 -0.04)"/><path class="cls-52" d="M98.77,78.76h-.14c-.61,0-8.73-.37-6.91,1.33.6.62,3.59.12,4.41.09a4.26,4.26,0,0,0,2.91-.9C99,79.06,99.26,79,98.77,78.76Z" transform="translate(-1.12 -0.04)"/><path class="cls-51" d="M100.72,73.71C100,74.89,100,76.64,100,78l0,0c.66,1,2.56-3.19,2.49-4.21C102.23,72.56,101.56,72.48,100.72,73.71Z" transform="translate(-1.12 -0.04)"/><path class="cls-53" d="M95.7,69.92c-1.72.12-2,3.91-1.82,5.07.27,1.58,2,2.2,3.59,2.27h.06c1.4-.3,1.38-1.71,1-3.3C98.24,72.86,97.13,69.9,95.7,69.92Z" transform="translate(-1.12 -0.04)"/><path class="cls-52" d="M103.3,83.49c-1.21.46-4.33.88-12.34.28l-.39,0v-.09l.41,0c8,.6,11.09.18,12.29-.28Z" transform="translate(-1.12 -0.04)"/><path class="cls-52" d="M103.2,82.9a.38.38,0,0,1-.16.1l0-.08s1-.42,1.41-3.37c0-.07,1.09-6.21,2.45-8.07l.08.06c-1.35,1.84-2.43,8-2.44,8C104.2,81.89,103.52,82.66,103.2,82.9Z" transform="translate(-1.12 -0.04)"/><path class="cls-52" d="M100,79.3c-1.28-.19-7.94.39-8,.39V79.6a79.53,79.53,0,0,1,8-.39Z" transform="translate(-1.12 -0.04)"/><path class="cls-52" d="M100,79.29l-.09,0a15.78,15.78,0,0,1,.51-2.55,12.11,12.11,0,0,1,1.27-3.42l.08.06C100.81,74.7,100,79.13,100,79.29Z" transform="translate(-1.12 -0.04)"/><path class="cls-52" d="M110.34,95.07l-.1,0A48,48,0,0,0,107,88.79,82.12,82.12,0,0,0,100,79.46c-3.74-3.86-4.72-6.85-4.73-6.88l.09,0s1,3,4.71,6.85a82.22,82.22,0,0,1,7,9.34A48.57,48.57,0,0,1,110.34,95.07Z" transform="translate(-1.12 -0.04)"/><path class="cls-52" d="M106.82,88.33l-.07-.06c.08-.08,8.12-7.77,8.69-12.42h.1C115,80.54,106.9,88.26,106.82,88.33Z" transform="translate(-1.12 -0.04)"/></g></g><path class="cls-19" d="M96.46,26.33c-.1-.64-.75-.76-1.27-.59a8.21,8.21,0,0,0-.78.29,3.14,3.14,0,0,0,.31-.32c.26-.33.57-1,.07-1.25s-1.05.15-1.33.5a6.56,6.56,0,0,0-.92,2,.15.15,0,0,0,0,.14.15.15,0,0,0,.06.1.14.14,0,0,0,.11.12C93.5,27.55,96.72,27.93,96.46,26.33Zm-2.73-1.19c.15-.18.94-.83,1-.12,0,.46-.71.94-1,1.14s-.46.28-.68.43c.12-.31.23-.62.38-.92A2.28,2.28,0,0,1,93.73,25.14Zm.69,2.08A5.37,5.37,0,0,1,93,27.08c.36-.2.74-.38,1.13-.55s1.49-.83,1.9-.43C96.87,27,94.8,27.2,94.42,27.22Z" transform="translate(-1.12 -0.04)"/><path class="cls-55" d="M92.73,26.55a24.83,24.83,0,0,0-4.12-1.83,23.68,23.68,0,0,0-5.17-1.18,2.85,2.85,0,0,1,3.63-1.68l3.86,1.35A2.79,2.79,0,0,1,92.73,26.55Z" transform="translate(-1.12 -0.04)"/><path class="cls-18" d="M92.67,33.64a2.5,2.5,0,0,1-2.53,2.76l0,.48a4.69,4.69,0,0,1-1.6,2.31c-1.82,1.62-2.41,2.06-2.16,3.73.15,1.06,1.76,1.22,2.79,1.21C85.71,50.06,85.2,62,85.2,62a85.83,85.83,0,0,1-3.66-11.43A25.78,25.78,0,0,1,81,44.4a2.33,2.33,0,0,0,1.84.17A1.89,1.89,0,0,0,84,42.27V39.88h-.65a2.52,2.52,0,0,1-1.23-.33A2.47,2.47,0,0,1,81,37.84c-.06-.32-.12-.68-.17-1.07s-.13-1-.17-1.56a26.9,26.9,0,0,1-.07-3.52c.23-4.23,1.22-4.63,1.22-4.63-.58,2.18,8.53,6.18,8.53,6.18a1.17,1.17,0,0,1,.87-.87A1.27,1.27,0,0,1,92.67,33.64Z" transform="translate(-1.12 -0.04)"/><path class="cls-25" d="M92.23,33.12a4.07,4.07,0,0,0-.65.53,4.53,4.53,0,0,0-.54.62,6.46,6.46,0,0,0-.44.71c-.07.12-.12.25-.18.37l-.17.39h0a.06.06,0,0,1-.09,0s-.05,0-.05-.08l.09-.42c0-.14.09-.29.15-.42a3.5,3.5,0,0,1,.43-.78,3.76,3.76,0,0,1,.61-.65,2.57,2.57,0,0,1,.79-.45.07.07,0,0,1,.09.05.06.06,0,0,1,0,.08Z" transform="translate(-1.12 -0.04)"/><path class="cls-56" d="M92.1,34.56l-.37,0a2.43,2.43,0,0,0-.38,0,2.33,2.33,0,0,0-.36.08l-.18.06-.18.07h0a0,0,0,0,1,0,0s0,0,0,0l.17-.11.18-.08a2.85,2.85,0,0,1,.39-.11,1.88,1.88,0,0,1,.41,0,1.43,1.43,0,0,1,.39.11,0,0,0,0,1,0,0s0,0,0,0Z" transform="translate(-1.12 -0.04)"/><path class="cls-40" d="M86.68,39.88a3.2,3.2,0,0,1-1.9,1.42,1.46,1.46,0,0,1-.76-.08V39.88Z" transform="translate(-1.12 -0.04)"/><path class="cls-25" d="M87,39.61s-.07,0-.07-.06a.08.08,0,0,1,.06-.09,3.81,3.81,0,0,0,2.82-3.13.07.07,0,0,1,.09,0s.07,0,.06.08a4.18,4.18,0,0,1-1.69,2.69,3.64,3.64,0,0,1-1.26.56Z" transform="translate(-1.12 -0.04)"/><path class="cls-56" d="M84.23,35.88h0l-.49-.31a.1.1,0,0,1,0-.07c.09-1.8.26-4,.26-4s0-.07.08-.06.08,0,.07.07-.17,2.21-.25,4l.45.29a.08.08,0,0,1,0,.1A.07.07,0,0,1,84.23,35.88Z" transform="translate(-1.12 -0.04)"/><path class="cls-48" d="M74.83,53a.11.11,0,0,0-.11.09,27.58,27.58,0,0,1-.8,4.6A16.58,16.58,0,0,0,73,61.93a.1.1,0,0,0,.1.08h0a.08.08,0,0,0,.08-.1,16.11,16.11,0,0,1,.9-4.16,27.45,27.45,0,0,0,.81-4.64A.09.09,0,0,0,74.83,53Z" transform="translate(-1.12 -0.04)"/><path class="cls-48" d="M78.06,60.32c-.23-1.69-.33-7-.33-7.09a.09.09,0,0,0-.1-.09.09.09,0,0,0-.09.09c0,.05.1,5.41.33,7.11a8.15,8.15,0,0,0,1.93,3.58.11.11,0,0,0,.07,0,.09.09,0,0,0,.07,0,.09.09,0,0,0,0-.13A8.13,8.13,0,0,1,78.06,60.32Z" transform="translate(-1.12 -0.04)"/><path class="cls-48" d="M97.42,63.79a3.67,3.67,0,0,0-2.59-1l-1.7-11.37a.1.1,0,0,0-.11-.08.1.1,0,0,0-.08.11l1.7,11.37a25.69,25.69,0,0,0-5.93,2.64c-3.55,2.06-4.85,2.09-4.86,2.09a.12.12,0,0,0-.08,0,.11.11,0,0,0,0,.08l.77,2.61a.11.11,0,0,0,.1.07h0c.09,0,9.26-1.1,11.89-2.08a.1.1,0,0,0,.06-.13.1.1,0,0,0-.12,0c-2.49.93-10.86,2-11.78,2.06L84,67.73c.4,0,1.8-.35,4.84-2.11a25,25,0,0,1,6-2.64,3.6,3.6,0,0,1,2.53.94.07.07,0,0,0,.06,0,.09.09,0,0,0,.07,0A.09.09,0,0,0,97.42,63.79Z" transform="translate(-1.12 -0.04)"/><path class="cls-19" d="M88.08,44c-.42,2.45-2.08,11.15-4.17,11.15s-2.59-7.34-2.75-10.24h.19c.2,3.6.92,10.07,2.56,10.07.63,0,1.63-1,2.87-5.78.55-2.1.94-4.23,1.12-5.23Z" transform="translate(-1.12 -0.04)"/><path class="cls-19" d="M88.43,44.08c-.42,3-2.46,16.48-4.84,16.48s-2.9-11.92-3-15.72l.19,0c.2,5.21,1,15.5,2.86,15.5s4-11.32,4.65-16.34Z" transform="translate(-1.12 -0.04)"/><path class="cls-57" d="M79.52,46.77A2.78,2.78,0,0,0,83,44.9a2.73,2.73,0,0,0-1.89-3.39,2.78,2.78,0,0,0-3.44,1.86A2.73,2.73,0,0,0,79.52,46.77Z" transform="translate(-1.12 -0.04)"/><polygon class="cls-43" points="81.86 45.22 82.05 44.58 76.48 42.98 76.29 43.62 81.86 45.22"/><polygon class="cls-43" points="75.79 54.04 76.6 54.27 78.26 51.01 79.53 48.5 80.6 46.39 76.72 45.28 76.47 47.62 76.18 50.41 75.79 54.04"/><polygon class="cls-57" points="76.18 50.41 78.26 51.01 79.53 48.5 76.47 47.62 76.18 50.41"/><path class="cls-43" d="M78.11,51.28a1.42,1.42,0,0,1-.42-.06V155.29h1.37V50.94A1.37,1.37,0,0,1,78.11,51.28Z" transform="translate(-1.12 -0.04)"/><path class="cls-43" d="M73.94,156.55a1.27,1.27,0,0,0,1.27,1.26h6.12a1.27,1.27,0,0,0,1.28-1.26h0a1.27,1.27,0,0,0-1.28-1.26H75.21a1.27,1.27,0,0,0-1.27,1.26Z" transform="translate(-1.12 -0.04)"/><path class="cls-18" d="M77.07,51.87s1.51,2.18,0,3-4.93-4-3.89-6.08,3.49-3.53,4.36-3.17-.23,3.24-.23,3.24.53-.76.83-.69S77.57,50.94,77.07,51.87Z" transform="translate(-1.12 -0.04)"/><path class="cls-42" d="M77.33,48.86a2.54,2.54,0,0,0-.35.46c-.1.16-.16.34-.25.51-.16.35-.32.69-.47,1h0c.2-.32.4-.65.59-1a4.76,4.76,0,0,0,.28-.49,2.55,2.55,0,0,0,.19-.55h0Z" transform="translate(-1.12 -0.04)"/><path class="cls-42" d="M77.93,46.56a.8.8,0,0,0-.52.13A2.78,2.78,0,0,0,77,47a4.65,4.65,0,0,0-.68.8,15.19,15.19,0,0,0-1.11,1.75h0c.18-.29.38-.57.58-.85s.41-.55.63-.82.45-.51.69-.75a3.92,3.92,0,0,1,.37-.34,1.05,1.05,0,0,1,.45-.22h0Z" transform="translate(-1.12 -0.04)"/><path class="cls-42" d="M76.42,46.25a4.48,4.48,0,0,1,.4-.36,1.15,1.15,0,0,1,.47-.23h0v0a1,1,0,0,0-.55.14,2.89,2.89,0,0,0-.45.33,5.77,5.77,0,0,0-.74.82,16.88,16.88,0,0,0-1.25,1.79h0c.21-.3.43-.59.65-.87s.46-.57.7-.84S76.16,46.5,76.42,46.25Z" transform="translate(-1.12 -0.04)"/><path class="cls-18" d="M85,69.2s0-.5-1.17-1.55A6.36,6.36,0,0,0,79,66c-1.61.3-1,1.26-.34,1.17,0,0-1.36.65-.93,1.28a.65.65,0,0,0,.46.26.44.44,0,0,0-.08.39c.18.52,1.24.37,1.6.31-.22,0-.67.19-.62.52s1.3.44,1.94.31,2.59.76,3.39.45S85,69.2,85,69.2Z" transform="translate(-1.12 -0.04)"/><path class="cls-42" d="M81.91,69.39a1.7,1.7,0,0,0-.53-.16,3.49,3.49,0,0,0-.56,0,8.08,8.08,0,0,0-1.08.17h0s0,0,0,0c.36,0,.72,0,1.08,0l.53,0h.55S81.91,69.39,81.91,69.39Z" transform="translate(-1.12 -0.04)"/><path class="cls-42" d="M80.65,68.46l.41,0,.41,0h0s0,0,0,0a3.24,3.24,0,0,0-.81-.22,3.93,3.93,0,0,0-.84,0,4.63,4.63,0,0,0-.83.13,2.91,2.91,0,0,0-.77.32s0,0,0,0h0a3,3,0,0,1,.78-.25,4.43,4.43,0,0,1,.81-.07C80.11,68.41,80.38,68.44,80.65,68.46Z" transform="translate(-1.12 -0.04)"/><path class="cls-42" d="M79.42,67.13a5.81,5.81,0,0,1,.72.05c.24,0,.47.1.7.13l.36.06a2.2,2.2,0,0,0,.36,0h0s0,0,0,0a2.91,2.91,0,0,0-.69-.27,3.47,3.47,0,0,0-.73-.09,4.45,4.45,0,0,0-.73,0,2.86,2.86,0,0,0-.72.13,0,0,0,0,0,0,0h0A3.5,3.5,0,0,1,79.42,67.13Z" transform="translate(-1.12 -0.04)"/><path class="cls-19" d="M79.32,31.83l2.31.94a5,5,0,0,1,.71.29,1,1,0,0,1,.31,1.38s0,.07.07,0a1.15,1.15,0,0,0-.19-1.36,1.74,1.74,0,0,0-.61-.3l-2.58-1.05a0,0,0,0,0,0,.07Z" transform="translate(-1.12 -0.04)"/><path class="cls-58" d="M86.87,36.61l0,0a1.54,1.54,0,0,0-.08.19Z" transform="translate(-1.12 -0.04)"/><path class="cls-25" d="M86.34,35.51c2.15.06,1.68,1.75-.13,1.65S84.38,35.45,86.34,35.51Z" transform="translate(-1.12 -0.04)"/><path class="cls-25" d="M81,37.19c1.45-.15,1.69-1.59-.28-1.65h-.07A15.46,15.46,0,0,0,81,37.19Z" transform="translate(-1.12 -0.04)"/><path class="cls-59" d="M85.11,32.68a1.76,1.76,0,0,1,2.14,0A1.51,1.51,0,0,0,85.11,32.68Z" transform="translate(-1.12 -0.04)"/><path class="cls-59" d="M84.89,32.19c.17.29,1.18-.43,2-.23s1.11.67,1.24.63-.56-.92-1.69-1S84.73,31.92,84.89,32.19Z" transform="translate(-1.12 -0.04)"/><path class="cls-59" d="M82.62,32c-.18.19-.14,0-.78-.06a1.24,1.24,0,0,0-.69.09c0-.1.09-.2.14-.3C82.23,31.39,82.81,31.81,82.62,32Z" transform="translate(-1.12 -0.04)"/><path class="cls-59" d="M80.86,32.69A1.2,1.2,0,0,1,82,32.55S81.21,32.06,80.86,32.69Z" transform="translate(-1.12 -0.04)"/><path class="cls-59" d="M87.51,34a1.6,1.6,0,0,0-1.3-1c-.9,0-1.18.12-1.61.68,0,0,0-.53.87-.87a1.83,1.83,0,0,1,2,.4c.24.34.48.25.61.09C88.07,33.26,88.2,33.74,87.51,34Z" transform="translate(-1.12 -0.04)"/><path class="cls-59" d="M82.65,33.39a.86.86,0,0,0-.84-.51,1.17,1.17,0,0,0-1,.47v.12a.42.42,0,0,1-.36-.52.33.33,0,0,0,.45-.05A1.09,1.09,0,0,1,82.65,33.39Z" transform="translate(-1.12 -0.04)"/><path class="cls-60" d="M87.54,34.88a1.49,1.49,0,0,0-1.4-1.69,1.6,1.6,0,0,0-1.61.64h0a1.24,1.24,0,0,1,.93-.85,2.62,2.62,0,0,1,.43-.06A1.56,1.56,0,0,1,87.54,34.88Z" transform="translate(-1.12 -0.04)"/><path d="M86.46,33.81a.49.49,0,0,1-1-.08c0-.09-.15-.11-.15,0a.64.64,0,0,0,1.28.1c0-.09-.14-.1-.15,0Z" transform="translate(-1.12 -0.04)"/><path d="M82.27,33.46a.49.49,0,0,1-1-.08c0-.09-.15-.1-.15,0a.64.64,0,0,0,1.28.11.08.08,0,0,0-.15,0Z" transform="translate(-1.12 -0.04)"/><polygon class="cls-61" points="80.92 31.98 78.35 34.31 78.45 34.46 81.21 32 80.92 31.98"/><path class="cls-61" d="M82.79,32.08,79.86,34.8l0,0,.1.09,0,0h0l0,0h0a1.28,1.28,0,0,0,.24.11h0l3-2.9-.06-.09Z" transform="translate(-1.12 -0.04)"/><polygon class="cls-61" points="85.62 32.37 82.94 34.82 83.05 34.98 85.92 32.39 85.62 32.37"/><path class="cls-61" d="M87.52,32.47l-3.06,2.87,0,0a.47.47,0,0,1,.1.1l0,0h0l0,0h0a1.92,1.92,0,0,0,.25.12h0l3.14-3-.07-.1Z" transform="translate(-1.12 -0.04)"/><path class="cls-19" d="M79.18,33.51a2.06,2.06,0,0,0,1.87,1.84,2.09,2.09,0,0,0,2.17-1.51,12.23,12.23,0,0,0,.18-1.72v0h0l-4-.33s0,0,0,0A10.06,10.06,0,0,0,79.18,33.51Zm.19-1.64a.2.2,0,0,0,0-.05h.07l.39,0,1.4.11,2.09.18c0,.39-.06.78-.1,1.18a2,2,0,1,1-3.95-.23C79.3,32.7,79.33,32.28,79.37,31.87Z" transform="translate(-1.12 -0.04)"/><path class="cls-19" d="M88.34,32.53a14,14,0,0,1-.18,1.84,2.24,2.24,0,0,1-4.38-.28,5.58,5.58,0,0,1,0-1c0-.31.06-.62.08-.93a0,0,0,0,1,0,0l4.35.36c.06,0,0,.08,0,.08L84,32.21s0-.07,0,0l0,.2-.06.76A3,3,0,0,0,84,34.7a2.17,2.17,0,0,0,3.84.17,2.92,2.92,0,0,0,.3-1.3l.09-1C88.27,32.48,88.35,32.48,88.34,32.53Z" transform="translate(-1.12 -0.04)"/><path class="cls-1" d="M80.44,35.12a2.22,2.22,0,0,1-.37-.21,2,2,0,0,1-.81-1.8c0-.41.07-.83.11-1.24a.2.2,0,0,0,0-.05h.07l.39,0L81,32c-.17,1-.34,2.1-.39,2.6A1.92,1.92,0,0,1,80.44,35.12Z" transform="translate(-1.12 -0.04)"/><path class="cls-19" d="M79.36,31.82Z" transform="translate(-1.12 -0.04)"/><path class="cls-19" d="M83.39,32.1h0Z" transform="translate(-1.12 -0.04)"/><path class="cls-19" d="M83.39,32.09h0Z" transform="translate(-1.12 -0.04)"/><path class="cls-19" d="M83.38,32.09a0,0,0,0,0-.06,0v0L81.22,32,81,32s0-.05,0-.08l2.4.2Z" transform="translate(-1.12 -0.04)"/><path class="cls-19" d="M82.38,34.91a2,2,0,0,0,.83-1.57c0-.4.07-.79.1-1.18h0a0,0,0,0,0,0-.06v0a12.23,12.23,0,0,1-.18,1.72,2.09,2.09,0,0,1-2.17,1.51,2,2,0,0,1-.64-.16l0-.07A2.07,2.07,0,0,0,82.38,34.91Z" transform="translate(-1.12 -0.04)"/><path class="cls-19" d="M83.38,32.09h0a0,0,0,0,1,0,.06h0v0A0,0,0,0,1,83.38,32.09Z" transform="translate(-1.12 -0.04)"/><path class="cls-19" d="M83.94,32.21l-.63-.06s0-.08,0-.07l.64.05s0,.08,0,.08Z" transform="translate(-1.12 -0.04)"/><path class="cls-19" d="M83.91,32.55l-.59,0s0-.08,0-.08l.59,0a0,0,0,0,1,0,.08Z" transform="translate(-1.12 -0.04)"/><path class="cls-62" d="M83.71,34.29s0,1.06-.57,1.27-.77-.29-.63-.54.54-.26.54-.26l.29-.09.11-.06Z" transform="translate(-1.12 -0.04)"/><path class="cls-63" d="M83.09,35.22a.5.5,0,0,1-.48-.65.26.26,0,0,1,.16-.15c.32-.13.33.3.55.18s.05-.41.14-.56a.11.11,0,0,1,.14,0C83.88,34.08,83.62,35.23,83.09,35.22Z" transform="translate(-1.12 -0.04)"/><path class="cls-64" d="M83.09,35.22a.5.5,0,0,1-.48-.65c0,.12,0,.44.38.45s.5-.23.56-.7-.08-.29-.09-.28a.11.11,0,0,1,.14,0C83.88,34.08,83.62,35.23,83.09,35.22Z" transform="translate(-1.12 -0.04)"/><path class="cls-65" d="M82.79,34.45c.09,0,.2,0,.15.1s-.15.11-.22.05S82.67,34.5,82.79,34.45Z" transform="translate(-1.12 -0.04)"/><path class="cls-43" d="M83,36.76a.85.85,0,0,0,.2.86c.21.13.44,0,.53-.38a.84.84,0,0,0-.2-.86C83.28,36.25,83,36.42,83,36.76Z" transform="translate(-1.12 -0.04)"/></g></g></svg>