<?xml version="1.0" encoding="utf-8"?>
<!-- Generator: Adobe Illustrator 25.0.0, SVG Export Plug-In . SVG Version: 6.00 Build 0)  -->
<svg version="1.1" id="Layer_1" xmlns="http://www.w3.org/2000/svg" xmlns:xlink="http://www.w3.org/1999/xlink" x="0px" y="0px"
	 viewBox="0 0 130 160" style="enable-background:new 0 0 130 160;" xml:space="preserve">
<style type="text/css">
	.st0{fill:#587FDD;}
	.st1{fill:#D74340;}
	.st2{fill:#D8A798;}
	.st3{fill:#151823;}
	.st4{fill:#54B67A;}
	.st5{fill:#339966;}
	.st6{fill:#798EA8;}
	.st7{fill:#F9AD9B;}
	.st8{fill:#B6C2D3;}
	.st9{fill:#FFFFFF;}
	.st10{opacity:0.4;fill:#151823;}
	.st11{fill:#915533;}
	.st12{fill:#A3643A;}
	.st13{fill:#FEBDA9;}
	.st14{fill:#F5A397;}
	.st15{fill:#E2A36A;}
	.st16{opacity:0.3;fill:#B6C2D3;}
	.st17{fill:#96A6BC;}
	.st18{fill:#DCE1E5;}
	.st19{fill:#161928;}
	.st20{fill:#505282;}
	.st21{fill:#F4BE84;}
	.st22{fill:#F9E8CA;}
	.st23{fill:#41466D;}
	.st24{fill:#EF8E7B;}
	.st25{fill:#FFF4E3;}
	.st26{fill:#EFD9B4;}
	.st27{fill:#DDC29B;}
	.st28{fill:#CC685A;}
	.st29{fill:#363956;}
	.st30{fill:#484A7A;}
	.st31{fill:#FFCAB1;}
	.st32{fill:#F4A08C;}
	.st33{fill:#FFB99E;}
	.st34{fill:#FFDDCA;}
	.st35{opacity:0.6;fill:#FFFFFF;}
	.st36{fill:#1B1F47;}
	.st37{fill:#401F47;}
	.st38{fill:#B85C77;}
	.st39{fill:#242B44;}
	.st40{fill:#303A54;}
	.st41{fill:#F79E81;}
	.st42{fill:#DE8484;}
</style>
<path class="st0" d="M84.3,36.8c0,0-32.7,41.1-30.5,28c2.2-13.1,2.5-11.4-13.2-1.6C25,73,16.3,68.9,21.6,58.6
	c5.3-10.2,2.9-19.1-6.4-12.8C6,52.2-1.5,44.8,9.8,28c11.3-16.8,21.9-10.8,32.4-1.3c10.4,9.5,22,6.2,32.8,2.3
	C85.7,25.1,91.2,28.3,84.3,36.8z"/>
<path class="st1" d="M125.1,151.6c0,3.5-25.7,6.2-57.4,6.2c-31.7,0-57.4-2.8-57.4-6.2c0-3.5,25.7-6.2,57.4-6.2
	C99.4,145.4,125.1,148.2,125.1,151.6z"/>
<g>
	<g>
		<g>
			<path class="st2" d="M109.8,124.7c-1.1,4.8-1,19.5-1.3,21.3c-0.2,0.9,0.5,2.1,0.3,2.8c-0.7,2.7-2.7,6.9-4,8.2
				c-1.5,1.5-6.2,0.7-5.1-1.1c1.6-2.6,2-2.9,3.4-6.6c1.4-3.7,0.2-18.4,0.2-24.3C103.4,119.1,110.9,119.9,109.8,124.7z"/>
		</g>
		<path class="st3" d="M101.3,153.5c-1,1.2-3.1,3.1-3.2,3.7c-0.1,0.7,0.2,1.6,0.2,1.6s1.8,0.6,5.7-0.4c2.6-0.7,2.3-1.7,3.2-3.6
			c0.9-1.7,1.8-3,2.2-3.6c1.1-2-0.2-3.9-0.6-3.3c-0.3,0.7-0.9,3.1-2.8,5.2c-1.9,2.1-4.1,2.6-4.7,2.4
			C100.4,155.3,101.3,153.5,101.3,153.5z"/>
		<path class="st3" d="M109.1,150.4c-0.3,1.3-1.2,5.2-0.8,5.9c-0.4,0.2-0.6,0-0.6,0l-0.3-4.4L109.1,150.4z"/>
	</g>
	<g>
		<g>
			<path class="st2" d="M96.5,125.5c-1,4.8-0.7,17.2-1.1,19c-0.2,0.9,0.5,2.1,0.3,2.8c-0.7,2.7-2.7,6.9-4,8.2
				c-1.5,1.5-5.9,1-4.8-0.8c1.6-2.6,2.3-3.2,3.7-6.9c1.4-3.7,0.7-18.9,0.7-24.8C91.3,117.1,97.6,120.7,96.5,125.5z"/>
		</g>
		<path class="st3" d="M88.5,152.1c-1,1.2-2.8,2.7-2.9,3.4c-0.2,0.7,0.2,1.6,0.2,1.6s2.8,0.2,5.3-0.3c2.6-0.5,2.6-1.3,2.9-3.4
			c0.3-2.2,1.8-2.6,2.1-3.3c1.1-2-0.2-4.3-0.5-3.6c-0.3,0.7-0.9,3.1-2.8,5.2c-1.9,2.1-4.2,2.6-4.8,2.4
			C87.1,153.9,88.5,152.1,88.5,152.1z"/>
		<path class="st3" d="M96.3,149c-0.3,1.3-1.2,5.2-0.8,5.9c-0.4,0.2-0.6,0-0.6,0l-0.3-4.4L96.3,149z"/>
	</g>
	<path class="st4" d="M84.8,63.6c-0.4,8.4-0.9,9.9,0,20.8c0.8,10.1,2.7,31.1,4.4,35.4c0.8,2,0.2,21.7,0.2,26L98,146
		c0,0,1.2-20,0-28.9c-1.2-8.9-0.5-51.5-0.5-53C97.5,62.6,84.8,63.6,84.8,63.6z"/>
	<path class="st4" d="M94.2,79.8c1.3,2.7,6.4,33.6,6.6,36.1c0.2,2.5,0.5,4.1,0.9,5.5c0.4,1.4,0.5,25.2,0.5,25.2s6.8,0.4,7.5-0.3
		c0.7-0.6,3.3-19.3,1.5-29.6c-1.8-10.2,0.2-31.1,0.1-38.7c-0.1-7.6-3.7-10.9-6-15.6l-13.8,1.8L94.2,79.8z"/>
	<g>
		<path class="st5" d="M101.6,122c-0.4-1.4-0.7-2.8-1-5.3c-0.2-1.6-2.1-18.5-4.1-27l-0.6-6.5c1.1,2.6,6.3,31.3,6.8,33.9
			c0.5,2.6,1.5,4.7,2.6,5c1.1,0.3-0.6,0.2-0.6,1.7c0,1.5-0.2,17.8,0.7,19c0.9,1.2,3.2,1.5,1.7,1.8c-1.5,0.3-1.8,0-1.5,0.3
			c0.3,0.3,3.4,0.1,1.5,0.8c-1.1,0.4-3.3,0.7-4.9,0.8C102.4,143.8,102,123.4,101.6,122z"/>
	</g>
	<path class="st6" d="M100.8,25.7c0,0-3-0.8-4.3-0.1c-1.3,0.7-1.9,3.1-1.9,3.1s1.4,1,1.5,1c0.1,0,1,0.3,1.6,0.4
		c0.6,0.1,3.1-0.3,3.1-0.3l1.1-0.7c0,0-0.4-1-0.3-1C101.7,28,100.8,25.7,100.8,25.7z"/>
	<path class="st7" d="M105,45.1c1.4-4.9,5.1-11.8,3.5-14.6c-0.9-1.1-6.9-2.1-7.6-2.7c-0.2,0.1-1.7-3-1.3-13.3
		c0.2-4.1-9.5,5.6-9.5,5.6c2.3,1.3,3.1,4.8,2.3,8.1c-1.2,1.5-3,2.3-4.6,3.3c0.1,0.4-2.1,9.3-2.5,10.7C84.4,45.2,103.5,50.2,105,45.1
		z"/>
	<path class="st8" d="M96.5,44.8c-0.1,1.8-0.2,21.2,1.4,23.4c0.7,0.9,7.5,0.5,11.8-0.8c-3.6,0.4-9.2,0.8-10,0.5
		c-1-0.4-1.5-0.9-1.6-2C98,64.9,96.5,44.8,96.5,44.8z"/>
	<path class="st9" d="M85.3,61.5c-0.2-7.3,0.2-24.1,0.5-29.9c3-0.8,4.2-2.4,6.3-3.5c-1.8,4.1-0.2,5,1,5.3c3.1,0.4,6.9-4.1,7.4-6.2
		c0,0,4.6,2.4,7.9,3.2C99,49.7,107.1,63.9,107,64c0.3,0.6,2.7,6.5,2.7,6.5l-2.7,0.7c-5,1.3-21.1,1.8-22.7-0.4
		C83.3,69.5,84.7,62.4,85.3,61.5z"/>
	<path class="st10" d="M92.5,27.3c0.4-3-0.4-6.1-2.5-7.2c0,0,9.7-9.7,9.5-5.6c-0.2,4.2,0,7.1,0.2,9.2C98.4,25.9,96.1,28,92.5,27.3z"
		/>
	<g id="head_2_">
		<path class="st11" d="M99.3,4.2c0,0,1.6-2.4,4.9-1c3.3,1.4,1.8,5.3,1.8,5.3s2.7-0.5,3.8,2.8c1.1,3.2-0.5,5.8-3.7,4.9
			c0,0,0.9,2.3-0.4,3.4c-1.3,1.1-3.4-0.2-3.4-0.2s0.3,3.1-2.4,2.5c-2.7-0.7-3.2-4.4-3.2-4.4c0,0,2.5-10.9,2.5-10.9L99.3,4.2z"/>
		<path class="st12" d="M105.3,8.9c0,0,2.3-0.3,2.8,1.6c0.6,1.9-1.6,3.4-4.7,2.7c-3.1-0.8-3.4-6.2-2.8-6.8c0.6-0.6,1.7-1.6,3.1-0.8
			C105.2,6.4,105.2,7.6,105.3,8.9z"/>
		<path class="st11" d="M86.1,10c0,0-0.5,0.6-0.6,0.9c-0.2,0.5-0.9,1.3-0.8,2.2c0.1,0.8,1.9,1.4,1.8,1.8c-0.1,0.4-1.1,1.4-0.8,2
			c0.3,0.6,1,0.9,1,0.9s-0.5-1-0.4-1.5c0.1-0.4,0.6-0.9,0.5-1.4c-0.1-0.5-1.2-1.6-1.1-2.3c0-0.7,0.8-1.4,0.7-2.7
			C86.5,8.7,86.1,10,86.1,10z"/>
		<path class="st11" d="M85.7,11.3c2.4,3.6,6.2,10.4,10.7,10c5.4-0.5,6.9-8.1,5.7-12.9c-1.2-4.9-4.8-6.5-9.3-5.9
			C88.4,3,82.8,6.9,85.7,11.3z"/>
		<path class="st13" d="M87,17.7c0.8,5.3,5.1,7.6,6.1,7.5c1-0.1,6.4-2.5,6.2-7.8C99,10.3,97.7,5.8,91.5,6.6
			C85.3,7.3,86.2,11.7,87,17.7z"/>
		<g>
			<path class="st14" d="M92.5,25.1c0.8-0.1,4.4-2.6,4.2-7.1c-0.4-6.5-1.8-10.7-5.2-11.4c6.4-1.1,7.6,4.2,7.9,10.8
				c0.2,5.3-5.2,7.7-6.2,7.8c-0.2,0-0.4,0-0.8-0.1C92.4,25.1,92.5,25.1,92.5,25.1z"/>
		</g>
		<path class="st14" d="M98.4,16.1c0.1,0.8,0.9,1.4,1.7,1.3c0.8-0.1,1.4-0.9,1.3-1.7c-0.1-0.8-0.9-1.4-1.7-1.3
			C98.9,14.5,98.3,15.2,98.4,16.1z"/>
		<path class="st11" d="M86.7,6.3c0,0-2.2-2.1,1-3.7C92.9,0,98,3,98,3L86.7,6.3z"/>
		<path class="st11" d="M94.8,9.8c0.2-0.7,0.3-1.5-0.1-2c-0.8-0.9-2.7,0-4.7,0.4c-2,0.4-2.5,0-2.5,0c-1.7-2.6,7.3-2.8,8.7-1.6
			c0.9,0.8,0.7,1.6,0.4,2.6C96.1,9.4,95.3,9.5,94.8,9.8z"/>
		<path class="st11" d="M96.8,7.9c0,0-0.1,1.4-0.3,2.1c-0.3,0.7-0.4,1.7,0.4,2.2c0.8,0.4,1.5,1.2,1.2,2.2c-0.4,1-1.2,0.9-0.5,1.7
			c0.7,0.9,1.5,0.8,1.1,1.9c-0.4,1.2-1,1.8-0.6,2.4c0.4,0.6,0.9,1.5,0.2,2c-0.7,0.5-1.6-0.9-1.6-0.9s1.2,1.2,1.3,0.3
			c0.1-0.9-1-1-0.9-2c0.1-0.9,0.9-1.2,0.7-2.3c-0.2-1-1.1-0.9-1.4-1.8c-0.3-0.8,0.7-0.8,0.6-1.9c-0.1-1.1-1.3-1.7-2-2.2
			c-0.7-0.6-0.4-1.2-0.2-2.5c0.3-1.3,0-2,0-2S96.7,6.9,96.8,7.9z"/>
		<path class="st11" d="M95.6,8.2c3,4.1,1.9,6.9,2.8,7.1c0.7,0.2,1.1-1.5,1.1-1.5s-1.2-7.5-3.7-7.6C93.3,6,95.6,8.2,95.6,8.2z"/>
		<path class="st12" d="M97.3,3.2c-4-0.1-5.6,2.5-8.8,2.6c-0.9,0-1.6-0.3-1.7-0.9c-0.3-1.4,0.9-2.4,3.2-2.8
			C92.3,1.7,95.4,2,97.3,3.2z"/>
		<path class="st12" d="M94.3,6.1c0,0-1.2-1.1,0-1.7c1.2-0.6,3.7-1.1,4.5-0.6c0.8,0.5,3.1,2.8,1,3.6C97.5,8.1,94.5,6.3,94.3,6.1z"/>
		<path class="st3" d="M89.7,13.5c0,0,1.5,1.3,1.6,2.4c0.1,1.1-1.5,2.5-1.5,2.5s0.9,0.8,2.2,0.9c0,0-1.8,0.6-2.6-0.8
			c0-0.2,1.4-1.2,1.3-2.6C90.6,14.7,89.7,13.5,89.7,13.5z"/>
		<path class="st3" d="M91.9,12.5c0,0.2,0.7,0.2,1.6,0.3c1,0,1.9,0.1,1.9-0.1c0-0.2-0.9-0.5-1.9-0.5C92.6,12.1,91.9,12.4,91.9,12.5z
			"/>
		<path class="st3" d="M88.7,13c0.1,0.2-0.8,0.5-2,0.9c-0.6,0.1-0.9-0.2-0.2-0.6C87.8,12.8,88.7,12.8,88.7,13z"/>
		<g>
			<path class="st9" d="M95.3,15.1c0,0-0.6,1-1.5,1.2c-0.9,0.1-1.1-0.8-1.1-0.8s0-1,0.8-1C94.2,14.4,95.3,15.1,95.3,15.1z"/>
			<path class="st3" d="M92.8,15.6c0,0.4,0.5,0.7,0.9,0.6c0.5-0.1,0.8-0.4,0.7-0.8c0-0.4-0.5-0.7-0.9-0.6
				C93.1,14.9,92.8,15.2,92.8,15.6z"/>
			<path class="st3" d="M92.5,15.8c0,0,0.5-1,1.2-1c0.9,0.1,1.8,0.5,1.8,0.5l0.7-0.9l-0.8,0.3C95.3,14.7,92.7,13,92.5,15.8z"/>
		</g>
		<g>
			<path class="st9" d="M89.6,15.9c0,0-0.4,1-1.2,1.1c-0.8,0.1-1-0.9-1-0.9s0.1-0.8,0.8-0.8C88.8,15.2,89.6,15.9,89.6,15.9z"/>
			<path class="st3" d="M87.5,16.4c0,0.4,0.4,0.7,0.8,0.6c0.4-0.1,0.7-0.4,0.7-0.8c0-0.4-0.4-0.7-0.8-0.6
				C87.8,15.6,87.5,16,87.5,16.4z"/>
			<path class="st3" d="M87.2,16.4c0,0,0.3-0.7,0.9-0.8c0.6-0.1,1.6,0.6,1.6,0.6c-0.2-0.7-2-2-2.6-0.3l-0.6-0.1L87.2,16.4z"/>
		</g>
		<path class="st15" d="M91.5,22.9c0,0.1,0.3,0.2,0.7,0.1c0.4,0,0.7-0.2,0.7-0.3c0-0.1-0.3-0.2-0.7-0.1
			C91.8,22.7,91.5,22.8,91.5,22.9z"/>
		<path class="st3" d="M100.1,15.9c0-0.4-0.3-0.6-0.7-0.7c0.1-0.1,0.2-0.1,0.3-0.1c0.5-0.1,0.9,0.3,0.9,0.7c0.1,0.5-0.3,0.9-0.7,0.9
			c-0.1,0-0.2,0-0.3,0C100,16.5,100.2,16.2,100.1,15.9z"/>
		<path class="st9" d="M89.8,20.8l0.1,0.2c0.3,0.4,1.1,1.5,2,1.5c1.1,0,2.1-2.7,2.1-2.7l-0.5,0.1h0L89.8,20.8z"/>
		<path class="st3" d="M89.8,20.8l0.1,0.2c0.3,0.4,1.1,1.5,2,1.5c1.1,0,2.1-2.7,2.1-2.7l-0.5,0.1h0L93,20.8c0,0-0.9,0.7-2.5,0.7
			L89.8,20.8z"/>
	</g>
	<path class="st16" d="M101.3,29.5c0,0-7.1,8.7-7.3,19c-0.2,10.3,0.3,22.9,2.9,23.8c2.6,0.8,11.7-0.6,14,1.8c0,0,0.2-1.7-1.6-4.4
		c-1.8-2.7-5-13-5.1-13.5c-0.1-0.5-4.7-12.4-4.7-12.4l1.2-8.4L101.3,29.5z"/>
	<path class="st17" d="M102.2,26.8c2.9,1.7,7.3,2.7,8.1,3.4c0,0-1.3,10.2-1.6,11.5c-0.3,1.3-1.9,8-1.3,10.4c0.7,2.4,7.4,18.3,7,21.7
		c-0.1,1-11.4-5.9-16.5-3.2c-1.9,1-1.7-25.8-1.7-25.8s0.9-5.9,3-11.1C100.2,31.4,102.2,26.8,102.2,26.8z"/>
	<path class="st8" d="M104.1,27.9l2,4.1l-3.8-0.8l1.9,3.1c0,0-4.7,2.7-7.8,10.9c0,0,0.7-4.5,2.8-8c2.1-3.5,1.4-6.1,1.4-6.1l1.5-1.8
		c0,0,0.7,0.1,0.7,0.1C102.9,29.3,104.1,27.9,104.1,27.9z"/>
	<path class="st8" d="M100.8,25.7c0.4,0.2,3.3,2.2,3.3,2.2l0.8,2.9c0,0-4.4-0.3-4.6,0.1c-0.2,0.3,0.9-2.1,0.9-3.1
		C101.2,26.9,100.8,25.7,100.8,25.7z"/>
	<path class="st8" d="M100.9,29.6l2.2,4c0,0-6.6,8-6.9,12.7C96.3,40.1,100.4,29.9,100.9,29.6z"/>
	<path class="st8" d="M100,53.8c0,0,4.7,2.9,9.1,2.9l-0.6-1.7L100,53.8z"/>
	<path class="st16" d="M90.1,31.1c0,0,0.3,13.2,0.4,24c0.1,10.9,1.7,17.8-6.2,15.6c0,0-0.9-3.5,1-10.4s1.2-19.1,1.2-19.1L90.1,31.1z
		"/>
	<g>
		<path class="st17" d="M75.3,42c-1.2,0.7-1.6,5-1.1,6.1c0.8,1.5,8.9,5,10.4,5c1.5,0.1,1.6-6.3,2.7-8.6c1.1-2.3,1-14.2-1.4-14.3
			c-2.3-0.1-4.1,13-4.4,14.4C79.6,43.4,75.3,42,75.3,42z"/>
		<path class="st9" d="M75.4,42.2l1,0.8c0,0,0.9,3.1-1.1,5.3C74,46.9,74,46.9,74,46.9S73.3,43.6,75.4,42.2z"/>
		<path class="st2" d="M74.1,41.8c-0.7-0.7-2.3-1.3-3.1-1.3c-1,0-2.6-0.8-2.8-0.6c-0.2,0.3,1,1,1.8,1.2c0,0-1.7,0.2-2,0.2
			c-0.9,0.1-2.8,0-2.9,0.4c-0.1,0.4,1.3,0.4,2,0.4c0.7,0,1.3-0.1,1.3-0.1s-1.2,0.1-1.7,0.1c-0.7,0-2.1-0.3-1.9,0.2
			c0.1,0.4,1.1,0.5,2,0.6c0.8,0,1.7,0,1.7,0s-1,0.1-1.5,0.1c-0.6,0-1.7-0.2-1.7,0.1c-0.1,0.5,1.4,0.6,1.9,0.7
			c0.6,0.1,0.9,0.2,1.9,0.2c0,0-0.9,0-1.4,0c-0.7,0-1.6-0.3-1.7,0c-0.1,0.3,0.9,0.4,1.7,0.5c0.4,0,1.2,0.3,2,0.3
			c0.8,0,2.1-0.5,2.8-0.5c0.7,0,2.4,2,2.4,2s1.4-3.1,0.6-3.7C74.2,41.8,74.1,41.8,74.1,41.8z"/>
	</g>
	<path class="st8" d="M91.4,27.2c-2.2,1.9-4.9,2.4-5.7,3.1c0,0-0.2,4.3-1.2,11.7c-0.4,2.9,0.2,8.6-0.1,11.1
		c-0.4,3.8-1.3,14.8-1.1,15.8c0.2,1.4,3.7,1.8,3.6,0.5c-0.1-1.6,1-26.2,1-26.2s0.6-2.8,1-8.9C89,32,91.4,27.2,91.4,27.2z"/>
	<path class="st17" d="M86.9,31.8l1.9-2l-1.6-0.3c0,0,2.5-1.5,2.8-1.8c0.3-0.3,1.9-1.2,2.6-1.5l-0.3,2c0,0-0.3,0.3-0.8,0.7
		c-0.6,0.4-0.9,0.6-1.3,1.2c-0.8,1.3-0.5,15.1-0.5,15.1L86.9,31.8z"/>
	<g>
		<path class="st17" d="M115.3,54.8c0.1-0.1,1.1-1.6,1-3.3c-1.3-9.1-3.6-14.5-4.3-17.6c-0.8-3.8-2.2-4.4-3.3-3.9
			c0,0-1.6,10-1.5,11.2c0.1,1,1.1,4.4,1.3,6.2c-1.7-0.3-9.1-1.6-9.1-1.6s1.2,6.5-0.4,7.6C97.9,54.1,113.2,56,115.3,54.8z"/>
		<g>
			<path class="st18" d="M96.9,49.1c-0.3,1.4,0.5,3.5,1.4,1.1c0.8-2,0.7-4.3-0.5-4.8C97,45,96.9,49.1,96.9,49.1z"/>
			<path class="st3" d="M96.7,55.1c0,0.4-0.3,0.8-0.7,0.8l-12.4,0.2c-0.4,0-0.8-0.2-0.8-0.7l-3-18.5c0-0.4,0.2-0.8,0.6-0.8l12.7-0.3
				c0.4,0,0.8,0.2,0.8,0.7L96.7,55.1z"/>
			<path class="st2" d="M98,46c-1.4-0.6-2.8-1.7-4-1.8c-1.8-0.3-1.4-0.3-1.9-0.4c-0.9-0.1-2.7-0.5-2.6,0.1c0.1,0.2,1.3,0.6,2.2,0.8
				l0.9,0.2c-0.8,0.4-3.3,1.8-3.3,2.1c0,0.7,1.5-0.4,2.9-0.6c0,0,0.1,0.1,0.1,0.1c-1.1,0.2-2.3,1.2-2.2,1.4c0.1,0.2,2-0.5,3.1-0.5
				c0,0,0.1,0.1,0.1,0.1c-0.9,0.2-2.5,0.7-2.3,0.9c0.2,0.2,1.7-0.1,2.9-0.1c0.8,0.6,2.2,0.7,2.9,0.6c1.2-0.2,1.4-0.8,1.4-0.8L98,46z
				"/>
			<path class="st9" d="M97.6,45.4c-0.2-0.2,2.4,0.4,2.4,0.4s1.1,4.2-0.7,5.8c-0.4,0.3-2.1-0.4-2.1-0.4S99,47.1,97.6,45.4z"/>
		</g>
		<path class="st8" d="M107.7,37.6c-0.4,0.4,0.9,9.7,0.9,9.7l-8.6-1.5c0,0,0.6,2.3,0.6,2.8c1.8,0,8.3,0.3,9,0.4
			c0.8,0.1,2.9,2.4,2.7,1.4l-1.9-2c0,0,1.9,1.3,1.9,0.8c0-0.5-1.7-1.8-1.7-1.8S107.9,37.4,107.7,37.6z"/>
	</g>
</g>
<g>
	<path class="st19" d="M38.4,5.5c0,0,3.5,2.2,2.7,7.8c-0.7,5.6-1.5,8.3,0.6,13.7c2.2,5.3,14.2,7.6,14.8,16.3
		c0.5,8.7-12.4,16.6-22.3,7.5S22.6,32.5,22.6,32.5s-2.2-7.3-1.3-9.5c0.9-2.2,5.5-10.6,5.5-10.6l4.1-5L38.4,5.5z"/>
	<g>
		<g id="right_hand_5_">
			<path class="st20" d="M48.1,48.1c2.6,9,2.8,11.9,0.6,13.1c-4,2.2-5.5-5.8-7.4-11.5c-3.7-11.2-3.2-12.8-0.2-14.1
				C44.4,34.2,44.4,36,48.1,48.1z"/>
			<g>
				<polygon class="st21" points="52.3,43.4 53.8,39.5 55.1,39.9 54.4,44.4 				"/>
				<polygon class="st15" points="54,44.2 54.4,44.4 55.1,39.9 54.7,39.7 				"/>
				<path class="st20" d="M50.3,59.5c3-4.6,4.2-14.5,4.6-16.3l-2.7-1.2c0,0-6.3,10.6-7.5,14.6c-0.6,1.8,0.6,4.1,1.6,4.4
					C47.4,61.5,48.7,62,50.3,59.5z"/>
				<path class="st22" d="M52.4,42.2l2.3,1l0.5-1.4c0,0-0.5-0.2-1.1,0.5c0-1.3-1.3-1.4-1.3-1.4L52.4,42.2z"/>
				<path class="st23" d="M48.7,60.2c-0.4,0.6-0.8,1-1.1,1.3c0.8,0,1.7-0.4,2.7-1.9c3-4.6,4.2-14.5,4.6-16.3L54.3,43
					C53.7,46.1,51.9,55.6,48.7,60.2z"/>
			</g>
			<g>
				<path class="st15" d="M56.2,38.9c0,0-0.1,0.3,0.5,0.4c0.6,0.2,2,0.5,2.1,1c0.2,0.5-1.8,0.4-3-0.3C54.7,39.2,56.2,38.9,56.2,38.9
					z"/>
				<path class="st15" d="M54.1,39.2c0,0,0.6-0.6,1.4-0.8c0.6-0.1,1.7-0.9,1.8-0.7c0.2,0.4-0.7,0.9-1,1.3C56,39.2,56,39.4,56,39.5
					C56,39.7,54.1,39.2,54.1,39.2z"/>
				<path class="st15" d="M58.7,40.5c0.5-0.2,1.4-1.9,1.9-1.5c0.1,0.1-0.6,1.1-0.9,1.4c-0.4,0.4-1.7,1.1-2.6,0.9
					C56.6,41.1,57.9,40.9,58.7,40.5z"/>
				<path class="st15" d="M59.1,40.5c0.2-0.1,0.6-0.3,0.9-0.5c0.6-0.5,1.1-1.2,1.4-1c0.2,0.2-0.6,1.2-1.1,1.6
					c-0.5,0.4-1.1,0.5-1.4,0.6C58.2,41.2,58.3,40.8,59.1,40.5z"/>
				<path class="st21" d="M53.8,39.4c0,0,0.9-0.8,1.6-0.5c0.7,0.3,1.8,1.2,2.3,1.3c0.5,0.1,2-0.9,2.2-0.7c0.3,0.3-1.9,1.9-2.7,1.8
					c-0.5,0-2-0.5-3-1C53.4,39.9,53.8,39.4,53.8,39.4z"/>
			</g>
		</g>
		<path class="st23" d="M53.3,47.1c-0.9,2.9,0,3.4-2.5,8.3c-2.4,4.9-2.8,4.7-5.3,1s-4.3-8-4.3-8l0,0.8c0,0.2,0.1,0.3,0.2,0.5
			c1.2,3.8,2.3,8.5,4,10.7c0.2,0.4,0.5,0.6,0.8,0.8c0.6,0.4,1.2,0.5,1.9,0.3c0.4-0.1,0.8-0.3,1.3-0.7c0,0,0,0,0,0
			c0.2-0.2,0.3-0.4,0.5-0.6c0,0,0,0,0,0c0-0.1,0.1-0.1,0.1-0.2c0,0,0,0,0,0c0.1-0.1,0.1-0.2,0.2-0.3c2.5-3.9,3.8-11.5,4.3-14.8
			C54.2,45.2,53.6,45.9,53.3,47.1z"/>
		<g id="body_17_">
			<path class="st20" d="M38.7,56.2c0-2.5,4.3-6.5,5.1-9.7c0.9-3.2-0.5-11.2-0.5-11.2s-7.7-1.8-11.7-1.5c-4,0.3-13.5,4.2-13.5,4.2
				c1.1,12.2,9.1,16.2,9.1,18.7c0,2.5-7.9,8-9.9,13.3c-2,5.3,29,7.3,28.6,3.1C45.5,68.8,38.7,59.4,38.7,56.2z"/>
			<g>
				<path class="st23" d="M41.1,62c-1.4-2.1-2.4-4.7-2.4-5.8c0-2.5,4.3-6.5,5.1-9.7c0,0-1.6,4.9-8.1,5.8c-8.2,1.2-11-1-14.7-4.3
					c2.7,4.8,6.1,7,6.1,8.7c0,1-1.8,2.9-3.1,4.8c0,0,7-4.3,11-4.4C37.3,57,39.5,60.1,41.1,62z"/>
			</g>
			<path class="st22" d="M23,36.1c0,0,2.5,7,11.8,11.4c0,0,5.1-5.9,5.4-12.8c0,0-6-1.3-8.6-0.9C27.9,33.6,23,36.1,23,36.1z"/>
			<path class="st24" d="M27,22.8c0,0,1.9,8.1-1.1,12.1l7.3,3.2l4.6-3.9c0,0-2.4,1.1-2.6-11.2L27,22.8z"/>
			<polygon class="st25" points="24.5,34.7 26.4,32 31.9,36 29.6,39.8 			"/>
			<polygon class="st25" points="34.1,35.9 35.8,39.2 38.2,33.6 36.4,31.5 			"/>
			<path class="st26" d="M23,36.1l2-0.8l4.7,4.6l2.3-3.8l1.2,2.1l1-2.1l1.7,3.3l2.1-4.9l2.3,0.4c0,0,0.1,2.8-1.3,5.7l-3.3-0.8
				l-0.6-1l-1.6,1.5l-2.6-1.3l-1.1,1.8l-2.6-2.4l-2.1,1.6C25.1,39.7,23.5,37.6,23,36.1z"/>
			<g>
				<path class="st27" d="M34.8,47.4c0,0,0-0.1,0.1-0.1l-1.7-9.5l-0.1,0.2L33,37.9L34.8,47.4C34.7,47.4,34.7,47.4,34.8,47.4z"/>
			</g>
			<path class="st27" d="M32.9,41.6c0,0.2-0.1,0.3-0.3,0.3c-0.2,0-0.3-0.1-0.3-0.3c0-0.2,0.1-0.3,0.3-0.3
				C32.8,41.3,32.9,41.5,32.9,41.6z"/>
			<path class="st27" d="M33.5,44.1c0,0.2-0.1,0.3-0.3,0.3c-0.2,0-0.3-0.1-0.3-0.3s0.1-0.3,0.3-0.3C33.4,43.8,33.5,43.9,33.5,44.1z"
				/>
			<path class="st28" d="M35.8,30.9c-0.3-1.7-0.6-4.2-0.7-7.9L27,22.8c0,0,0.5,2,0.6,4.6C29.2,29.1,32.1,31.7,35.8,30.9z"/>
		</g>
		<g id="legs_x5F_stand_4_">
			<g>
				<path class="st29" d="M25.1,146.5c-0.4,0.7-0.2,2.9-0.2,5.7c0.3,1.2,2.4,2,2.4,2s0.2-1.1,0.3-2.6c-0.2-1.8-0.9-3.2-1-5.4
					C26.7,145.9,25.6,145.7,25.1,146.5z"/>
				<path class="st15" d="M25.1,146.5c0,0,0,5.3,1.3,5.2c1.9-0.1,0.3-2.9,0.3-5.5C26.6,145.6,25.9,144.7,25.1,146.5z"/>
			</g>
			<path class="st15" d="M26.7,146.5c0.4-3.3,4.6-14.4,7.6-20.2c3-5.8,9.7-14,10.1-16.5C44.7,108.4,44,98,44,98l-10.8,3
				c0,0,4.9,8,4.5,9c-0.3,1-8.8,6.3-10.7,11.4c-2.4,6.4-0.8,18.8-1.8,25C25.1,146.5,26.6,147.6,26.7,146.5z"/>
			<g>
				<path class="st29" d="M32.6,146.9c0,0-0.8,2.4-0.6,2.9c0.2,0.4,0.8,0.8,1.4,1.8c0.6,1,0.9,2.2,1.1,2.5c0,0,2.7,0,3.2,0
					c0.3-0.2-0.2-0.8-1.2-2.2c-1.2-1.7-1.9-2.6-2.4-4.9C33.9,145.8,32.6,146.9,32.6,146.9z"/>
				<path class="st21" d="M32.6,146.9c0,0,1.3,6.5,3.6,5.8c0.7-0.2,0.3-0.6-0.2-1.5c-0.7-1.2-1.2-2-1.8-4.1
					C34.2,147,33.1,145.5,32.6,146.9z"/>
				<path class="st29" d="M32.1,149.7c0,0,0.3,0.9,0.4,1.8c0.1,0.9,0.3,2.5,0.3,2.5H33c0,0,0.1-2.3,0.3-3.4
					C33.3,150.6,33,148.6,32.1,149.7z"/>
			</g>
			<g>
				<path class="st21" d="M28,108.7c-0.3,4.2-2.8,10.2-3,15.3c-0.2,5.1,5.7,13.5,7.5,23c0,0,0.6,1.4,1.7,0.4
					c-1-6.2-1.3-29.4-0.4-38.7c0.2-2,0.7-4.4-1.8-4.7C29.1,103.7,28.2,106.1,28,108.7z"/>
				<path class="st15" d="M34.2,147l0.1-0.2c-0.9-6.8-1.2-29.2-0.3-38.3c0.2-2,0.7-4.4-1.8-4.7c-3-0.2-3.8,2.2-4,4.8
					c-0.1,0.8-0.2,1.8-0.4,2.7l0,0c0,0,1.9,0.3,4.4,0.3C32.1,111.7,31,125,34.2,147z"/>
			</g>
			<g>
				<g>
					<g>
						<path class="st20" d="M17.3,69.8c0,0-5.1,9.4,8.7,39.9c4.2,0.9,16.6-0.9,20.6-4.3c0,0-1.1-6.5-0.8-14.9
							c0.1-4.9,0.9-12.6,0.2-17.6C33.3,62.2,17.3,69.8,17.3,69.8z"/>
					</g>
				</g>
				<path class="st30" d="M27.4,109.8c0,0,0.3-1.6,0-2.4c-0.5-1.3-6-8.3-7.2-12.4c0,0,3.9,11.2,5.8,14.7
					C26,109.7,26.5,109.8,27.4,109.8z"/>
				<path class="st30" d="M33.8,109.6c0,0,0.2-11.5,1.1-11.8c0.9-0.3,3.2,7.4,4.5,7.8c1.3,0.4,5-1.8,5.2-3c0.1-1.2,0.5-8.9,1.3-14.1
					c0,0-0.3,7.7,0.8,16.9C46.6,105.4,43.3,108.3,33.8,109.6z"/>
			</g>
		</g>
		<g id="left_hand_with_cup_2_">
			<path class="st20" d="M10.4,48.4C5.3,56.3,4.2,59,6.1,60.8c3.2,3.3,7-3.9,10.4-8.8c6.8-9.6,6.8-11.3,4.3-13.4
				C18.1,36.3,17.6,38,10.4,48.4z"/>
			<g>
				<g>
					<path class="st31" d="M31.8,56.6c-0.1,0-0.3,0-0.4,0c-1,0-1.6-0.8-1.6-1.7c0-1,0.5-1.7,1.6-1.7c0.1,0,0.3,0,0.4,0v-0.7
						c-0.1,0-0.3,0-0.5,0c-1.4,0-2.2,1.1-2.2,2.5c0,1.4,0.8,2.5,2.2,2.5c0.2,0,0.3,0,0.5,0V56.6z"/>
					<g>
						<path class="st32" d="M29.1,54.8C29.1,54.9,29.1,54.9,29.1,54.8c0,1.5,0.8,2.6,2.2,2.6c0.2,0,0.3,0,0.5,0v-0.2
							c-0.1,0-0.3,0-0.5,0C29.9,57.2,29.2,56.1,29.1,54.8z"/>
						<path class="st32" d="M29.8,54.7C29.8,54.8,29.8,54.8,29.8,54.7c0-0.8,0.6-1.5,1.6-1.5c0.1,0,0.3,0,0.4,0V53
							c-0.1,0-0.3,0-0.4,0C30.4,53,29.8,53.8,29.8,54.7z"/>
					</g>
					<rect x="31.6" y="51.1" class="st31" width="5.6" height="7.5"/>
					<rect x="34.4" y="51.1" class="st33" width="2.9" height="7.5"/>
					<rect x="35.3" y="51.1" class="st32" width="1.5" height="7.5"/>
					<rect x="31.6" y="51.1" class="st34" width="5.6" height="0.3"/>
					<path class="st34" d="M32,51.3h1.9c0,0-0.7,4-1.1,4C32.4,55.4,32,51.3,32,51.3z"/>
					<path class="st34" d="M32.4,58.4h1.1c0,0-0.4-1.3-0.6-1.3C32.6,57.1,32.4,58.4,32.4,58.4z"/>
					<rect x="31.6" y="58.5" class="st32" width="5.6" height="0.2"/>
					<path class="st35" d="M34.2,50.8c0,0,0.1-0.7-0.2-1.4c-0.5-1.2-1.3-1.8-0.1-2.4c1.2-0.6,1.5-1,1.4-1.2
						c-0.1-0.2-1.2-0.5-1.3-0.7c-0.1-0.2,0.7-0.9,0.7-1.3c0.1-0.4,0.2-1.3,0.1-2c0,0,0.4,1.6,0.4,2.1c-0.1,0.4-0.2,1-0.2,1
						s1.1,0.6,1.2,1c0.1,0.4,0.3,1.4,0.2,1.7c-0.2,0.2-1.9,1-2,1.4c-0.1,0.3,0.2,0.9,0.2,1.1C34.6,50.2,34.2,50.8,34.2,50.8z"/>
				</g>
				<g>
					<path class="st21" d="M31.2,53.4c-0.5,0-2.6,0.2-3.7,0.6c-0.7,0.7,0.2,1.2,0.2,1.2s2.2,1.5,2.8,1.4c0,0,0.5,0.1,0.4-0.5
						c0,0,0,0,0,0c0.1,0,0.5-0.3,0.2-0.8c0,0,0,0,0,0c0.1,0,0.6-0.4,0.2-1c0,0,0,0,0-0.1C31.4,54,31.7,53.5,31.2,53.4z"/>
					<path class="st15" d="M31.2,53.4c0.2,0.2,0,0.5,0,0.6c0,0,0,0,0,0.1c0.4,0.6-0.1,0.9-0.2,0.9c0,0,0,0,0,0
						c0.3,0.5-0.2,0.7-0.2,0.8c0,0,0,0,0,0c0.1,0.6-0.4,0.5-0.4,0.5c-0.6,0-2.5-1.5-3.1-2c-0.2,0.4,0.4,0.8,0.4,0.8s2.2,1.5,2.8,1.4
						c0,0,0.5,0.1,0.4-0.5c0,0,0,0,0,0c0.1,0,0.5-0.3,0.2-0.8c0,0,0,0,0,0c0.1,0,0.6-0.4,0.2-1c0,0,0,0,0-0.1
						C31.4,54,31.7,53.5,31.2,53.4z"/>
				</g>
			</g>
			<g>
				<polygon class="st21" points="23.5,54.8 27.6,54 28,55.3 23.8,57.2 				"/>
				<polygon class="st15" points="23.8,56.7 23.8,57.2 28,55.3 27.9,54.9 				"/>
				<path class="st20" d="M8.8,61.9c5.5,0,14.5-4.4,16.1-5l-0.5-2.9c0,0-12.3,0.5-16.4,1.6C5.3,56.5,5,58,5.3,59.4
					C5.6,60.6,6,61.9,8.8,61.9z"/>
				<path class="st22" d="M24.5,54.3l0.4,2.5l1.5-0.3c0,0-0.1-0.6-1-0.7c1.1-0.7,0.4-1.8,0.4-1.8L24.5,54.3z"/>
				<path class="st23" d="M7.5,60.9c-0.7,0-1.2-0.1-1.7-0.3c0.4,0.7,1.2,1.3,3.1,1.3c5.5,0,14.5-4.4,16.1-5l-0.1-0.6
					C22,57.4,13,61.2,7.5,60.9z"/>
			</g>
		</g>
		<path class="st23" d="M15.4,56c3.2,0.4,7.9-0.3,9-1.5c0.1-0.1,0.1-0.2,0.2-0.3l0-0.2c0,0-5.2,0.2-9.9,0.7c0.6-0.9,1.3-1.9,1.9-2.8
			c1.6-2.3,2.8-4.1,3.7-5.6l-0.1-0.1c0,0-3.1,3.6-4.3,4.5s-2.2,3.6-3.6,4.5c-1.4,0.8-3.8,2.1-3.8,2.1S12.2,55.6,15.4,56z"/>
	</g>
	<path class="st13" d="M38.4,20.7c0,4.2-3,7.9-4.1,7.9c-0.3,0-0.8,0-1.2-0.1c0,0,0,0,0,0c-1.1-0.2-2.5-0.8-4-1.8
		c-2.2-1.5-3.8-4.6-3.8-4.6c-0.6-1.5-1.3-6.1-0.7-9.5c0.2-1.2,0.7-2.3,1.3-3C28.4,6.9,36,7,36.3,7.3c0,0,0.1,0.1,0.1,0.2
		c0.2,0.5,0.5,2,0.8,3.7v0C37.8,14.3,38.4,18.3,38.4,20.7z"/>
	<path class="st14" d="M37.3,11.3L37.3,11.3c0,0-5.8-0.3-8.3,2.1c-2.4,2.4-1.2,9.3-0.4,11.3c0.8,2,4.2,3.7,4.4,3.8
		c-1.1-0.2-2.5-0.8-4-1.8c-2.2-1.5-3.8-4.6-3.8-4.6c-0.6-1.5-1.3-6.1-0.7-9.5l3.1-2.8l7.9-2.4l0.9,0.3C36.6,8.1,36.9,9.6,37.3,11.3z
		"/>
	<path class="st36" d="M28.2,17.2c0,0,1.2-1.3,2.3-1.9c1.1-0.6,2.8-0.9,2.8-0.9s0.4-0.4,0.4-1c0,0-1.3,0.1-2.9,1.2
		C29.1,15.8,28.2,17.2,28.2,17.2z"/>
	<path class="st36" d="M36.8,13.6c0,0-0.1,0.6,0,0.7c0.1,0.1,1,0.4,1,0.4s0.2-0.6-0.1-0.9C37.4,13.5,36.8,13.6,36.8,13.6z"/>
	<path class="st37" d="M33,18.6c0,0.6-0.3,1.1-0.6,1.1c-0.3,0-0.6-0.5-0.6-1.1c0-0.6,0.3-1.1,0.6-1.1C32.8,17.4,33,17.9,33,18.6z"/>
	<path class="st37" d="M37.9,17.9c0,0.5-0.3,1-0.6,1c-0.3,0-0.6-0.4-0.6-1c0-0.5,0.3-1,0.6-1C37.6,16.9,37.9,17.4,37.9,17.9z"/>
	<path class="st9" d="M36.7,23.7l-0.1,0.2c-0.3,0.4-1.1,1.5-2.1,1.5c-1.2,0-2.2-2.8-2.2-2.8l0.5,0.1h0L36.7,23.7z"/>
	<path class="st38" d="M36.7,23.7l-0.1,0.2c-0.3,0.4-1.1,1.5-2.1,1.5c-1.2,0-2.2-2.8-2.2-2.8l0.5,0.1h0l0.4,0.9c0,0,0.9,0.8,2.6,0.8
		L36.7,23.7z"/>
	<path class="st39" d="M35.2,10.6c0,0-4.7-0.9-7.3,0.8c-3.1,2-2.4,8.7-2.4,8.7s-1.7,1-2.9,3.9c-1.3,2.9,0,8.5,0,8.5
		s-5.5-17.7-1.3-22.8c4.3-5.1,11.6-5.3,17-4.2C38.4,5.5,39.2,8.8,35.2,10.6z"/>
	<path class="st14" d="M25.3,19.4c0,0-3.2-2.2-4.5-0.8c-1.3,1.5,1.9,5.7,3.7,5.8c2.1,0.1,1.9-2.1,1.9-2.1L25.3,19.4z"/>
	<path class="st38" d="M25.3,21.6c0,0-1.6-1.7-2.6-1.9c-1-0.2-1.2,0.6-1.2,0.6s0.6-0.5,1.4-0.1c0.6,0.3,0.8,0.7,0.8,0.7
		s-0.8,0.6-0.1,1.5l-0.6-0.1c0,0,1.4,1,2.1,0.5C25.6,22.4,25.3,21.6,25.3,21.6z"/>
	<path class="st40" d="M25.6,20.1c0,0-0.5-4,0.7-6.5c0,0-1.9,3.6-2.3,5.1C24,18.7,25,19.9,25.6,20.1z"/>
	<g>
		<path class="st9" d="M32.5,21.8c-1,0-1.9-0.8-2.3-2c-0.2-0.4-0.2-1-0.2-1.5c0-1.9,1.2-3.4,2.6-3.4c1,0,1.9,0.7,2.3,1.9
			c0.2,0.5,0.3,1,0.3,1.6C35.1,20.3,33.9,21.8,32.5,21.8z M32.5,15.5c-1.1,0-2.1,1.3-2.1,2.9c0,0.4,0.1,0.9,0.2,1.3
			c0.3,1,1.1,1.6,1.8,1.6c1.1,0,2-1.3,2-2.9c0-0.5-0.1-0.9-0.2-1.4C34,16.1,33.3,15.5,32.5,15.5z"/>
	</g>
	<g>
		<path class="st9" d="M38.4,21.4c-1.1,0-2-1.4-2-3.2c0-1.8,0.9-3.2,2-3.2c1.1,0,2,1.4,2,3.2C40.4,20,39.5,21.4,38.4,21.4z
			 M38.4,15.5c-0.8,0-1.4,1.2-1.4,2.7c0,1.5,0.7,2.7,1.4,2.7c0.8,0,1.4-1.2,1.4-2.7C39.9,16.7,39.2,15.5,38.4,15.5z"/>
	</g>
	<g>
		<path class="st9" d="M24,18.9c-0.1,0-0.3-0.1-0.3-0.3c0-0.1,0.1-0.3,0.3-0.3l6.2-0.3c0.1,0,0.3,0.1,0.3,0.3c0,0.1-0.1,0.3-0.3,0.3
			L24,18.9C24,18.9,24,18.9,24,18.9z"/>
	</g>
	<path class="st9" d="M34.6,16.9c-2.8,0.4-4.1,2.8-4.1,2.8c-0.1-0.4-0.2-0.9-0.2-1.4c0-1.7,1-3.2,2.3-3.2
		C33.4,15.2,34.2,15.9,34.6,16.9z"/>
	<path class="st9" d="M40,16.7c-2.2,0.4-3.3,2.8-3.3,2.8c-0.1-0.4-0.2-0.9-0.2-1.4c0-1.7,0.8-3.2,1.8-3.2C39.1,15,39.7,15.6,40,16.7
		z"/>
	<path class="st41" d="M35.5,16.7c0,0,0.6,2.1,1.2,3c0.6,0.9,0.8,1.2,0.8,1.5c0,0.3-1.2,1.1-1.8,0.9C35.1,21.9,35.1,18.6,35.5,16.7z
		"/>
	<path class="st42" d="M35.2,19.7c0,0,0.1,1.6,0.5,1.8c0.4,0.2,1.8-0.4,1.8-0.4s-0.8,1.2-1.7,1C35,21.9,35.2,19.7,35.2,19.7z"/>
	<path class="st9" d="M34.8,18c0,0,0.9-0.6,1.7,0L34.8,18z"/>
	<path class="st20" d="M35.2,10.6c0,0-0.1-0.1-0.3-0.2c-0.2-0.1-0.5-0.3-0.8-0.5c-0.4-0.2-0.8-0.4-1.4-0.6c-0.3-0.1-0.6-0.2-0.9-0.2
		C31.7,9,31.6,9,31.4,9c-0.2,0-0.3-0.1-0.5-0.1c-0.7-0.1-1.5,0-2.3,0.1c-0.8,0.2-1.6,0.4-2.4,0.8c-0.4,0.2-0.7,0.5-1,0.8
		c-0.3,0.4-0.5,0.8-0.7,1.2c-0.4,0.8-0.6,1.8-0.7,2.7c-0.3,1.9-0.3,3.8-0.3,5.6c0,0.9,0.1,1.8,0.1,2.6c0.1,0.8,0.1,1.6,0.2,2.3
		c0.2,1.4,0.3,2.6,0.4,3.4c0.1,0.8,0.2,1.3,0.2,1.3s-0.1-0.5-0.3-1.3c-0.1-0.8-0.4-2-0.5-3.4c-0.1-0.7-0.2-1.5-0.3-2.3
		c-0.1-0.8-0.1-1.7-0.2-2.6c0-0.9,0-1.8,0-2.8c0-0.9,0.1-1.9,0.2-2.9c0.2-1,0.4-1.9,0.8-2.8c0.2-0.4,0.4-0.9,0.7-1.2
		c0.3-0.4,0.7-0.7,1.1-0.9c0.8-0.4,1.7-0.7,2.5-0.8c0.8-0.1,1.6-0.1,2.3-0.1c0.7,0.1,1.4,0.3,1.9,0.5c0.5,0.2,1,0.4,1.4,0.7
		c0.4,0.2,0.6,0.4,0.8,0.6C35.1,10.6,35.2,10.6,35.2,10.6z"/>
	<path class="st20" d="M35.2,10.3c0,0,0,0,0-0.1c0,0,0-0.1,0-0.1c0-0.1,0-0.1-0.1-0.2C35,9.8,35,9.7,35,9.6c0-0.1-0.1-0.2-0.2-0.2
		c-0.1-0.2-0.3-0.3-0.4-0.5c0,0-0.1-0.1-0.1-0.1c0,0-0.1-0.1-0.2-0.1c-0.1-0.1-0.2-0.2-0.3-0.3C33.5,8.2,33.3,8,33,7.8
		c-0.1-0.1-0.3-0.2-0.4-0.2c-0.1-0.1-0.3-0.1-0.5-0.2c-0.1,0-0.2-0.1-0.2-0.1l-0.2-0.1c-0.2,0-0.3-0.1-0.5-0.1
		C31,7.1,30.9,7.1,30.7,7c-0.2,0-0.3-0.1-0.5-0.1c-0.1,0-0.2,0-0.2-0.1c-0.1,0-0.2,0-0.2,0c-0.2,0-0.3,0-0.5-0.1
		c-0.2,0-0.3,0-0.5-0.1c-0.2,0-0.3,0-0.4,0c-0.3,0-0.6,0-0.8-0.1c-0.1,0-0.2,0-0.4,0c-0.1,0-0.2,0-0.3,0c-0.2,0-0.4,0-0.5,0
		c-0.3,0-0.5,0-0.5,0s0.2,0,0.5,0c0.1,0,0.3,0,0.5,0c0.2,0,0.4,0,0.7,0c0.3,0,0.5,0,0.8,0c0.1,0,0.3,0,0.4,0c0.2,0,0.3,0,0.5,0.1
		c0.2,0,0.3,0,0.5,0.1c0.1,0,0.2,0,0.2,0c0.1,0,0.2,0,0.2,0c0.2,0,0.3,0.1,0.5,0.1c0.2,0,0.3,0.1,0.5,0.1c0.2,0,0.3,0.1,0.5,0.1
		l0.2,0.1c0.1,0,0.2,0.1,0.2,0.1c0.2,0.1,0.3,0.1,0.5,0.2c0.2,0.1,0.3,0.2,0.4,0.2c0.3,0.1,0.5,0.3,0.8,0.5c0.1,0.1,0.2,0.2,0.3,0.3
		c0.1,0,0.1,0.1,0.1,0.1c0,0,0.1,0.1,0.1,0.1c0.2,0.2,0.3,0.4,0.4,0.6C34.9,9.4,35,9.5,35,9.6c0,0.1,0.1,0.2,0.1,0.2
		c0,0.1,0,0.1,0.1,0.2c0,0.1,0,0.1,0,0.1C35.2,10.2,35.2,10.3,35.2,10.3z"/>
	<path class="st20" d="M35.5,9.8c0,0,0-0.1,0-0.3c0-0.1,0-0.2,0-0.3c0-0.1,0-0.2,0-0.4c0-0.1,0-0.3-0.1-0.4c0-0.1,0-0.2-0.1-0.2
		c0-0.1,0-0.2-0.1-0.2c0-0.1-0.1-0.2-0.1-0.3c0-0.1-0.1-0.2-0.1-0.2C35,7.3,34.9,7.1,34.8,7c0-0.1-0.1-0.2-0.1-0.2
		c-0.1-0.1-0.1-0.2-0.2-0.2c-0.1-0.1-0.2-0.3-0.3-0.4C34.1,6,34,5.8,33.9,5.7c-0.1-0.1-0.1-0.1-0.2-0.2c-0.1,0-0.1-0.1-0.2-0.1
		c-0.1-0.1-0.2-0.2-0.3-0.2C33.1,5.2,33,5.1,33,5c-0.1-0.1-0.2-0.1-0.2-0.1s0.1,0,0.2,0.1c0.1,0,0.2,0.1,0.3,0.1
		c0.1,0.1,0.2,0.1,0.3,0.2c0.1,0,0.1,0.1,0.2,0.1c0.1,0,0.1,0.1,0.2,0.1c0.1,0.1,0.3,0.2,0.4,0.3c0.1,0.1,0.2,0.3,0.4,0.4
		c0.1,0.1,0.1,0.2,0.2,0.2c0.1,0.1,0.1,0.2,0.2,0.2c0.1,0.2,0.2,0.3,0.2,0.5c0,0.1,0.1,0.2,0.1,0.3c0,0.1,0.1,0.2,0.1,0.3
		c0,0.1,0,0.2,0.1,0.3c0,0.1,0,0.2,0,0.2c0,0.2,0,0.3,0,0.5c0,0.1,0,0.3,0,0.4c0,0.1,0,0.2,0,0.3C35.5,9.7,35.5,9.8,35.5,9.8z"/>
</g>
</svg>
