<?xml version="1.0" encoding="utf-8"?>
<!-- Generator: Adobe Illustrator 25.0.0, SVG Export Plug-In . SVG Version: 6.00 Build 0)  -->
<svg version="1.1" id="Layer_1" xmlns="http://www.w3.org/2000/svg" xmlns:xlink="http://www.w3.org/1999/xlink" x="0px" y="0px"
	 viewBox="0 0 130 160" style="enable-background:new 0 0 130 160;" xml:space="preserve">
<style type="text/css">
	.st0{fill:#D74340;}
	.st1{fill:#A5ABAE;}
	.st2{fill:#EFEFEF;}
	.st3{fill:#FFFFFF;}
	.st4{fill:#4895FF;}
	.st5{font-family:'Kanit-Bold';}
	.st6{font-size:16.108px;}
	.st7{fill:#375A64;}
	.st8{fill:#2DB78E;}
	.st9{fill:#B0B0B0;}
	.st10{fill:#375A64;stroke:#000000;stroke-width:0.25;stroke-miterlimit:10;}
	.st11{font-size:8.837px;}
	.st12{fill:#F58760;}
	.st13{fill:#8EC2FF;}
	.st14{fill:#1A2E35;}
	.st15{fill:#FFBE9C;}
	.st16{fill:#233AC4;}
	.st17{fill:#FF996C;}
	.st18{fill:#E0E0E0;}
	.st19{fill:#004999;}
	.st20{fill:#7BB0FF;}
	.st21{fill:#005EB2;}
	.st22{clip-path:url(#SVGID_2_);}
	.st23{clip-path:url(#SVGID_4_);fill:#FFFFFF;}
	.st24{clip-path:url(#SVGID_6_);fill:#D84440;}
	.st25{clip-path:url(#SVGID_8_);fill:#D84440;}
	.st26{clip-path:url(#SVGID_10_);fill:#D84440;}
</style>
<path class="st0" d="M128.2,39.3c0,0-32.9,74.8-37.7,56.7c-0.5-2-2.1-3-2.4-3.2c-4.3-3.2-50.7,24.7-62.9,18
	c-6.6-3.6-0.8-16.1-6.2-18.3c-5.1-2.1-13.3,7.4-14.7,6.7C1.8,97.9,7.6,68,41.7,56.1c15.8-5.5,27.5-3.5,46-13.2
	c7.2-3.8,14.2-8.7,17.5-6.9c4.7,2.4-3.4,15.6,0.5,17.6C107.8,54.7,113.8,51.9,128.2,39.3z"/>
<g>
</g>
<path class="st0" d="M107.5,117.1"/>
<path class="st1" d="M111.5,147.8H7.4c-0.1,0-0.3-0.1-0.4-0.2l-0.1-0.2h105.3l-0.2,0.2C111.8,147.7,111.7,147.8,111.5,147.8z"/>
<g>
	<path class="st2" d="M93.5,9.7H6.8c-2.8,0-5,2.2-5,5V155c0,2.8,2.2,5,5,5h86.7c2.8,0,5-2.2,5-5V14.7C98.5,12,96.2,9.7,93.5,9.7z"/>
	<rect x="6.8" y="35.4" class="st3" width="53.5" height="83.7"/>
	<g>
		<path class="st0" d="M95.6,9.7H4.7c-1.6,0-2.9,1.4-2.9,3.1v17.8h96.7V12.8C98.5,11.1,97.2,9.7,95.6,9.7z"/>
		<g>
			<text transform="matrix(0.9293 0 0 1 12.4951 53.0435)" class="st4 st5 st6">T</text>
			<rect x="23.1" y="43.6" class="st7" width="31.6" height="1.7"/>
			<rect x="23.1" y="47.2" class="st7" width="21.3" height="1.7"/>
			<rect x="23.1" y="50.9" class="st7" width="31.6" height="1.7"/>
			<rect x="12.4" y="54.6" class="st7" width="42.2" height="1.7"/>
			<rect x="12.4" y="58.3" class="st7" width="36" height="1.7"/>
			<rect x="12.4" y="62" class="st7" width="39.4" height="1.7"/>
			<rect x="12.4" y="88.4" class="st7" width="42.2" height="1.7"/>
			<rect x="12.4" y="92.1" class="st7" width="36" height="1.7"/>
			<rect x="12.4" y="95.8" class="st7" width="39.4" height="1.7"/>
			<rect x="12.4" y="103" class="st7" width="36" height="1.7"/>
			<rect x="12.4" y="106.7" class="st7" width="39.4" height="1.7"/>
			<rect x="12.5" y="66.3" class="st4" width="42.2" height="19.2"/>
		</g>
		<rect x="63.8" y="35.4" class="st8" width="30.9" height="8.3"/>
		<rect x="63.8" y="96.8" class="st4" width="30.9" height="8.3"/>
		<rect x="6.8" y="122.6" class="st4" width="87.8" height="8.3"/>
		<rect x="63.8" y="45.4" class="st9" width="30.9" height="49"/>
		<path class="st9" d="M85.7,153.3h-70c-4.9,0-8.9-4-8.9-8.9v-13.6h87.8v13.6C94.6,149.3,90.7,153.3,85.7,153.3z"/>
		<g>
			<text transform="matrix(0.9293 0 0 1 9.3013 23.6187)" class="st10 st5 st11">BLOG</text>
		</g>
	</g>
</g>
<g>
	<g>
		<path class="st12" d="M120.3,103.8v-0.9c0.4-0.1,1.2-0.3,1.1-0.6c-0.1-0.4-1.1-0.3-1.1-0.3s1.2-0.1,1.1-0.6
			c-0.1-0.4-0.7-0.4-1.1-0.4v-0.1c0.8-0.1,1.1-0.7,0.9-1c-0.1-0.4-0.9-0.3-0.9-0.3s-1,4.1-1,4.2c0,0.1,0.6,1.5,1,1.4
			c0.4-0.1,1.3-0.7,1-1.2C120.9,103.5,120.3,103.8,120.3,103.8z"/>
		<g>
			<path class="st7" d="M115,108.4c0,0.1,0.1,0.2,0.2,0.2h4.7c0.3,0,0.5-0.2,0.5-0.5l0.1-11.7c0-0.2-0.1-0.4-0.3-0.6l0,0
				c0,0-0.1,0-0.1,0l-4.7,0.5c-0.1,0-0.2,0.1-0.2,0.2L115,108.4z"/>
			<path class="st13" d="M119.4,96.9v10.6c0,0.1-0.1,0.2-0.2,0.2l-3.3,0c-0.1,0-0.2-0.1-0.2-0.2l0.1-10.3c0-0.1,0.1-0.2,0.2-0.2
				l3.2-0.3C119.3,96.7,119.4,96.8,119.4,96.9z"/>
			<path class="st14" d="M120.2,95.9c0,0-0.1,0-0.1,0l0,0l-0.1,12.8h0c0.3,0,0.5-0.2,0.5-0.5l0.1-11.7
				C120.5,96.2,120.4,96,120.2,95.9z"/>
			<path class="st14" d="M116,96.6c0,0.1-0.1,0.2-0.1,0.2c-0.1,0-0.1-0.1-0.1-0.2c0-0.1,0.1-0.2,0.1-0.2C116,96.5,116,96.5,116,96.6
				z"/>
			<path class="st14" d="M116.6,96.7c-0.1,0-0.1-0.1-0.1-0.1c0-0.1,0-0.1,0.1-0.1l1.9-0.2c0.1,0,0.1,0,0.1,0.1c0,0.1,0,0.1-0.1,0.1
				L116.6,96.7C116.6,96.7,116.6,96.7,116.6,96.7z"/>
		</g>
		<path class="st15" d="M116,108.7c0.6-1.1,0.4-2.2,0.4-2.8c0-0.6,1.1-1.8,1.2-3c0.1-1.2-0.6-1.7-1-0.9c-0.4,0.8-1.5,2.1-1.5,2.1
			v-3.5c0,0-0.3,0.4-0.6,0.6c-0.3,0.2-1.5,1.4-1.5,3.1s-0.3,5.1-0.6,6.1c-0.3,0.9-0.9,1.6-0.9,1.6l3,1.5c0,0,1.3-0.6,1.8-1.1
			c0.5-0.4,0.7-2.2,0.7-2.2l0.5-1.3H116z"/>
		<polygon class="st12" points="117.6,108.7 116,108.7 117.4,109.4 		"/>
		<g>
			<path class="st12" d="M114.4,106c-0.2-0.4-0.2-0.8-0.1-1.2c0.1-0.4,0.4-0.7,0.9-0.8c0,0.5-0.1,0.8-0.2,1.1
				C114.8,105.4,114.7,105.7,114.4,106z"/>
		</g>
		<g>
			<path class="st12" d="M116.4,106.5c0.4,0.6,0.3,1.3,0.1,2c-0.2,0.6-0.7,1.2-1.3,1.5c0.2-0.7,0.4-1.2,0.6-1.7
				C116,107.7,116.2,107.1,116.4,106.5z"/>
		</g>
	</g>
	<path class="st16" d="M115.9,113.5l-3.8-2.1c-0.3-0.1-0.6-0.1-0.7,0.2l-5.4,8c-0.5,0.7-0.7,0.8-1.4,0.3l-5.6-2.8
		c-3.4-1.6-5.6-3.1-8.9-3.1l-4,0c0,0-0.2,0-0.5,0c-6.5,0.1-12.2,4.4-14.1,10.6l-7,21.7h6l7.4-21l-0.2,21h17.5v-22.7l4.5,2
		c2.8,1.5,7.4,3.3,9.8-1c0.1-0.2,0.2-0.4,0.3-0.6l6.3-9.7C116.3,114,116.2,113.6,115.9,113.5z"/>
	<path class="st17" d="M80.9,107.9v7.3h0c0.1,2.8,2.4,5,5.2,5s5.1-2.2,5.2-5h0v-7.3H80.9z"/>
	<path class="st14" d="M73.8,99.9c0,0-2.2-2.3-2.2-8.6S77,80.8,82,80.4c4.9-0.4,5.7-2.3,6.8-1.4s-2.2,2.9-2.2,2.9s9.3-3.5,10.4-2.3
		c1.1,1.2-3.6,2.9-3.6,2.9s5.7,1.4,6.7,4.5c1,3-1.6,3.1-1.6,3.1s1.9,4.8-0.5,11.4c-2.6,7.1-18.7,7.9-19,7.7
		C78.7,109,73.8,99.9,73.8,99.9z"/>
	<path class="st15" d="M96.8,98.4C96.8,98.4,96.8,98.4,96.8,98.4c0,0.3-0.1,0.5-0.1,0.5l-0.4,3.4c-0.1,0.5-0.7,0.6-1,0.2
		c-0.6-1.1-1.1-3-0.3-6.1c-0.5-0.7-0.8-1.5-1-2.4L94,93.5c-2.3,0.6-2.4,0-3.9-0.7c0,0,0,0,0,0c0.6,0.5,2.1,2,1,2.9
		c-1.2,0.9-5.1-2.2-5.9-2.8c0,0-0.1,0-0.1,0c0.2,0.5,0.7,2.1-0.1,2.4c-1.2,0.4-3.5-3-4.1-4c0-0.1-0.1,0-0.1,0
		c0.1,0.7,0.3,2.2-0.5,2.6c-0.8,0.3-1.7-1.3-2.1-2.3c-0.1-0.2-0.3-0.1-0.3,0.1c-0.2,1.4-0.7,2.8-1.2,3.9c1.1,3.4,0.5,5.5-0.1,6.7
		c-0.2,0.4-0.9,0.3-1-0.2l-0.4-3.4c0,0,0-0.2,0-0.5c-2.2,0-3.9,1.8-3.9,3.9c0,2.2,1.8,3.9,3.9,3.9c0,0,0.1,0,0.1,0
		c0.9,5.1,5.3,9.3,10.7,9.3c5.4,0,9.8-4.2,10.7-9.3c0.1,0,0.1,0,0.2,0c2.2,0,3.9-1.8,3.9-3.9C100.8,100.1,99,98.4,96.8,98.4z"/>
	<g>
		<g>
			<path class="st14" d="M82.4,107.4c0.9,0.4,1.6,0.8,2.3,1.1c0.3,0.2,0.7,0.3,1,0.5c0.4,0.2,0.8,0.3,1.3,0.5
				c-0.4,0.4-0.9,0.6-1.4,0.6c-0.5,0-1.1,0-1.5-0.3c-0.5-0.2-0.9-0.6-1.1-1C82.6,108.4,82.4,107.9,82.4,107.4z"/>
		</g>
		<g>
			<g>
				<path class="st14" d="M81.2,101.2c0,0.5-0.4,0.9-0.9,0.9c-0.5,0-0.9-0.4-0.9-0.9c0-0.5,0.4-0.9,0.9-0.9
					C80.8,100.3,81.2,100.7,81.2,101.2z"/>
				<path class="st14" d="M79.4,100.3c0-0.4,0.2-0.8,0.5-1c0.3-0.2,0.8-0.3,1.1-0.4c0.2,0,0.4,0,0.6,0.1c0.2,0.1,0.4,0.2,0.6,0.3
					c0.3,0.3,0.5,0.7,0.5,1c-0.3-0.3-0.5-0.5-0.8-0.6c-0.3-0.1-0.6-0.2-0.9-0.1c-0.3,0-0.6,0-0.9,0.2C79.8,99.8,79.6,100,79.4,100.3
					z"/>
				<path class="st14" d="M78.9,98.1c0.6-0.1,1.8-0.3,3.6-0.2c0.2,0,0.3-0.2,0.2-0.3c-0.3-0.3-0.9-0.8-2-0.7c-1.3,0.1-1.9,0.6-2.1,1
					C78.5,98,78.7,98.1,78.9,98.1z"/>
			</g>
			<g>
				<path class="st14" d="M89.1,101.2c0,0.5,0.4,0.9,0.9,0.9c0.5,0,0.9-0.4,0.9-0.9c0-0.5-0.4-0.9-0.9-0.9
					C89.5,100.3,89.1,100.7,89.1,101.2z"/>
				<path class="st14" d="M92.5,100.3c0-0.4-0.2-0.8-0.5-1c-0.3-0.2-0.8-0.3-1.1-0.4c-0.2,0-0.4,0-0.6,0.1c-0.2,0.1-0.4,0.2-0.6,0.3
					c-0.3,0.3-0.5,0.7-0.5,1c0.3-0.3,0.5-0.5,0.8-0.6c0.3-0.1,0.6-0.2,0.9-0.1c0.3,0,0.6,0,0.9,0.2C92,99.8,92.2,100,92.5,100.3z"/>
				<path class="st14" d="M92.5,98.1c-0.6-0.1-1.8-0.3-3.6-0.2c-0.2,0-0.3-0.2-0.2-0.3c0.3-0.3,0.9-0.8,2-0.7c1.3,0.1,1.9,0.6,2.1,1
					C92.9,98,92.7,98.1,92.5,98.1z"/>
			</g>
		</g>
		<g>
			<path class="st14" d="M86.2,100.5c0.5,0.6,0.9,1.3,1.2,2c0.3,0.7,0.6,1.4,0.9,2.1l0.2,0.5c0.1,0.3,0.1,0.7,0,1
				c-0.2,0.6-0.9,1.1-1.5,1c-0.8-0.1-1.5-0.3-2.3-0.5c0.8-0.3,1.5-0.4,2.3-0.5c0.1-0.1,0.2-0.2,0.2-0.3c0-0.1,0-0.1,0-0.2l-0.2-0.5
				c-0.2-0.7-0.4-1.5-0.6-2.2C86.3,102.1,86.2,101.3,86.2,100.5z"/>
		</g>
		<path class="st12" d="M74.2,100c-0.5,0.2-1,0.5-1.3,1c-0.3,0.4-0.5,1-0.5,1.5c0,0.5,0.1,1.1,0.4,1.5c0.3,0.4,0.8,0.8,1.3,0.9
			c-0.6,0-1.1-0.3-1.5-0.8c-0.4-0.5-0.6-1.1-0.5-1.6c0-0.6,0.2-1.2,0.6-1.6C73.1,100.4,73.7,100.1,74.2,100z"/>
		<path class="st12" d="M97.6,104.9c0.5-0.2,1-0.5,1.3-1c0.3-0.4,0.5-1,0.5-1.5c0-0.5-0.1-1.1-0.4-1.5c-0.3-0.4-0.8-0.8-1.3-0.9
			c0.6,0,1.1,0.3,1.5,0.8c0.4,0.5,0.6,1.1,0.5,1.6c0,0.6-0.2,1.2-0.6,1.6C98.7,104.5,98.1,104.8,97.6,104.9z"/>
	</g>
	<g>
		<g>
			<path class="st7" d="M85.7,93.4c1.2,0.6,2.4,1.2,3.5,1.6c0.5,0.2,1.2,0.4,1.4,0.2c0-0.1,0.1-0.1,0.1-0.1c0-0.1,0-0.3-0.2-0.5
				c-0.2-0.5-0.6-1-1-1.4c-0.4-0.5-0.8-0.9-1.3-1.4c-0.9-0.9-1.8-1.9-2.7-2.9c1.2,0.5,2.4,1.2,3.4,2c1.1,0.8,2.1,1.7,2.9,3
				c0.2,0.4,0.4,0.8,0.3,1.4c-0.1,0.6-0.5,1.1-1.1,1.3c-0.5,0.1-1,0-1.3-0.1c-0.4-0.1-0.7-0.3-1-0.5C87.5,95.3,86.5,94.4,85.7,93.4z
				"/>
		</g>
		<g>
			<path class="st7" d="M90,92.7c1.1,0.2,1.9,0.3,2.6,0.3c0.4,0,0.8,0,1.2-0.1c0.4,0,0.9-0.1,1.5-0.1c-0.2,0.5-0.6,0.9-1.1,1.2
				c-0.5,0.3-1.1,0.5-1.6,0.5c-0.6,0-1.2-0.2-1.6-0.5C90.5,93.7,90.1,93.2,90,92.7z"/>
		</g>
		<g>
			<path class="st7" d="M83.4,90.4c0.5,0.2,0.9,0.5,1.3,0.8c0.4,0.3,0.7,0.7,0.9,1.2c0.2,0.4,0.4,0.9,0.4,1.5c0,0.5-0.2,1.2-0.7,1.5
				c0-0.6-0.3-0.8-0.4-1.2c-0.2-0.3-0.4-0.7-0.6-1.1c-0.2-0.4-0.4-0.8-0.5-1.2C83.5,91.4,83.4,90.9,83.4,90.4z"/>
		</g>
		<g>
			<path class="st7" d="M89.8,82.1c0.8-0.2,1.7-0.3,2.5-0.2c0.8,0.1,1.7,0.3,2.4,0.5c1.6,0.6,3,1.5,4.1,2.8c-0.8-0.3-1.5-0.7-2.2-1
				c-0.7-0.3-1.5-0.6-2.2-0.9c-0.7-0.3-1.5-0.5-2.3-0.7C91.4,82.4,90.6,82.2,89.8,82.1z"/>
		</g>
		<g>
			<path class="st7" d="M98.5,90.1c-0.5,0.4-1.2,0.6-1.9,0.7c-0.7,0.1-1.3,0-1.9-0.1c-0.6-0.1-1.2-0.4-1.8-0.7
				c-0.6-0.3-1.1-0.7-1.5-1.3c0.7,0,1.3,0.1,1.9,0.2c0.6,0.1,1.2,0.2,1.7,0.3C96.1,89.5,97.2,89.8,98.5,90.1z"/>
		</g>
		<g>
			<path class="st7" d="M79.3,93.8c-0.5-0.2-0.8-0.6-1.1-0.9c-0.3-0.4-0.5-0.8-0.7-1.3c-0.3-0.9-0.5-1.9-0.2-2.8
				c0.3,0.4,0.5,0.8,0.7,1.2c0.2,0.4,0.3,0.8,0.5,1.2L79.3,93.8z"/>
		</g>
	</g>
</g>
<g>
	<path class="st8" d="M105.1,155.9H66c-1.3,0-2.3-0.9-2.4-2.2l-2.2-19.8c-0.2-1.5,1-2.7,2.4-2.7h43.4c1.5,0,2.6,1.3,2.4,2.7
		l-2.2,19.8C107.4,155,106.3,155.9,105.1,155.9z"/>
	<path class="st14" d="M109.6,133c-0.3-1-1.2-1.8-2.4-1.8H63.8c-1.1,0-2.1,0.8-2.4,1.8H109.6z"/>
	<path class="st18" d="M87.7,144.7c0,1.2-1,2.1-2.1,2.1c-1.2,0-2.1-1-2.1-2.1c0-1.2,1-2.1,2.1-2.1C86.7,142.6,87.7,143.5,87.7,144.7
		z"/>
</g>
<g>
	<g>
		<g>
			<rect x="63.6" y="65.2" class="st4" width="21.8" height="12.4"/>
			<g>
				<g>
					
						<ellipse transform="matrix(0.9175 -0.3977 0.3977 0.9175 -22.1677 35.4894)" class="st19" cx="74.5" cy="71.2" rx="3.3" ry="3.3"/>
				</g>
				<g>
					<path class="st2" d="M73.9,70.5V72c0,0.3,0.3,0.4,0.5,0.3l1-0.8c0.2-0.1,0.2-0.4,0-0.5l-1-0.7C74.2,70.1,73.9,70.2,73.9,70.5z"
						/>
				</g>
			</g>
			<g>
				<path class="st19" d="M83.2,76.1H65.1c-0.1,0-0.3-0.1-0.3-0.3l0,0c0-0.1,0.1-0.3,0.3-0.3h18.2c0.1,0,0.3,0.1,0.3,0.3l0,0
					C83.5,76,83.4,76.1,83.2,76.1z"/>
				<g>
					<path class="st2" d="M83.2,75.6H70.6v0.5h12.7c0.1,0,0.3-0.1,0.3-0.3v0C83.5,75.7,83.4,75.6,83.2,75.6z"/>
				</g>
				<path class="st19" d="M70.5,75.6h-5.5c-0.1,0-0.3,0.1-0.3,0.3v0c0,0.1,0.1,0.3,0.3,0.3h5.5V75.6z"/>
				<g>
					<path class="st19" d="M71.2,75.8c0,0.3-0.3,0.6-0.6,0.6c-0.3,0-0.6-0.3-0.6-0.6c0-0.3,0.3-0.6,0.6-0.6
						C70.9,75.2,71.2,75.5,71.2,75.8z"/>
					<g>
						<path class="st20" d="M70.9,75.8c0,0.2-0.1,0.3-0.3,0.3s-0.3-0.1-0.3-0.3c0-0.2,0.1-0.3,0.3-0.3S70.9,75.6,70.9,75.8z"/>
					</g>
				</g>
			</g>
		</g>
		<g>
			<path class="st4" d="M101.6,141.4v7.1c0,0.6,0.5,1.1,1.1,1.1h12.9c0.2,0,0.5,0.1,0.7,0.2l2.8,2.2c0.7,0.6,1.8,0,1.8-0.9v-1.5
				v-5.2v-3c0-0.6-0.5-1.1-1.1-1.1h-17.1C102.1,140.3,101.6,140.8,101.6,141.4z"/>
			<g>
				<g>
					<circle class="st2" cx="108.3" cy="145.1" r="0.7"/>
				</g>
				<g>
					<path class="st2" d="M112.3,145.1c0,0.4-0.3,0.7-0.7,0.7c-0.4,0-0.7-0.3-0.7-0.7c0-0.4,0.3-0.7,0.7-0.7
						C112,144.3,112.3,144.7,112.3,145.1z"/>
				</g>
				<g>
					<path class="st2" d="M115.5,145.1c0,0.4-0.3,0.7-0.7,0.7c-0.4,0-0.7-0.3-0.7-0.7c0-0.4,0.3-0.7,0.7-0.7
						C115.2,144.3,115.5,144.7,115.5,145.1z"/>
				</g>
			</g>
		</g>
		<g>
			<path class="st4" d="M128.4,85.3v7.4c0,0.5-0.4,1-1,1h-14.7c-0.2,0-0.4,0.1-0.6,0.2l-3.1,2.4c-0.6,0.5-1.6,0-1.6-0.8v-1.8v-5.2
				v-3.1c0-0.5,0.4-1,1-1h18.9C128,84.3,128.4,84.8,128.4,85.3z"/>
			<g>
				<g>
					<path class="st21" d="M113.2,89c0,1.1-0.9,1.9-1.9,1.9c-1.1,0-1.9-0.9-1.9-1.9c0-1.1,0.9-1.9,1.9-1.9
						C112.4,87.1,113.2,87.9,113.2,89z"/>
				</g>
				<g>
					<g>
						<g>
							<path class="st3" d="M114.6,88.4l0.3-0.9h0.5l-0.3,0.9H114.6z M115.3,88.4l0.3-0.9h0.5l-0.3,0.9H115.3z"/>
						</g>
					</g>
					<g>
						<g>
							<path class="st3" d="M124.2,90.7l0.3-0.9h0.5l-0.3,0.9H124.2z M124.9,90.7l0.3-0.9h0.5l-0.3,0.9H124.9z"/>
						</g>
					</g>
					<g>
						<rect x="116.5" y="87.7" class="st19" width="9.9" height="0.4"/>
					</g>
					<g>
						<rect x="114.6" y="88.8" class="st19" width="11.3" height="0.4"/>
					</g>
					<g>
						<rect x="114.6" y="89.9" class="st19" width="9.3" height="0.4"/>
					</g>
				</g>
			</g>
		</g>
		<g>
			<rect x="43.1" y="102.2" class="st4" width="24.2" height="13.7"/>
			<g>
				<rect x="44.2" y="103.5" class="st21" width="21.7" height="11.2"/>
			</g>
			<g>
				<path class="st19" d="M44.2,114.7l6.2-8.3c0.7-0.9,2-0.9,2.7,0l4.5,5.9l2.5-2.3c0.7-0.7,1.9-0.6,2.5,0.2l3.4,4.5H44.2z"/>
			</g>
			<g>
				<path class="st3" d="M59.6,106.9c0,1-0.8,1.8-1.8,1.8c-1,0-1.8-0.8-1.8-1.8s0.8-1.8,1.8-1.8C58.8,105.1,59.6,105.9,59.6,106.9z"
					/>
			</g>
		</g>
	</g>
</g>
<g>
	<g>
		<g>
			<defs>
				<rect id="SVGID_1_" x="42.2" y="9.6" width="20.3" height="21.1"/>
			</defs>
			<clipPath id="SVGID_2_">
				<use xlink:href="#SVGID_1_"  style="overflow:visible;"/>
			</clipPath>
			<g class="st22">
				<g>
					<defs>
						<rect id="SVGID_3_" x="42.2" y="9.6" width="20.3" height="21.1"/>
					</defs>
					<clipPath id="SVGID_4_">
						<use xlink:href="#SVGID_3_"  style="overflow:visible;"/>
					</clipPath>
					<path class="st23" d="M42.6,20.1c0-1.4,0-2.8,0-4.1c0-0.8,0.4-1.4,1.1-1.8c2.6-1.4,5.1-2.9,7.8-4.2c0.5-0.3,1.3-0.3,1.8,0
						c2.6,1.3,5.2,2.8,7.8,4.2c0.7,0.4,1.1,1,1.1,1.8c0,2.8,0,5.6,0,8.4c0,0.8-0.4,1.4-1.1,1.8c-2.5,1.4-5,2.8-7.5,4.1
						c-0.7,0.4-1.4,0.4-2.2,0c-2.5-1.4-5-2.8-7.5-4.1c-0.8-0.4-1.1-1-1.1-1.9C42.7,22.9,42.6,21.5,42.6,20.1"/>
				</g>
				<g>
					<defs>
						<rect id="SVGID_5_" x="42.2" y="9.6" width="20.3" height="21.1"/>
					</defs>
					<clipPath id="SVGID_6_">
						<use xlink:href="#SVGID_5_"  style="overflow:visible;"/>
					</clipPath>
					<path class="st24" d="M43.9,20c0-1.2,0-2.4,0-3.6c0-0.7,0.3-1.2,0.9-1.6c2.2-1.3,4.5-2.5,6.7-3.7c0.4-0.2,1.1-0.2,1.6,0
						c2.3,1.3,4.5,2.5,6.7,3.8c0.7,0.4,1,0.9,1,1.6c0,2.4,0,4.9,0,7.4c0,0.8-0.4,1.3-1,1.6c-2.2,1.2-4.3,2.4-6.5,3.6
						c-0.6,0.4-1.3,0.4-1.9,0c-2.2-1.2-4.3-2.4-6.6-3.6c-0.7-0.4-1-0.9-1-1.7C43.9,22.5,43.9,21.3,43.9,20 M44.9,20.2
						c0,1.1,0,2.2,0,3.3c0,0.6,0.2,0.9,0.7,1.2c2,1.1,4,2.3,6,3.3c0.4,0.2,1,0.2,1.3,0c2-1.1,4-2.2,6-3.3c0.5-0.3,0.7-0.7,0.7-1.2
						c0-2.2,0-4.4,0-6.6c0-0.6-0.3-1-0.8-1.3c-2-1.1-3.9-2.2-5.9-3.3c-0.5-0.3-1-0.3-1.4,0c-2,1.1-4,2.2-6,3.3
						c-0.5,0.3-0.7,0.6-0.7,1.2C45,17.9,44.9,19,44.9,20.2"/>
				</g>
				<g>
					<defs>
						<rect id="SVGID_7_" x="42.2" y="9.6" width="20.3" height="21.1"/>
					</defs>
					<clipPath id="SVGID_8_">
						<use xlink:href="#SVGID_7_"  style="overflow:visible;"/>
					</clipPath>
					<polygon class="st25" points="48,17.7 48,20.4 52.4,16.7 56.8,20.4 56.8,17.7 52.4,14 					"/>
				</g>
				<g>
					<defs>
						<rect id="SVGID_9_" x="42.2" y="9.6" width="20.3" height="21.1"/>
					</defs>
					<clipPath id="SVGID_10_">
						<use xlink:href="#SVGID_9_"  style="overflow:visible;"/>
					</clipPath>
					<rect x="51.3" y="16.1" class="st26" width="2.2" height="9.7"/>
				</g>
			</g>
		</g>
	</g>
</g>
</svg>
