<?xml version="1.0" encoding="utf-8"?>
<!-- Generator: Adobe Illustrator 25.0.0, SVG Export Plug-In . SVG Version: 6.00 Build 0)  -->
<svg version="1.1" id="Layer_1" xmlns="http://www.w3.org/2000/svg" xmlns:xlink="http://www.w3.org/1999/xlink" x="0px" y="0px"
	 viewBox="0 0 130 160" style="enable-background:new 0 0 130 160;" xml:space="preserve">
<style type="text/css">
	.st0{fill:#D74340;}
	.st1{clip-path:url(#SVGID_2_);fill:#D74340;}
	.st2{clip-path:url(#SVGID_2_);}
	.st3{fill:#231F20;}
	.st4{fill:#FEBDA9;}
	.st5{fill:#EA9FB9;}
	.st6{fill:#1D174E;}
	.st7{fill:#F59C97;}
	.st8{fill:#D0D2D3;}
	.st9{fill:#404041;}
	.st10{fill:#F1F1F2;}
	.st11{fill:#121112;}
	.st12{fill:#FFFFFF;}
	.st13{fill:#F38D8B;}
	.st14{fill:#F9AD9B;}
	.st15{fill:#FACACA;}
	.st16{fill:#EEBAB9;}
	.st17{fill:#EE7475;}
	.st18{fill:#354789;}
	.st19{clip-path:url(#SVGID_2_);fill:#231F20;}
	.st20{opacity:0.2;enable-background:new    ;}
	.st21{fill:#FF856C;}
	.st22{fill:#D1D3D4;}
	.st23{clip-path:url(#SVGID_4_);}
	.st24{clip-path:url(#SVGID_6_);fill:#FFFFFF;}
	.st25{clip-path:url(#SVGID_8_);fill:#D84440;}
	.st26{clip-path:url(#SVGID_10_);fill:#D84440;}
	.st27{clip-path:url(#SVGID_12_);fill:#D84440;}
</style>
<path class="st0" d="M111.7,106"/>
<g>
	<defs>
		<rect id="SVGID_1_" x="-3.5" y="3.8" width="141.1" height="159.4"/>
	</defs>
	<clipPath id="SVGID_2_">
		<use xlink:href="#SVGID_1_"  style="overflow:visible;"/>
	</clipPath>
	<path class="st1" d="M33,126.2c2.1,7.4-0.3,15.3-3.5,22.3h81.9c0.6-0.7,1.2-1.5,1.7-2.2c4.8-7,6.2-16.5,4.4-25.1
		c-1-4.7-2.9-9.1-3.7-13.8c-1.2-7.3,0.5-14.7,2.9-21.6c5.6-16.4,7.4-20.5,7.4-20.5c0.7-1.4,1.7-3.2,1.2-5.3
		c-1.2-4.9-9.9-6.3-13.4-7.2c-22.3-5.4-23.7-30.6-41.5-31.7c-11.6-0.7-24.1,8.7-29.4,18.5c-4.4,7.9-0.6,15.1-6.7,21.8
		c-4.4,4.9-7.7,3.3-13.2,7.5c-9,7-14.7,22.6-10.1,33.4C16,114.1,29.5,113.8,33,126.2z"/>
	<g class="st2">
		<polygon class="st3" points="74.6,148.2 71.1,93.1 65.9,93.1 62.5,148.2 		"/>
		<path class="st4" d="M74.4,76.6l-0.5-4.8c0.1-0.1,0.2-0.2,0.3-0.2c-0.1,0.1-0.2,0.2-0.3,0.2c-1.1,0.8-2.2,1.5-3.3,1.8
			c-0.7,0.1-1.4,0.2-2,0.2c-0.7,0-1.4,0-2-0.2c-1.1-0.2-2.2-1-3.4-1.8c0,0,0,0,0,0l-0.5,4.9c0,0-3.7,0.8-2.5,2.2l6.5,7.1h3.9
			l6.5-7.1C78.1,77.5,74.4,76.6,74.4,76.6z"/>
		<path class="st5" d="M60.1,78.9c-1.2-1.4,2.5-2.2,2.5-2.2h0l0.3-2.4l-0.4,0.1l0,0l-6.4,2c-0.7,0.4-0.5,1.4-0.5,1.4l1.9,11.2
			l3.4,7.4c0.3,0.4,0.5,0,0.5,0l2-5.9c0.1-0.6,0.7-1.3,0.7-1.3l2.4-3.3L60.1,78.9z"/>
		<path class="st5" d="M76.9,78.9c1.2-1.4-2.5-2.2-2.5-2.2h0l-0.3-2.4l0.4,0.1l0,0l6.4,2c0.7,0.4,0.5,1.4,0.5,1.4l-1.9,11.2
			l-3.4,7.4c-0.3,0.4-0.5,0-0.5,0l-2-5.9c-0.1-0.6-0.7-1.3-0.7-1.3L70.5,86L76.9,78.9z"/>
		<path class="st6" d="M72.9,89.3L70.5,86h-1.9h-1.9l-2.4,3.3c0,0-0.2,0.2-0.3,0.5l2.1,3.4h2.6h2.6l2.1-3.4
			C73,89.5,72.9,89.3,72.9,89.3z"/>
		<path class="st7" d="M70.1,80c-0.1,0.1-0.2,0.2-0.2,0.3c0,0.2,0.3,0.2,0.4,0.1c1.1-0.3,2.1-0.8,3.1-1.3c0.2-0.1,0.5-0.4,0.4-0.6
			c0-0.1-0.1-0.2-0.2-0.2c-0.2-0.2-0.6-0.5-0.9-0.5c-0.3,0-0.6,0.5-0.9,0.7C71.4,79,70.8,79.5,70.1,80z"/>
		<path class="st7" d="M66.9,80c0.1,0.1,0.2,0.2,0.2,0.3c0,0.2-0.3,0.2-0.4,0.1c-1.1-0.3-2.1-0.8-3.1-1.3C63.2,79,63,78.8,63,78.5
			c0-0.1,0.1-0.2,0.2-0.2c0.2-0.2,0.6-0.5,0.9-0.5c0.3,0,0.6,0.5,0.9,0.7C65.6,79,66.2,79.5,66.9,80z"/>
		<path class="st8" d="M60.1,78.9c-1.2-1.4,2.5-2.2,2.5-2.2h0l0.3-2.4l-0.4,0.1l0,0l-6.4,2c-0.7,0.4-0.5,1.4-0.5,1.4l1.9,11.2
			l3.4,7.4c0.3,0.4,0.5,0,0.5,0l2-5.9c0.1-0.6,0.7-1.3,0.7-1.3l2.4-3.3L60.1,78.9z"/>
		<path class="st8" d="M76.9,78.9c1.2-1.4-2.5-2.2-2.5-2.2h0l-0.3-2.4l0.4,0.1l0,0l6.4,2c0.7,0.4,0.5,1.4,0.5,1.4l-1.9,11.2
			l-3.4,7.4c-0.3,0.4-0.5,0-0.5,0l-2-5.9c-0.1-0.6-0.7-1.3-0.7-1.3L70.5,86L76.9,78.9z"/>
		<path class="st9" d="M72.9,89.3L70.5,86h-1.9h-1.9l-2.4,3.3c0,0-0.2,0.2-0.3,0.5l2.1,3.4h2.6h2.6l2.1-3.4
			C73,89.5,72.9,89.3,72.9,89.3z"/>
		<path class="st9" d="M68.6,126.6l11-37.5l1.9-11.2c0,0,0-0.1,0-0.2l2.2,0.8c0.2,0.1,0.2,0.3,0.2,0.3c0.5,2.1,2.2,9.8,3,14.5
			c0,0,0.5,2-0.7,1.4L79.9,94c0,0-0.6-0.1,0,1.2l5.9,8.5c0,0,0.3,0.3,0,0.7c0,0-11.4,15.7-17.2,22.3L68.6,126.6z"/>
		<g>
			<path class="st10" d="M63.2,82.9c-0.3-0.3-0.6-0.7-0.9-1c-0.6-0.7-1.2-1.3-1.9-2l-0.5-0.5l-0.2-0.2L59.6,79c0,0,0,0-0.1-0.1
				l0-0.1c-0.1-0.1-0.2-0.3-0.2-0.5c0-0.1,0-0.2,0-0.3c0,0,0-0.1,0-0.1c0,0,0,0,0-0.1c0,0,0,0,0,0c0.2-0.2,0.4-0.3,0.6-0.5
				c0.2-0.1,0.5-0.3,0.7-0.4c0.2-0.1,0.5-0.3,0.7-0.4c0.2-0.1,0.5-0.2,0.8-0.4c-0.3,0.1-0.5,0.1-0.8,0.2c-0.3,0.1-0.5,0.2-0.8,0.3
				c-0.3,0.1-0.5,0.2-0.8,0.3l-0.2,0.1l-0.2,0.1c-0.1,0-0.1,0.1-0.2,0.1c-0.1,0-0.1,0.1-0.2,0.2c0,0,0,0,0,0l0,0c0,0,0,0.1-0.1,0.1
				c0,0,0,0.1,0,0.1c0,0.1,0,0.1-0.1,0.2c0,0.1,0,0.3,0,0.4c0,0.1,0,0.1,0,0.2c0,0.1,0,0.1,0.1,0.2C59,78.9,59,79,59,79l0.1,0.1
				c0,0,0,0.1,0.1,0.1l0.1,0.1c0,0,0,0,0.1,0.1l0.1,0.1l0.2,0.3l0.5,0.5c0.6,0.7,1.3,1.3,1.9,2c0.3,0.3,0.6,0.6,1,1l1,1
				c0.7,0.6,1.3,1.3,2,1.9c-0.6-0.7-1.2-1.4-1.8-2.1L63.2,82.9z"/>
			<path class="st10" d="M78.2,78c0-0.1,0-0.1-0.1-0.2c0,0,0-0.1,0-0.1c0,0,0-0.1-0.1-0.1l0,0c0,0,0,0,0,0c-0.1-0.1-0.1-0.1-0.2-0.2
				c-0.1,0-0.1-0.1-0.2-0.1l-0.2-0.1l-0.2-0.1c-0.3-0.1-0.5-0.2-0.8-0.3c-0.3-0.1-0.5-0.2-0.8-0.3c-0.3-0.1-0.5-0.2-0.8-0.2
				c0.3,0.1,0.5,0.2,0.8,0.4c0.2,0.1,0.5,0.2,0.7,0.4c0.2,0.1,0.5,0.3,0.7,0.4c0.2,0.1,0.4,0.3,0.6,0.5c0,0,0,0,0,0c0,0,0,0,0,0.1
				c0,0,0,0.1,0,0.1c0,0.1,0,0.2,0,0.3c0,0.2-0.1,0.4-0.2,0.5l0,0.1c0,0,0,0-0.1,0.1l-0.1,0.1l-0.2,0.2l-0.5,0.5
				c-0.6,0.7-1.3,1.3-1.9,2c-0.3,0.3-0.6,0.7-0.9,1l-0.9,1c-0.6,0.7-1.2,1.4-1.8,2.1c0.7-0.6,1.3-1.2,2-1.9l1-1c0.3-0.3,0.6-0.6,1-1
				c0.6-0.7,1.3-1.3,1.9-2l0.5-0.5l0.2-0.3l0.1-0.1c0,0,0,0,0.1-0.1l0.1-0.1c0,0,0-0.1,0.1-0.1L78,79c0-0.1,0.1-0.1,0.1-0.2
				c0-0.1,0-0.1,0.1-0.2c0-0.1,0-0.1,0-0.2C78.2,78.3,78.2,78.1,78.2,78z"/>
		</g>
		<ellipse class="st11" cx="71" cy="137.3" rx="0.9" ry="1"/>
		<path class="st3" d="M68.9,148.2c0-0.7,0-1.4,0-2.1c0-3.2,0-6.5-0.1-9.7c-0.1-3.2-0.1-6.5-0.3-9.7c-0.1,3.2-0.2,6.5-0.3,9.7
			c-0.1,3.2-0.1,6.5-0.1,9.7c0,0.7,0,1.4,0,2.1H68.9z"/>
		<path class="st3" d="M119.8,124.6c-3.7-6.3-8.2-15.2-11.7-22.1l-1.9-4l0,0c-2.3-4.5-3.9-7.8-3.9-7.8c-1.5-3.5-4.5-6.2-4.5-6.2
			c-0.3-0.3-0.6-0.6-0.8-0.8c-0.3-0.4-0.8-0.7-1.4-0.9l-11.7-4.1c0.5,2.1,2.2,9.8,3,14.4c0,0,0.5,2-0.7,1.4L79.9,94
			c0,0-0.6-0.1,0,1.2l5.9,8.5c0,0,0.3,0.3,0,0.7c0,0-11.4,15.7-17.2,22.3v21.5H93l-0.6-16.1l1.7-14.5c0,0,0-0.1,0-0.1l0.6-4.9l0,0
			c0.4-3,1.9-1.7,2.7-0.9c0,0,0,0,0,0c0,0,0,0,0,0l11.8,18.3c2.6,6.7,8.1,8.4,8.1,8.4c6.3,0.3,6.3-6,6.3-6
			C123.7,130.5,119.8,124.6,119.8,124.6z"/>
		<path class="st12" d="M76.1,96.5c-0.3,0.4-0.5,0-0.5,0l-2-5.9c-0.1-0.3-0.2-0.6-0.4-0.8v0l-2.1,3.4l1.3,20.4l7.1-24.4L76.1,96.5z"
			/>
		<path class="st9" d="M68.4,126.6l-11-37.5l-1.9-11.2c0,0,0-0.1,0-0.2l-2.2,0.8c-0.2,0.1-0.2,0.3-0.2,0.3c-0.5,2.1-2.2,9.8-3,14.5
			c0,0-0.5,2,0.7,1.4l6.1-0.5c0,0,0.6-0.1,0,1.2l-5.9,8.5c0,0-0.3,0.3,0,0.7c0,0,11.4,15.7,17.2,22.3L68.4,126.6z"/>
		<path class="st12" d="M60.9,96.5c0.3,0.4,0.5,0,0.5,0l2-5.9c0.1-0.3,0.2-0.6,0.4-0.8v0l2.1,3.4l-1.3,20.4l-7.1-24.4L60.9,96.5z"/>
		<path class="st3" d="M42.9,117.5c0,0,0,0.1,0,0.1l1.7,14.5L44,148.2h24.5v-21.5c-5.8-6.6-17.2-22.3-17.2-22.3
			c-0.3-0.5,0-0.7,0-0.7l5.9-8.5c0.6-1.3,0-1.2,0-1.2L51,94.6c-1.2,0.6-0.7-1.4-0.7-1.4c0.7-4.6,2.5-12.3,3-14.4l-11.7,4.1
			c-0.6,0.2-1.1,0.5-1.4,0.9c-0.3,0.2-0.6,0.5-0.8,0.8c0,0-3.1,2.6-4.5,6.2c0,0-0.1,0.3-0.4,0.9c0,0-10.1,21.2-17.1,33
			c0,0-3.9,5.9-3.8,7.9c0,0,0,6.2,6.3,6c0,0,5.4-1.6,8.1-8.4l11.8-18.3c0.7-0.8,2.3-2.2,2.7,0.9l0,0L42.9,117.5z"/>
		<g>
			<g>
				<path class="st13" d="M41.7,116.8c0.5-1.5,1-4,1-4c0.6-1.4,1.2-3.7,1.4-4.3c0,0,0.1-0.1,0.1-0.1c0.3-0.4,0.7-0.9,1.1-1.1
					c0.7-0.3,1.2,0.3,1.2,1.1c0.1,0.8-0.2,1.6-0.6,2.3c0,0-1.3,2.1-2.1,3.4c0,0-1.2,3.4-2,5.1c0,0-0.1,0.2-0.2,0.5
					C41.3,118.2,41.7,116.8,41.7,116.8z"/>
				<path class="st14" d="M41.7,116.8c0.5-1.5,1-4,1-4c0.6-1.6,1.4-4.4,1.4-4.4c0-0.2,0.1-0.3,0.1-0.3l0.2-0.6
					c0.3-0.6,0.4-1.2,0.5-1.6c0.1-0.1,0.2-0.1,0.2-0.1c0.7-0.4,1.2,0.2,1.3,1c0.1,0.8-0.1,1.6-0.5,2.3c0,0-1.2,2.2-2,3.5
					c0,0-1,3.5-1.7,5.3c0,0-0.3,0.9-0.6,2C41.3,118.2,41.7,116.8,41.7,116.8z"/>
				<path class="st14" d="M46.1,105c-0.1-0.5-0.3-0.9-0.6-1c0,0-0.3-0.2-0.7,0c0,0-0.1,0.1-0.2,0.3c0.2,0.2,0.4,0.5,0.4,1.1
					c0,0-0.1,0.7-0.3,1.5c-0.1,0.2-0.2,0.5-0.3,0.7c0,0,0,0,0,0l0,0.1l-0.1,0.4l0,0l0,0.1c0,0,0,0.1-0.1,0.3c0,0-0.8,2.8-1.4,4.4
					c0,0-0.5,2.5-1,4c0,0-0.2,0.7-0.2,1.8c0.4-1.3,0.7-2.3,0.7-2.3c0.6-1.8,1.6-5.3,1.6-5.3c0.7-1.3,1.9-3.6,1.9-3.6
					C46,106.6,46.2,105.8,46.1,105z"/>
				<path class="st14" d="M44.9,105.4c0-1-0.8-1.3-0.8-1.3c-0.7-0.3-1,0.1-1.1,0.4c0,0.1,0,0.1-0.1,0.2c-0.7,2-1.4,4.1-2.1,6.1
					c-0.2,0.6-0.4,1.2-0.7,1.8c-0.3,0.5-0.7,1-1,1.5c-0.3,0.6-0.5,1.2-0.7,1.9c-0.9,3-1.7,6-3,8.7c-0.2,0.4-0.4,0.8-0.6,1.3
					c-0.1,0.3-0.2,1-0.2,1s-0.1,1.5,0.3,3.7c0.1,0.9,0.2,1.8,0.4,2.7c1,0.2,2.1,0.6,3,1.1c0.1-0.7,0.3-1.9,0.5-2.7
					c0.1-0.2,0.1-0.5,0.2-0.7c0.5-1,1.2-1.8,1.7-2.7c0.8-1.3,1.1-2.8,1.2-4.4c0.1-1.6-0.3-3.6-0.3-3.6c-0.4-1.7,0-3.2,0-3.2
					c0.5-1.5,1-4,1-4c0.6-1.6,1.4-4.4,1.4-4.4c0-0.2,0.1-0.3,0.1-0.3l0.2-0.6c0.1-0.3,0.2-0.5,0.3-0.7
					C44.8,106.1,44.9,105.4,44.9,105.4z"/>
				<g>
					<path class="st15" d="M42.8,106.1c0.1-0.5,0.3-1,0.5-1.4c0.1-0.1,0.1-0.3,0.1-0.4c0-0.1-0.1-0.3-0.3-0.2
						c-0.1,0-0.1,0.1-0.1,0.1c-0.2,0.3-0.3,0.7-0.4,1c-0.1,0.3-0.2,0.6-0.3,0.9c0,0.1,0.1,0.3,0.2,0.3
						C42.7,106.4,42.7,106.2,42.8,106.1z"/>
					<path class="st16" d="M42.6,106.2c0.1,0,0.1,0,0.2,0c0,0.1-0.1,0.2-0.2,0.1c-0.1,0-0.2-0.2-0.2-0.3c0,0,0,0,0,0
						C42.4,106.1,42.5,106.2,42.6,106.2z"/>
				</g>
				<path class="st4" d="M49.9,117.4c-0.1-0.9-0.9-1.7-1.7-1.4c-0.4,0.1-0.6,0.5-0.9,0.8c-0.7,1-1.5,2-2.2,3
					c-0.4,0.6-0.9,1.2-1.5,1.3c-0.4,0.1-0.9,0-1.3-0.3c-0.2-0.1-0.4-0.4-0.6-0.6c0,0,0,0,0,0c0-0.2-0.1-0.3-0.1-0.3
					c-0.4-1.7,0-3.2,0-3.2c0.5-1.5,1-4,1-4c0.6-1.6,1.4-4.4,1.4-4.4c0-0.2,0.1-0.3,0.1-0.3l0.2-0.6c0.1-0.3,0.2-0.5,0.3-0.7
					c0.2-0.8,0.3-1.5,0.3-1.5c0-1-0.8-1.3-0.8-1.3c0,0,0,0-0.1,0c0.1,0.1,0.1,0.2,0.2,0.3c0.4,0.7,0.1,1.7-0.2,2.4
					c-0.6,1.7-1.2,3.4-1.7,5.1c-0.2,0.6-0.5,1.2-0.5,1.8c0,0-0.6,2.2-0.9,3.1c-0.3,0.8-0.5,1.8-0.4,2.7c0.1,0.4,0.1,0.9,0.1,1.3
					c0,0.2,0.1,2.5-1.5,6.1c-0.5,1.1-1.1,2.2-1.8,2.7c-1.4,0.6-1.9-0.8-1.9-0.8c-0.3-1.8-0.1-2.9-0.1-2.9l0,0
					c0.1-0.3,0.3-0.8,0.2-1.4c-0.1,0.3-0.3,0.6-0.4,0.9l0,0c-0.1,0.1-0.1,0.3-0.2,0.4c-0.1,0.3-0.2,1-0.2,1s-0.1,1.5,0.3,3.7
					c0.2,1.6,0.5,3.5,1,4.8c1.3-0.2,2.7-0.6,3.4-0.9c0.9-0.3,1.6-0.9,2.4-1.4c0.5-0.4,1-0.7,1.4-1.2c0.3-0.4,0.6-0.8,0.8-1.3
					c0.7-1.4,1-3,1.4-4.5c0.4-1.5,0.9-3.1,1.9-4.2c0.5-0.6,1.2-1.1,1.8-1.8C49.5,119.1,50,118.3,49.9,117.4z"/>
			</g>
			<path class="st8" d="M37.2,134.9c0.1,1-0.2,2-0.2,2l0,0c0,0,0-0.1-0.1-0.1c-0.1-0.1-0.3,0-0.4-0.2c-0.3-0.4-0.5-0.9-0.7-1.5
				C36.3,135.1,36.8,135,37.2,134.9z"/>
			<g>
				<path class="st3" d="M36.4,137.8c0,0.4-0.1,0.6-0.1,0.6l0,0c0,0,0,0,0,0c-0.2,0-0.3-0.2-0.4-0.3C36.1,138,36.3,137.9,36.4,137.8
					z"/>
				<polygon class="st3" points="35.8,138 35.8,138 35.8,138 				"/>
			</g>
			<path class="st3" d="M13.5,131.5c0.4-1.8,1.7-3.1,3.2-3.8c0.5-0.3,1.1-0.5,1.7-0.5c1.5-0.1,2.9,0.8,4.4,1
				c2.8,0.4,5.4-1.5,8.2-1.7c0.3,0,0.7,0,1-0.1c0.5-0.1,1.4-0.6,1.4-0.6c0.4-0.2,0.5,0,0.5,0c-0.4,0.1-0.5,0.8-0.5,1.2
				c-0.1,0.9,0,1.9,0.1,2.9c0.1,0.9,0.2,1.7,0.4,2.6c0.2,1,0.4,1.9,0.7,2.9c0,0.1,0,0.1,0.1,0.2c0.3,0.8,0.6,1.6,1.1,2.4
				c0,0.1,0.1,0.2,0.1,0.2c0.1,0.2,0.2,0.4,0.4,0.4c0,0,0.1,0,0,0.1c0,0-0.1,0.1-0.3,0.1c0,0-5.8,2.5-9.9,2.5c0,0-1,0.1-3.3,0.3
				c0,0-2,0.5-5.1-1c-0.2-0.1-0.4-0.2-0.6-0.3c-0.2-0.1-0.4-0.2-0.6-0.3c-0.2-0.1-0.3-0.2-0.5-0.3c-0.2-0.1-0.3-0.3-0.5-0.4
				c-1.2-1.1-1.7-2.9-1.9-4.6C13.4,133.4,13.3,132.4,13.5,131.5z"/>
			<path class="st10" d="M33.5,126.9c0-0.3,0.1-0.9,0.4-1.1l0.1-0.1c0.3-0.1,0.7,0,0.7,0c-0.1,0.3-0.2,1-0.2,1s-0.1,1.5,0.3,3.7
				c0.3,2.3,0.8,5,1.8,6.3c0.1,0.1,0.2,0.1,0.4,0.2c0.1,0.1,0,0.2,0,0.3c0,0-0.2,0.6-1.1,0.9c0-0.1-0.1-0.2-0.1-0.3
				c-0.5-0.8-0.9-1.7-1.2-2.7c-0.1-0.2-0.1-0.5-0.2-0.7l0,0c-0.2-0.7-0.3-1.4-0.5-2.1c-0.2-0.8-0.3-1.7-0.4-2.6
				C33.5,128.8,33.4,127.8,33.5,126.9z"/>
		</g>
		<g>
			<g>
				<path class="st13" d="M95.4,116.8c-0.5-1.5-1-4-1-4c-0.6-1.4-1.2-3.7-1.4-4.3c0,0-0.1-0.1-0.1-0.1c-0.3-0.4-0.7-0.9-1.1-1.1
					c-0.7-0.3-1.2,0.3-1.2,1.1c-0.1,0.8,0.2,1.6,0.6,2.3c0,0,1.3,2.1,2.1,3.4c0,0,1.2,3.4,2,5.1c0,0,0.1,0.2,0.2,0.5
					C95.8,118.2,95.4,116.8,95.4,116.8z"/>
				<path class="st14" d="M95.4,116.8c-0.5-1.5-1-4-1-4c-0.6-1.6-1.4-4.4-1.4-4.4c0-0.2-0.1-0.3-0.1-0.3l-0.2-0.6
					c-0.3-0.6-0.4-1.2-0.5-1.6c-0.1-0.1-0.2-0.1-0.2-0.1c-0.7-0.4-1.2,0.2-1.3,1c-0.1,0.8,0.1,1.6,0.5,2.3c0,0,1.2,2.2,2,3.5
					c0,0,1,3.5,1.7,5.3c0,0,0.3,0.9,0.6,2C95.8,118.2,95.4,116.8,95.4,116.8z"/>
				<path class="st7" d="M91,105c0.1-0.5,0.3-0.9,0.6-1c0,0,0.3-0.2,0.7,0c0,0,0.1,0.1,0.2,0.3c-0.2,0.2-0.4,0.5-0.4,1.1
					c0,0,0.1,0.7,0.3,1.5c0.1,0.2,0.2,0.5,0.3,0.7c0,0,0,0,0,0l0,0.1l0.1,0.4l0,0l0,0.1c0,0,0,0.1,0.1,0.3c0,0,0.8,2.8,1.4,4.4
					c0,0,0.5,2.5,1,4c0,0,0.2,0.7,0.2,1.8c-0.4-1.3-0.7-2.3-0.7-2.3c-0.6-1.8-1.6-5.3-1.6-5.3c-0.7-1.3-1.9-3.6-1.9-3.6
					C91.1,106.6,90.9,105.8,91,105z"/>
				<path class="st14" d="M92.2,105.4c0-1,0.8-1.3,0.8-1.3c0.7-0.3,1,0.1,1.1,0.4c0,0.1,0,0.1,0.1,0.2c0.7,2,1.4,4.1,2.1,6.1
					c0.2,0.6,0.4,1.2,0.7,1.8c0.3,0.5,0.7,1,1,1.5c0.3,0.6,0.5,1.2,0.7,1.9c0.9,3,1.7,6,3,8.7c0.2,0.4,0.4,0.8,0.6,1.3
					c0.1,0.3,0.2,1,0.2,1s0.1,1.5-0.3,3.7c-0.1,0.9-0.2,1.8-0.4,2.7c-1,0.2-2.1,0.6-3,1.1c-0.1-0.7-0.3-1.9-0.5-2.7
					c-0.1-0.2-0.1-0.5-0.2-0.7c-0.5-1-1.2-1.8-1.7-2.7c-0.8-1.3-1.1-2.8-1.2-4.4c-0.1-1.6,0.3-3.6,0.3-3.6c0.4-1.7,0-3.2,0-3.2
					c-0.5-1.5-1-4-1-4c-0.6-1.6-1.4-4.4-1.4-4.4c0-0.2-0.1-0.3-0.1-0.3l-0.2-0.6c-0.1-0.3-0.2-0.5-0.3-0.7
					C92.2,106.1,92.2,105.4,92.2,105.4z"/>
				<g>
					<path class="st15" d="M94.3,106.1c-0.1-0.5-0.3-1-0.5-1.4c-0.1-0.1-0.1-0.3-0.1-0.4c0-0.1,0.1-0.3,0.3-0.2
						c0.1,0,0.1,0.1,0.1,0.1c0.2,0.3,0.3,0.7,0.4,1c0.1,0.3,0.2,0.6,0.3,0.9c0,0.1-0.1,0.3-0.2,0.3
						C94.4,106.4,94.3,106.2,94.3,106.1z"/>
					<path class="st16" d="M94.5,106.2c-0.1,0-0.1,0-0.2,0c0,0.1,0.1,0.2,0.2,0.1c0.1,0,0.2-0.2,0.2-0.3c0,0,0,0,0,0
						C94.7,106.1,94.6,106.2,94.5,106.2z"/>
				</g>
				<path class="st4" d="M87.2,117.4c0.1-0.9,0.9-1.7,1.7-1.4c0.4,0.1,0.6,0.5,0.9,0.8c0.7,1,1.5,2,2.2,3c0.4,0.6,0.9,1.2,1.5,1.3
					c0.4,0.1,0.9,0,1.3-0.3c0.2-0.1,0.4-0.4,0.6-0.6c0,0,0,0,0,0c0-0.2,0.1-0.3,0.1-0.3c0.4-1.7,0-3.2,0-3.2c-0.5-1.5-1-4-1-4
					c-0.6-1.6-1.4-4.4-1.4-4.4c0-0.2-0.1-0.3-0.1-0.3l-0.2-0.6c-0.1-0.3-0.2-0.5-0.3-0.7c-0.2-0.8-0.3-1.5-0.3-1.5
					c0-1,0.8-1.3,0.8-1.3c0,0,0,0,0.1,0c-0.1,0.1-0.1,0.2-0.2,0.3c-0.4,0.7-0.1,1.7,0.2,2.4c0.6,1.7,1.2,3.4,1.7,5.1
					c0.2,0.6,0.5,1.2,0.5,1.8c0,0,0.6,2.2,0.9,3.1c0.3,0.8,0.5,1.8,0.4,2.7c-0.1,0.4-0.1,0.9-0.1,1.3c0,0.2-0.1,2.5,1.5,6.1
					c0.5,1.1,1.1,2.2,1.8,2.7c1.4,0.6,1.9-0.8,1.9-0.8c0.3-1.8,0.1-2.9,0.1-2.9l0,0c-0.1-0.3-0.3-0.8-0.2-1.4
					c0.1,0.3,0.3,0.6,0.4,0.9l0,0c0.1,0.1,0.1,0.3,0.2,0.4c0.1,0.3,0.2,1,0.2,1s0.1,1.5-0.3,3.7c-0.2,1.6-0.5,3.5-1,4.8
					c-1.3-0.2-2.7-0.6-3.4-0.9c-0.9-0.3-1.6-0.9-2.4-1.4c-0.5-0.4-1-0.7-1.4-1.2c-0.3-0.4-0.6-0.8-0.8-1.3c-0.7-1.4-1-3-1.4-4.5
					c-0.4-1.5-0.9-3.1-1.9-4.2c-0.5-0.6-1.2-1.1-1.8-1.8C87.5,119.1,87.1,118.3,87.2,117.4z"/>
			</g>
			<path class="st8" d="M99.8,134.9c-0.1,1,0.2,2,0.2,2l0,0c0,0,0-0.1,0.1-0.1c0.1-0.1,0.3,0,0.4-0.2c0.3-0.4,0.5-0.9,0.7-1.5
				C100.8,135.1,100.3,135,99.8,134.9z"/>
			<g>
				<path class="st3" d="M100.7,137.8c0,0.4,0.1,0.6,0.1,0.6l0,0c0,0,0,0,0,0c0.2,0,0.3-0.2,0.4-0.3
					C101,138,100.8,137.9,100.7,137.8z"/>
				<polygon class="st3" points="101.2,138 101.2,138 101.2,138 				"/>
			</g>
			<path class="st3" d="M123.5,131.5c-0.4-1.8-1.7-3.1-3.2-3.8c-0.5-0.3-1.1-0.5-1.7-0.5c-1.5-0.1-2.9,0.8-4.4,1
				c-2.8,0.4-5.4-1.5-8.2-1.7c-0.3,0-0.7,0-1-0.1c-0.5-0.1-1.4-0.6-1.4-0.6c-0.4-0.2-0.5,0-0.5,0c0.4,0.1,0.5,0.8,0.5,1.2
				c0.1,0.9,0,1.9-0.1,2.9c-0.1,0.9-0.2,1.7-0.4,2.6c-0.2,1-0.4,1.9-0.7,2.9c0,0.1,0,0.1-0.1,0.2c-0.3,0.8-0.6,1.6-1.1,2.4
				c0,0.1-0.1,0.2-0.1,0.2c-0.1,0.2-0.2,0.4-0.4,0.4c0,0-0.1,0,0,0.1c0,0,0.1,0.1,0.3,0.1c0,0,5.8,2.5,9.9,2.5c0,0,1,0.1,3.3,0.3
				c0,0,2,0.5,5.1-1c0.2-0.1,0.4-0.2,0.6-0.3c0.2-0.1,0.4-0.2,0.6-0.3c0.2-0.1,0.3-0.2,0.5-0.3c0.2-0.1,0.3-0.3,0.5-0.4
				c1.2-1.1,1.7-2.9,1.9-4.6C123.6,133.4,123.7,132.4,123.5,131.5z"/>
			<path class="st10" d="M103.6,126.9c0-0.3-0.1-0.9-0.4-1.1l-0.1-0.1c-0.3-0.1-0.7,0-0.7,0c0.1,0.3,0.2,1,0.2,1s0.1,1.5-0.3,3.7
				c-0.3,2.3-0.8,5-1.8,6.3c-0.1,0.1-0.2,0.1-0.4,0.2c-0.1,0.1,0,0.2,0,0.3c0,0,0.2,0.6,1.1,0.9c0-0.1,0.1-0.2,0.1-0.3
				c0.5-0.8,0.9-1.7,1.2-2.7c0.1-0.2,0.1-0.5,0.2-0.7l0,0c0.2-0.7,0.3-1.4,0.5-2.1c0.2-0.8,0.3-1.7,0.4-2.6
				C103.6,128.8,103.7,127.8,103.6,126.9z"/>
		</g>
		<g>
			<path class="st4" d="M90.2,44.1c-0.3-1.1-1.1-2.1-2.1-2.4c0,0-0.1,0-0.1,0c0,0-0.1,0-0.1,0c0,0-0.1,0-0.1,0c0,0-0.1,0-0.1,0
				c0,0-0.1,0-0.1,0c-0.1,0-0.1,0-0.2,0c-0.7,0-1.4,0.2-1.9,0.7c-0.3,0.3-0.5,0.6-0.7,1c0-0.1-0.1-0.1-0.1-0.2l-2.3-14.3
				c0,0-1.6-7.1-13.8-7.1s-13.8,7.1-13.8,7.1L52.3,43c0,0,0,0,0,0c-0.1,0.1-0.2,0.1-0.2,0.2c-0.1-0.3-0.3-0.5-0.5-0.7
				c-0.3-0.4-0.8-0.7-1.3-0.8c0,0,0,0,0,0c-0.3-0.1-0.6-0.1-0.9-0.1c-0.1,0-0.2,0-0.3,0c0,0,0,0,0,0c-0.1,0-0.2,0-0.3,0.1
				c-1.1,0.3-2,1.3-2.3,2.5c-0.1,0.5-0.2,1-0.2,1.6c0,1.3,0.3,2.7,0.9,3.9c0.4,0.9,0.9,1.7,1.5,2.3c0.7,0.6,1.5,1,2.4,0.8
				c0.1,0,0.2-0.1,0.3-0.1c0,1.6-0.1,2.7-0.1,2.7c-0.2,7.1,4.8,11.6,4.8,11.6c1.4,1.1,2.9,2.1,4.3,3.2c1.7,1.3,4,3.7,6.1,4.1
				c0.6,0.1,1.3,0.2,1.9,0.2c0.6,0,1.3,0,1.9-0.2c2.1-0.4,4.3-2.8,6.1-4.1c1.4-1.1,2.9-2.1,4.3-3.2c0,0,5-4.5,4.8-11.6
				c0,0,0-1-0.1-2.6c0,0,0,0,0.1,0c0.8,0.2,1.7-0.2,2.4-0.8c0.7-0.6,1.1-1.4,1.5-2.3c0.5-1.2,0.9-2.5,0.9-3.9
				C90.4,45.2,90.4,44.6,90.2,44.1z"/>
			<path class="st3" d="M88.6,26.1c-0.2-1.3-0.5-2.6-1-3.8c-0.7-1.7-2.2-2.7-3.1-4.2c-0.7-1.2-1.3-2.5-2.2-3.6
				c-1.7-2-3.9-3.5-6.2-4.5c-2.9-1.2-6-1.9-9.1-1.9c0,0,0,0,0,0c-7.7,0-16,4.9-18.8,13.5c-1,3-0.7,6.4-0.5,9.5
				c0,0.8,1.1,10.5,1.1,10.5c0.1,0,0.1,0,0.2-0.1c0.1,0,0.2,0,0.3-0.1c0,0,0,0,0,0c0.1,0,0.2,0,0.3,0c0.3,0,0.6,0,0.9,0.1
				c0,0,0,0,0,0c0.5,0.2,0.9,0.4,1.3,0.8c0.2,0.2,0.3,0.4,0.5,0.7c0.1-0.1,0.2-0.1,0.2-0.2c0,0,0,0,0,0L54,32.8
				c0.9-0.5,1.9-0.8,2.8-1.3c1.1-0.6,2.1-1.3,3.1-2.2c2.1-1.8,3.9-3.9,5.7-5.9c0.1-0.1,0.2-0.2,0.3-0.2c0.2,0,0.3,0.4,0.3,0.6
				c0,2.3-0.7,4.6-1.9,6.5l0,0c0,0,0,0,0,0c0,0,0,0,0,0.1c0,0.1,0,0.1,0.1,0.1c1.2-0.1,2.3-0.8,3.2-1.5c1.8-1.3,3.4-2.8,5-4.3
				c0,0,0.5-0.6,0.5,0.4c0,0.5-0.1,0.9-0.3,1.4c-0.1,0.2-0.1,0.3-0.2,0.5c-0.1,0.2-0.1,0.3-0.2,0.5c-0.1,0.2-0.1,0.3-0.2,0.5
				c-0.1,0.1-0.1,0.3-0.2,0.4c-0.1,0.1-0.1,0.3-0.2,0.4c0,0.1-0.1,0.2-0.1,0.3c0,0.1-0.1,0.1-0.1,0.2c0,0,0,0.1-0.1,0.1c0,0,0,0,0,0
				c0.1,0,0.1,0,0.2,0c0.1,0,0.2,0,0.2,0c0.2,0,0.3-0.1,0.5-0.1c0.2-0.1,0.3-0.1,0.5-0.2c0.2-0.1,0.3-0.1,0.5-0.2
				c0.2-0.1,0.3-0.2,0.5-0.2c0.2-0.1,0.3-0.2,0.5-0.2c0.1,0,0.1-0.1,0.2-0.1c0.9-0.5,1.8-1,2.6-1.7c0.1-0.1,0.2-0.2,0.3-0.2
				c0.3-0.2,0.5-0.4,0.9-0.4c0.3,0,0.5,0.1,0.7,0.3c0.3,0.2,0.6,0.5,0.9,0.8c0,0,2.6,2.9,3,5.4L84.7,43c0,0.1,0.1,0.1,0.1,0.2
				c0.2-0.4,0.4-0.7,0.7-1c0.5-0.5,1.2-0.8,1.9-0.7c0.1,0,0.1,0,0.2,0c0,0,0.1,0,0.1,0c0,0,0.1,0,0.1,0c0,0,0.1,0,0.1,0
				c0,0,0.1,0,0.1,0c0,0,0.1,0,0.1,0c0,0,0,0,0,0C88.9,36.6,89.4,31.2,88.6,26.1z"/>
			<ellipse class="st3" cx="60.9" cy="45.2" rx="0.8" ry="1.5"/>
			<path class="st3" d="M55.6,39.6c-0.1,0-0.3,0-0.3-0.1c0-0.1,0-0.1,0-0.2c0.3-0.8,1.1-1.2,1.9-1.3c0.9-0.2,1.7-0.3,2.6-0.4
				c0.7,0,1.4,0,1.9,0.5c0.3,0.3,0.4,0.7,0.6,1.2c0,0.1,0.1,0.2,0,0.4c0,0.2-0.2,0.3-0.4,0.3c-0.4,0.1-0.8-0.2-1.2-0.2
				c-0.6-0.1-1.1-0.1-1.7-0.1C57.9,39.6,56.8,39.6,55.6,39.6z"/>
			<path class="st3" d="M81,39.8c0.1,0,0.3,0,0.3-0.1c0-0.1,0-0.1,0-0.2c-0.3-0.8-1.1-1.2-1.9-1.4c-0.9-0.2-1.7-0.4-2.6-0.4
				c-0.7,0-1.4,0-1.9,0.5c-0.3,0.3-0.4,0.7-0.6,1.2c0,0.1-0.1,0.2,0,0.4c0,0.2,0.2,0.3,0.4,0.3c0.4,0.1,0.8-0.2,1.2-0.2
				c0.6-0.1,1.1-0.1,1.7-0.1C78.7,39.7,79.8,39.7,81,39.8z"/>
			<ellipse class="st3" cx="76" cy="45.2" rx="0.8" ry="1.5"/>
			<path class="st12" d="M74.1,60.2c0.1,0,0.3,0,0.4,0c0.2,0.2,0.1,0.6-0.1,0.8c-0.3,0.5-0.8,0.8-1.3,1.1c-0.8,0.5-1.7,1-2.6,1.2
				c-0.6,0.1-1.3,0.1-1.9,0c-2-0.2-3.9-0.9-5.7-1.8c-0.6-0.3-0.8-1.1,0-1.2c0.8-0.1,1.8,0.2,2.6,0.3c1.8,0.1,3.7,0.1,5.5,0
				C71.9,60.5,73,60.4,74.1,60.2z"/>
			<path class="st14" d="M50.4,41.7C50.4,41.7,50.3,41.7,50.4,41.7C50.3,41.7,50.3,41.7,50.4,41.7c-0.3-0.1-0.6-0.1-0.9-0.1
				c-0.1,0-0.2,0-0.3,0c0,0,0,0,0,0c0,0,0,0,0,0c0,0-0.1,0-0.1,0c0,0-0.1,0-0.1,0c-1.1,0.3-2,1.3-2.3,2.5c-0.1,0.3-0.1,0.5-0.2,0.8
				c0,0.3,0,0.5,0,0.8c0,1.3,0.3,2.7,0.9,3.9c0.3,0.7,0.7,1.4,1.2,1.9c0,0,0,0,0,0c0.1,0.1,0.2,0.2,0.4,0.4c0.7,0.6,1.5,1,2.4,0.8
				c0.1,0,0.2,0,0.3-0.1c0,0,0,0,0,0l0,0l0,0c0,0.1,0,0.1,0,0.2c0,0.1,0,0.1,0,0.1c0,1.5-0.1,2.4-0.1,2.4c-0.1,3,0.8,5.6,1.8,7.5
				c1.4,2.6,3,4.1,3,4.1c1.4,1.1,2.9,2.1,4.3,3.2c0.1,0.1,0.2,0.2,0.3,0.2c0,0,0,0,0,0c0.1,0,0.1,0.1,0.2,0.1c0,0,0,0,0,0
				c0.8,0.6,1.6,1.3,2.4,2c1,0.8,2.1,1.5,3.1,1.7c0.6,0.1,1.3,0.2,1.9,0.2c0.6,0,1.3,0,1.9-0.2c1-0.2,2.1-0.9,3.1-1.6
				c0.8-0.6,1.6-1.3,2.3-1.9c0,0,0,0,0,0c0,0,0.1-0.1,0.1-0.1c0,0,0,0,0.1,0c0,0,0.1-0.1,0.1-0.1c0,0,0,0,0.1-0.1
				c0,0,0.1-0.1,0.1-0.1c0,0,0.1,0,0.1-0.1c0,0,0.1,0,0.1-0.1c1.4-1.1,2.9-2.1,4.3-3.2c0,0,5-4.5,4.8-11.6c0,0,0-0.3,0-0.8
				c0-0.5,0-1.1-0.1-1.8l0,0c0,0,0,0,0,0c0,0,0,0,0.1,0c0.8,0.2,1.7-0.2,2.4-0.8c0,0,0.1-0.1,0.1-0.1c0.6-0.6,1-1.4,1.4-2.2
				c0.3-0.6,0.5-1.3,0.6-1.9c0.1-0.6,0.2-1.3,0.2-1.9c0-0.5,0-1-0.2-1.4c0-0.1,0-0.1,0-0.2c-0.3-1.1-1.1-2-2.1-2.4c0,0,0,0,0,0
				c0,0,0,0,0,0c0,0,0,0-0.1,0c0,0,0,0,0,0c0,0-0.1,0-0.1,0c0,0-0.1,0-0.1,0c0,0,0,0,0,0c0,0-0.1,0-0.1,0c0,0-0.1,0-0.1,0
				c-0.1,0-0.1,0-0.2,0c-0.3,0-0.6,0-0.9,0.1c0,0-0.1,0-0.1,0c-0.3,0.1-0.6,0.3-0.9,0.6c0,0,0,0,0,0c0,0-0.1,0-0.1,0.1
				c0,0,0,0-0.1,0.1v0c0,0,0,0,0,0c0,0,0,0,0,0c-0.1,0.1-0.2,0.2-0.3,0.4c0,0,0,0,0,0c0,0,0,0,0,0.1c0,0,0,0,0,0.1c0,0,0,0,0,0.1
				c0,0,0,0,0,0.1c0,0,0,0,0,0c0,0,0,0.1-0.1,0.1c0,0,0,0,0,0l0,0c0-0.1-0.1-0.1-0.1-0.2l-1.7-10.7c-0.1-0.7-0.4-1.3-0.7-2l1.1,13.4
				c0.2,1.9,0.3,3.8,0.4,5.8c0.1,1.2,0.2,2.4,0.2,3.6c0,1.4-0.1,2.8-0.5,4.2c-0.6,2.3-2,5.2-3.8,6.6c-1.3,1-2.6,2-3.9,3
				c-1.6,1.2-3.6,3.4-5.5,3.8c-0.6,0.1-1.1,0.2-1.7,0.2c-0.6,0-1.1,0-1.7-0.2c-1.9-0.4-3.9-2.6-5.5-3.8c-1.3-1-2.6-2-3.9-3
				c-0.1-0.1-0.1-0.1-0.2-0.2c-2.2-2.2-3.7-5.4-4.1-8.6c-0.1-1.1-0.1-2.2-0.1-3.3l0,0l0,0c0-0.5,0.1-0.9,0.1-1.4l0.5-6.4l0.7-11.6
				c-0.2,0.1-0.3,0.2-0.5,0.2L52.3,43c0,0,0,0,0,0c0,0,0,0,0,0c0,0,0,0,0,0c-0.1,0.1-0.1,0.1-0.2,0.2l0,0h0c0-0.1-0.1-0.2-0.2-0.3
				c-0.1-0.1-0.1-0.2-0.2-0.3c0,0,0,0,0,0c0,0-0.1-0.1-0.1-0.1c0,0,0,0,0,0c0,0-0.1-0.1-0.1-0.1c0,0,0,0-0.1-0.1
				c-0.3-0.2-0.5-0.4-0.9-0.6C50.5,41.7,50.4,41.7,50.4,41.7z"/>
			<path class="st17" d="M50.4,50.5c-0.1,0-0.1,0-0.2,0c-0.5-0.1-0.9-0.4-1.3-1.1c-0.5-0.9-0.9-1.8-1-2.9c-0.1-1,0-1.8,0.3-2.4
				c0.4-0.8,1.3-1.2,1.9-0.9c0.1,0,0.1,0.1,0.1,0.2c0,0.1-0.1,0.2-0.2,0.1c-0.6-0.2-1.2,0.2-1.5,0.8c-0.3,0.5-0.4,1.2-0.3,2.1
				c0.1,1,0.4,1.9,0.9,2.7c0.3,0.6,0.7,0.9,1,0.9c0.4,0.1,0.9-0.3,1-0.7c0.1-0.5-0.1-1-0.5-1.2c-0.4-0.2-0.9,0-1.1,0.4
				c0,0.1-0.2,0.1-0.2,0.1c-0.1-0.1-0.1-0.2-0.1-0.3c0.3-0.6,1-0.8,1.5-0.6c0.5,0.3,0.9,1,0.7,1.6C51.4,50.1,50.9,50.5,50.4,50.5z"
				/>
			<path class="st17" d="M86.5,50.5c-0.5,0-1.1-0.4-1.2-1c-0.2-0.6,0.2-1.4,0.7-1.6c0.5-0.3,1.2,0,1.5,0.6c0,0.1,0,0.2-0.1,0.3
				c-0.1,0.1-0.2,0-0.2-0.1c-0.2-0.4-0.7-0.6-1.1-0.4c-0.4,0.2-0.6,0.7-0.5,1.2c0.1,0.5,0.6,0.8,1,0.7c0.4-0.1,0.7-0.4,1-0.9
				c0.5-0.8,0.8-1.7,0.9-2.7c0.1-0.9,0-1.6-0.3-2.1c-0.3-0.5-1-1-1.5-0.8c-0.1,0-0.2,0-0.2-0.1c0-0.1,0-0.2,0.1-0.2
				c0.7-0.3,1.5,0.1,1.9,0.9c0.3,0.6,0.4,1.4,0.3,2.4c-0.1,1-0.5,2-1,2.9c-0.4,0.6-0.8,1-1.3,1.1C86.6,50.5,86.6,50.5,86.5,50.5z"/>
			<g>
				<path class="st3" d="M83.6,39.9c0,0-4.6-1.6-13.2,0.3c0,0-0.9,0.3-1.9,0.3s-1.9-0.3-1.9-0.3c-8.6-1.8-13.2-0.3-13.2-0.3
					c-0.4,0.6-0.2,2.4-0.2,2.4c0.3,0.2,0.4,1.2,0.4,1.2c-0.2,4.1,1.2,6.2,1.2,6.2c2.3,3.6,8.5,1.5,8.5,1.5c3-0.8,4.3-7.6,4.3-7.6
					c0.1-0.7,0.7-0.8,0.7-0.8l0.3,0l0.3,0c0,0,0.6,0.1,0.7,0.8c0,0,1.3,6.7,4.3,7.6c0,0,6.2,2.1,8.5-1.6c0,0,1.4-2,1.2-6.2
					c0,0,0.1-0.9,0.4-1.2C83.9,42.2,84.1,40.4,83.6,39.9z M66.1,45.2c-0.2,1.3-0.6,2.7-1.4,3.7c-0.7,1-1.8,1.6-2.9,1.8
					c-1.1,0.2-2.2,0.3-3.3,0.2c-1.2-0.1-2.2-0.4-2.9-1.4c-0.6-0.9-0.9-2-1-3.1c0-0.2,0-0.3,0-0.5c0-0.8,0-1.5,0-2.3
					c0-0.7,0.1-1.4,0.5-2c0.3-0.5,0.8-1,1.3-1.1c1.3-0.3,2.6-0.3,3.9-0.3c1.1,0.1,2.3,0.2,3.4,0.4c0.5,0.1,1.1,0.2,1.6,0.4
					c0.3,0.1,0.6,0.3,0.7,0.7c0.2,0.4,0.3,0.9,0.3,1.3C66.3,43.7,66.2,44.5,66.1,45.2z M82.3,45.9c0,0.2,0,0.3,0,0.5
					c-0.1,1.1-0.4,2.2-1,3.1c-0.7,1.1-1.8,1.3-2.9,1.5c-1.1,0.1-2.2,0-3.3-0.2c-1.1-0.2-2.2-0.8-2.9-1.8c-0.7-1.1-1.2-2.4-1.4-3.7
					c-0.1-0.7-0.2-1.5-0.1-2.2c0-0.4,0.1-0.9,0.3-1.3c0.2-0.3,0.4-0.5,0.7-0.7c0.5-0.2,1.1-0.3,1.6-0.4c1.1-0.2,2.2-0.4,3.4-0.5
					c1.3-0.1,2.6,0,3.9,0.3c0.5,0.1,1,0.6,1.3,1.1c0.3,0.6,0.4,1.3,0.5,2C82.3,44.3,82.3,45.1,82.3,45.9z"/>
				<path class="st12" d="M65.3,41c-0.5-0.2-1.1-0.3-1.6-0.4c-1.1-0.2-2.2-0.4-3.4-0.4c-1.3-0.1-2.6,0-3.9,0.3
					c-0.5,0.1-1,0.6-1.3,1.1c-0.3,0.6-0.4,1.3-0.5,2c0,0.8-0.1,1.5,0,2.3c0,0.2,0,0.3,0,0.5c0.1,1.1,0.4,2.2,1,3.1
					c0.7,1.1,1.8,1.3,2.9,1.4c1.1,0.1,2.2,0,3.3-0.2c1.1-0.3,2.2-0.8,2.9-1.8c0.7-1.1,1.2-2.4,1.4-3.7c0.1-0.7,0.2-1.5,0.1-2.2
					c0-0.4-0.1-0.9-0.3-1.3C65.8,41.4,65.6,41.2,65.3,41z"/>
				<path class="st12" d="M71.7,41c0.5-0.2,1.1-0.3,1.6-0.4c1.1-0.2,2.2-0.4,3.4-0.5c1.3-0.1,2.6,0,3.9,0.3c0.5,0.1,1,0.6,1.3,1.1
					c0.3,0.6,0.4,1.3,0.5,2c0,0.8,0.1,1.5,0,2.3c0,0.2,0,0.3,0,0.5c-0.1,1.1-0.4,2.2-1,3.1c-0.7,1.1-1.8,1.3-2.9,1.5
					c-1.1,0.1-2.2,0-3.3-0.2c-1.1-0.2-2.2-0.8-2.9-1.8c-0.7-1.1-1.2-2.4-1.4-3.7c-0.1-0.7-0.2-1.5-0.1-2.2c0-0.4,0.1-0.9,0.3-1.3
					C71.1,41.4,71.4,41.2,71.7,41z"/>
				<path class="st3" d="M85.1,42.4l-1.2-0.9c0,0.4,0,0.7,0,0.7c-0.1,0.1-0.2,0.2-0.2,0.4l1.3,0.3c0,0,0.1,0,0.1,0l0.2-0.3
					C85.2,42.5,85.1,42.4,85.1,42.4z"/>
				<path class="st3" d="M53.1,42.3c0,0,0-0.3,0-0.8l-1.3,1c0,0,0,0,0,0.1l0.2,0.3c0,0,0,0,0.1,0l1.3-0.3
					C53.3,42.5,53.2,42.3,53.1,42.3z"/>
			</g>
		</g>
	</g>
	<g class="st2">
		<path class="st18" d="M87.8,142.4H87c0,0-0.1,0-0.1-0.1v0c0,0,0-0.1,0.1-0.1h0.8c0,0,0.1,0,0.1,0.1L87.8,142.4
			C87.9,142.4,87.8,142.4,87.8,142.4z"/>
	</g>
	<rect x="6.7" y="148.1" class="st19" width="121.2" height="0.5"/>
</g>
<g>
	<g>
		<path class="st20" d="M-277-84.8c0.6-0.9,1-2,0.9-3.2c0-1.2-0.4-2.3-1-3.2c0.9,0.5,1.6,1.7,1.7,3C-275.4-86.9-276.1-85.4-277-84.8
			z"/>
	</g>
</g>
<path class="st0" d="M154.8,67.8"/>
<path class="st0" d="M169.1,76.8"/>
<path class="st0" d="M130,30.9"/>
<g>
	<rect x="46.5" y="97.6" class="st12" width="43.3" height="49.9"/>
	<g>
		<path class="st21" d="M58.2,106.1h-0.4l-0.2-1h-1l-0.2,1h-0.4v0l0.9-4.6h0.4L58.2,106.1z M57.5,104.7l-0.4-2.5l-0.4,2.5H57.5z"/>
		<path class="st21" d="M60.8,105.8c0,0.1,0,0.2-0.1,0.2c-0.1,0.1-0.2,0.1-0.3,0.1h-1.3c-0.1,0-0.2,0-0.3-0.1
			c-0.1-0.1-0.1-0.1-0.1-0.2v-3.9c0-0.1,0-0.2,0.1-0.2c0.1-0.1,0.2-0.1,0.3-0.1h1.3c0.1,0,0.2,0,0.3,0.1c0.1,0.1,0.1,0.1,0.1,0.2
			v1.1h-0.5v-1h-1.1v3.8h1.1v-1.6h-0.5v-0.4h1V105.8z"/>
		<path class="st21" d="M63.8,106.1h-0.5l-0.9-2.4l0.1-0.1h0.8v-1.7h-1.2v4.2h-0.4v-4.6h1.7c0.1,0,0.2,0,0.3,0.1
			c0.1,0.1,0.1,0.1,0.1,0.2v1.7c0,0.2-0.2,0.3-0.5,0.3c0,0-0.1,0-0.1,0c-0.1,0-0.1,0-0.1,0C63.2,104.6,63.5,105.3,63.8,106.1z"/>
		<path class="st21" d="M66.1,106.1h-1.7v-4.6h1.6v0.4h-1.2v1.7H66v0.4h-1.1v1.8h1.2V106.1z"/>
		<path class="st21" d="M68.5,106.1h-1.7v-4.6h1.6v0.4h-1.2v1.7h1.1v0.4h-1.1v1.8h1.2V106.1z"/>
		<path class="st21" d="M71.7,106.1h-0.4v-2.9c0,0,0-0.2,0-0.4l-0.8,2.8h-0.1l-0.8-2.8c0,0.2,0,0.3,0,0.4v2.9h-0.4v-4.6h0.4l0.8,3
			c0,0,0,0.1,0,0.1c0,0,0-0.1,0-0.1l0.8-3h0.4V106.1z"/>
		<path class="st21" d="M74.2,106.1h-1.7v-4.6h1.6v0.4H73v1.7h1.1v0.4H73v1.8h1.2V106.1z"/>
		<path class="st21" d="M77,106.1h-0.3l-1.4-3.4v3.4h-0.4v-4.6h0.3l1.3,3.3v-3.3H77V106.1z"/>
		<path class="st21" d="M79.5,101.9h-0.8v4.2h-0.4v-4.2h-0.8v-0.4h2V101.9z"/>
	</g>
	<rect x="51.9" y="109" class="st22" width="15.8" height="2.1"/>
	<rect x="51.9" y="112.2" class="st22" width="33.1" height="0.7"/>
	<rect x="51.9" y="113.6" class="st22" width="33.1" height="0.7"/>
	<rect x="51.9" y="115" class="st22" width="33.1" height="0.7"/>
	<rect x="51.9" y="116.4" class="st22" width="13.8" height="0.7"/>
	<rect x="51.9" y="118.8" class="st22" width="15.8" height="2.1"/>
	<rect x="51.9" y="122" class="st22" width="33.1" height="0.7"/>
	<rect x="51.9" y="123.4" class="st22" width="33.1" height="0.7"/>
	<rect x="51.9" y="124.8" class="st22" width="33.1" height="0.7"/>
	<rect x="51.9" y="126.2" class="st22" width="24.4" height="0.7"/>
	<rect x="51.9" y="128.7" class="st22" width="15.8" height="2.1"/>
	<rect x="51.9" y="131.8" class="st22" width="33.1" height="0.7"/>
	<rect x="51.9" y="133.2" class="st22" width="33.1" height="0.7"/>
	<rect x="51.9" y="134.6" class="st22" width="33.1" height="0.7"/>
	<rect x="51.9" y="136" class="st22" width="6" height="0.7"/>
	<rect x="49.6" y="140.4" class="st22" width="11" height="1.4"/>
	<rect x="61.2" y="141.7" class="st22" width="11" height="0.1"/>
	<rect x="74" y="141.7" class="st22" width="11" height="0.1"/>
	<rect x="50.2" y="144.8" class="st22" width="30.5" height="0.5"/>
	<rect x="50.2" y="145.6" class="st22" width="15.8" height="0.5"/>
	<path class="st3" d="M66.8,140.3c-0.1-0.1-0.2-0.1-0.3-0.1c0,0,0,0,0,0c1.7-0.4,3.5-0.8,5.2-1.3c0,0,0,0,0,0v-0.2c0,0,0,0,0,0
		c-1.7,0.5-3.4,0.9-5.1,1.3c0,0,0,0,0,0c0.1-0.2,0.2-0.3,0.3-0.5c0-0.1,0-0.2-0.1-0.2c-1,0.3-1.9,0.8-2.7,1.4
		c-0.1-0.1-0.1-0.1-0.2-0.2c0.5-0.7,1-1.5,1.5-2.2c0.1-0.1-0.1-0.2-0.2-0.2c-0.5,0.3-1.1,0.5-1.7,0.4c-0.3,0-0.7-0.1-0.9,0.1
		c-0.2,0.1-0.4,0.4-0.3,0.6c0,0.1,0.3,0.1,0.2-0.1c-0.1-0.2,10.2-0.4,10.4-0.4c0.3-0.1-9.4,0-9.1,0c0.4,0,0.8-0.1,1.1-0.2
		c0,0,0,0,0,0c-0.4,0.6-0.9,1.3-1.3,1.9c0,0,0,0,0,0c-0.3-0.1-0.6-0.1-1-0.2c-0.4-0.1-0.9-0.2-1.3,0c-0.4,0.3-0.1,0.8,0.1,1.1
		c0.2,0.4,0.5,0.7,0.9,1c0.1,0,0.1,0,0.2,0c0.4-0.6,0.8-1.1,1.2-1.7c0,0,0,0,0,0c0.1,0,0.2,0,0.3,0.1c0.1,0,0.1,0,0.2,0
		c0.1,0,0.1,0,0.2-0.1c0.2-0.2,0.4-0.3,0.6-0.4c0.5-0.3,1-0.5,1.5-0.7c0,0,0,0,0,0c-0.1,0.1-0.1,0.2-0.2,0.4c0,0,0,0,0,0
		c-0.1,0-0.2,0-0.3,0.1c-0.1,0-0.1,0.2,0,0.2c0,0,0,0,0,0c0,0.3,0,0.2,0,0.6l-1.1,0.1c0,0,0,0,0,0c0,0-0.1,0-0.1,0
		c-0.1,0-0.1,0.1-0.1,0.1c0,0.1,0.1,0.1,0.1,0.1c0,0,0,0,0.1,0c0,0,0,0,0,0c0.1,0,0.1,0.2,0.1,0.2c0,0.1,0,0.2,0,0.2
		c0,0.1,0,0.2,0,0.3c-0.1,0.4-0.2,0.8-0.4,1.1c-0.1,0.1,0.1,0.2,0.2,0.1c0.4-0.7,0.8-1.4,1.2-2.1c0,0,0,0,0,0c0.2,0,0.3,0,0.5-0.1
		c0.1,0,0.2,0,0.3,0c0.1,0,0.2,0,0.2,0c0.1-0.1,0.2-0.2,0.2-0.3C67,140.5,66.9,140.4,66.8,140.3z M62.4,142.2
		C62.3,142.2,62.3,142.2,62.4,142.2c-0.3-0.3-0.6-0.6-0.8-1c-0.1-0.2-0.2-0.4-0.2-0.6c0.1-0.2,0.3-0.2,0.5-0.2
		c0.3,0,0.5,0.1,0.8,0.1c0.2,0,0.5,0.1,0.7,0.1c0,0,0,0,0,0C63,141.2,62.7,141.7,62.4,142.2z M65.2,141.2
		C65.2,141.2,65.2,141.2,65.2,141.2c0.1-0.1,0.3-0.1,0.4-0.1c0,0,0,0,0,0c-0.1,0.2-0.3,0.5-0.4,0.7c0,0,0,0,0,0
		C65.2,141.6,65.3,141.4,65.2,141.2z M66.8,140.7c-0.1,0-0.1,0-0.2,0c-0.2,0-0.4,0-0.5,0.1c0,0,0,0,0,0l0.3-0.5c0,0,0,0,0,0
		c0.1,0,0.2,0.1,0.2,0.1C66.7,140.5,66.8,140.6,66.8,140.7C66.8,140.7,66.8,140.7,66.8,140.7z"/>
</g>
<g>
	<g>
		<g>
			<g>
				<defs>
					<rect id="SVGID_3_" x="74" y="135.6" width="9.4" height="9.8"/>
				</defs>
				<clipPath id="SVGID_4_">
					<use xlink:href="#SVGID_3_"  style="overflow:visible;"/>
				</clipPath>
				<g class="st23">
					<g>
						<g>
							<defs>
								<rect id="SVGID_5_" x="74" y="135.6" width="9.4" height="9.8"/>
							</defs>
							<clipPath id="SVGID_6_">
								<use xlink:href="#SVGID_5_"  style="overflow:visible;"/>
							</clipPath>
							<path class="st24" d="M74.2,140.5c0-0.6,0-1.3,0-1.9c0-0.4,0.2-0.6,0.5-0.8c1.2-0.7,2.4-1.3,3.6-1.9c0.2-0.1,0.6-0.1,0.8,0
								c1.2,0.6,2.4,1.3,3.6,1.9c0.3,0.2,0.5,0.5,0.5,0.8c0,1.3,0,2.6,0,3.9c0,0.4-0.2,0.7-0.5,0.8c-1.1,0.6-2.3,1.3-3.5,1.9
								c-0.3,0.2-0.7,0.2-1,0c-1.1-0.6-2.3-1.3-3.5-1.9c-0.4-0.2-0.5-0.5-0.5-0.9C74.2,141.8,74.2,141.1,74.2,140.5"/>
						</g>
					</g>
					<g>
						<g>
							<defs>
								<rect id="SVGID_7_" x="74" y="135.6" width="9.4" height="9.8"/>
							</defs>
							<clipPath id="SVGID_8_">
								<use xlink:href="#SVGID_7_"  style="overflow:visible;"/>
							</clipPath>
							<path class="st25" d="M74.8,140.5c0-0.6,0-1.1,0-1.7c0-0.3,0.2-0.6,0.4-0.7c1-0.6,2.1-1.1,3.1-1.7c0.2-0.1,0.5-0.1,0.7,0
								c1.1,0.6,2.1,1.1,3.1,1.7c0.3,0.2,0.4,0.4,0.4,0.7c0,1.1,0,2.3,0,3.4c0,0.4-0.2,0.6-0.5,0.8c-1,0.6-2,1.1-3,1.7
								c-0.3,0.2-0.6,0.2-0.9,0c-1-0.6-2-1.1-3-1.7c-0.3-0.2-0.5-0.4-0.4-0.8C74.8,141.6,74.8,141,74.8,140.5 M75.2,140.5
								c0,0.5,0,1,0,1.5c0,0.3,0.1,0.4,0.3,0.6c0.9,0.5,1.8,1,2.8,1.5c0.2,0.1,0.5,0.1,0.6,0c0.9-0.5,1.9-1,2.8-1.5
								c0.2-0.1,0.3-0.3,0.3-0.6c0-1,0-2.1,0-3c0-0.3-0.2-0.5-0.4-0.6c-0.9-0.5-1.8-1-2.7-1.5c-0.2-0.1-0.4-0.2-0.7,0
								c-0.9,0.5-1.8,1-2.8,1.5c-0.1,0.1-0.2,0.3-0.2,0.5C75.3,139.4,75.2,140,75.2,140.5"/>
						</g>
					</g>
					<g>
						<g>
							<defs>
								<rect id="SVGID_9_" x="74" y="135.6" width="9.4" height="9.8"/>
							</defs>
							<clipPath id="SVGID_10_">
								<use xlink:href="#SVGID_9_"  style="overflow:visible;"/>
							</clipPath>
							<polygon class="st26" points="76.7,139.4 76.7,140.6 78.7,138.9 80.7,140.6 80.7,139.4 78.7,137.7 							"/>
						</g>
					</g>
					<g>
						<g>
							<defs>
								<rect id="SVGID_11_" x="74" y="135.6" width="9.4" height="9.8"/>
							</defs>
							<clipPath id="SVGID_12_">
								<use xlink:href="#SVGID_11_"  style="overflow:visible;"/>
							</clipPath>
							<rect x="78.2" y="138.6" class="st27" width="1" height="4.5"/>
						</g>
					</g>
				</g>
			</g>
		</g>
	</g>
</g>
</svg>
