<?xml version="1.0" encoding="utf-8"?>
<!-- Generator: Adobe Illustrator 25.0.0, SVG Export Plug-In . SVG Version: 6.00 Build 0)  -->
<svg version="1.1" id="Layer_1" xmlns="http://www.w3.org/2000/svg" xmlns:xlink="http://www.w3.org/1999/xlink" x="0px" y="0px"
	 viewBox="0 0 1500 1500" style="enable-background:new 0 0 1500 1500;" xml:space="preserve">
<style type="text/css">
	.st0{fill:#D84440;}
	.st1{fill:#FFFFFF;}
	.st2{font-family:'DINAlternate-Bold';}
	.st3{font-size:384.1584px;}
	.st4{font-size:381.8451px;}
	.st5{fill:none;stroke:#FFFFFF;stroke-width:100;stroke-miterlimit:10;}
</style>
<path class="st0" d="M1294.3,752.7c0-86-1.1-172.1,0.5-258.1c0.8-42.8-15.8-72.2-52.7-93.2c-150.7-85.8-299.7-174.5-452.4-256.5
	c-26.8-14.4-74.7-14.3-101.5,0.2c-152.6,82-301.5,170.9-452.4,256.3c-37.1,21-55.7,51.4-55.9,92.5c-0.7,172.1-0.7,344.2-0.3,516.3
	c0.1,45.2,21.2,76.1,62.1,98.9c148.4,82.9,295.5,168.3,442.8,253.2c36.2,20.9,71.7,21.9,108,1c148.9-85.6,297.4-171.8,447-256.1
	c37.3-21,55.7-48.5,55.2-91.4C1293.5,928.1,1294.3,840.4,1294.3,752.7z"/>
<g>
	<g>
		<path class="st1" d="M799,1358.7c-41.7,23.9-82.1,23.5-123.4,0c-144-82.1-288-164.2-432.3-245.8c-44.7-25.3-66.3-60.8-64.8-113.6
			c2.4-83.7,0.6-167.5,0.6-251.2c0-82.2,1.3-164.4-0.5-246.6c-1-48.9,19.1-82.8,60.6-106.5c148-84.3,294.7-171.2,445.1-251.2
			c27.9-14.8,77.3-14.8,105.2,0c153.7,81.6,300.2,168.7,445.3,250.9c41.9,23.7,62.3,58.9,62.3,106.4c0.1,167.5,0.1,335-0.2,502.4
			c-0.1,49.3-22.2,84.6-65.9,109.2"/>
	</g>
	<g>
		<polygon class="st0" points="478.1,613.6 478.1,770.5 741.8,557.3 1005.4,770.5 1005.4,613.6 741.8,400.5 		"/>
		
			<rect x="462.7" y="804.9" transform="matrix(6.123234e-17 -1 1 6.123234e-17 -95.6511 1579.1771)" class="st0" width="558.1" height="65"/>
	</g>
</g>
<text transform="matrix(1 0 0 1 834.6309 1087.7598)" class="st0 st2 st3">S</text>
<g>
	<text transform="matrix(1 0 0 1 412.8613 1083.9482)" class="st0 st2 st4">U</text>
</g>
<g>
	<path d="M1349.5,1328.5"/>
	<path class="st5" d="M1349.5,1328.5"/>
</g>
<g>
	<g>
		<path class="st0" d="M159.6,747.8c0-85.1,1.3-170.2-0.5-255.2c-1.1-50.6,19.8-85.7,62.6-110.2c153-87.3,304.6-177.2,460-259.9
			c28.9-15.4,79.9-15.4,108.8,0c155.5,82.7,307,172.7,460.2,259.7c43.3,24.6,64.4,61,64.4,110.1c0.1,173.3,0.1,346.6-0.2,520
			c-0.1,51-22.9,87.6-68.1,113c-149.3,84-298,169.2-446.6,254.5c-43.1,24.7-84.9,24.3-127.5,0c-148.9-84.9-297.7-169.9-446.8-254.3
			c-46.2-26.2-68.5-63-66.9-117.6C161.4,921.2,159.6,834.5,159.6,747.8z M197.9,753.2c0,83.4,1.1,166.9-0.5,250.3
			c-0.8,41.5,15.4,70,51.1,90.3c146.1,83.2,290.6,169.2,438.6,248.7c26,14,72.4,13.8,98.4-0.2c148-79.5,292.3-165.7,438.6-248.5
			c36-20.4,54-49.8,54.2-89.7c0.6-166.8,0.7-333.7,0.3-500.6c-0.1-43.8-20.6-73.8-60.2-95.9C1074.6,327.4,932,244.6,789.2,162.3
			c-35.1-20.3-69.6-21.2-104.7-1c-144.3,83-288.3,166.5-433.4,248.3c-36.2,20.4-54,47-53.5,88.6
			C198.6,583.2,197.9,668.2,197.9,753.2z"/>
	</g>
	<g>
		<g>
			<path class="st0" d="M185.3,742.6c0-85.6,1.3-171.3-0.5-256.9c-1.1-50.9,19.3-86.3,61.1-110.9C395.2,287,543,196.5,694.6,113.2
				c28.1-15.5,77.9-15.5,106.1,0c151.6,83.3,299.4,173.9,448.9,261.4c42.2,24.7,62.8,61.4,62.8,110.8c0.1,174.5,0.1,349-0.2,523.5
				c-0.1,51.3-22.4,88.2-66.4,113.7c-145.7,84.6-290.7,170.3-435.6,256.2c-42,24.9-82.8,24.5-124.4,0
				c-145.2-85.5-290.3-171.1-435.8-256.1c-45.1-26.3-66.8-63.4-65.3-118.4C187.1,917.2,185.3,829.9,185.3,742.6z M254.1,747.9
				c0,79,1,158-0.4,237c-0.7,39.3,14.1,66.3,46.9,85.5c134,78.7,266.6,160.2,402.3,235.5c23.8,13.2,66.4,13.1,90.3-0.2
				c135.7-75.3,268.2-156.9,402.3-235.2c33-19.3,49.6-47.2,49.7-84.9c0.6-158,0.6-315.9,0.3-473.9c-0.1-41.5-18.9-69.8-55.2-90.8
				c-132-76.1-262.8-154.5-393.8-232.4c-32.2-19.2-63.8-20.1-96.1-0.9C567.9,266,435.9,345.1,302.8,422.5
				c-33.2,19.3-49.5,44.5-49.1,83.9C254.7,586.9,254.1,667.4,254.1,747.9z"/>
		</g>
	</g>
</g>
</svg>
