<?xml version="1.0" encoding="utf-8"?>
<!-- Generator: Adobe Illustrator 25.0.0, SVG Export Plug-In . SVG Version: 6.00 Build 0)  -->
<svg version="1.1" id="Layer_1" xmlns="http://www.w3.org/2000/svg" xmlns:xlink="http://www.w3.org/1999/xlink" x="0px" y="0px"
	 viewBox="0 0 1500 1500" style="enable-background:new 0 0 1500 1500;" xml:space="preserve">
<style type="text/css">
	.st0{fill:none;stroke:#FFFFFF;stroke-width:100;stroke-miterlimit:10;}
	.st1{fill-rule:evenodd;clip-rule:evenodd;fill:#D84440;}
</style>
<g>
	<path d="M1349.5,1328.5"/>
	<path class="st0" d="M1349.5,1328.5"/>
</g>
<path class="st1" d="M57.1,749.8c0-369.5,305.7-669.1,682.7-669.1c377.1,0,682.7,299.6,682.7,669.1c0,369.6-305.7,669.1-682.7,669.1
	C362.8,1419,57.1,1119.4,57.1,749.8z M773.2,585.8c33.1,6.5,63.5,22.4,87.4,45.8c22.2,21.8,58.2,21.8,80.5,0
	c22.2-21.8,22.2-57.1,0-78.9c-39.8-39-90.5-65.5-145.7-76.3c-55.2-10.8-112.4-5.2-164.4,15.9c-52,21.1-96.4,56.8-127.7,102.7
	c-31.3,45.8-47.9,99.8-47.9,154.9c0,55.1,16.7,109,47.9,154.9c31.3,45.8,75.7,81.6,127.7,102.7c52,21.1,109.2,26.6,164.4,15.9
	C850.6,1012.5,901.2,986,941,947c22.2-21.8,22.2-57.1,0-78.9c-22.2-21.8-58.2-21.8-80.5,0c-23.9,23.4-54.3,39.3-87.4,45.8
	c-33.1,6.5-67.4,3.1-98.6-9.5c-31.2-12.7-57.8-34.1-76.6-61.6c-18.8-27.5-28.8-59.8-28.8-92.9c0-33.1,10-65.4,28.8-92.9
	c18.8-27.5,45.4-49,76.6-61.6C705.7,582.6,740.1,579.3,773.2,585.8z"/>
</svg>
