<?xml version="1.0" encoding="utf-8"?>
<!-- Generator: Adobe Illustrator 25.0.0, SVG Export Plug-In . SVG Version: 6.00 Build 0)  -->
<svg version="1.1" id="Layer_1" xmlns="http://www.w3.org/2000/svg" xmlns:xlink="http://www.w3.org/1999/xlink" x="0px" y="0px"
	 viewBox="0 0 130 160" style="enable-background:new 0 0 130 160;" xml:space="preserve">
<style type="text/css">
	.st0{opacity:0.3;}
	.st1{fill:#D74340;}
	.st2{fill:#F5F5F5;}
	.st3{fill:#2DB78E;}
	.st4{fill:none;}
	.st5{fill:#FFFFFF;}
	.st6{fill:#DCDCDC;}
	.st7{fill:#126FB7;}
	.st8{fill:#C8C8C8;}
	.st9{fill:#FFC800;}
	.st10{fill:#37474F;}
	.st11{fill:#A8A8A8;}
	.st12{fill:#ECECEC;}
	.st13{clip-path:url(#SVGID_2_);}
	.st14{clip-path:url(#SVGID_4_);fill:#FFFFFF;}
	.st15{clip-path:url(#SVGID_6_);fill:#D84440;}
	.st16{clip-path:url(#SVGID_8_);fill:#D84440;}
	.st17{clip-path:url(#SVGID_10_);fill:#D84440;}
	.st18{fill:#476ACF;}
	.st19{fill:#587FDD;}
	.st20{fill:#3F5EC1;}
	.st21{fill:#3F68EA;}
	.st22{opacity:0.2;fill:#000402;enable-background:new    ;}
	.st23{fill:#1745BA;}
	.st24{fill:#FFC700;}
	.st25{fill:#F9AD9B;}
	.st26{opacity:0.2;}
	.st27{fill:#E0E0E0;}
	.st28{fill:#733D3C;}
	.st29{fill:#FEBDA9;}
	.st30{fill:#263238;}
	.st31{fill:#F5A397;}
	.st32{fill:#F0F0F0;}
</style>
<g class="st0">
	<path class="st1" d="M94.4,34.5l-17.9,70.1c0,0-13.3-12.2-18.6,4.5s15.1,33.9,22.7,5l13.2-51.7l19,19.4L99,135.7
		c0,0-10.3-10.1-15.1,4.1c-4.8,14.2,14.2,25.7,21,2.4l19.7-77.1L94.4,34.5z"/>
</g>
<path class="st2" d="M105.9,150c22.6,0.3,22.9,2.8,0.6,5.7c-22.3,2.9-58.6,4.9-81.2,4.7c-22.6-0.3-22.9-2.8-0.6-5.7
	C46.9,151.7,83.3,149.7,105.9,150z"/>
<g>
	<g>
		<g>
			<path class="st3" d="M111.8,1.8H64.6c-2.6,0-4.8,2.3-4.8,5.1v102.4c0,2.8,2.1,5.1,4.8,5.1h47.3c2.6,0,4.8-2.3,4.8-5.1V6.9
				C116.6,4.1,114.5,1.8,111.8,1.8z M113.6,106.1c0,2.7-1.9,4.9-4.3,4.9H67.1c-2.4,0-4.3-2.2-4.3-4.9V10.8c0-5.5,1.9-5.8,4.3-5.8
				h8.5c0.5,0,0.9,0.6,0.9,1.3v0.3c0,1.7,0.9,1.7,2,1.7H98c1.1,0,2,0,2-1.7V6.3c0-0.7,0.4-1.3,0.9-1.3h8.5c2.4,0,4.3,0.7,4.3,5.8
				V106.1z"/>
			<line class="st4" x1="62.8" y1="100" x2="62.6" y2="100"/>
			<g>
				<path class="st5" d="M113.6,10.8v95.3c0,2.7-1.9,4.9-4.3,4.9H67.1c-2.4,0-4.3-2.2-4.3-4.9V10.8c0-5.5,1.9-5.8,4.3-5.8h8.5
					c0.5,0,0.9,0.6,0.9,1.3v0.3c0,1.7,0.9,1.7,2,1.7H98c1.1,0,2,0,2-1.7V6.3c0-0.7,0.4-1.3,0.9-1.3h8.5
					C111.7,5,113.6,5.7,113.6,10.8z"/>
				<g>
					<g>
						<g id="u5Zjqx_2_">
							<g>
								<path class="st6" d="M74.1,7.1C74,7.2,74,7.2,74.1,7.1C74,7.2,74,7.3,73.9,7.3c-0.2-0.2-0.5-0.3-0.8-0.3
									c-0.3,0-0.6,0.1-0.8,0.3c0,0,0,0,0,0c0,0-0.1-0.1-0.1-0.1c0,0,0,0,0,0c0,0,0,0,0,0c0,0,0,0,0,0c0,0,0.1-0.1,0.1-0.1
									c0.1-0.1,0.2-0.1,0.2-0.2c0.1-0.1,0.2-0.1,0.3-0.1c0.1,0,0.1,0,0.2,0c0,0,0.1,0,0.1,0c0,0,0.1,0,0.1,0c0.1,0,0.2,0,0.3,0.1
									c0.1,0,0.1,0.1,0.2,0.1C73.9,7,73.9,7,74.1,7.1C74,7.1,74,7.1,74.1,7.1C74.1,7.1,74.1,7.1,74.1,7.1z"/>
								<path class="st6" d="M72.6,7.6c0,0-0.1-0.1-0.1-0.1c0.1-0.2,0.3-0.2,0.5-0.3c0.3,0,0.6,0.1,0.8,0.3c0,0-0.1,0.1-0.1,0.1
									c-0.1-0.1-0.3-0.2-0.5-0.2C72.9,7.3,72.8,7.4,72.6,7.6z"/>
								<path class="st6" d="M73.6,7.7c0,0-0.1,0.1-0.1,0.1c-0.1-0.1-0.2-0.1-0.3-0.1c-0.1,0-0.2,0-0.3,0.1c0,0-0.1-0.1-0.1-0.1
									C73,7.5,73.3,7.4,73.6,7.7z"/>
							</g>
							<path class="st6" d="M73.3,7.9c0,0.1-0.1,0.1-0.1,0.1C73.1,8.1,73,8,73,7.9c0-0.1,0.1-0.1,0.1-0.1
								C73.2,7.8,73.3,7.9,73.3,7.9z"/>
						</g>
						<g>
							<path class="st6" d="M66.1,7.4c0-0.2,0.2-0.4,0.3-0.4s0.3,0.2,0.3,0.4c0,0.2-0.2,0.4-0.3,0.4S66.1,7.6,66.1,7.4z"/>
							<path class="st6" d="M67.1,7.4c0-0.2,0.2-0.4,0.3-0.4c0.2,0,0.3,0.2,0.3,0.4c0,0.2-0.2,0.4-0.3,0.4
								C67.3,7.8,67.1,7.6,67.1,7.4z"/>
							<path class="st6" d="M68.2,7.4c0-0.2,0.2-0.4,0.3-0.4s0.3,0.2,0.3,0.4c0,0.2-0.2,0.4-0.3,0.4S68.2,7.6,68.2,7.4z"/>
							<path class="st6" d="M69.3,7.4c0-0.2,0.2-0.4,0.3-0.4c0.2,0,0.3,0.2,0.3,0.4c0,0.2-0.2,0.4-0.3,0.4
								C69.4,7.8,69.3,7.6,69.3,7.4z"/>
							<path class="st6" d="M70.3,7.4c0-0.2,0.2-0.4,0.3-0.4c0.2,0,0.3,0.2,0.3,0.4c0,0.2-0.2,0.4-0.3,0.4
								C70.5,7.8,70.3,7.6,70.3,7.4z"/>
						</g>
						<g>
							<path class="st6" d="M109.8,8.2h-2.7V6.8h2.7V8.2z M107.2,8h2.5V7h-2.5V8z"/>
							<rect x="107.3" y="7.1" class="st6" width="1.8" height="0.9"/>
							<rect x="109.8" y="7.2" class="st6" width="0.2" height="0.7"/>
						</g>
					</g>
				</g>
				<path class="st5" d="M90.9,6.2h-5.3c-0.2,0-0.3-0.2-0.3-0.3l0,0c0-0.2,0.1-0.3,0.3-0.3h5.3c0.2,0,0.3,0.2,0.3,0.3l0,0
					C91.2,6.1,91.1,6.2,90.9,6.2z"/>
				<g>
					<g>
						<rect x="70.2" y="61.2" class="st7" width="36.5" height="0.2"/>
						<path class="st8" d="M76.6,61.3c0,0.3-0.2,0.6-0.5,0.6c-0.3,0-0.5-0.2-0.5-0.6c0-0.3,0.2-0.6,0.5-0.6
							C76.4,60.8,76.6,61,76.6,61.3z"/>
						<g>
							<path class="st8" d="M70.2,62.5c0-0.1,0-0.2,0.1-0.3c0-0.1,0.1-0.1,0.2-0.1c0.1,0,0.2,0.1,0.2,0.1c0,0.1,0.1,0.2,0.1,0.3
								c0,0.1,0,0.2-0.1,0.3c0,0.1-0.1,0.1-0.2,0.1c-0.1,0-0.2-0.1-0.2-0.1C70.3,62.6,70.2,62.6,70.2,62.5z M70.7,62.5
								c0-0.1,0-0.2-0.1-0.2c0,0-0.1-0.1-0.1-0.1c0,0-0.1,0-0.1,0.1c0,0-0.1,0.1-0.1,0.2c0,0.1,0,0.2,0.1,0.2c0,0,0.1,0.1,0.1,0.1
								c0,0,0.1,0,0.1-0.1C70.6,62.6,70.7,62.5,70.7,62.5z"/>
							<path class="st8" d="M71.1,62.2C71.2,62.2,71.2,62.3,71.1,62.2c0.1,0.1,0,0.2,0,0.2C71.1,62.4,71,62.4,71.1,62.2
								C71,62.3,71.1,62.2,71.1,62.2z M71.1,62.7C71.2,62.7,71.2,62.7,71.1,62.7c0.1,0.1,0,0.2,0,0.2C71.1,62.9,71,62.8,71.1,62.7
								C71,62.7,71.1,62.7,71.1,62.7z"/>
							<path class="st8" d="M71.8,62.6C71.8,62.7,71.8,62.7,71.8,62.6L71.8,62.6l-0.1,0.1c0,0,0,0.1-0.1,0.1c0,0-0.1,0-0.1-0.1v-0.1
								h-0.3h0h0c0,0,0,0,0,0c0,0,0-0.1,0-0.1l0.4-0.5c0,0,0,0,0,0c0,0,0,0,0,0c0,0,0,0,0,0c0,0,0,0,0,0c0,0,0,0,0,0c0,0,0,0,0,0
								c0,0,0,0,0,0c0,0,0,0,0,0c0,0,0,0,0,0c0,0,0,0,0,0c0,0,0,0,0,0c0,0,0,0,0,0c0,0,0,0,0,0c0,0,0,0,0,0c0,0,0,0,0,0c0,0,0,0,0,0
								c0,0,0,0,0,0c0,0,0,0,0,0c0,0,0,0,0,0c0,0,0,0,0,0c0,0,0,0,0,0c0,0,0,0,0,0c0,0,0,0,0,0c0,0,0,0,0,0c0,0,0,0,0,0c0,0,0,0,0,0
								c0,0,0,0,0,0c0,0,0,0,0,0L71.8,62.6L71.8,62.6C71.8,62.6,71.8,62.6,71.8,62.6z M71.6,62.3l-0.2,0.3h0.2V62.3z"/>
							<path class="st8" d="M72.5,62.6c0,0.1-0.1,0.3-0.3,0.3c-0.1,0-0.3-0.1-0.3-0.3c0-0.1,0-0.2,0.1-0.2c0,0,0-0.1,0-0.1
								c0-0.1,0.1-0.2,0.2-0.2c0.1,0,0.2,0.1,0.2,0.2c0,0,0,0.1,0,0.1C72.4,62.4,72.5,62.5,72.5,62.6z M72.4,62.6
								c0-0.1-0.1-0.1-0.1-0.1c-0.1,0-0.1,0.1-0.1,0.1c0,0.1,0.1,0.1,0.1,0.1C72.3,62.7,72.4,62.7,72.4,62.6z M72.2,62.2
								C72.2,62.3,72.2,62.3,72.2,62.2c0.1,0.1,0.1,0,0.1,0C72.3,62.2,72.3,62.2,72.2,62.2C72.2,62.2,72.2,62.2,72.2,62.2z"/>
						</g>
						<g>
							<path class="st8" d="M104.2,62.5C104.2,62.5,104.2,62.4,104.2,62.5l0.3-0.1c0,0,0.1,0,0.1,0.1c0,0,0,0.1-0.1,0.1L104.2,62.5
								C104.2,62.6,104.2,62.5,104.2,62.5z"/>
							<path class="st8" d="M105,62.4c0.1,0.1,0.1,0.1,0.1,0.2c0,0.1,0,0.1-0.1,0.2c-0.1,0.1-0.1,0.1-0.2,0.1c-0.1,0-0.1,0-0.2-0.1
								c0,0,0-0.1,0-0.1c0,0,0.1,0,0.1,0c0,0,0.1,0,0.1,0c0,0,0.1,0,0.1,0c0,0,0-0.1,0-0.1S104.9,62.5,105,62.4
								c-0.1,0.1-0.2,0-0.2,0c0,0,0,0,0,0c0,0,0,0,0,0c0,0,0-0.1,0-0.1l0.1-0.1h-0.2c0,0-0.1,0-0.1-0.1c0,0,0-0.1,0.1-0.1h0.3
								c0,0,0.1,0,0.1,0.1c0,0,0,0,0,0c0,0,0,0,0,0L105,62.4C105,62.3,105,62.3,105,62.4z"/>
							<path class="st8" d="M105.4,62.2C105.4,62.2,105.4,62.3,105.4,62.2c0.1,0.1,0,0.2,0,0.2C105.3,62.4,105.3,62.4,105.4,62.2
								C105.3,62.3,105.3,62.2,105.4,62.2z M105.4,62.7C105.4,62.7,105.4,62.7,105.4,62.7c0.1,0.1,0,0.2,0,0.2
								C105.3,62.9,105.3,62.8,105.4,62.7C105.3,62.7,105.3,62.7,105.4,62.7z"/>
							<path class="st8" d="M106,62.8C106,62.8,106,62.8,106,62.8l-0.4,0.1c0,0,0,0,0,0h0c0,0,0,0,0,0c0,0,0-0.1,0-0.1l0.3-0.3
								c0,0,0-0.1,0-0.1c0,0,0-0.1,0-0.1c0,0-0.1,0-0.1,0c0,0-0.1,0-0.1,0l0,0c0,0-0.1,0-0.1,0c0,0,0-0.1,0-0.1l0,0
								c0,0,0.1-0.1,0.2-0.1c0.1,0,0.1,0,0.2,0.1c0,0.1,0.1,0.1,0.1,0.2c0,0.1,0,0.1-0.1,0.2l-0.2,0.2L106,62.8
								C106,62.7,106,62.8,106,62.8z"/>
							<path class="st8" d="M106.6,62.8C106.6,62.8,106.6,62.8,106.6,62.8l-0.4,0.1c0,0,0,0,0,0h0c0,0,0,0,0,0c0,0,0-0.1,0-0.1
								l0.3-0.3c0,0,0-0.1,0-0.1c0,0,0-0.1,0-0.1c0,0-0.1,0-0.1,0c0,0-0.1,0-0.1,0l0,0c0,0-0.1,0-0.1,0c0,0,0-0.1,0-0.1l0,0
								c0,0,0.1-0.1,0.2-0.1c0.1,0,0.1,0,0.2,0.1c0,0.1,0.1,0.1,0.1,0.2c0,0.1,0,0.1-0.1,0.2l-0.2,0.2L106.6,62.8
								C106.6,62.7,106.6,62.8,106.6,62.8z"/>
						</g>
					</g>
					<g>
						<g>
							<rect x="74.7" y="16.9" class="st9" width="27.5" height="29"/>
							<rect x="74.7" y="16.9" class="st1" width="27.5" height="29"/>
						</g>
						<g>
							<rect x="82.9" y="47.7" class="st10" width="11.1" height="0.7"/>
							<rect x="85.9" y="49.2" class="st11" width="5" height="0.6"/>
						</g>
					</g>
					<g>
						<g>
							<polygon class="st1" points="100.7,57.1 100.7,54.5 103.2,55.8 							"/>
							<polygon class="st1" points="98.7,57.1 98.7,54.5 101.2,55.8 							"/>
						</g>
						<g>
							<polygon class="st1" points="76.2,54.5 76.2,57.1 73.7,55.8 							"/>
							<polygon class="st1" points="78.2,54.5 78.2,57.1 75.7,55.8 							"/>
						</g>
						<g>
							<rect x="86.6" y="53.5" class="st1" width="1.1" height="4.5"/>
							<rect x="88.7" y="53.5" class="st1" width="1.1" height="4.5"/>
						</g>
					</g>
					<g>
						<path class="st11" d="M105.2,67.4c0,0.1-0.1,0.2-0.2,0.2c-0.1,0-0.2-0.1-0.2-0.2c0-0.1,0.1-0.2,0.2-0.2
							C105.1,67.2,105.2,67.3,105.2,67.4z"/>
						<path class="st11" d="M105.9,67.4c0,0.1-0.1,0.2-0.2,0.2c-0.1,0-0.2-0.1-0.2-0.2c0-0.1,0.1-0.2,0.2-0.2
							C105.8,67.2,105.9,67.3,105.9,67.4z"/>
						<path class="st11" d="M106.7,67.4c0,0.1-0.1,0.2-0.2,0.2c-0.1,0-0.2-0.1-0.2-0.2c0-0.1,0.1-0.2,0.2-0.2
							C106.6,67.2,106.7,67.3,106.7,67.4z"/>
					</g>
					<g>
						<rect x="70.2" y="69.5" class="st9" width="5.5" height="5.8"/>
						<rect x="70.2" y="69.5" class="st1" width="5.5" height="5.8"/>
						<g>
							<path class="st5" d="M72.3,74.3c0,0.3-0.3,0.6-0.6,0.6s-0.6-0.3-0.6-0.6c0-0.3,0.3-0.6,0.6-0.6S72.3,74,72.3,74.3z"/>
							<rect x="71.9" y="71.2" class="st5" width="0.5" height="3.1"/>
							<ellipse class="st5" cx="73.6" cy="73.4" rx="0.6" ry="0.6"/>
							<rect x="73.8" y="70.3" class="st5" width="0.5" height="3.1"/>
							<polygon class="st5" points="74.2,70.3 71.9,71.6 71.9,71.2 74.2,69.9 							"/>
							<polygon class="st5" points="74.2,71.1 71.9,72.4 71.9,72 74.2,70.7 							"/>
						</g>
					</g>
					<g>
						<path class="st12" d="M66.9,65.9c3.6-0.1,7.1-0.2,10.7-0.2l10.7-0.1l10.7,0.1c3.6,0,7.1,0.1,10.7,0.2
							c-3.6,0.1-7.1,0.2-10.7,0.2l-10.7,0.1l-10.7-0.1C74,66.1,70.4,66,66.9,65.9z"/>
					</g>
					<g>
						<path class="st12" d="M66.9,76.1c3.6-0.1,7.1-0.2,10.7-0.2l10.7-0.1l10.7,0.1c3.6,0,7.1,0.1,10.7,0.2
							c-3.6,0.1-7.1,0.2-10.7,0.2l-10.7,0.1l-10.7-0.1C74,76.2,70.4,76.2,66.9,76.1z"/>
					</g>
					<g>
						<path class="st11" d="M70.6,67.4h-0.2v0.3c0,0,0,0.1-0.1,0.1c0,0-0.1,0-0.1-0.1v-0.8c0,0,0-0.1,0.1-0.1h0h0.2
							c0.2,0,0.3,0.1,0.3,0.3C70.9,67.3,70.8,67.4,70.6,67.4z M70.5,67.3h0.2c0.1,0,0.1-0.1,0.1-0.1c0-0.1-0.1-0.1-0.1-0.1h-0.2
							V67.3z"/>
						<path class="st11" d="M71.2,66.8C71.2,66.8,71.2,66.9,71.2,66.8l0.1,0.9c0,0,0,0.1-0.1,0.1c0,0-0.1,0-0.1-0.1L71.2,66.8
							C71.1,66.9,71.1,66.8,71.2,66.8z"/>
						<path class="st11" d="M72,67.5v0.3c0,0,0,0.1-0.1,0.1c0,0-0.1,0-0.1-0.1c-0.1,0-0.1,0.1-0.2,0.1c-0.1,0-0.2,0-0.2-0.1
							c-0.1-0.1-0.1-0.2-0.1-0.3c0-0.1,0-0.2,0.1-0.3c0.1-0.1,0.1-0.1,0.2-0.1c0.1,0,0.1,0,0.2,0.1c0,0,0-0.1,0.1-0.1
							c0,0,0.1,0,0.1,0.1V67.5z M71.9,67.5c0-0.1,0-0.1-0.1-0.1c0,0-0.1-0.1-0.1-0.1c0,0-0.1,0-0.1,0.1c0,0-0.1,0.1-0.1,0.1
							c0,0.1,0,0.1,0.1,0.1c0,0,0.1,0.1,0.1,0.1c0,0,0.1,0,0.1-0.1C71.8,67.6,71.9,67.5,71.9,67.5z"/>
						<path class="st11" d="M72.8,67.2v0.3v0.2c0,0.2-0.1,0.3-0.3,0.3c0,0-0.1,0-0.1,0c0,0-0.1-0.1,0-0.1c0,0,0.1-0.1,0.1,0
							c0,0,0.1,0,0.1,0c0.1,0,0.1-0.1,0.2-0.1c0,0-0.1,0-0.1,0c-0.2,0-0.3-0.1-0.3-0.3v-0.3c0,0,0-0.1,0.1-0.1c0,0,0.1,0,0.1,0.1
							v0.3c0,0.1,0.1,0.1,0.1,0.1c0.1,0,0.1-0.1,0.1-0.1v-0.3C72.7,67.2,72.7,67.1,72.8,67.2C72.8,67.1,72.8,67.2,72.8,67.2z"/>
						<path class="st11" d="M73.2,66.9C73.2,67,73.2,67,73.2,66.9c-0.1,0.1-0.1,0-0.1,0v0c0,0,0-0.1,0.1-0.1
							C73.2,66.8,73.2,66.9,73.2,66.9L73.2,66.9z M73.2,67.2v0.6c0,0,0,0.1-0.1,0.1c0,0-0.1,0-0.1-0.1v-0.6
							C73.1,67.2,73.1,67.1,73.2,67.2C73.2,67.1,73.2,67.2,73.2,67.2z"/>
						<path class="st11" d="M74,67.4v0.3c0,0,0,0.1-0.1,0.1c0,0-0.1,0-0.1-0.1v-0.3c0-0.1-0.1-0.1-0.1-0.1c-0.1,0-0.1,0.1-0.1,0.1
							v0.3c0,0,0,0,0,0c0,0,0,0.1-0.1,0.1c0,0-0.1,0-0.1-0.1v-0.3v-0.2c0,0,0-0.1,0.1-0.1c0,0,0.1,0,0.1,0c0,0,0.1,0,0.1,0
							C73.9,67.1,74,67.3,74,67.4z"/>
						<path class="st11" d="M74.9,67.5v0.3c0,0.2-0.1,0.3-0.3,0.3c-0.1,0-0.1,0-0.1,0c0,0-0.1-0.1,0-0.1c0,0,0.1-0.1,0.1,0
							c0,0,0,0,0.1,0c0.1,0,0.2-0.1,0.2-0.2c0,0-0.1,0.1-0.2,0.1c-0.1,0-0.2,0-0.2-0.1c-0.1-0.1-0.1-0.2-0.1-0.3
							c0-0.1,0-0.2,0.1-0.3c0.1-0.1,0.1-0.1,0.2-0.1c0.1,0,0.1,0,0.2,0.1c0,0,0-0.1,0.1-0.1c0,0,0.1,0,0.1,0.1V67.5L74.9,67.5z
							 M74.8,67.5c0-0.1,0-0.1-0.1-0.1c0,0-0.1-0.1-0.1-0.1c0,0-0.1,0-0.1,0.1c0,0-0.1,0.1-0.1,0.1c0,0.1,0,0.1,0.1,0.1
							c0,0,0.1,0.1,0.1,0.1c0.1,0,0.1,0,0.1-0.1C74.7,67.6,74.8,67.5,74.8,67.5z"/>
						<path class="st11" d="M76.2,67.4v0.3c0,0,0,0.1-0.1,0.1c0,0-0.1,0-0.1-0.1v-0.3c0-0.1-0.1-0.1-0.1-0.1c-0.1,0-0.1,0.1-0.1,0.1
							v0.3c0,0,0,0,0,0c0,0,0,0.1-0.1,0.1c0,0-0.1,0-0.1-0.1v-0.3v-0.2c0,0,0-0.1,0.1-0.1c0,0,0.1,0,0.1,0c0,0,0.1,0,0.1,0
							C76,67.1,76.2,67.3,76.2,67.4z"/>
						<path class="st11" d="M76.4,67.5c0-0.2,0.1-0.4,0.3-0.4c0.2,0,0.3,0.1,0.3,0.3c0,0,0,0,0,0c0,0,0,0,0,0c0,0,0,0.1-0.1,0.1
							h-0.4c0,0,0,0.1,0,0.1c0,0,0.1,0.1,0.1,0.1c0,0,0.1,0,0.1,0c0,0,0.1,0,0.1,0c0,0,0,0.1,0,0.1c-0.1,0.1-0.1,0.1-0.2,0.1
							C76.5,67.8,76.4,67.7,76.4,67.5z M76.5,67.4h0.4c0-0.1-0.1-0.1-0.2-0.2C76.6,67.3,76.5,67.4,76.5,67.4z"/>
						<path class="st11" d="M77.7,67.2l-0.2,0.2l0.2,0.2c0,0,0,0.1,0,0.1c0,0,0,0,0,0c0,0,0,0-0.1,0l-0.1-0.2l-0.1,0.2
							c0,0,0,0-0.1,0c0,0,0,0,0,0c0,0,0-0.1,0-0.1l0.2-0.2l-0.2-0.2c0,0,0-0.1,0-0.1c0,0,0.1,0,0.1,0l0.1,0.2l0.1-0.2
							c0,0,0.1,0,0.1,0C77.7,67.2,77.7,67.2,77.7,67.2z"/>
						<path class="st11" d="M78.3,67.2C78.3,67.2,78.3,67.3,78.3,67.2l-0.1,0.1v0.4c0,0,0.1,0,0.1,0.1c0,0,0,0.1-0.1,0.1
							c-0.1,0-0.2-0.1-0.2-0.2v-0.4h0c0,0-0.1,0-0.1-0.1c0,0,0-0.1,0.1-0.1h0v-0.2c0,0,0-0.1,0.1-0.1c0,0,0.1,0,0.1,0.1v0.2
							L78.3,67.2C78.3,67.1,78.3,67.2,78.3,67.2z"/>
					</g>
					<g>
						<rect x="104.8" y="69.5" class="st11" width="1.8" height="0.3"/>
						<rect x="104.8" y="70" class="st11" width="1.8" height="0.3"/>
						<rect x="104.8" y="70.5" class="st11" width="1.8" height="0.3"/>
					</g>
					<rect x="77" y="69.6" class="st11" width="11.2" height="0.6"/>
					<rect x="77" y="70.9" class="st8" width="6.3" height="0.3"/>
					<g>
						<rect x="70.2" y="76.8" class="st9" width="5.5" height="5.8"/>
						<rect x="70.2" y="76.8" class="st1" width="5.5" height="5.8"/>
						<g>
							<path class="st5" d="M72.3,81.6c0,0.3-0.3,0.6-0.6,0.6s-0.6-0.3-0.6-0.6c0-0.3,0.3-0.6,0.6-0.6S72.3,81.3,72.3,81.6z"/>
							<rect x="71.9" y="78.5" class="st5" width="0.5" height="3.1"/>
							<path class="st5" d="M74.2,80.7c0,0.3-0.3,0.6-0.6,0.6c-0.3,0-0.6-0.3-0.6-0.6c0-0.3,0.3-0.6,0.6-0.6
								C74,80.1,74.2,80.4,74.2,80.7z"/>
							<rect x="73.8" y="77.6" class="st5" width="0.5" height="3.1"/>
							<polygon class="st5" points="74.2,77.6 71.9,78.9 71.9,78.5 74.2,77.1 							"/>
							<polygon class="st5" points="74.2,78.4 71.9,79.7 71.9,79.3 74.2,77.9 							"/>
						</g>
					</g>
					<g>
						<rect x="104.8" y="76.8" class="st11" width="1.8" height="0.3"/>
						<rect x="104.8" y="77.3" class="st11" width="1.8" height="0.3"/>
						<rect x="104.8" y="77.8" class="st11" width="1.8" height="0.3"/>
					</g>
					<rect x="77" y="76.9" class="st11" width="11.2" height="0.6"/>
					<rect x="77" y="78.2" class="st8" width="6.3" height="0.3"/>
					<g>
						<path class="st12" d="M66.9,83.3c3.6-0.1,7.1-0.2,10.7-0.2L88.2,83l10.7,0.1c3.6,0,7.1,0.1,10.7,0.2
							c-3.6,0.1-7.1,0.2-10.7,0.2l-10.7,0.1l-10.7-0.1C74,83.4,70.4,83.4,66.9,83.3z"/>
					</g>
					<g>
						<rect x="70.2" y="84" class="st9" width="5.5" height="5.8"/>
						<rect x="70.2" y="84" class="st1" width="5.5" height="5.8"/>
						<g>
							<path class="st5" d="M72.3,88.8c0,0.3-0.3,0.6-0.6,0.6s-0.6-0.3-0.6-0.6c0-0.3,0.3-0.6,0.6-0.6S72.3,88.5,72.3,88.8z"/>
							<rect x="71.9" y="85.7" class="st5" width="0.5" height="3.1"/>
							<path class="st5" d="M74.2,87.9c0,0.3-0.3,0.6-0.6,0.6c-0.3,0-0.6-0.3-0.6-0.6c0-0.3,0.3-0.6,0.6-0.6
								C74,87.3,74.2,87.6,74.2,87.9z"/>
							<rect x="73.8" y="84.8" class="st5" width="0.5" height="3.1"/>
							<polygon class="st5" points="74.2,84.8 71.9,86.1 71.9,85.7 74.2,84.4 							"/>
							<polygon class="st5" points="74.2,85.6 71.9,86.9 71.9,86.5 74.2,85.1 							"/>
						</g>
					</g>
					<g>
						<rect x="104.8" y="84" class="st11" width="1.8" height="0.3"/>
						<rect x="104.8" y="84.5" class="st11" width="1.8" height="0.3"/>
						<rect x="104.8" y="85" class="st11" width="1.8" height="0.3"/>
					</g>
					<rect x="77" y="84.1" class="st11" width="11.2" height="0.6"/>
					<rect x="77" y="85.4" class="st8" width="6.3" height="0.3"/>
					<g>
						<path class="st12" d="M66.9,90.5c3.6-0.1,7.1-0.2,10.7-0.2l10.7-0.1l10.7,0.1c3.6,0,7.1,0.1,10.7,0.2
							c-3.6,0.1-7.1,0.2-10.7,0.2l-10.7,0.1l-10.7-0.1C74,90.6,70.4,90.6,66.9,90.5z"/>
					</g>
					<g>
						<rect x="70.2" y="91.2" class="st9" width="5.5" height="5.8"/>
						<rect x="70.2" y="91.2" class="st1" width="5.5" height="5.8"/>
						<g>
							<path class="st5" d="M72.3,96c0,0.3-0.3,0.6-0.6,0.6s-0.6-0.3-0.6-0.6c0-0.3,0.3-0.6,0.6-0.6S72.3,95.7,72.3,96z"/>
							<rect x="71.9" y="92.9" class="st5" width="0.5" height="3.1"/>
							<path class="st5" d="M74.2,95.1c0,0.3-0.3,0.6-0.6,0.6c-0.3,0-0.6-0.3-0.6-0.6c0-0.3,0.3-0.6,0.6-0.6
								C74,94.5,74.2,94.8,74.2,95.1z"/>
							<rect x="73.8" y="92" class="st5" width="0.5" height="3.1"/>
							<polygon class="st5" points="74.2,92 71.9,93.3 71.9,92.9 74.2,91.6 							"/>
							<polygon class="st5" points="74.2,92.8 71.9,94.1 71.9,93.7 74.2,92.3 							"/>
						</g>
					</g>
					<g>
						<rect x="104.8" y="91.2" class="st11" width="1.8" height="0.3"/>
						<rect x="104.8" y="91.7" class="st11" width="1.8" height="0.3"/>
						<rect x="104.8" y="92.2" class="st11" width="1.8" height="0.3"/>
					</g>
					<rect x="77" y="91.3" class="st11" width="11.2" height="0.6"/>
					<rect x="77" y="92.6" class="st8" width="6.3" height="0.3"/>
					<g>
						<path class="st12" d="M66.9,97.7c3.6-0.1,7.1-0.2,10.7-0.2l10.7-0.1l10.7,0.1c3.6,0,7.1,0.1,10.7,0.2
							c-3.6,0.1-7.1,0.2-10.7,0.2l-10.7,0.1l-10.7-0.1C74,97.8,70.4,97.8,66.9,97.7z"/>
					</g>
					<g>
						<rect x="70.2" y="98.4" class="st9" width="5.5" height="5.8"/>
						<rect x="70.2" y="98.4" class="st1" width="5.5" height="5.8"/>
						<g>
							<path class="st5" d="M72.3,103.2c0,0.3-0.3,0.6-0.6,0.6s-0.6-0.3-0.6-0.6c0-0.3,0.3-0.6,0.6-0.6S72.3,102.9,72.3,103.2z"/>
							<rect x="71.9" y="100.1" class="st5" width="0.5" height="3.1"/>
							<path class="st5" d="M74.2,102.3c0,0.3-0.3,0.6-0.6,0.6c-0.3,0-0.6-0.3-0.6-0.6s0.3-0.6,0.6-0.6
								C74,101.7,74.2,102,74.2,102.3z"/>
							<rect x="73.8" y="99.2" class="st5" width="0.5" height="3.1"/>
							<polygon class="st5" points="74.2,99.2 71.9,100.5 71.9,100.1 74.2,98.8 							"/>
							<polygon class="st5" points="74.2,100 71.9,101.3 71.9,100.9 74.2,99.6 							"/>
						</g>
					</g>
					<g>
						<rect x="104.8" y="98.4" class="st11" width="1.8" height="0.3"/>
						<rect x="104.8" y="98.9" class="st11" width="1.8" height="0.3"/>
						<rect x="104.8" y="99.4" class="st11" width="1.8" height="0.3"/>
					</g>
					<rect x="77" y="98.5" class="st11" width="11.2" height="0.6"/>
					<rect x="77" y="99.8" class="st8" width="6.3" height="0.3"/>
				</g>
			</g>
		</g>
	</g>
	<g>
		<g>
			<g>
				<defs>
					<rect id="SVGID_1_" x="76.7" y="18.7" width="24" height="25.2"/>
				</defs>
				<clipPath id="SVGID_2_">
					<use xlink:href="#SVGID_1_"  style="overflow:visible;"/>
				</clipPath>
				<g class="st13">
					<g>
						<defs>
							<rect id="SVGID_3_" x="76.7" y="18.7" width="24" height="25.2"/>
						</defs>
						<clipPath id="SVGID_4_">
							<use xlink:href="#SVGID_3_"  style="overflow:visible;"/>
						</clipPath>
						<path class="st14" d="M77.2,31.2c0-1.7,0-3.2,0-4.9c0-1,0.3-1.7,1.3-2c3.1-1.7,6-3.4,9.1-4.9c0.6-0.3,1.6-0.3,2.1,0
							c3.1,1.5,6.2,3.4,9.1,4.9c0.8,0.5,1.3,1.2,1.3,2c0,3.4,0,6.7,0,10.1c0,1-0.5,1.7-1.3,2.2c-2.9,1.7-5.8,3.2-8.9,4.9
							c-0.8,0.5-1.6,0.5-2.6,0c-2.9-1.7-5.8-3.2-8.9-4.9c-1-0.5-1.3-1.2-1.3-2.2C77.2,34.6,77.2,32.9,77.2,31.2"/>
					</g>
					<g>
						<defs>
							<rect id="SVGID_5_" x="76.7" y="18.7" width="24" height="25.2"/>
						</defs>
						<clipPath id="SVGID_6_">
							<use xlink:href="#SVGID_5_"  style="overflow:visible;"/>
						</clipPath>
						<path class="st15" d="M78.6,31.2c0-1.4,0-2.9,0-4.3c0-0.9,0.3-1.4,1.1-1.9c2.6-1.5,5.2-3.1,7.9-4.4c0.5-0.3,1.3-0.3,1.9,0
							c2.8,1.4,5.4,2.9,7.9,4.4c0.8,0.3,1.1,1,1.1,1.9c0,2.9,0,5.8,0,8.7c0,0.9-0.3,1.5-1.1,1.9c-2.6,1.4-5.2,2.9-7.6,4.3
							c-0.8,0.3-1.5,0.3-2.3,0c-2.6-1.4-5.2-2.9-7.6-4.3c-0.8-0.5-1.1-1-1.1-2C78.8,34.1,78.6,32.7,78.6,31.2 M79.9,31.4
							c0,1.4,0,2.7,0,3.9c0,0.7,0.3,1.2,0.8,1.4c2.4,1.4,4.7,2.7,7.1,3.9c0.5,0.2,1.1,0.2,1.6,0c2.4-1.2,4.7-2.6,7.1-3.9
							c0.6-0.3,0.8-0.9,0.8-1.4c0-2.7,0-5.3,0-8c0-0.7-0.3-1.2-1-1.5c-2.3-1.2-4.7-2.6-7-3.9c-0.6-0.3-1.1-0.3-1.6,0
							c-2.3,1.4-4.7,2.6-7,3.9c-0.6,0.3-0.8,0.7-0.8,1.4C79.9,28.6,79.9,30,79.9,31.4"/>
					</g>
					<g>
						<defs>
							<rect id="SVGID_7_" x="76.7" y="18.7" width="24" height="25.2"/>
						</defs>
						<clipPath id="SVGID_8_">
							<use xlink:href="#SVGID_7_"  style="overflow:visible;"/>
						</clipPath>
						<polygon class="st16" points="83.5,28.3 83.5,31.5 88.7,27.3 93.9,31.5 93.9,28.3 88.7,24 						"/>
					</g>
					<g>
						<defs>
							<rect id="SVGID_9_" x="76.7" y="18.7" width="24" height="25.2"/>
						</defs>
						<clipPath id="SVGID_10_">
							<use xlink:href="#SVGID_9_"  style="overflow:visible;"/>
						</clipPath>
						<rect x="87.4" y="26.4" class="st17" width="2.6" height="11.6"/>
					</g>
				</g>
			</g>
		</g>
	</g>
</g>
<path class="st18" d="M14.4,84.1c0,0,0.5,11.5,0.6,23.9s2.3,35.6,5.8,40.2c2.3,0.3,4.6-0.2,6.5-1.3c0,0,1.1-26.7,1.6-35.5
	s0-9.4,0-9.4l-0.5-16l-3.9-2.7L14.4,84.1z"/>
<path class="st19" d="M42.8,99.8c-0.2,5.5-0.4,14.2-0.8,22.6c-0.5,11-11,19.9-15,22.9c0.5,0.4,1,0.8,1.5,1.1
	c0,0,10.7-10.3,13.5-16.8s1.4-22,0.9-28.6C42.8,100.6,42.8,100.2,42.8,99.8z"/>
<path class="st20" d="M28.9,111.5c0.2-3.3,0.2-5.4,0.2-6.8c-3.8,7.2-3.8,28.8-3.9,36.3c0,4.9-3.2,5.6-5.3,5.6
	c0.2,0.6,0.6,1.2,0.9,1.7c2.3,0.3,4.6-0.2,6.5-1.3C27.3,146.9,28.4,120.3,28.9,111.5z"/>
<path class="st21" d="M16.4,107.6c-1.3-1.8-1.7-4-1.1-6.1c1-3.6,5.8,0,5.8,0s2.8,0.5,3,2.7S24,107.6,16.4,107.6z"/>
<path class="st22" d="M14.7,93.6c0,1,0,2.1,0.1,3.3l27.9,1.8c-0.2-1.7-0.3-3.6-0.5-5.5l-8-1.6"/>
<g class="st0">
	<path class="st23" d="M24.3,126.2l0.1,0.1L24.3,126.2z"/>
</g>
<path class="st24" d="M26,148.2c0,0,6.9,8.5,5.5,10.6c0,0-1.3,1-2.1,0.5s-12-8.6-12.5-9.1s-1.3-1.3-0.4-2c0.9-0.7,1.6-1.1,1.9-1.8
	s1.3-3.6,4.3-0.3s2,1,2,1L26,148.2z"/>
<path class="st25" d="M24.8,141.2l-2.5,5.6c0.8,0.9,2,1.6,3.3,1.7c2.2-1.5,4.1-3.4,5.6-5.6c2-3.1-2.8-1.6-3.4-1.6
	c-0.8,0.1-1.6,0.3-2.3,0.5L24.8,141.2z"/>
<path class="st10" d="M31.5,158.8l-11.7-8.5l0.8-2.6l-2.1-1.5c0,0.1,0,0.1-0.1,0.2c-0.2,0.7-1,1.1-1.9,1.8c-0.9,0.7-0.1,1.5,0.4,2
	s11.7,8.6,12.5,9.1S31.5,158.8,31.5,158.8L31.5,158.8z"/>
<path class="st5" d="M27.4,150l-1.2,0.4l2,4.6l2.3-0.1C29.6,153.2,28.5,151.5,27.4,150z"/>
<path class="st24" d="M26.8,152.7c0,0,9.6,3,9.7,5.5c0,0-0.4,1.6-1.3,1.6s-13.5-0.1-14.1-0.2s-1.7-0.3-1.4-1.4
	c0.4-0.8,0.5-1.7,0.4-2.5c-0.2-0.7-1-3.7,3-2.7s2-0.3,2-0.3L26.8,152.7z"/>
<path class="st25" d="M20.9,147.6l1.3,6c1.2,0.3,2.5,0.1,3.7-0.5c0.9-2.5,1.3-5.1,1.3-7.8c-0.2-3.7-3.2,0.4-3.7,0.7
	c-0.6,0.5-1.1,1.1-1.6,1.8L20.9,147.6z"/>
<path class="st18" d="M40.9,83.3c0,0,1.4,11,1.9,17.6s1.9,22.1-0.9,28.6s-13.4,16.8-13.4,16.8c-2.1-1.4-3.9-3.2-5.4-5.2
	c0,0,8.1-10.7,9.1-16.4s-3.5-22.2-3.5-22.2L28,94.3l-1.5-5.5c0,0,1.1-3.3,1-3.3c0.4-0.9,0.9-1.8,1.6-2.7c0.2-0.1,5.3-0.8,5.3-0.8
	L40.9,83.3z"/>
<path class="st5" d="M25.2,150.3c-1.2,0.1-2.5,0-3.7-0.2l0.7,3.4c1.2,0.3,2.5,0.1,3.7-0.5c0.3-1,0.6-2,0.8-3
	C26.2,150.3,25.7,150.3,25.2,150.3z"/>
<path class="st10" d="M36.5,158.2L23.3,158l-0.8-2.5h-2.4c0,0.1,0,0.1,0.1,0.2c0.1,0.9,0,1.7-0.4,2.5c-0.3,1.1,0.7,1.3,1.4,1.4
	s13.2,0.3,14.1,0.2S36.5,158.2,36.5,158.2L36.5,158.2z"/>
<path class="st10" d="M28.7,153.4l-0.6,1l3.9,2.5l1.6-1.4C32.1,154.7,30.4,154,28.7,153.4z"/>
<g>
	<g>
		<path class="st26" d="M51.4,61.8c0-3,0.5-4.7,1.2-7l-0.6-0.7C51.4,55,50.2,57.6,51.4,61.8z"/>
		<path class="st26" d="M60.5,41.2c0.6-0.9,1-2,0.9-3.2c0-1.2-0.4-2.3-1-3.2c0.9,0.5,1.6,1.7,1.7,3C62.1,39.1,61.4,40.6,60.5,41.2z"
			/>
		<path class="st25" d="M30.8,40.4l1.4-1c2.8-2,6.2-1.4,8.5,1.3l11.8,14.1c0,0,4.5-10.5,5.3-13.9c0.3-1.1-0.2-2.3-0.5-3.4
			c-0.2-1.1-0.5-2.2-0.3-3.4c0.2-1.4,0.1-3-0.3-4.4c-0.1-0.5,0.2-1,0.6-1c0,0,0.1,0,0.1,0c0.3,0,0.6,0.2,0.9,0.5
			c0.2,0.3,0.3,0.7,0.4,1.1c0.2,1,0.4,2,0.5,3.1c0.7-1.9,1-4.2,1-6.3c0-0.8-0.1-1.7,0-2.5c0.1-0.8,0.6-1.6,1.2-1.7
			c0.3,0.6,0.6,1.3,0.7,2c0.4-0.2,0.9-0.2,1.2,0c0.3,0.3,0.6,0.7,0.6,1.2c0.9,0.1,1.8,1.2,2.2,2.3c0.4,1.1,0.4,2.4,0.4,3.6
			c-0.2,4-1.3,7.9-3.2,11.1c-1.5,7.5-2.9,15.9-5.1,22.4c-1.1,3.2-4.1,4.3-6.4,2.4c-8.4-7.2-15.3-14.6-15.3-14.6L30.8,40.4z"/>
		<path class="st27" d="M30.8,40.4l1.4-1c2.8-2,6.2-1.4,8.5,1.3L50,51.8c-0.9,6.1-5.4,10.3-5.4,10.3l-8-8.9L30.8,40.4z"/>
	</g>
	<g>
		<g>
			<path class="st28" d="M23.6,30.5l7.2-0.1v6.8c-1.6-0.4-3.2-0.9-4.6-2.1C25,34,24.1,32.4,23.6,30.5z"/>
			<path class="st29" d="M23.2,30.4v8c0,1.1,0.3,2.1,1,2.8c1.6,1.9,3.8,2.8,6,2.7c0.4,0,0.9-0.1,1.2-0.5c0.5-0.5,0.6-1.4,0.4-2.2
				c-0.1-0.4-0.2-0.7-0.4-1.1c-0.3-0.7-0.6-1.5-0.6-2.3v-7.5H23.2z"/>
		</g>
		<g>
			<path class="st30" d="M37.6,16.9c1,0,2-0.4,2.8-1.2c0.5-0.5,0.8-1,1.1-1.7c0.2-0.6-0.2-1.2-0.7-1.1c-0.6,0.1-1.1,0.1-1.7,0
				c1.3-2.2,1.9-4.9,1.6-7.6c-0.1-0.6-0.6-1-1.1-0.7c-2.3,1.4-4.9,2.2-7.4,1.9c-1.4-0.1-2.7-0.5-4.1-0.6c-1.4-0.1-2.8,0-4,0.8
				C23,7.4,22,9,22,10.8c-0.3-0.6-0.8-0.9-1.4-1c-0.6-0.1-1.2,0.1-1.6,0.6c0.8,0.6,1.6,1.1,2.4,1.7c-0.8-0.4-1.8,0.4-2.2,1.4
				c-0.4,1-0.4,2.1-0.4,3.2c0,1.5,0,2.9,0.2,4.4c0.2,1.4,0.6,2.9,1.3,4c0.6,1,1.4,1.7,2.4,2c1.2,0.5,2.6,0.3,3.8-0.2
				c1.2-0.5,2.4-1.3,3.5-2.2C32.6,22.6,35.2,19.7,37.6,16.9z"/>
			<path class="st29" d="M37.8,13.9c0.8,6,0.3,12.4-1.5,18.1c-0.4,1.3-0.9,2.7-1.9,3.4c-1,0.7-2.3,0.6-3.4,0.4
				c-1.9-0.4-3.7-0.8-5.4-1.9c-1.7-1.1-3.1-2.9-3.7-5.2c-1.2,0.4-2.5-0.4-3.3-1.6c-0.8-1.3-1-3-1.1-4.6c0-1,0.1-2.3,0.9-2.7
				c0.7-0.4,1.5,0.1,2.1,0.7c1,1,1.7,2.4,2,3.9c0.5-2.5,1.4-5,1.9-7.5c0.2-1,0.5-2.1,1.1-2.6c0.8-0.7,1.9-0.3,2.9,0
				C31.2,15.1,34.9,15.1,37.8,13.9z"/>
			<polygon class="st31" points="32,21.6 34.3,26.6 31.6,27.2 			"/>
			<path class="st28" d="M28.9,28.9c0.7,0.4,1.4,0.9,2.1,1.3c-0.3,0.6-1.1,0.9-1.6,0.6C28.9,30.5,28.8,29.6,28.9,28.9z"/>
			<path class="st0" d="M28.9,28.9c0.7,0.4,1.4,0.9,2.1,1.3c-0.3,0.6-1.1,0.9-1.6,0.6C28.9,30.5,28.8,29.6,28.9,28.9z"/>
			<path class="st28" d="M30.2,30.9c-0.3,0.1-0.5,0-0.7-0.1c-0.4-0.2-0.6-0.8-0.6-1.4c0.3,0,0.6,0.1,0.8,0.4
				C30,30,30.1,30.5,30.2,30.9z"/>
			<path class="st30" d="M28.1,21.8c0,0.6,0.3,1.1,0.7,1.1c0.4,0.1,0.8-0.3,0.9-0.9c0-0.6-0.3-1.1-0.7-1.1
				C28.5,20.8,28.1,21.2,28.1,21.8z"/>
			<path class="st30" d="M34.7,22.3c0,0.6,0.3,1.1,0.7,1.1c0.4,0.1,0.8-0.3,0.9-0.9c0-0.6-0.3-1.1-0.7-1.1
				C35.1,21.4,34.7,21.8,34.7,22.3z"/>
			<path class="st30" d="M35.7,18.4c0.5,0.6,1.1,1.2,1.6,1.8c0.2-0.5,0.1-1.2-0.2-1.6C36.8,18.1,36.1,18.1,35.7,18.4z"/>
			<path class="st30" d="M29,17.4c-0.6,0.4-1.2,0.9-1.9,1.3c-0.1-0.6,0.1-1.2,0.5-1.5C28,16.9,28.7,17.1,29,17.4z"/>
		</g>
	</g>
	<g>
		<path class="st25" d="M13,68.9l-2.4,11.4l9.4,10.1c0.7,0.7,1.5,1.1,2.4,1.1c1,0,2-0.1,2.9,0.2c0.7,0.2,1.5,0.5,2.2,0.7
			c0.5,0.2,1,0.3,1.6,0.3c0.5,0,0.8,0.6,0.6,1.1c-0.1,0.2-0.2,0.4-0.3,0.5c-0.4,0.4-0.9,0.6-1.4,0.7c-0.8,0.1-1.6,0.1-2.3-0.2
			c0.7,1.1,1.8,1.9,2.9,2.3c1.1,0.5,2.2,0.7,3.2,1.2c0.4,0.2,0.8,0.4,1,0.8c0.2,0.4,0.2,1.1-0.1,1.4c-0.5,0.4-1.1-0.2-1.6,0.1
			c0,0.4,0.1,0.7,0,1.1c-0.1,0.4-0.3,0.7-0.5,0.9c-0.3,0.2-0.6,0.2-0.9,0c-0.4,0.9-1.2,1.5-2,1.7c-0.8,0.2-1.6,0.2-2.4,0
			c-3.3-0.8-5.5-4.5-8.1-7.3c-0.4-0.4-9.6-7-14.3-10.4c-1.6-1.2-2.4-3.6-2-5.8l3-15.1L13,68.9z"/>
		<path class="st26" d="M4.8,80c1-0.6,4.3-1.1,5.8,0.2l0.2-1.2C9.8,78.5,7.2,77.3,4.8,80z"/>
		<path class="st27" d="M14.1,42.6l-1.3,0.5c-2.7,1-4.9,3.7-5.8,7.1l-4.2,16c3.8,5.2,10.7,3.6,10.7,3.6l1.4-8.2
			C19.6,50.9,15.2,44.4,14.1,42.6z"/>
	</g>
	<g>
		<path class="st32" d="M31,38.2l2.4,0.3c1.8,0.2,3.4,1.5,4.4,3.4c2.5,4.9,3.6,12.4,3,20.5c-0.8,10.1-0.6,20.9-0.6,20.9
			c-10.5,9.8-23.7,2.7-25.3,0.5l0.8-12.4c0.1-1.4-0.1-2.8-0.5-4.1c-1-2.9-2.7-8.7-3-13.2C11.8,47.9,14,42.7,14,42.7l9.2-4.4H31z"/>
	</g>
</g>
</svg>
