<?xml version="1.0" encoding="utf-8"?>
<!-- Generator: Adobe Illustrator 25.0.0, SVG Export Plug-In . SVG Version: 6.00 Build 0)  -->
<svg version="1.1" id="Layer_1" xmlns="http://www.w3.org/2000/svg" xmlns:xlink="http://www.w3.org/1999/xlink" x="0px" y="0px"
	 viewBox="0 0 1500 1500" style="enable-background:new 0 0 1500 1500;" xml:space="preserve">
<style type="text/css">
	.st0{fill:none;stroke:#FFFFFF;stroke-width:100;stroke-miterlimit:10;}
	.st1{fill:#D84440;}
</style>
<g>
	<path d="M1349.5,1328.5"/>
	<path class="st0" d="M1349.5,1328.5"/>
</g>
<g>
	<circle class="st1" cx="606.1" cy="422.5" r="36.2"/>
	<circle class="st1" cx="479.2" cy="422.5" r="36.2"/>
	<circle class="st1" cx="352.4" cy="422.5" r="36.2"/>
	<path class="st1" d="M1169.9,842.4V835c0-156.7-126.8-283.5-283.5-283.5c-35.2,0-68.2,6.4-100.2,18.1
		c61.8-129,36.2-283.5-67.1-386.9c-132.2-133.2-348.5-133.2-480.7,0s-132.2,348.5,0,481.8C340.6,766.8,493.1,792.3,622,732.7
		c-12.8,32-19.2,66.1-19.2,102.3v7.5c-45.8,9.6-79.9,50.1-79.9,99.1v164.1c0,55.4,45.8,101.3,101.3,101.3h82.1
		c12.8,0,22.4-10.7,22.4-22.4V863.8c0-12.8-10.7-22.4-22.4-22.4h-57.6V836c0-39.4,9.6-75.7,26.6-108.7l116.2,37.3
		c8.5,2.1,17.1,0,23.4-5.3c6.4-6.4,8.5-14.9,5.3-23.4l-36.2-114c30.9-14.9,66.1-23.4,103.4-23.4c131.1,0,237.7,106.6,237.7,237.7
		v5.3h-57.6c-12.8,0-22.4,10.7-22.4,22.4v320.8c0,12.8,10.7,22.4,22.4,22.4h57.6v21.3c0,57.6-46.9,104.5-104.5,104.5h-41.6
		c-8.5-22.4-30.9-37.3-55.4-37.3h-72.5c-33,0-60.8,26.6-60.8,60.8s26.6,60.8,60.8,60.8h72.5c25.6,0,46.9-16,55.4-37.3h41.6
		c83.1,0,150.3-67.1,150.3-150.3v-23.4c45.8-9.6,79.9-50.1,79.9-99.1V942.6C1249.8,892.5,1215.7,852,1169.9,842.4z M682.8,886.1v275
		h-59.7c-30.9,0-55.4-24.5-55.4-55.4V941.6c0-30.9,24.5-55.4,55.4-55.4L682.8,886.1L682.8,886.1z M727.6,596.2L762.7,706
		l-109.8-35.2c-6.4-2.1-12.8-1.1-19.2,2.1c-116.2,72.5-265.4,54.4-362.4-42.6c-115.1-115.1-115.1-301.6,0-416.8s301.6-115.1,416.8,0
		c97,97,114,246.2,42.6,363.5C726.5,583.4,725.4,589.8,727.6,596.2z M922.6,1369h-72.5c-7.5,0-14.9-6.4-14.9-14.9
		c0-7.5,6.4-14.9,14.9-14.9h72.5c7.5,0,14.9,6.4,14.9,14.9C937.5,1362.6,930.1,1369,922.6,1369z M1204,1105.7
		c0,30.9-24.5,55.4-55.4,55.4h-59.7v-275h59.7c30.9,0,55.4,24.5,55.4,55.4V1105.7z"/>
</g>
</svg>
