<?xml version="1.0" encoding="utf-8"?>
<!-- Generator: Adobe Illustrator 25.0.0, SVG Export Plug-In . SVG Version: 6.00 Build 0)  -->
<svg version="1.1" id="Layer_1" xmlns="http://www.w3.org/2000/svg" xmlns:xlink="http://www.w3.org/1999/xlink" x="0px" y="0px"
	 viewBox="0 0 1500 1500" style="enable-background:new 0 0 1500 1500;" xml:space="preserve">
<style type="text/css">
	.st0{fill:none;stroke:#FFFFFF;stroke-width:100;stroke-miterlimit:10;}
	.st1{fill:#D84440;}
	.st2{fill:#53B67B;}
</style>
<g>
	<path d="M1349.5,1328.5"/>
	<path class="st0" d="M1349.5,1328.5"/>
</g>
<g>
	<path class="st1" d="M1105.6,1392.1c-258.9,0-517.7,0-776.6,0c-6.2-1.9-12.4-4.1-18.7-5.7c-89.2-23.4-151.3-101.2-151.5-193.7
		c-0.6-304.6-0.7-609.2,0.2-913.8c0.2-78,37.6-136.8,104.4-174.6c21.7-12.3,47.4-17.1,71.3-25.4c255.1,0,510.2,0,765.2,0
		c63.4,13.8,119,41.9,148.5,102.7c17.3,35.7,24.4,76.6,37.7,120.3c17,0,41.3-0.3,65.6,0.1c31.6,0.4,43.1,11.5,43.4,42.6
		c0.4,51.6,0.4,103.2,0,154.8c-0.2,29.4-9.9,38.9-39.3,39.4c-26.1,0.4-52.1,0.1-77.6,0.1c0,28.2,0,51.6,0,77.6
		c26.3,0,50.7-0.4,75.1,0.1c30.3,0.6,41.6,11.3,41.9,40.9c0.5,52.6,0.5,105.1,0,157.7c-0.3,29-10.3,38.4-40,38.9
		c-25.2,0.4-50.5,0.1-76.7,0.1c0,29.1,0,55.1,0,83.6c27.5,0,52.8,0,78.2,0c25.5,0,38.4,12.8,38.4,38.6c0.1,53.5-0.1,107,0.1,160.6
		c0.1,25.9-12,38.8-38,38.4c-26.2-0.4-52.3-0.1-79.4-0.1c-0.8,9-1.5,14.5-1.7,20.1c-2.6,67.5-30.6,122.3-85.7,159.6
		C1165.1,1371.9,1134,1380,1105.6,1392.1z M232.7,733.7c0,149-0.2,298,0.1,447.1c0.1,82.3,53.4,135.9,135.2,135.9
		c233.2,0.2,466.4,0.2,699.7,0c81.1-0.1,134.2-54.3,134.2-136.8c0.1-296.1,0.1-592.3,0-888.4c0-84.6-52.2-137.3-136.5-137.4
		c-232.3-0.3-464.5-0.3-696.8,0c-83.6,0.1-135.6,53.6-135.7,138.3C232.6,439.4,232.7,586.6,232.7,733.7z"/>
	<path class="st1" d="M1077.3,735.2c0,198.4-160.1,362.8-354.9,364.2c-199.8,1.4-364.2-163.5-363.6-364.6
		c0.6-199.4,162.9-362.9,359.7-362.5C916,372.8,1077.3,535.9,1077.3,735.2z M472.6,922.1c43.6-12.4,88.5-23,131.9-38.1
		c33.6-11.7,41.7-45.6,22.4-74.9c-14.6-22.2-30.1-44.1-42.1-67.8c-6.9-13.6-15.9-37.1-9.9-44.6c22.3-27.8,12.8-58.1,13.5-87.2
		c1.1-41.2,18.7-71.1,53.1-91.4c12.1-7.1,25.1-12.6,38.1-19c-0.4-9.4-0.8-18.5-1.2-27.5c89.5-5.4,172.7,72.3,172.3,158.7
		c-0.1,16.1-5.3,36.8,2.5,47.6c18.7,26.1,8.9,46.7-4.1,68.1c-19.5,32.4-40.1,64.1-61,97.3c40.6,67.9,117.7,52.1,175.2,79.3
		c95.9-116.9,80.2-305.6-32.4-413.2c-117.5-112.2-306.7-111.4-423.7,1.2C387.3,626,382.5,809.2,472.6,922.1z"/>
</g>
<g>
	<path class="st2" d="M1076.5,734.7c0,198.4-160.1,362.8-354.9,364.2c-199.8,1.4-364.2-163.5-363.6-364.6
		c0.6-199.4,162.9-362.9,359.7-362.5C915.1,372.2,1076.4,535.4,1076.5,734.7z M471.7,921.6c43.6-12.4,88.5-23,131.9-38.1
		c33.6-11.7,41.7-45.6,22.4-74.9c-14.6-22.2-30.1-44.1-42.1-67.8c-6.9-13.6-15.9-37.1-9.9-44.6c22.3-27.8,12.8-58.1,13.5-87.2
		c1.1-41.2,18.7-71.1,53.1-91.4c12.1-7.1,25.1-12.6,38.1-19c-0.4-9.4-0.8-18.5-1.2-27.5c89.5-5.4,172.7,72.3,172.3,158.7
		c-0.1,16.1-5.3,36.8,2.5,47.6c18.7,26.1,8.9,46.7-4.1,68.1c-19.5,32.4-40.1,64.1-61,97.3C828,910.6,905,894.8,962.5,922
		c95.9-116.9,80.2-305.6-32.4-413.2C812.5,396.5,623.4,397.3,506.3,510C386.4,625.4,381.7,808.6,471.7,921.6z"/>
</g>
</svg>
