<?xml version="1.0" encoding="utf-8"?>
<!-- Generator: Adobe Illustrator 25.0.0, SVG Export Plug-In . SVG Version: 6.00 Build 0)  -->
<svg version="1.1" id="Layer_1" xmlns="http://www.w3.org/2000/svg" xmlns:xlink="http://www.w3.org/1999/xlink" x="0px" y="0px"
	 viewBox="0 0 1500 1500" style="enable-background:new 0 0 1500 1500;" xml:space="preserve">
<style type="text/css">
	.st0{fill:none;stroke:#FFFFFF;stroke-width:100;stroke-miterlimit:10;}
	.st1{fill:#D84440;}
</style>
<g>
	<path d="M1349.5,1328.5"/>
	<path class="st0" d="M1349.5,1328.5"/>
</g>
<g>
	<path class="st1" d="M1277.4,1180.8l150.6,142.7c19.9,18.9,19.9,49.3,0,68.2c-19.9,18.9-52.1,18.9-72,0L1205.4,1249
		c-19.9-18.9-19.9-49.3,0-68.2C1225.3,1161.9,1257.4,1161.9,1277.4,1180.8z"/>
	<path class="st1" d="M98.9,527l416.5-394.6c54.3-51.4,144-51.4,198.3,0l597,565.6c54.3,51.4,54.3,136.4,0,187.8l-33.2,31.5
		l150.6,142.7c19.9,18.9,19.9,49.3,0,68.2c-19.9,18.9-52.1,18.9-72,0l-151.7-142.7l-206,195.2l150.6,142.7
		c19.9,18.9,19.9,49.3,0,68.2c-19.9,18.9-52.1,18.9-72,0L926.3,1249l-33.2,31.5c-54.3,51.4-144,51.4-198.3,0l-597-565.6
		C44.6,663.4,44.6,578.4,98.9,527z M685.9,242.6L749,664.4l445.3,59.8L685.9,242.6z M170.9,646.6l597,565.6
		c15.5,14.7,39.9,14.7,55.4,0l407.6-386.2l-532.8-72.4c-11.1-1-21-6.3-28.8-13.6c-7.8-7.3-12.2-16.8-14.4-27.3L578.5,208
		L170.9,594.1C155.4,608.8,155.4,631.9,170.9,646.6z"/>
</g>
</svg>
