<?xml version="1.0" encoding="utf-8"?>
<!-- Generator: Adobe Illustrator 25.0.0, SVG Export Plug-In . SVG Version: 6.00 Build 0)  -->
<svg version="1.1" id="Layer_1" xmlns="http://www.w3.org/2000/svg" xmlns:xlink="http://www.w3.org/1999/xlink" x="0px" y="0px"
	 viewBox="0 0 500 500" style="enable-background:new 0 0 500 500;" xml:space="preserve">
<style type="text/css">
	.st0{fill:#010101;}
	.st1{fill:#53B67B;}
	.st2{fill:#D74341;}
	.st3{clip-path:url(#SVGID_2_);}
	.st4{clip-path:url(#SVGID_4_);fill:#FFFFFF;}
	.st5{clip-path:url(#SVGID_6_);fill:#D84441;}
	.st6{clip-path:url(#SVGID_8_);fill:#D84441;}
	.st7{clip-path:url(#SVGID_10_);fill:#D84441;}
</style>
<g>
	<path class="st0" d="M263.4,87.5c-22.1,0-40.1-18-40.1-40.1c0-22.1,18-40.1,40.1-40.1c22.1,0,40.1,18,40.1,40.1
		C303.5,69.5,285.5,87.5,263.4,87.5z"/>
	<path class="st0" d="M93.6,187.5l28.9-28.9c1.7-1.6,3.9-2.6,6.2-2.6c2.3,0,4.6,0.9,6.2,2.6l8.5,8.5c0.3-0.4,0.7-0.8,1.1-1.2
		c3.6-3.6,8.4-5.7,13.7-6c0.3-0.5,0.6-1.1,1-1.6l13.8-18.8c4-5.4,11-12.5,16.4-16.5L226,95.9c1.2-0.9,5.1-3.3,9.3-3.3
		c0,0,51.4,0,51.5,0c6,0.1,10.3,3.4,13.3,9.9l15.7,34.4c0.3,0.4,1.3,1.2,1.7,1.4l32.1,7.6c4.4,1,8.2,3.8,10.5,7.6
		c2.4,3.9,3.1,8.4,2.1,12.8c-1.8,7.7-8.6,13-16.5,13c-1.3,0-2.6-0.2-3.9-0.5l-32.4-7.7c-10-2.4-20.1-10.6-24.3-20l-1.3-2.9
		l-8.7,34.2l22.6,19.6c8.8,7.6,13.2,20.8,10.9,32.2L298,285.6c-1.7,8.3-9.1,14.3-17.5,14.3c-1.2,0-2.4-0.1-3.6-0.4
		c-9.7-2-15.9-11.4-14-21.1l10.2-50l-23.4-20.3c-0.6-0.5-1.2-1.1-1.7-1.7h-17.2l-11.6,43.1c-1.7,6.2-5.3,15.2-8.3,20.9l-25.4,46.9
		c-3.1,5.8-9.2,9.4-15.8,9.4c-0.3,0-0.6,0-1,0c-2.7-0.1-5.2-0.9-7.5-2.1c-8.7-4.7-11.9-15.6-7.2-24.2l25.4-46.9
		c1.8-3.3,4.3-9.5,5.2-13.1l24.3-89.5c-2.7,2.2-6.8,6.3-8.7,8.8l-13.8,18.8c-1.2,1.6-2.7,3-4.3,4.1c0.1,5.8-2,11.1-6,15.1
		c-0.4,0.4-0.8,0.7-1.2,1.1l8.5,8.5c3.4,3.4,3.4,9,0,12.4l-28.9,28.9c-1.7,1.6-3.9,2.6-6.2,2.6h0c-2.3,0-4.5-0.9-6.2-2.6l-48.6-48.5
		C90.2,196.5,90.2,190.9,93.6,187.5z M168.9,190.2c1.4-1.4,2.3-3.1,2.7-4.9c-3.2-0.2-6.2-1.3-8.8-3.2c-3.8-2.8-6.1-6.9-6.8-11.3
		c-1.6,0.5-3,1.3-4.2,2.5c-0.4,0.4-0.7,0.8-1,1.2l16.8,16.8C168.1,190.9,168.5,190.6,168.9,190.2z"/>
	<path class="st1" d="M339.1,267.9h58.5c5.7,0,10.3,4.6,10.3,10.3v179.7c0,5.7-4.6,10.3-10.3,10.3h-58.5c-5.7,0-10.3-4.6-10.3-10.3
		V278.2C328.8,272.5,333.4,267.9,339.1,267.9z"/>
	<path class="st1" d="M246.2,306.8h58.5c5.7,0,10.3,4.6,10.3,10.3v140.8c0,5.7-4.6,10.3-10.3,10.3h-58.5c-5.7,0-10.3-4.6-10.3-10.3
		V317.1C235.9,311.4,240.5,306.8,246.2,306.8z"/>
	<path class="st1" d="M153.3,332.8h58.5c5.7,0,10.3,4.6,10.3,10.3v114.8c0,5.7-4.6,10.3-10.3,10.3h-58.5c-5.7,0-10.3-4.6-10.3-10.3
		V343.1C143,337.4,147.6,332.8,153.3,332.8z"/>
</g>
<path class="st2" d="M-257.8,245.8"/>
<g>
	<path class="st2" d="M159.6,160.9c-0.4,0.5-1.1-0.7-1.4-0.2c-5.2,0.3-10,2.3-13.7,6c-0.4,0.4-0.7,0.8-1.1,1.2l-8.5-8.5
		c-1.7-1.6-3.9-2.6-6.2-2.6c-2.3,0-4.6,0.9-6.2,2.6l-28.9,28.9c-3.4,3.4-3.4,9,0,12.4l48.6,48.5c1.7,1.6,3.9,2.6,6.2,2.6h0
		c2.3,0,4.5-0.9,6.2-2.6l28.9-28.9c3.4-3.4,3.4-9,0-12.4l-8.5-8.5c0.4-0.3,0.8-0.7,1.2-1.1c4-4,6.1-9.3,6-15.1 M156.1,171.6
		c0.6,4.4,6.6,2.4,10.4,5.2 M171.6,186.1c-0.4,1.9-1.3,3.6-2.7,4.9c-0.4,0.4-0.8,0.7-1.2,1l-16.8-16.8c0.3-0.4,0.6-0.9,1-1.2
		c1.2-1.2,2.6-2,4.2-2.5"/>
</g>
<path class="st2" d="M32.3,147"/>
<g>
	<g>
		<g>
			<g>
				<defs>
					
						<rect id="SVGID_1_" x="115.3" y="182.1" transform="matrix(0.7071 -0.7071 0.7071 0.7071 -104.8642 159.2933)" width="49" height="48.3"/>
				</defs>
				<clipPath id="SVGID_2_">
					<use xlink:href="#SVGID_1_"  style="overflow:visible;"/>
				</clipPath>
				<g class="st3">
					<g>
						<g>
							<defs>
								
									<rect id="SVGID_3_" x="115.3" y="182.1" transform="matrix(0.7071 -0.7071 0.7071 0.7071 -104.8642 159.2933)" width="49" height="48.3"/>
							</defs>
							<clipPath id="SVGID_4_">
								<use xlink:href="#SVGID_3_"  style="overflow:visible;"/>
							</clipPath>
							<path class="st4" d="M123.7,189.9c2.3-2.3,4.6-4.6,6.7-6.7c1.3-1.3,3-1.6,4.8-1.1c6.7,2.1,13.3,3.8,20,6.2
								c1.3,0.3,2.7,1.7,3,3c2.2,6.5,4.1,13.3,6.2,20c0.5,1.8,0.2,3.5-1.1,4.8c-4.6,4.6-9.2,9.2-13.8,13.8c-1.3,1.3-3,1.6-4.8,1.1
								c-6.5-1.9-13-3.8-19.4-5.9c-1.8-0.5-3-1.7-3.7-3.7c-1.9-6.5-3.8-13-5.9-19.4c-0.7-2-0.2-3.5,1.3-5
								C119.1,194.5,121.4,192.2,123.7,189.9"/>
						</g>
					</g>
					<g>
						<g>
							<defs>
								
									<rect id="SVGID_5_" x="115.3" y="182.1" transform="matrix(0.7071 -0.7071 0.7071 0.7071 -104.8642 159.2933)" width="49" height="48.3"/>
							</defs>
							<clipPath id="SVGID_6_">
								<use xlink:href="#SVGID_5_"  style="overflow:visible;"/>
							</clipPath>
							<path class="st5" d="M125.7,191.9c2-2,3.9-3.9,5.9-5.9c1.1-1.1,2.5-1.5,4.1-1.1c5.8,1.6,11.7,3.5,17.3,5.2
								c1,0.3,2.2,1.5,2.7,2.7c1.7,6,3.5,11.7,5,17.5c0.5,1.8,0.2,3.2-0.9,4.3c-3.9,3.9-8,8-12.2,12.2c-1.3,1.3-2.8,1.5-4.3,0.9
								c-5.7-1.7-11.2-3.3-16.8-5c-1.7-0.4-2.8-1.5-3.2-3.2c-1.7-5.7-3.3-11.2-5.2-17c-0.5-1.8-0.2-3.2,1.1-4.5
								C121.8,196.2,123.7,193.9,125.7,191.9 M127.2,193.8c-1.8,1.8-3.6,3.6-5.4,5.4c-1,1-1.1,1.8-0.8,3.1c1.6,5.2,3,10.5,4.7,15.5
								c0.3,1,1.4,2,2.2,2.2c5.2,1.6,10.3,3.1,15.5,4.7c1.3,0.3,2.3,0,3.1-0.8c3.6-3.6,7.2-7.2,10.8-10.8c1-1,1.1-2.1,0.8-3.5
								c-1.6-5.2-2.9-10.2-4.5-15.3c-0.3-1.3-1.2-2.2-2.4-2.4c-5.2-1.6-10.3-3.1-15.5-4.7c-1.3-0.3-2.2-0.2-3.1,0.8
								C131.2,190.2,129,192,127.2,193.8"/>
						</g>
					</g>
					<g>
						<g>
							<defs>
								
									<rect id="SVGID_7_" x="115.3" y="182.1" transform="matrix(0.7071 -0.7071 0.7071 0.7071 -104.8642 159.2933)" width="49" height="48.3"/>
							</defs>
							<clipPath id="SVGID_8_">
								<use xlink:href="#SVGID_7_"  style="overflow:visible;"/>
							</clipPath>
							<polygon class="st6" points="136.6,194.9 132.1,199.3 145.6,200.6 146.9,214.1 151.4,209.7 150,196.2 							"/>
						</g>
					</g>
					<g>
						<g>
							<defs>
								
									<rect id="SVGID_9_" x="115.3" y="182.1" transform="matrix(0.7071 -0.7071 0.7071 0.7071 -104.8642 159.2933)" width="49" height="48.3"/>
							</defs>
							<clipPath id="SVGID_10_">
								<use xlink:href="#SVGID_9_"  style="overflow:visible;"/>
							</clipPath>
							
								<rect x="127.4" y="205" transform="matrix(0.7071 -0.7071 0.7071 0.7071 -106.2132 158.8331)" class="st7" width="22.5" height="5.2"/>
						</g>
					</g>
				</g>
			</g>
		</g>
	</g>
</g>
</svg>
