<?xml version="1.0" encoding="utf-8"?>
<!-- Generator: Adobe Illustrator 25.0.0, SVG Export Plug-In . SVG Version: 6.00 Build 0)  -->
<svg version="1.1" id="Layer_1" xmlns="http://www.w3.org/2000/svg" xmlns:xlink="http://www.w3.org/1999/xlink" x="0px" y="0px"
	 viewBox="0 0 1500 1500" style="enable-background:new 0 0 1500 1500;" xml:space="preserve">
<style type="text/css">
	.st0{fill:none;stroke:#FFFFFF;stroke-width:100;stroke-miterlimit:10;}
	.st1{fill:#53B67B;}
	.st2{fill:#D84440;}
</style>
<g>
	<path d="M1349.5,1328.5"/>
	<path class="st0" d="M1349.5,1328.5"/>
</g>
<g>
	<g>
		<path class="st1" d="M409.6,403.5H469c21.8,0,39.5-13.9,39.5-31.4V118.6c0-17.4-17.5-31.3-39.5-31.3h-59.4
			c-21.8,0-39.6,14-39.6,31.3v253.6C370,389.6,387.8,403.5,409.6,403.5z"/>
		<path class="st1" d="M1030.3,403.5h59.3c22.1,0,39.5-13.9,39.5-31.4V118.6c0-17.4-17.4-31.3-39.5-31.3h-59.3
			c-21.8,0-39.5,14-39.5,31.3v253.6C990.9,389.6,1008.5,403.5,1030.3,403.5z"/>
		<path class="st2" d="M1333.7,208.3h-157.3v194.2c0,43.3-39,78.6-87,78.6h-59.3c-48,0-87-35.3-87-78.6V208.3H555.8v194.2
			c0,43.3-39,78.6-87,78.6h-59.1c-47.8,0-87-35.3-87-78.6V208.3H165.3c-26.2,0-47.5,21.4-47.5,47.6v1089.5
			c0,26.2,21.3,47.5,29.1,47.5h1168.7c44.4,0,65.9-21.2,65.9-47.5V255.7C1381.4,229.7,1360,208.3,1333.7,208.3z M1308.2,1285.2
			c0,47.3-40.8,43.2-40.8,43.2h-426c0,0,260.5-130.6,466.8-315.9C1308.2,1012.5,1308.2,1230.5,1308.2,1285.2z M1317.2,881.7
			c-17.9,70.5-57.4,152.2-129.4,98.8c-105-77.7-208.4-143.7-221.8,12.6c-11,131.6-254.3,310.7-307.3,348.1H196.9
			c-8.3,0-14.8-6.6-14.8-14.8V654.6c0-8.3,6.6-14.9,14.8-14.9h1105.5c8.1,0,14.9,6.6,14.9,14.9L1317.2,881.7L1317.2,881.7z"/>
		<rect x="370" y="755.5" class="st1" width="184.6" height="184.5"/>
		<rect x="673.7" y="755.5" class="st1" width="184.5" height="184.5"/>
		<rect x="370" y="1035.5" class="st1" width="184.6" height="184.5"/>
		<path class="st1" d="M673.7,1220.1h53.4c39-36.6,97.9-97,131.1-138.5v-46H673.7V1220.1z"/>
		<path class="st1" d="M967.7,842.6c18.6-18.2,41-23.7,61.1-23.7c38,0,79.8,21.2,123.3,50V755.5H967.7V842.6z"/>
	</g>
</g>
</svg>
