<?xml version="1.0" encoding="utf-8"?>
<!-- Generator: Adobe Illustrator 25.0.0, SVG Export Plug-In . SVG Version: 6.00 Build 0)  -->
<svg version="1.1" id="Layer_1" xmlns="http://www.w3.org/2000/svg" xmlns:xlink="http://www.w3.org/1999/xlink" x="0px" y="0px"
	 viewBox="0 0 500 500" style="enable-background:new 0 0 500 500;" xml:space="preserve">
<style type="text/css">
	.st0{fill:#D74341;}
	.st1{clip-path:url(#SVGID_2_);}
	.st2{clip-path:url(#SVGID_4_);fill:#FFFFFF;}
	.st3{clip-path:url(#SVGID_6_);fill:#D84441;}
	.st4{clip-path:url(#SVGID_8_);fill:#D84441;}
	.st5{clip-path:url(#SVGID_10_);fill:#D84441;}
	.st6{fill:#53B67B;}
</style>
<path class="st0" d="M-257.8,245.8"/>
<path class="st0" d="M32.3,147"/>
<g>
	<g>
		<g>
			<defs>
				<rect id="SVGID_1_" x="296.6" y="226.4" width="109.5" height="111.1"/>
			</defs>
			<clipPath id="SVGID_2_">
				<use xlink:href="#SVGID_1_"  style="overflow:visible;"/>
			</clipPath>
			<g class="st1">
				<g>
					<g>
						<defs>
							<rect id="SVGID_3_" x="296.6" y="226.4" width="109.5" height="111.1"/>
						</defs>
						<clipPath id="SVGID_4_">
							<use xlink:href="#SVGID_3_"  style="overflow:visible;"/>
						</clipPath>
						<path class="st2" d="M299.3,281.7c0-7.4,0-14.7,0-21.6c0-4.2,2.2-7.4,5.9-9.5c14-7.4,27.5-15.3,42.1-22.1c2.7-1.6,7-1.6,9.7,0
							c14,6.8,28,14.7,42.1,22.1c3.8,2.1,5.9,5.3,5.9,9.5c0,14.7,0,29.5,0,44.2c0,4.2-2.2,7.4-5.9,9.5c-13.5,7.4-27,14.7-40.4,21.6
							c-3.8,2.1-7.5,2.1-11.9,0c-13.5-7.4-27-14.7-40.4-21.6c-4.3-2.1-5.9-5.3-5.9-10C299.3,296.5,299.3,289.1,299.3,281.7"/>
					</g>
				</g>
				<g>
					<g>
						<defs>
							<rect id="SVGID_5_" x="296.6" y="226.4" width="109.5" height="111.1"/>
						</defs>
						<clipPath id="SVGID_6_">
							<use xlink:href="#SVGID_5_"  style="overflow:visible;"/>
						</clipPath>
						<path class="st3" d="M305.7,281.7c0-6.3,0-12.6,0-19c0-3.7,1.6-6.3,4.9-8.4c11.9-6.8,24.3-13.2,36.1-19.5
							c2.2-1.1,5.9-1.1,8.6,0c12.4,6.8,24.3,13.2,36.1,20c3.8,2.1,5.4,4.7,5.4,8.4c0,12.6,0,25.8,0,39c0,4.2-2.2,6.8-5.4,8.4
							c-11.9,6.3-23.2,12.6-35.1,19c-3.2,2.1-7,2.1-10.2,0c-11.9-6.3-23.2-12.6-35.6-19c-3.8-2.1-5.4-4.7-5.4-9
							C306.3,294.9,305.7,288,305.7,281.7 M311.1,282.2c0,5.8,0,11.6,0,17.4c0,3.2,1.1,4.7,3.8,6.3c10.8,5.8,21.6,12.1,32.4,17.4
							c2.2,1.1,5.4,1.1,7,0c10.8-5.8,21.6-11.6,32.4-17.4c2.7-1.6,3.8-3.7,3.8-6.3c0-11.6,0-23.2,0-34.8c0-3.2-1.6-5.3-4.3-6.8
							c-10.8-5.8-21-11.6-31.8-17.4c-2.7-1.6-5.4-1.6-7.5,0c-10.8,5.8-21.6,11.6-32.4,17.4c-2.7,1.6-3.8,3.2-3.8,6.3
							C311.7,270.1,311.1,276.4,311.1,282.2"/>
					</g>
				</g>
				<g>
					<g>
						<defs>
							<rect id="SVGID_7_" x="296.6" y="226.4" width="109.5" height="111.1"/>
						</defs>
						<clipPath id="SVGID_8_">
							<use xlink:href="#SVGID_7_"  style="overflow:visible;"/>
						</clipPath>
						<polygon class="st4" points="327.8,269.1 327.8,283.3 351.6,263.8 375.3,283.3 375.3,269.1 351.6,249.6 						"/>
					</g>
				</g>
				<g>
					<g>
						<defs>
							<rect id="SVGID_9_" x="296.6" y="226.4" width="109.5" height="111.1"/>
						</defs>
						<clipPath id="SVGID_10_">
							<use xlink:href="#SVGID_9_"  style="overflow:visible;"/>
						</clipPath>
						<rect x="345.6" y="260.6" class="st5" width="11.9" height="51.1"/>
					</g>
				</g>
			</g>
		</g>
	</g>
</g>
<path class="st0" d="M258.8,48.3c-20.9,0-37.8,16.1-37.8,35.8s17,35.8,37.8,35.8s37.8-16.1,37.8-35.8S279.5,48.3,258.8,48.3z
	 M401.7,151.5l-26.4-10.3L362,179.6c-2.6,7.4-9.7,12.1-17.6,12.1c-1.7,0-3.4-0.2-5-0.7l-55.2-14.7v0.4l-10.3,96.3l39.1,52.3
	c3,3.9,4.5,8.7,4.5,13.5v105.7c0,12.8-11,23.1-24.5,23.1h-0.2c-13.5,0-24.3-10.5-24.3-23.2v-98.3l-39.5-52.7l-9.9,4.4l-9.9,69.5
	c-0.6,4.3-2.4,8.2-5.2,11.5l-69,80.2c-4.9,5.7-11.8,8.5-18.9,8.5c-5.4,0-10.8-1.8-15.5-5.1c-10.5-8.2-12-22.7-3.6-32.6l64.5-75
	l25.2-202L107,51c-6.7-8.3-4.9-20.4,4.1-26.8s21.5-4.6,28.2,3.9l73.3,93.1l119.7,31.2l8.6-24.7l-9.9-3.9c-4.9,3.5-11.6,4.6-17.6,2.3
	c-9-3.5-13.5-13.3-9.7-22c3.7-8.5,14-12.8,23.2-9.2c6.2,2.3,10.1,7.6,10.8,13.3l8.8,3.4l0.2-0.4c3.2-9.2,13.7-14.2,23.4-11.2
	c9.7,3,15,12.9,11.8,22.2l-0.9,2.7l27.5,10.6L401.7,151.5z"/>
<path class="st6" d="M401.7,151.5l-26.4-10.3L362,179.6c-2.6,7.4-9.7,12.1-17.6,12.1c-1.7,0-3.4-0.2-5-0.7l-55.2-14.7v0.4
	l-10.3,96.3l39.1,52.3c3,3.9,4.5,8.7,4.5,13.5v105.7c0,12.8-11,23.1-24.5,23.1h-0.2c-13.5,0-24.3-10.5-24.3-23.2v-98.3l-39.5-52.7
	l-9.9,4.4l-9.9,69.5c-0.6,4.3-2.4,8.2-5.2,11.5l-69,80.2c-4.9,5.7-11.8,8.5-18.9,8.5c-5.4,0-10.8-1.8-15.5-5.1
	c-10.5-8.2-12-22.7-3.6-32.6l64.5-75l25.2-202L107,51c-6.7-8.3-4.9-20.4,4.1-26.8s21.5-4.6,28.2,3.9l73.3,93.1l119.7,31.2l8.6-24.7
	l-9.9-3.9c-4.9,3.5-11.6,4.6-17.6,2.3c-9-3.5-13.5-13.3-9.7-22c3.7-8.5,14-12.8,23.2-9.2c6.2,2.3,10.1,7.6,10.8,13.3l8.8,3.4
	l0.2-0.4c3.2-9.2,13.7-14.2,23.4-11.2c9.7,3,15,12.9,11.8,22.2l-0.9,2.7l27.5,10.6L401.7,151.5z"/>
</svg>
