<?xml version="1.0" encoding="UTF-8"?>
<svg width="23px" height="23px" viewBox="0 0 23 23" version="1.1" xmlns="http://www.w3.org/2000/svg" xmlns:xlink="http://www.w3.org/1999/xlink">
    <!-- Generator: Sketch 64 (93537) - https://sketch.com -->
    <title>Google</title>
    <desc>Created with Sketch.</desc>
    <g id="Page-1" stroke="none" stroke-width="1" fill="none" fill-rule="evenodd">
        <g id="Desktop-Login-1920" transform="translate(-1210.000000, -675.000000)" fill-rule="nonzero">
            <g id="Modal" transform="translate(1120.000000, 140.000000)">
                <g id="Btn-Google" transform="translate(60.000000, 519.000000)">
                    <g id="Google" transform="translate(30.000000, 16.000000)">
                        <path d="M22.0697143,9.47314286 L12.7142857,9.47314286 C12.3021235,9.47314286 11.968,9.80726635 11.968,10.2194286 L11.968,13.2102857 C11.968,13.6224479 12.3021235,13.9565714 12.7142857,13.9565714 L17.984,13.9565714 C17.4080199,15.4472791 16.340914,16.6970064 14.9588571,17.4994286 L17.2034286,21.3851429 C20.7523628,19.3881532 22.9446074,15.6287706 22.9348571,11.5565714 C22.9389653,11.0640919 22.8961047,10.5723427 22.8068571,10.088 C22.7396725,9.73321198 22.4307993,9.47557819 22.0697143,9.47314286 Z" id="Path_394" fill="#167EE6"></path>
                        <path d="M11.4674286,18.4457143 C8.97506081,18.4440382 6.6727958,17.1132114 5.42742857,14.9542857 L1.54171429,17.1942857 C3.05940364,19.8292136 5.56229551,21.7527438 8.49906424,22.5411697 C11.435833,23.3295957 14.565565,22.91824 17.1988571,21.3977143 L17.1988571,21.3977143 L14.9542857,17.512 C13.8950744,18.1262395 12.6918515,18.4484398 11.4674286,18.4457143 L11.4674286,18.4457143 Z" id="Path_395" fill="#12B347"></path>
                        <path d="M17.1988571,21.3977143 L17.1988571,21.3977143 L14.9542857,17.512 C13.8956496,18.1286745 12.6925804,18.4539882 11.4674286,18.4548571 L11.4674286,22.944 C13.4808274,22.9429531 15.4581439,22.4094916 17.1988571,21.3977143 Z" id="Path_396" fill="#0F993E"></path>
                        <path d="M4.48914286,11.4674286 C4.49001184,10.2422767 4.81532554,9.03920754 5.432,7.98057143 L1.54628571,5.74057143 C-0.509710119,9.28127189 -0.509710119,13.6524424 1.54628571,17.1931429 L5.432,14.9531429 C4.81332753,13.8957593 4.48785727,12.6925057 4.48914286,11.4674286 Z" id="Path_397" fill="#FFD500"></path>
                        <path d="M11.4674286,4.48914286 C13.0840898,4.4880612 14.6505512,5.05062939 15.8971429,6.08 C16.1928778,6.32543033 16.6266464,6.30614073 16.8994286,6.03542857 L19.016,3.91885714 C19.1631391,3.77050979 19.2419248,3.56763279 19.2334699,3.3588617 C19.225015,3.15009061 19.1300818,2.95424896 18.9714286,2.81828571 C16.3929278,0.567030901 12.9411083,-0.409931634 9.56524437,0.156069552 C6.18938043,0.722070738 3.24495826,2.77143442 1.54171429,5.74057143 L5.42742857,7.98057143 C6.6727958,5.8216457 8.97506081,4.4908189 11.4674286,4.48914286 L11.4674286,4.48914286 Z" id="Path_398" fill="#FF4B26"></path>
                        <path d="M15.8971429,6.08 C16.1928778,6.32543033 16.6266464,6.30614073 16.8994286,6.03542857 L19.016,3.91885714 C19.1631391,3.77050979 19.2419248,3.56763279 19.2334699,3.3588617 C19.225015,3.15009061 19.1300818,2.95424896 18.9714286,2.81828571 C16.8939488,1.00108176 14.2275286,-0.000348659134 11.4674286,-9.10114579e-08 L11.4674286,4.48914286 C13.0844898,4.48575439 14.6517102,5.04859515 15.8971429,6.08 L15.8971429,6.08 Z" id="Path_399" fill="#D93F21"></path>
                    </g>
                </g>
            </g>
        </g>
    </g>
</svg>