<?xml version="1.0" encoding="UTF-8"?>
<svg width="130px" height="160px" viewBox="0 0 130 160" version="1.1" xmlns="http://www.w3.org/2000/svg" xmlns:xlink="http://www.w3.org/1999/xlink">
    <title>Illu</title>
    <defs>
        <linearGradient x1="0.178997613%" y1="50.0050634%" x2="100.178998%" y2="50.0050634%" id="linearGradient-1">
            <stop stop-color="#000000" offset="1%"></stop>
            <stop stop-color="#000000" stop-opacity="0" offset="100%"></stop>
        </linearGradient>
        <linearGradient x1="5.87695133%" y1="50%" x2="94.1230487%" y2="75.5613692%" id="linearGradient-2">
            <stop stop-color="#7E5230" offset="0%"></stop>
            <stop stop-color="#E1A47A" offset="100%"></stop>
        </linearGradient>
        <linearGradient x1="40.7356948%" y1="50%" x2="119.788828%" y2="50%" id="linearGradient-3">
            <stop stop-color="#000000" offset="1%"></stop>
            <stop stop-color="#000000" stop-opacity="0" offset="100%"></stop>
        </linearGradient>
        <linearGradient x1="6.44444444%" y1="50%" x2="93.5555556%" y2="75.5613692%" id="linearGradient-4">
            <stop stop-color="#7E5230" offset="0%"></stop>
            <stop stop-color="#E1A47A" offset="100%"></stop>
        </linearGradient>
        <linearGradient x1="52.2428084%" y1="1117.15485%" x2="111.952956%" y2="1117.15485%" id="linearGradient-5">
            <stop stop-color="#000000" offset="1%"></stop>
            <stop stop-color="#000000" stop-opacity="0" offset="100%"></stop>
        </linearGradient>
        <linearGradient x1="0.0159407337%" y1="601.823282%" x2="100%" y2="601.823282%" id="linearGradient-6">
            <stop stop-color="#000000" offset="1%"></stop>
            <stop stop-color="#000000" stop-opacity="0" offset="100%"></stop>
        </linearGradient>
        <linearGradient x1="0.390070922%" y1="4482.07068%" x2="99.893617%" y2="4482.07068%" id="linearGradient-7">
            <stop stop-color="#000000" offset="1%"></stop>
            <stop stop-color="#000000" stop-opacity="0" offset="100%"></stop>
        </linearGradient>
        <linearGradient x1="0.410907733%" y1="4859.88751%" x2="100%" y2="4859.88751%" id="linearGradient-8">
            <stop stop-color="#000000" offset="1%"></stop>
            <stop stop-color="#000000" stop-opacity="0" offset="100%"></stop>
        </linearGradient>
        <linearGradient x1="2.01999167%" y1="50%" x2="97.9800083%" y2="75.5613692%" id="linearGradient-9">
            <stop stop-color="#7E5230" offset="0%"></stop>
            <stop stop-color="#E1A47A" offset="100%"></stop>
        </linearGradient>
        <linearGradient x1="0%" y1="50%" x2="100%" y2="72.9415058%" id="linearGradient-10">
            <stop stop-color="#7E5230" offset="0%"></stop>
            <stop stop-color="#E1A47A" offset="100%"></stop>
        </linearGradient>
        <linearGradient x1="0.825459483%" y1="2220.46443%" x2="100.675241%" y2="2220.46443%" id="linearGradient-11">
            <stop stop-color="#ECC4D7" offset="0%"></stop>
            <stop stop-color="#EFD4D1" offset="42%"></stop>
            <stop stop-color="#F2EAC9" offset="100%"></stop>
        </linearGradient>
        <linearGradient x1="22.4765869%" y1="50%" x2="77.5234131%" y2="75.5613692%" id="linearGradient-12">
            <stop stop-color="#7E5230" offset="0%"></stop>
            <stop stop-color="#E1A47A" offset="100%"></stop>
        </linearGradient>
        <linearGradient x1="0%" y1="50%" x2="100%" y2="68.9962613%" id="linearGradient-13">
            <stop stop-color="#7E5230" offset="0%"></stop>
            <stop stop-color="#E1A47A" offset="100%"></stop>
        </linearGradient>
        <linearGradient x1="5.25931337%" y1="50%" x2="94.7406866%" y2="75.5613692%" id="linearGradient-14">
            <stop stop-color="#7E5230" offset="0%"></stop>
            <stop stop-color="#E1A47A" offset="100%"></stop>
        </linearGradient>
        <linearGradient x1="98.713706%" y1="9.91957605%" x2="-238.45543%" y2="270.850804%" id="linearGradient-15">
            <stop stop-color="#000000" stop-opacity="0" offset="0%"></stop>
            <stop stop-color="#000000" offset="99%"></stop>
        </linearGradient>
        <linearGradient x1="48.2505071%" y1="44.9136409%" x2="57.898073%" y2="85.6954032%" id="linearGradient-16">
            <stop stop-color="#000000" stop-opacity="0" offset="0%"></stop>
            <stop stop-color="#000000" offset="99%"></stop>
        </linearGradient>
        <linearGradient x1="46.1212541%" y1="43.2544797%" x2="110.263915%" y2="150.767897%" id="linearGradient-17">
            <stop stop-color="#000000" stop-opacity="0" offset="0%"></stop>
            <stop stop-color="#000000" offset="99%"></stop>
        </linearGradient>
        <linearGradient x1="44.6257551%" y1="13.3789727%" x2="68.8266233%" y2="294.36529%" id="linearGradient-18">
            <stop stop-color="#000000" stop-opacity="0" offset="0%"></stop>
            <stop stop-color="#000000" offset="99%"></stop>
        </linearGradient>
        <linearGradient x1="28.0207135%" y1="27.2494735%" x2="146.087457%" y2="206.271049%" id="linearGradient-19">
            <stop stop-color="#000000" stop-opacity="0" offset="0%"></stop>
            <stop stop-color="#000000" offset="99%"></stop>
        </linearGradient>
        <linearGradient x1="104.969691%" y1="23.3078001%" x2="-262.708782%" y2="216.391067%" id="linearGradient-20">
            <stop stop-color="#000000" stop-opacity="0" offset="0%"></stop>
            <stop stop-color="#000000" offset="99%"></stop>
        </linearGradient>
        <linearGradient x1="124.068819%" y1="6.69519845%" x2="-508.760228%" y2="336.155244%" id="linearGradient-21">
            <stop stop-color="#000000" stop-opacity="0" offset="0%"></stop>
            <stop stop-color="#000000" offset="99%"></stop>
        </linearGradient>
        <linearGradient x1="46.9512035%" y1="47.561136%" x2="109.531453%" y2="79.6218547%" id="linearGradient-22">
            <stop stop-color="#000000" stop-opacity="0" offset="0%"></stop>
            <stop stop-color="#000000" offset="99%"></stop>
        </linearGradient>
        <linearGradient x1="45.9186031%" y1="12.0583444%" x2="56.6202989%" y2="154.95961%" id="linearGradient-23">
            <stop stop-color="#000000" stop-opacity="0" offset="0%"></stop>
            <stop stop-color="#000000" stop-opacity="0.66" offset="86%"></stop>
            <stop stop-color="#000000" offset="99%"></stop>
        </linearGradient>
        <linearGradient x1="53.4553094%" y1="41.8203469%" x2="45.826417%" y2="58.9776067%" id="linearGradient-24">
            <stop stop-color="#000000" stop-opacity="0" offset="0%"></stop>
            <stop stop-color="#000000" stop-opacity="0.66" offset="86%"></stop>
            <stop stop-color="#000000" offset="99%"></stop>
        </linearGradient>
        <linearGradient x1="25.2374828%" y1="87.3913527%" x2="125.248745%" y2="-53.3948708%" id="linearGradient-25">
            <stop stop-color="#000000" stop-opacity="0" offset="0%"></stop>
            <stop stop-color="#000000" offset="99%"></stop>
        </linearGradient>
    </defs>
    <g id="🚀-Acquisition-[Sign-up]" stroke="none" stroke-width="1" fill="none" fill-rule="evenodd">
        <g id="1440px-•-Sign-up-Step-1-RA-+-Artiste" transform="translate(-461.000000, -275.000000)">
            <g id="Content" transform="translate(280.000000, 128.000000)">
                <g id="Body" transform="translate(64.000000, 107.000000)">
                    <g id="Content" transform="translate(40.000000, 40.000000)">
                        <g id="Illu" transform="translate(77.000000, 0.000000)">
                            <path d="M42.0235548,17.8183996 C37.5629841,25.8860596 35.9074579,35.7523122 29.219352,42.1390956 C25.8147981,45.4105085 21.4147284,47.3897817 17.4381655,49.9384723 C9.24303569,55.1864208 2.61543074,63.2841942 0.596898771,72.7617099 C-1.42163319,82.2392256 1.71341645,93.0061434 9.48503952,98.8235093 C16.1428949,103.803175 25.3335405,104.881783 31.4193869,110.551319 C42.7468162,121.047216 39.1195088,142.939675 52.6277227,150.468031 C59.40658,154.245897 68.1737189,152.477418 74.5923205,148.100021 C81.0109222,143.722624 85.5347438,137.212649 89.8963129,130.823128 C97.6386021,119.546107 105.380891,108.280037 113.123181,97.0249167 C116.739488,91.7742306 120.416296,86.3784526 121.772068,80.1696121 C123.518345,72.1320656 120.947055,63.3143076 115.141713,57.4668283 C107.40034,49.697565 94.4146344,46.7902508 90.2263181,36.6611901 C88.1500352,31.5911846 88.8705466,25.8641589 89.1730514,20.4054165 C90.8588281,-10.433467 52.4764703,-1.13663181 42.0235548,17.8183996 Z" id="Path" fill="#EB6345" fill-rule="nonzero" opacity="0.18"></path>
                            <path d="M65.1710422,11.0481029 C65.5910899,11.2029623 68.2666667,16.3555556 68.2666667,16.3555556 L67.0956245,16.1077806 C67.0956245,16.1077806 66.3319014,13.7313933 64,13.7313933 C64,13.7933371 64.2342084,10.710228 65.1710422,11.0481029 Z" id="Path" fill="url(#linearGradient-1)" fill-rule="nonzero"></path>
                            <path d="M102.900432,132.035451 C102.900432,132.035451 96.0579851,133.736553 94.8430737,130.924137 C94.7740757,130.772736 94.7252131,130.613019 94.6977231,130.44903 C94.0669564,126.978563 95.9592564,111.903468 95.9592564,111.903468 C95.9592564,111.903468 79.8555093,100.894089 72.922561,102.778134 C67.0564311,104.364555 38.1536057,134.069674 29.1692945,143.372491 C27.5619991,145.042104 25.0772725,145.53208 22.9521292,144.598485 C21.7247181,144.052401 20.8038348,142.992366 20.4379327,141.704378 C20.0720305,140.41639 20.2988102,139.033156 21.0570867,137.927872 L50.9938209,94.9006396 L52.6694663,92.4896073 L79.8609943,86.7555556 C79.8609943,86.7555556 107.95205,98.3929501 110.806955,103.119447 C113.66186,107.845944 102.900432,132.035451 102.900432,132.035451 Z" id="Path" fill="#EB6345" fill-rule="nonzero"></path>
                            <path d="M82.4874665,81.7368477 C82.457017,84.3826888 82.0916238,87.1191033 80.6688046,89.3422685 C78.2107045,93.1847764 73.266823,94.5571006 68.7796831,95.5973224 C65.9589579,96.2587826 63.0773338,96.9202429 60.1680284,96.6485227 C57.258723,96.3768025 54.3383451,95.0374141 52.9072215,92.53155 C52.9024281,92.5205259 52.8958865,92.5103334 52.8878446,92.5013589 C52.0103472,90.9369093 51.7972011,89.1034841 51.6145045,87.3276966 C50.6456587,78.5448215 49.676813,69.5972676 50.3660775,60.8143925 C50.5414486,58.4887965 50.8501327,56.174978 51.2906332,53.8841552 C51.4235035,53.1815252 51.5674463,52.4843844 51.7363022,51.7872437 C52.4255668,48.8065555 53.9895607,43.9485278 56.5832991,40.9760735 C57.9922777,39.3594755 59.7029825,38.3027859 61.7430948,38.4070825 C64.2925432,38.5580382 66.8696729,38.7968226 69.4163532,39.1289251 C71.2654645,39.4033899 73.2363736,39.7300031 74.6619609,40.9623502 C77.0591621,43.0071133 77.0287127,46.6465172 77.1809599,49.8028629 C77.7013685,60.5975653 82.5843511,70.9256774 82.4874665,81.7368477 Z" id="Path" fill="#EB6345" fill-rule="nonzero"></path>
                            <path d="M60.603705,39.1579911 C60.6647992,40.6027231 65.899466,43.8680979 66.9908315,43.3154529 C68.790335,43.5454879 69.3929465,43.0601701 69.6984178,41.7388716 C70.1233005,39.8957863 70.2760362,37.8675509 69.4540408,36.1282619 C68.8153281,34.7452466 67.598997,33.6708149 66.2299304,32.9947364 C64.7997694,32.2877996 60.3982061,30.6579175 59.2318613,32.4729497 C58.3432176,33.8475491 60.5648268,37.435534 60.603705,39.1579911 Z" id="Path" fill="url(#linearGradient-2)" fill-rule="nonzero"></path>
                            <ellipse id="Oval" fill="url(#linearGradient-3)" fill-rule="nonzero" cx="67.0222222" cy="19.2" rx="4.08888889" ry="4.62222222"></ellipse>
                            <path d="M67.0595485,15.2329808 C67.5157482,15.8250577 67.9003808,16.4686456 68.2054935,17.1504375 C69.6207494,19.971838 71.0332572,22.763107 72.4485131,25.5845076 C73.1107979,26.9349449 73.822548,28.4031688 73.5340006,29.9042635 C73.3608228,30.7398877 72.9562199,31.5104288 72.366071,32.1285132 C71.4745422,33.151283 70.3328771,33.926928 69.051899,34.3801552 C67.0952734,35.0704396 64.8693369,34.9499137 62.8824825,34.2897608 C60.8956282,33.6296079 59.1176271,32.4873515 57.4935179,31.1670457 C56.1991771,30.117923 54.9625457,28.9181429 54.2398034,27.3869168 C53.6379761,26.0666109 53.5472898,20.9963077 53.8798063,19.9745772 C54.7784251,16.9449957 57.064819,15.5562092 59.8046445,14.4221705 C62.3328686,13.4031793 65.0424653,12.7430263 67.0595485,15.2329808 Z" id="Path" fill="url(#linearGradient-4)" fill-rule="nonzero"></path>
                            <path d="M60.2316567,5.51421802 C61.3016949,4.55138827 62.6310387,3.91020206 64.0616843,3.66686985 C65.3984499,3.42744918 66.8572439,3.54715951 68.0109669,4.29262843 C69.1646899,5.03809736 69.924594,6.40932486 69.6222964,7.7206972 C69.1341828,10.0740936 66.016912,10.8195625 64.6302257,12.8165486 C64.0533642,13.6327555 63.7982139,14.6040416 63.3849814,15.4991485 C62.5030489,17.2267863 60.5589147,18.5980138 58.6147805,18.1817483 C57.5803125,17.9423276 56.3960824,17.2866415 55.5640706,17.9423276 C54.9261949,18.4510966 55.3505209,19.4332655 55.1092375,20.208662 C53.0430749,27.1246547 58.6341941,30.6697131 58.4372847,31.0914199 C58.1017066,31.9076268 50.9325383,32.1035164 50.0506059,31.9538785 C49.1686734,31.8042406 48.4420497,31.2383372 47.8319078,30.6125786 C46.1013232,28.9148684 44.9476002,26.3220513 45.7962523,24.0557169 C46.1318303,23.1633308 46.739199,22.3580067 46.769706,21.4030447 C46.8002131,20.5378654 46.3148729,19.770631 46.009802,18.9544241 C44.7950647,15.8827657 46.2233516,12.0384314 49.1409396,10.4305039 C50.0422542,9.9753491 50.98816,9.61073717 51.964233,9.34222813 C53.5450554,8.86610747 55.1258777,8.47704888 56.7039268,8.0308558 C58.2265083,7.57105927 59.0779337,6.52631451 60.2316567,5.51421802 Z" id="Path" fill="#3F3D56" fill-rule="nonzero"></path>
                            <path d="M59.871167,28.6229155 C60.5971248,31.2079237 59.4488417,33.762746 57.3013317,34.3637192 C55.1538216,34.9646925 52.8544952,33.342888 52.1285374,30.7578798 C51.4025797,28.1728716 52.553623,25.6153051 54.7011331,25.0143318 C56.8486432,24.4133586 59.1452092,26.0296748 59.871167,28.6229155 Z" id="Path" fill="url(#linearGradient-5)" fill-rule="nonzero"></path>
                            <path d="M56.8888889,27.170495 L52.9459366,28.0888889 C41.848109,10.4233131 52.7588623,5.42076775 53.7028683,5.00749052 C53.7345271,5.00749052 53.7345271,4.97777778 53.7661858,4.97777778 C52.9758039,5.48347283 52.3183639,6.15130456 51.8436368,6.93071529 C47.745269,13.5809672 56.8888889,27.170495 56.8888889,27.170495 Z" id="Path" fill="url(#linearGradient-6)" fill-rule="nonzero"></path>
                            <path d="M59.7333333,6.33927885 L59.3366745,6.56100048 L57.0870922,7.82222222 C54.5656738,6.22697828 52.8958235,6.30760433 51.9111111,6.65602403 C52.1772599,6.1777991 52.5089661,5.74227943 52.8958235,5.36312777 C53.1778509,5.07480367 53.4821398,4.81092811 53.8056422,4.5741443 L53.8056422,4.5741443 C56.3492514,3.31292256 59.7333333,6.33927885 59.7333333,6.33927885 Z" id="Path" fill="url(#linearGradient-7)" fill-rule="nonzero"></path>
                            <path d="M59.0222222,6.45101773 L56.8679035,7.82222222 C54.4532603,6.08786768 52.8541236,6.17552459 51.9111111,6.55432766 C52.1659893,6.03439992 52.4836485,5.56090148 52.8541236,5.14868652 C53.0267879,4.97650331 53.2313286,4.76988346 53.4358693,4.59770024 L53.4358693,4.59770024 C55.6459719,3.36424232 58.4989167,5.9375987 59.0222222,6.45101773 Z" id="Path" fill="url(#linearGradient-8)" fill-rule="nonzero"></path>
                            <path d="M56.4146985,43.850777 C56.8596041,44.6731957 56.5639046,45.6820292 56.2654923,46.553793 C55.7229245,48.1163885 54.6757687,51.661013 53.4441398,54.8163593 C52.4946462,57.2424944 51.4339261,59.4356109 50.4057601,60.3155989 C50.3515034,60.3622026 50.2999594,60.4060649 50.2457026,60.4444444 C48.319587,54.4407881 44.8200247,55.2933621 41.1387022,54.4819091 C37.83989,53.760922 30.2303766,53.0700903 26.9017232,52.4998801 C21.5520047,51.6007023 18.7008109,52.0804465 18.8500171,47.3652461 C18.9368279,43.850777 21.7608933,40.8791042 24.9104994,39.3466641 C28.0601054,37.8142239 31.5976475,37.3344797 34.9859833,36.4325606 C38.4936842,35.5032275 41.7029727,33.0085575 45.150991,32.1395351 C48.0048976,31.4487034 49.8170741,33.400577 51.1192368,36.2817838 C51.3047187,36.6097346 51.3781313,36.9902958 51.3281254,37.3646351 C51.1996316,37.7296293 50.9603823,38.0443111 50.64449,38.2638128 C46.16288,42.1785257 43.9003722,41.4794698 38.2847955,43.3107221 C43.0756692,42.8008225 49.5620672,40.8900698 56.4987965,40.5007916 C57.3072225,40.4514465 58.1210742,40.4267739 58.9403516,40.4267739 C59.5941458,40.4267739 56.1081477,43.2504114 56.4146985,43.850777 Z" id="Path" fill="#EB6345" fill-rule="nonzero"></path>
                            <path d="M116.602686,17.4382165 C116.512248,17.9876323 116.123093,18.3996942 115.701052,18.7925265 C111.677957,22.704367 107.624717,26.6162075 103.601622,30.4978302 C96.9969506,36.9095127 90.392279,43.2882302 83.7876073,49.6999127 C81.2334355,52.1722838 78.2627035,54.8149738 74.6890555,54.7545381 C73.9381509,51.4745257 71.9868952,45.6369828 72.7980914,42.3267525 C72.9323772,41.7773367 71.9019388,40.0906302 72.2499858,39.631868 C72.3212396,39.5329732 75.0809509,39.2720007 75.9058497,38.7418144 C77.5803122,37.6594653 79.5589731,36.7941354 80.9401991,35.8848522 C87.9624123,31.2743964 94.4992386,25.9608256 100.450015,20.0259649 C103.420747,17.0453842 106.451771,13.7983368 110.113116,11.9358172 C110.622287,11.6749877 111.145634,11.4429539 111.680698,11.2408062 C112.315182,11.001499 112.966466,10.8095949 113.629213,10.6666667 C114.500701,12.4412797 115.371275,14.2168085 116.240936,15.9932529 C116.451957,16.4437739 116.693123,16.9272598 116.602686,17.4382165 Z" id="Path" fill="#EB6345" fill-rule="nonzero"></path>
                            <path d="M114.990219,8.607253 C115.174231,6.8448048 115.051557,4.95958545 115.826639,3.37720162 C116.007863,2.98706216 116.406557,2.53962949 116.833131,2.6596724 C117.201156,2.74970458 117.3545,3.205322 117.443718,3.55453774 C117.722525,5.04961763 117.474387,6.69475116 118.238317,8.03977742 C120.011527,5.61709321 121.751281,3.16712652 123.535644,0.747170565 C123.839543,0.327020376 124.266117,-0.120412293 124.756817,0.029641346 C124.664811,2.29954367 123.443638,4.36209914 122.281014,6.3046117 C122.771713,5.8271683 123.655531,6.15728631 123.953854,6.75477262 C124.252177,7.35225893 124.076529,8.06978814 123.769841,8.6645462 C124.320249,8.28824508 125.074627,8.39448764 125.49425,8.90740292 C125.913874,9.42031819 125.854723,10.1638669 125.359039,10.6070588 L129.421253,9.44209688 C129.451922,10.1596261 128.749329,10.6370695 128.108073,10.99447 C123.52728,13.5944903 118.88236,16.2272496 113.752317,17.4222222 C112.804375,15.9571531 111.644539,14.2547263 112.915897,12.8796893 C114.098038,11.5373913 114.800631,10.4897441 114.990219,8.607253 Z" id="Path" fill="url(#linearGradient-9)" fill-rule="nonzero"></path>
                            <path d="M118.821439,9.69161148 C118.683571,9.97706827 118.767991,10.3249147 119.019431,10.5074233 C119.171041,10.5828259 119.33942,10.6138425 119.506597,10.5971626 C120.270015,10.5748325 121.011689,10.326828 121.645438,9.88196757 C120.848257,10.5074233 120.019815,11.1927052 119.70459,12.1771182 C119.633921,12.3059973 119.633921,12.464303 119.70459,12.5931822 C119.776851,12.6864072 119.87835,12.7499762 119.991158,12.7726608 C120.931622,12.9521394 121.788722,12.2070313 122.645821,11.731141 C123.187695,11.43201 123.758227,11.2226183 124.300101,10.8962936 C124.851205,10.6081114 125.271427,10.1049895 125.46982,9.49581664 C125.557805,9.25852496 125.502549,8.98935815 125.329141,8.81053471 C125.120236,8.70055111 124.87157,8.71188144 124.67264,8.84044781 C124.044795,9.07703324 123.41695,9.31633804 122.789105,9.58555594 C123.569325,9.01291466 124.06112,8.10405638 124.12816,7.11092675 C124.143682,6.95691236 124.114645,6.80157574 124.044795,6.66494962 C123.523762,5.88992839 121.760065,7.02390682 121.246847,7.41005775 C120.905571,7.68199502 120.590346,8.00560038 120.249069,8.30473138 C119.79056,8.68000482 119.076745,9.09606885 118.821439,9.69161148 Z" id="Path" fill="url(#linearGradient-10)" fill-rule="nonzero"></path>
                            <path d="M50.6139518,27.0225716 C50.1544062,27.0225716 49.8900925,27.491171 49.7128821,27.8997667 C49.4622662,28.6140258 49.372216,29.3704118 49.4485683,30.1198988 C49.488725,30.6437465 49.6985942,31.1428716 50.0492814,31.5485553 C51.199647,32.7714852 52.9777778,31.262824 52.9777778,29.9541747 C52.983765,29.0884089 51.6321605,26.9911412 50.6139518,27.0225716 Z" id="Path" fill="url(#linearGradient-11)" fill-rule="nonzero"></path>
                            <path d="M94.5912841,138.447831 C94.3633797,139.361549 94.2398726,140.296849 94.2229968,141.236814 C94.2158477,141.412416 94.2582986,141.586574 94.3457592,141.740455 C94.4662724,141.905957 94.6369395,142.030891 94.834019,142.097878 C96.9512885,143.072131 99.3783397,143.199532 101.591534,142.452594 C101.856965,142.391053 102.093617,142.245245 102.263937,142.038308 C102.445354,141.724663 102.445354,141.341961 102.263937,141.028317 C102.08749,140.731099 101.892764,140.444462 101.680816,140.16996 C101.039103,139.159969 101.100484,137.914404 101.223247,136.728409 C101.381615,135.303182 101.616297,133.886919 101.926341,132.485364 C102.018412,132.100864 96.6698756,131.507866 95.9667816,132.30936 C95.5092124,132.813002 95.5092124,134.118138 95.38645,134.746336 C95.1409251,135.98107 94.8647096,137.202266 94.5912841,138.447831 Z" id="Path" fill="url(#linearGradient-12)" fill-rule="nonzero"></path>
                            <path d="M96.1519866,137.727544 C95.5522868,137.479401 94.9210636,137.317622 94.2768215,137.246952 C93.6218726,137.216743 92.9370297,137.458412 92.6081964,138.02963 C92.4704778,138.278612 92.3888196,138.555234 92.3690449,138.83977 C91.9532474,141.097176 91.5374499,143.354583 91.0890409,145.639453 C90.9999493,145.944182 90.9999493,146.268444 91.0890409,146.573173 C91.2385106,146.993348 91.684202,147.265225 92.132611,147.416268 C93.5321907,147.927068 95.0486286,147.965516 96.5079962,147.987485 L111.726727,148.262109 C111.951788,148.281312 112.17785,148.239605 112.381676,148.141275 C112.925202,147.839189 112.710509,146.996094 112.351782,146.515502 C111.16146,144.771642 109.090626,143.928547 107.201872,142.994826 C106.202199,142.535735 105.268785,141.941708 104.427172,141.228996 C103.712435,140.567153 103.266743,139.364301 102.432431,138.850755 C101.777482,138.460789 101.002957,138.576131 100.28822,138.551415 C98.8822204,138.442053 97.4938883,138.16552 96.1519866,137.727544 Z" id="Path" fill="#EB6345" fill-rule="nonzero"></path>
                            <path d="M95.5696734,150.927633 C96.8515996,150.987374 98.1063088,151.470728 99.38007,151.671673 C100.725519,151.835804 102.084008,151.865822 103.435421,151.761283 C105.490313,151.641803 107.577866,151.552192 109.63548,151.435427 C110.471046,151.405557 111.366489,151.345816 112.085021,150.892332 C112.803553,150.438848 113.30707,149.534596 112.947804,148.779694 C112.561321,147.948759 111.459027,147.739668 110.533645,147.679928 C105.226307,147.29433 99.8590913,146.639901 94.5218143,146.49055 C92.9404997,146.46068 90.4964024,146.816407 90.6760354,148.958915 C90.9482066,151.375686 93.9312028,150.838023 95.5696734,150.927633 Z" id="Path" fill="#EB6345" fill-rule="nonzero"></path>
                            <path d="M103.20009,139.068955 C102.990525,138.593757 103.161377,138.040183 103.604904,137.757323 C104.060168,137.492019 104.642555,137.56818 105.01035,137.941119 C105.386656,138.36719 105.386656,138.977057 105.415164,139.528443 C105.511222,140.644168 105.947112,141.706232 106.666667,142.577778" id="Path" fill="#EB6345" fill-rule="nonzero"></path>
                            <path d="M21.1076287,141.155556 C19.8478383,143.401844 17.7417973,146.075183 16,147.914349 C17.09547,149.907254 19.7218592,150.505125 21.7512174,149.693728 C23.7805755,148.882331 25.292324,147.011848 26.3111111,144.984779 C24.0900457,144.329968 22.8357326,142.707174 21.1076287,141.155556" id="Path" fill="url(#linearGradient-13)" fill-rule="nonzero"></path>
                            <path d="M24.9086265,148.775114 C24.6117313,149.278089 24.2557601,149.745433 23.8479497,150.167646 C22.1694562,151.985154 20.4936963,153.82939 18.8152027,155.644225 C18.186451,156.317773 17.5576994,157.020721 16.6883818,157.314729 C15.9420809,157.58201 15.1329049,157.517862 14.3237288,157.459061 C11.2510467,157.245236 8.17836468,157.010029 5.08107929,156.796205 L4.14068549,156.726712 C3.78794987,156.726502 3.43999374,156.646938 3.12374801,156.494178 C2.25443049,155.997036 2.40478415,154.735471 2.82304069,153.858791 C3.75166222,151.946725 5.45696257,150.502367 7.52500969,149.87631 C8.96293742,149.43797 10.5320829,149.408569 11.8387929,148.764423 C12.9158718,148.229862 13.6949771,147.387928 14.5342239,146.626178 C15.7315858,145.514291 15.9010754,145.102679 17.4674872,145.688023 C18.0333637,145.864429 25.225736,147.695301 25.225736,147.27567 C25.2921487,147.796004 25.1806542,148.323202 24.9086265,148.775114 L24.9086265,148.775114 Z" id="Path" fill="#EB6345" fill-rule="nonzero"></path>
                            <path d="M5.7076013,159.156473 C9.10447379,159.586351 12.5323551,160.013438 15.9292276,159.993898 C16.8327698,160.031269 17.7351664,159.896712 18.587527,159.597517 C19.4475033,159.276367 20.0780041,158.536883 20.2535449,157.643524 C20.3155625,157.18294 20.1605185,156.663736 19.7292144,156.510208 C19.6081533,156.47487 19.4832001,156.454248 19.3571089,156.448797 C14.4492624,155.991004 9.56960571,155.502506 4.65894024,155.053087 C2.9901033,154.899559 0.796935833,155.265235 0.712366393,157.375548 C0.633434916,159.310001 4.29811064,158.97503 5.7076013,159.156473 Z" id="Path" fill="#EB6345" fill-rule="nonzero"></path>
                            <path d="M47.6444444,32.362068 C48.5882647,32.483364 49.4137712,31.7280207 49.8251801,30.854138 C50.2365889,29.9802553 50.3253241,29.0098871 50.631864,28.0974103 C51.6109159,25.4436504 54.2537379,23.8404312 56.9939115,24.2379915 C57.1468225,24.2454102 57.2882183,24.3234655 57.3784308,24.4502595 C57.467166,24.6322036 57.319274,24.8113909 57.1713819,24.9630109 C56.5294876,25.5910371 55.7532218,26.0564533 54.9046,26.3220776 C56.5179679,25.7486783 58.4002305,25.5364102 60.0888889,25.9609463 C60.0001537,26.3220776 59.6452127,26.5646697 59.3521175,26.7466137 C58.0076443,27.5901724 56.663171,28.4006503 55.3186978,29.2524792 C56.7035052,28.4668118 58.2066263,27.6204964 59.7957937,27.7114684 C59.9732642,28.0450325 59.6479017,28.4061638 59.3548065,28.6184318 C58.322251,29.4040992 57.3219629,30.1897666 56.2894075,30.9726773 C57.0318052,30.5091651 57.8698953,30.230628 58.7363488,30.1594426 C58.1985595,31.3062413 56.7626621,31.6067246 56.0258907,32.6404975 C55.7893647,33.0468959 55.5826423,33.4707627 55.407433,33.9085923 C54.7546353,35.3633911 53.6158598,36.5308721 52.1968309,37.2001251 C51.9279362,37.3214211 51.6079516,37.4123932 51.3713243,37.2304491 C51.2598291,37.1239158 51.1781342,36.988767 51.134697,36.8389938 C50.4140593,35.0278237 49.2363008,33.3682736 47.6444444,32.362068 Z" id="Path" fill="url(#linearGradient-14)" fill-rule="nonzero"></path>
                            <path d="M66.1749803,43.0222222 C66.1749803,43.0222222 66.7236961,48.9066433 66.4740304,51.1993106 C66.2243647,53.4919779 69.5084292,76.4048896 69.7663256,83.7920673 C70.0242221,91.1792451 68.2326648,90.6728216 68.2326648,90.6728216 C63.6947845,92.9654889 53.0826195,92.3627348 53.0826195,92.3627348 L51.9111111,94.3829243 C51.9111111,94.3829243 59.425775,95.2856793 68.6469453,93.2049392 C73.7976431,92.0114467 78.7984974,90.2416426 83.5555556,87.9287768 L81.5417683,87.0838202 C81.5417683,87.0838202 72.1340346,90.3728207 68.2271776,90.6618124" id="Path" stroke="#FFFFFF" stroke-width="1.1"></path>
                            <path d="M111.626647,11.0222222 C111.626647,11.0222222 109.790687,14.149166 110.976841,17.0301385 C112.162995,19.9111111 114.488889,19.9111111 114.488889,19.9111111" id="Path" stroke="#FFFFFF" stroke-width="0.96"></path>
                            <path d="M68.2666667,89.90611 C66.774492,93.4124517 53.5592652,92.7643601 52.9821811,92.7338943 C52.9774225,92.7227699 52.9709283,92.7124846 52.9629449,92.7034284 C52.0918227,91.1247438 51.8802252,89.2746361 51.6988559,87.4826905 C50.737049,78.6198994 49.7752421,69.590931 50.459499,60.7281398 C50.4045386,60.7752234 50.3523262,60.8195374 50.2973658,60.8583121 C48.3462718,54.7928394 44.8013264,55.6541919 41.0722637,54.8343837 C37.7306717,54.1059731 30.0224764,53.4080283 26.6506563,52.8319469 C21.2315614,51.9235108 18.3433927,52.4081947 18.4945338,47.6444444 C18.4945338,47.6444444 43.6828824,51.9705944 48.4314604,52.8264076 C49.4486836,52.9977679 50.4391328,53.3031981 51.3773376,53.7348437 C52.1660975,54.0996987 52.8945726,54.584496 53.537281,55.1722777 C54.7051894,56.2441215 55.4608948,57.5236869 56.2303404,58.806022 C57.7527433,61.3706922 58.0934977,79.8219155 59.2806422,85.8015299 C60.4677867,91.7811442 68.2666667,89.90611 68.2666667,89.90611 Z" id="Path" fill="url(#linearGradient-15)" fill-rule="nonzero"></path>
                            <path d="M29.1555556,44.8 C30.4588686,43.6623052 32.1416272,43.1133674 33.7611449,42.5502085 C38.6756232,40.842031 43.4503695,38.7305832 48.0398467,36.2360021 C48.2853461,36.0824864 48.5553829,35.9755703 48.8372324,35.9202918 C49.9563218,35.7837684 50.5832319,37.1973542 50.8444444,38.3322048 C49.6758621,38.6166285 48.867478,39.677529 47.9491098,40.4824481 C45.2737435,42.8175667 41.8862294,42.71233 38.7021862,43.6423955 C37.3521298,44.0349002 36.2907821,44.3847414 34.8527383,44.4700685 L31.9326572,44.6378785 C31.3992337,44.6691651 29.5405003,44.4615358 29.1555556,44.8 Z" id="Path" fill="url(#linearGradient-16)" fill-rule="nonzero"></path>
                            <path d="M109.866667,12.0888889 L109.757282,15.657605 C109.757282,15.657605 81.4703321,42.5876854 70.3349436,41.5719739 C68.1171636,41.3688316 72.3421575,40.053897 72.0796336,39.7656545 C72.0495528,39.7299674 75.7276219,38.8762207 75.7276219,38.8762207 C77.3984771,37.7946252 79.3728756,36.9298978 80.751126,36.0212478 C87.7601155,31.4143057 94.2847037,26.1044255 100.224383,20.1734034 C103.188715,17.194898 106.213209,13.9501116 109.866667,12.0888889 Z" id="Path" fill="url(#linearGradient-17)" fill-rule="nonzero"></path>
                            <path d="M56.5333333,40.7636043 C56.5333333,40.7636043 60.3070162,44.2973364 64.4843312,43.6553751 C68.6616461,43.0134138 66.0214504,43.2931676 66.0214504,43.2931676 C66.0214504,43.2931676 60.3070162,40.5663043 60.3070162,38.0249619 C60.3070162,35.4836195 56.5333333,40.7636043 56.5333333,40.7636043 Z" id="Path" fill="#EB6345" fill-rule="nonzero"></path>
                            <path d="M72.1132085,39.6489924 C72.1132085,39.6489924 72.8915012,42.1630726 69.0438852,43.8752724 C65.1962691,45.5874722 67.5667733,44.3974934 67.5667733,44.3974934 C67.5667733,44.3974934 70.690906,38.5275015 69.4631766,36.4072274 C68.2354473,34.2869533 72.1132085,39.6489924 72.1132085,39.6489924 Z" id="Path" fill="#EB6345" fill-rule="nonzero"></path>
                            <path d="M72.1775053,39.3813906 C72.1775053,39.3813906 72.257161,40.0922242 69.6927609,41.8999248 L68.2666667,42.6666667 C68.2666667,42.6666667 70.8362058,38.3351074 69.6927609,36.3703312 C68.549316,34.4055551 72.1775053,39.3813906 72.1775053,39.3813906 Z" id="Path" fill="url(#linearGradient-18)" fill-rule="nonzero"></path>
                            <path d="M56.5333333,40.7749372 C56.5333333,40.7749372 60.1529216,44.2139819 64.1820739,43.6762618 C65.5517197,43.4930825 65.7777778,43.1060422 65.7777778,43.1060422 C65.7777778,43.1060422 60.1688787,40.5769853 60.1688787,38.0272469 C60.1688787,35.4775085 56.5333333,40.7749372 56.5333333,40.7749372 Z" id="Path" fill="url(#linearGradient-19)" fill-rule="nonzero"></path>
                            <path d="M99.8892905,110.091209 C99.6370446,113.646718 97.8576142,130.844444 97.8576142,130.844444 L95.1596796,130.797949 C95.0906982,130.646298 95.0418474,130.486318 95.014364,130.322058 C94.3837492,126.845864 96.2755936,111.745888 96.2755936,111.745888 C96.2755936,111.745888 80.1757236,100.718338 73.2444444,102.605493 C73.2444444,102.605493 77.3160226,99.460235 80.6144122,99.9662114 C83.9128017,100.472188 98.1235691,106.546639 98.1235691,106.546639 C98.1235691,106.546639 100.141536,106.546639 99.8892905,110.091209 Z" id="Path" fill="url(#linearGradient-20)" fill-rule="nonzero"></path>
                            <path d="M61.1555556,94.5777778 C58.6087762,95.5958544 50.9684381,104.505401 44.5946065,112.143727 C38.6310129,119.297779 22.4004569,139.03746 20.3657867,141.511111 C20.2995868,141.200882 20.2666667,140.884532 20.2666667,140.567327 C20.2666667,139.651344 20.542812,138.756611 21.059612,138.000122 L51.1116084,94.6410636 C55.0983506,95.0400396 61.1555556,94.5777778 61.1555556,94.5777778 Z" id="Path" fill="url(#linearGradient-21)" fill-rule="nonzero"></path>
                            <path d="M24.8888889,149.030256 C24.5914668,149.559482 24.2348639,150.051219 23.8263297,150.49547 C22.1448573,152.407842 20.4661233,154.348336 18.7846508,156.257896 C18.1547833,156.966598 17.5249158,157.706236 16.6540554,158.01559 C15.90643,158.296821 15.0958179,158.229326 14.2852058,158.167455 C11.2070705,157.94247 8.12893517,157.694987 5.02615289,157.470002 C4.9774186,157.220141 4.96541829,156.964191 4.99055168,156.710678 C5.00113039,156.376974 5.10787298,156.053994 5.29726979,155.782615 C5.45968323,155.593227 5.66327574,155.445814 5.89153612,155.352331 C6.67476272,154.995168 7.55931583,154.975482 8.4164834,154.967045 L14.2687744,154.8883 C15.0163998,154.8883 15.7968879,154.860177 16.459618,154.51145 C16.7814898,154.329654 17.0827449,154.111775 17.3578639,153.861806 C18.0881451,153.244973 18.8184263,152.627202 19.5487076,152.008493 C20.8057041,150.948252 22.0791319,149.871137 23.5716442,149.196182 C23.9774835,148.981579 24.4445746,148.922742 24.8888889,149.030256 L24.8888889,149.030256 Z" id="Path" fill="url(#linearGradient-22)" fill-rule="nonzero"></path>
                            <path d="M93.8653547,138.851666 C93.9865067,138.480758 94.3551494,138.255967 94.7325938,138.32284 C95.3483024,138.308461 95.9618252,138.402618 96.5461599,138.601169 C97.9097435,139.141129 98.7278936,140.591226 99.273327,141.974523 C99.7396726,143.110108 100.167838,144.329191 101.092347,145.116864 C101.654677,145.540419 102.271319,145.883181 102.925004,146.13555 C104.290411,146.755123 105.603837,147.487721 106.852124,148.326003 C106.942121,148.387236 107.043026,148.476301 107.018482,148.582066 C106.993937,148.687831 106.912122,148.707315 106.835761,148.737931 C106.28405,148.915459 105.706673,148.99547 105.128555,148.974511 C103.993427,148.958234 102.859994,148.879259 101.733232,148.737931 C99.7878525,148.520834 97.8479277,148.26106 95.9134572,147.958608 C94.9949751,147.841756 94.089828,147.633883 93.2108346,147.337933 C92.9610903,147.258725 92.7299563,147.12799 92.53177,146.953839 C92.2928082,146.69548 92.1442,146.36377 92.1090591,146.010301 C92.0551284,145.363621 92.1095411,144.71229 92.2699619,144.084261 C92.4581365,143.126808 92.6108578,142.155438 92.8153954,141.206334 C92.9899341,140.521643 93.3662831,139.358226 93.8653547,138.851666 Z" id="Path" fill="url(#linearGradient-23)" fill-rule="nonzero"></path>
                            <path d="M94.289351,148.129628 C93.858646,147.978873 93.4083443,147.905201 92.9559836,147.911481 C92.4990633,147.931512 92.0813508,148.198223 91.8421006,148.622701 C91.5677452,149.199446 91.8421006,149.952502 92.3331968,150.335007 C92.8435947,150.682728 93.4418179,150.845888 94.0424311,150.801184 C94.6390568,150.75532 95.238061,150.760315 95.833972,150.816126 C96.4622459,150.923705 97.0438794,151.228514 97.6556919,151.413789 C98.3329588,151.591092 99.0253106,151.691241 99.7215882,151.712621 C103.26626,151.933757 106.939879,151.951686 110.22117,150.472469 C110.362066,150.430068 110.482776,150.330658 110.558627,150.194556 C110.620613,149.981415 110.527873,149.751258 110.341886,149.656659 C110.158961,149.573877 109.960231,149.541049 109.762997,149.561033 C107.398053,149.605857 105.016648,149.788145 102.657191,149.611834 C99.8324805,149.394578 97.0317078,148.898473 94.289351,148.129628 L94.289351,148.129628 Z" id="Path" fill="url(#linearGradient-24)" fill-rule="nonzero"></path>
                            <path d="M16.5352199,150.395925 C17.7944905,150.006622 18.9281916,149.28865 19.820431,148.315404 C19.8728073,148.270845 19.905422,148.20724 19.9111111,148.13856 C19.8965385,148.065235 19.8512299,148.001752 19.7867498,147.964317 C18.8332198,147.233885 17.7206267,146.740997 16.5404017,146.526157 C16.3297177,146.470888 16.1076866,146.477204 15.9004591,146.544361 C15.6927683,146.657488 15.5191743,146.824553 15.3978322,147.028082 C14.7484253,147.914643 13.96928,148.69761 13.0867847,149.350463 C12.9442873,149.45709 12.7810631,149.594925 12.80179,149.771769 C12.8295381,149.890591 12.9031594,149.993489 13.006468,150.05784 C13.9811161,150.81273 15.2906533,150.96767 16.4134495,150.460941" id="Path" fill="url(#linearGradient-25)" fill-rule="nonzero"></path>
                            <g id="Group" transform="translate(21.333333, 45.866667)" fill="#EB6345" fill-rule="nonzero">
                                <path d="M81.8445736,7.45942138 L96.2210421,0.0330062893 L95.5759266,13.3785493 C95.5759266,13.3785493 94.0303944,17.8206457 91.9687699,16.1675807 C89.9071453,14.5145157 94.3405989,11.7282348 94.3405989,11.7282348 L94.4421703,5.32501468 L83.4148123,10.6940377 L83.6234454,18.4395136 C83.6234454,18.4395136 81.9763419,23.7040168 80.2221766,21.9491824 C78.4680114,20.194348 82.0751681,16.6846792 82.0751681,16.6846792 L81.8445736,7.45942138 Z" id="Path"></path>
                                <path d="M4.32090155,23.9543145 L7.25549098,12.0280419 C7.25549098,12.0280419 11.9964039,15.8485199 11.2771687,18.6292998 C10.5579335,21.4100797 7.87589997,22.1389686 7.87589997,22.1389686 C7.87589997,22.1389686 9.31711554,19.7652662 9.00965622,18.940109 C8.7021969,18.1149518 7.00018993,16.6681761 7.00018993,16.6681761 L4.6860095,26.3885283 C4.6860095,26.3885283 1.59494524,31.1359329 0.255301045,27.7307841 C-1.08434315,24.3256352 4.32090155,23.9543145 4.32090155,23.9543145 Z" id="Path"></path>
                            </g>
                        </g>
                    </g>
                </g>
            </g>
        </g>
    </g>
</svg>