<?xml version="1.0" encoding="UTF-8"?>
<svg width="152px" height="160px" viewBox="0 0 152 160" version="1.1" xmlns="http://www.w3.org/2000/svg" xmlns:xlink="http://www.w3.org/1999/xlink">
    <title>Illu</title>
    <defs>
        <linearGradient x1="50.3916831%" y1="45.0133663%" x2="43.6269127%" y2="88.7197241%" id="linearGradient-1">
            <stop stop-color="#010101" stop-opacity="0" offset="0%"></stop>
            <stop stop-color="#010101" offset="95%"></stop>
        </linearGradient>
        <linearGradient x1="41.5069158%" y1="67.6708522%" x2="83.0502305%" y2="-36.648586%" id="linearGradient-2">
            <stop stop-color="#010101" stop-opacity="0" offset="0%"></stop>
            <stop stop-color="#010101" offset="95%"></stop>
        </linearGradient>
        <linearGradient x1="0.00527518411%" y1="49.9535323%" x2="99.9504128%" y2="49.9535323%" id="linearGradient-3">
            <stop stop-color="#010101" stop-opacity="0" offset="0%"></stop>
            <stop stop-color="#010101" offset="100%"></stop>
        </linearGradient>
        <linearGradient x1="0.0472571175%" y1="50.0415255%" x2="100.039794%" y2="50.0415255%" id="linearGradient-4">
            <stop stop-color="#E4C5D5" offset="0%"></stop>
            <stop stop-color="#E9D3CF" offset="42%"></stop>
            <stop stop-color="#EFE8CA" offset="100%"></stop>
        </linearGradient>
        <linearGradient x1="0.0946750714%" y1="50.0112096%" x2="100.140218%" y2="50.0112096%" id="linearGradient-5">
            <stop stop-color="#E4C5D5" offset="0%"></stop>
            <stop stop-color="#E9D3CF" offset="42%"></stop>
            <stop stop-color="#EFE8CA" offset="100%"></stop>
        </linearGradient>
        <linearGradient x1="22.7554577%" y1="78.8236215%" x2="58.3722426%" y2="40.941494%" id="linearGradient-6">
            <stop stop-color="#010101" stop-opacity="0" offset="0%"></stop>
            <stop stop-color="#010101" offset="100%"></stop>
        </linearGradient>
        <linearGradient x1="41.4715719%" y1="34.1646595%" x2="52.541806%" y2="66.2598485%" id="linearGradient-7">
            <stop stop-color="#010101" stop-opacity="0" offset="0%"></stop>
            <stop stop-color="#010101" offset="100%"></stop>
        </linearGradient>
        <linearGradient x1="-42.5260958%" y1="62.3117181%" x2="57.1097676%" y2="48.5111925%" id="linearGradient-8">
            <stop stop-color="#010101" stop-opacity="0" offset="0%"></stop>
            <stop stop-color="#010101" offset="100%"></stop>
        </linearGradient>
        <linearGradient x1="32.4476236%" y1="28.3228472%" x2="81.1711015%" y2="109.375357%" id="linearGradient-9">
            <stop stop-color="#010101" stop-opacity="0" offset="0%"></stop>
            <stop stop-color="#010101" offset="100%"></stop>
        </linearGradient>
        <linearGradient x1="61.6609302%" y1="59.6613645%" x2="27.8066249%" y2="28.8471099%" id="linearGradient-10">
            <stop stop-color="#010101" stop-opacity="0" offset="0%"></stop>
            <stop stop-color="#010101" offset="100%"></stop>
        </linearGradient>
        <linearGradient x1="38.9021911%" y1="35.9109366%" x2="79.0259975%" y2="83.2250419%" id="linearGradient-11">
            <stop stop-color="#010101" stop-opacity="0" offset="0%"></stop>
            <stop stop-color="#010101" offset="100%"></stop>
        </linearGradient>
        <linearGradient x1="0.0654571674%" y1="50.0149454%" x2="100%" y2="50.0149454%" id="linearGradient-12">
            <stop stop-color="#E4C5D5" offset="0%"></stop>
            <stop stop-color="#E9D3CF" offset="42%"></stop>
            <stop stop-color="#EFE8CA" offset="100%"></stop>
        </linearGradient>
        <linearGradient x1="55.3999206%" y1="124.261825%" x2="37.4427758%" y2="-142.232742%" id="linearGradient-13">
            <stop stop-color="#010101" stop-opacity="0" offset="0%"></stop>
            <stop stop-color="#010101" offset="100%"></stop>
        </linearGradient>
        <linearGradient x1="-0.0959342269%" y1="49.9177635%" x2="99.9586047%" y2="49.9177635%" id="linearGradient-14">
            <stop stop-color="#E4C5D5" offset="0%"></stop>
            <stop stop-color="#E9D3CF" offset="42%"></stop>
            <stop stop-color="#EFE8CA" offset="100%"></stop>
        </linearGradient>
        <linearGradient x1="0.217279134%" y1="50.0089957%" x2="100.135207%" y2="50.0089957%" id="linearGradient-15">
            <stop stop-color="#E4C5D5" offset="0%"></stop>
            <stop stop-color="#E9D3CF" offset="42%"></stop>
            <stop stop-color="#EFE8CA" offset="100%"></stop>
        </linearGradient>
        <linearGradient x1="38.7524514%" y1="56.2275547%" x2="60.9363147%" y2="44.3432574%" id="linearGradient-16">
            <stop stop-color="#010101" stop-opacity="0" offset="0%"></stop>
            <stop stop-color="#010101" offset="100%"></stop>
        </linearGradient>
        <linearGradient x1="0.00161872716%" y1="50.0032347%" x2="99.9950763%" y2="50.0032347%" id="linearGradient-17">
            <stop stop-color="#E4C5D5" offset="0%"></stop>
            <stop stop-color="#E9D3CF" offset="42%"></stop>
            <stop stop-color="#EFE8CA" offset="100%"></stop>
        </linearGradient>
    </defs>
    <g id="🚀-Acquisition-[Sign-up]" stroke="none" stroke-width="1" fill="none" fill-rule="evenodd">
        <g id="1440px-•-Sign-up-Step-1-RA-+-Artiste" transform="translate(-838.000000, -275.000000)" fill-rule="nonzero">
            <g id="Content" transform="translate(280.000000, 128.000000)">
                <g id="Body" transform="translate(64.000000, 107.000000)">
                    <g id="RA" transform="translate(388.000000, 0.000000)">
                        <g id="Content" transform="translate(40.000000, 40.000000)">
                            <g id="Illu" transform="translate(66.000000, 0.000000)">
                                <path d="M144.892642,96.3891836 C137.704731,106.444315 125.061895,112.018205 119.295655,122.951604 C116.936581,127.422472 115.912702,132.474242 114.062109,137.187153 C113.778466,137.923653 113.460234,138.663611 113.117787,139.375907 C107.099036,152.034723 92.6886246,159.050494 78.7002172,159.880353 C65.3206029,160.672177 46.9807077,157.45993 34.3309534,152.432364 C28.9002413,150.274729 23.9261242,146.028615 19.5677183,140.956098 C13.6492798,134.089011 8.8792467,125.67631 5.66578712,118.874919 C-0.864903598,105.016265 -2.57021638,87.9868559 4.9497633,74.6503217 C9.59527052,66.4070504 17.2466942,60.3110406 22.788096,52.6382977 C28.6961573,44.4883856 32.0687332,34.7686558 37.4717729,26.2798844 C44.6147159,15.073323 55.5072716,6.11775557 68.2019935,2.17938055 C80.8967154,-1.75899447 95.3347996,-0.410472733 106.597474,6.63987552 C112.446731,10.2947152 117.320536,15.3015344 122.052519,20.3187268 C131.969622,30.7749568 141.848676,41.7567646 147.355487,55.0656368 C152.862298,68.374509 153.273925,84.6605023 144.892642,96.3891836 Z" id="Path" fill="#EB6345" opacity="0.24"></path>
                                <path d="M113.936344,137.142857 C113.653008,137.880788 113.335118,138.622182 112.993041,139.335862 C106.980779,152.019257 92.5859024,159.04865 78.6125755,159.880121 C65.2473854,160.673483 46.9272618,157.454997 34.2911449,152.41767 C28.8662875,150.255846 23.8975327,146.001486 19.5438255,140.919121 C35.219475,139.995264 50.9077941,139.28274 66.6087827,138.781548 C71.9069449,138.622182 77.1935894,138.481294 82.4687161,138.358883 L84.1687351,138.324239 C90.157962,138.190279 96.1552513,138.09212 102.160603,138.029759 C104.202699,137.995115 109.409871,137.277971 113.936344,137.142857 Z" id="Path" fill="url(#linearGradient-1)"></path>
                                <path d="M84.4126931,138.139649 C83.0712731,138.978116 81.9802973,140.15818 80.9099059,141.314091 C80.2237575,142.069746 79.5033018,142.828852 78.8034305,143.587957 C78.5208913,143.858462 78.288543,144.177442 78.1172821,144.529938 C78.0008015,144.843228 77.9247058,145.170235 77.8908532,145.502974 C77.5306253,147.666425 75.1462598,152.041634 72.4016665,151.665532 C70.0378854,151.348087 72.9883233,143.82604 73.5509649,142.4562 C72.6280954,141.890321 71.4239051,142.049043 70.4632974,142.535561 C69.5026897,143.022079 68.7067576,143.781184 67.8627952,144.450577 C64.8671061,146.814239 61.1471231,148.056081 57.3407104,147.963166 C56.8363914,147.939013 56.2051349,147.790642 56.1365201,147.27307 C59.9034745,144.678309 63.0254494,141.189874 66.6723278,138.429489 C71.9327984,138.270767 77.1818332,138.130448 82.4194322,138.008531 L84.1073571,137.974026 C84.2102794,138.025783 84.2960479,138.084441 84.4126931,138.139649 Z" id="Path" fill="url(#linearGradient-2)"></path>
                                <path d="M55.5144848,49.8043343 C55.8131279,53.787326 56.1781361,56.1158971 54.9271535,59.9028347 C54.3530951,61.6673206 53.599851,63.3905321 53.2680253,65.2272484 C53.2116416,65.4714473 53.2116416,65.7259909 53.2680253,65.9701898 C53.4226908,66.3282517 53.6908131,66.6207379 54.027906,66.7991199 C54.8076962,67.3288096 55.6870342,67.8825762 56.6061912,67.7071594 C57.7775356,67.4835891 58.4312321,66.2006393 58.8261046,65.0380735 C59.4941875,62.9013341 60.0120844,60.7172422 60.3757303,58.5029404 C60.5947352,57.3575724 60.8104219,56.191567 60.6611003,55.0358803 C60.4387772,53.3608225 59.4632098,51.8886978 58.3383209,50.6710993 C57.8936746,50.1930028 57.3660718,49.7149062 56.7256484,49.663313 C56.0852249,49.6117199 55.335299,49.150821 55.5144848,49.7905761" id="Path" fill="#EB6345"></path>
                                <path d="M60.3683693,58.5028346 C60.0051603,60.7187272 59.4894137,62.9047866 58.8250885,65.0442326 C58.4334603,66.2010271 57.7730025,67.4920925 56.6047556,67.7089915 C56.4771978,67.7369652 56.3464874,67.7462364 56.2164462,67.7365342 C55.4365087,67.7365342 54.6831222,67.2510937 54.0226644,66.8069672 C53.848693,66.6950926 53.687284,66.563452 53.5414263,66.4144833 C53.4159525,66.2927073 53.3223149,66.1398976 53.2692779,65.9703568 C53.2112241,65.7272945 53.2112241,65.4732083 53.2692779,65.230146 C53.6011662,63.388226 54.3346394,61.6633627 54.9287195,59.9006281 C56.1600252,56.113503 55.8115425,53.7758139 55.512843,49.7924468 C55.3303044,49.1451927 56.0836909,49.616862 56.7175976,49.6719474 C57.3515043,49.7270329 57.8858445,50.1952592 58.3405316,50.6806998 C59.4689519,51.8925799 60.4413847,53.3592301 60.6637499,55.0427794 C60.8097807,56.1892455 60.5874155,57.3598114 60.3683693,58.5028346 Z" id="Path" fill="url(#linearGradient-3)"></path>
                                <path d="M60.6344723,106.406059 C60.2894141,107.358158 60.5033502,108.421047 60.7310885,109.414692 C62.4770826,117.107652 64.1126582,124.894091 64.147164,132.784395 C64.147164,134.941332 64.0298442,137.150201 63.1810012,139.130567 C62.3818357,140.858689 61.1878372,142.373402 59.6959142,143.551769 C59.13692,144.015701 58.4847601,144.628506 58.6607398,145.334791 C58.7572178,145.614038 58.938161,145.856107 59.178327,146.027226 C60.1525517,146.792349 61.4821172,146.916823 62.5806001,146.345747 C63.1733536,145.983851 63.7007055,145.523794 64.1402628,144.985111 L68.2430039,140.505052 C68.4658823,140.287923 68.6461365,140.030726 68.7743934,139.746835 C68.9883295,139.179038 68.7743934,138.552384 68.5742597,137.9742 C66.9041784,132.701302 69.1332539,127.064876 69.412751,121.53924 C69.6715446,116.397905 68.2223004,111.339663 66.7868586,106.395673 C66.6637741,105.846095 66.4365102,105.325393 66.1174459,104.861928 C65.5046268,104.183268 64.6115706,103.829965 63.702039,103.906367 C62.8113446,103.985151 61.9382728,104.202401 61.1141031,104.550332" id="Path" fill="url(#linearGradient-4)"></path>
                                <path d="M69.0905145,107.458764 C69.8461009,113.364331 70.5488652,119.276797 71.1988073,125.196163 C71.8877919,131.405287 72.4940983,137.790336 70.8853193,143.823536 C70.540827,145.07226 70.1618855,146.524505 70.9404381,147.555909 C71.6466473,148.490727 73.1176294,148.590763 74.116657,147.97675 C75.1156847,147.362737 75.6772071,146.20715 75.8770126,145.051562 C76.0768182,143.895975 75.9596908,142.712792 75.8976822,141.539958 C75.4946262,134.057963 77.1964181,126.63116 77.6580378,119.149165 C77.8337288,116.330913 77.826839,113.478165 77.2653166,110.711655 C76.7037941,107.945145 75.2913757,103.847123 72.6628996,102.287943 C69.2593157,100.259629 68.8287004,105.326965 69.0905145,107.458764 Z" id="Path" fill="url(#linearGradient-5)"></path>
                                <path d="M56.564285,146.385597 C56.3742452,146.564258 56.2305805,146.787706 56.146019,147.036145 C56.0854541,147.489871 56.3187529,147.931804 56.7246203,148.132177 C57.1294294,148.314477 57.5727981,148.391054 58.0142739,148.354919 C59.6838525,148.323099 61.4126855,147.948326 62.7337091,146.908864 C64.5427097,145.49463 65.3931839,142.998506 67.3625199,141.824691 C67.4286295,141.78209 67.5018728,141.752133 67.578624,141.736301 C68.1188843,141.669125 67.927179,142.743944 68.3942428,143.02679 C68.8613065,143.309637 69.2342604,142.673232 69.3213991,142.181785 C69.4834729,141.304345 69.4834729,140.404001 69.3213991,139.52656 C69.2656303,139.226035 69.1436361,138.879548 68.8543354,138.819443 C68.4848671,138.723982 68.1990519,139.127039 68.0143178,139.466455 C67.4925842,140.535157 66.7177473,141.455957 65.7591667,142.146429 C64.0163916,143.295495 62.2283043,142.701517 60.3495927,143.129322 C58.711384,143.493488 57.6378345,145.211783 56.564285,146.385597 Z" id="Path" fill="#EB6345"></path>
                                <path d="M69.8737028,147.96418 C69.8263259,148.667574 69.8919274,149.373852 70.0681476,150.057607 C70.2574976,150.7533 70.7717791,151.322166 71.4570394,151.593913 C72.2730133,151.867409 73.193154,151.509501 73.8667665,150.996273 C75.0112094,150.085187 75.8183359,148.835556 76.1653824,147.437446 C76.5036081,146.048024 76.5952042,144.612616 76.4362162,143.193191 C76.3841328,142.622563 76.2487159,141.957393 75.7139925,141.714286 C75.4461306,143.144054 74.3344791,144.28467 72.8806534,144.621449 C71.9386093,144.861833 70.9622451,144.370338 70.6202321,143.48357 C69.7625915,144.570801 69.8945362,146.610205 69.8737028,147.96418 Z" id="Path" fill="#EB6345"></path>
                                <path d="M79.3408294,103.444954 C79.144926,104.019322 79.0452559,104.777073 78.5503421,105.209579 C78.2505046,105.432539 77.9054822,105.586127 77.5398932,105.659385 C72.4186972,106.974793 67.1803187,107.774535 61.901993,108.046819 C60.1070923,108.146359 58.561426,106.785368 58.4204121,104.981216 C57.9254984,98.6770071 57.6711677,92.3451179 55.6021532,86.3765338 C54.7016851,83.7780372 53.6809255,81.1864606 53.3372354,78.4599422 C52.9935452,75.7334238 53.4059734,72.7750821 55.1141132,70.6263919 C57.6436725,67.4535272 62.1494499,66.875699 66.1878087,66.7061566 C70.7142075,66.519314 79.0658773,65.3982582 80.5093758,71.0865783 C82.9152066,80.5913323 81.8360196,91.8157304 80.258482,100.28593 C80.0271047,101.359439 79.7204525,102.415091 79.3408294,103.444954 Z" id="Path" fill="#606161"></path>
                                <path d="M79.3408294,103.444954 C79.144926,104.019322 79.0452559,104.777073 78.5503421,105.209579 C78.2505046,105.432539 77.9054822,105.586127 77.5398932,105.659385 C72.4186972,106.974793 67.1803187,107.774535 61.901993,108.046819 C60.1070923,108.146359 58.561426,106.785368 58.4204121,104.981216 C57.9254984,98.6770071 57.6711677,92.3451179 55.6021532,86.3765338 C54.7016851,83.7780372 53.6809255,81.1864606 53.3372354,78.4599422 C52.9935452,75.7334238 53.4059734,72.7750821 55.1141132,70.6263919 C57.6436725,67.4535272 62.1494499,66.875699 66.1878087,66.7061566 C70.7142075,66.519314 79.0658773,65.3982582 80.5093758,71.0865783 C82.9152066,80.5913323 81.8360196,91.8157304 80.258482,100.28593 C80.0271047,101.359439 79.7204525,102.415091 79.3408294,103.444954 Z" id="Path" fill="url(#linearGradient-6)"></path>
                                <path d="M77.8714291,83.5324675 L76.5119977,83.4900674 C76.5985109,80.6497973 78.8005852,78.3445179 81.5916122,78.1723855 C83.2291882,78.002785 84.5573283,78.3419859 85.5169269,79.165255 C86.3028049,79.8693453 86.799264,80.8481375 86.9076496,81.9071295 L85.551695,82.0025298 C85.4612414,81.3092104 85.1264809,80.6727401 84.6094804,80.2111247 C83.9419335,79.6422564 82.9649509,79.4196557 81.7063468,79.5468561 C78.034839,79.9178571 77.8749059,83.3840671 77.8714291,83.5324675 Z" id="Path" fill="#EB6345"></path>
                                <path d="M77.8714291,83.5324675 L76.5119977,83.4900674 C76.5985109,80.6497973 78.8005852,78.3445179 81.5916122,78.1723855 C83.2291882,78.002785 84.5573283,78.3419859 85.5169269,79.165255 C86.3028049,79.8693453 86.799264,80.8481375 86.9076496,81.9071295 L85.551695,82.0025298 C85.4612414,81.3092104 85.1264809,80.6727401 84.6094804,80.2111247 C83.9419335,79.6422564 82.9649509,79.4196557 81.7063468,79.5468561 C78.034839,79.9178571 77.8749059,83.3840671 77.8714291,83.5324675 Z" id="Path" fill="url(#linearGradient-7)"></path>
                                <path d="M90.2587923,98.161497 L72.7077484,100.95764 C72.0649529,101.058422 71.4087645,100.897554 70.8837666,100.510481 C70.3587687,100.123408 70.0080422,99.5418931 69.9088655,98.894066 L69.8883859,86.8359128 C69.7874717,86.1884772 69.9468487,85.5272159 70.3312298,84.9985361 C70.715611,84.4698562 71.2932842,84.117375 71.936349,84.0191337 L87.6373995,81.4843765 C88.2799371,81.382693 88.9361959,81.5432849 89.4608762,81.9305962 C89.9855564,82.3179074 90.3353711,82.8999841 90.4328692,83.5479509 L92.2828625,95.344718 C92.4938713,96.6852594 91.5885897,97.9450864 90.2587923,98.161497 Z" id="Path" fill="#EB6345"></path>
                                <path d="M90.2587923,98.161497 L72.7077484,100.95764 C72.0649529,101.058422 71.4087645,100.897554 70.8837666,100.510481 C70.3587687,100.123408 70.0080422,99.5418931 69.9088655,98.894066 L69.8883859,86.8359128 C69.7874717,86.1884772 69.9468487,85.5272159 70.3312298,84.9985361 C70.715611,84.4698562 71.2932842,84.117375 71.936349,84.0191337 L87.6373995,81.4843765 C88.2799371,81.382693 88.9361959,81.5432849 89.4608762,81.9305962 C89.9855564,82.3179074 90.3353711,82.8999841 90.4328692,83.5479509 L92.2828625,95.344718 C92.4938713,96.6852594 91.5885897,97.9450864 90.2587923,98.161497 Z" id="Path" fill="url(#linearGradient-8)"></path>
                                <path d="M94.3787608,97.3340267 L76.6619298,100.126057 C76.0130704,100.227591 75.3503549,100.067235 74.8205124,99.6804937 C74.2906699,99.2937522 73.9374135,98.7125317 73.8389562,98.065518 L71.9673143,86.2861036 C71.86636,85.6397572 72.0276789,84.9799508 72.4156747,84.4522759 C72.8036706,83.9246011 73.3864532,83.5724285 74.0354269,83.4734679 L89.5462711,81.0695058 C90.8920598,80.8574449 92.155714,81.7721223 92.3692447,83.1128736 L96.4399796,94.5110883 C96.5450151,95.1581383 96.3864152,95.8201911 95.9993992,96.3502281 C95.6123833,96.8802651 95.0289865,97.2344125 94.3787608,97.3340267 Z" id="Path" fill="#EB6345"></path>
                                <path d="M94.3787608,97.3340267 L76.6619298,100.126057 C76.0130704,100.227591 75.3503549,100.067235 74.8205124,99.6804937 C74.2906699,99.2937522 73.9374135,98.7125317 73.8389562,98.065518 L71.9673143,86.2861036 C71.86636,85.6397572 72.0276789,84.9799508 72.4156747,84.4522759 C72.8036706,83.9246011 73.3864532,83.5724285 74.0354269,83.4734679 L89.5462711,81.0695058 C90.8920598,80.8574449 92.155714,81.7721223 92.3692447,83.1128736 L96.4399796,94.5110883 C96.5450151,95.1581383 96.3864152,95.8201911 95.9993992,96.3502281 C95.6123833,96.8802651 95.0289865,97.2344125 94.3787608,97.3340267 Z" id="Path" fill="url(#linearGradient-9)"></path>
                                <path d="M71.6602534,85.1668991 C71.6602534,85.1668991 79.9467927,88.8511092 82.6459569,88.7524879 C85.3451212,88.6538666 91.9897564,81.8701299 91.9897564,81.8701299 L93.1450407,85.4592408 C93.1450407,85.4592408 86.4023814,93.6976418 85.7267151,93.8948844 C85.0510488,94.092127 72.6579989,93.1517024 72.6579989,93.1517024 L71.6077405,86.2623 C71.477479,85.9050166 71.4964202,85.5099115 71.6602534,85.1668991 L71.6602534,85.1668991 Z" id="Path" fill="url(#linearGradient-10)"></path>
                                <path d="M79.7157275,36.286668 C80.2270436,36.9775041 80.3800906,37.8790453 80.4740058,38.7391363 C81.0409753,44.0274871 79.6148556,49.8546901 77.7295949,54.6836348 C77.1313203,56.2172911 76.4634789,57.7923975 76.5782641,59.4400418 C76.689571,61.0047857 77.5035028,62.4175456 78.230476,63.8130346 C78.9574492,65.2085237 79.5974639,66.6040127 80.1783468,68.0478603 C80.5261809,68.9321306 80.874015,69.9234804 80.5261809,70.8112049 C80.2263985,71.4273616 79.7588884,71.9478625 79.1765847,72.3137735 C74.7417974,75.5571829 69.2215133,76.9842435 63.7571001,76.2998982 C62.3153275,76.1583691 60.9158289,75.7358015 59.6387446,75.0563931 C58.6356238,74.4238737 57.7129968,73.6735022 56.8908554,72.8215381 C56.4904246,72.5043981 56.1859042,72.0836603 56.0108352,71.6056665 C55.9309424,71.1609912 55.9595691,70.7037753 56.0943154,70.2723527 C56.9024999,66.6638496 57.4672463,63.0058017 57.784789,59.3225996 C57.9186956,58.2154835 57.9186956,57.0964313 57.784789,55.9893152 C57.5902062,54.9799219 57.2930264,53.992731 56.8978121,53.042899 C56.4065193,51.6120032 55.7932699,50.225309 55.0647265,48.897882 C54.5568888,48.037791 53.9412224,47.2122418 53.7255653,46.2381628 C53.3986013,44.7563192 54.0733994,43.2330255 54.9325496,41.9826121 C55.7916997,40.7321986 56.8804204,39.6234066 57.5621752,38.2659136 C58.1952332,37.0016834 58.4700221,35.5336566 59.3848257,34.4663147 C60.776162,32.8083079 63.2110006,32.5492444 65.3953986,32.3938062 C67.0545671,32.2867266 69.1311365,31.8065955 70.769435,32.0863841 C71.8129373,32.2625474 72.0355511,33.1226384 72.8077427,33.6994866 C74.811267,35.2020552 78.108734,34.0449046 79.7157275,36.286668 Z" id="Path" fill="#EB6345"></path>
                                <path d="M79.7157275,36.286668 C80.2270436,36.9775041 80.3800906,37.8790453 80.4740058,38.7391363 C81.0409753,44.0274871 79.6148556,49.8546901 77.7295949,54.6836348 C77.1313203,56.2172911 76.4634789,57.7923975 76.5782641,59.4400418 C76.689571,61.0047857 77.5035028,62.4175456 78.230476,63.8130346 C78.9574492,65.2085237 79.5974639,66.6040127 80.1783468,68.0478603 C80.5261809,68.9321306 80.874015,69.9234804 80.5261809,70.8112049 C80.2263985,71.4273616 79.7588884,71.9478625 79.1765847,72.3137735 C74.7417974,75.5571829 69.2215133,76.9842435 63.7571001,76.2998982 C62.3153275,76.1583691 60.9158289,75.7358015 59.6387446,75.0563931 C58.6356238,74.4238737 57.7129968,73.6735022 56.8908554,72.8215381 C56.4904246,72.5043981 56.1859042,72.0836603 56.0108352,71.6056665 C55.9309424,71.1609912 55.9595691,70.7037753 56.0943154,70.2723527 C56.9024999,66.6638496 57.4672463,63.0058017 57.784789,59.3225996 C57.9186956,58.2154835 57.9186956,57.0964313 57.784789,55.9893152 C57.5902062,54.9799219 57.2930264,53.992731 56.8978121,53.042899 C56.4065193,51.6120032 55.7932699,50.225309 55.0647265,48.897882 C54.5568888,48.037791 53.9412224,47.2122418 53.7255653,46.2381628 C53.3986013,44.7563192 54.0733994,43.2330255 54.9325496,41.9826121 C55.7916997,40.7321986 56.8804204,39.6234066 57.5621752,38.2659136 C58.1952332,37.0016834 58.4700221,35.5336566 59.3848257,34.4663147 C60.776162,32.8083079 63.2110006,32.5492444 65.3953986,32.3938062 C67.0545671,32.2867266 69.1311365,31.8065955 70.769435,32.0863841 C71.8129373,32.2625474 72.0355511,33.1226384 72.8077427,33.6994866 C74.811267,35.2020552 78.108734,34.0449046 79.7157275,36.286668 Z" id="Path" fill="url(#linearGradient-11)"></path>
                                <path d="M64.9963753,34.3668184 C64.6727858,34.8648253 64.3056704,35.3299627 63.899812,35.7561707 C63.2233884,36.6448686 62.8376471,37.7393183 62.7998954,38.8769241 C62.7606948,39.2695195 62.8355203,39.6653925 63.0145133,40.0123846 C63.1690089,40.2385302 63.3837018,40.4115314 63.6315397,40.5095894 C64.5335252,40.8639672 65.538146,40.7827049 66.377978,40.2874341 C67.2435959,39.777898 68.0231533,39.1213877 68.6851203,38.3444566 C69.2283718,37.7520424 69.7582097,37.1384705 70.2846942,36.5248987 C70.9386081,35.7667496 71.626056,34.9662851 71.9110954,33.9295603 C72.1659542,33.0444653 72.2464359,27.1273759 73.1853891,25.7662338 C72.2162552,26.1435452 69.7816835,28.8905134 68.8561439,29.3912444 C68.0312064,29.8390813 67.0721327,28.4744129 66.5087607,29.218457 C65.6469358,30.4138642 65.7844254,32.861099 64.9963753,34.3668184 Z" id="Path" fill="url(#linearGradient-12)"></path>
                                <path d="M73.1853891,25.7662338 C73.1853891,25.7662338 70.2387172,33.2944143 67.9127727,34.105033 C64.5594173,35.271619 64.8769158,33.4389159 64.8769158,33.4389159 L65.8508159,28.7020832 L73.1853891,25.7662338 Z" id="Path" fill="url(#linearGradient-13)"></path>
                                <path d="M82.0499106,73.2875915 C81.6913989,74.5924954 81.1966527,75.9638689 80.0960217,76.7859934 C79.7824192,76.9791743 79.4935668,77.2081902 79.2355935,77.4681818 C78.9751309,77.7412994 78.9326467,78.1501472 79.1316251,78.4687247 C79.801302,78.5339123 80.4735563,78.3720758 81.0353224,78.0104341 C81.0604182,78.9270154 80.8632368,79.2768556 80.3433948,79.742143 C80.1991482,79.8752812 80.1324445,80.0698464 80.1655528,80.2608822 C80.1986611,80.451918 80.3272203,80.6142595 80.5083102,80.6937083 C83.0824244,81.8236922 85.240665,79.994028 85.5955916,77.8949868 C85.821454,76.5516005 85.4127506,75.1872237 85.4486018,73.8263454 C85.5182418,72.8373673 85.6887812,71.8576313 85.9576884,70.9016814 C86.3162002,69.3973686 89.7220616,55.631157 84.1973959,60.4449581 C81.41893,62.837865 82.9067536,70.167017 82.0499106,73.2875915 Z" id="Path" fill="url(#linearGradient-14)"></path>
                                <path d="M55.7995259,78.1458938 C55.9111358,78.3798139 55.9318479,78.6436146 55.8579974,78.8906165 C55.8160997,79.0077318 55.7237507,79.1025023 55.6039009,79.1513758 C55.484051,79.2002492 55.3479527,79.1986369 55.2294291,79.1469396 C55.1470008,79.0787615 55.0788197,78.9965124 55.0284334,78.9044718 C54.8712913,78.6065827 54.7141492,78.3086936 54.5423892,78.0246598 C54.0855809,79.8258496 55.1161406,81.6928521 54.907836,83.5494632 C54.8786002,83.9166288 54.6776045,84.3738539 54.2792676,84.3636364 C54.0923942,84.3421913 53.9172774,84.265864 53.7786056,84.1452413 C52.8023326,83.4700487 52.028894,82.5650275 51.5347628,81.5196608 C51.2504373,80.7682921 51.1201958,79.9723511 51.1510438,79.1746502 C51.1751757,78.326663 51.2557341,77.4809638 51.3922386,76.642593 C51.8807563,73.0781202 52.6206146,69.5486637 53.6068457,66.0779221 C53.7674515,66.2277988 53.9451812,66.3602418 54.1367434,66.4727983 C54.8676368,66.9196319 55.6935464,67.3941762 56.5523461,67.4080315 C56.4470381,69.1568131 56.1256858,70.8878519 55.5948758,72.5656692 C55.2513559,73.6048172 54.8237832,74.6647481 54.9663074,75.7489258 C55.0869048,76.5871718 55.5290954,77.3457498 55.7995259,78.1458938 Z" id="Path" fill="url(#linearGradient-15)"></path>
                                <path d="M75.7703924,46.4877784 C76.358829,48.2777659 77.3560002,49.9059661 78.1628984,51.6133388 C79.3644367,54.164071 80.9817567,55.3619857 81.2812604,58.1536778 C81.4398212,59.5753409 81.4961984,61.0692921 82.2150072,62.3153988 C82.9338161,63.5615054 84.6004661,64.4392878 85.8971409,63.7680425 C87.1938158,63.0967971 87.3911359,61.2758291 87.3065701,59.7887625 C86.985925,53.7165741 85.8548581,47.2691768 83.388357,41.6548122 C82.6061238,39.8923629 80.0409627,34.5740346 77.5920796,35.4139519 C74.7168441,36.3950027 75.0339656,44.2468518 75.7703924,46.4877784 Z" id="Path" fill="#EB6345"></path>
                                <path d="M75.7703924,46.4877784 C76.358829,48.2777659 77.3560002,49.9059661 78.1628984,51.6133388 C79.3644367,54.164071 80.9817567,55.3619857 81.2812604,58.1536778 C81.4398212,59.5753409 81.4961984,61.0692921 82.2150072,62.3153988 C82.9338161,63.5615054 84.6004661,64.4392878 85.8971409,63.7680425 C87.1938158,63.0967971 87.3911359,61.2758291 87.3065701,59.7887625 C86.985925,53.7165741 85.8548581,47.2691768 83.388357,41.6548122 C82.6061238,39.8923629 80.0409627,34.5740346 77.5920796,35.4139519 C74.7168441,36.3950027 75.0339656,44.2468518 75.7703924,46.4877784 Z" id="Path" fill="url(#linearGradient-16)"></path>
                                <path d="M59.7130484,42.0386746 C59.1650666,42.7991618 58.717356,43.62498 58.3806398,44.4963501 C57.8935975,45.9305646 58.0327525,47.4845822 58.1579919,48.9941015 C58.4270248,52.1888514 58.624161,55.3972931 58.7494004,58.6194266 C58.8920343,62.1792907 58.926823,65.858958 57.5457102,69.1518324 C57.2674003,69.812461 56.9299495,70.4867814 56.971696,71.2056001 C57.0517101,72.5234345 58.3632455,73.4031317 59.5564991,73.9953014 C61.0552821,74.7356648 62.6132389,75.3538663 64.2147109,75.8436924 C66.5316408,76.5556652 69.2799509,76.9219205 71.2002892,75.4637454 C72.5153034,74.4608221 73.1449795,72.7664637 73.1832472,71.1302953 C73.2215148,69.494127 72.7414302,67.8887652 72.1917682,66.3381705 C70.9741624,62.860457 69.3495284,59.5265073 68.2084579,56.0145644 C67.0673873,52.5026215 66.3994436,48.7579182 67.1265282,45.1501328 C67.5544296,43.0039455 68.4728522,40.9262171 68.4485001,38.7355314 C67.8354921,39.5393914 66.9849343,40.1371656 66.0132886,40.4470046 C65.0287674,40.7105715 63.8633447,40.4743882 63.2301897,39.6871105 C62.781415,39.1291703 62.7640206,38.4685416 62.6213868,37.8181818 C61.4385698,38.6533807 60.5131894,40.8235287 59.7130484,42.0386746 Z" id="Path" fill="#FFFFFF"></path>
                                <path d="M65.6443625,30.9210135 C61.9845231,29.9087915 60.2608118,24.816268 60.0170547,22.3625024 C59.7732975,19.9087368 59.452931,18.0902277 59.4633777,16.2298336 C59.4738244,14.3694394 60.0727706,12.4357465 61.4552218,11.1966472 C62.3037109,10.4903391 63.2943483,9.9759985 64.3594141,9.68878555 C66.7969856,8.93485472 69.5827815,8.82316127 71.6965042,10.2507433 C73.4376267,11.427015 74.4126553,13.4898535 74.7190928,15.5666537 C75.0255304,17.6434539 74.736504,19.7551583 74.3917618,21.8284681 C74.3041502,22.5510997 74.1105376,23.2567985 73.8171914,23.9227204 C73.4968248,24.5824098 71.9541903,32.6732045 65.6443625,30.9210135 Z" id="Path" fill="url(#linearGradient-17)"></path>
                                <path d="M71.4536978,14.2905693 C69.1575318,14.5149063 67.2284754,16.183837 66.0336379,18.1212922 C65.6406542,18.8387328 65.209454,19.5353682 64.741828,20.2083054 C63.8344442,21.3843747 62.5183913,22.1899482 61.1884852,22.8799542 C60.603188,23.1858682 59.962478,23.5223736 59.7131206,24.1240044 C59.4014239,24.8649961 59.7962398,25.6875648 60.1010099,26.4285564 C60.4057801,27.1695481 60.5720183,28.1280785 59.962478,28.6753247 C59.6992674,28.1348766 59.6542446,27.4890582 59.2698186,27.0335863 C58.8853926,26.5781144 58.2308295,26.4353545 57.7425046,26.1022482 C56.6723458,25.3816508 56.4160618,23.9132637 56.6134697,22.6522182 C56.8108777,21.3911728 57.3546153,20.2015073 57.513927,18.9370629 C57.6108993,18.1620808 57.5589498,17.3735025 57.6905551,16.6019194 C57.9087428,15.3238788 58.6083289,14.1817999 59.3217681,13.0941058 C59.8058253,12.2926638 60.3873018,11.55191 61.0534166,10.888126 C62.480295,9.56589781 64.4682276,8.96086793 66.4249904,8.78411763 C68.4370854,8.60876535 70.4644472,8.84013153 72.3818615,9.46392648 C73.2927086,9.75624429 74.3005281,10.2932933 74.42867,11.2246314 C74.4744264,11.8930603 74.143409,12.5323748 73.5663091,12.8901631 C72.9957748,13.2345341 72.3524867,13.446148 71.6857387,13.5087892" id="Path" fill="#606161"></path>
                                <path d="M72.0918534,12.5095501 C71.8956156,12.5929943 71.7295,12.7377372 71.6167234,12.9235494 C71.5467615,13.0903092 71.5165026,13.2719818 71.528485,13.4533281 C71.4901579,14.0644871 71.6245797,14.6739792 71.9153766,15.2075622 C72.3735377,15.9092558 73.2389531,16.2004587 73.8803786,16.7442713 C74.6066338,17.4109696 75.0543536,18.3429565 75.1292918,19.3440462 C75.2000764,20.3387194 75.0742123,21.3378771 74.7593692,22.2806341 C74.3453273,23.6559537 73.7140831,24.999697 73.7140831,26.438169 C73.724314,27.7637258 74.2663278,29.02542 75.2107427,29.9220779 C74.6888628,28.1750988 74.8258724,26.288663 75.5942405,24.6418332 C76.0014948,23.7998009 76.5682571,23.0560056 77.0026617,22.2315156 C77.4985118,21.3300588 77.7593023,20.3108865 77.7594759,19.2738769 C77.6938967,18.3295438 77.4902181,17.4009448 77.155382,16.5197293 C76.7379464,15.228613 76.3306921,13.8147003 75.5501213,12.6990074 C74.8476076,11.7096194 73.0319321,12.02889 72.0918534,12.5095501 Z" id="Path" fill="#606161"></path>
                                <path d="M76.3154109,11.7586047 C76.4612504,10.3358984 76.0088636,8.91694734 75.0727284,7.86082103 C74.1365931,6.80469472 72.8064103,6.21259171 71.4187862,6.23434524 C70.8320051,6.25497307 70.2501493,6.3524291 69.6872165,6.52436886 C69.153777,6.65910588 68.6486863,6.89312106 68.1967938,7.2149013 C67.859839,7.48458144 67.5650222,7.80596634 67.3226357,8.16783606 C66.8850382,8.71705635 66.6105716,9.38484233 66.5321719,10.0909689 C66.5282123,10.9032904 66.8450034,11.6823245 67.4097166,12.2488828 C67.9821171,12.808411 68.6512626,13.2522742 69.3824334,13.5574417 C70.7929815,14.2126577 72.2874932,14.6556672 73.8202088,14.872906 C74.5039245,15.0077003 75.2078925,14.9876729 75.8833558,14.8142108 C76.5641949,14.6336429 77.1040009,14.099431 77.3067932,13.4055246 C77.4073077,12.8673707 77.3003775,12.3100208 77.0087086,11.8518266 C76.7212875,11.3971898 76.3779189,10.982872 75.987183,10.6192262" id="Path" fill="#606161"></path>
                            </g>
                        </g>
                    </g>
                </g>
            </g>
        </g>
    </g>
</svg>