<?xml version="1.0" encoding="utf-8"?>
<!-- Generator: Adobe Illustrator 25.0.0, SVG Export Plug-In . SVG Version: 6.00 Build 0)  -->
<svg version="1.1" id="Layer_1" xmlns="http://www.w3.org/2000/svg" xmlns:xlink="http://www.w3.org/1999/xlink" x="0px" y="0px"
	 viewBox="0 0 130 160" style="enable-background:new 0 0 130 160;" xml:space="preserve">
<style type="text/css">
	.st0{fill:#D74340;}
	.st1{fill:#FF4F5B;}
	.st2{fill:#FFFFFF;}
	.st3{fill-rule:evenodd;clip-rule:evenodd;fill:#010101;}
	.st4{fill-rule:evenodd;clip-rule:evenodd;fill:#EE1D51;}
	.st5{fill-rule:evenodd;clip-rule:evenodd;fill:#66C8CF;}
	.st6{fill-rule:evenodd;clip-rule:evenodd;fill:#FFFFFF;}
	.st7{fill-rule:evenodd;clip-rule:evenodd;fill:#EE1D52;}
	.st8{fill-rule:evenodd;clip-rule:evenodd;fill:#69C9D0;}
	.st9{fill:#1A2E35;}
	.st10{fill:#375A64;}
	.st11{fill:#126FB7;}
	.st12{opacity:0.2;}
	.st13{fill:#54B67A;}
	.st14{fill:#233AC4;}
	.st15{fill:#FFBF9D;}
	.st16{fill:#FF9A6C;}
	.st17{fill:#106299;}
	.st18{fill:#FAFAFA;}
	.st19{fill:none;stroke:#FF9A6C;stroke-width:5.000000e-02;stroke-miterlimit:10;}
	.st20{fill:url(#SVGID_1_);}
	.st21{fill:#2DB78E;}
	.st22{fill:#E1E1E1;}
	.st23{opacity:0.4;}
	.st24{fill:#B66955;}
	.st25{fill:#8A4330;}
</style>
<path class="st0" d="M20.4,127c0,0,4.6-79.2,13.8-64.3S41.6,76.3,53,47.5s26.6-36.1,29.3-19.9c2.6,16.1,14.1,21.2,20.2,3.7
	s22.9-20.1,23.7,9.6C127,70.7,107.5,78.6,85,83s-34.7,22.2-45.1,39.4S19.2,143.6,20.4,127z"/>
<path class="st0" d="M106.8,15.8h-0.2c0-0.1,1.4-6.8,8.3-7.6c1.4-0.2,2.7-0.2,3.9-0.3c4.6-0.2,7.4-0.3,8.5-6.6h0.2
	c-1.1,6.4-4.2,6.5-8.7,6.7c-1.1,0-2.5,0.1-3.9,0.3C108.1,9.1,106.8,15.7,106.8,15.8z"/>
<path class="st0" d="M107.9,17.5h-0.2c0-0.1,1.4-6.8,8.3-7.6c1.4-0.2,2.7-0.2,3.9-0.3c4.6-0.2,7.4-0.3,8.5-6.6h0.2
	c-1.1,6.4-4.2,6.5-8.7,6.7c-1.1,0-2.5,0.1-3.9,0.3C109.2,10.8,107.9,17.4,107.9,17.5z"/>
<path class="st0" d="M109.4,19.2h-0.2c0-0.1,1.4-6.8,8.3-7.6c1.4-0.2,2.7-0.2,3.9-0.3c4.6-0.2,7.4-0.3,8.5-6.6h0.2
	c-1.1,6.4-4.2,6.5-8.8,6.7c-1.1,0-2.5,0.1-3.9,0.3C110.7,12.5,109.4,19.1,109.4,19.2z"/>
<g>
	<g>
		<g>
			<g>
				<path class="st0" d="M5.9,18.4c-0.1,1.2-1.2,2.2-2.5,2c-1.2-0.1-2.2-1.2-2-2.5c0.1-1.2,1.2-2.2,2.5-2C5.1,16.1,6,17.2,5.9,18.4z
					"/>
			</g>
		</g>
	</g>
	<g>
		<g>
			<g>
				<g>
					<path class="st0" d="M5.7,17.7c-0.1,0.1-1.4-1.9-2.5-4.6c-1.1-2.7-2-4.9-1.9-4.9c0.1-0.1,1.2,2,2.3,4.7
						C4.7,15.5,5.8,17.6,5.7,17.7z"/>
				</g>
			</g>
		</g>
	</g>
	<g>
		<g>
			<g>
				<g>
					<path class="st0" d="M5.6,6c0.1,0.1-0.5,1.2-1.8,1.9C2.5,8.6,1.2,8.4,1.3,8.3c0-0.1,1.1-0.2,2.3-0.9C4.8,6.8,5.5,5.9,5.6,6z"/>
				</g>
			</g>
		</g>
	</g>
	<g>
		<g>
			<g>
				<g>
					<path class="st0" d="M6.4,8.2C6.6,8.3,6,9.4,4.7,10c-1.4,0.6-2.6,0.2-2.5,0.1c0-0.1,1.1,0,2.3-0.5C5.7,9,6.3,8.2,6.4,8.2z"/>
				</g>
			</g>
		</g>
	</g>
</g>
<g>
	<g>
		<g>
			<g>
				<g>
					<g>
						<path class="st0" d="M19.6,12c-0.2,0.8-1,1.4-1.8,1.2c-0.8-0.2-1.4-1-1.2-1.8c0.2-0.8,1-1.4,1.8-1.2
							C19.2,10.4,19.7,11.2,19.6,12z"/>
					</g>
				</g>
			</g>
			<g>
				<g>
					<g>
						<g>
							<path class="st0" d="M19.4,11.5c-0.1,0.1-0.9-1.4-1.4-3.3c-0.5-1.9-0.9-3.4-0.8-3.5c0.1-0.1,0.8,1.4,1.3,3.3
								C19,9.9,19.6,11.4,19.4,11.5z"/>
						</g>
					</g>
				</g>
			</g>
			<g>
				<g>
					<g>
						<g>
							<path class="st0" d="M22.1,4.3c0.1,0.1-0.9,1-2.4,1.2c-0.8,0.1-1.5,0.1-1.9-0.1c-0.5-0.2-0.7-0.5-0.6-0.5
								c0.1-0.1,0.3,0.1,0.7,0.2c0.4,0.1,1.1,0.1,1.7,0C21,4.8,22.1,4.1,22.1,4.3z"/>
						</g>
					</g>
				</g>
			</g>
		</g>
		<g>
			<g>
				<g>
					<path class="st0" d="M24.5,11.6c-0.2,0.8-1,1.4-1.8,1.2c-0.8-0.2-1.4-1-1.2-1.8c0.2-0.8,1-1.4,1.8-1.2S24.7,10.7,24.5,11.6z"/>
				</g>
			</g>
		</g>
		<g>
			<g>
				<g>
					<g>
						<path class="st0" d="M24.4,11c-0.1,0.1-0.9-1.4-1.4-3.3c-0.5-1.9-0.9-3.4-0.8-3.5c0.1-0.1,0.8,1.4,1.3,3.3
							C24,9.5,24.5,11,24.4,11z"/>
					</g>
				</g>
			</g>
		</g>
		<g>
			<g>
				<g>
					<g>
						<path class="st0" d="M22.5,5.3c0.1,0.1-0.7,1-2.2,1.3c-1.4,0.3-2.6-0.1-2.5-0.3c0-0.2,1.1,0,2.4-0.3
							C21.5,5.8,22.4,5.1,22.5,5.3z"/>
					</g>
				</g>
			</g>
		</g>
	</g>
</g>
<g id="XMLID_11_">
	<g id="XMLID_20_">
		<path class="st1" d="M115.3,103.7L115.3,103.7c-6.4,0-11.7-5.2-11.7-11.7l0,0c0-6.4,5.2-11.7,11.7-11.7h0
			c6.4,0,11.7,5.2,11.7,11.7l0,0C126.9,98.4,121.7,103.7,115.3,103.7z"/>
	</g>
	<g id="XMLID_12_">
		<g id="XMLID_17_">
			<path class="st2" d="M115.3,86.8c1.7,0,1.9,0,2.6,0c0.6,0,1,0.1,1.2,0.2c0.3,0.1,0.5,0.3,0.7,0.5c0.2,0.2,0.4,0.4,0.5,0.7
				c0.1,0.2,0.2,0.6,0.2,1.2c0,0.7,0,0.9,0,2.6c0,1.7,0,1.9,0,2.6c0,0.6-0.1,1-0.2,1.2c-0.1,0.3-0.3,0.5-0.5,0.7
				c-0.2,0.2-0.4,0.4-0.7,0.5c-0.2,0.1-0.6,0.2-1.2,0.2c-0.7,0-0.9,0-2.6,0c-1.7,0-1.9,0-2.6,0c-0.6,0-1-0.1-1.2-0.2
				c-0.3-0.1-0.5-0.3-0.7-0.5c-0.2-0.2-0.4-0.4-0.5-0.7c-0.1-0.2-0.2-0.6-0.2-1.2c0-0.7,0-0.9,0-2.6c0-1.7,0-1.9,0-2.6
				c0-0.6,0.1-1,0.2-1.2c0.1-0.3,0.3-0.5,0.5-0.7c0.2-0.2,0.4-0.4,0.7-0.5c0.2-0.1,0.6-0.2,1.2-0.2
				C113.4,86.8,113.6,86.8,115.3,86.8 M115.3,85.6c-1.7,0-2,0-2.6,0c-0.7,0-1.1,0.1-1.6,0.3c-0.4,0.2-0.8,0.4-1.1,0.7
				c-0.4,0.4-0.6,0.7-0.7,1.1c-0.2,0.4-0.3,0.9-0.3,1.6c0,0.7,0,0.9,0,2.6c0,1.7,0,2,0,2.6c0,0.7,0.1,1.1,0.3,1.6
				c0.2,0.4,0.4,0.8,0.7,1.1c0.4,0.4,0.7,0.6,1.1,0.7c0.4,0.2,0.9,0.3,1.6,0.3c0.7,0,0.9,0,2.6,0c1.7,0,2,0,2.6,0
				c0.7,0,1.1-0.1,1.6-0.3c0.4-0.2,0.8-0.4,1.1-0.7c0.4-0.4,0.6-0.7,0.7-1.1c0.2-0.4,0.3-0.9,0.3-1.6c0-0.7,0-0.9,0-2.6
				c0-1.7,0-2,0-2.6c0-0.7-0.1-1.1-0.3-1.6c-0.2-0.4-0.4-0.8-0.7-1.1s-0.7-0.6-1.1-0.7c-0.4-0.2-0.9-0.3-1.6-0.3
				C117.2,85.6,117,85.6,115.3,85.6"/>
		</g>
		<g id="XMLID_14_">
			<path class="st2" d="M115.3,88.7c-1.8,0-3.3,1.5-3.3,3.3c0,1.8,1.5,3.3,3.3,3.3c1.8,0,3.3-1.5,3.3-3.3
				C118.6,90.2,117.1,88.7,115.3,88.7 M115.3,94.1c-1.2,0-2.1-1-2.1-2.1c0-1.2,1-2.1,2.1-2.1c1.2,0,2.1,1,2.1,2.1
				C117.4,93.2,116.5,94.1,115.3,94.1"/>
		</g>
		<g id="XMLID_13_">
			<path class="st2" d="M119.5,88.6c0,0.4-0.3,0.8-0.8,0.8c-0.4,0-0.8-0.3-0.8-0.8c0-0.4,0.3-0.8,0.8-0.8
				C119.1,87.8,119.5,88.2,119.5,88.6"/>
		</g>
	</g>
</g>
<g>
	<path class="st3" d="M10.8,69.8h20c1.4,0,2.5,1.1,2.5,2.5v20c0,1.4-1.1,2.5-2.5,2.5h-20c-1.4,0-2.5-1.1-2.5-2.5v-20
		C8.3,70.9,9.4,69.8,10.8,69.8z"/>
	<path class="st4" d="M24,92.8c0.8,0,1.4-0.6,1.4-1.4c0-0.8-0.6-1.4-1.4-1.4h-0.2c0.8,0,1.4,0.6,1.4,1.4c0,0.8-0.6,1.4-1.4,1.4H24z"
		/>
	<path class="st5" d="M23.8,90.1h-0.2c-0.8,0-1.4,0.6-1.4,1.4c0,0.8,0.6,1.4,1.4,1.4h0.2c-0.8,0-1.4-0.6-1.4-1.4
		C22.4,90.7,23,90.1,23.8,90.1z"/>
	<ellipse class="st3" cx="23.8" cy="91.5" rx="0.7" ry="0.7"/>
	<path class="st6" d="M13.3,89.5v0.7h0.8v2.6h0.8v-2.6h0.7l0.2-0.7H13.3z M20,89.5v0.7h0.8v2.6h0.8v-2.6h0.7l0.2-0.7H20z M16,89.9
		c0-0.2,0.2-0.4,0.4-0.4c0.2,0,0.4,0.2,0.4,0.4c0,0.2-0.2,0.4-0.4,0.4C16.1,90.3,16,90.1,16,89.9z M16,90.5h0.8v2.3H16V90.5z
		 M17.1,89.5v3.3h0.8v-0.9l0.2-0.2l0.8,1.1h0.8l-1.1-1.6l1-1h-1L17.9,91v-1.6H17.1z M25.7,89.5v3.3h0.8v-0.9l0.2-0.2l0.8,1.1h0.8
		l-1.1-1.6l1-1h-1L26.4,91v-1.6H25.7z"/>
	<path class="st7" d="M24.4,77.9c1.1,0.8,2.4,1.2,3.9,1.2v-2.8c-0.3,0-0.5,0-0.8-0.1v2.2c-1.4,0-2.8-0.5-3.9-1.2V83
		c0,2.8-2.3,5.1-5.2,5.1c-1.1,0-2-0.3-2.9-0.9c0.9,1,2.2,1.5,3.7,1.5c2.8,0,5.2-2.3,5.2-5.1L24.4,77.9L24.4,77.9z M25.4,75.1
		c-0.6-0.6-0.9-1.4-1-2.3v-0.4h-0.8C23.9,73.6,24.5,74.6,25.4,75.1L25.4,75.1z M17.4,85c-0.3-0.4-0.5-0.9-0.5-1.4
		c0-1.3,1.1-2.4,2.4-2.4c0.2,0,0.5,0,0.7,0.1v-2.8c-0.3,0-0.5-0.1-0.8,0v2.2c-0.2-0.1-0.5-0.1-0.7-0.1c-1.3,0-2.4,1.1-2.4,2.4
		C16.1,83.9,16.6,84.7,17.4,85z"/>
	<path class="st6" d="M23.6,77.3c1.1,0.8,2.4,1.2,3.9,1.2v-2.2c-0.8-0.2-1.5-0.6-2.1-1.2c-0.9-0.6-1.6-1.5-1.8-2.6h-2v11.1
		c0,1.3-1.1,2.3-2.4,2.3c-0.8,0-1.4-0.4-1.9-0.9c-0.8-0.4-1.3-1.2-1.3-2.1c0-1.3,1.1-2.4,2.4-2.4c0.2,0,0.5,0,0.7,0.1v-2.2
		c-2.8,0.1-5,2.3-5,5.1c0,1.4,0.6,2.7,1.5,3.6c0.8,0.6,1.8,0.9,2.9,0.9c2.8,0,5.2-2.3,5.2-5.1L23.6,77.3z"/>
	<path class="st8" d="M27.5,76.3v-0.6c-0.7,0-1.4-0.2-2.1-0.6C26,75.7,26.7,76.1,27.5,76.3z M23.7,72.5c0-0.1,0-0.2,0-0.3v-0.4h-2.8
		V83c0,1.3-1.1,2.3-2.4,2.3c-0.4,0-0.7-0.1-1.1-0.3c0.4,0.6,1.1,0.9,1.9,0.9c1.3,0,2.4-1.1,2.4-2.3V72.5H23.7z M19.2,78.5v-0.6
		c-0.2,0-0.5,0-0.7,0c-2.8,0-5.2,2.3-5.2,5.1c0,1.8,0.9,3.4,2.3,4.3c-0.9-0.9-1.5-2.2-1.5-3.6C14.1,80.8,16.4,78.5,19.2,78.5
		L19.2,78.5z"/>
	<path class="st6" d="M23.8,92.8c0.8,0,1.4-0.6,1.4-1.4c0-0.8-0.6-1.4-1.4-1.4h0c-0.8,0-1.4,0.6-1.4,1.4
		C22.4,92.2,23,92.8,23.8,92.8L23.8,92.8z M23.1,91.5c0-0.4,0.3-0.7,0.7-0.7c0.4,0,0.7,0.3,0.7,0.7c0,0.4-0.3,0.7-0.7,0.7
		C23.4,92.1,23.1,91.8,23.1,91.5z"/>
</g>
<g>
	<g>
		<path class="st9" d="M48.2,128.6c0,0-1.7,3.3-3,6.8c-1.2,3.5-3.7,22.4-3.7,22.4l51.5-0.1l1.2-0.1c0,0-1.6-23.4-8.3-31.1
			L48.2,128.6z"/>
	</g>
	<g>
		<g>
			<g>
				<path class="st9" d="M98.2,88.8c-0.6-0.7-1.4-1.2-1.8-2c-1.1-2.1,0.8-4.6,0.4-6.9c-0.6-3.3-4.8-4.2-7-6.7
					c-2.6-3-1.8-7.5-1.1-11.5c0.8-4.7,1.1-9.6-0.3-14.1c-0.7-2.3-2.3-4.6-4.2-6.5c-2.7-2.6-6.3-4.1-10.1-4.3l0,0
					c-3.4-0.1-6.5,3.4-9.3,5.3c-5.9,4.2-9.1,8.7-10.2,16.7c-1.5,10.4,2.1,21.1,8.3,29.6c5,6.9,11.9,12.7,20.2,14.7
					c3,0.7,6.2,0.9,9.2,0c3-0.9,5.7-2.9,7-5.7C100.7,94.7,100.3,91.1,98.2,88.8z"/>
			</g>
			<g>
				<g>
					<g>
						<path class="st10" d="M87.3,89.6c0,0,0.3-0.4,0.3-1.2c0-0.8-0.3-1.9-1.2-3c-0.4-0.6-1-1.1-1.5-1.8c-0.5-0.7-1-1.5-1.2-2.5
							c-0.1-0.5-0.1-1,0.1-1.5c0.2-0.5,0.5-0.9,0.7-1.4c0.2-0.4,0.1-0.9-0.2-1.3c-0.3-0.4-0.8-0.7-1.1-1.2c-0.7-0.9-0.9-2.1-0.9-3.1
							c0-1.1,0.3-2,0.6-2.9c0.6-1.8,1.3-3.3,1.6-4.7c0.3-1.4,0.1-2.6-0.2-3.3c-0.3-0.7-0.6-1.1-0.5-1.1c0,0,0.3,0.3,0.7,1.1
							c0.3,0.7,0.5,1.9,0.3,3.4c-0.2,1.4-0.9,3-1.5,4.8c-0.3,0.9-0.5,1.8-0.5,2.9c0,1,0.2,2.1,0.8,2.9c0.3,0.4,0.7,0.8,1.1,1.2
							c0.2,0.2,0.3,0.5,0.4,0.8c0,0.3,0,0.6-0.1,0.8c-0.2,0.5-0.5,0.9-0.7,1.3c-0.2,0.4-0.2,0.9-0.1,1.4c0.1,0.9,0.6,1.7,1.1,2.3
							c0.5,0.7,1,1.2,1.5,1.8c0.9,1.1,1.2,2.4,1.1,3.2c0,0.4-0.1,0.7-0.2,0.9C87.3,89.5,87.3,89.6,87.3,89.6z"/>
					</g>
				</g>
				<g>
					<g>
						<path class="st10" d="M79.8,80.2c0,0,0-0.1-0.1-0.2c0-0.1-0.1-0.3-0.2-0.5c-0.2-0.5-0.3-1.2-0.3-2.1c0-0.9,0.1-1.9,0.4-3.1
							c0.3-1.1,0.7-2.3,1.2-3.6c0.5-1.2,1-2.4,1.3-3.5c0.3-1.1,0.5-2.1,0.6-3c0.1-1.7-0.2-2.8-0.2-2.8c0,0,0.1,0.2,0.2,0.7
							c0.1,0.5,0.2,1.2,0.2,2.1c0,0.9-0.2,1.9-0.6,3c-0.3,1.1-0.8,2.3-1.3,3.6c-0.5,1.2-0.9,2.4-1.2,3.5c-0.3,1.1-0.4,2.1-0.4,3
							C79.4,79.2,79.9,80.2,79.8,80.2z"/>
					</g>
				</g>
			</g>
			<g>
				<path class="st11" d="M57.3,69.4c-0.6,0.4-13.6-0.2-15.5,2.3c0,0,2,51.4,6.4,56.9l37.6-2l-4.8-47.1l2.2-5.1l-11.4-3.4L57.3,69.4
					z"/>
			</g>
			<g class="st12">
				<g>
					<path d="M44.9,106.3c1.5,0.5,3.3,0.2,4.6-0.7c1.4-0.8,2.4-2.1,3.3-3.5c2.5-3.8,3.7-8.4,4.2-12.9c0.4-4.6,0.2-9.1-0.1-13.7
						c-0.5,4.6-0.9,9.2-2,13.8c-1.1,4.5-2.7,8.9-5.4,12.7c-0.7,1-1.5,1.9-2.5,2.5c-1,0.7-2.2,1-3.4,0.7"/>
				</g>
			</g>
			<g>
				<path class="st13" d="M58.3,57.3c-1.2-1.1-2.1-2.6-2.3-4.2c-0.2-1.6,0.3-3.3,1.4-4.5c1.1-1.2,2.9-1.7,4.5-1.2"/>
			</g>
			<g>
				<g>
					<path class="st14" d="M67.2,38.1c3.4-2,5.9-1.9,8.6-1.4C80,37.6,84,40,86.2,43.6c2,3.3,2.2,7.5,1.2,11.2
						c-0.3,1.3-1.2,2.4-2,3.5c-0.8,1.1-2.8,2.1-4.2,2.2c-1.4,0.1-1.7-0.4-2.3-1.6c-0.4-0.7-0.4-1.6-0.5-2.4
						c-0.2-3.5-0.6-7.1-1.9-10.3c-1.4-3.3-3.8-6.2-7.2-7.4"/>
				</g>
				<g>
					<g>
						<g>
							<path class="st9" d="M62.9,44.5c0.3-2.7,2-5.1,4.3-6.4c1.8-1,3.9-1.2,5.9-1.1c2.7,0.2,5.4,1.1,7.4,2.9c2,1.8,3.1,4.7,2.4,7.3
								c-0.3,1.2-0.9,2.3-1,3.5c0,0.5,0.1,1.1-0.2,1.6c-0.3,0.4-0.8,0.5-1.3,0.4c-0.5-0.1-0.9-0.4-1.2-0.8c-1.2-1.1-2-2.6-2.8-4.1"
								/>
						</g>
					</g>
					<g>
						<g>
							<g>
								<g>
									<g>
										<g>
											<path class="st15" d="M62.4,45.7c1.5-3.5,5.5-7,8.9-5.3l10.1,6.9c1,0.5,1.5,1.7,1.1,2.8l-11,26.4c0,0,0,0,0,0l-4,2.3
												c-3.7,2.1-8.4-0.2-8.8-4.4c0-0.3,0-0.5,0-0.7l0,0c0.1-0.2,0.1-0.4,0.1-0.6c0.4-2,1.3-3.7,1.3-3.7l0,0
												c0.8-2.2,1.1-3.1,1.1-3c0,0-4.3-2.4-3-8.7C58.8,54.4,60.7,49.6,62.4,45.7z"/>
										</g>
									</g>
								</g>
							</g>
							<g>
								<g>
									<g>
										<g>
											<g>
												<g>
													<g>
														<g>
															<g>
																<g>
																	<g>
																		<g>
																			<g>
																				<g>
																					<g>
																						<g>
																							<g>
																								<g>
																									<g>
																										<g>
																											<g>
																												<path class="st9" d="M61.9,49.9c0.1,0.1,0.8-0.1,1.6,0.2c0.8,0.3,1.3,0.9,1.4,0.9c0.1,0,0-0.2-0.2-0.5
																													c-0.2-0.3-0.6-0.6-1.1-0.8c-0.5-0.2-1-0.2-1.3-0.1C62,49.7,61.9,49.8,61.9,49.9z"/>
																											</g>
																										</g>
																									</g>
																								</g>
																							</g>
																						</g>
																					</g>
																				</g>
																			</g>
																		</g>
																	</g>
																</g>
															</g>
															<g>
																<g>
																	<g>
																		<g>
																			<g>
																				<g>
																					<g>
																						<g>
																							<g>
																								<g>
																									<g>
																										<g>
																											<g>
																												<path class="st9" d="M70.1,53c0.1,0.1,0.8-0.1,1.6,0.2c0.8,0.3,1.3,0.9,1.4,0.9c0.1,0,0-0.2-0.2-0.5
																													c-0.2-0.3-0.6-0.6-1.1-0.8c-0.5-0.2-1-0.2-1.3-0.1C70.2,52.8,70.1,52.9,70.1,53z"/>
																											</g>
																										</g>
																									</g>
																								</g>
																							</g>
																						</g>
																					</g>
																				</g>
																			</g>
																		</g>
																	</g>
																</g>
															</g>
															<g>
																<g>
																	<g>
																		<g>
																			<g>
																				<g>
																					<g>
																						<g>
																							<g>
																								<g>
																									<g>
																										<g>
																											<path class="st9" d="M65.3,56.7c0,0-0.5-0.3-1.2-0.7c-0.2-0.1-0.4-0.2-0.4-0.4c0-0.2,0.2-0.4,0.4-0.6
																												c0.4-0.4,0.8-0.9,1.2-1.4c1.7-2,3-3.6,2.9-3.7c-0.1-0.1-1.5,1.5-3.2,3.4c-0.4,0.5-0.8,0.9-1.2,1.4
																												c-0.2,0.2-0.4,0.4-0.4,0.8c0,0.2,0.1,0.3,0.2,0.4c0.1,0.1,0.2,0.1,0.3,0.2
																												C64.8,56.6,65.3,56.8,65.3,56.7z"/>
																										</g>
																									</g>
																								</g>
																							</g>
																						</g>
																					</g>
																				</g>
																			</g>
																		</g>
																	</g>
																</g>
															</g>
															<g>
																<g>
																	<g>
																		<g>
																			<g>
																				<g>
																					<g>
																						<g>
																							<g>
																								<g>
																									<g>
																										<path class="st16" d="M61.2,66.2c0,0,3.9,1.7,8.8,0.8c0,0-3.5,3.4-9.3,0.6L61.2,66.2z"/>
																									</g>
																								</g>
																							</g>
																						</g>
																					</g>
																				</g>
																			</g>
																		</g>
																	</g>
																</g>
															</g>
														</g>
													</g>
												</g>
												<g>
													<g>
														<g>
															<g>
																<g>
																	<g>
																		<g>
																			<g>
																				<g>
																					<g>
																						<g>
																							<path class="st9" d="M74.9,50.9c0.1-0.2-0.7-0.6-1.5-1.3c-0.8-0.7-1.3-1.4-1.6-1.3c-0.1,0.1-0.1,0.3,0,0.7
																								c0.1,0.4,0.5,0.9,0.9,1.3c0.5,0.4,1,0.6,1.4,0.7C74.6,51,74.9,51,74.9,50.9z"/>
																						</g>
																					</g>
																				</g>
																			</g>
																		</g>
																	</g>
																</g>
															</g>
														</g>
													</g>
												</g>
												<g>
													<g>
														<g>
															<g>
																<g>
																	<g>
																		<g>
																			<g>
																				<g>
																					<g>
																						<g>
																							<path class="st9" d="M66.3,46.2c-0.1-0.2-0.8-0.1-1.5-0.1c-0.7,0-1.3-0.2-1.5-0.1c-0.1,0.1,0,0.3,0.3,0.5
																								c0.2,0.2,0.7,0.4,1.2,0.4c0.5,0,0.9-0.1,1.2-0.3C66.3,46.5,66.4,46.3,66.3,46.2z"/>
																						</g>
																					</g>
																				</g>
																			</g>
																		</g>
																	</g>
																</g>
															</g>
														</g>
													</g>
												</g>
											</g>
										</g>
									</g>
								</g>
							</g>
						</g>
					</g>
					<g>
						<g>
							<g>
								<g>
									<g>
										<g>
											<g>
												<g>
													<g>
														<g>
															<g>
																<g>
																	<path class="st15" d="M77.2,59.4c0.2-0.4,1.1-1.3,1.5-1.2c1.2,0.2,3.3,1.1,2.2,4.1c-1.5,4.1-5.3,1.8-5.2,1.6
																		C75.7,63.9,76.6,61,77.2,59.4z"/>
																</g>
															</g>
														</g>
													</g>
												</g>
											</g>
										</g>
									</g>
								</g>
							</g>
						</g>
						<g>
							<g>
								<g>
									<g>
										<g>
											<g>
												<g>
													<g>
														<g>
															<g>
																<g>
																	<g>
																		<path class="st16" d="M77.5,62.9c0,0,0.1,0.1,0.2,0.2c0.1,0.1,0.3,0.2,0.5,0.2c0.5,0,1.1-0.6,1.4-1.3
																			c0.1-0.4,0.2-0.7,0.2-1.1c0-0.3-0.1-0.6-0.3-0.7c-0.2-0.1-0.4-0.1-0.5,0c-0.1,0.1-0.1,0.2-0.1,0.2
																			c0,0-0.1-0.1,0-0.3c0-0.1,0.1-0.2,0.3-0.2c0.1,0,0.3,0,0.4,0c0.3,0.1,0.5,0.5,0.5,0.9c0,0.4,0,0.8-0.2,1.2
																			c-0.3,0.8-1,1.4-1.7,1.4c-0.3,0-0.5-0.2-0.6-0.3C77.5,63,77.5,62.9,77.5,62.9z"/>
																	</g>
																</g>
															</g>
														</g>
													</g>
												</g>
											</g>
										</g>
									</g>
								</g>
							</g>
						</g>
					</g>
				</g>
				<g>
					<path class="st9" d="M71,39.4c-0.4,2.1,0.4,4.4,2.1,5.7c0.9,0.7,2.1,1.3,2.3,2.4c0.3,1.1-0.6,2.3-0.4,3.4
						c0.3,1.6,2.5,2.4,2.5,4c0,0.7-0.4,1.4-0.3,2.1c0.1,0.9,1,1.7,1.9,1.7c0.9,0.1,1.8-0.4,2.5-1.1c0.6-0.7,1-1.5,1.4-2.4
						c0.8-1.7,1.4-3.4,1.6-5.3c0.2-3.8-2.9-10.5-6.5-11.6"/>
				</g>
				<g>
					<g>
						<path class="st10" d="M78.4,40.3c0,0.1-1.7-0.6-3.9-0.3c-2.2,0.2-3.7,1.3-3.7,1.2c0,0,0.3-0.3,1-0.7c0.6-0.4,1.6-0.7,2.7-0.9
							c1.1-0.1,2.1,0,2.8,0.2C78,40,78.4,40.3,78.4,40.3z"/>
					</g>
				</g>
				<g>
					<g>
						<path class="st10" d="M73.9,38.4c0,0.1-1,0.2-2,0.9c-1,0.7-1.3,1.7-1.4,1.7c0,0,0-0.3,0.2-0.7c0.2-0.4,0.5-0.9,1-1.3
							c0.5-0.4,1.1-0.6,1.5-0.7C73.7,38.3,73.9,38.3,73.9,38.4z"/>
					</g>
				</g>
			</g>
			<g>
				<g>
					<path class="st16" d="M65.9,60.9c0.8-0.2,1.5-0.6,1.6-1.4c0-0.4-0.1-0.8-0.4-0.9c-0.2-0.1-0.6-0.2-0.8-0.1
						c-0.9,0.2-1.6,0.5-2.5,0.4c0,0-0.4,0.8,0,1.4C64.3,60.8,65.1,61.1,65.9,60.9z"/>
				</g>
				<g>
					<g>
						<path class="st9" d="M65,60.9c0,0,0.1,0,0.3,0c0.2,0,0.5,0,0.8-0.1c0.3-0.1,0.7-0.2,1-0.6c0.3-0.3,0.5-0.9,0.3-1.3
							c-0.1-0.2-0.3-0.4-0.5-0.5c-0.2,0-0.5,0-0.7,0.1c-0.4,0.1-0.9,0.3-1.2,0.3c-0.4,0-0.6,0-0.8,0c-0.2,0-0.3,0-0.3,0
							c0,0,0.4,0,1.1-0.1c0.4,0,0.7-0.2,1.2-0.3c0.2-0.1,0.5-0.1,0.8-0.1c0.3,0,0.5,0.3,0.6,0.6c0.2,0.6-0.1,1.1-0.4,1.5
							c-0.2,0.2-0.4,0.3-0.6,0.4c-0.2,0.1-0.4,0.1-0.6,0.2c-0.4,0.1-0.7,0.1-0.9,0C65.1,61,65,60.9,65,60.9z"/>
					</g>
				</g>
			</g>
			<g>
				<path class="st1" d="M42,71.4c0,0-2.2,2-3.1,4.1c-1.1,2.6-5,7.3-4.8,11.1c0.1,2.9,1.2,7.7,8.8,6.4c7.7-1.3,8.6-7.1,8.6-7.1
					l-4.1-12.7L42,71.4z"/>
			</g>
			<g>
				<path class="st11" d="M42,71.5c0,0-2.4,2.1-3.1,4c-1,2.6-5,7.3-4.8,11.1c0.1,2.9,1.2,7.7,8.8,6.4c7.7-1.3,4.4-6.3,4.4-6.3
					l0.1-13.5L42,71.5z"/>
			</g>
			<g>
				<path class="st17" d="M47.6,84.6c0,0-6.8-4.4-13.3,0.2c-0.1,0.1,0.2-0.9,0.8-2c1-2.2,2.6-5.2,2.6-5.2s3.5-6.5,5.1-6.5l4.8,1.5
					V84.6z"/>
			</g>
			<g>
				<path class="st15" d="M38.3,83c0,0-0.8,9.6-0.6,13.3c0.2,3.7,3.6,13.7,10.5,8.5c6.9-5.1,9.3-34.7,9.3-34.7l-5.2-2.2l-6,16
					c0,0-1.5-0.8-3.7-1.1C40,82.5,38.4,82.9,38.3,83z"/>
			</g>
			<g>
				<path class="st15" d="M52.1,68.6l-2.8-13.6l2.8-6.8c0,0,1.1,0.5,1,1.8c-0.1,1.3-1.4,4.5-1.4,4.5l3.6-4.9c0,0,1,0.4,0.5,1.6
					c-0.5,1.2-2.2,3.8-2.2,3.8l1.8,4.6c0,0,0.4-2.4,1.1-2.2c0.8,0.2,0.6,2.2,0.6,2.2l-0.2,3.9c0,0,1.3,2.7,0.9,4.4
					c-0.3,1.7-0.9,2.7-0.9,2.7L52.1,68.6z"/>
			</g>
			<g>
				<path class="st17" d="M86.9,77.2c-1.7-2.3-3.8-2.8-3.8-2.8l-3,5.9l4.1,14.7c3.3-1.9,6.9-3,9.8-2.8
					C94.1,92.1,89.3,80.3,86.9,77.2z"/>
			</g>
			<g class="st12">
				<g>
					<path d="M83.4,74.4c1,2.1-0.1,4.5-0.1,6.8c0,3.6,2.9,6.7,3.1,10.3c0.1,1-0.1,2-0.7,2.7c-0.6,0.7-1.8,1-2.6,0.4
						c-0.4-0.3-0.6-0.9-0.8-1.4c-1-2.9-2-5.8-3-8.7c-0.4-1.2-0.8-2.4-0.7-3.7c0.2-2.4,2.3-4.2,4.3-5.6"/>
				</g>
			</g>
			<g>
				<g>
					<g>
						
							<ellipse transform="matrix(0.2285 -0.9735 0.9735 0.2285 2.0538 123.5653)" class="st13" cx="79" cy="60.5" rx="5.3" ry="4.9"/>
					</g>
					<g>
						<g>
							<path class="st9" d="M77.4,65.5c0,0-0.1,0-0.1-0.1c-0.1-0.1-0.2-0.1-0.4-0.3c-0.3-0.2-0.8-0.6-1.1-1.3
								c-0.4-0.6-0.6-1.5-0.6-2.4c0-0.9,0.2-2,0.7-3c0.5-1,1.3-1.7,2.1-2.2c0.8-0.5,1.7-0.7,2.4-0.7c0.7,0,1.3,0.2,1.6,0.4
								c0.2,0.1,0.3,0.2,0.4,0.3c0.1,0.1,0.1,0.1,0.1,0.1c0,0-0.2-0.1-0.5-0.3c-0.3-0.2-0.9-0.4-1.6-0.3c-0.7,0-1.5,0.2-2.3,0.7
								c-0.8,0.5-1.5,1.2-2,2.1c-0.5,0.9-0.7,1.9-0.7,2.9c0,0.9,0.2,1.7,0.6,2.3c0.3,0.6,0.7,1,1,1.3C77.2,65.4,77.4,65.5,77.4,65.5
								z"/>
						</g>
					</g>
					<g>
						<g>
							<path class="st9" d="M75.4,56.8c0.1,0,0,0.4,0.2,0.7c0.3,0.3,0.6,0.4,0.6,0.5c0,0-0.1,0.1-0.3,0c-0.2,0-0.4-0.1-0.6-0.4
								c-0.2-0.2-0.2-0.5-0.2-0.6C75.4,56.9,75.4,56.8,75.4,56.8z"/>
						</g>
					</g>
					<g>
						<g>
							<path class="st9" d="M75.3,58.5c0-0.1,0.2,0,0.4,0c0.2,0,0.3,0.1,0.3,0.2c0,0.1-0.2,0.1-0.4,0.1
								C75.4,58.7,75.2,58.5,75.3,58.5z"/>
						</g>
					</g>
					<g>
						<g>
							<path class="st9" d="M74.3,62.7c0-0.1,0.3,0,0.5,0c0.3,0,0.5-0.2,0.5-0.1c0.1,0-0.1,0.3-0.5,0.4C74.5,63,74.2,62.8,74.3,62.7
								z"/>
						</g>
					</g>
				</g>
				<g>
					<path class="st13" d="M83.4,59.9c0,0,4.4-0.9,5.4-3.2c0.1,1.4,0.1,2.5-0.3,3.8l-6.1,2.9L83.4,59.9z"/>
				</g>
				<g>
					<g>
						<path class="st9" d="M83.9,59.6c0,0,0.1,0.2,0.1,0.6c0,0.4,0,0.9,0,1.4c-0.1,0.6-0.3,1-0.5,1.3c-0.2,0.3-0.4,0.4-0.4,0.4
							c0,0,0.1-0.2,0.3-0.5c0.2-0.3,0.4-0.8,0.4-1.3c0.1-0.5,0.1-1,0.1-1.4C83.8,59.8,83.8,59.6,83.9,59.6z"/>
					</g>
				</g>
			</g>
			<g>
				<g>
					<path class="st9" d="M74.2,101.7c0,0,0,0.1-0.1,0.3c-0.1,0.2-0.2,0.4-0.3,0.7c-0.1,0.2-0.1,0.3-0.2,0.5
						c-0.1,0.2-0.2,0.4-0.3,0.6c-0.2,0.4-0.5,1-0.8,1.5c-0.2,0.3-0.3,0.5-0.5,0.8c-0.2,0.3-0.4,0.6-0.6,0.9
						c-0.4,0.6-0.9,1.2-1.4,1.9c-1,1.3-2.2,2.6-3.7,3.9c-1.4,1.3-2.9,2.3-4.3,3.2c-0.7,0.4-1.4,0.8-2,1.2c-0.3,0.2-0.6,0.3-0.9,0.5
						c-0.3,0.1-0.6,0.3-0.9,0.4c-0.6,0.3-1.1,0.4-1.6,0.6c-0.2,0.1-0.4,0.2-0.6,0.2c-0.2,0.1-0.4,0.1-0.6,0.2
						c-0.3,0.1-0.6,0.2-0.8,0.2c-0.2,0.1-0.3,0.1-0.3,0.1c0,0,0.1,0,0.3-0.1c0.2-0.1,0.4-0.2,0.8-0.3c0.2-0.1,0.3-0.1,0.5-0.2
						c0.2-0.1,0.4-0.2,0.6-0.3c0.5-0.2,1-0.4,1.5-0.6c0.3-0.1,0.6-0.3,0.9-0.4c0.3-0.1,0.6-0.3,0.9-0.5c0.7-0.3,1.3-0.7,2-1.2
						c1.4-0.9,2.8-1.9,4.2-3.2c1.4-1.3,2.6-2.6,3.6-3.9c0.5-0.7,1-1.3,1.4-1.9c0.2-0.3,0.4-0.6,0.6-0.9c0.2-0.3,0.3-0.6,0.5-0.8
						c0.3-0.5,0.6-1,0.8-1.5c0.1-0.2,0.2-0.4,0.3-0.6c0.1-0.2,0.2-0.4,0.2-0.5c0.1-0.3,0.3-0.5,0.3-0.7
						C74.1,101.7,74.2,101.7,74.2,101.7z"/>
				</g>
			</g>
			<g>
				<g>
					<path class="st9" d="M48,75.5c-0.1,0-0.2-1.2-0.9-2.5c-0.6-1.3-1.4-2.2-1.4-2.3c0,0,0.2,0.2,0.5,0.6c0.3,0.4,0.7,0.9,1,1.6
						c0.3,0.7,0.5,1.3,0.6,1.8C48,75.2,48,75.5,48,75.5z"/>
				</g>
			</g>
			<g>
				<g>
					<path class="st18" d="M74.2,94.1c0,0-0.2-0.3-0.6-0.8c-0.4-0.5-1.1-1.2-2.1-1.8c-1-0.6-2.3-1.1-3.8-1.3c-1.5-0.2-3.2,0.2-4.8,1
						c-1.5,0.8-2.8,2.1-3.5,3.4c-0.7,1.3-1,2.7-1,3.9c0,1.2,0.2,2.1,0.3,2.7c0.2,0.6,0.3,0.9,0.3,1c0,0,0-0.1-0.1-0.2
						c-0.1-0.2-0.2-0.4-0.3-0.7c-0.2-0.6-0.4-1.6-0.4-2.7c0-1.2,0.3-2.6,1-3.9c0.7-1.4,2-2.7,3.5-3.5c1.6-0.8,3.3-1.2,4.9-1
						c1.5,0.1,2.9,0.7,3.9,1.3c1,0.6,1.7,1.3,2.1,1.8c0.2,0.3,0.3,0.5,0.4,0.6C74.2,94,74.3,94.1,74.2,94.1z"/>
				</g>
			</g>
			<g>
				<g>
					<path class="st18" d="M69.2,108.3c0,0-0.1,0-0.4,0.1c-0.1,0-0.3,0.1-0.5,0.1c-0.2,0-0.4,0-0.6,0c-0.2,0-0.5,0-0.8,0
						c-0.3,0-0.6-0.1-0.9-0.1c-0.6-0.1-1.3-0.3-1.9-0.6c-0.7-0.3-1.2-0.6-1.7-1c-0.2-0.2-0.5-0.4-0.7-0.6c-0.2-0.2-0.4-0.4-0.5-0.5
						c-0.2-0.2-0.3-0.3-0.4-0.5c-0.1-0.1-0.2-0.3-0.3-0.4c-0.1-0.2-0.2-0.3-0.2-0.3c0,0,0.3,0.5,1,1.1c0.2,0.2,0.3,0.3,0.5,0.5
						c0.2,0.2,0.4,0.4,0.7,0.5c0.5,0.3,1.1,0.7,1.7,1c0.6,0.3,1.3,0.5,1.9,0.6c0.3,0.1,0.6,0.1,0.8,0.1c0.3,0,0.5,0,0.7,0
						C68.7,108.4,69.2,108.2,69.2,108.3z"/>
				</g>
			</g>
			<g>
				<g>
					<path class="st9" d="M63.5,99c0,0,0,0.1-0.1,0.4c-0.1,0.2-0.3,0.6-0.5,1c-0.5,0.8-1.4,1.8-2.8,2.4c-1.3,0.6-2.7,0.6-3.7,0.5
						c-0.5-0.1-0.8-0.2-1.1-0.3c-0.2-0.1-0.4-0.2-0.4-0.2c0,0,0.6,0.2,1.5,0.3c0.9,0.1,2.3,0.1,3.6-0.5c1.3-0.6,2.2-1.6,2.7-2.3
						C63.3,99.5,63.4,99,63.5,99z"/>
				</g>
			</g>
			<g class="st12">
				<g>
					<path d="M55.7,103.3c-0.6-0.6-1.6-0.3-2,0.4c-0.4,0.7-0.2,1.6,0.4,2.2c0.5,0.6,1.3,0.9,2.1,1.1c1.7,0.4,3.6,0.1,5.1-0.8
						c1.5-0.9,2.6-2.6,2.7-4.3c0-0.3,0-0.7-0.3-0.9c-0.4-0.3-1,0.1-1.3,0.4c-2,1.7-4.8,2.5-7.3,1.9"/>
				</g>
			</g>
			<g class="st12">
				<g>
					<path d="M59.7,120.1c5.2-1.2,10-4.2,13.4-8.4c0.5-0.6,1.1-1.4,2-1.4c0.6,0,1.1,0.4,1.4,0.9c0.2,0.5,0.2,1.1,0.1,1.7
						c-0.4,1.6-1.9,2.8-3.3,3.7c-2,1.3-4.1,2.6-6.4,3.4c-2.3,0.8-4.8,1-7.1,0.3"/>
				</g>
			</g>
			<g>
				<g>
					<path class="st16" d="M52.2,48.3c0,0,0,0,0.1,0c0.1,0,0.2,0.1,0.3,0.2c0.2,0.2,0.5,0.6,0.6,1.1c0.1,0.5,0,1.2-0.2,1.9
						c-0.2,0.7-0.5,1.4-0.7,2.2c-0.1,0.3-0.2,0.7-0.3,1l0-0.1c0.5,1.3,0.9,2.4,1.2,3.2c0.1,0.4,0.2,0.7,0.3,1
						c0.1,0.2,0.1,0.4,0.1,0.4s-0.1-0.1-0.2-0.3c-0.1-0.3-0.2-0.6-0.4-0.9c-0.3-0.8-0.7-1.9-1.2-3.2l0,0l0,0c0.1-0.3,0.2-0.7,0.3-1
						c0.3-0.8,0.5-1.5,0.8-2.2c0.2-0.7,0.3-1.3,0.2-1.8c-0.1-0.5-0.3-0.9-0.5-1.1C52.4,48.4,52.3,48.4,52.2,48.3
						C52.2,48.3,52.2,48.3,52.2,48.3z"/>
				</g>
			</g>
			<g>
				<path class="st19" d="M52,55.1"/>
			</g>
			<g>
				<g>
					<path class="st16" d="M57.3,65c0,0-0.2-0.3-0.5-0.8c-0.3-0.5-0.8-1.2-1.5-1.8c-0.7-0.6-1.3-1.1-1.8-1.4
						c-0.5-0.3-0.9-0.5-0.8-0.5c0,0,0.1,0,0.3,0.1c0.2,0.1,0.4,0.2,0.6,0.3c0.5,0.3,1.2,0.8,1.9,1.4c0.7,0.7,1.1,1.3,1.4,1.9
						c0.1,0.3,0.3,0.5,0.3,0.6C57.2,64.9,57.3,65,57.3,65z"/>
				</g>
			</g>
			<g>
				<g>
					<path class="st16" d="M56.7,63.8c-0.1,0-0.3-1-0.7-2.2c-0.4-1.2-0.8-2.2-0.8-2.2c0,0,0.2,0.2,0.3,0.6c0.2,0.4,0.4,0.9,0.6,1.5
						c0.2,0.6,0.3,1.2,0.4,1.6C56.7,63.5,56.7,63.8,56.7,63.8z"/>
				</g>
			</g>
			<g>
				<path class="st15" d="M77.3,68.1c0,0-1.8,0-2.1,2.5c-0.2,2.5-0.5,3.6-0.5,3.6s-2.4,3.2-2.4,4.9c0,1.7,0.5,5.1,0.5,5.1l7.7-2
					l-0.5-2l4.9-8.8l2.8-9.2c0,0-1-0.6-1.7,0c-0.7,0.6-2.1,3.1-2.1,3.1s-1.4-1.9-2.4-1.8c-0.3,0-0.5,0.2-0.6,0.4
					c-0.3,0.5-0.1,1.1,0.3,1.4l0.8,0.7l-0.2,2.4l-4.2,3.9L77.3,68.1z"/>
			</g>
			<g>
				<g>
					<path class="st16" d="M79.3,75.8c0,0,0.1-0.2,0.2-0.4c0.2-0.3,0.4-0.6,0.8-1c0.4-0.4,0.9-0.9,1.4-1.4c0.5-0.5,1.1-1.1,1.6-1.8
						c0.5-0.7,0.7-1.5,0.8-2.2c0.1-0.7,0.1-1.4,0-1.9c0-0.6-0.1-1-0.1-1.3c0-0.3,0-0.5,0-0.5c0,0,0,0.2,0.1,0.5
						c0.1,0.3,0.1,0.8,0.2,1.3c0.1,0.6,0.1,1.2,0,2c-0.1,0.7-0.4,1.5-0.8,2.3c-0.5,0.7-1.1,1.3-1.6,1.8c-0.5,0.5-1,0.9-1.4,1.3
						c-0.4,0.4-0.7,0.7-0.9,1C79.5,75.7,79.4,75.8,79.3,75.8z"/>
				</g>
			</g>
			<g>
				<g>
					<path class="st16" d="M82.2,68.3c0,0-0.1,0.1-0.3,0.3c-0.2,0.2-0.5,0.5-0.9,0.8c-0.8,0.7-1.8,1.6-3,2.7c-1.2,1.1-2.2,2-2.9,2.8
						c-0.4,0.3-0.7,0.6-0.9,0.8c-0.2,0.2-0.3,0.3-0.3,0.3c0,0,0.1-0.1,0.3-0.3c0.2-0.2,0.5-0.5,0.9-0.9c0.7-0.7,1.7-1.7,2.9-2.8
						c1.2-1.1,2.3-2,3-2.6c0.4-0.3,0.7-0.6,1-0.8C82.1,68.4,82.2,68.3,82.2,68.3z"/>
				</g>
			</g>
			<g>
				<path class="st15" d="M72.9,84.2c0,0,4.7,25.4,5.9,27.3c1.3,1.9,4.8,7.2,8.9,6.7c4-0.5,6.4-4.7,6.9-8.6
					c0.5-3.9-3.1-17.6-3.1-17.6c-3.3-0.4-4.3,0.1-6.5,2.1l-4.3-11.8L72.9,84.2z"/>
			</g>
			<g>
				<g>
					<path class="st16" d="M80.3,80.1c0,0-0.2,0.2-0.4,0.6c-0.3,0.4-0.7,0.9-1.1,1.4c-0.8,1.1-1.6,2-1.7,1.9c0,0,0.2-0.2,0.4-0.6
						c0.3-0.4,0.7-0.9,1.1-1.4C79.4,80.9,80.2,80,80.3,80.1z"/>
				</g>
			</g>
			<g>
				<g>
					<path class="st16" d="M88.7,106.6c0,0,0-0.1,0-0.3c0-0.2,0-0.5,0-0.8c0-0.7-0.1-1.7-0.4-2.9c-0.3-1.2-0.7-2.6-1.3-4.2
						c-0.3-0.8-0.7-1.5-1-2.4c-0.3-0.8-0.7-1.7-1-2.6c-1.4-3.5-2.5-6.8-3.4-9.1c-0.4-1.2-0.7-2.1-1-2.8c-0.1-0.3-0.2-0.6-0.2-0.8
						c-0.1-0.2-0.1-0.3-0.1-0.3c0,0,0,0.1,0.1,0.3c0.1,0.2,0.2,0.4,0.3,0.8c0.2,0.7,0.6,1.6,1,2.8c0.9,2.3,2,5.6,3.4,9.1
						c0.3,0.9,0.7,1.7,1,2.6c0.3,0.8,0.7,1.6,1,2.4c0.6,1.5,1.1,3,1.3,4.2c0.3,1.2,0.3,2.2,0.4,2.9c0,0.3,0,0.6,0,0.8
						C88.7,106.5,88.7,106.6,88.7,106.6z"/>
				</g>
			</g>
		</g>
		<g>
			<g>
				<path class="st16" d="M52.1,68.3C52.1,68.3,52.1,68.4,52.1,68.3c0,0.1-0.1,0.2-0.1,0.3c-0.1,0.2-0.2,0.5-0.3,0.8
					c-0.3,0.7-0.7,1.8-1.1,3.1c-1,2.6-2.3,6.2-3.8,10.2c-0.4,1-0.7,2-1.2,2.9c-0.4,0.9-0.9,1.8-1.3,2.6c-0.4,0.8-0.9,1.6-1.2,2.3
					c-0.4,0.7-0.6,1.4-0.9,2.1c-0.4,1.3-0.6,2.4-0.6,3.2c0,0.2,0,0.4,0,0.5c0,0.1,0,0.3,0,0.4c0,0.1,0,0.2,0,0.2c0,0.1,0,0.1,0,0.1
					c0,0,0,0,0-0.1c0-0.1,0-0.1,0-0.2c0-0.1,0-0.2,0-0.4c0-0.1,0-0.3,0-0.5c0-0.8,0.1-1.9,0.5-3.2c0.2-0.7,0.5-1.4,0.9-2.1
					c0.4-0.7,0.8-1.5,1.2-2.3c0.4-0.8,0.9-1.7,1.3-2.6c0.4-0.9,0.8-1.9,1.2-2.9c1.5-4,2.9-7.5,3.9-10.1c0.5-1.3,0.9-2.3,1.2-3.1
					c0.1-0.3,0.3-0.6,0.3-0.8C52,68.5,52,68.5,52.1,68.3C52.1,68.3,52.1,68.3,52.1,68.3z"/>
			</g>
		</g>
	</g>
</g>
<g>
	<g>
		<path class="st2" d="M63.2,100.5"/>
		<path class="st2" d="M63.2,100.5"/>
	</g>
	<g>
		<path class="st2" d="M65.4,96.8l0.3,0.1l-0.3,1.3c0,0.1,0,0.3,0.1,0.4c0.1,0.1,0.1,0.2,0.3,0.2c0.1,0,0.2,0,0.3,0
			c0.1-0.1,0.1-0.1,0.2-0.3l0.3-1.3l0.3,0.1l-0.3,1.4c0,0.2-0.2,0.4-0.3,0.5c-0.2,0.1-0.3,0.1-0.5,0.1c-0.2-0.1-0.4-0.2-0.5-0.3
			c-0.1-0.2-0.1-0.4-0.1-0.6L65.4,96.8z"/>
		<path class="st2" d="M67.2,97.3l0.7,0.2c0.1,0,0.2,0.1,0.2,0.1c0.1,0,0.1,0.1,0.2,0.2c0.1,0.1,0.1,0.1,0.1,0.2c0,0.1,0,0.2,0,0.3
			c0,0.2-0.1,0.3-0.2,0.4c-0.1,0.1-0.3,0.1-0.5,0.1l-0.5-0.1l-0.2,0.8l-0.3-0.1L67.2,97.3z M67.4,98.4l0.4,0.1c0.1,0,0.2,0,0.3,0
			c0.1-0.1,0.1-0.1,0.1-0.2c0-0.1,0-0.1,0-0.2c0,0,0-0.1-0.1-0.1c-0.1-0.1-0.1-0.1-0.2-0.1l-0.4-0.1L67.4,98.4z"/>
		<path class="st2" d="M70,99.7c-0.1,0.2-0.2,0.3-0.3,0.4c-0.1,0.1-0.3,0.1-0.5,0c-0.2,0-0.3-0.1-0.4-0.2c-0.1-0.1-0.2-0.2-0.2-0.3
			c0,0,0-0.1,0-0.1c0,0,0-0.1,0-0.1c0-0.1,0-0.2,0.1-0.5c0-0.2,0.1-0.4,0.1-0.5c0-0.1,0.1-0.1,0.1-0.2c0.1-0.1,0.2-0.1,0.3-0.2
			c0.1,0,0.3,0,0.4,0c0.2,0.1,0.3,0.2,0.4,0.3c0.1,0.2,0.1,0.3,0.1,0.5l-0.3-0.1c0-0.1,0-0.2-0.1-0.2c-0.1-0.1-0.1-0.1-0.2-0.2
			c-0.1,0-0.1,0-0.2,0c-0.1,0-0.1,0-0.1,0.1c0,0-0.1,0.1-0.1,0.1c0,0.1-0.1,0.2-0.1,0.4c0,0.2-0.1,0.3-0.1,0.4c0,0.1,0,0.1,0,0.2
			c0,0.1,0.1,0.1,0.1,0.1c0,0,0.1,0.1,0.2,0.1c0.2,0,0.3,0,0.4-0.2L70,99.7z"/>
		<path class="st2" d="M70.3,99.3c0-0.2,0.1-0.4,0.1-0.5c0-0.1,0.1-0.1,0.1-0.2c0.1-0.1,0.2-0.1,0.3-0.2c0.1,0,0.3,0,0.4,0
			c0.2,0,0.3,0.1,0.4,0.2c0.1,0.1,0.1,0.2,0.2,0.3c0,0.1,0,0.1,0,0.2c0,0.1,0,0.2-0.1,0.5c0,0.2-0.1,0.4-0.1,0.5
			c0,0.1-0.1,0.1-0.1,0.2c-0.1,0.1-0.2,0.1-0.3,0.2c-0.1,0-0.3,0-0.4,0c-0.2,0-0.3-0.1-0.4-0.2c-0.1-0.1-0.2-0.2-0.2-0.3
			c0,0,0-0.1,0-0.1c0,0,0-0.1,0-0.1C70.2,99.7,70.2,99.5,70.3,99.3z M70.6,99.3c0,0.2-0.1,0.3-0.1,0.4c0,0.1,0,0.1,0,0.2
			c0,0.1,0.1,0.1,0.1,0.1c0,0,0.1,0.1,0.2,0.1c0.1,0,0.1,0,0.2,0c0.1,0,0.1,0,0.1-0.1c0,0,0.1-0.1,0.1-0.2c0-0.1,0.1-0.2,0.1-0.4
			c0-0.2,0.1-0.3,0.1-0.4c0-0.1,0-0.1,0-0.2c0-0.1-0.1-0.1-0.1-0.1c0,0-0.1-0.1-0.2-0.1c-0.1,0-0.1,0-0.2,0c-0.1,0-0.1,0-0.1,0.1
			c0,0-0.1,0.1-0.1,0.1C70.7,99,70.6,99.1,70.6,99.3z"/>
		<path class="st2" d="M72.3,98.7l0.3,0.1l0.3,1.5l0.8-1.2l0.3,0.1l-0.4,2.1l-0.3-0.1l0.3-1.3l0,0l-0.6,0.9l-0.3-0.1l-0.2-1.1l0,0
			l-0.3,1.3l-0.3-0.1L72.3,98.7z"/>
		<path class="st2" d="M74.5,99.4l0.3,0.1l-0.4,2.1l-0.3-0.1L74.5,99.4z"/>
		<path class="st2" d="M75.3,99.6l0.3,0.1l0.6,1.7l0,0l0.3-1.5l0.3,0.1l-0.4,2.1l-0.3-0.1l-0.6-1.7l0,0l-0.3,1.5l-0.3-0.1L75.3,99.6
			z"/>
	</g>
	<g>
		<path class="st2" d="M64.8,101c0.1,0.2,0.3,0.3,0.5,0.4c0.3,0.1,0.4,0,0.5-0.2c0-0.2,0-0.3-0.2-0.3c-0.1,0-0.2-0.1-0.3-0.1
			c-0.2-0.1-0.3-0.2-0.4-0.3c-0.1-0.1-0.1-0.3-0.1-0.4c0-0.2,0.1-0.3,0.3-0.4c0.1-0.1,0.3-0.1,0.5,0c0.2,0.1,0.4,0.2,0.6,0.4
			l-0.2,0.2c-0.1-0.1-0.3-0.2-0.5-0.3c-0.1,0-0.2,0-0.2,0c-0.1,0-0.1,0.1-0.1,0.2c0,0.1,0,0.1,0,0.2c0,0.1,0.1,0.1,0.2,0.2
			c0.1,0,0.1,0.1,0.2,0.1c0.2,0.1,0.3,0.2,0.4,0.3c0.1,0.1,0.1,0.3,0.1,0.4c-0.1,0.4-0.4,0.5-0.8,0.4c-0.3-0.1-0.5-0.2-0.7-0.5
			L64.8,101z"/>
		<path class="st2" d="M66.5,100.9c0-0.2,0.1-0.4,0.1-0.5c0-0.1,0.1-0.1,0.1-0.2c0.1-0.1,0.2-0.1,0.3-0.2c0.1,0,0.3,0,0.4,0
			c0.2,0,0.3,0.1,0.4,0.2c0.1,0.1,0.1,0.2,0.2,0.3c0,0.1,0,0.1,0,0.2c0,0.1,0,0.2-0.1,0.5c0,0.2-0.1,0.4-0.1,0.5
			c0,0.1-0.1,0.1-0.1,0.2c-0.1,0.1-0.2,0.1-0.3,0.2c-0.1,0-0.3,0-0.4,0c-0.2,0-0.3-0.1-0.4-0.2c-0.1-0.1-0.2-0.2-0.2-0.3
			c0,0,0-0.1,0-0.1c0,0,0-0.1,0-0.1C66.4,101.3,66.4,101.1,66.5,100.9z M66.8,101c0,0.2-0.1,0.3-0.1,0.4c0,0.1,0,0.1,0,0.2
			c0,0.1,0.1,0.1,0.1,0.1c0,0,0.1,0.1,0.2,0.1c0.1,0,0.1,0,0.2,0c0.1,0,0.1,0,0.1-0.1c0,0,0.1-0.1,0.1-0.2c0-0.1,0.1-0.2,0.1-0.4
			c0-0.2,0.1-0.3,0.1-0.4c0-0.1,0-0.1,0-0.2c0-0.1-0.1-0.1-0.1-0.1c0,0-0.1-0.1-0.2-0.1c-0.1,0-0.1,0-0.2,0c-0.1,0-0.1,0-0.1,0.1
			c0,0-0.1,0.1-0.1,0.1C66.8,100.6,66.8,100.8,66.8,101z"/>
		<path class="st2" d="M68.5,100.4l0.3,0.1l-0.3,1.3c0,0.1,0,0.3,0.1,0.4c0.1,0.1,0.1,0.2,0.3,0.2c0.1,0,0.2,0,0.3,0
			c0.1-0.1,0.1-0.1,0.2-0.3l0.3-1.3l0.3,0.1l-0.3,1.4c0,0.2-0.2,0.4-0.3,0.5c-0.2,0.1-0.3,0.1-0.5,0.1c-0.2-0.1-0.4-0.2-0.5-0.3
			c-0.1-0.2-0.1-0.4-0.1-0.6L68.5,100.4z"/>
		<path class="st2" d="M70.3,100.9l0.3,0.1l0.6,1.7l0,0l0.3-1.5l0.3,0.1l-0.4,2.1l-0.3-0.1l-0.6-1.7l0,0l-0.3,1.5l-0.3-0.1
			L70.3,100.9z"/>
		<path class="st2" d="M72.3,101.4l0.7,0.2c0.3,0.1,0.4,0.2,0.5,0.5c0,0.1,0,0.2,0,0.3c0,0.1,0,0.2-0.1,0.4c0,0.2-0.1,0.4-0.1,0.5
			c0,0,0,0.1-0.1,0.1c0,0,0,0.1-0.1,0.1c-0.1,0.1-0.2,0.1-0.3,0.2c-0.1,0-0.2,0-0.4,0l-0.7-0.2L72.3,101.4z M72.2,103.3l0.4,0.1
			c0.2,0,0.3,0,0.4-0.1c0,0,0.1-0.1,0.1-0.1c0-0.1,0.1-0.2,0.1-0.4c0-0.2,0.1-0.3,0.1-0.4c0-0.1,0-0.1,0-0.2
			c-0.1-0.1-0.2-0.2-0.3-0.3l-0.4-0.1L72.2,103.3z"/>
		<path class="st2" d="M73.8,103.7c0.1,0.1,0.3,0.2,0.5,0.3c0.2,0.1,0.4,0,0.4-0.1c0-0.1,0-0.2-0.2-0.3c-0.1,0-0.2-0.1-0.2-0.1
			c-0.2-0.1-0.3-0.1-0.3-0.2c-0.1-0.1-0.1-0.2-0.1-0.3c0-0.1,0.1-0.2,0.2-0.3c0.1-0.1,0.3,0,0.5,0c0.2,0.1,0.4,0.2,0.6,0.3l-0.2,0.1
			c-0.1-0.1-0.3-0.2-0.5-0.2c-0.1,0-0.2,0-0.2,0c-0.1,0-0.1,0.1-0.1,0.1c0,0,0,0.1,0,0.1c0,0,0.1,0.1,0.2,0.1c0.1,0,0.1,0,0.2,0.1
			c0.2,0.1,0.3,0.2,0.4,0.3c0.1,0.1,0.1,0.2,0.1,0.3c-0.1,0.3-0.3,0.4-0.8,0.3c-0.3-0.1-0.5-0.2-0.7-0.4L73.8,103.7z"/>
	</g>
	<g>
		<path class="st2" d="M59.2,97.5c0.1-0.3,0.1-0.6,0.2-0.9c0-0.2,0.1-0.3,0.3-0.3c0.6-0.2,1.2-0.3,1.9-0.5c0.1,0,0.3,0,0.4,0.1
			c0.5,0.5,1,0.9,1.5,1.4c0.1,0.1,0.2,0.3,0.2,0.5c-0.1,0.6-0.3,1.3-0.4,1.9c0,0.2-0.1,0.3-0.3,0.3c-0.6,0.2-1.2,0.3-1.8,0.5
			c-0.2,0-0.3,0-0.5-0.1c-0.5-0.5-1-0.9-1.4-1.4c-0.1-0.1-0.2-0.3-0.2-0.5C59.1,98.1,59.2,97.8,59.2,97.5z M59.4,97.5
			c-0.1,0.3-0.1,0.6-0.2,0.9c0,0.1,0,0.3,0.1,0.4c0.5,0.4,0.9,0.9,1.4,1.3c0.1,0.1,0.3,0.1,0.4,0.1c0.6-0.1,1.2-0.3,1.8-0.5
			c0.1,0,0.2-0.1,0.3-0.3c0.1-0.6,0.2-1.2,0.4-1.8c0-0.2,0-0.3-0.1-0.4c-0.5-0.4-0.9-0.9-1.4-1.3c-0.1-0.1-0.2-0.1-0.4-0.1
			c-0.6,0.2-1.2,0.3-1.8,0.5c-0.1,0-0.2,0.1-0.3,0.3C59.5,96.9,59.4,97.2,59.4,97.5z"/>
	</g>
	<g>
		<polygon class="st2" points="63.7,101.2 63.7,101.2 64.6,96.5 64.7,96.5 		"/>
	</g>
	<g>
		<g>
			<path class="st2" d="M59.3,97.5c0.1-0.3,0.1-0.6,0.2-0.9c0-0.2,0.1-0.3,0.3-0.3c0.6-0.2,1.2-0.3,1.8-0.5c0.1,0,0.3,0,0.4,0.1
				c0.5,0.5,1,0.9,1.4,1.4c0.1,0.1,0.2,0.3,0.1,0.5c-0.1,0.6-0.3,1.3-0.4,1.9c0,0.2-0.1,0.3-0.3,0.3c-0.6,0.2-1.2,0.3-1.8,0.5
				c-0.2,0-0.3,0-0.5-0.1c-0.5-0.5-0.9-0.9-1.4-1.4c-0.1-0.1-0.2-0.3-0.1-0.5C59.2,98.1,59.3,97.8,59.3,97.5z M59.6,97.6
				c-0.1,0.3-0.1,0.6-0.2,0.9c0,0.1,0,0.3,0.1,0.4c0.4,0.4,0.8,0.8,1.3,1.3c0.1,0.1,0.2,0.1,0.3,0.1c0.5-0.1,1.1-0.3,1.6-0.4
				c0.1,0,0.2-0.1,0.2-0.3c0.1-0.6,0.2-1.1,0.4-1.7c0-0.2,0-0.3-0.1-0.4c-0.4-0.4-0.8-0.8-1.3-1.2C61.9,96,61.8,96,61.6,96
				c-0.5,0.1-1.1,0.3-1.6,0.4c-0.1,0-0.2,0.1-0.2,0.3C59.7,97,59.6,97.3,59.6,97.6z"/>
		</g>
		<g>
			<polygon class="st2" points="60.5,97.1 60.3,97.8 61.6,97.2 62.4,98.4 62.6,97.7 61.7,96.5 			"/>
			<polygon class="st2" points="61.3,99.6 61.9,97.1 61.3,97 60.8,99.5 			"/>
		</g>
	</g>
</g>
<linearGradient id="SVGID_1_" gradientUnits="userSpaceOnUse" x1="-1138.6163" y1="4361.438" x2="-1138.6163" y2="4362.7896" gradientTransform="matrix(9.7533 0 0 9.7533 11124.7129 -42497.9766)">
	<stop  offset="0" style="stop-color:#FF8800"/>
	<stop  offset="1" style="stop-color:#FF3300"/>
</linearGradient>
<path class="st20" d="M10,53.7c0,0-0.1-0.2-0.1-0.2c0-0.1,0-0.8-0.1-1.7l-0.1-1.5l0.1-2.7c0.1-2.8,0.1-2.9,0.3-2.9
	c0,0,0.1,0,0.2,0.1c0.1,0.1,0.1,0.4,0.2,2.7l0.1,2.7l-0.1,1.8c-0.1,1-0.2,1.8-0.2,1.8C10.2,53.9,10.1,53.8,10,53.7L10,53.7L10,53.7z
	 M11.2,53.7c-0.1-0.1-0.1-0.6-0.2-1.9c-0.1-1.5-0.1-1.9-0.1-3c0-0.7,0.1-2.1,0.1-3.1c0-1,0.1-1.9,0.1-2c0-0.3,0.4-0.4,0.5-0.1
	c0,0.1,0.1,1.6,0.2,3.3l0.1,3.2l-0.1,1.7c0,0.6-0.1,1.2-0.1,1.7c0,0.1-0.2,0.2-0.3,0.2C11.4,53.8,11.3,53.8,11.2,53.7L11.2,53.7
	L11.2,53.7z M12.5,53.7c-0.1-0.1-0.1-0.2-0.1-0.9c0-0.4-0.1-1.1-0.1-1.4c-0.1-0.9-0.1-2,0-4.8c0-1.3,0.1-2.6,0.1-2.9
	c0-0.7,0.1-0.9,0.2-0.9c0.2,0,0.4,0.1,0.4,0.4c0,0.1,0.1,1.7,0.1,3.6l0.1,3.3l-0.1,1.7c-0.1,0.9-0.1,1.7-0.1,1.7
	c0,0.1-0.2,0.2-0.3,0.2C12.7,53.8,12.6,53.8,12.5,53.7L12.5,53.7L12.5,53.7z M13.8,53.7c-0.1-0.1-0.1-0.2-0.1-0.5
	c-0.2-2.8-0.2-3-0.1-6c0.1-4.1,0.1-4.5,0.2-4.6c0.1-0.1,0.4-0.1,0.5,0c0,0,0.1,0.8,0.1,2.4c0.1,4.5,0.2,5.2,0.1,6.7
	c-0.1,1.7-0.1,1.8-0.2,1.9C14.2,53.8,14,53.8,13.8,53.7L13.8,53.7L13.8,53.7z M15.1,53.7c-0.1-0.1-0.1-0.2-0.1-0.3s0-0.8-0.1-1.7
	c-0.1-1.4-0.1-1.8,0-5.1c0.1-3.9,0.1-3.8,0.4-3.9c0.2,0,0.4,0.2,0.4,0.5c0,0.2,0,1.1,0,2c0,0.9,0.1,2.3,0.1,3.1c0,0.8,0,1.5,0,1.5
	c0,0,0,0.8-0.1,1.7c0,0.6-0.1,1.2-0.1,1.8c0,0.1-0.2,0.3-0.4,0.3C15.2,53.8,15.2,53.8,15.1,53.7L15.1,53.7L15.1,53.7z M16.5,53.7
	c-0.1-0.1-0.1-0.2-0.2-2.2c-0.1-1.2,0-2.4,0.1-6.3c0.1-2.1,0.1-2.2,0.4-2.2c0.1,0,0.2,0,0.3,0.1c0.1,0.1,0.1,0.2,0.2,2
	c0,0.6,0.1,2,0.1,3.1c0,1.8,0,2.2,0,3.7c-0.1,1.6-0.1,1.7-0.2,1.8C16.8,53.8,16.6,53.8,16.5,53.7L16.5,53.7L16.5,53.7z M17.8,53.7
	c-0.1-0.1-0.1-0.2-0.1-0.5c-0.1-1-0.1-3.3-0.1-4.7c0-0.9,0-2.2,0.1-3c0.1-3.1,0.1-3.6,0.2-3.8c0.1-0.1,0.4-0.1,0.5,0
	c0.1,0.1,0.1,0.5,0.3,6.6c0,1.8-0.1,5-0.2,5.3C18.3,53.9,17.9,53.9,17.8,53.7L17.8,53.7L17.8,53.7z M19.1,53.7
	C19,53.6,19,53.5,19,53.4c0-0.1-0.1-0.9-0.1-1.8c-0.1-1.3-0.1-2.1,0-3.6c0-1.1,0.1-2.9,0.1-4c0-2.6,0.1-2.8,0.2-3
	c0.2-0.1,0.4-0.1,0.6,0c0.1,0.1,0.1,0.2,0.1,0.8c0,0.4,0,0.7,0,0.8c0,0.1,0,1.1,0,2.3c0,1.2,0,2.2,0.1,2.2c0.1,0.1,0,3.7-0.1,4.8
	c0,0.5-0.1,0.9-0.1,1.4c0,0.1-0.2,0.4-0.4,0.4C19.3,53.8,19.2,53.8,19.1,53.7L19.1,53.7z M20.3,53.7l-0.1-0.1V40.7l0.1-0.1
	c0.2-0.1,0.8-0.3,1.5-0.5c0.7-0.1,1.9-0.1,2.6,0c2.9,0.6,5,2.9,5.5,5.9l0,0.2l0.5-0.1C30.9,46,31,46,31.6,46c0.8,0,0.8,0,1.3,0.2
	C35,47,36,49.6,35,51.7c-0.5,1-1.2,1.6-2.2,2l-0.4,0.1l-5.9,0l-5.9,0L20.3,53.7L20.3,53.7z M8.7,53.6c0-0.1-0.1-0.9-0.2-1.8
	c-0.1-1.6-0.1-1.7,0-2.8c0-0.6,0.1-1.3,0.1-1.6c0-0.5,0.1-0.8,0.3-0.8c0.2,0,0.2,0.2,0.4,1.8l0.1,1.6l-0.1,1.7
	c-0.1,0.9-0.2,1.8-0.2,1.8c0,0.1-0.1,0.1-0.2,0.1S8.7,53.7,8.7,53.6L8.7,53.6L8.7,53.6z M7.4,53.7c0,0-0.1-0.8-0.2-1.8l-0.1-1.7
	l0.1-1.8c0.1-1,0.2-1.8,0.2-1.9c0.1-0.1,0.2-0.1,0.3,0c0,0,0.1,0.9,0.2,1.8l0.2,1.8l-0.2,1.7c-0.1,0.9-0.2,1.7-0.2,1.8
	C7.7,53.7,7.5,53.7,7.4,53.7L7.4,53.7L7.4,53.7z M6.2,53.5c0,0-0.1-0.8-0.2-1.7l-0.1-1.6L6,48.7c0.1-0.8,0.1-1.7,0.2-1.8
	c0-0.2,0.1-0.3,0.3-0.2c0,0,0.1,0.8,0.2,1.8l0.2,1.7l-0.2,1.6c-0.1,0.9-0.2,1.7-0.2,1.8C6.4,53.6,6.3,53.6,6.2,53.5L6.2,53.5
	L6.2,53.5z M4.9,53c0,0-0.1-0.7-0.2-1.5l-0.1-1.4l0.2-1.4c0.1-1.4,0.2-1.4,0.3-1.5c0.1,0,0.1-0.1,0.3,1.6l0.2,1.3l-0.2,1.4
	c-0.1,0.7-0.2,1.4-0.2,1.5C5.1,53.1,5,53.1,4.9,53L4.9,53L4.9,53z M3.8,52c-0.1-0.3-0.1-0.6-0.1-0.9l-0.1-0.8l0.1-0.9
	c0.1-0.5,0.1-0.9,0.2-1c0.1-0.1,0.2,0.1,0.3,1l0.1,0.9l-0.1,0.9C4.1,51.6,4,52,3.9,52C3.8,52.1,3.8,52.1,3.8,52L3.8,52L3.8,52z"/>
<g>
	<path class="st21" d="M92.7,2.4l-52.8,0c-6.4,0-11.5,5.1-11.5,11.5l0,132.3c0,6.3,5.1,11.5,11.5,11.5l52.8,0
		c6.4,0,11.5-5.1,11.5-11.5l0-132.3C104.2,7.6,99,2.4,92.7,2.4z M100.6,144.3c0,4.4-3.6,8.1-8.1,8l-52.7,0c-4.4,0-8-3.6-8-8.1
		l0-129.2c0-4.4,3.6-8.1,8.1-8.1l9,0l3.6,0c1.4,0,2.5,1.2,2.5,2.6l0,1.9c0,1.4,1.1,2.6,2.5,2.6l19.9,0c1.4,0,2.5-1.2,2.5-2.6l0-1.9
		c0-1.4,1.1-2.6,2.5-2.6l10.2,0c4.4,0,8,3.6,8,8.1L100.6,144.3z"/>
	<g>
		<path class="st22" d="M98.9,19.9H35.5c-0.3,0-0.5-0.2-0.5-0.5v0c0-0.3,0.2-0.5,0.5-0.5h63.5c0.3,0,0.5,0.2,0.5,0.5v0
			C99.4,19.7,99.2,19.9,98.9,19.9z"/>
	</g>
	<g>
		<path class="st0" d="M69.8,19.9H35.5c-0.3,0-0.5-0.2-0.5-0.5v0c0-0.3,0.2-0.5,0.5-0.5h34.3c0.3,0,0.5,0.2,0.5,0.5v0
			C70.3,19.7,70.1,19.9,69.8,19.9z"/>
	</g>
	<g>
		<path class="st9" d="M54.8,27.5v1.5h-0.3L53.8,28v0.9h-0.3v-1.5h0.3l0.7,0.9v-0.9H54.8z"/>
		<path class="st9" d="M55.1,27.5c0-0.1,0.1-0.2,0.2-0.2c0.1,0,0.2,0.1,0.2,0.2c0,0.1-0.1,0.2-0.2,0.2
			C55.1,27.7,55.1,27.6,55.1,27.5z M55.1,27.8h0.3v1.1h-0.3V27.8z"/>
		<path class="st9" d="M55.6,28.4c0-0.3,0.3-0.6,0.6-0.6c0.2,0,0.4,0.1,0.5,0.3l-0.3,0.1c-0.1-0.1-0.1-0.2-0.3-0.2
			c-0.2,0-0.3,0.1-0.3,0.3c0,0.2,0.1,0.3,0.3,0.3c0.1,0,0.2,0,0.3-0.2l0.3,0.1c-0.1,0.2-0.3,0.3-0.5,0.3
			C55.9,28.9,55.6,28.7,55.6,28.4z"/>
		<path class="st9" d="M57.4,28.5l-0.2,0.2v0.3h-0.3v-1.5h0.3v0.9l0.5-0.4h0.4l-0.5,0.5l0.5,0.6h-0.4L57.4,28.5z"/>
		<path class="st9" d="M59.4,28.3v0.6h-0.3v-0.6c0-0.2-0.1-0.3-0.2-0.3c-0.2,0-0.3,0.1-0.3,0.3v0.6h-0.3v-1.1h0.3v0.1
			c0.1-0.1,0.2-0.1,0.4-0.1C59.2,27.8,59.4,27.9,59.4,28.3z"/>
		<path class="st9" d="M60.7,28.3v0.6h-0.3v-0.1c-0.1,0.1-0.2,0.2-0.3,0.2c-0.3,0-0.4-0.1-0.4-0.3c0-0.2,0.1-0.3,0.5-0.3h0.3
			c0-0.1-0.1-0.2-0.3-0.2c-0.1,0-0.2,0-0.3,0.1l-0.1-0.2c0.1-0.1,0.3-0.1,0.5-0.1C60.5,27.8,60.7,28,60.7,28.3z M60.4,28.6v-0.1
			h-0.2c-0.2,0-0.2,0.1-0.2,0.1c0,0.1,0.1,0.1,0.2,0.1C60.3,28.7,60.4,28.7,60.4,28.6z"/>
		<path class="st9" d="M62.9,28.3v0.6h-0.3v-0.6c0-0.2-0.1-0.3-0.2-0.3c-0.1,0-0.2,0.1-0.2,0.3v0.6h-0.3v-0.6c0-0.2-0.1-0.3-0.2-0.3
			c-0.1,0-0.2,0.1-0.2,0.3v0.6H61v-1.1h0.3v0.1c0.1-0.1,0.2-0.1,0.4-0.1c0.2,0,0.3,0.1,0.4,0.2c0.1-0.1,0.2-0.2,0.4-0.2
			C62.7,27.8,62.9,27.9,62.9,28.3z"/>
		<path class="st9" d="M64.3,28.5h-0.8c0,0.1,0.1,0.2,0.3,0.2c0.1,0,0.2,0,0.3-0.1l0.2,0.2c-0.1,0.1-0.3,0.2-0.5,0.2
			c-0.4,0-0.6-0.2-0.6-0.6c0-0.3,0.3-0.6,0.6-0.6C64,27.8,64.3,28,64.3,28.5C64.3,28.4,64.3,28.4,64.3,28.5z M63.4,28.3H64
			c0-0.1-0.1-0.2-0.3-0.2C63.6,28,63.5,28.1,63.4,28.3z"/>
	</g>
	<g>
		<path class="st9" d="M55,30.3l-0.4,1h-0.1l-0.3-0.8l-0.3,0.8h-0.1l-0.4-1h0.1l0.3,0.9l0.3-0.9h0.1l0.3,0.9l0.3-0.9H55z"/>
		<path class="st9" d="M55.9,30.7v0.6h-0.1v-0.2c-0.1,0.1-0.2,0.2-0.4,0.2c-0.2,0-0.4-0.1-0.4-0.3c0-0.2,0.1-0.3,0.4-0.3h0.3v-0.1
			c0-0.2-0.1-0.3-0.3-0.3c-0.1,0-0.3,0-0.3,0.1l-0.1-0.1c0.1-0.1,0.3-0.1,0.4-0.1C55.8,30.3,55.9,30.4,55.9,30.7z M55.8,31v-0.2
			h-0.3c-0.2,0-0.3,0.1-0.3,0.2c0,0.1,0.1,0.2,0.3,0.2C55.6,31.2,55.8,31.2,55.8,31z"/>
		<path class="st9" d="M56.2,31.2l0.1-0.1c0.1,0.1,0.2,0.1,0.4,0.1c0.2,0,0.3-0.1,0.3-0.2c0-0.3-0.7-0.1-0.7-0.5
			c0-0.2,0.1-0.3,0.4-0.3c0.1,0,0.3,0,0.4,0.1l-0.1,0.1c-0.1-0.1-0.2-0.1-0.3-0.1c-0.2,0-0.3,0.1-0.3,0.2c0,0.3,0.7,0.1,0.7,0.5
			c0,0.2-0.2,0.3-0.4,0.3C56.4,31.3,56.3,31.3,56.2,31.2z"/>
		<path class="st9" d="M57.8,29.9h0.1v1.5h-0.1V29.9z"/>
		<path class="st9" d="M58.3,30c0-0.1,0-0.1,0.1-0.1c0.1,0,0.1,0,0.1,0.1c0,0.1,0,0.1-0.1,0.1C58.3,30.1,58.3,30,58.3,30z
			 M58.3,30.3h0.1v1h-0.1V30.3z"/>
		<path class="st9" d="M59.7,30.3l-0.5,1h-0.1l-0.5-1h0.1l0.4,0.9l0.4-0.9H59.7z"/>
		<path class="st9" d="M60.8,30.9h-0.9c0,0.2,0.2,0.4,0.4,0.4c0.1,0,0.2,0,0.3-0.1l0.1,0.1c-0.1,0.1-0.2,0.2-0.4,0.2
			c-0.3,0-0.5-0.2-0.5-0.5c0-0.3,0.2-0.5,0.5-0.5C60.6,30.3,60.8,30.5,60.8,30.9C60.8,30.8,60.8,30.8,60.8,30.9z M59.9,30.8h0.7
			c0-0.2-0.2-0.3-0.4-0.3C60.1,30.4,60,30.6,59.9,30.8z"/>
		<path class="st9" d="M61,31.2c0-0.1,0-0.1,0.1-0.1s0.1,0,0.1,0.1c0,0.1,0,0.1-0.1,0.1S61,31.3,61,31.2z"/>
		<path class="st9" d="M62.8,30.9c0,0.2-0.2,0.4-0.5,0.4c-0.2,0-0.4-0.1-0.5-0.2l0.1-0.1c0.1,0.1,0.2,0.2,0.4,0.2
			c0.2,0,0.4-0.1,0.4-0.3c0-0.2-0.1-0.3-0.4-0.3h-0.1v-0.1l0.4-0.5h-0.7V30h0.9v0.1l-0.4,0.5C62.7,30.6,62.8,30.7,62.8,30.9z"/>
		<path class="st9" d="M64.1,30.7v0.6h-0.1v-0.6c0-0.2-0.1-0.3-0.3-0.3c-0.2,0-0.4,0.1-0.4,0.4v0.5h-0.1v-1.5h0.1v0.6
			c0.1-0.1,0.2-0.2,0.4-0.2C63.9,30.3,64.1,30.4,64.1,30.7z"/>
		<path class="st9" d="M65.8,30.7v0.6h-0.1v-0.2c-0.1,0.1-0.2,0.2-0.4,0.2c-0.2,0-0.4-0.1-0.4-0.3c0-0.2,0.1-0.3,0.4-0.3h0.3v-0.1
			c0-0.2-0.1-0.3-0.3-0.3c-0.1,0-0.3,0-0.3,0.1l-0.1-0.1c0.1-0.1,0.3-0.1,0.4-0.1C65.6,30.3,65.8,30.4,65.8,30.7z M65.6,31v-0.2
			h-0.3c-0.2,0-0.3,0.1-0.3,0.2c0,0.1,0.1,0.2,0.3,0.2C65.5,31.2,65.6,31.2,65.6,31z"/>
		<path class="st9" d="M67.1,30.3v0.9c0,0.4-0.2,0.5-0.5,0.5c-0.2,0-0.4-0.1-0.5-0.2l0.1-0.1c0.1,0.1,0.2,0.1,0.4,0.1
			c0.3,0,0.4-0.1,0.4-0.4v-0.1c-0.1,0.1-0.2,0.2-0.4,0.2c-0.3,0-0.5-0.2-0.5-0.5c0-0.3,0.2-0.5,0.5-0.5c0.2,0,0.3,0.1,0.4,0.2v-0.2
			H67.1z M67,30.8c0-0.2-0.2-0.4-0.4-0.4c-0.2,0-0.4,0.2-0.4,0.4c0,0.2,0.2,0.4,0.4,0.4C66.8,31.2,67,31,67,30.8z"/>
		<path class="st9" d="M67.4,30.8c0-0.3,0.2-0.5,0.5-0.5c0.3,0,0.5,0.2,0.5,0.5c0,0.3-0.2,0.5-0.5,0.5
			C67.6,31.3,67.4,31.1,67.4,30.8z M68.3,30.8c0-0.2-0.2-0.4-0.4-0.4c-0.2,0-0.4,0.2-0.4,0.4c0,0.2,0.2,0.4,0.4,0.4
			C68.1,31.2,68.3,31.1,68.3,30.8z"/>
	</g>
	<g>
		<path class="st9" d="M38.2,43.8c0,0-0.1,0-0.1,0l-1.5-1.5c0,0-0.1-0.1-0.1-0.1c0,0,0-0.1,0.1-0.1l1.5-1.5c0.1-0.1,0.2-0.1,0.2,0
			c0.1,0.1,0.1,0.2,0,0.2l-1.4,1.3l1.4,1.4c0.1,0.1,0.1,0.2,0,0.2C38.2,43.7,38.2,43.8,38.2,43.8z"/>
	</g>
	<g>
		<path class="st9" d="M94.9,43.8c0,0-0.1,0-0.1-0.1c-0.1-0.1-0.1-0.2,0-0.2l1.4-1.3l-1.4-1.4c-0.1-0.1-0.1-0.2,0-0.2
			c0.1-0.1,0.2-0.1,0.2,0l1.5,1.5c0,0,0.1,0.1,0.1,0.1c0,0,0,0.1-0.1,0.1l-1.5,1.5C95,43.7,95,43.8,94.9,43.8z"/>
	</g>
	<g>
		<g>
			<g>
				<path class="st2" d="M92.4,146.9h-51c-3.1,0-5.6-2.5-5.6-5.6v-1.3c0-3.1,2.5-5.6,5.6-5.6h51c3.1,0,5.6,2.5,5.6,5.6v1.3
					C98,144.4,95.5,146.9,92.4,146.9z"/>
			</g>
			<g>
				<g>
					<path class="st1" d="M92.4,146.9c0,0,0.1,0,0.4,0c0.1,0,0.3,0,0.4,0c0.2,0,0.4-0.1,0.6-0.1c0.5-0.1,1-0.3,1.6-0.7
						c0.6-0.4,1.2-0.9,1.7-1.6c0.5-0.7,0.9-1.7,0.9-2.7c0-1.1,0.1-2.3-0.3-3.5c-0.4-1.2-1.2-2.3-2.5-3c-0.6-0.4-1.3-0.6-2-0.7
						c-0.7-0.1-1.5-0.1-2.3-0.1c-12.7,0-30.2,0-49.5,0c-1.2,0-2.4,0.4-3.3,1.1c-1,0.7-1.6,1.7-2,2.8c-0.5,2.2-0.5,4.8,1.1,6.5
						c0.7,0.9,1.7,1.5,2.8,1.8c0.5,0.2,1.1,0.2,1.6,0.2c0.6,0,1.1,0,1.7,0c2.2,0,4.3,0,6.4,0c8.4,0,15.9,0,22.3,0c6.3,0,11.5,0,15,0
						c1.8,0,3.1,0,4.1,0c0.5,0,0.8,0,1.1,0C92.3,146.9,92.4,146.9,92.4,146.9s-0.1,0-0.4,0c-0.2,0-0.6,0-1.1,0c-0.9,0-2.3,0-4.1,0
						c-3.5,0-8.7,0-15,0c-6.3,0-13.9,0-22.3,0c-2.1,0-4.2,0-6.4,0c-0.5,0-1.1,0-1.7,0c-0.6,0-1.1,0-1.7-0.2
						c-1.1-0.3-2.1-0.9-2.9-1.8c-0.4-0.4-0.7-0.9-0.9-1.5c-0.2-0.5-0.4-1.1-0.4-1.7c0-0.6,0-1.2,0-1.8c0-0.6,0.1-1.2,0.3-1.8
						c0.4-1.1,1.1-2.2,2.1-2.9c1-0.7,2.2-1.1,3.4-1.1c19.3,0,36.8,0,49.5,0c0.8,0,1.6,0,2.3,0.1c0.8,0.1,1.5,0.4,2.1,0.7
						c1.2,0.7,2.1,1.9,2.5,3.1c0.2,0.6,0.3,1.2,0.3,1.8c0,0.6,0,1.1,0,1.7c-0.1,1.1-0.5,2-1,2.8c-0.5,0.7-1.1,1.3-1.7,1.6
						c-0.6,0.4-1.1,0.6-1.6,0.7c-0.2,0.1-0.4,0.1-0.6,0.1c-0.2,0-0.3,0-0.4,0C92.5,146.9,92.4,146.9,92.4,146.9z"/>
				</g>
			</g>
		</g>
		<g>
			<g>
				<g>
					<circle class="st1" cx="91.8" cy="140.5" r="3.8"/>
				</g>
			</g>
			<g>
				<g>
					<g>
						<path class="st2" d="M91.7,142.9C91.7,142.9,91.7,142.9,91.7,142.9c-0.1,0-0.1,0-0.1-0.1l-0.5-1.8l-1.7-0.6
							c0,0-0.1-0.1-0.1-0.1c0,0,0-0.1,0.1-0.1l3.9-1.4c0,0,0.1,0,0.1,0c0,0,0,0.1,0,0.1l-1.7,3.9C91.8,142.8,91.8,142.9,91.7,142.9z
							 M89.8,140.3l1.4,0.5c0,0,0.1,0,0.1,0.1l0.4,1.5l1.5-3.3L89.8,140.3z"/>
					</g>
				</g>
				<g>
					<g>
						<path class="st2" d="M91.2,141C91.2,141,91.2,141,91.2,141c-0.1-0.1-0.1-0.2-0.1-0.2l2.2-2c0,0,0.1,0,0.2,0c0,0,0,0.1,0,0.2
							L91.2,141C91.3,141,91.2,141,91.2,141z"/>
					</g>
				</g>
			</g>
		</g>
		<g>
			<g>
				<path class="st9" d="M49.8,139.6h-0.6v-0.2h1.4v0.2H50v1.6h-0.2V139.6z"/>
			</g>
			<g>
				<path class="st9" d="M51.9,139.8l-0.6,1.4c-0.1,0.3-0.2,0.3-0.4,0.3c-0.1,0-0.2,0-0.3-0.1l0.1-0.1c0.1,0.1,0.1,0.1,0.2,0.1
					c0.1,0,0.2-0.1,0.3-0.2l0.1-0.1l-0.6-1.3h0.2l0.5,1.1l0.5-1.1H51.9z"/>
			</g>
			<g>
				<path class="st9" d="M53.4,140.5c0,0.4-0.3,0.7-0.6,0.7c-0.2,0-0.4-0.1-0.5-0.3v0.7h-0.2v-1.8h0.2v0.3c0.1-0.2,0.3-0.3,0.5-0.3
					C53.1,139.8,53.4,140.1,53.4,140.5z M53.2,140.5c0-0.3-0.2-0.5-0.5-0.5c-0.3,0-0.5,0.2-0.5,0.5c0,0.3,0.2,0.5,0.5,0.5
					C53,141,53.2,140.8,53.2,140.5z"/>
			</g>
			<g>
				<path class="st9" d="M54.9,140.5h-1.1c0,0.3,0.2,0.4,0.5,0.4c0.2,0,0.3-0.1,0.4-0.2l0.1,0.1c-0.1,0.1-0.3,0.2-0.5,0.2
					c-0.4,0-0.7-0.3-0.7-0.7c0-0.4,0.3-0.7,0.6-0.7C54.6,139.8,54.9,140.1,54.9,140.5C54.9,140.5,54.9,140.5,54.9,140.5z
					 M53.8,140.4h0.9c0-0.3-0.2-0.4-0.5-0.4C54,140,53.8,140.2,53.8,140.4z"/>
			</g>
			<g>
				<path class="st9" d="M56.9,140.3v0.8h-0.2v-0.2c-0.1,0.1-0.2,0.2-0.4,0.2c-0.3,0-0.5-0.2-0.5-0.4c0-0.2,0.1-0.4,0.5-0.4h0.4
					v-0.1c0-0.2-0.1-0.3-0.4-0.3c-0.2,0-0.3,0.1-0.4,0.2l-0.1-0.1c0.1-0.1,0.3-0.2,0.5-0.2C56.7,139.8,56.9,140,56.9,140.3z
					 M56.7,140.7v-0.2h-0.4c-0.3,0-0.3,0.1-0.3,0.2c0,0.2,0.1,0.2,0.3,0.2C56.5,141,56.6,140.9,56.7,140.7z"/>
			</g>
			<g>
				<path class="st9" d="M60.1,140.4v0.7h-0.2v-0.7c0-0.3-0.1-0.4-0.4-0.4c-0.3,0-0.4,0.2-0.4,0.5v0.7H59v-0.7
					c0-0.3-0.1-0.4-0.4-0.4c-0.3,0-0.4,0.2-0.4,0.5v0.7H58v-1.3h0.2v0.2c0.1-0.2,0.3-0.2,0.5-0.2c0.2,0,0.4,0.1,0.5,0.3
					c0.1-0.2,0.3-0.3,0.5-0.3C59.9,139.8,60.1,140,60.1,140.4z"/>
			</g>
			<g>
				<path class="st9" d="M61.7,140.5h-1.1c0,0.3,0.2,0.4,0.5,0.4c0.2,0,0.3-0.1,0.4-0.2l0.1,0.1c-0.1,0.1-0.3,0.2-0.5,0.2
					c-0.4,0-0.7-0.3-0.7-0.7c0-0.4,0.3-0.7,0.6-0.7C61.5,139.8,61.7,140.1,61.7,140.5C61.7,140.5,61.7,140.5,61.7,140.5z
					 M60.6,140.4h0.9c0-0.3-0.2-0.4-0.5-0.4C60.8,140,60.7,140.2,60.6,140.4z"/>
			</g>
			<g>
				<path class="st9" d="M61.9,141l0.1-0.1c0.1,0.1,0.3,0.1,0.5,0.1c0.2,0,0.3-0.1,0.3-0.2c0-0.3-0.8-0.1-0.8-0.6
					c0-0.2,0.2-0.4,0.5-0.4c0.2,0,0.3,0,0.5,0.1l-0.1,0.1c-0.1-0.1-0.2-0.1-0.4-0.1c-0.2,0-0.3,0.1-0.3,0.2c0,0.3,0.8,0.1,0.8,0.6
					c0,0.2-0.2,0.4-0.5,0.4C62.2,141.1,62,141.1,61.9,141z"/>
			</g>
			<g>
				<path class="st9" d="M63.1,141l0.1-0.1c0.1,0.1,0.3,0.1,0.5,0.1c0.2,0,0.3-0.1,0.3-0.2c0-0.3-0.8-0.1-0.8-0.6
					c0-0.2,0.2-0.4,0.5-0.4c0.2,0,0.3,0,0.5,0.1l-0.1,0.1c-0.1-0.1-0.2-0.1-0.4-0.1c-0.2,0-0.3,0.1-0.3,0.2c0,0.3,0.8,0.1,0.8,0.6
					c0,0.2-0.2,0.4-0.5,0.4C63.4,141.1,63.2,141.1,63.1,141z"/>
			</g>
			<g>
				<path class="st9" d="M65.5,140.3v0.8h-0.2v-0.2c-0.1,0.1-0.2,0.2-0.4,0.2c-0.3,0-0.5-0.2-0.5-0.4c0-0.2,0.1-0.4,0.5-0.4h0.4
					v-0.1c0-0.2-0.1-0.3-0.4-0.3c-0.2,0-0.3,0.1-0.4,0.2l-0.1-0.1c0.1-0.1,0.3-0.2,0.5-0.2C65.3,139.8,65.5,140,65.5,140.3z
					 M65.3,140.7v-0.2h-0.4c-0.3,0-0.3,0.1-0.3,0.2c0,0.2,0.1,0.2,0.3,0.2C65.1,141,65.2,140.9,65.3,140.7z"/>
			</g>
			<g>
				<path class="st9" d="M67.1,139.8v1.1c0,0.4-0.2,0.6-0.6,0.6c-0.2,0-0.5-0.1-0.6-0.2l0.1-0.1c0.1,0.1,0.3,0.2,0.5,0.2
					c0.3,0,0.5-0.1,0.5-0.5v-0.2c-0.1,0.2-0.3,0.3-0.5,0.3c-0.4,0-0.6-0.3-0.6-0.6c0-0.4,0.3-0.6,0.6-0.6c0.2,0,0.4,0.1,0.5,0.3
					v-0.2H67.1z M67,140.5c0-0.3-0.2-0.5-0.5-0.5c-0.3,0-0.5,0.2-0.5,0.5c0,0.3,0.2,0.5,0.5,0.5C66.8,140.9,67,140.7,67,140.5z"/>
			</g>
			<g>
				<path class="st9" d="M68.8,140.5h-1.1c0,0.3,0.2,0.4,0.5,0.4c0.2,0,0.3-0.1,0.4-0.2l0.1,0.1c-0.1,0.1-0.3,0.2-0.5,0.2
					c-0.4,0-0.7-0.3-0.7-0.7c0-0.4,0.3-0.7,0.6-0.7C68.5,139.8,68.8,140.1,68.8,140.5C68.8,140.5,68.8,140.5,68.8,140.5z
					 M67.7,140.4h0.9c0-0.3-0.2-0.4-0.5-0.4C67.9,140,67.7,140.2,67.7,140.4z"/>
			</g>
			<g>
				<path class="st9" d="M69,141c0-0.1,0.1-0.1,0.1-0.1c0.1,0,0.1,0.1,0.1,0.1c0,0.1-0.1,0.1-0.1,0.1C69.1,141.1,69,141.1,69,141z"
					/>
			</g>
			<g>
				<path class="st9" d="M69.5,141c0-0.1,0.1-0.1,0.1-0.1c0.1,0,0.1,0.1,0.1,0.1c0,0.1-0.1,0.1-0.1,0.1
					C69.6,141.1,69.5,141.1,69.5,141z"/>
			</g>
			<g>
				<path class="st9" d="M70,141c0-0.1,0.1-0.1,0.1-0.1c0.1,0,0.1,0.1,0.1,0.1c0,0.1-0.1,0.1-0.1,0.1C70.1,141.1,70,141.1,70,141z"
					/>
			</g>
		</g>
		<g>
			<g>
				<g>
					<path class="st1" d="M41.5,141.7c-0.2,0.3-0.7,0.3-1,0.1c-0.3-0.2-0.3-0.7-0.1-1l1.4-1.7c0.2-0.2,0.4-0.2,0.6-0.1
						c0.2,0.2,0.2,0.4,0.1,0.6l-1.2,1.4l0,0c-0.1,0.1-0.2,0.1-0.3,0c-0.1-0.1-0.1-0.2-0.1-0.3l0.9-1.1l-0.1-0.1l-0.9,1.1l0,0l0,0.1
						l0,0c-0.1,0.2-0.1,0.4,0.1,0.5c0.2,0.1,0.4,0.1,0.5,0l0,0l0,0c0,0,0,0,0,0l0,0l1.2-1.4l0,0c0.2-0.3,0.2-0.6-0.1-0.8
						c-0.3-0.2-0.6-0.2-0.8,0.1l0,0l-1.5,1.8l0,0c-0.2,0.4-0.2,0.8,0.2,1.1c0.3,0.3,0.8,0.3,1.1-0.1l0,0l1.2-1.4l-0.1-0.1
						L41.5,141.7z"/>
				</g>
			</g>
		</g>
	</g>
	<g>
		<g>
			<g>
				<g>
					<path class="st1" d="M57.8,125c-0.2,0-0.4,0.1-0.6,0.3c-0.1-0.2-0.4-0.3-0.6-0.3c-0.5,0-0.8,0.4-0.8,0.8c0,0.7,1.4,1.6,1.4,1.6
						s1.4-0.9,1.4-1.6C58.6,125.4,58.2,125,57.8,125z"/>
				</g>
			</g>
			<g>
				<g>
					<g>
						<path class="st1" d="M54.2,125c-0.2,0-0.4,0.1-0.6,0.3c-0.1-0.2-0.4-0.3-0.6-0.3c-0.5,0-0.8,0.4-0.8,0.8
							c0,0.7,1.4,1.6,1.4,1.6s1.4-0.9,1.4-1.6C55,125.4,54.6,125,54.2,125z"/>
					</g>
				</g>
			</g>
		</g>
		<g class="st23">
			<g>
				<g>
					<path class="st2" d="M57.8,125c-0.2,0-0.4,0.1-0.6,0.3c-0.1-0.2-0.4-0.3-0.6-0.3c-0.5,0-0.8,0.4-0.8,0.8c0,0.7,1.4,1.6,1.4,1.6
						s1.4-0.9,1.4-1.6C58.6,125.4,58.2,125,57.8,125z"/>
				</g>
			</g>
			<g>
				<g>
					<g>
						<path class="st2" d="M54.2,125c-0.2,0-0.4,0.1-0.6,0.3c-0.1-0.2-0.4-0.3-0.6-0.3c-0.5,0-0.8,0.4-0.8,0.8
							c0,0.7,1.4,1.6,1.4,1.6s1.4-0.9,1.4-1.6C55,125.4,54.6,125,54.2,125z"/>
					</g>
				</g>
			</g>
		</g>
		<g>
			<g>
				<g>
					<g>
						<g>
							<g>
								<g>
									<path class="st10" d="M54.6,112.8l-0.3,0l-0.6-0.8l0-0.5c0,0-0.4,0-0.4,0.7c0,0.7,0,0.5,0,0.5s-0.9,0-1,0.1
										c-0.1,0.1-0.1,0.9-0.1,1.4c0,0.2,0.1,0.5,0.3,0.5c0,0,0.1,0,0.1,0c0.2,0,1.3-0.1,1.3-0.1l0.5,0L54.6,112.8z"/>
								</g>
							</g>
						</g>
					</g>
				</g>
				<g>
					<g>
						<g>
							<g>
								<g>
									<polygon class="st10" points="55.4,112.7 55.2,114.5 54.7,114.5 54.8,112.7 									"/>
								</g>
							</g>
						</g>
					</g>
				</g>
			</g>
		</g>
		<g>
			<g>
				<g>
					<g>
						<g>
							<g>
								<g>
									<path class="st10" d="M59.2,112.8l-0.3,0l-0.6-0.8l0-0.5c0,0-0.4,0-0.4,0.7c0,0.7,0,0.5,0,0.5s-0.9,0-1,0.1
										c-0.1,0.1-0.1,0.9-0.1,1.4c0,0.2,0.1,0.5,0.3,0.5c0,0,0.1,0,0.1,0c0.2,0,1.3-0.1,1.3-0.1l0.5,0L59.2,112.8z"/>
								</g>
							</g>
						</g>
					</g>
				</g>
				<g>
					<g>
						<g>
							<g>
								<g>
									<polygon class="st10" points="60,112.7 59.7,114.5 59.3,114.5 59.3,112.7 									"/>
								</g>
							</g>
						</g>
					</g>
				</g>
			</g>
		</g>
		<g>
			<g>
				<path class="st9" d="M52.3,108.9h0.3v1.5h-0.3V108.9z"/>
				<path class="st9" d="M54,110h-0.8c0,0.1,0.1,0.2,0.3,0.2c0.1,0,0.2,0,0.3-0.1l0.2,0.2c-0.1,0.1-0.3,0.2-0.5,0.2
					c-0.4,0-0.6-0.2-0.6-0.6c0-0.3,0.3-0.6,0.6-0.6C53.8,109.3,54,109.5,54,110C54,109.9,54,109.9,54,110z M53.2,109.8h0.5
					c0-0.1-0.1-0.2-0.3-0.2C53.3,109.5,53.2,109.6,53.2,109.8z"/>
				<path class="st9" d="M55.3,109.3l-0.5,1.1h-0.3l-0.5-1.1h0.3l0.3,0.8l0.3-0.8H55.3z"/>
				<path class="st9" d="M55.4,109c0-0.1,0.1-0.2,0.2-0.2c0.1,0,0.2,0.1,0.2,0.2c0,0.1-0.1,0.2-0.2,0.2
					C55.5,109.2,55.4,109.1,55.4,109z M55.5,109.3h0.3v1.1h-0.3V109.3z"/>
				<path class="st9" d="M56.1,108.9h0.3v1.5h-0.3V108.9z"/>
				<path class="st9" d="M56.6,110.4h1v0.2h-1V110.4z"/>
				<path class="st9" d="M57.6,110.8l0.1-0.2c0,0,0.1,0,0.1,0c0.1,0,0.1-0.1,0.1-0.2v-1.1h0.3v1.1c0,0.3-0.2,0.4-0.4,0.4
					C57.8,110.8,57.7,110.8,57.6,110.8z M58,109c0-0.1,0.1-0.2,0.2-0.2c0.1,0,0.2,0.1,0.2,0.2c0,0.1-0.1,0.2-0.2,0.2
					C58,109.2,58,109.1,58,109z"/>
				<path class="st9" d="M59.7,109.3v1.1h-0.3v-0.1c-0.1,0.1-0.2,0.1-0.3,0.1c-0.3,0-0.5-0.2-0.5-0.5v-0.6h0.3v0.6
					c0,0.2,0.1,0.3,0.2,0.3c0.1,0,0.3-0.1,0.3-0.3v-0.6H59.7z"/>
				<path class="st9" d="M60,108.9h0.3v1.5H60V108.9z"/>
				<path class="st9" d="M60.6,109c0-0.1,0.1-0.2,0.2-0.2c0.1,0,0.2,0.1,0.2,0.2c0,0.1-0.1,0.2-0.2,0.2
					C60.7,109.2,60.6,109.1,60.6,109z M60.7,109.3H61v1.1h-0.3V109.3z"/>
				<path class="st9" d="M62.3,109.8v0.6H62v-0.1c-0.1,0.1-0.2,0.2-0.3,0.2c-0.3,0-0.4-0.1-0.4-0.3c0-0.2,0.1-0.3,0.5-0.3H62
					c0-0.1-0.1-0.2-0.3-0.2c-0.1,0-0.2,0-0.3,0.1l-0.1-0.2c0.1-0.1,0.3-0.1,0.5-0.1C62.1,109.3,62.3,109.5,62.3,109.8z M62,110.1
					V110h-0.2c-0.2,0-0.2,0.1-0.2,0.1c0,0.1,0.1,0.1,0.2,0.1C61.8,110.2,61.9,110.2,62,110.1z"/>
			</g>
		</g>
		<g>
			<g>
				<path class="st9" d="M52.3,123.6l0.2-0.2c0.1,0.1,0.2,0.2,0.3,0.2c0.1,0,0.2-0.1,0.2-0.2v-0.7h-0.5v-0.3h0.8v0.9
					c0,0.4-0.2,0.5-0.5,0.5C52.6,123.8,52.4,123.7,52.3,123.6z"/>
				<path class="st9" d="M53.5,123.2c0-0.3,0.3-0.6,0.6-0.6c0.4,0,0.6,0.2,0.6,0.6s-0.3,0.6-0.6,0.6
					C53.8,123.8,53.5,123.5,53.5,123.2z M54.4,123.2c0-0.2-0.1-0.3-0.3-0.3c-0.2,0-0.3,0.1-0.3,0.3c0,0.2,0.1,0.3,0.3,0.3
					C54.3,123.5,54.4,123.4,54.4,123.2z"/>
				<path class="st9" d="M56.1,123.1v0.6h-0.3v-0.6c0-0.2-0.1-0.3-0.2-0.3c-0.2,0-0.3,0.1-0.3,0.3v0.6H55v-1.5h0.3v0.5
					c0.1-0.1,0.2-0.1,0.4-0.1C55.9,122.6,56.1,122.8,56.1,123.1z"/>
				<path class="st9" d="M57.5,123.1v0.6h-0.3v-0.6c0-0.2-0.1-0.3-0.2-0.3c-0.2,0-0.3,0.1-0.3,0.3v0.6h-0.3v-1.1h0.3v0.1
					c0.1-0.1,0.2-0.1,0.4-0.1C57.3,122.6,57.5,122.8,57.5,123.1z"/>
				<path class="st9" d="M57.7,123.7h1v0.2h-1V123.7z"/>
				<path class="st9" d="M59.3,122.3v1.5H59v-1.2h-0.3v-0.3H59.3z"/>
				<path class="st9" d="M60.7,123.5v0.3h-1.1v-0.2l0.6-0.5c0.1-0.1,0.2-0.2,0.2-0.3c0-0.1-0.1-0.2-0.2-0.2c-0.1,0-0.2,0-0.3,0.1
					l-0.2-0.2c0.1-0.2,0.3-0.3,0.6-0.3c0.3,0,0.5,0.2,0.5,0.4c0,0.1,0,0.3-0.2,0.5l-0.3,0.3H60.7z"/>
			</g>
		</g>
		<g>
			<g>
				<g>
					<g>
						<path class="st9" d="M57.8,125c0,0,0.1,0,0.3,0c0.2,0,0.4,0.2,0.6,0.5c0.1,0.2,0.1,0.4,0,0.5c-0.1,0.2-0.2,0.4-0.3,0.5
							c-0.3,0.3-0.6,0.6-1.1,0.9l0,0l0,0c-0.2-0.1-0.4-0.2-0.5-0.4c-0.3-0.2-0.6-0.5-0.7-0.8c-0.1-0.2-0.2-0.3-0.2-0.5
							c0-0.2,0.1-0.3,0.2-0.5c0.2-0.3,0.5-0.4,0.8-0.4c0.3,0,0.5,0.1,0.6,0.3h-0.1c0.2-0.2,0.3-0.2,0.4-0.2
							C57.7,125,57.8,125,57.8,125c0,0-0.1,0-0.2,0c-0.1,0-0.3,0.1-0.4,0.2l0,0l0,0c-0.1-0.1-0.3-0.2-0.5-0.2
							c-0.2,0-0.5,0.1-0.6,0.3c-0.1,0.1-0.1,0.3-0.1,0.4c0,0.1,0.1,0.3,0.1,0.4c0.2,0.3,0.4,0.5,0.7,0.7c0.2,0.1,0.3,0.3,0.5,0.4
							h-0.1c0.4-0.3,0.8-0.6,1-0.9c0.1-0.2,0.2-0.3,0.3-0.5c0.1-0.2,0.1-0.3,0-0.5c-0.1-0.3-0.3-0.4-0.5-0.5
							C57.9,125,57.8,125,57.8,125z"/>
					</g>
				</g>
			</g>
			<g>
				<g>
					<g>
						<g>
							<path class="st9" d="M54.2,125c0,0,0.1,0,0.3,0c0.2,0,0.4,0.2,0.6,0.5c0.1,0.2,0.1,0.4,0,0.5c-0.1,0.2-0.2,0.4-0.3,0.5
								c-0.3,0.3-0.6,0.6-1.1,0.9l0,0l0,0c-0.2-0.1-0.4-0.2-0.5-0.4c-0.3-0.2-0.6-0.5-0.7-0.8c-0.1-0.2-0.2-0.3-0.2-0.5
								c0-0.2,0.1-0.3,0.2-0.5c0.2-0.3,0.5-0.4,0.8-0.4c0.3,0,0.5,0.1,0.6,0.3h-0.1c0.2-0.2,0.3-0.2,0.4-0.2
								C54.1,125,54.2,125,54.2,125c0,0-0.1,0-0.2,0c-0.1,0-0.3,0.1-0.4,0.2l0,0l0,0c-0.1-0.1-0.3-0.2-0.5-0.2
								c-0.2,0-0.5,0.1-0.6,0.3c-0.1,0.1-0.1,0.3-0.1,0.4c0,0.1,0.1,0.3,0.1,0.4c0.2,0.3,0.4,0.5,0.7,0.7c0.2,0.1,0.3,0.3,0.5,0.4
								h-0.1c0.4-0.3,0.8-0.6,1-0.9c0.1-0.2,0.2-0.3,0.3-0.5c0.1-0.2,0.1-0.3,0-0.5c-0.1-0.3-0.3-0.4-0.5-0.5
								C54.3,125,54.2,125,54.2,125z"/>
						</g>
					</g>
				</g>
			</g>
		</g>
	</g>
	<g>
		<g>
			<g>
				
					<ellipse transform="matrix(0.7071 -0.7071 0.7071 0.7071 -65.0787 63.794)" class="st22" cx="44.5" cy="110.5" rx="5.6" ry="5.6"/>
			</g>
		</g>
		<g>
			<g>
				<g>
					<path class="st10" d="M41.2,110.9c-0.1,0.1-0.2,0.3-0.2,0.5c0,0.2,0,0.4,0,0.6c0.1,0.8,0.1,1.7,0,2.5c0.5-0.3,0.8-0.8,1-1.4
						c0.1-0.6,0.1-1.2,0-1.7c0-0.2-0.1-0.3-0.2-0.4C41.6,110.9,41.4,110.8,41.2,110.9"/>
				</g>
			</g>
			<g>
				<g>
					<path class="st9" d="M42.1,108.9c0.1-0.2,0.2-0.5,0-0.7c-0.1-0.2-0.3-0.4-0.5-0.5c-0.6-0.3-1.5,0-1.9,0.6
						c-0.1,0.2-0.2,0.6,0,0.7c0.1,0.1,0.2,0.1,0.2,0.2c0,0.1-0.1,0.2-0.2,0.3c-0.3,0.3-0.4,0.7-0.2,1.1s0.5,0.6,0.9,0.6
						c0.5,0,1-0.4,1.6-0.5"/>
				</g>
			</g>
			<g>
				<g>
					<path class="st10" d="M41.4,108.8c-0.4,0.7-0.6,1.7-0.1,2.4l0.4-0.1c0.3-0.9,0.5-2,0.8-2.9C42,108.3,41.6,108.6,41.4,108.8z"/>
				</g>
			</g>
			<g>
				<g>
					<g>
						<g>
							<g>
								<g>
									<path class="st9" d="M42.1,108.4c0-0.3,0.3-0.5,0.5-0.6c0.3-0.1,0.6-0.1,0.8-0.3c0.2-0.1,0.4-0.4,0.5-0.5
										c0.4-0.4,1.1-0.6,1.7-0.5c0.6,0.2,1.1,0.7,1.3,1.3c0.1,0.4,0,0.9-0.3,1.2c-0.4,0.3-0.9,0.2-1.4,0.1s-1-0.2-1.4,0.1
										c-0.2,0.2-0.4,0.5-0.5,0.7c-0.1,0.3-0.3,0.5-0.6,0.6s-0.7-0.1-0.7-0.4"/>
								</g>
							</g>
						</g>
					</g>
					<g>
						<g>
							<g>
								<path class="st9" d="M42.1,108.5c0,0.2-0.1,0.5-0.3,0.6c-0.2,0.2-0.4,0.4-0.4,0.6c0,0.3,0.2,0.6,0.1,0.8
									c0,0.2-0.2,0.3-0.3,0.5c-0.1,0.2-0.1,0.5-0.1,0.7c0.1,0.2,0.2,0.8,0.4,1c0.5,0.5,1.2,1,1.9,1.1c0.7,0.2,1.4,0.2,2.1,0.1
									c0.6,0,1.2,0,1.7-0.8c0.2-0.4,0.4-1,0.5-1.4c0.1-0.4,0.2-0.8,0.1-1.2c-0.1-0.2-0.2-0.4-0.3-0.7c-0.1-0.3-0.1-0.6-0.1-0.9
									c-0.1-0.6-0.5-1.2-1-1.6c-0.6-0.3-1.3-0.3-1.9-0.1"/>
							</g>
						</g>
					</g>
				</g>
				<g>
					<g>
						<g>
							<path class="st24" d="M47.2,109.5c-0.1-0.8-0.6-1.8-1.4-1.8l-2.6,0.7c-0.3,0-0.4,0.2-0.4,0.5l0.2,5.7c0,0.8,0.7,1.5,1.5,1.4
								l0,0c0.8,0,1.5-0.7,1.5-1.5c0-0.4,0-0.7,0-0.7c0,0,1.1-0.2,1.3-1.6C47.3,111.6,47.3,110.5,47.2,109.5z"/>
						</g>
					</g>
					<g>
						<g>
							<g>
								<g>
									<g>
										<g>
											<g>
												<g>
													<g>
														<g>
															<g>
																<g>
																	<g>
																		<g>
																			<g>
																				<g>
																					<g>
																						<g>
																							<g>
																								<path class="st9" d="M46.8,110.5c0,0.1-0.1,0.2-0.2,0.2c-0.1,0-0.2-0.1-0.2-0.2c0-0.1,0.1-0.2,0.2-0.2
																									C46.7,110.3,46.8,110.4,46.8,110.5z"/>
																							</g>
																						</g>
																					</g>
																				</g>
																			</g>
																		</g>
																	</g>
																</g>
															</g>
														</g>
														<g>
															<g>
																<g>
																	<g>
																		<g>
																			<g>
																				<g>
																					<g>
																						<g>
																							<g>
																								<g>
																									<path class="st9" d="M47,110.1c0,0-0.2-0.1-0.3-0.1c-0.2,0-0.3,0.1-0.4,0.1c0,0,0-0.1,0.1-0.1
																										c0.1,0,0.2-0.1,0.3-0.1C46.8,109.9,46.9,110,47,110.1C47,110.1,47,110.1,47,110.1z"/>
																								</g>
																							</g>
																						</g>
																					</g>
																				</g>
																			</g>
																		</g>
																	</g>
																</g>
															</g>
														</g>
													</g>
													<g>
														<g>
															<g>
																<g>
																	<g>
																		<g>
																			<g>
																				<g>
																					<g>
																						<g>
																							<g>
																								<path class="st9" d="M44.9,110.5c0,0.1-0.1,0.2-0.2,0.2c-0.1,0-0.2-0.1-0.2-0.2c0-0.1,0.1-0.2,0.2-0.2
																									C44.9,110.3,44.9,110.4,44.9,110.5z"/>
																							</g>
																						</g>
																					</g>
																				</g>
																			</g>
																		</g>
																	</g>
																</g>
															</g>
														</g>
														<g>
															<g>
																<g>
																	<g>
																		<g>
																			<g>
																				<g>
																					<g>
																						<g>
																							<g>
																								<g>
																									<path class="st9" d="M45.1,110.2c0,0-0.2-0.1-0.3-0.1c-0.2,0-0.3,0.1-0.4,0.1c0,0,0-0.1,0.1-0.1
																										c0.1,0,0.2-0.1,0.3-0.1C44.9,110,45,110,45.1,110.2C45.1,110.1,45.1,110.2,45.1,110.2z"/>
																								</g>
																							</g>
																						</g>
																					</g>
																				</g>
																			</g>
																		</g>
																	</g>
																</g>
															</g>
														</g>
													</g>
													<g>
														<g>
															<g>
																<g>
																	<g>
																		<g>
																			<g>
																				<g>
																					<g>
																						<g>
																							<g>
																								<path class="st9" d="M45.8,111.6c0,0,0.1,0,0.3-0.1c0,0,0.1,0,0.1,0c0,0,0-0.1,0-0.1c0-0.1-0.1-0.2-0.1-0.4
																									c-0.2-0.5-0.3-1-0.3-1c0,0,0.2,0.4,0.4,0.9c0,0.1,0.1,0.3,0.1,0.4c0,0.1,0.1,0.1,0,0.2c0,0,0,0.1-0.1,0.1
																									c0,0-0.1,0-0.1,0C45.9,111.6,45.8,111.6,45.8,111.6z"/>
																							</g>
																						</g>
																					</g>
																				</g>
																			</g>
																		</g>
																	</g>
																</g>
															</g>
														</g>
													</g>
													<g>
														<g>
															<g>
																<g>
																	<g>
																		<g>
																			<g>
																				<g>
																					<g>
																						<g>
																							<path class="st25" d="M45.9,113.8c0,0-0.9,0.1-1.8-0.5c0,0,0.5,0.9,1.8,0.8L45.9,113.8z"/>
																						</g>
																					</g>
																				</g>
																			</g>
																		</g>
																	</g>
																</g>
															</g>
														</g>
													</g>
													<g>
														<g>
															<g>
																<g>
																	<g>
																		<g>
																			<g>
																				<g>
																					<g>
																						<g>
																							<path class="st1" d="M45.7,112c-0.1-0.1-0.2-0.1-0.3-0.1c-0.1,0-0.2,0-0.2,0.1c-0.1,0.1-0.1,0.2,0,0.2
																								c0.1,0.1,0.2,0.1,0.2,0.1c0.1,0,0.2-0.1,0.2-0.1C45.7,112.2,45.7,112.1,45.7,112
																								C45.8,112.1,45.8,112.1,45.7,112"/>
																						</g>
																					</g>
																				</g>
																			</g>
																		</g>
																	</g>
																</g>
															</g>
														</g>
													</g>
													<g>
														<g>
															<g>
																<g>
																	<g>
																		<g>
																			<g>
																				<g>
																					<g>
																						<g>
																							<g>
																								<path class="st9" d="M45.3,111.7c0,0,0,0.2,0.2,0.4c0.2,0.1,0.4,0.1,0.4,0.2c0,0,0,0-0.1,0
																									c-0.1,0-0.2,0-0.3-0.1c-0.1-0.1-0.2-0.2-0.2-0.3C45.2,111.8,45.2,111.7,45.3,111.7z"/>
																							</g>
																						</g>
																					</g>
																				</g>
																			</g>
																		</g>
																	</g>
																</g>
															</g>
														</g>
													</g>
												</g>
											</g>
										</g>
										<g>
											<g>
												<g>
													<g>
														<g>
															<g>
																<g>
																	<g>
																		<g>
																			<g>
																				<path class="st9" d="M45.2,109.6c0,0.1-0.2,0-0.4,0.1c-0.2,0-0.4,0.1-0.4,0c0,0,0-0.1,0.1-0.1
																					c0.1-0.1,0.2-0.1,0.3-0.1c0.1,0,0.3,0,0.3,0C45.1,109.5,45.2,109.6,45.2,109.6z"/>
																			</g>
																		</g>
																	</g>
																</g>
															</g>
														</g>
													</g>
												</g>
											</g>
										</g>
										<g>
											<g>
												<g>
													<g>
														<g>
															<g>
																<g>
																	<g>
																		<g>
																			<g>
																				<path class="st9" d="M46.9,109.6c0,0-0.2,0-0.3,0c-0.2,0-0.3,0-0.3,0c0,0,0-0.1,0.1-0.1c0.1,0,0.2-0.1,0.3-0.1
																					c0.1,0,0.2,0,0.3,0.1C46.9,109.5,46.9,109.6,46.9,109.6z"/>
																			</g>
																		</g>
																	</g>
																</g>
															</g>
														</g>
													</g>
												</g>
											</g>
										</g>
									</g>
								</g>
							</g>
						</g>
						<g>
							<g>
								<g>
									<g>
										<path class="st9" d="M42.3,113c0.4,0.1,0.8,0,1.1-0.3c0.3-0.3,0.4-0.7,0.4-1.1c0-0.3-0.2-0.7-0.1-1c0.2-0.4,0.7-0.6,0.9-1
											c0.1-0.2,0-0.5,0.1-0.8c0.1-0.2,0.3-0.4,0.6-0.4c0.2-0.1,0.5-0.1,0.7-0.3c0.2-0.2,0.3-0.4,0.2-0.6c-1,0.1-2,0.4-3,0.7
											c-0.2,0.1-0.5,0.2-0.6,0.4c-0.1,0.2-0.1,0.5-0.1,0.7c0.1,1.2,0.1,2.5,0.2,3.7"/>
									</g>
								</g>
							</g>
						</g>
					</g>
					<g>
						<g>
							<g>
								<g>
									<path class="st10" d="M42.4,113.5C42.4,113.5,42.3,113.5,42.4,113.5C42.3,113.4,42.3,113.4,42.4,113.5
										c-0.1-0.1-0.2-0.2-0.3-0.3c-0.1-0.1-0.2-0.2-0.3-0.3c-0.1-0.1-0.2-0.3-0.3-0.6c0-0.2,0-0.5,0.2-0.7
										c0.1-0.1,0.2-0.2,0.3-0.3c0.1-0.1,0.2-0.2,0.3-0.3c0.1-0.3,0.1-0.6,0.1-0.9c0-0.3,0.2-0.7,0.4-1c0.1-0.1,0.3-0.3,0.4-0.3
										c0.2-0.1,0.3-0.1,0.5-0.2c0.2,0,0.3-0.1,0.4-0.2c0.1-0.1,0.2-0.2,0.3-0.3c0.2-0.2,0.3-0.5,0.5-0.7c0.1-0.1,0.2-0.2,0.3-0.3
										c0.1-0.1,0.2-0.1,0.3-0.2c0.2-0.1,0.5-0.1,0.6,0.1c0.2,0.1,0.2,0.3,0.2,0.4c0,0.1,0,0.2-0.1,0.3c0,0,0,0-0.1,0.1
										c0,0,0,0,0,0s0,0,0,0c0,0,0,0,0.1-0.1c0-0.1,0.1-0.1,0.1-0.3c0-0.1-0.1-0.3-0.2-0.4c-0.1-0.1-0.4-0.1-0.6,0
										c-0.1,0-0.2,0.1-0.3,0.2c-0.1,0.1-0.2,0.2-0.3,0.3c-0.2,0.2-0.3,0.5-0.5,0.7c-0.1,0.1-0.2,0.2-0.3,0.4
										c-0.1,0.1-0.3,0.2-0.4,0.2c-0.2,0-0.3,0.1-0.5,0.2c-0.1,0.1-0.3,0.2-0.4,0.3c-0.2,0.3-0.3,0.6-0.4,0.9c0,0.3,0,0.7-0.1,1
										c-0.1,0.1-0.2,0.3-0.3,0.4c-0.1,0.1-0.2,0.2-0.3,0.3c-0.2,0.2-0.2,0.5-0.2,0.7c0,0.2,0.1,0.4,0.2,0.6
										c0.1,0.1,0.2,0.3,0.3,0.3C42.2,113.3,42.2,113.3,42.4,113.5C42.3,113.4,42.4,113.5,42.4,113.5z"/>
								</g>
							</g>
						</g>
					</g>
				</g>
			</g>
			<g>
				<g>
					<path class="st10" d="M41.1,111c-0.4,0.1-0.7,0.5-0.8,0.9c-0.2,0.4-0.2,0.8-0.5,1.2c0.3,0.1,0.6-0.1,0.8-0.3
						c0.2-0.1,0.3-0.2,0.4-0.4c0.3-0.4,0.1-1,0.2-1.5"/>
				</g>
			</g>
			<g>
				<g>
					<g>
						<path class="st18" d="M41.4,110.8c0,0-0.1,0-0.2-0.1c-0.1-0.1-0.2-0.1-0.2-0.1c0,0,0.1,0,0.2,0.1
							C41.3,110.7,41.4,110.8,41.4,110.8z"/>
					</g>
				</g>
			</g>
			<g>
				<g>
					<g>
						<path class="st18" d="M41.4,110.4c0,0-0.1-0.1-0.2-0.2c-0.1-0.1-0.2-0.2-0.2-0.2c0,0,0.1,0.1,0.2,0.2
							C41.4,110.3,41.4,110.3,41.4,110.4z"/>
					</g>
				</g>
			</g>
			<g>
				<g>
					<g>
						<path class="st18" d="M41.4,109.6c0,0-0.1,0-0.1-0.1c-0.1-0.1-0.1-0.1-0.1-0.1c0,0,0.1,0,0.1,0.1
							C41.4,109.6,41.4,109.6,41.4,109.6z"/>
					</g>
				</g>
			</g>
			<g>
				<g>
					<g>
						<path class="st18" d="M41.7,109.2c0,0-0.1-0.1-0.2-0.2c-0.1-0.1-0.1-0.2-0.1-0.2c0,0,0.1,0.1,0.1,0.2
							C41.7,109.1,41.7,109.2,41.7,109.2z"/>
					</g>
				</g>
			</g>
			<g>
				<g>
					<g>
						<path class="st18" d="M42.1,108.8c0,0-0.1-0.1-0.2-0.1c-0.1-0.1-0.1-0.2-0.1-0.2c0,0,0.1,0.1,0.2,0.1
							C42,108.8,42.1,108.8,42.1,108.8z"/>
					</g>
				</g>
			</g>
			<g>
				<g>
					<g>
						<path class="st9" d="M41,114.5C41,114.5,41,114.5,41,114.5c0-0.1,0-0.1,0-0.1c0-0.1,0-0.2,0-0.4c0-0.3,0-0.7,0-1.2
							c0-0.2,0-0.5,0-0.7c0-0.2,0-0.4,0.1-0.5c0-0.2,0.1-0.3,0.1-0.4c0,0,0-0.1,0-0.1c0,0,0,0,0,0c0,0,0,0,0,0.1
							c0,0.1-0.1,0.2-0.1,0.4c0,0.2,0,0.3-0.1,0.5c0,0.2,0,0.4,0,0.7c0,0.5,0,0.9,0,1.2c0,0.2,0,0.3,0,0.4
							C41,114.4,41,114.4,41,114.5C41,114.5,41,114.5,41,114.5z"/>
					</g>
				</g>
			</g>
			<g>
				<g>
					<g>
						<path class="st18" d="M41.5,114c0,0-0.1-0.1-0.3-0.3c-0.1-0.2-0.2-0.3-0.2-0.3c0,0,0.1,0.1,0.3,0.3
							C41.4,113.9,41.5,114,41.5,114z"/>
					</g>
				</g>
			</g>
			<g>
				<g>
					<g>
						<path class="st18" d="M41.8,113.4c0,0-0.1,0-0.1-0.1c-0.1-0.1-0.2-0.2-0.3-0.3c-0.1-0.1-0.2-0.3-0.3-0.4c0,0,0-0.1-0.1-0.1
							c0,0,0,0,0,0c0,0,0,0.1,0.1,0.2c0.1,0.1,0.1,0.2,0.3,0.3c0.1,0.1,0.2,0.2,0.3,0.3C41.8,113.3,41.8,113.4,41.8,113.4z"/>
					</g>
				</g>
			</g>
			<g>
				<g>
					<g>
						<path class="st18" d="M40.5,112.9c0,0,0,0-0.1-0.1c0-0.1-0.1-0.2-0.1-0.3c0-0.1-0.1-0.2-0.1-0.3c0-0.1,0-0.1,0-0.1
							c0,0,0.1,0.2,0.1,0.4C40.4,112.7,40.5,112.9,40.5,112.9z"/>
					</g>
				</g>
			</g>
			<g>
				<g>
					<g>
						<path class="st18" d="M40.9,112.5c0,0-0.1-0.3-0.2-0.6c-0.1-0.3-0.1-0.6-0.1-0.6c0,0,0.1,0.3,0.2,0.6
							C40.8,112.3,40.9,112.5,40.9,112.5z"/>
					</g>
				</g>
			</g>
			<g>
				<g>
					<g>
						<path class="st18" d="M41,111.4c0,0-0.1-0.1-0.1-0.1c0-0.1,0-0.1,0-0.1l0,0c0,0,0,0,0,0c0,0,0,0,0,0l0,0c0,0,0,0.1,0,0.1
							C41,111.3,41,111.4,41,111.4z"/>
					</g>
				</g>
			</g>
		</g>
		<g>
			<g>
				<path class="st10" d="M41.2,115.1l1.7-0.5l3,0l1.9,0.4c0,0-1.3,1.2-3.4,1.1C42.4,116.1,41.2,115.1,41.2,115.1z"/>
			</g>
		</g>
	</g>
	<g>
		<g>
			<g>
				<g>
					
						<ellipse transform="matrix(0.1513 -0.9885 0.9885 0.1513 -85.0491 148.8222)" class="st22" cx="44.1" cy="123.9" rx="5.6" ry="5.6"/>
				</g>
			</g>
			<g>
				<g>
					<g>
						<g>
							<g>
								<g>
									<g>
										<path class="st15" d="M44,129.4c-0.9,0.1-1.7-0.6-1.8-1.5l-0.5-5c-0.1-1.3,0.9-2.5,2.2-2.6l0,0c1.3,0,2.4,1,2.5,2.3
											c0.1,1.1,0.2,2.4,0.2,3c0,1.3-1.3,1.5-1.3,1.5s0,0.2,0.1,0.5C45.5,128.5,44.9,129.3,44,129.4L44,129.4z"/>
									</g>
								</g>
								<g>
									<g>
										<g>
											<g>
												<g>
													<g>
														<g>
															<g>
																<g>
																	<g>
																		<path class="st16" d="M45.4,127c0,0-0.8,0.1-1.7-0.5c0,0,0.4,0.9,1.7,0.8L45.4,127z"/>
																	</g>
																</g>
															</g>
														</g>
													</g>
												</g>
											</g>
										</g>
									</g>
								</g>
							</g>
						</g>
					</g>
					<g>
						<g>
							<g>
								<g>
									<g>
										<g>
											<g>
												<g>
													<g>
														<g>
															<g>
																<g>
																	<g>
																		<g>
																			<g>
																				<g>
																					<path class="st9" d="M45.9,123.4c0,0.1-0.1,0.2-0.2,0.2c-0.1,0-0.2-0.1-0.2-0.2c0-0.1,0.1-0.2,0.2-0.2
																						C45.9,123.2,45.9,123.3,45.9,123.4z"/>
																				</g>
																			</g>
																		</g>
																	</g>
																</g>
															</g>
														</g>
													</g>
												</g>
											</g>
											<g>
												<g>
													<g>
														<g>
															<g>
																<g>
																	<g>
																		<g>
																			<g>
																				<g>
																					<g>
																						<path class="st9" d="M46.2,123.1c0,0-0.2-0.1-0.4-0.1c-0.2,0-0.3,0.1-0.4,0.1c0,0,0-0.1,0.1-0.1
																							c0.1,0,0.2-0.1,0.3-0.1c0.1,0,0.2,0,0.3,0.1C46.2,123,46.2,123.1,46.2,123.1z"/>
																					</g>
																				</g>
																			</g>
																		</g>
																	</g>
																</g>
															</g>
														</g>
													</g>
												</g>
											</g>
										</g>
										<g>
											<g>
												<g>
													<g>
														<g>
															<g>
																<g>
																	<g>
																		<g>
																			<g>
																				<g>
																					<path class="st9" d="M44,123.5c0,0.1-0.1,0.2-0.2,0.2c-0.1,0-0.2-0.1-0.2-0.2c0-0.1,0.1-0.2,0.2-0.2
																						C44,123.3,44,123.4,44,123.5z"/>
																				</g>
																			</g>
																		</g>
																	</g>
																</g>
															</g>
														</g>
													</g>
												</g>
											</g>
											<g>
												<g>
													<g>
														<g>
															<g>
																<g>
																	<g>
																		<g>
																			<g>
																				<g>
																					<g>
																						<path class="st9" d="M44.2,123.2c0,0-0.2-0.1-0.4-0.1c-0.2,0-0.3,0.1-0.4,0.1c0,0,0-0.1,0.1-0.1
																							c0.1,0,0.2-0.1,0.3-0.1c0.1,0,0.2,0,0.3,0.1C44.2,123.1,44.2,123.1,44.2,123.2z"/>
																					</g>
																				</g>
																			</g>
																		</g>
																	</g>
																</g>
															</g>
														</g>
													</g>
												</g>
											</g>
										</g>
										<g>
											<g>
												<g>
													<g>
														<g>
															<g>
																<g>
																	<g>
																		<g>
																			<g>
																				<g>
																					<path class="st9" d="M45,124.6c0,0,0.1,0,0.3-0.1c0.1,0,0.1,0,0.1-0.1c0,0,0-0.1,0-0.2c0-0.1-0.1-0.3-0.2-0.4
																						c-0.2-0.5-0.4-1-0.4-1c0,0,0.2,0.4,0.4,1c0.1,0.1,0.1,0.3,0.2,0.4c0,0.1,0.1,0.1,0,0.2c0,0,0,0.1-0.1,0.1
																						c0,0-0.1,0-0.1,0C45.1,124.6,45,124.6,45,124.6z"/>
																				</g>
																			</g>
																		</g>
																	</g>
																</g>
															</g>
														</g>
													</g>
												</g>
											</g>
										</g>
										<g>
											<g>
												<g>
													<g>
														<g>
															<g>
																<g>
																	<g>
																		<g>
																			<g>
																				<g>
																					<path class="st9" d="M44.4,124.8c0,0,0,0.2,0.2,0.4c0.2,0.2,0.4,0.1,0.4,0.2c0,0-0.1,0-0.1,0
																						c-0.1,0-0.2,0-0.4-0.1c-0.1-0.1-0.2-0.2-0.2-0.3C44.4,124.8,44.4,124.8,44.4,124.8z"/>
																				</g>
																			</g>
																		</g>
																	</g>
																</g>
															</g>
														</g>
													</g>
												</g>
											</g>
										</g>
									</g>
								</g>
							</g>
							<g>
								<g>
									<g>
										<g>
											<g>
												<g>
													<g>
														<g>
															<g>
																<g>
																	<path class="st9" d="M44.3,122.4c0,0.1-0.2,0-0.5,0.1c-0.2,0-0.4,0.1-0.5,0.1c0,0,0-0.1,0.1-0.1
																		c0.1-0.1,0.2-0.1,0.3-0.1c0.1,0,0.3,0,0.4,0C44.2,122.3,44.3,122.3,44.3,122.4z"/>
																</g>
															</g>
														</g>
													</g>
												</g>
											</g>
										</g>
									</g>
								</g>
							</g>
							<g>
								<g>
									<g>
										<g>
											<g>
												<g>
													<g>
														<g>
															<g>
																<g>
																	<path class="st9" d="M46.1,122.5c0,0-0.2,0-0.3,0c-0.2,0-0.3,0-0.3,0c0,0,0-0.1,0.1-0.1c0.1,0,0.2-0.1,0.3-0.1
																		c0.1,0,0.2,0,0.3,0.1C46.1,122.4,46.1,122.5,46.1,122.5z"/>
																</g>
															</g>
														</g>
													</g>
												</g>
											</g>
										</g>
									</g>
								</g>
							</g>
						</g>
					</g>
					<g>
						<g>
							<g>
								<g>
									<path class="st9" d="M43.1,121.5C43.1,121.5,43.1,121.5,43.1,121.5c-0.2,0.2-0.3,0.4-0.4,0.7c0,0,0,0,0,0
										c0,0.4,0,0.7-0.1,1.1c0,0.4,0,0.6-0.4,0.8c-0.2,0.1-0.4,0-0.5-0.2c0,0,0-0.1,0-0.2c-0.1-0.9-0.3-1.2-0.3-2.2
										c0-0.3,0.1-0.5,0.3-0.6c0.2-0.1,0.4-0.3,0.6-0.2C42.5,120.8,42.8,121.2,43.1,121.5"/>
								</g>
							</g>
						</g>
					</g>
					<g>
						<g>
							<g>
								<g>
									<g>
										<g>
											<g>
												<g>
													<g>
														<g>
															<g>
																<path class="st15" d="M42.1,123.5c0,0-0.9-0.2-0.9,0.6c0,0.9,0.9,0.7,0.9,0.6C42.2,124.7,42.1,123.5,42.1,123.5z"/>
															</g>
														</g>
													</g>
												</g>
											</g>
										</g>
									</g>
								</g>
							</g>
						</g>
						<g>
							<g>
								<g>
									<g>
										<g>
											<g>
												<g>
													<g>
														<g>
															<g>
																<g>
																	<path class="st16" d="M41.9,124.4C41.9,124.4,41.9,124.4,41.9,124.4c-0.1,0-0.1,0-0.2,0c-0.1,0-0.2-0.2-0.2-0.3
																		c0-0.1,0-0.2,0-0.2c0-0.1,0.1-0.1,0.1-0.1c0,0,0.1,0,0.1,0c0,0,0,0,0,0c0,0,0,0,0-0.1c0,0,0,0,0-0.1
																		c0,0-0.1,0-0.1,0c-0.1,0-0.1,0.1-0.2,0.1c0,0.1,0,0.2,0,0.2c0,0.2,0.1,0.3,0.2,0.4
																		C41.8,124.5,41.9,124.5,41.9,124.4C41.9,124.5,41.9,124.4,41.9,124.4z"/>
																</g>
															</g>
														</g>
													</g>
												</g>
											</g>
										</g>
									</g>
								</g>
							</g>
						</g>
					</g>
					<g>
						<g>
							<g>
								<g>
									<path class="st9" d="M42.3,120.9c-0.2-0.4,0.4-0.9,0.8-1c0.4-0.1,1,0.1,1.5,0.2c0.3,0.1,0.6,0.2,0.8,0.2
										c0.2,0,0.4-0.1,0.6-0.2c0.2-0.1,0.4-0.1,0.6-0.1c0.2,0,0.4,0.1,0.5,0.3c0.1,0.2,0,0.4-0.2,0.5c0.2-0.1,0.6,0,0.6,0.3
										c0,0.3-0.2,0.6-0.5,0.5c0.1-0.1,0.3,0.1,0.3,0.2c0,0.2-0.2,0.3-0.3,0.3c-0.4,0.2-0.8,0.1-1.2,0c-0.4-0.1-0.7-0.3-1.1-0.4
										s-1-0.4-1.4-0.2c-0.3,0.1-0.5,0.4-0.6,0.4c-0.2-0.1-0.3-0.2-0.3-0.4C42.3,121.2,42.3,121,42.3,120.9"/>
								</g>
							</g>
						</g>
					</g>
					<g>
						<g>
							<g>
								<g>
									<g>
										<path class="st10" d="M46.9,120.7c0,0,0,0.1-0.1,0.2c-0.1,0.1-0.3,0.2-0.5,0.3c-0.2,0.1-0.5,0.1-0.8,0
											c-0.3-0.1-0.6-0.4-0.9-0.6c-0.3-0.3-0.7-0.4-1-0.5c-0.3,0-0.7,0.1-0.8,0.3c-0.2,0.2-0.2,0.4-0.2,0.6c0,0.1,0,0.1,0,0.2
											c0,0,0,0.1,0,0.1c0,0,0-0.1,0-0.2c0-0.1,0-0.3,0.2-0.5c0.2-0.2,0.5-0.3,0.8-0.3c0.3,0,0.7,0.2,1,0.4
											c0.3,0.2,0.6,0.5,0.9,0.7c0.3,0.1,0.7,0.1,0.9,0c0.2-0.1,0.4-0.2,0.5-0.4C46.8,120.8,46.8,120.8,46.9,120.7
											C46.9,120.7,46.9,120.7,46.9,120.7z"/>
									</g>
								</g>
							</g>
						</g>
					</g>
					<g>
						<g>
							<g>
								<g>
									<g>
										<path class="st10" d="M41.9,123.4C41.9,123.4,41.9,123.4,41.9,123.4c0.1-0.2,0.1-0.3,0.1-0.4c0-0.3-0.3-0.6-0.3-1
											c0-0.2,0-0.4,0.1-0.5c0.1-0.1,0.2-0.2,0.3-0.3c0.1-0.1,0.2-0.1,0.3,0c0.1,0,0.1,0,0.1,0c0,0,0,0-0.1-0.1
											c-0.1,0-0.2,0-0.3,0c-0.1,0-0.3,0.1-0.4,0.3c-0.1,0.2-0.1,0.4-0.1,0.6c0,0.2,0.1,0.4,0.2,0.6c0.1,0.2,0.1,0.3,0.2,0.4
											C42,123.3,41.9,123.4,41.9,123.4z"/>
									</g>
								</g>
							</g>
						</g>
					</g>
				</g>
			</g>
			<g>
				<g>
					<path class="st1" d="M40.9,128.6l1.2-0.8c1.4,0.4,2.5,0.4,3.3-0.2l2.1,0.9c0,0-1.3,1.2-3.4,1.1
						C42.1,129.5,40.9,128.6,40.9,128.6z"/>
				</g>
			</g>
		</g>
	</g>
	<g>
		<g>
			
				<ellipse transform="matrix(0.6909 -0.7229 0.7229 0.6909 -8.0404 40.7503)" class="st22" cx="43.6" cy="29.8" rx="7.4" ry="7.4"/>
		</g>
		<g>
			<path class="st9" d="M48.5,32.9c0.1-0.6,0.4-1.2,0.5-1.8c0.1-0.6-0.1-1.3-0.2-1.9c-0.3-1.2-0.7-2.4-1.5-3.3
				c-0.8-0.9-2.1-1.4-3.3-1l-1.2,1c-0.8,0.2-1.3,1-1.7,1.8c-0.3,0.8-0.5,1.7-1.1,2.3c-0.4,0.4-0.9,0.7-1,1.3
				C39,32,39.4,32.5,39.1,33c-0.2,0.3-0.7,0.4-0.9,0.8C38,34.1,38.4,35,38.4,35s2.4,3.2,7.8,1.8c1.4-0.4,2.1-1.2,2.9-2
				C48.6,34.3,48.4,33.6,48.5,32.9z"/>
		</g>
		<g>
			<path class="st1" d="M39.4,35.9l2.5-0.7l4-0.2l2.5,0.6c0,0-1.2,1.7-4.9,1.6c-2.4-0.1-3.3-0.8-3.3-0.8"/>
		</g>
		<g>
			<g>
				<path class="st10" d="M41,25.5c0.8-0.8,1.5-1,2.3-1.1c1.2-0.1,2.5,0.2,3.4,1c0.8,0.7,1.2,1.9,1.3,3c0,0.4-0.1,0.8-0.3,1.1
					c-0.1,0.4-0.6,0.8-1,1c-0.4,0.2-0.5,0-0.8-0.3c-0.2-0.2-0.3-0.4-0.3-0.6c-0.3-1-0.8-1.9-1.4-2.7s-1.6-1.4-2.6-1.4"/>
			</g>
			<g>
				<g>
					<g>
						<path class="st9" d="M40.4,27.6c-0.1-0.8,0.1-1.6,0.6-2.1c0.4-0.4,1-0.7,1.5-0.8c0.8-0.2,1.6-0.2,2.3,0.2s1.2,1,1.3,1.8
							c0,0.4-0.1,0.7,0,1.1c0,0.1,0.1,0.3,0.1,0.4c0,0.1-0.2,0.2-0.3,0.2c-0.1,0-0.3,0-0.4-0.1c-0.4-0.2-0.8-0.6-1.1-0.9"/>
					</g>
				</g>
				<g>
					<g>
						<g>
							<path class="st15" d="M45.7,26.8l-3.4-1c-1.1-0.2-1.9,1.1-2,2.2c-0.1,1.2-0.3,2.7-0.2,3.6c0.2,1.8,1.6,2.1,1.6,2.1
								c0,0,0,0.4,0,0.9c0,1.3,1.2,2.3,2.5,2c0,0,0.1,0,0.1,0c0.8-0.2,1.4-1,1.4-1.8l0.5-7.4C46.3,27.2,46.1,26.9,45.7,26.8z"/>
						</g>
						<g>
							<g>
								<g>
									<g>
										<g>
											<g>
												<g>
													<g>
														<g>
															<g>
																<g>
																	<g>
																		<g>
																			<g>
																				<g>
																					<g>
																						<g>
																							<g>
																								<g>
																									<g>
																										<path class="st9" d="M40.9,29.2c0,0.1,0.1,0.2,0.2,0.2c0.1,0,0.2-0.1,0.3-0.2c0-0.1-0.1-0.2-0.2-0.2
																											C41,29,40.9,29.1,40.9,29.2z"/>
																									</g>
																								</g>
																							</g>
																						</g>
																					</g>
																				</g>
																			</g>
																		</g>
																	</g>
																</g>
															</g>
															<g>
																<g>
																	<g>
																		<g>
																			<g>
																				<g>
																					<g>
																						<g>
																							<g>
																								<g>
																									<g>
																										<g>
																											<path class="st9" d="M40.7,28.8c0,0,0.2-0.1,0.5-0.1c0.3,0,0.4,0.1,0.5,0.1c0,0,0-0.1-0.1-0.1
																												c-0.1-0.1-0.2-0.1-0.4-0.1c-0.2,0-0.3,0-0.4,0.1C40.7,28.7,40.6,28.8,40.7,28.8z"/>
																										</g>
																									</g>
																								</g>
																							</g>
																						</g>
																					</g>
																				</g>
																			</g>
																		</g>
																	</g>
																</g>
															</g>
														</g>
														<g>
															<g>
																<g>
																	<g>
																		<g>
																			<g>
																				<g>
																					<g>
																						<g>
																							<g>
																								<g>
																									<g>
																										<path class="st9" d="M43.5,29.4c0,0.1,0.1,0.2,0.2,0.2c0.1,0,0.2-0.1,0.3-0.2c0-0.1-0.1-0.2-0.2-0.2
																											C43.6,29.2,43.5,29.3,43.5,29.4z"/>
																									</g>
																								</g>
																							</g>
																						</g>
																					</g>
																				</g>
																			</g>
																		</g>
																	</g>
																</g>
															</g>
															<g>
																<g>
																	<g>
																		<g>
																			<g>
																				<g>
																					<g>
																						<g>
																							<g>
																								<g>
																									<g>
																										<g>
																											<path class="st9" d="M43.1,29c0,0,0.2-0.1,0.5-0.1c0.3,0,0.4,0.1,0.5,0.1c0,0,0-0.1-0.1-0.1
																												c-0.1-0.1-0.2-0.1-0.4-0.1c-0.2,0-0.3,0-0.4,0.1C43.1,28.9,43.1,28.9,43.1,29z"/>
																										</g>
																									</g>
																								</g>
																							</g>
																						</g>
																					</g>
																				</g>
																			</g>
																		</g>
																	</g>
																</g>
															</g>
														</g>
														<g>
															<g>
																<g>
																	<g>
																		<g>
																			<g>
																				<g>
																					<g>
																						<g>
																							<g>
																								<g>
																									<g>
																										<path class="st9" d="M42.1,30.8c0,0-0.2,0-0.4-0.1c-0.1,0-0.1,0-0.1-0.1c0,0,0-0.1,0.1-0.2
																											c0.1-0.2,0.1-0.3,0.2-0.5c0.3-0.7,0.5-1.2,0.5-1.3c0,0-0.3,0.5-0.6,1.2c-0.1,0.2-0.1,0.3-0.2,0.5
																											c0,0.1-0.1,0.2,0,0.3c0,0,0.1,0.1,0.1,0.1c0,0,0.1,0,0.1,0C42,30.8,42.1,30.8,42.1,30.8z"/>
																									</g>
																								</g>
																							</g>
																						</g>
																					</g>
																				</g>
																			</g>
																		</g>
																	</g>
																</g>
															</g>
														</g>
														<g>
															<g>
																<g>
																	<g>
																		<g>
																			<g>
																				<g>
																					<g>
																						<g>
																							<g>
																								<g>
																									<path class="st16" d="M41.8,33.7c0,0,1.2,0.1,2.5-0.5c0,0-0.7,1.3-2.5,1L41.8,33.7z"/>
																								</g>
																							</g>
																						</g>
																					</g>
																				</g>
																			</g>
																		</g>
																	</g>
																</g>
															</g>
														</g>
														<g>
															<g>
																<g>
																	<g>
																		<g>
																			<g>
																				<g>
																					<g>
																						<g>
																							<g>
																								<g>
																									<path class="st16" d="M42.2,31.4c0.1-0.1,0.3-0.2,0.4-0.1c0.1,0,0.2,0.1,0.3,0.2c0.1,0.1,0.1,0.2,0,0.3
																										c-0.1,0.1-0.2,0.1-0.3,0.1c-0.1,0-0.2-0.1-0.3-0.2c0,0-0.1,0-0.1-0.1C42.2,31.5,42.2,31.4,42.2,31.4"/>
																								</g>
																							</g>
																						</g>
																					</g>
																				</g>
																			</g>
																		</g>
																	</g>
																</g>
															</g>
														</g>
														<g>
															<g>
																<g>
																	<g>
																		<g>
																			<g>
																				<g>
																					<g>
																						<g>
																							<g>
																								<g>
																									<g>
																										<path class="st9" d="M42.8,31c0,0-0.1,0.3-0.3,0.5c-0.2,0.2-0.5,0.1-0.5,0.2c0,0,0.1,0.1,0.2,0.1
																											c0.1,0,0.3,0,0.4-0.1c0.1-0.1,0.2-0.3,0.2-0.4C42.9,31.1,42.9,31,42.8,31z"/>
																									</g>
																								</g>
																							</g>
																						</g>
																					</g>
																				</g>
																			</g>
																		</g>
																	</g>
																</g>
															</g>
														</g>
													</g>
												</g>
											</g>
											<g>
												<g>
													<g>
														<g>
															<g>
																<g>
																	<g>
																		<g>
																			<g>
																				<g>
																					<g>
																						<path class="st9" d="M43.1,28.2c0,0.1,0.3,0.1,0.6,0.1c0.3,0,0.5,0.1,0.6,0.1c0,0,0-0.1-0.1-0.2
																							c-0.1-0.1-0.2-0.1-0.4-0.2c-0.2,0-0.3,0-0.5,0C43.2,28.1,43.1,28.2,43.1,28.2z"/>
																					</g>
																				</g>
																			</g>
																		</g>
																	</g>
																</g>
															</g>
														</g>
													</g>
												</g>
											</g>
											<g>
												<g>
													<g>
														<g>
															<g>
																<g>
																	<g>
																		<g>
																			<g>
																				<g>
																					<g>
																						<path class="st9" d="M40.8,27.7c0,0.1,0.2,0,0.4,0c0.2,0,0.4,0.1,0.4,0c0,0,0-0.1-0.1-0.1
																							c-0.1-0.1-0.2-0.1-0.3-0.1c-0.1,0-0.3,0-0.3,0.1C40.8,27.6,40.8,27.7,40.8,27.7z"/>
																					</g>
																				</g>
																			</g>
																		</g>
																	</g>
																</g>
															</g>
														</g>
													</g>
												</g>
											</g>
										</g>
									</g>
								</g>
							</g>
						</g>
					</g>
				</g>
				<g>
					<g>
						<g>
							<g>
								<g>
									<g>
										<g>
											<g>
												<g>
													<g>
														<g>
															<g>
																<path class="st15" d="M45.6,30.5c0-0.1,0.2-0.4,0.3-0.5c0.4,0,1,0,1,0.9c-0.1,1.2-1.3,0.9-1.3,0.9
																	C45.6,31.9,45.6,31,45.6,30.5z"/>
															</g>
														</g>
													</g>
												</g>
											</g>
										</g>
									</g>
								</g>
							</g>
						</g>
					</g>
					<g>
						<g>
							<g>
								<g>
									<g>
										<g>
											<g>
												<g>
													<g>
														<g>
															<g>
																<g>
																	<path class="st16" d="M46,31.4C46,31.4,46,31.4,46,31.4c0.1,0.1,0.2,0.1,0.2,0c0.1,0,0.3-0.2,0.3-0.5
																		c0-0.1,0-0.2,0-0.3c0-0.1-0.1-0.2-0.2-0.2c-0.1,0-0.1,0-0.1,0.1c0,0,0,0.1,0,0.1c0,0,0,0,0-0.1c0,0,0-0.1,0.1-0.1
																		c0,0,0.1,0,0.1,0c0.1,0,0.2,0.1,0.2,0.2c0,0.1,0.1,0.2,0.1,0.4c0,0.3-0.2,0.5-0.3,0.5C46.1,31.6,46.1,31.5,46,31.4
																		C46,31.5,46,31.4,46,31.4z"/>
																</g>
															</g>
														</g>
													</g>
												</g>
											</g>
										</g>
									</g>
								</g>
							</g>
						</g>
					</g>
				</g>
			</g>
			<g>
				<path class="st9" d="M42.2,25.5c0.1,0.6,0.5,1.2,1.1,1.4c0.3,0.1,0.7,0.2,0.8,0.5c0.2,0.3,0,0.7,0.2,1c0.2,0.4,0.9,0.4,1,0.9
					c0.1,0.2,0,0.4,0.1,0.6c0.1,0.3,0.4,0.4,0.7,0.3c0.3-0.1,0.5-0.3,0.6-0.5c0.1-0.2,0.2-0.5,0.2-0.8c0.1-0.5,0.1-1.1,0-1.6
					c-0.3-1.1-1.7-2.6-2.8-2.6"/>
			</g>
			<g>
				<g>
					<path class="st10" d="M44.3,25.2c0,0-0.5,0-1.1,0.2c-0.6,0.3-0.9,0.7-0.9,0.7c0,0,0.1-0.1,0.2-0.3c0.1-0.2,0.4-0.3,0.7-0.5
						c0.3-0.1,0.6-0.2,0.8-0.2C44.2,25.1,44.3,25.1,44.3,25.2z"/>
				</g>
			</g>
			<g>
				<g>
					<path class="st10" d="M42.9,25c0,0-0.3,0.1-0.5,0.4c-0.2,0.3-0.2,0.6-0.2,0.6c0,0,0-0.1,0-0.2c0-0.1,0.1-0.3,0.2-0.4
						c0.1-0.2,0.2-0.3,0.4-0.3C42.8,25,42.9,25,42.9,25z"/>
				</g>
			</g>
		</g>
	</g>
</g>
<g>
	<g>
		<g>
			<g>
				<path class="st0" d="M19.8,62.3c-0.3,0.8-1.2,1.2-2,0.9c-0.8-0.3-1.2-1.2-0.9-2c0.3-0.8,1.2-1.2,2-0.9
					C19.6,60.7,20,61.5,19.8,62.3z"/>
			</g>
		</g>
	</g>
	<g>
		<g>
			<g>
				<g>
					<path class="st0" d="M19.7,61.8c-0.1,0-0.6-1.5-0.9-3.5c-0.3-1.9-0.5-3.5-0.4-3.5c0.1,0,0.5,1.5,0.7,3.5
						C19.5,60.2,19.8,61.7,19.7,61.8z"/>
				</g>
			</g>
		</g>
	</g>
	<g>
		<g>
			<g>
				<g>
					<path class="st0" d="M21.7,54.2c0.1,0.1-0.5,0.7-1.5,0.9c-1,0.2-1.8-0.1-1.8-0.2c0-0.1,0.8,0.1,1.7-0.2
						C21,54.5,21.6,54.1,21.7,54.2z"/>
				</g>
			</g>
		</g>
	</g>
	<g>
		<g>
			<g>
				<g>
					<path class="st0" d="M21.8,55.7c0.1,0-0.5,0.7-1.5,0.9c-1,0.2-1.7-0.3-1.7-0.4c0-0.1,0.7,0.2,1.6,0
						C21.2,56.1,21.8,55.7,21.8,55.7z"/>
				</g>
			</g>
		</g>
	</g>
</g>
<g>
	<g>
		<g>
			<g>
				<g>
					<g>
						<path class="st0" d="M5.7,35.1c-1.2,0.9-2.9,0.6-3.8-0.7c-0.9-1.2-0.6-2.9,0.7-3.8c1.2-0.9,2.9-0.6,3.8,0.7
							C7.2,32.6,6.9,34.3,5.7,35.1z"/>
					</g>
				</g>
			</g>
			<g>
				<g>
					<g>
						<g>
							<path class="st0" d="M6.2,34.3c-0.3-0.1,0.5-2.9,2.2-6c1.6-3.1,3-5.6,3.3-5.5c0.3,0.1-0.8,2.8-2.4,5.9
								C7.6,31.8,6.4,34.4,6.2,34.3z"/>
						</g>
					</g>
				</g>
			</g>
			<g>
				<g>
					<g>
						<g>
							<path class="st0" d="M18.5,28.3c0,0.2-2.3,0.2-4.6-1.3c-1.1-0.7-2-1.7-2.3-2.6c-0.4-0.8-0.3-1.4-0.2-1.5
								c0.1,0,0.3,0.5,0.8,1.1c0.5,0.6,1.2,1.4,2.3,2.1C16.5,27.5,18.6,28,18.5,28.3z"/>
						</g>
					</g>
				</g>
			</g>
		</g>
		<g>
			<g>
				<g>
					<path class="st0" d="M12.6,40.6c-1.2,0.9-2.9,0.6-3.8-0.7c-0.9-1.2-0.6-2.9,0.7-3.8c1.2-0.9,2.9-0.6,3.8,0.7
						C14.2,38.1,13.8,39.8,12.6,40.6z"/>
				</g>
			</g>
		</g>
		<g>
			<g>
				<g>
					<g>
						<path class="st0" d="M13.1,39.8c-0.3-0.1,0.5-2.9,2.2-6c1.6-3.1,3-5.6,3.3-5.5c0.3,0.1-0.8,2.8-2.4,5.9
							C14.5,37.3,13.4,39.9,13.1,39.8z"/>
					</g>
				</g>
			</g>
		</g>
		<g>
			<g>
				<g>
					<g>
						<path class="st0" d="M17.8,30c0,0.2-2.2,0.4-4.4-1c-2.2-1.3-3.2-3.3-2.9-3.4c0.2-0.2,1.4,1.4,3.4,2.6
							C15.9,29.4,17.8,29.7,17.8,30z"/>
					</g>
				</g>
			</g>
		</g>
	</g>
</g>
<g>
	<g>
		<g>
			<g>
				<g>
					<g>
						<path class="st0" d="M46.7,45.5c-0.4,0.2-0.8,0.1-1-0.2c-0.2-0.4-0.1-0.8,0.2-1c0.4-0.2,0.8-0.1,1,0.2
							C47.2,44.8,47.1,45.3,46.7,45.5z"/>
					</g>
				</g>
			</g>
			<g>
				<g>
					<g>
						<g>
							<path class="st0" d="M46.9,45.3c-0.1,0,0.2-0.8,0.7-1.6c0.5-0.8,0.9-1.5,1-1.5c0.1,0-0.3,0.8-0.8,1.6
								C47.3,44.6,46.9,45.3,46.9,45.3z"/>
						</g>
					</g>
				</g>
			</g>
			<g>
				<g>
					<g>
						<g>
							<path class="st0" d="M50.4,43.8c0,0.1-0.6,0-1.3-0.4c-0.3-0.2-0.5-0.5-0.6-0.7c-0.1-0.2-0.1-0.4,0-0.4c0,0,0.1,0.1,0.2,0.3
								c0.1,0.2,0.3,0.4,0.6,0.6C49.8,43.6,50.4,43.7,50.4,43.8z"/>
						</g>
					</g>
				</g>
			</g>
		</g>
		<g>
			<g>
				<g>
					<path class="st0" d="M48.5,47.1c-0.4,0.2-0.8,0.1-1-0.2c-0.2-0.4-0.1-0.8,0.2-1c0.4-0.2,0.8-0.1,1,0.2
						C49,46.5,48.9,46.9,48.5,47.1z"/>
				</g>
			</g>
		</g>
		<g>
			<g>
				<g>
					<g>
						<path class="st0" d="M48.7,46.9c-0.1,0,0.2-0.8,0.7-1.6c0.5-0.8,0.9-1.5,1-1.5c0.1,0-0.3,0.8-0.8,1.6
							C49.1,46.2,48.8,46.9,48.7,46.9z"/>
					</g>
				</g>
			</g>
		</g>
		<g>
			<g>
				<g>
					<g>
						<path class="st0" d="M50.1,44.3c0,0.1-0.6,0.1-1.2-0.3c-0.6-0.4-0.8-1-0.8-1c0.1,0,0.4,0.4,0.9,0.8
							C49.6,44.1,50.1,44.2,50.1,44.3z"/>
					</g>
				</g>
			</g>
		</g>
	</g>
</g>
<g>
	<g>
		<g>
			<g>
				<g>
					<g>
						<path class="st0" d="M39.7,61.4c-0.2,0.8-1,1.4-1.8,1.2c-0.8-0.2-1.4-1-1.2-1.8c0.2-0.8,1-1.4,1.8-1.2
							C39.3,59.7,39.9,60.5,39.7,61.4z"/>
					</g>
				</g>
			</g>
			<g>
				<g>
					<g>
						<g>
							<path class="st0" d="M39.6,60.8c-0.1,0.1-0.9-1.4-1.4-3.3c-0.5-1.9-0.9-3.4-0.8-3.5c0.1-0.1,0.8,1.4,1.3,3.3
								C39.2,59.3,39.7,60.8,39.6,60.8z"/>
						</g>
					</g>
				</g>
			</g>
			<g>
				<g>
					<g>
						<g>
							<path class="st0" d="M42.3,53.6c0.1,0.1-0.9,1-2.4,1.2c-0.8,0.1-1.5,0.1-1.9-0.1c-0.5-0.2-0.7-0.5-0.6-0.5
								c0.1-0.1,0.3,0.1,0.7,0.2c0.4,0.1,1.1,0.1,1.7,0C41.2,54.1,42.2,53.5,42.3,53.6z"/>
						</g>
					</g>
				</g>
			</g>
		</g>
		<g>
			<g>
				<g>
					<path class="st0" d="M44.6,60.9c-0.2,0.8-1,1.4-1.8,1.2c-0.8-0.2-1.4-1-1.2-1.8c0.2-0.8,1-1.4,1.8-1.2
						C44.3,59.3,44.8,60.1,44.6,60.9z"/>
				</g>
			</g>
		</g>
		<g>
			<g>
				<g>
					<g>
						<path class="st0" d="M44.5,60.4c-0.1,0.1-0.9-1.4-1.4-3.3c-0.5-1.9-0.9-3.4-0.8-3.5c0.1-0.1,0.8,1.4,1.3,3.3
							C44.1,58.8,44.6,60.3,44.5,60.4z"/>
					</g>
				</g>
			</g>
		</g>
		<g>
			<g>
				<g>
					<g>
						<path class="st0" d="M42.6,54.6c0.1,0.1-0.7,1-2.2,1.3c-1.4,0.3-2.6-0.1-2.5-0.3c0-0.2,1.1,0,2.4-0.3
							C41.6,55.1,42.5,54.5,42.6,54.6z"/>
					</g>
				</g>
			</g>
		</g>
	</g>
</g>
<g>
	<path class="st15" d="M72.9,84c0,0,4.7,25.4,5.9,27.3c1.3,1.9,4.8,7.2,8.9,6.7c4-0.5,6.4-4.7,6.9-8.6c0.5-3.9-3.1-17.6-3.1-17.6
		c-3.3-0.4-4.3,0.1-6.5,2.1L80.6,82L72.9,84z"/>
</g>
</svg>
