<?xml version="1.0" encoding="utf-8"?>
<!-- Generator: Adobe Illustrator 25.0.0, SVG Export Plug-In . SVG Version: 6.00 Build 0)  -->
<svg version="1.1" id="Layer_1" xmlns="http://www.w3.org/2000/svg" xmlns:xlink="http://www.w3.org/1999/xlink" x="0px" y="0px"
	 viewBox="0 0 130 160" style="enable-background:new 0 0 130 160;" xml:space="preserve">
<style type="text/css">
	.st0{fill:#D74340;}
	.st1{fill-rule:evenodd;clip-rule:evenodd;fill:#3B3B5E;}
	.st2{fill-rule:evenodd;clip-rule:evenodd;fill:#313842;}
	.st3{fill-rule:evenodd;clip-rule:evenodd;fill:#999999;}
	.st4{fill-rule:evenodd;clip-rule:evenodd;fill:#2B3052;}
	.st5{fill-rule:evenodd;clip-rule:evenodd;fill:#FFFFFF;}
	.st6{fill-rule:evenodd;clip-rule:evenodd;fill:url(#SVGID_1_);}
	.st7{fill-rule:evenodd;clip-rule:evenodd;fill:url(#SVGID_2_);}
	.st8{fill-rule:evenodd;clip-rule:evenodd;fill:#F2B771;}
	.st9{fill-rule:evenodd;clip-rule:evenodd;fill:#F7CF9E;}
	.st10{fill-rule:evenodd;clip-rule:evenodd;fill:#EEDABF;}
	.st11{fill-rule:evenodd;clip-rule:evenodd;fill:#EFB46E;}
	.st12{fill-rule:evenodd;clip-rule:evenodd;fill:#232744;}
	.st13{fill-rule:evenodd;clip-rule:evenodd;fill:#ECECE4;}
	.st14{fill-rule:evenodd;clip-rule:evenodd;fill:#D74340;}
	.st15{fill-rule:evenodd;clip-rule:evenodd;fill:#5B2F24;}
	.st16{fill-rule:evenodd;clip-rule:evenodd;fill:#233AC4;}
	.st17{fill-rule:evenodd;clip-rule:evenodd;fill:#3E4651;}
	.st18{fill-rule:evenodd;clip-rule:evenodd;fill:#6F7885;}
	.st19{fill-rule:evenodd;clip-rule:evenodd;fill:#464E59;}
	.st20{clip-path:url(#SVGID_4_);}
	.st21{clip-path:url(#SVGID_6_);fill:#FFFFFF;}
	.st22{clip-path:url(#SVGID_8_);fill:#D84440;}
	.st23{clip-path:url(#SVGID_10_);fill:#D84440;}
	.st24{clip-path:url(#SVGID_12_);fill:#D84440;}
	.st25{fill-rule:evenodd;clip-rule:evenodd;fill:#262C36;}
	.st26{fill-rule:evenodd;clip-rule:evenodd;fill:url(#SVGID_13_);}
	.st27{fill-rule:evenodd;clip-rule:evenodd;fill:#2C333D;}
	.st28{fill-rule:evenodd;clip-rule:evenodd;fill:#106299;}
	.st29{fill-rule:evenodd;clip-rule:evenodd;fill:#2DB78E;}
</style>
<path class="st0" d="M18.6,17.5c0,0,90.7,14.1,72.5,23.2s54,58.5,35.1,59.9c-18.8,1.2-26,14.1-6.5,23.1s-55,0.6-57.6-26.1
	c-2.6-26.7-21.7-42.8-40.3-56.9S-0.4,14.2,18.6,17.5z"/>
<g>
</g>
<path class="st0" d="M107.5,117.1"/>
<path class="st1" d="M71.6,68.6L71.6,68.6l0-0.7l6.7-6.3v-7.3l2.5-7.2c0-0.7-0.6-1.3-1.3-1.3h-1.3v-9.5V35v-2.6
	c0-2.2-1.8-3.9-3.9-3.9H60.4c-2.2,0-3.9,1.8-3.9,3.9v3.9l0,0v-2.9c0-1.6-1.3-2.9-2.9-2.9H50v4.7v1.1v9.5h-1.3
	c-0.7,0-1.3,0.6-1.3,1.3l2.5,7.2v7.3l6.7,6.3v0.7L31.5,80.9l-20.9,47h18.3l2.6-6.2v6.2h32.7h32.7v-6.2l2.6,6.2h18.3l-20.9-47
	L71.6,68.6z"/>
<g>
	<polygon class="st2" points="12.8,127.9 31.1,127.9 39.8,106.9 33.7,80.9 	"/>
	<g>
		<polygon class="st2" points="58.9,68.6 33.7,80.9 33.7,127.9 99.1,127.9 99.1,80.9 73.9,68.6 		"/>
		<polygon class="st3" points="58.9,78.6 66.4,112.8 73.9,78.6 73.9,68.6 58.9,68.6 		"/>
		<polygon class="st4" points="66.4,72 62.9,77 61.9,92 66.4,112.8 71,92 70,77 		"/>
		<polygon class="st2" points="73.8,78.8 66.4,112.8 66.4,127.9 99.1,127.9 99.1,80.9 73.9,68.6 		"/>
		<ellipse class="st3" cx="70.8" cy="123.7" rx="1.6" ry="1.6"/>
		<circle class="st3" cx="70.8" cy="115" r="1.6"/>
		<polygon class="st5" points="58.9,67.8 58.9,78.6 60.3,85 66.4,76.4 66.4,67.8 		"/>
		<radialGradient id="SVGID_1_" cx="57.6637" cy="90.7381" r="16.8025" gradientUnits="userSpaceOnUse">
			<stop  offset="0.245" style="stop-color:#333333"/>
			<stop  offset="0.7384" style="stop-color:#252525"/>
			<stop  offset="1" style="stop-color:#1C1C1C"/>
		</radialGradient>
		<polygon class="st6" points="58.9,68.6 54.5,70.8 48.9,81.6 56.6,89.3 52.1,91 66.4,112.8 58.9,78.6 		"/>
		<radialGradient id="SVGID_2_" cx="75.1684" cy="90.7381" r="16.8025" gradientUnits="userSpaceOnUse">
			<stop  offset="0.245" style="stop-color:#333333"/>
			<stop  offset="0.7384" style="stop-color:#252525"/>
			<stop  offset="1" style="stop-color:#1C1C1C"/>
		</radialGradient>
		<polygon class="st7" points="78.4,70.8 73.9,68.6 73.9,78.6 66.4,112.8 80.7,91 76.2,89.3 83.9,81.6 		"/>
		<polygon class="st5" points="66.4,76.4 72.5,85 73.9,78.6 73.9,67.8 66.4,67.8 		"/>
		<polygon class="st8" points="58.9,69.9 66.4,72 73.9,69.9 73.9,53.6 58.9,53.6 		"/>
		<polygon class="st9" points="52.3,49.4 52.3,61.6 59.5,68.4 66.4,67.8 73.4,68.4 80.5,61.6 80.5,49.4 80.5,36.4 52.3,36.4 		"/>
		<polyline class="st10" points="80.5,41.2 80.5,36.4 66.4,36.4 66.4,39 66.4,41.2 66.4,67.8 73.4,68.4 		"/>
		<polygon class="st11" points="66.4,55.3 66.4,44.2 63.9,53.6 		"/>
		<path class="st8" d="M49.8,47.2l2.5,7.2v-8.5H51C50.3,45.9,49.8,46.5,49.8,47.2z"/>
		<path class="st10" d="M81.8,45.9h-1.3v8.5l2.5-7.2C83,46.5,82.5,45.9,81.8,45.9z"/>
		<polygon class="st12" points="55.5,44.7 55.5,45.8 57.9,44.5 64.7,44.5 64.7,43.4 57.9,43.4 		"/>
		<polygon class="st4" points="68.1,43.4 68.1,44.5 74.9,44.5 77.3,45.8 77.3,44.7 74.9,43.4 		"/>
		<polygon class="st13" points="66.4,55.3 68.9,53.6 66.4,44.2 		"/>
		<path class="st5" d="M63.3,60.9c0,0.2,0.2,0.4,0.4,0.4h5.4c0.2,0,0.4-0.2,0.4-0.4v-0.4h-6.2L63.3,60.9L63.3,60.9z"/>
		<path class="st8" d="M65.1,62.8c0,0.2,0.2,0.3,0.3,0.3h1.9c0.2,0,0.3-0.2,0.3-0.3v-0.3h-2.5V62.8z"/>
		<path class="st4" d="M76.6,28.5H62.6c-2.2,0-3.9,1.8-3.9,3.9v3.9h17.5v3.6l1.9,2.2v3.9l2.4,2.8V36.4V35v-2.6
			C80.5,30.3,78.8,28.5,76.6,28.5z"/>
		<path class="st12" d="M55.8,30.6h-3.5v4.7v1.1V49l2.4-2.8v-3.9l1.9-2.2v-3.6h2.1v-2.9C58.7,31.9,57.4,30.6,55.8,30.6z"/>
		<path class="st5" d="M59.7,46.4c-1.5,0-2.5,1.1-2.7,1.9c1.5-0.4,5.6,0.4,6.9-0.6C64,46.3,61.2,46.4,59.7,46.4z"/>
		<path class="st4" d="M59.7,46.4c-0.2,0-0.4,0-0.6,0.1C59,46.6,59,46.8,59,47c0,0.5,0.3,1,0.7,1.3c0.5,0,1,0,1.5,0
			C61.7,48,62,47.5,62,47c0-0.2,0-0.4-0.1-0.5C61.1,46.4,60.3,46.4,59.7,46.4z"/>
		<path class="st5" d="M73.1,46.4c-1.5,0-4.2-0.1-4.2,1.3c1.4,1,5.5,0.2,6.9,0.6C75.6,47.5,74.5,46.4,73.1,46.4z"/>
		<path class="st4" d="M73.1,46.4c-0.6,0-1.4,0-2.1,0.1c-0.1,0.2-0.1,0.3-0.1,0.5c0,0.5,0.3,1,0.7,1.3c0.5,0,1,0,1.5,0
			c0.4-0.3,0.7-0.7,0.7-1.3c0-0.2,0-0.3-0.1-0.5C73.5,46.4,73.3,46.4,73.1,46.4z"/>
		<rect x="77.4" y="109.3" class="st12" width="16" height="2.9"/>
	</g>
	<polygon class="st2" points="93,106.9 101.7,127.9 120,127.9 99.1,80.9 	"/>
</g>
<rect y="125.3" class="st14" width="130" height="34.7"/>
<rect y="131" class="st15" width="130" height="23"/>
<g>
	<path class="st16" d="M66.4,84.2L66.4,84.2c-4.1,0-7.4,3.3-7.4,7.4v7.7c0,4.1,3.3,7.4,7.4,7.4l0,0c4.1,0,7.4-3.3,7.4-7.4v-7.7
		C73.8,87.6,70.5,84.2,66.4,84.2z"/>
	<path class="st17" d="M70,119.7h-7.2c-0.6,0-1.1,0.5-1.1,1.1v7.1h9.4v-7.1C71.1,120.2,70.6,119.7,70,119.7z"/>
	<path class="st18" d="M76.6,98.6l-9.1-8.3c-0.6-0.5-1.6-0.5-2.2,0l-9.1,8.2c-0.3,0.3-0.5,0.7-0.5,1.1l0,0v6.4h6.4l3.1,2.8
		c0.6,0.5,1.6,0.5,2.2,0l3.1-2.8H77v-6.4l0,0C77,99.3,76.9,98.9,76.6,98.6z"/>
	<path class="st17" d="M67.5,96.6c-0.6-0.5-1.6-0.5-2.2,0l-9.1,8.2c-0.6,0.6-0.6,1.4,0,2l9.1,8.3c0.6,0.5,1.6,0.5,2.2,0l9.1-8.2
		c0.6-0.6,0.6-1.4,0-2L67.5,96.6z"/>
	<path class="st2" d="M66.4,103.7c-2.3,0-4.2,1.9-4.2,4.2v4.4c0,2.3,1.9,4.2,4.2,4.2c2.3,0,4.2-1.9,4.2-4.2V108
		C70.7,105.6,68.8,103.7,66.4,103.7z"/>
	<path class="st18" d="M66.4,110.9c-1.6,0-2.8,1.3-2.8,2.8v3c0,1.6,1.3,2.8,2.8,2.8c1.6,0,2.8-1.3,2.8-2.8v-3
		C69.2,112.2,68,110.9,66.4,110.9z"/>
	<path class="st19" d="M66.4,113.2c-1.8,0-3.2,1.4-3.2,3.2v3.3c0,1.8,1.4,3.2,3.2,3.2c1.8,0,3.2-1.4,3.2-3.2v-3.3
		C69.6,114.6,68.2,113.2,66.4,113.2z"/>
</g>
<g>
	<g>
		<g>
			<defs>
				<rect id="SVGID_3_" x="55.8" y="131.9" width="20.3" height="21.1"/>
			</defs>
			<clipPath id="SVGID_4_">
				<use xlink:href="#SVGID_3_"  style="overflow:visible;"/>
			</clipPath>
			<g class="st20">
				<g>
					<defs>
						<rect id="SVGID_5_" x="55.8" y="131.9" width="20.3" height="21.1"/>
					</defs>
					<clipPath id="SVGID_6_">
						<use xlink:href="#SVGID_5_"  style="overflow:visible;"/>
					</clipPath>
					<path class="st21" d="M56.3,142.4c0-1.4,0-2.8,0-4.1c0-0.8,0.4-1.4,1.1-1.8c2.6-1.4,5.1-2.9,7.8-4.2c0.5-0.3,1.3-0.3,1.8,0
						c2.6,1.3,5.2,2.8,7.8,4.2c0.7,0.4,1.1,1,1.1,1.8c0,2.8,0,5.6,0,8.4c0,0.8-0.4,1.4-1.1,1.8c-2.5,1.4-5,2.8-7.5,4.1
						c-0.7,0.4-1.4,0.4-2.2,0c-2.5-1.4-5-2.8-7.5-4.1c-0.8-0.4-1.1-1-1.1-1.9C56.3,145.2,56.3,143.8,56.3,142.4"/>
				</g>
				<g>
					<defs>
						<rect id="SVGID_7_" x="55.8" y="131.9" width="20.3" height="21.1"/>
					</defs>
					<clipPath id="SVGID_8_">
						<use xlink:href="#SVGID_7_"  style="overflow:visible;"/>
					</clipPath>
					<path class="st22" d="M57.5,142.4c0-1.2,0-2.4,0-3.6c0-0.7,0.3-1.2,0.9-1.6c2.2-1.3,4.5-2.5,6.7-3.7c0.4-0.2,1.1-0.2,1.6,0
						c2.3,1.3,4.5,2.5,6.7,3.8c0.7,0.4,1,0.9,1,1.6c0,2.4,0,4.9,0,7.4c0,0.8-0.4,1.3-1,1.6c-2.2,1.2-4.3,2.4-6.5,3.6
						c-0.6,0.4-1.3,0.4-1.9,0c-2.2-1.2-4.3-2.4-6.6-3.6c-0.7-0.4-1-0.9-1-1.7C57.6,144.9,57.5,143.6,57.5,142.4 M58.5,142.5
						c0,1.1,0,2.2,0,3.3c0,0.6,0.2,0.9,0.7,1.2c2,1.1,4,2.3,6,3.3c0.4,0.2,1,0.2,1.3,0c2-1.1,4-2.2,6-3.3c0.5-0.3,0.7-0.7,0.7-1.2
						c0-2.2,0-4.4,0-6.6c0-0.6-0.3-1-0.8-1.3c-2-1.1-3.9-2.2-5.9-3.3c-0.5-0.3-1-0.3-1.4,0c-2,1.1-4,2.2-6,3.3
						c-0.5,0.3-0.7,0.6-0.7,1.2C58.6,140.2,58.5,141.4,58.5,142.5"/>
				</g>
				<g>
					<defs>
						<rect id="SVGID_9_" x="55.8" y="131.9" width="20.3" height="21.1"/>
					</defs>
					<clipPath id="SVGID_10_">
						<use xlink:href="#SVGID_9_"  style="overflow:visible;"/>
					</clipPath>
					<polygon class="st23" points="61.6,140 61.6,142.7 66,139 70.4,142.7 70.4,140 66,136.3 					"/>
				</g>
				<g>
					<defs>
						<rect id="SVGID_11_" x="55.8" y="131.9" width="20.3" height="21.1"/>
					</defs>
					<clipPath id="SVGID_12_">
						<use xlink:href="#SVGID_11_"  style="overflow:visible;"/>
					</clipPath>
					<rect x="64.9" y="138.4" class="st24" width="2.2" height="9.7"/>
				</g>
			</g>
		</g>
	</g>
</g>
<g>
	<g>
		<path class="st25" d="M31.4,111.3c-1,0-1.8,0.9-1.8,1.9v6.7c0,1.1,0.8,1.9,1.8,1.9s1.8-0.9,1.8-1.9v-6.7
			C33.2,112.2,32.4,111.3,31.4,111.3z"/>
		<path class="st17" d="M34.7,119.7h-6.5c-0.6,0-1,0.5-1,1.1v7.1h8.5v-7.1C35.7,120.2,35.2,119.7,34.7,119.7z"/>
		
			<radialGradient id="SVGID_13_" cx="33.1713" cy="96.6659" r="8.7605" gradientTransform="matrix(0.9026 0 0 1 6.4695 0)" gradientUnits="userSpaceOnUse">
			<stop  offset="0.245" style="stop-color:#333333"/>
			<stop  offset="0.7384" style="stop-color:#252525"/>
			<stop  offset="1" style="stop-color:#1C1C1C"/>
		</radialGradient>
		<path class="st26" d="M30.9,92l-1.3,3.6c-3.4,9.1,9,14.8,12.4,5.7l1.3-3.6C46.7,88.6,34.3,82.9,30.9,92z"/>
		<ellipse class="st25" cx="34.7" cy="101.4" rx="3.1" ry="3.4"/>
		<path class="st18" d="M35.5,99.2L35.5,99.2c-1.3-0.6-2.8,0.1-3.3,1.5l-2.7,7.1c-0.5,1.4,0.1,3.1,1.4,3.7l0,0
			c1.3,0.6,2.8-0.1,3.3-1.5l2.6-7.1C37.4,101.4,36.8,99.8,35.5,99.2z"/>
		<path class="st2" d="M33.4,104.8L33.4,104.8c-1.9-0.9-4.2,0.1-5,2.3l-1.5,4.1c-0.8,2.2,0.1,4.7,2.1,5.5l0,0c1.9,0.9,4.2-0.1,5-2.3
			l1.5-4.1C36.2,108.2,35.3,105.7,33.4,104.8z"/>
		<path class="st18" d="M30.9,111.5c-1.3-0.6-2.8,0.1-3.3,1.5l-1,2.7c-0.5,1.4,0.1,3.1,1.4,3.7c1.3,0.6,2.8-0.1,3.3-1.5l1-2.7
			C32.8,113.7,32.2,112.1,30.9,111.5z"/>
		<path class="st19" d="M30.1,113.6L30.1,113.6c-1.5-0.7-3.2,0.1-3.8,1.7l-1.2,3.1c-0.6,1.6,0.1,3.5,1.6,4.2
			c1.5,0.7,3.2-0.1,3.8-1.7l1.2-3.1C32.3,116.1,31.6,114.2,30.1,113.6z"/>
		<path class="st27" d="M31.4,113.1c0,1.3,0.3,2.5,0.9,3.5c0.7-0.5,1.3-1.2,1.7-2.1l1.5-4.1c0.4-1.1,0.4-2.3,0-3.3
			C33.1,107.5,31.4,110,31.4,113.1z"/>
	</g>
	<g>
		<path class="st25" d="M101.4,111.3c-1,0-1.8,0.9-1.8,1.9v6.7c0,1.1,0.8,1.9,1.8,1.9c1,0,1.8-0.9,1.8-1.9v-6.7
			C103.2,112.2,102.4,111.3,101.4,111.3z"/>
		<path class="st17" d="M104.7,119.7h-6.5c-0.6,0-1,0.5-1,1.1v7.1h8.5v-7.1C105.7,120.2,105.2,119.7,104.7,119.7z"/>
		<path class="st28" d="M101.9,92c-3.4-9.1-15.8-3.4-12.4,5.7l1.3,3.6c3.4,9.1,15.8,3.4,12.4-5.7L101.9,92z"/>
		<ellipse class="st25" cx="98.2" cy="101.4" rx="3.1" ry="3.4"/>
		<path class="st18" d="M100.7,100.7c-0.5-1.4-2-2.1-3.3-1.5c-1.3,0.6-1.9,2.3-1.4,3.7l2.6,7.1c0.5,1.4,2,2.1,3.3,1.5l0,0
			c1.3-0.6,1.9-2.3,1.4-3.7L100.7,100.7z"/>
		<path class="st2" d="M104.5,107.1c-0.8-2.2-3.1-3.2-5-2.3l0,0c-1.9,0.9-2.9,3.4-2.1,5.5l1.5,4.1c0.8,2.2,3.1,3.2,5,2.3l0,0
			c1.9-0.9,2.9-3.4,2.1-5.5L104.5,107.1z"/>
		<path class="st18" d="M105.3,113c-0.5-1.4-2-2.1-3.3-1.5c-1.3,0.6-1.9,2.3-1.4,3.7l1,2.7c0.5,1.4,2,2.1,3.3,1.5
			c1.3-0.6,1.9-2.3,1.4-3.7L105.3,113z"/>
		<path class="st19" d="M106.5,115.3c-0.6-1.6-2.3-2.4-3.8-1.7l0,0c-1.5,0.7-2.2,2.6-1.6,4.2l1.2,3.1c0.6,1.6,2.3,2.4,3.8,1.7
			c1.5-0.7,2.2-2.6,1.6-4.2L106.5,115.3z"/>
		<path class="st27" d="M97.4,107.1c-0.4,1-0.4,2.2,0,3.3l1.5,4.1c0.3,0.9,0.9,1.6,1.7,2.1c0.5-1,0.9-2.2,0.9-3.5
			C101.4,110,99.7,107.5,97.4,107.1z"/>
	</g>
</g>
<g>
	<g>
		<path class="st25" d="M9.1,111.3c-0.8,0-1.4,0.9-1.4,1.9v6.8c0,1.1,0.7,1.9,1.4,1.9c0.8,0,1.4-0.9,1.4-1.9v-6.8
			C10.6,112.1,9.9,111.3,9.1,111.3z"/>
		<path class="st17" d="M11.8,119.7H6.5c-0.5,0-0.8,0.5-0.8,1.1v7.1h7v-7.1C12.6,120.2,12.3,119.7,11.8,119.7z"/>
		<path class="st29" d="M16.7,88.2l-6.4,8.6c-5.2,7,3,15.6,7.1,7.5l5-9.9C25.7,88,20.4,83.2,16.7,88.2z"/>
		<ellipse class="st25" cx="12.6" cy="102.9" rx="2.6" ry="3.4"/>
		<path class="st18" d="M13.7,101L13.7,101c-0.9-0.9-2.3-0.7-3,0.6l-3.4,6.1c-0.7,1.3-0.5,3,0.4,4l0,0c0.9,0.9,2.3,0.7,3-0.6
			l3.4-6.1C14.8,103.7,14.6,101.9,13.7,101z"/>
		<path class="st2" d="M11,105.9L11,105.9c-1.4-1.4-3.4-1-4.4,0.9l-2,3.6c-1,1.9-0.7,4.6,0.7,5.9l0,0c1.4,1.4,3.4,1,4.4-0.9l2-3.6
			C12.6,110,12.4,107.3,11,105.9z"/>
		<path class="st18" d="M7.8,111.7L7.8,111.7c-0.9-0.9-2.3-0.7-3,0.6l-1.3,2.4c-0.7,1.3-0.5,3,0.4,4l0,0c0.9,0.9,2.3,0.7,3-0.6
			l1.3-2.4C8.9,114.4,8.7,112.6,7.8,111.7z"/>
		<path class="st19" d="M6.8,113.5L6.8,113.5c-1.1-1.1-2.6-0.8-3.3,0.7l-1.5,2.7c-0.8,1.4-0.6,3.4,0.5,4.5l0,0
			c1.1,1.1,2.6,0.8,3.3-0.7l1.5-2.7C8,116.6,7.8,114.6,6.8,113.5z"/>
		<path class="st27" d="M7.9,113.4c-0.2,1.3-0.2,2.5,0.1,3.6c0.7-0.2,1.3-0.8,1.7-1.6l2-3.6c0.5-0.9,0.7-2.1,0.6-3.2
			C10.3,108.5,8.4,110.4,7.9,113.4z"/>
	</g>
	<g>
		<path class="st25" d="M122.3,111.3c-0.8,0-1.4,0.9-1.4,1.9v6.8c0,1.1,0.7,1.9,1.4,1.9c0.8,0,1.4-0.9,1.4-1.9v-6.8
			C123.8,112.1,123.1,111.3,122.3,111.3z"/>
		<path class="st17" d="M125,119.7h-5.4c-0.5,0-0.8,0.5-0.8,1.1v7.1h7v-7.1C125.8,120.2,125.4,119.7,125,119.7z"/>
		<path class="st2" d="M114.8,88.2c-3.7-5-9-0.3-5.8,6.1l5,9.9c4.1,8.1,12.3-0.5,7.1-7.5L114.8,88.2z"/>
		<ellipse class="st25" cx="118.8" cy="102.9" rx="2.6" ry="3.4"/>
		<path class="st18" d="M120.7,101.6c-0.7-1.3-2-1.5-3-0.6l0,0c-0.9,0.9-1.1,2.7-0.4,4l3.4,6.1c0.7,1.3,2,1.5,3,0.6l0,0
			c0.9-0.9,1.1-2.7,0.4-4L120.7,101.6z"/>
		<path class="st2" d="M124.9,106.8c-1-1.9-3-2.3-4.4-0.9c-1.4,1.4-1.7,4.1-0.7,5.9l2,3.6c1,1.9,3,2.3,4.4,0.9l0,0
			c1.4-1.4,1.7-4.1,0.7-5.9L124.9,106.8z"/>
		<path class="st18" d="M126.6,112.3c-0.7-1.3-2-1.5-3-0.6c-0.9,0.9-1.1,2.7-0.4,4l1.3,2.4c0.7,1.3,2,1.5,3,0.6l0,0
			c0.9-0.9,1.1-2.7,0.4-4L126.6,112.3z"/>
		<path class="st19" d="M128.1,114.2c-0.8-1.4-2.3-1.7-3.3-0.7l0,0c-1.1,1.1-1.3,3.1-0.5,4.5l1.5,2.7c0.8,1.4,2.3,1.7,3.3,0.7l0,0
			c1.1-1.1,1.3-3.1,0.5-4.5L128.1,114.2z"/>
		<path class="st27" d="M119.3,108.6c-0.1,1.1,0.1,2.3,0.6,3.2l2,3.6c0.4,0.8,1,1.3,1.7,1.6c0.3-1.1,0.3-2.4,0.1-3.6
			C123,110.4,121.2,108.5,119.3,108.6z"/>
	</g>
</g>
</svg>
