<?xml version="1.0" encoding="utf-8"?>
<!-- Generator: Adobe Illustrator 25.0.0, SVG Export Plug-In . SVG Version: 6.00 Build 0)  -->
<svg version="1.1" id="Layer_1" xmlns="http://www.w3.org/2000/svg" xmlns:xlink="http://www.w3.org/1999/xlink" x="0px" y="0px"
	 viewBox="0 0 1500 1500" style="enable-background:new 0 0 1500 1500;" xml:space="preserve">
<style type="text/css">
	.st0{fill:none;stroke:#FFFFFF;stroke-width:100;stroke-miterlimit:10;}
	.st1{fill:#2C2F33;}
	.st2{fill:#D84440;stroke:#D84440;stroke-width:9;stroke-miterlimit:10;}
	.st3{fill:#53B67B;stroke:#53B67B;stroke-width:5;stroke-miterlimit:10;}
	.st4{fill:#53B67B;}
</style>
<g>
	<path d="M-285.9-276.2"/>
	<path class="st0" d="M-285.9-276.2"/>
</g>
<g>
	<g>
		<path class="st1" d="M726.8,847.7c0,13.2,10.9,24.1,24.1,24.1s24.1-10.9,24.1-24.1v-73.6h410.6v73.6c0,13.2,10.9,24.1,24.1,24.1
			c13.2,0,24.1-10.9,24.1-24.1V750c0-13.2-10.9-24.1-24.1-24.1H774.8v-73.6c0-13.2-10.9-24.1-24.1-24.1c-13.2,0-24.1,10.9-24.1,24.1
			v73.6H290.3c-13.2,0-24.1,10.9-24.1,24.1v97.7c0,13.2,10.9,24.1,24.1,24.1c13.2,0,24.1-10.9,24.1-24.1v-73.6h412.4V847.7z"/>
	</g>
</g>
<g>
	<g>
		<g>
			<path class="st2" d="M623.8,187.8c0,34.2,13.4,73.6,35.7,105.5c25.4,36.2,57.5,56.1,90.4,56.1c32.9,0,65-19.9,90.4-56.1
				c22.4-31.9,35.7-71.3,35.7-105.5c0-69.6-56.6-126.2-126.2-126.2S623.8,118.2,623.8,187.8z M750,83.5
				c57.5,0,104.3,46.8,104.3,104.3c0,29.4-12.2,65-31.8,92.9c-20.9,29.7-47.3,46.8-72.5,46.8s-51.6-17.1-72.5-46.8
				c-19.6-27.9-31.8-63.5-31.8-92.9C645.7,130.3,692.5,83.5,750,83.5z"/>
			<path class="st2" d="M844.2,324.9c-4.2-2-9.2-1.1-12.4,2.1c-24.5,24.4-52.8,37.4-81.7,37.4c-29,0-57.2-12.9-81.7-37.4
				c-3.3-3.3-8.3-4.1-12.4-2.1c-36.9,17.6-68.1,45-90.3,79.5c-22.8,35.4-34.8,76.4-34.8,118.6v0.2c0,3.1,1.3,6,3.6,8.1
				c59.2,53.6,135.7,83.2,215.7,83.2s156.5-29.5,215.7-83.2c2.3-2.1,3.6-5,3.6-8.1V523c0-42.2-12-83.3-34.8-118.6
				C912.3,370,881.1,342.5,844.2,324.9z M750,592.6c-72.8,0-142.7-26.3-197.3-74.3c0.9-36.4,11.6-71.6,31.3-102.1
				c18.6-28.9,44.3-52.3,74.6-68.2c27.4,25.1,58.9,38.3,91.4,38.3c32.6,0,64-13.2,91.4-38.3c30.3,15.9,56,39.3,74.6,68.2
				c19.7,30.5,30.4,65.7,31.3,102.1C892.7,566.2,822.8,592.6,750,592.6z"/>
		</g>
	</g>
</g>
<g>
	<g>
		<g>
			<path class="st3" d="M622.6,1010.3c0,35.4,13.8,76.2,37,109.1c26.3,37.5,59.5,58.1,93.6,58.1c34.1,0,67.3-20.6,93.6-58.1
				c23.2-33,37-73.8,37-109.1c0-72-58.6-130.5-130.5-130.5S622.6,938.3,622.6,1010.3z M753.2,902.4c59.5,0,107.9,48.4,107.9,107.9
				c0,30.4-12.6,67.2-32.9,96.1c-21.6,30.8-48.9,48.4-75,48.4c-26.1,0-53.4-17.7-75-48.4c-20.3-28.9-32.9-65.7-32.9-96.1
				C645.3,950.8,693.7,902.4,753.2,902.4z"/>
			<path class="st3" d="M850.6,1152.2c-4.3-2.1-9.5-1.2-12.9,2.2c-25.4,25.3-54.6,38.6-84.5,38.6c-30,0-59.2-13.4-84.5-38.6
				c-3.4-3.4-8.6-4.3-12.9-2.2c-38.2,18.2-70.5,46.6-93.4,82.2c-23.6,36.6-36,79-36,122.7v0.2c0,3.2,1.4,6.2,3.7,8.4
				c61.2,55.5,140.4,86.1,223.1,86.1s161.9-30.6,223.1-86.1c2.4-2.1,3.7-5.2,3.7-8.4v-0.2c0-43.7-12.5-86.1-36-122.7
				C921,1198.8,888.7,1170.4,850.6,1152.2z M753.2,1429.1c-75.4,0-147.6-27.2-204.1-76.8c0.9-37.6,12-74,32.4-105.6
				c19.3-29.9,45.8-54.1,77.2-70.5c28.3,25.9,60.9,39.6,94.6,39.6c33.7,0,66.3-13.7,94.6-39.6c31.3,16.4,57.9,40.7,77.2,70.5
				c20.3,31.6,31.5,68,32.4,105.6C900.8,1401.9,828.5,1429.1,753.2,1429.1z"/>
			<path class="st3" d="M520.1,1321.3C520.4,1321.9,519.8,1320.6,520.1,1321.3L520.1,1321.3z"/>
		</g>
	</g>
</g>
<g>
	<g>
		<g>
			<path class="st4" d="M1111.7,973.9c0,26.6,10.4,57.2,27.8,82c19.7,28.1,44.7,43.6,70.3,43.6c25.6,0,50.5-15.5,70.3-43.6
				c17.4-24.8,27.8-55.4,27.8-82c0-54.1-44-98-98-98S1111.7,919.8,1111.7,973.9z M1209.7,892.9c44.7,0,81,36.3,81,81
				c0,22.8-9.5,50.5-24.7,72.2c-16.2,23.1-36.8,36.4-56.3,36.4c-19.6,0-40.1-13.3-56.3-36.4c-15.2-21.7-24.7-49.4-24.7-72.2
				C1128.7,929.2,1165,892.9,1209.7,892.9z"/>
			<path class="st4" d="M1282.9,1080.5c-3.2-1.5-7.1-0.9-9.7,1.7c-19,19-41,29-63.5,29c-22.5,0-44.5-10-63.5-29
				c-2.5-2.5-6.4-3.2-9.7-1.7c-28.7,13.6-52.9,35-70.2,61.7c-17.7,27.5-27.1,59.3-27.1,92.2v0.1c0,2.4,1,4.7,2.8,6.3
				c46,41.7,105.5,64.6,167.6,64.6s121.6-23,167.6-64.6c1.8-1.6,2.8-3.9,2.8-6.3v-0.1c0-32.8-9.4-64.7-27.1-92.2
				C1335.8,1115.5,1311.5,1094.1,1282.9,1080.5z M1209.7,1288.4c-56.6,0-110.9-20.5-153.3-57.7c0.7-28.3,9-55.6,24.3-79.3
				c14.5-22.4,34.4-40.7,58-53c21.3,19.5,45.7,29.7,71,29.7c25.3,0,49.8-10.3,71.1-29.7c23.5,12.3,43.5,30.5,58,53
				c15.3,23.7,23.6,51,24.3,79.3C1320.6,1268,1266.3,1288.4,1209.7,1288.4z"/>
			<path class="st4" d="M1034.6,1207.4C1034.9,1207.9,1034.4,1206.9,1034.6,1207.4L1034.6,1207.4z"/>
		</g>
	</g>
</g>
<g>
	<g>
		<g>
			<path class="st4" d="M193.6,973.9c0,26.6,10.4,57.2,27.8,82c19.7,28.1,44.7,43.6,70.3,43.6c25.6,0,50.5-15.5,70.3-43.6
				c17.4-24.8,27.8-55.4,27.8-82c0-54.1-44-98-98-98S193.6,919.8,193.6,973.9z M291.6,892.9c44.7,0,81,36.3,81,81
				c0,22.8-9.5,50.5-24.7,72.2c-16.2,23.1-36.8,36.4-56.3,36.4c-19.6,0-40.1-13.3-56.3-36.4c-15.2-21.7-24.7-49.4-24.7-72.2
				C210.6,929.2,246.9,892.9,291.6,892.9z"/>
			<path class="st4" d="M364.8,1080.5c-3.2-1.5-7.1-0.9-9.7,1.7c-19,19-41,29-63.5,29c-22.5,0-44.5-10-63.5-29
				c-2.5-2.5-6.4-3.2-9.7-1.7c-28.7,13.6-52.9,35-70.2,61.7c-17.7,27.5-27.1,59.3-27.1,92.2v0.1c0,2.4,1,4.7,2.8,6.3
				c46,41.7,105.5,64.6,167.6,64.6s121.6-23,167.6-64.6c1.8-1.6,2.8-3.9,2.8-6.3v-0.1c0-32.8-9.4-64.7-27.1-92.2
				C417.7,1115.5,393.4,1094.1,364.8,1080.5z M291.6,1288.4c-56.6,0-110.9-20.5-153.3-57.7c0.7-28.3,9-55.6,24.3-79.3
				c14.5-22.4,34.4-40.7,58-53c21.3,19.5,45.7,29.7,71,29.7c25.3,0,49.8-10.3,71.1-29.7c23.5,12.3,43.5,30.5,58,53
				c15.3,23.7,23.6,51,24.3,79.3C402.5,1268,348.2,1288.4,291.6,1288.4z"/>
			<path class="st4" d="M116.5,1207.4C116.8,1207.9,116.3,1206.9,116.5,1207.4L116.5,1207.4z"/>
		</g>
	</g>
</g>
</svg>
