<?xml version="1.0" encoding="utf-8"?>
<!-- Generator: Adobe Illustrator 25.0.0, SVG Export Plug-In . SVG Version: 6.00 Build 0)  -->
<svg version="1.1" id="Layer_1" xmlns="http://www.w3.org/2000/svg" xmlns:xlink="http://www.w3.org/1999/xlink" x="0px" y="0px"
	 viewBox="0 0 1500 1500" style="enable-background:new 0 0 1500 1500;" xml:space="preserve">
<style type="text/css">
	.st0{fill:none;stroke:#FFFFFF;stroke-width:100;stroke-miterlimit:10;}
	.st1{fill:#D84440;}
</style>
<g>
	<path d="M1349.5,1328.5"/>
	<path class="st0" d="M1349.5,1328.5"/>
</g>
<g>
	<g>
		<circle class="st1" cx="739.9" cy="750.5" r="87.1"/>
		<path class="st1" d="M739.9,84.8c-367.7,0-665.7,298.1-665.7,665.7s298.1,665.7,665.7,665.7s665.7-298.1,665.7-665.7
			S1107.6,84.8,739.9,84.8z M486,250.3c76.2-38.7,162.5-60.6,253.8-60.6c5.4,0,10.7,0.1,16,0.2c8.8,0.2,14.9,22.2,13.6,48.7
			l-6.8,136.6c-1.3,26.5-7,47.8-12.6,47.6c-3.4-0.1-6.8-0.1-10.2-0.1c-48.1,0-93.7,10.3-134.8,28.9c-24.2,10.9-53.2,4.4-66.7-18.5
			l-69.7-117.8C455.1,292.5,462.3,262.4,486,250.3z M458.8,500.9l-102.9-90c-20-17.5-22.1-48-2.9-66.3c0.5-0.4,0.9-0.8,1.4-1.3
			c19.3-18.3,49.5-14.6,65.9,6.4l84.1,107.9c16.3,21,20.1,45.5,9.4,55.7C503,523.5,478.8,518.4,458.8,500.9z M504.3,750.5
			c0-130.1,105.5-235.6,235.6-235.6s235.6,105.5,235.6,235.6S870,986.1,739.9,986.1S504.3,880.6,504.3,750.5z M992.6,1251.2
			c-75.9,38.4-161.8,60-252.7,60c-6,0-11.9-0.1-17.8-0.3c-9.8-0.3-16.7-22.4-15.2-48.9l7.5-136.6c1.5-26.5,7.7-47.7,14.1-47.5
			c3.8,0.1,7.6,0.2,11.5,0.2c44.1,0,86.2-8.7,124.6-24.5c24.6-10.1,54.7-3.5,69.2,18.8l74.6,114.8
			C1022.8,1209.6,1016.3,1239.2,992.6,1251.2z M1123.7,1159.3c-18.4,17.3-48.2,13.3-65-7.3l-86.4-106
			c-16.8-20.6-21.1-44.5-10.5-54.3c10.6-9.8,34.7-4.3,54.7,13.2l103,90.1C1139.6,1112.5,1142.2,1142,1123.7,1159.3z"/>
	</g>
</g>
</svg>
