<?xml version="1.0" encoding="utf-8"?>
<!-- Generator: Adobe Illustrator 25.0.0, SVG Export Plug-In . SVG Version: 6.00 Build 0)  -->
<svg version="1.1" id="Layer_1" xmlns="http://www.w3.org/2000/svg" xmlns:xlink="http://www.w3.org/1999/xlink" x="0px" y="0px"
	 viewBox="0 0 130 160" style="enable-background:new 0 0 130 160;" xml:space="preserve">
<style type="text/css">
	.st0{fill:#D74340;}
	.st1{fill:#2DB78E;}
	.st2{fill:#FFC545;stroke:#213278;stroke-linecap:round;stroke-linejoin:round;stroke-miterlimit:10;}
	.st3{fill:none;stroke:#FFFFFF;stroke-linecap:round;stroke-linejoin:round;stroke-miterlimit:10;}
	.st4{fill:#213278;stroke:#213278;stroke-linecap:round;stroke-linejoin:round;stroke-miterlimit:10;}
	.st5{fill:none;stroke:#FFFFFF;stroke-linecap:round;stroke-linejoin:round;stroke-miterlimit:10;stroke-dasharray:22,0,1,2,0;}
	.st6{fill:#4667D2;}
	.st7{fill:none;stroke:#213278;stroke-linecap:round;stroke-linejoin:round;stroke-miterlimit:10;}
	.st8{clip-path:url(#XMLID_17_);fill:#213278;stroke:#213278;stroke-linecap:round;stroke-linejoin:round;stroke-miterlimit:10;}
	.st9{clip-path:url(#XMLID_18_);fill:#213278;stroke:#213278;stroke-linecap:round;stroke-linejoin:round;stroke-miterlimit:10;}
	.st10{fill:#3D53B0;stroke:#213278;stroke-linecap:round;stroke-linejoin:round;stroke-miterlimit:10;}
	.st11{clip-path:url(#XMLID_19_);fill:#213278;stroke:#213278;stroke-linecap:round;stroke-linejoin:round;stroke-miterlimit:10;}
	.st12{fill:none;stroke:#3D53B0;stroke-linecap:round;stroke-linejoin:round;stroke-miterlimit:10;}
	.st13{fill:#FFFFFF;stroke:#213278;stroke-linecap:round;stroke-linejoin:round;stroke-miterlimit:10;}
	.st14{fill:none;stroke:#81AAFF;stroke-linecap:round;stroke-linejoin:round;stroke-miterlimit:10;}
	.st15{fill:#4667D2;stroke:#213278;stroke-linecap:round;stroke-linejoin:round;stroke-miterlimit:10;}
	.st16{fill:#3D53B0;}
	.st17{fill:#FFFFFF;}
	.st18{font-family:'UbuntuTitling-Bold';}
	.st19{font-size:3.0764px;}
	.st20{fill:#213278;}
	.st21{clip-path:url(#SVGID_2_);fill:#D74340;}
	.st22{clip-path:url(#SVGID_4_);}
	.st23{fill:#231F20;}
	.st24{fill:#FEBDA9;}
	.st25{fill:#EA9FB9;}
	.st26{fill:#1D174E;}
	.st27{fill:#F59C97;}
	.st28{fill:#D0D2D3;}
	.st29{fill:#404041;}
	.st30{fill:#F1F1F2;}
	.st31{fill:#121112;}
	.st32{fill:#F38D8B;}
	.st33{fill:#F9AD9B;}
	.st34{fill:#FACACA;}
	.st35{fill:#EEBAB9;}
	.st36{fill:#EE7475;}
	.st37{clip-path:url(#SVGID_6_);}
	.st38{fill:#354789;}
	.st39{clip-path:url(#SVGID_8_);fill:#231F20;}
	.st40{fill:#FF856C;}
	.st41{fill:#D1D3D4;}
	.st42{clip-path:url(#SVGID_10_);}
	.st43{clip-path:url(#SVGID_12_);fill:#FFFFFF;}
	.st44{clip-path:url(#SVGID_14_);fill:#D84440;}
	.st45{clip-path:url(#SVGID_16_);fill:#D84440;}
	.st46{clip-path:url(#SVGID_18_);fill:#D84440;}
	.st47{clip-path:url(#SVGID_20_);}
	.st48{clip-path:url(#SVGID_22_);fill:#FFFFFF;}
	.st49{clip-path:url(#SVGID_24_);fill:#D84440;}
	.st50{clip-path:url(#SVGID_26_);fill:#D84440;}
	.st51{clip-path:url(#SVGID_28_);fill:#D84440;}
</style>
<path class="st0" d="M33.2,15c0,0,79.1,46.5,58.9,48.2s28.7,74.3,10.6,68.6c-18-5.8-29.3,3.5-14.6,19.1s-51.4-19.8-43.9-45.5
	s-4.4-47.8-16.6-67.7S16.8,5,33.2,15z"/>
<g>
	
		<image style="overflow:visible;opacity:0.6;" width="167" height="116" xlink:href="FE48C5DF35A71A30.png"  transform="matrix(1 0 0 1 -15 14)">
	</image>
	<g>
		<g>
			<g>
				<g>
					<g>
						<g>
							<g>
								<g>
									<defs>
										<path id="XMLID_129_" d="M37.5,64.3h26.9c0,0-0.8,7.9-13.5,7.9C38.3,72.2,37.5,64.3,37.5,64.3z"/>
									</defs>
									<clipPath id="XMLID_5_">
										<use xlink:href="#XMLID_129_"  style="overflow:visible;"/>
									</clipPath>
								</g>
							</g>
							<g>
								<g>
									<defs>
										<path id="XMLID_128_" d="M99.4,64.3h26.9c0,0-0.8,7.9-13.5,7.9C100.2,72.2,99.4,64.3,99.4,64.3z"/>
									</defs>
									<clipPath id="XMLID_6_">
										<use xlink:href="#XMLID_128_"  style="overflow:visible;"/>
									</clipPath>
								</g>
							</g>
							<g>
								<defs>
									<path id="XMLID_127_" d="M82.9,35.4c1.1-0.4,1.8-1.5,1.8-2.7c0-1.6-1.3-2.9-2.9-2.9c-1.6,0-2.9,1.3-2.9,2.9
										c0,1.2,0.8,2.3,1.8,2.7c-2.4,13.9-7.6,48.7,1,48.7S85.4,49.3,82.9,35.4z"/>
								</defs>
								<clipPath id="XMLID_7_">
									<use xlink:href="#XMLID_127_"  style="overflow:visible;"/>
								</clipPath>
							</g>
						</g>
						<g>
							<g>
								<g>
									<defs>
										<path id="XMLID_126_" d="M37.5,64.3h26.9c0,0-0.8,7.9-13.5,7.9C38.3,72.2,37.5,64.3,37.5,64.3z"/>
									</defs>
									<clipPath id="XMLID_8_">
										<use xlink:href="#XMLID_126_"  style="overflow:visible;"/>
									</clipPath>
								</g>
							</g>
							<g>
								<g>
									<defs>
										<path id="XMLID_125_" d="M99.4,64.3h26.9c0,0-0.8,7.9-13.5,7.9C100.2,72.2,99.4,64.3,99.4,64.3z"/>
									</defs>
									<clipPath id="XMLID_9_">
										<use xlink:href="#XMLID_125_"  style="overflow:visible;"/>
									</clipPath>
								</g>
							</g>
							<g>
								<defs>
									<path id="XMLID_124_" d="M82.9,35.4c1.1-0.4,1.8-1.5,1.8-2.7c0-1.6-1.3-2.9-2.9-2.9c-1.6,0-2.9,1.3-2.9,2.9
										c0,1.2,0.8,2.3,1.8,2.7c-2.4,13.9-7.6,48.7,1,48.7S85.4,49.3,82.9,35.4z"/>
								</defs>
								<clipPath id="XMLID_10_">
									<use xlink:href="#XMLID_124_"  style="overflow:visible;"/>
								</clipPath>
							</g>
						</g>
						<g>
							<g>
								<g>
									<defs>
										<path id="XMLID_123_" d="M37.5,64.3h26.9c0,0-0.8,7.9-13.5,7.9C38.3,72.2,37.5,64.3,37.5,64.3z"/>
									</defs>
									<clipPath id="XMLID_11_">
										<use xlink:href="#XMLID_123_"  style="overflow:visible;"/>
									</clipPath>
								</g>
							</g>
							<g>
								<g>
									<defs>
										<path id="XMLID_122_" d="M99.4,64.3h26.9c0,0-0.8,7.9-13.5,7.9C100.2,72.2,99.4,64.3,99.4,64.3z"/>
									</defs>
									<clipPath id="XMLID_12_">
										<use xlink:href="#XMLID_122_"  style="overflow:visible;"/>
									</clipPath>
								</g>
							</g>
							<g>
								<defs>
									<path id="XMLID_121_" d="M82.9,35.4c1.1-0.4,1.8-1.5,1.8-2.7c0-1.6-1.3-2.9-2.9-2.9c-1.6,0-2.9,1.3-2.9,2.9
										c0,1.2,0.8,2.3,1.8,2.7c-2.4,13.9-7.6,48.7,1,48.7S85.4,49.3,82.9,35.4z"/>
								</defs>
								<clipPath id="XMLID_13_">
									<use xlink:href="#XMLID_121_"  style="overflow:visible;"/>
								</clipPath>
							</g>
						</g>
					</g>
				</g>
			</g>
		</g>
		<g>
			<g>
				<g>
					<g>
						<g>
							<path class="st1" d="M21.9,102.1c-9.4,0.3-17-7.5-16.7-17c0.3-8.6,7.2-15.6,15.6-15.9c9.4-0.3,17,7.5,16.7,17
								C37.2,94.8,30.3,101.8,21.9,102.1z M21.2,97.2c6.4,0.1,11.6-5.2,11.5-11.7c-0.1-6.2-5.1-11.3-11.2-11.4
								C15.1,74,9.9,79.3,10,85.8C10.1,92,15.1,97.1,21.2,97.2z M28,81.4c-0.2-0.5-0.5-0.9-0.8-1.3c-1.4-1.7-3.5-2.5-5.8-2.5
								c-2.2,0-4.3,0.8-5.7,2.5c-1.3,1.6-1.9,3.5-1.9,5.5c0,2,0.6,4,1.9,5.5c1.4,1.7,3.5,2.6,5.7,2.6c2.2,0,4.4-0.9,5.8-2.6
								c0.3-0.4,0.6-0.8,0.8-1.2l-3.6-1.5c-0.1,0.2-0.2,0.3-0.3,0.5c-0.6,0.8-1.7,1.3-2.8,1.3s-2.1-0.4-2.7-1.3
								c-0.6-0.8-0.9-2-0.9-3.2c0-1.2,0.2-2.3,0.9-3.2c0.6-0.8,1.6-1.3,2.7-1.3s2.2,0.5,2.8,1.3c0.1,0.2,0.2,0.3,0.3,0.5L28,81.4z"
								/>
						</g>
					</g>
					<g>
						<g>
							<path class="st2" d="M48.2,48.8c-4.5-2.1-9.8-2.1-14.3,0c-3.2,1.5-6.3,5.5-6.3,10.4c0,11.5,8.5,10.3,8.5,20.5h5h5
								c0-10.2,8.5-9,8.5-20.5C54.5,54.3,51.5,50.4,48.2,48.8z"/>
							<path class="st3" d="M43.5,79.7c0,0-0.4-15.1,2.6-18.1c3-3,3.4,4.1-5,4.1s-7.9-7.1-5-4.1c3,3,2.6,18.1,2.6,18.1"/>
							<path class="st4" d="M36,85.2h10.3c0.7,0,1.4-0.6,1.4-1.4l0,0c0-0.8-0.6-1.4-1.4-1.4H36c-0.7,0-1.4,0.6-1.4,1.4l0,0
								C34.6,84.6,35.2,85.2,36,85.2z"/>
							<path class="st4" d="M36,82.5h10.3c0.7,0,1.4-0.6,1.4-1.4l0,0c0-0.8-0.6-1.4-1.4-1.4H36c-0.7,0-1.4,0.6-1.4,1.4l0,0
								C34.6,81.9,35.2,82.5,36,82.5z"/>
							<path class="st4" d="M35.8,88h10.6c0.6,0,1.2-0.5,1.2-1.2v-0.4c0-0.6-0.5-1.2-1.2-1.2H35.8c-0.6,0-1.2,0.5-1.2,1.2v0.4
								C34.6,87.5,35.2,88,35.8,88z"/>
							<path class="st4" d="M36,88c0,0,1.5,3.4,5.1,3.4s5.1-3.4,5.1-3.4H36z"/>
							<path class="st5" d="M30,56.2c0,0,0.8-4.1,5.6-6.2"/>
						</g>
					</g>
					<path class="st6" d="M101.2,102.1c0,0,7,0.5,10-5.1c2-3.8,0.1-5.5,5.2-9.5c5.1-4.1,1.1-5.5,3.1-9.8c2-4.3-3.5-8.4-6.7-3
						c-3.2,5.3-6.3,2.2-8.9,7C101.3,86.4,91.4,98.4,101.2,102.1z"/>
					<g>
						<g>
							<g>
								<g>
									<defs>
										<path id="XMLID_120_" d="M37.5,64.3h26.9c0,0-0.8,7.9-13.5,7.9C38.3,72.2,37.5,64.3,37.5,64.3z"/>
									</defs>
									<clipPath id="XMLID_14_">
										<use xlink:href="#XMLID_120_"  style="overflow:visible;"/>
									</clipPath>
								</g>
							</g>
							<g>
								<g>
									<defs>
										<path id="XMLID_119_" d="M99.4,64.3h26.9c0,0-0.8,7.9-13.5,7.9C100.2,72.2,99.4,64.3,99.4,64.3z"/>
									</defs>
									<clipPath id="XMLID_15_">
										<use xlink:href="#XMLID_119_"  style="overflow:visible;"/>
									</clipPath>
								</g>
							</g>
							<g>
								<defs>
									<path id="XMLID_118_" d="M82.9,35.4c1.1-0.4,1.8-1.5,1.8-2.7c0-1.6-1.3-2.9-2.9-2.9c-1.6,0-2.9,1.3-2.9,2.9
										c0,1.2,0.8,2.3,1.8,2.7c-2.4,13.9-7.6,48.7,1,48.7S85.4,49.3,82.9,35.4z"/>
								</defs>
								<clipPath id="XMLID_16_">
									<use xlink:href="#XMLID_118_"  style="overflow:visible;"/>
								</clipPath>
							</g>
						</g>
						<g>
							<g>
								<polyline class="st7" points="63,64.3 51,45.9 38.9,64.3 								"/>
								<g>
									<defs>
										<path id="XMLID_117_" d="M37.5,64.3h26.9c0,0-0.8,7.9-13.5,7.9C38.3,72.2,37.5,64.3,37.5,64.3z"/>
									</defs>
									<use xlink:href="#XMLID_117_"  style="overflow:visible;fill:#3D53B0;"/>
									<clipPath id="XMLID_17_">
										<use xlink:href="#XMLID_117_"  style="overflow:visible;"/>
									</clipPath>
									<rect x="35.6" y="64.6" class="st8" width="30.8" height="2"/>
									
										<use xlink:href="#XMLID_117_"  style="overflow:visible;fill:none;stroke:#213278;stroke-linecap:round;stroke-linejoin:round;stroke-miterlimit:10;"/>
								</g>
							</g>
							<g>
								<polyline class="st7" points="124.9,64.3 112.9,45.9 100.8,64.3 								"/>
								<g>
									<defs>
										<path id="XMLID_116_" d="M99.4,64.3h26.9c0,0-0.8,7.9-13.5,7.9C100.2,72.2,99.4,64.3,99.4,64.3z"/>
									</defs>
									<use xlink:href="#XMLID_116_"  style="overflow:visible;fill:#3D53B0;"/>
									<clipPath id="XMLID_18_">
										<use xlink:href="#XMLID_116_"  style="overflow:visible;"/>
									</clipPath>
									<rect x="97.4" y="64.6" class="st9" width="30.8" height="2"/>
									
										<use xlink:href="#XMLID_116_"  style="overflow:visible;fill:none;stroke:#213278;stroke-linecap:round;stroke-linejoin:round;stroke-miterlimit:10;"/>
								</g>
							</g>
							<path class="st10" d="M65,40.1c-8.1,4.1-11.3,6.1-14.1,4.8c0,0,0,0,0,0c1.6,0,2.9-1.3,2.9-2.9c0-1.6-1.3-2.9-2.9-2.9
								c-1.6,0-2.9,1.3-2.9,2.9c0,0.1,0,0.3,0,0.4c0,0,0,0,0,0c0,0,0.7,4.7,7.2,4.7c6.5,0,17.8-7.2,26.7,0c0-2.4,0-3.8,0-4.5
								C81.9,42.5,75.8,34.6,65,40.1z"/>
							<path class="st10" d="M115.7,42c0-1.6-1.3-2.9-2.9-2.9c-1.6,0-2.9,1.3-2.9,2.9c0,1.6,1.3,2.9,2.9,2.9c0,0,0,0,0,0
								c-2.7,1.3-6-0.7-14.1-4.8c-10.8-5.5-16.9,2.4-16.9,2.4c0,0.7,0,2.1,0,4.5c8.9-7.2,20.2,0,26.7,0c6.5,0,7.2-4.7,7.2-4.7
								c0,0,0,0,0,0C115.7,42.2,115.7,42.1,115.7,42z"/>
							<g>
								<defs>
									<path id="XMLID_115_" d="M82.9,35.4c1.1-0.4,1.8-1.5,1.8-2.7c0-1.6-1.3-2.9-2.9-2.9c-1.6,0-2.9,1.3-2.9,2.9
										c0,1.2,0.8,2.3,1.8,2.7c-2.4,13.9-7.6,48.7,1,48.7S85.4,49.3,82.9,35.4z"/>
								</defs>
								<use xlink:href="#XMLID_115_"  style="overflow:visible;fill:#4667D2;"/>
								<clipPath id="XMLID_19_">
									<use xlink:href="#XMLID_115_"  style="overflow:visible;"/>
								</clipPath>
								<ellipse class="st11" cx="81.9" cy="32.7" rx="2.9" ry="2.9"/>
								
									<use xlink:href="#XMLID_115_"  style="overflow:visible;fill:none;stroke:#213278;stroke-linecap:round;stroke-linejoin:round;stroke-miterlimit:10;"/>
							</g>
							<path class="st4" d="M72.2,90.9h19.3c0,0-0.2-8.4-9.7-8.4S72.2,90.9,72.2,90.9z"/>
							<line class="st7" x1="37.5" y1="64.3" x2="64.4" y2="64.3"/>
							<line class="st7" x1="99.4" y1="64.3" x2="126.3" y2="64.3"/>
							<path class="st4" d="M49.3,42c0,0.9,0.7,1.7,1.6,1.7c0.9,0,1.6-0.7,1.6-1.7s-0.7-1.7-1.6-1.7C50.1,40.3,49.3,41,49.3,42z"/>
							<path class="st4" d="M111.2,42c0,0.9,0.7,1.7,1.6,1.7c0.9,0,1.6-0.7,1.6-1.7s-0.7-1.7-1.6-1.7C111.9,40.3,111.2,41,111.2,42z
								"/>
							<line class="st12" x1="38.5" y1="65.4" x2="63.4" y2="65.4"/>
							<line class="st12" x1="100.4" y1="65.4" x2="125.3" y2="65.4"/>
							<path class="st12" d="M50.1,42c0,0.5,0.4,0.9,0.8,0.9c0.5,0,0.8-0.4,0.8-0.9c0-0.5-0.4-0.9-0.8-0.9
								C50.5,41.1,50.1,41.5,50.1,42z"/>
							<ellipse class="st12" cx="112.9" cy="42" rx="0.8" ry="0.9"/>
							<path class="st12" d="M79.7,32.7c0,1.2,1,2.2,2.2,2.2s2.2-1,2.2-2.2c0-1.2-1-2.2-2.2-2.2S79.7,31.5,79.7,32.7z"/>
						</g>
						<g>
							<g>
								<g>
									<defs>
										<path id="XMLID_114_" d="M37.5,64.3h26.9c0,0-0.8,7.9-13.5,7.9C38.3,72.2,37.5,64.3,37.5,64.3z"/>
									</defs>
									<clipPath id="XMLID_20_">
										<use xlink:href="#XMLID_114_"  style="overflow:visible;"/>
									</clipPath>
								</g>
							</g>
							<g>
								<g>
									<defs>
										<path id="XMLID_113_" d="M99.4,64.3h26.9c0,0-0.8,7.9-13.5,7.9C100.2,72.2,99.4,64.3,99.4,64.3z"/>
									</defs>
									<clipPath id="XMLID_21_">
										<use xlink:href="#XMLID_113_"  style="overflow:visible;"/>
									</clipPath>
								</g>
							</g>
							<g>
								<defs>
									<path id="XMLID_112_" d="M82.9,35.4c1.1-0.4,1.8-1.5,1.8-2.7c0-1.6-1.3-2.9-2.9-2.9c-1.6,0-2.9,1.3-2.9,2.9
										c0,1.2,0.8,2.3,1.8,2.7c-2.4,13.9-7.6,48.7,1,48.7S85.4,49.3,82.9,35.4z"/>
								</defs>
								<clipPath id="XMLID_31_">
									<use xlink:href="#XMLID_112_"  style="overflow:visible;"/>
								</clipPath>
							</g>
						</g>
					</g>
					<g>
						<g>
							<g>
								<path class="st13" d="M23.9,102.1h24.6V90.8H23.9C27.1,94.6,27.1,98.3,23.9,102.1z"/>
							</g>
							<g>
								<g>
									<path class="st10" d="M44.9,102.1h30.7c3.2-3.8,3.2-7.5,0-11.3H44.9C48.2,94.6,48.2,98.3,44.9,102.1z"/>
								</g>
							</g>
							<g>
								<path class="st1" d="M48.9,99.8h25.2c1.5-1.8,1.5-4.9,0-6.6H48.9C50.4,94.9,50.4,98,48.9,99.8z"/>
							</g>
							<polyline class="st10" points="45.8,101 23.4,101 23.4,102.1 49.6,102.1 							"/>
							<polyline class="st10" points="49.6,90.8 23.4,90.8 23.4,91.9 45.8,91.9 							"/>
							<g>
								<g>
									<line class="st14" x1="44.5" y1="98.9" x2="35.5" y2="98.9"/>
									<line class="st14" x1="34.3" y1="98.9" x2="32.6" y2="98.9"/>
								</g>
							</g>
							<g>
								<g>
									<line class="st14" x1="39.6" y1="93.9" x2="30.6" y2="93.9"/>
									<line class="st14" x1="29.4" y1="93.9" x2="27.7" y2="93.9"/>
								</g>
							</g>
							<g>
								<g>
									<line class="st14" x1="34.5" y1="95.5" x2="43.5" y2="95.5"/>
								</g>
							</g>
							<line class="st14" x1="35.1" y1="97.4" x2="27.7" y2="97.4"/>
						</g>
					</g>
					<g>
						<g>
							<path class="st15" d="M89,61.9h20.6c2.2,0,4,1.8,4,4.1v2.5H89V66c0-2.3-1.8-4.1-4-4.1H89z"/>
							<path class="st1" d="M109.9,61.9h-4H85.2c-2.2,0-4,1.8-4,4.1v32.3h0c-0.2,2.1-1.9,3.7-4,3.7h4h20.6c2.2,0,4-1.8,4-4.1V65.6h0
								C106,63.6,107.8,61.9,109.9,61.9z"/>
							<g>
								<g>
									<path class="st16" d="M92.4,73.2h-7.9c-0.2,0-0.3,0.1-0.3,0.3l0,0c0,0.2,0.1,0.3,0.3,0.3h7.9c0.2,0,0.3-0.1,0.3-0.3l0,0
										C92.7,73.3,92.6,73.2,92.4,73.2z"/>
									<path class="st16" d="M92.4,75.1h-7.9c-0.2,0-0.3,0.1-0.3,0.3l0,0c0,0.2,0.1,0.3,0.3,0.3h7.9c0.2,0,0.3-0.1,0.3-0.3l0,0
										C92.7,75.3,92.6,75.1,92.4,75.1z"/>
									<path class="st16" d="M88.2,77h-3.7c-0.2,0-0.3,0.1-0.3,0.3l0,0c0,0.2,0.1,0.3,0.3,0.3h3.7c0.2,0,0.3-0.1,0.3-0.3l0,0
										C88.5,77.2,88.4,77,88.2,77z"/>
									<path class="st16" d="M92.4,79h-7.9c-0.2,0-0.3,0.1-0.3,0.3l0,0c0,0.2,0.1,0.3,0.3,0.3h7.9c0.2,0,0.3-0.1,0.3-0.3l0,0
										C92.7,79.1,92.6,79,92.4,79z"/>
									<path class="st16" d="M92.4,80.9h-7.9c-0.2,0-0.3,0.1-0.3,0.3l0,0c0,0.2,0.1,0.3,0.3,0.3h7.9c0.2,0,0.3-0.1,0.3-0.3l0,0
										C92.7,81,92.6,80.9,92.4,80.9z"/>
									<path class="st16" d="M90.5,82.8h-5.9c-0.2,0-0.3,0.1-0.3,0.3l0,0c0,0.2,0.1,0.3,0.3,0.3h5.9c0.2,0,0.3-0.1,0.3-0.3l0,0
										C90.7,82.9,90.6,82.8,90.5,82.8z"/>
									<path class="st16" d="M92.4,84.7h-7.9c-0.2,0-0.3,0.1-0.3,0.3l0,0c0,0.2,0.1,0.3,0.3,0.3h7.9c0.2,0,0.3-0.1,0.3-0.3l0,0
										C92.7,84.8,92.6,84.7,92.4,84.7z"/>
									<path class="st16" d="M92.4,86.6h-7.9c-0.2,0-0.3,0.1-0.3,0.3l0,0c0,0.2,0.1,0.3,0.3,0.3h7.9c0.2,0,0.3-0.1,0.3-0.3l0,0
										C92.7,86.8,92.6,86.6,92.4,86.6z"/>
								</g>
							</g>
							<g>
								<g>
									<path class="st16" d="M102.5,73.2h-7.9c-0.2,0-0.3,0.1-0.3,0.3l0,0c0,0.2,0.1,0.3,0.3,0.3h7.9c0.2,0,0.3-0.1,0.3-0.3l0,0
										C102.8,73.3,102.7,73.2,102.5,73.2z"/>
									<path class="st16" d="M102.5,75.1h-7.9c-0.2,0-0.3,0.1-0.3,0.3l0,0c0,0.2,0.1,0.3,0.3,0.3h7.9c0.2,0,0.3-0.1,0.3-0.3l0,0
										C102.8,75.3,102.7,75.1,102.5,75.1z"/>
									<path class="st16" d="M102.5,77h-7.9c-0.2,0-0.3,0.1-0.3,0.3l0,0c0,0.2,0.1,0.3,0.3,0.3h7.9c0.2,0,0.3-0.1,0.3-0.3l0,0
										C102.8,77.2,102.7,77,102.5,77z"/>
									<path class="st16" d="M98.3,79h-3.7c-0.2,0-0.3,0.1-0.3,0.3l0,0c0,0.2,0.1,0.3,0.3,0.3h3.7c0.2,0,0.3-0.1,0.3-0.3l0,0
										C98.6,79.1,98.4,79,98.3,79z"/>
									<path class="st16" d="M102.5,80.9h-7.9c-0.2,0-0.3,0.1-0.3,0.3l0,0c0,0.2,0.1,0.3,0.3,0.3h7.9c0.2,0,0.3-0.1,0.3-0.3l0,0
										C102.8,81,102.7,80.9,102.5,80.9z"/>
									<path class="st16" d="M102.5,82.8h-7.9c-0.2,0-0.3,0.1-0.3,0.3l0,0c0,0.2,0.1,0.3,0.3,0.3h7.9c0.2,0,0.3-0.1,0.3-0.3l0,0
										C102.8,82.9,102.7,82.8,102.5,82.8z"/>
									<path class="st16" d="M102.5,84.7h-7.9c-0.2,0-0.3,0.1-0.3,0.3l0,0c0,0.2,0.1,0.3,0.3,0.3h7.9c0.2,0,0.3-0.1,0.3-0.3l0,0
										C102.8,84.8,102.7,84.7,102.5,84.7z"/>
									<path class="st16" d="M100.4,86.6h-5.8c-0.2,0-0.3,0.1-0.3,0.3l0,0c0,0.2,0.1,0.3,0.3,0.3h5.8c0.2,0,0.3-0.1,0.3-0.3l0,0
										C100.7,86.8,100.6,86.6,100.4,86.6z"/>
								</g>
							</g>
							<path class="st6" d="M101.1,88.8H86c-1,0-1.7,0.8-1.7,1.7v0.6c0,1,0.8,1.7,1.7,1.7h15.1c1,0,1.7-0.8,1.7-1.7v-0.6
								C102.8,89.6,102,88.8,101.1,88.8z"/>
							<g>
								<g>
									<path class="st0" d="M100.4,66.7H86.7c-1.4,0-2.5,1.1-2.5,2.5l0,0c0,1.4,1.1,2.5,2.5,2.5h13.7c1.4,0,2.5-1.1,2.5-2.5l0,0
										C102.8,67.8,101.7,66.7,100.4,66.7z"/>
									<text transform="matrix(0.9834 0 0 1 86.0693 70.2632)" class="st17 st18 st19">COPYRIGHT</text>
								</g>
							</g>
							<path class="st15" d="M98,102.1H77.4c-2.2,0-4-1.8-4-4.1v-2.5H98V98c0,2.3,1.8,4.1,4,4.1H98z"/>
						</g>
					</g>
					<g>
						<g>
							<path class="st1" d="M70.8,100.5c-7.2-3.3-12.1-9.3-14.7-17.9c-1.5-4.8-1.7-9.2-1.8-11.2c9.4-0.9,14.4-5.1,16.5-7.3
								c2.1,2.3,7.1,6.4,16.5,7.3c0,2-0.3,6.4-1.8,11.2C82.9,91.2,77.9,97.2,70.8,100.5z"/>
							<g>
								<path class="st13" d="M88.7,70.2c-13.2-0.8-17.9-8.3-17.9-8.3s-4.7,7.5-17.9,8.3c0,0-1.1,23.6,17.9,31.9
									C89.8,93.8,88.7,70.2,88.7,70.2z M84.2,82.4c-2.4,7.9-6.9,13.5-13.4,16.6c-6.5-3.2-11-8.8-13.4-16.6
									c-1.2-3.9-1.6-7.4-1.7-9.6c7.8-1,12.5-4.3,15.1-6.6c2.5,2.4,7.3,5.6,15.1,6.6C85.7,75,85.3,78.5,84.2,82.4z"/>
							</g>
						</g>
						<g>
							<g>
								<path class="st20" d="M76,80.6C76,80.6,76,80.6,76,80.6c-0.3,0-0.6-0.3-0.6-0.6c0,0,0-3.1-1.6-4.8C73,74.4,72,74,70.8,74
									c-1.2,0-2.3,0.4-3,1.2c-1.7,1.7-1.6,4.7-1.6,4.8c0,0.3-0.3,0.6-0.6,0.6c0,0,0,0,0,0c-0.3,0-0.6-0.3-0.6-0.6
									c0-0.1,0-3.6,2-5.6c1-1,2.3-1.5,3.9-1.5c1.6,0,2.9,0.5,3.9,1.5c2,2.1,2,5.5,2,5.6C76.6,80.3,76.4,80.6,76,80.6z"/>
							</g>
							<path class="st2" d="M65,80h11.5c0.7,0,1.3,0.6,1.3,1.3c0,2.8-0.6,9.4-7,9.4c-6.4,0-7.1-6.6-7-9.4C63.7,80.5,64.3,80,65,80z"
								/>
							<path class="st4" d="M72.2,83.4c0-0.8-0.7-1.5-1.5-1.5c-0.8,0-1.5,0.7-1.5,1.5c0,0.6,0.3,1,0.8,1.3l-0.8,2.9h2.9l-0.8-2.9
								C71.9,84.5,72.2,84,72.2,83.4z"/>
						</g>
						<ellipse class="st12" cx="70.8" cy="83.4" rx="0.9" ry="0.9"/>
						<polygon class="st12" points="70.8,84.2 71.6,87.2 69.9,87.2 						"/>
						<path class="st12" d="M65.5,79.7c0,0,0-6.2,5.2-6.2c5.2,0,5.2,6.2,5.2,6.2"/>
					</g>
					<g>
						<path class="st0" d="M109.9,90.7l-2.3-2.3l7.7-7.8c0.6-0.6,1.6-0.6,2.3,0l0,0c0.6,0.6,0.6,1.7,0,2.3L109.9,90.7z"/>
						<polygon class="st10" points="103,97.8 100.7,95.5 107.6,88.4 109.9,90.7 						"/>
						<polygon class="st10" points="100.7,95.5 103,97.8 99.3,99.2 						"/>
						<path class="st7" d="M117.6,82.9c0,0,0.6,0.6,0,1.3c-0.6,0.6-6.5,6.6-6.5,6.6"/>
					</g>
					<line class="st7" x1="3.5" y1="102.1" x2="126.3" y2="102.1"/>
				</g>
			</g>
		</g>
		<g>
			<g>
				<g>
					<g>
						<g>
							<g>
								<g>
									<defs>
										<path id="XMLID_111_" d="M37.5,64.3h26.9c0,0-0.8,7.9-13.5,7.9C38.3,72.2,37.5,64.3,37.5,64.3z"/>
									</defs>
									<clipPath id="XMLID_32_">
										<use xlink:href="#XMLID_111_"  style="overflow:visible;"/>
									</clipPath>
								</g>
							</g>
							<g>
								<g>
									<defs>
										<path id="XMLID_110_" d="M99.4,64.3h26.9c0,0-0.8,7.9-13.5,7.9C100.2,72.2,99.4,64.3,99.4,64.3z"/>
									</defs>
									<clipPath id="XMLID_33_">
										<use xlink:href="#XMLID_110_"  style="overflow:visible;"/>
									</clipPath>
								</g>
							</g>
							<g>
								<defs>
									<path id="XMLID_109_" d="M82.9,35.4c1.1-0.4,1.8-1.5,1.8-2.7c0-1.6-1.3-2.9-2.9-2.9c-1.6,0-2.9,1.3-2.9,2.9
										c0,1.2,0.8,2.3,1.8,2.7c-2.4,13.9-7.6,48.7,1,48.7S85.4,49.3,82.9,35.4z"/>
								</defs>
								<clipPath id="XMLID_34_">
									<use xlink:href="#XMLID_109_"  style="overflow:visible;"/>
								</clipPath>
							</g>
						</g>
						<g>
							<g>
								<g>
									<defs>
										<path id="XMLID_108_" d="M37.5,64.3h26.9c0,0-0.8,7.9-13.5,7.9C38.3,72.2,37.5,64.3,37.5,64.3z"/>
									</defs>
									<clipPath id="XMLID_35_">
										<use xlink:href="#XMLID_108_"  style="overflow:visible;"/>
									</clipPath>
								</g>
							</g>
							<g>
								<g>
									<defs>
										<path id="XMLID_107_" d="M99.4,64.3h26.9c0,0-0.8,7.9-13.5,7.9C100.2,72.2,99.4,64.3,99.4,64.3z"/>
									</defs>
									<clipPath id="XMLID_36_">
										<use xlink:href="#XMLID_107_"  style="overflow:visible;"/>
									</clipPath>
								</g>
							</g>
							<g>
								<defs>
									<path id="XMLID_106_" d="M82.9,35.4c1.1-0.4,1.8-1.5,1.8-2.7c0-1.6-1.3-2.9-2.9-2.9c-1.6,0-2.9,1.3-2.9,2.9
										c0,1.2,0.8,2.3,1.8,2.7c-2.4,13.9-7.6,48.7,1,48.7S85.4,49.3,82.9,35.4z"/>
								</defs>
								<clipPath id="XMLID_37_">
									<use xlink:href="#XMLID_106_"  style="overflow:visible;"/>
								</clipPath>
							</g>
						</g>
						<g>
							<g>
								<g>
									<defs>
										<path id="XMLID_105_" d="M37.5,64.3h26.9c0,0-0.8,7.9-13.5,7.9C38.3,72.2,37.5,64.3,37.5,64.3z"/>
									</defs>
									<clipPath id="XMLID_38_">
										<use xlink:href="#XMLID_105_"  style="overflow:visible;"/>
									</clipPath>
								</g>
							</g>
							<g>
								<g>
									<defs>
										<path id="XMLID_104_" d="M99.4,64.3h26.9c0,0-0.8,7.9-13.5,7.9C100.2,72.2,99.4,64.3,99.4,64.3z"/>
									</defs>
									<clipPath id="XMLID_39_">
										<use xlink:href="#XMLID_104_"  style="overflow:visible;"/>
									</clipPath>
								</g>
							</g>
							<g>
								<defs>
									<path id="XMLID_103_" d="M82.9,35.4c1.1-0.4,1.8-1.5,1.8-2.7c0-1.6-1.3-2.9-2.9-2.9c-1.6,0-2.9,1.3-2.9,2.9
										c0,1.2,0.8,2.3,1.8,2.7c-2.4,13.9-7.6,48.7,1,48.7S85.4,49.3,82.9,35.4z"/>
								</defs>
								<clipPath id="XMLID_40_">
									<use xlink:href="#XMLID_103_"  style="overflow:visible;"/>
								</clipPath>
							</g>
						</g>
					</g>
				</g>
			</g>
		</g>
	</g>
</g>
<path class="st0" d="M100-147.2"/>
<g>
	<g>
		<defs>
			<rect id="SVGID_1_" x="-15.2" y="-249.4" width="141.1" height="159.4"/>
		</defs>
		<clipPath id="SVGID_2_">
			<use xlink:href="#SVGID_1_"  style="overflow:visible;"/>
		</clipPath>
		<path class="st21" d="M21.3-127.1c2.1,7.4-0.3,15.3-3.5,22.3h81.9c0.6-0.7,1.2-1.5,1.7-2.2c4.8-7,6.2-16.5,4.4-25.1
			c-1-4.7-2.9-9.1-3.7-13.8c-1.2-7.3,0.5-14.7,2.9-21.6c5.6-16.4,7.4-20.5,7.4-20.5c0.7-1.4,1.7-3.2,1.2-5.3
			c-1.2-4.9-9.9-6.3-13.4-7.2c-22.3-5.4-23.7-30.6-41.5-31.7c-11.6-0.7-24.1,8.7-29.4,18.5c-4.4,7.9-0.6,15.1-6.7,21.8
			c-4.4,4.9-7.7,3.3-13.2,7.5c-9,7-14.7,22.6-10.1,33.4C4.3-139.1,17.8-139.4,21.3-127.1z"/>
	</g>
	<g>
		<defs>
			<rect id="SVGID_3_" x="-15.2" y="-249.4" width="141.1" height="159.4"/>
		</defs>
		<clipPath id="SVGID_4_">
			<use xlink:href="#SVGID_3_"  style="overflow:visible;"/>
		</clipPath>
		<g class="st22">
			<polygon class="st23" points="62.9,-105.1 59.4,-160.1 54.2,-160.1 50.8,-105.1 			"/>
			<path class="st24" d="M62.7-176.6l-0.5-4.8c0.1-0.1,0.2-0.2,0.3-0.2c-0.1,0.1-0.2,0.2-0.3,0.2c-1.1,0.8-2.2,1.5-3.3,1.8
				c-0.7,0.1-1.4,0.2-2,0.2c-0.7,0-1.4,0-2-0.2c-1.1-0.2-2.2-1-3.4-1.8l0,0l-0.5,4.9c0,0-3.7,0.8-2.5,2.2l6.5,7.1h3.9l6.5-7.1
				C66.4-175.8,62.7-176.6,62.7-176.6z"/>
			<path class="st25" d="M48.4-174.3c-1.2-1.4,2.5-2.2,2.5-2.2l0,0l0.3-2.4l-0.4,0.1l0,0l-6.4,2c-0.7,0.4-0.5,1.4-0.5,1.4l1.9,11.2
				l3.4,7.4c0.3,0.4,0.5,0,0.5,0l2-5.9c0.1-0.6,0.7-1.3,0.7-1.3l2.4-3.3L48.4-174.3z"/>
			<path class="st25" d="M65.2-174.3c1.2-1.4-2.5-2.2-2.5-2.2l0,0l-0.3-2.4l0.4,0.1l0,0l6.4,2c0.7,0.4,0.5,1.4,0.5,1.4l-1.9,11.2
				l-3.4,7.4c-0.3,0.4-0.5,0-0.5,0l-2-5.9c-0.1-0.6-0.7-1.3-0.7-1.3l-2.4-3.2L65.2-174.3z"/>
			<path class="st26" d="M61.2-163.9l-2.4-3.3h-1.9H55l-2.4,3.3c0,0-0.2,0.2-0.3,0.5l2.1,3.4H57h2.6l2.1-3.4
				C61.3-163.8,61.2-163.9,61.2-163.9z"/>
			<path class="st27" d="M58.4-173.2c-0.1,0.1-0.2,0.2-0.2,0.3c0,0.2,0.3,0.2,0.4,0.1c1.1-0.3,2.1-0.8,3.1-1.3
				c0.2-0.1,0.5-0.4,0.4-0.6c0-0.1-0.1-0.2-0.2-0.2c-0.2-0.2-0.6-0.5-0.9-0.5s-0.6,0.5-0.9,0.7C59.7-174.2,59.1-173.8,58.4-173.2z"
				/>
			<path class="st27" d="M55.2-173.2c0.1,0.1,0.2,0.2,0.2,0.3c0,0.2-0.3,0.2-0.4,0.1c-1.1-0.3-2.1-0.8-3.1-1.3
				c-0.4-0.1-0.6-0.3-0.6-0.6c0-0.1,0.1-0.2,0.2-0.2c0.2-0.2,0.6-0.5,0.9-0.5c0.3,0,0.6,0.5,0.9,0.7
				C53.9-174.2,54.5-173.8,55.2-173.2z"/>
			<path class="st28" d="M48.4-174.3c-1.2-1.4,2.5-2.2,2.5-2.2l0,0l0.3-2.4l-0.4,0.1l0,0l-6.4,2c-0.7,0.4-0.5,1.4-0.5,1.4l1.9,11.2
				l3.4,7.4c0.3,0.4,0.5,0,0.5,0l2-5.9c0.1-0.6,0.7-1.3,0.7-1.3l2.4-3.3L48.4-174.3z"/>
			<path class="st28" d="M65.2-174.3c1.2-1.4-2.5-2.2-2.5-2.2l0,0l-0.3-2.4l0.4,0.1l0,0l6.4,2c0.7,0.4,0.5,1.4,0.5,1.4l-1.9,11.2
				l-3.4,7.4c-0.3,0.4-0.5,0-0.5,0l-2-5.9c-0.1-0.6-0.7-1.3-0.7-1.3l-2.4-3.2L65.2-174.3z"/>
			<path class="st29" d="M61.2-163.9l-2.4-3.3h-1.9H55l-2.4,3.3c0,0-0.2,0.2-0.3,0.5l2.1,3.4H57h2.6l2.1-3.4
				C61.3-163.8,61.2-163.9,61.2-163.9z"/>
			<path class="st29" d="M56.9-126.7l11-37.5l1.9-11.2c0,0,0-0.1,0-0.2l2.2,0.8c0.2,0.1,0.2,0.3,0.2,0.3c0.5,2.1,2.2,9.8,3,14.5
				c0,0,0.5,2-0.7,1.4l-6.3-0.7c0,0-0.6-0.1,0,1.2l5.9,8.5c0,0,0.3,0.3,0,0.7C74.1-148.9,62.7-133.2,56.9-126.7L56.9-126.7z"/>
			<g>
				<path class="st30" d="M51.5-170.3c-0.3-0.3-0.6-0.7-0.9-1c-0.6-0.7-1.2-1.3-1.9-2l-0.5-0.5L48-174l-0.1-0.2c0,0,0,0-0.1-0.1
					v-0.1c-0.1-0.1-0.2-0.3-0.2-0.5c0-0.1,0-0.2,0-0.3v-0.1c0,0,0,0,0-0.1l0,0c0.2-0.2,0.4-0.3,0.6-0.5c0.2-0.1,0.5-0.3,0.7-0.4
					c0.2-0.1,0.5-0.3,0.7-0.4c0.2-0.1,0.5-0.2,0.8-0.4c-0.3,0.1-0.5,0.1-0.8,0.2c-0.3,0.1-0.5,0.2-0.8,0.3c-0.3,0.1-0.5,0.2-0.8,0.3
					l-0.2,0.1l-0.2,0.1c-0.1,0-0.1,0.1-0.2,0.1c-0.1,0-0.1,0.1-0.2,0.2l0,0l0,0c0,0,0,0.1-0.1,0.1v0.1c0,0.1,0,0.1-0.1,0.2
					c0,0.1,0,0.3,0,0.4c0,0.1,0,0.1,0,0.2c0,0.1,0,0.1,0.1,0.2c0.2,0.3,0.2,0.4,0.2,0.4l0.1,0.1c0,0,0,0.1,0.1,0.1l0.1,0.1
					c0,0,0,0,0.1,0.1l0.1,0.1l0.2,0.3l0.5,0.5c0.6,0.7,1.3,1.3,1.9,2c0.3,0.3,0.6,0.6,1,1l1,1c0.7,0.6,1.3,1.3,2,1.9
					c-0.6-0.7-1.2-1.4-1.8-2.1L51.5-170.3z"/>
				<path class="st30" d="M66.5-175.2c0-0.1,0-0.1-0.1-0.2v-0.1c0,0,0-0.1-0.1-0.1l0,0l0,0c-0.1-0.1-0.1-0.1-0.2-0.2
					c-0.1,0-0.1-0.1-0.2-0.1l-0.2-0.1l-0.2-0.1c-0.3-0.1-0.5-0.2-0.8-0.3s-0.5-0.2-0.8-0.3s-0.5-0.2-0.8-0.2
					c0.3,0.1,0.5,0.2,0.8,0.4c0.2,0.1,0.5,0.2,0.7,0.4c0.2,0.1,0.5,0.3,0.7,0.4c0.2,0.1,0.4,0.3,0.6,0.5l0,0c0,0,0,0,0,0.1v0.1
					c0,0.1,0,0.2,0,0.3c0,0.2-0.1,0.4-0.2,0.5v0.1c0,0,0,0-0.1,0.1l-0.1,0.1l-0.2,0.2l-0.5,0.5c-0.6,0.7-1.3,1.3-1.9,2
					c-0.3,0.3-0.6,0.7-0.9,1l-0.9,1c-0.6,0.7-1.2,1.4-1.8,2.1c0.7-0.6,1.3-1.2,2-1.9l1-1c0.3-0.3,0.6-0.6,1-1c0.6-0.7,1.3-1.3,1.9-2
					l0.5-0.5l0.2-0.3l0.1-0.1c0,0,0,0,0.1-0.1l0.1-0.1c0,0,0-0.1,0.1-0.1l0,0c0-0.1,0.1-0.1,0.1-0.2c0-0.1,0-0.1,0.1-0.2
					c0-0.1,0-0.1,0-0.2S66.5-175.1,66.5-175.2z"/>
			</g>
			<ellipse class="st31" cx="59.3" cy="-115.9" rx="0.9" ry="1"/>
			<path class="st23" d="M57.2-105.1c0-0.7,0-1.4,0-2.1c0-3.2,0-6.5-0.1-9.7s-0.1-6.5-0.3-9.7c-0.1,3.2-0.2,6.5-0.3,9.7
				c-0.1,3.2-0.1,6.5-0.1,9.7c0,0.7,0,1.4,0,2.1H57.2z"/>
			<path class="st23" d="M108.1-128.6c-3.7-6.3-8.2-15.2-11.7-22.1l-1.9-4l0,0c-2.3-4.5-3.9-7.8-3.9-7.8c-1.5-3.5-4.5-6.2-4.5-6.2
				c-0.3-0.3-0.6-0.6-0.8-0.8c-0.3-0.4-0.8-0.7-1.4-0.9l-11.7-4.1c0.5,2.1,2.2,9.8,3,14.4c0,0,0.5,2-0.7,1.4l-6.3-0.5
				c0,0-0.6-0.1,0,1.2l5.9,8.5c0,0,0.3,0.3,0,0.7c0,0-11.4,15.7-17.2,22.3v21.5h24.4l-0.6-16.1l1.7-14.5v-0.1l0.6-4.9l0,0
				c0.4-3,1.9-1.7,2.7-0.9l0,0l0,0l11.8,18.3c2.6,6.7,8.1,8.4,8.1,8.4c6.3,0.3,6.3-6,6.3-6C112-122.8,108.1-128.6,108.1-128.6z"/>
			<path class="st17" d="M64.4-156.8c-0.3,0.4-0.5,0-0.5,0l-2-5.9c-0.1-0.3-0.2-0.6-0.4-0.8l0,0l-2.1,3.4l1.3,20.4l7.1-24.4
				L64.4-156.8z"/>
			<path class="st29" d="M56.7-126.7l-11-37.5l-1.9-11.2c0,0,0-0.1,0-0.2l-2.2,0.8c-0.2,0.1-0.2,0.3-0.2,0.3
				c-0.5,2.1-2.2,9.8-3,14.5c0,0-0.5,2,0.7,1.4l6.1-0.5c0,0,0.6-0.1,0,1.2l-5.9,8.5c0,0-0.3,0.3,0,0.7c0,0,11.4,15.7,17.2,22.3
				L56.7-126.7z"/>
			<path class="st17" d="M49.2-156.8c0.3,0.4,0.5,0,0.5,0l2-5.9c0.1-0.3,0.2-0.6,0.4-0.8l0,0l2.1,3.4l-1.3,20.4l-7.1-24.4
				L49.2-156.8z"/>
			<path class="st23" d="M31.2-135.8v0.1l1.7,14.5l-0.6,16.1h24.5v-21.5c-5.8-6.6-17.2-22.3-17.2-22.3c-0.3-0.5,0-0.7,0-0.7l5.9-8.5
				c0.6-1.3,0-1.2,0-1.2l-6.2,0.6c-1.2,0.6-0.7-1.4-0.7-1.4c0.7-4.6,2.5-12.3,3-14.4l-11.7,4.1c-0.6,0.2-1.1,0.5-1.4,0.9
				c-0.3,0.2-0.6,0.5-0.8,0.8c0,0-3.1,2.6-4.5,6.2c0,0-0.1,0.3-0.4,0.9c0,0-10.1,21.2-17.1,33c0,0-3.9,5.9-3.8,7.9c0,0,0,6.2,6.3,6
				c0,0,5.4-1.6,8.1-8.4l11.8-18.3c0.7-0.8,2.3-2.2,2.7,0.9l0,0L31.2-135.8z"/>
			<g>
				<g>
					<path class="st32" d="M30-136.4c0.5-1.5,1-4,1-4c0.6-1.4,1.2-3.7,1.4-4.3l0.1-0.1c0.3-0.4,0.7-0.9,1.1-1.1
						c0.7-0.3,1.2,0.3,1.2,1.1c0.1,0.8-0.2,1.6-0.6,2.3c0,0-1.3,2.1-2.1,3.4c0,0-1.2,3.4-2,5.1c0,0-0.1,0.2-0.2,0.5
						C29.6-135.1,30-136.4,30-136.4z"/>
					<path class="st33" d="M30-136.4c0.5-1.5,1-4,1-4c0.6-1.6,1.4-4.4,1.4-4.4c0-0.2,0.1-0.3,0.1-0.3l0.2-0.6
						c0.3-0.6,0.4-1.2,0.5-1.6c0.1-0.1,0.2-0.1,0.2-0.1c0.7-0.4,1.2,0.2,1.3,1s-0.1,1.6-0.5,2.3c0,0-1.2,2.2-2,3.5
						c0,0-1,3.5-1.7,5.3c0,0-0.3,0.9-0.6,2C29.6-135.1,30-136.4,30-136.4z"/>
					<path class="st33" d="M34.4-148.2c-0.1-0.5-0.3-0.9-0.6-1c0,0-0.3-0.2-0.7,0c0,0-0.1,0.1-0.2,0.3c0.2,0.2,0.4,0.5,0.4,1.1
						c0,0-0.1,0.7-0.3,1.5c-0.1,0.2-0.2,0.5-0.3,0.7l0,0v0.1l-0.1,0.4l0,0v0.1c0,0,0,0.1-0.1,0.3c0,0-0.8,2.8-1.4,4.4
						c0,0-0.5,2.5-1,4c0,0-0.2,0.7-0.2,1.8c0.4-1.3,0.7-2.3,0.7-2.3c0.6-1.8,1.6-5.3,1.6-5.3c0.7-1.3,1.9-3.6,1.9-3.6
						C34.3-146.6,34.5-147.4,34.4-148.2z"/>
					<path class="st33" d="M33.2-147.8c0-1-0.8-1.3-0.8-1.3c-0.7-0.3-1,0.1-1.1,0.4c0,0.1,0,0.1-0.1,0.2c-0.7,2-1.4,4.1-2.1,6.1
						c-0.2,0.6-0.4,1.2-0.7,1.8c-0.3,0.5-0.7,1-1,1.5c-0.3,0.6-0.5,1.2-0.7,1.9c-0.9,3-1.7,6-3,8.7c-0.2,0.4-0.4,0.8-0.6,1.3
						c-0.1,0.3-0.2,1-0.2,1s-0.1,1.5,0.3,3.7c0.1,0.9,0.2,1.8,0.4,2.7c1,0.2,2.1,0.6,3,1.1c0.1-0.7,0.3-1.9,0.5-2.7
						c0.1-0.2,0.1-0.5,0.2-0.7c0.5-1,1.2-1.8,1.7-2.7c0.8-1.3,1.1-2.8,1.2-4.4c0.1-1.6-0.3-3.6-0.3-3.6c-0.4-1.7,0-3.2,0-3.2
						c0.5-1.5,1-4,1-4c0.6-1.6,1.4-4.4,1.4-4.4c0-0.2,0.1-0.3,0.1-0.3l0.2-0.6c0.1-0.3,0.2-0.5,0.3-0.7
						C33.1-147.1,33.2-147.8,33.2-147.8z"/>
					<g>
						<path class="st34" d="M31.1-147.1c0.1-0.5,0.3-1,0.5-1.4c0.1-0.1,0.1-0.3,0.1-0.4c0-0.1-0.1-0.3-0.3-0.2
							c-0.1,0-0.1,0.1-0.1,0.1c-0.2,0.3-0.3,0.7-0.4,1c-0.1,0.3-0.2,0.6-0.3,0.9c0,0.1,0.1,0.3,0.2,0.3
							C31-146.8,31-147.1,31.1-147.1z"/>
						<path class="st35" d="M30.9-147.1c0.1,0,0.1,0,0.2,0c0,0.1-0.1,0.2-0.2,0.1c-0.1,0-0.2-0.2-0.2-0.3l0,0
							C30.7-147.1,30.8-147.1,30.9-147.1z"/>
					</g>
					<path class="st24" d="M38.2-135.8c-0.1-0.9-0.9-1.7-1.7-1.4c-0.4,0.1-0.6,0.5-0.9,0.8c-0.7,1-1.5,2-2.2,3
						c-0.4,0.6-0.9,1.2-1.5,1.3c-0.4,0.1-0.9,0-1.3-0.3c-0.2-0.1-0.4-0.4-0.6-0.6l0,0c0-0.2-0.1-0.3-0.1-0.3c-0.4-1.7,0-3.2,0-3.2
						c0.5-1.5,1-4,1-4c0.6-1.6,1.4-4.4,1.4-4.4c0-0.2,0.1-0.3,0.1-0.3l0.2-0.6c0.1-0.3,0.2-0.5,0.3-0.7c0.2-0.8,0.3-1.5,0.3-1.5
						c0-1-0.8-1.3-0.8-1.3s0,0-0.1,0c0.1,0.1,0.1,0.2,0.2,0.3c0.4,0.7,0.1,1.7-0.2,2.4c-0.6,1.7-1.2,3.4-1.7,5.1
						c-0.2,0.6-0.5,1.2-0.5,1.8c0,0-0.6,2.2-0.9,3.1c-0.3,0.8-0.5,1.8-0.4,2.7c0.1,0.4,0.1,0.9,0.1,1.3c0,0.2,0.1,2.5-1.5,6.1
						c-0.5,1.1-1.1,2.2-1.8,2.7c-1.4,0.6-1.9-0.8-1.9-0.8c-0.3-1.8-0.1-2.9-0.1-2.9l0,0c0.1-0.3,0.3-0.8,0.2-1.4
						c-0.1,0.3-0.3,0.6-0.4,0.9l0,0c-0.1,0.1-0.1,0.3-0.2,0.4c-0.1,0.3-0.2,1-0.2,1s-0.1,1.5,0.3,3.7c0.2,1.6,0.5,3.5,1,4.8
						c1.3-0.2,2.7-0.6,3.4-0.9c0.9-0.3,1.6-0.9,2.4-1.4c0.5-0.4,1-0.7,1.4-1.2c0.3-0.4,0.6-0.8,0.8-1.3c0.7-1.4,1-3,1.4-4.5
						s0.9-3.1,1.9-4.2c0.5-0.6,1.2-1.1,1.8-1.8C37.8-134.1,38.3-134.9,38.2-135.8z"/>
				</g>
				<path class="st28" d="M25.5-118.4c0.1,1-0.2,2-0.2,2l0,0c0,0,0-0.1-0.1-0.1c-0.1-0.1-0.3,0-0.4-0.2c-0.3-0.4-0.5-0.9-0.7-1.5
					C24.6-118.1,25.1-118.2,25.5-118.4z"/>
				<g>
					<path class="st23" d="M24.7-115.4c0,0.4-0.1,0.6-0.1,0.6l0,0l0,0c-0.2,0-0.3-0.2-0.4-0.3C24.4-115.2,24.6-115.4,24.7-115.4z"/>
					<path class="st23" d="M24.1-115.2L24.1-115.2L24.1-115.2z"/>
				</g>
				<path class="st23" d="M1.8-121.8c0.4-1.8,1.7-3.1,3.2-3.8c0.5-0.3,1.1-0.5,1.7-0.5c1.5-0.1,2.9,0.8,4.4,1
					c2.8,0.4,5.4-1.5,8.2-1.7c0.3,0,0.7,0,1-0.1c0.5-0.1,1.4-0.6,1.4-0.6c0.4-0.2,0.5,0,0.5,0c-0.4,0.1-0.5,0.8-0.5,1.2
					c-0.1,0.9,0,1.9,0.1,2.9c0.1,0.9,0.2,1.7,0.4,2.6c0.2,1,0.4,1.9,0.7,2.9c0,0.1,0,0.1,0.1,0.2c0.3,0.8,0.6,1.6,1.1,2.4
					c0,0.1,0.1,0.2,0.1,0.2c0.1,0.2,0.2,0.4,0.4,0.4c0,0,0.1,0,0,0.1c0,0-0.1,0.1-0.3,0.1c0,0-5.8,2.5-9.9,2.5c0,0-1,0.1-3.3,0.3
					c0,0-2,0.5-5.1-1c-0.2-0.1-0.4-0.2-0.6-0.3s-0.4-0.2-0.6-0.3s-0.3-0.2-0.5-0.3c-0.2-0.1-0.3-0.3-0.5-0.4
					c-1.2-1.1-1.7-2.9-1.9-4.6C1.7-119.9,1.6-120.9,1.8-121.8z"/>
				<path class="st30" d="M21.8-126.3c0-0.3,0.1-0.9,0.4-1.1l0.1-0.1c0.3-0.1,0.7,0,0.7,0c-0.1,0.3-0.2,1-0.2,1s-0.1,1.5,0.3,3.7
					c0.3,2.3,0.8,5,1.8,6.3c0.1,0.1,0.2,0.1,0.4,0.2c0.1,0.1,0,0.2,0,0.3c0,0-0.2,0.6-1.1,0.9c0-0.1-0.1-0.2-0.1-0.3
					c-0.5-0.8-0.9-1.7-1.2-2.7c-0.1-0.2-0.1-0.5-0.2-0.7l0,0c-0.2-0.7-0.3-1.4-0.5-2.1c-0.2-0.8-0.3-1.7-0.4-2.6
					C21.8-124.4,21.7-125.4,21.8-126.3z"/>
			</g>
			<g>
				<g>
					<path class="st32" d="M83.7-136.4c-0.5-1.5-1-4-1-4c-0.6-1.4-1.2-3.7-1.4-4.3l-0.1-0.1c-0.3-0.4-0.7-0.9-1.1-1.1
						c-0.7-0.3-1.2,0.3-1.2,1.1c-0.1,0.8,0.2,1.6,0.6,2.3c0,0,1.3,2.1,2.1,3.4c0,0,1.2,3.4,2,5.1c0,0,0.1,0.2,0.2,0.5
						C84.1-135.1,83.7-136.4,83.7-136.4z"/>
					<path class="st33" d="M83.7-136.4c-0.5-1.5-1-4-1-4c-0.6-1.6-1.4-4.4-1.4-4.4c0-0.2-0.1-0.3-0.1-0.3l-0.2-0.6
						c-0.3-0.6-0.4-1.2-0.5-1.6c-0.1-0.1-0.2-0.1-0.2-0.1c-0.7-0.4-1.2,0.2-1.3,1c-0.1,0.8,0.1,1.6,0.5,2.3c0,0,1.2,2.2,2,3.5
						c0,0,1,3.5,1.7,5.3c0,0,0.3,0.9,0.6,2C84.1-135.1,83.7-136.4,83.7-136.4z"/>
					<path class="st27" d="M79.3-148.2c0.1-0.5,0.3-0.9,0.6-1c0,0,0.3-0.2,0.7,0c0,0,0.1,0.1,0.2,0.3c-0.2,0.2-0.4,0.5-0.4,1.1
						c0,0,0.1,0.7,0.3,1.5c0.1,0.2,0.2,0.5,0.3,0.7l0,0v0.1l0.1,0.4l0,0v0.1c0,0,0,0.1,0.1,0.3c0,0,0.8,2.8,1.4,4.4c0,0,0.5,2.5,1,4
						c0,0,0.2,0.7,0.2,1.8c-0.4-1.3-0.7-2.3-0.7-2.3c-0.6-1.8-1.6-5.3-1.6-5.3c-0.7-1.3-1.9-3.6-1.9-3.6
						C79.4-146.6,79.2-147.4,79.3-148.2z"/>
					<path class="st33" d="M80.5-147.8c0-1,0.8-1.3,0.8-1.3c0.7-0.3,1,0.1,1.1,0.4c0,0.1,0,0.1,0.1,0.2c0.7,2,1.4,4.1,2.1,6.1
						c0.2,0.6,0.4,1.2,0.7,1.8c0.3,0.5,0.7,1,1,1.5c0.3,0.6,0.5,1.2,0.7,1.9c0.9,3,1.7,6,3,8.7c0.2,0.4,0.4,0.8,0.6,1.3
						c0.1,0.3,0.2,1,0.2,1s0.1,1.5-0.3,3.7c-0.1,0.9-0.2,1.8-0.4,2.7c-1,0.2-2.1,0.6-3,1.1c-0.1-0.7-0.3-1.9-0.5-2.7
						c-0.1-0.2-0.1-0.5-0.2-0.7c-0.5-1-1.2-1.8-1.7-2.7c-0.8-1.3-1.1-2.8-1.2-4.4c-0.1-1.6,0.3-3.6,0.3-3.6c0.4-1.7,0-3.2,0-3.2
						c-0.5-1.5-1-4-1-4c-0.6-1.6-1.4-4.4-1.4-4.4c0-0.2-0.1-0.3-0.1-0.3l-0.2-0.6c-0.1-0.3-0.2-0.5-0.3-0.7
						C80.5-147.1,80.5-147.8,80.5-147.8z"/>
					<g>
						<path class="st34" d="M82.6-147.1c-0.1-0.5-0.3-1-0.5-1.4c-0.1-0.1-0.1-0.3-0.1-0.4c0-0.1,0.1-0.3,0.3-0.2
							c0.1,0,0.1,0.1,0.1,0.1c0.2,0.3,0.3,0.7,0.4,1s0.2,0.6,0.3,0.9c0,0.1-0.1,0.3-0.2,0.3C82.7-146.8,82.6-147.1,82.6-147.1z"/>
						<path class="st35" d="M82.8-147.1c-0.1,0-0.1,0-0.2,0c0,0.1,0.1,0.2,0.2,0.1c0.1,0,0.2-0.2,0.2-0.3l0,0
							C83-147.1,82.9-147.1,82.8-147.1z"/>
					</g>
					<path class="st24" d="M75.5-135.8c0.1-0.9,0.9-1.7,1.7-1.4c0.4,0.1,0.6,0.5,0.9,0.8c0.7,1,1.5,2,2.2,3c0.4,0.6,0.9,1.2,1.5,1.3
						c0.4,0.1,0.9,0,1.3-0.3c0.2-0.1,0.4-0.4,0.6-0.6l0,0c0-0.2,0.1-0.3,0.1-0.3c0.4-1.7,0-3.2,0-3.2c-0.5-1.5-1-4-1-4
						c-0.6-1.6-1.4-4.4-1.4-4.4c0-0.2-0.1-0.3-0.1-0.3l-0.2-0.6c-0.1-0.3-0.2-0.5-0.3-0.7c-0.2-0.8-0.3-1.5-0.3-1.5
						c0-1,0.8-1.3,0.8-1.3s0,0,0.1,0c-0.1,0.1-0.1,0.2-0.2,0.3c-0.4,0.7-0.1,1.7,0.2,2.4c0.6,1.7,1.2,3.4,1.7,5.1
						c0.2,0.6,0.5,1.2,0.5,1.8c0,0,0.6,2.2,0.9,3.1c0.3,0.8,0.5,1.8,0.4,2.7c-0.1,0.4-0.1,0.9-0.1,1.3c0,0.2-0.1,2.5,1.5,6.1
						c0.5,1.1,1.1,2.2,1.8,2.7c1.4,0.6,1.9-0.8,1.9-0.8c0.3-1.8,0.1-2.9,0.1-2.9l0,0c-0.1-0.3-0.3-0.8-0.2-1.4
						c0.1,0.3,0.3,0.6,0.4,0.9l0,0c0.1,0.1,0.1,0.3,0.2,0.4c0.1,0.3,0.2,1,0.2,1s0.1,1.5-0.3,3.7c-0.2,1.6-0.5,3.5-1,4.8
						c-1.3-0.2-2.7-0.6-3.4-0.9c-0.9-0.3-1.6-0.9-2.4-1.4c-0.5-0.4-1-0.7-1.4-1.2c-0.3-0.4-0.6-0.8-0.8-1.3c-0.7-1.4-1-3-1.4-4.5
						s-0.9-3.1-1.9-4.2c-0.5-0.6-1.2-1.1-1.8-1.8C75.8-134.1,75.4-134.9,75.5-135.8z"/>
				</g>
				<path class="st28" d="M88.1-118.4c-0.1,1,0.2,2,0.2,2l0,0c0,0,0-0.1,0.1-0.1c0.1-0.1,0.3,0,0.4-0.2c0.3-0.4,0.5-0.9,0.7-1.5
					C89.1-118.1,88.6-118.2,88.1-118.4z"/>
				<g>
					<path class="st23" d="M89-115.4c0,0.4,0.1,0.6,0.1,0.6l0,0l0,0c0.2,0,0.3-0.2,0.4-0.3C89.3-115.2,89.1-115.4,89-115.4z"/>
					<path class="st23" d="M89.5-115.2L89.5-115.2L89.5-115.2z"/>
				</g>
				<path class="st23" d="M111.8-121.8c-0.4-1.8-1.7-3.1-3.2-3.8c-0.5-0.3-1.1-0.5-1.7-0.5c-1.5-0.1-2.9,0.8-4.4,1
					c-2.8,0.4-5.4-1.5-8.2-1.7c-0.3,0-0.7,0-1-0.1c-0.5-0.1-1.4-0.6-1.4-0.6c-0.4-0.2-0.5,0-0.5,0c0.4,0.1,0.5,0.8,0.5,1.2
					c0.1,0.9,0,1.9-0.1,2.9c-0.1,0.9-0.2,1.7-0.4,2.6c-0.2,1-0.4,1.9-0.7,2.9c0,0.1,0,0.1-0.1,0.2c-0.3,0.8-0.6,1.6-1.1,2.4
					c0,0.1-0.1,0.2-0.1,0.2c-0.1,0.2-0.2,0.4-0.4,0.4c0,0-0.1,0,0,0.1c0,0,0.1,0.1,0.3,0.1c0,0,5.8,2.5,9.9,2.5c0,0,1,0.1,3.3,0.3
					c0,0,2,0.5,5.1-1c0.2-0.1,0.4-0.2,0.6-0.3s0.4-0.2,0.6-0.3s0.3-0.2,0.5-0.3s0.3-0.3,0.5-0.4c1.2-1.1,1.7-2.9,1.9-4.6
					C111.9-119.9,112-120.9,111.8-121.8z"/>
				<path class="st30" d="M91.9-126.3c0-0.3-0.1-0.9-0.4-1.1l-0.1-0.1c-0.3-0.1-0.7,0-0.7,0c0.1,0.3,0.2,1,0.2,1s0.1,1.5-0.3,3.7
					c-0.3,2.3-0.8,5-1.8,6.3c-0.1,0.1-0.2,0.1-0.4,0.2c-0.1,0.1,0,0.2,0,0.3c0,0,0.2,0.6,1.1,0.9c0-0.1,0.1-0.2,0.1-0.3
					c0.5-0.8,0.9-1.7,1.2-2.7c0.1-0.2,0.1-0.5,0.2-0.7l0,0c0.2-0.7,0.3-1.4,0.5-2.1c0.2-0.8,0.3-1.7,0.4-2.6
					C91.9-124.4,92-125.4,91.9-126.3z"/>
			</g>
			<g>
				<path class="st24" d="M78.5-209.1c-0.3-1.1-1.1-2.1-2.1-2.4h-0.1h-0.1h-0.1H76h-0.1c-0.1,0-0.1,0-0.2,0c-0.7,0-1.4,0.2-1.9,0.7
					c-0.3,0.3-0.5,0.6-0.7,1c0-0.1-0.1-0.1-0.1-0.2l-2.3-14.3c0,0-1.6-7.1-13.8-7.1s-13.8,7.1-13.8,7.1l-2.5,14.1l0,0
					c-0.1,0.1-0.2,0.1-0.2,0.2c-0.1-0.3-0.3-0.5-0.5-0.7c-0.3-0.4-0.8-0.7-1.3-0.8l0,0c-0.3-0.1-0.6-0.1-0.9-0.1c-0.1,0-0.2,0-0.3,0
					l0,0c-0.1,0-0.2,0-0.3,0.1c-1.1,0.3-2,1.3-2.3,2.5c-0.1,0.5-0.2,1-0.2,1.6c0,1.3,0.3,2.7,0.9,3.9c0.4,0.9,0.9,1.7,1.5,2.3
					c0.7,0.6,1.5,1,2.4,0.8c0.1,0,0.2-0.1,0.3-0.1c0,1.6-0.1,2.7-0.1,2.7c-0.2,7.1,4.8,11.6,4.8,11.6c1.4,1.1,2.9,2.1,4.3,3.2
					c1.7,1.3,4,3.7,6.1,4.1c0.6,0.1,1.3,0.2,1.9,0.2s1.3,0,1.9-0.2c2.1-0.4,4.3-2.8,6.1-4.1c1.4-1.1,2.9-2.1,4.3-3.2
					c0,0,5-4.5,4.8-11.6c0,0,0-1-0.1-2.6c0,0,0,0,0.1,0c0.8,0.2,1.7-0.2,2.4-0.8c0.7-0.6,1.1-1.4,1.5-2.3c0.5-1.2,0.9-2.5,0.9-3.9
					C78.7-208.1,78.7-208.6,78.5-209.1z"/>
				<path class="st23" d="M76.9-227.1c-0.2-1.3-0.5-2.6-1-3.8c-0.7-1.7-2.2-2.7-3.1-4.2c-0.7-1.2-1.3-2.5-2.2-3.6
					c-1.7-2-3.9-3.5-6.2-4.5c-2.9-1.2-6-1.9-9.1-1.9l0,0c-7.7,0-16,4.9-18.8,13.5c-1,3-0.7,6.4-0.5,9.5c0,0.8,1.1,10.5,1.1,10.5
					c0.1,0,0.1,0,0.2-0.1c0.1,0,0.2,0,0.3-0.1l0,0c0.1,0,0.2,0,0.3,0c0.3,0,0.6,0,0.9,0.1l0,0c0.5,0.2,0.9,0.4,1.3,0.8
					c0.2,0.2,0.3,0.4,0.5,0.7c0.1-0.1,0.2-0.1,0.2-0.2l0,0l1.5-10c0.9-0.5,1.9-0.8,2.8-1.3c1.1-0.6,2.1-1.3,3.1-2.2
					c2.1-1.8,3.9-3.9,5.7-5.9c0.1-0.1,0.2-0.2,0.3-0.2c0.2,0,0.3,0.4,0.3,0.6c0,2.3-0.7,4.6-1.9,6.5l0,0l0,0c0,0,0,0,0,0.1
					c0,0.1,0,0.1,0.1,0.1c1.2-0.1,2.3-0.8,3.2-1.5c1.8-1.3,3.4-2.8,5-4.3c0,0,0.5-0.6,0.5,0.4c0,0.5-0.1,0.9-0.3,1.4
					c-0.1,0.2-0.1,0.3-0.2,0.5s-0.1,0.3-0.2,0.5s-0.1,0.3-0.2,0.5c-0.1,0.1-0.1,0.3-0.2,0.4c-0.1,0.1-0.1,0.3-0.2,0.4
					c0,0.1-0.1,0.2-0.1,0.3c0,0.1-0.1,0.1-0.1,0.2c0,0,0,0.1-0.1,0.1l0,0c0.1,0,0.1,0,0.2,0s0.2,0,0.2,0c0.2,0,0.3-0.1,0.5-0.1
					c0.2-0.1,0.3-0.1,0.5-0.2c0.2-0.1,0.3-0.1,0.5-0.2c0.2-0.1,0.3-0.2,0.5-0.2c0.2-0.1,0.3-0.2,0.5-0.2c0.1,0,0.1-0.1,0.2-0.1
					c0.9-0.5,1.8-1,2.6-1.7c0.1-0.1,0.2-0.2,0.3-0.2c0.3-0.2,0.5-0.4,0.9-0.4c0.3,0,0.5,0.1,0.7,0.3c0.3,0.2,0.6,0.5,0.9,0.8
					c0,0,2.6,2.9,3,5.4l1.7,10.4c0,0.1,0.1,0.1,0.1,0.2c0.2-0.4,0.4-0.7,0.7-1c0.5-0.5,1.2-0.8,1.9-0.7c0.1,0,0.1,0,0.2,0H76h0.1
					h0.1h0.1h0.1l0,0C77.2-216.6,77.7-222.1,76.9-227.1z"/>
				<ellipse class="st23" cx="49.2" cy="-208.1" rx="0.8" ry="1.5"/>
				<path class="st23" d="M43.9-213.6c-0.1,0-0.3,0-0.3-0.1c0-0.1,0-0.1,0-0.2c0.3-0.8,1.1-1.2,1.9-1.3c0.9-0.2,1.7-0.3,2.6-0.4
					c0.7,0,1.4,0,1.9,0.5c0.3,0.3,0.4,0.7,0.6,1.2c0,0.1,0.1,0.2,0,0.4c0,0.2-0.2,0.3-0.4,0.3c-0.4,0.1-0.8-0.2-1.2-0.2
					c-0.6-0.1-1.1-0.1-1.7-0.1C46.2-213.6,45.1-213.6,43.9-213.6z"/>
				<path class="st23" d="M69.3-213.4c0.1,0,0.3,0,0.3-0.1c0-0.1,0-0.1,0-0.2c-0.3-0.8-1.1-1.2-1.9-1.4c-0.9-0.2-1.7-0.4-2.6-0.4
					c-0.7,0-1.4,0-1.9,0.5c-0.3,0.3-0.4,0.7-0.6,1.2c0,0.1-0.1,0.2,0,0.4c0,0.2,0.2,0.3,0.4,0.3c0.4,0.1,0.8-0.2,1.2-0.2
					c0.6-0.1,1.1-0.1,1.7-0.1C67-213.6,68.1-213.6,69.3-213.4z"/>
				<ellipse class="st23" cx="64.3" cy="-208.1" rx="0.8" ry="1.5"/>
				<path class="st17" d="M62.4-193.1c0.1,0,0.3,0,0.4,0c0.2,0.2,0.1,0.6-0.1,0.8c-0.3,0.5-0.8,0.8-1.3,1.1c-0.8,0.5-1.7,1-2.6,1.2
					c-0.6,0.1-1.3,0.1-1.9,0c-2-0.2-3.9-0.9-5.7-1.8c-0.6-0.3-0.8-1.1,0-1.2s1.8,0.2,2.6,0.3c1.8,0.1,3.7,0.1,5.5,0
					C60.2-192.8,61.3-192.8,62.4-193.1z"/>
				<path class="st33" d="M38.7-211.6C38.7-211.6,38.6-211.6,38.7-211.6C38.6-211.6,38.6-211.6,38.7-211.6c-0.3-0.1-0.6-0.1-0.9-0.1
					c-0.1,0-0.2,0-0.3,0l0,0l0,0h-0.1h-0.1c-1.1,0.3-2,1.3-2.3,2.5c-0.1,0.3-0.1,0.5-0.2,0.8c0,0.3,0,0.5,0,0.8
					c0,1.3,0.3,2.7,0.9,3.9c0.3,0.7,0.7,1.4,1.2,1.9l0,0c0.1,0.1,0.2,0.2,0.4,0.4c0.7,0.6,1.5,1,2.4,0.8c0.1,0,0.2,0,0.3-0.1l0,0
					l0,0l0,0c0,0.1,0,0.1,0,0.2c0,0.1,0,0.1,0,0.1c0,1.5-0.1,2.4-0.1,2.4c-0.1,3,0.8,5.6,1.8,7.5c1.4,2.6,3,4.1,3,4.1
					c1.4,1.1,2.9,2.1,4.3,3.2c0.1,0.1,0.2,0.2,0.3,0.2l0,0c0.1,0,0.1,0.1,0.2,0.1l0,0c0.8,0.6,1.6,1.3,2.4,2c1,0.8,2.1,1.5,3.1,1.7
					c0.6,0.1,1.3,0.2,1.9,0.2s1.3,0,1.9-0.2c1-0.2,2.1-0.9,3.1-1.6c0.8-0.6,1.6-1.3,2.3-1.9l0,0l0.1-0.1c0,0,0,0,0.1,0l0.1-0.1
					c0,0,0,0,0.1-0.1l0.1-0.1c0,0,0.1,0,0.1-0.1c0,0,0.1,0,0.1-0.1c1.4-1.1,2.9-2.1,4.3-3.2c0,0,5-4.5,4.8-11.6c0,0,0-0.3,0-0.8
					s0-1.1-0.1-1.8l0,0l0,0c0,0,0,0,0.1,0c0.8,0.2,1.7-0.2,2.4-0.8l0.1-0.1c0.6-0.6,1-1.4,1.4-2.2c0.3-0.6,0.5-1.3,0.6-1.9
					c0.1-0.6,0.2-1.3,0.2-1.9c0-0.5,0-1-0.2-1.4c0-0.1,0-0.1,0-0.2c-0.3-1.1-1.1-2-2.1-2.4l0,0l0,0c0,0,0,0-0.1,0l0,0h-0.1h-0.1l0,0
					H76h-0.1c-0.1,0-0.1,0-0.2,0c-0.3,0-0.6,0-0.9,0.1h-0.1c-0.3,0.1-0.6,0.3-0.9,0.6l0,0c0,0-0.1,0-0.1,0.1c0,0,0,0-0.1,0.1l0,0
					l0,0l0,0c-0.1,0.1-0.2,0.2-0.3,0.4l0,0c0,0,0,0,0,0.1c0,0,0,0,0,0.1c0,0,0,0,0,0.1c0,0,0,0,0,0.1l0,0c0,0,0,0.1-0.1,0.1l0,0l0,0
					c0-0.1-0.1-0.1-0.1-0.2l-1.7-10.7c-0.1-0.7-0.4-1.3-0.7-2l1.1,13.4c0.2,1.9,0.3,3.8,0.4,5.8c0.1,1.2,0.2,2.4,0.2,3.6
					c0,1.4-0.1,2.8-0.5,4.2c-0.6,2.3-2,5.2-3.8,6.6c-1.3,1-2.6,2-3.9,3c-1.6,1.2-3.6,3.4-5.5,3.8c-0.6,0.1-1.1,0.2-1.7,0.2
					s-1.1,0-1.7-0.2c-1.9-0.4-3.9-2.6-5.5-3.8c-1.3-1-2.6-2-3.9-3c-0.1-0.1-0.1-0.1-0.2-0.2c-2.2-2.2-3.7-5.4-4.1-8.6
					c-0.1-1.1-0.1-2.2-0.1-3.3l0,0l0,0c0-0.5,0.1-0.9,0.1-1.4l0.5-6.4l0.7-11.6c-0.2,0.1-0.3,0.2-0.5,0.2l-1.7,10.1l0,0l0,0l0,0
					c-0.1,0.1-0.1,0.1-0.2,0.2l0,0l0,0c0-0.1-0.1-0.2-0.2-0.3c-0.1-0.1-0.1-0.2-0.2-0.3l0,0l-0.1-0.1l0,0l-0.1-0.1c0,0,0,0-0.1-0.1
					C39.4-211.1,39.2-211.3,38.7-211.6C38.8-211.6,38.7-211.6,38.7-211.6z"/>
				<path class="st36" d="M38.7-202.8c-0.1,0-0.1,0-0.2,0c-0.5-0.1-0.9-0.4-1.3-1.1c-0.5-0.9-0.9-1.8-1-2.9c-0.1-1,0-1.8,0.3-2.4
					c0.4-0.8,1.3-1.2,1.9-0.9c0.1,0,0.1,0.1,0.1,0.2c0,0.1-0.1,0.2-0.2,0.1c-0.6-0.2-1.2,0.2-1.5,0.8c-0.3,0.5-0.4,1.2-0.3,2.1
					c0.1,1,0.4,1.9,0.9,2.7c0.3,0.6,0.7,0.9,1,0.9c0.4,0.1,0.9-0.3,1-0.7c0.1-0.5-0.1-1-0.5-1.2c-0.4-0.2-0.9,0-1.1,0.4
					c0,0.1-0.2,0.1-0.2,0.1c-0.1-0.1-0.1-0.2-0.1-0.3c0.3-0.6,1-0.8,1.5-0.6c0.5,0.3,0.9,1,0.7,1.6
					C39.7-203.1,39.2-202.8,38.7-202.8z"/>
				<path class="st36" d="M74.8-202.8c-0.5,0-1.1-0.4-1.2-1c-0.2-0.6,0.2-1.4,0.7-1.6c0.5-0.3,1.2,0,1.5,0.6c0,0.1,0,0.2-0.1,0.3
					c-0.1,0.1-0.2,0-0.2-0.1c-0.2-0.4-0.7-0.6-1.1-0.4s-0.6,0.7-0.5,1.2s0.6,0.8,1,0.7c0.4-0.1,0.7-0.4,1-0.9
					c0.5-0.8,0.8-1.7,0.9-2.7c0.1-0.9,0-1.6-0.3-2.1s-1-1-1.5-0.8c-0.1,0-0.2,0-0.2-0.1c0-0.1,0-0.2,0.1-0.2
					c0.7-0.3,1.5,0.1,1.9,0.9c0.3,0.6,0.4,1.4,0.3,2.4s-0.5,2-1,2.9c-0.4,0.6-0.8,1-1.3,1.1C74.9-202.8,74.9-202.8,74.8-202.8z"/>
				<g>
					<path class="st23" d="M71.9-213.3c0,0-4.6-1.6-13.2,0.3c0,0-0.9,0.3-1.9,0.3s-1.9-0.3-1.9-0.3c-8.6-1.8-13.2-0.3-13.2-0.3
						c-0.4,0.6-0.2,2.4-0.2,2.4c0.3,0.2,0.4,1.2,0.4,1.2c-0.2,4.1,1.2,6.2,1.2,6.2c2.3,3.6,8.5,1.5,8.5,1.5c3-0.8,4.3-7.6,4.3-7.6
						c0.1-0.7,0.7-0.8,0.7-0.8h0.3h0.3c0,0,0.6,0.1,0.7,0.8c0,0,1.3,6.7,4.3,7.6c0,0,6.2,2.1,8.5-1.6c0,0,1.4-2,1.2-6.2
						c0,0,0.1-0.9,0.4-1.2C72.2-211.1,72.4-212.8,71.9-213.3z M54.4-208.1c-0.2,1.3-0.6,2.7-1.4,3.7c-0.7,1-1.8,1.6-2.9,1.8
						c-1.1,0.2-2.2,0.3-3.3,0.2c-1.2-0.1-2.2-0.4-2.9-1.4c-0.6-0.9-0.9-2-1-3.1c0-0.2,0-0.3,0-0.5c0-0.8,0-1.5,0-2.3
						c0-0.7,0.1-1.4,0.5-2c0.3-0.5,0.8-1,1.3-1.1c1.3-0.3,2.6-0.3,3.9-0.3c1.1,0.1,2.3,0.2,3.4,0.4c0.5,0.1,1.1,0.2,1.6,0.4
						c0.3,0.1,0.6,0.3,0.7,0.7c0.2,0.4,0.3,0.9,0.3,1.3C54.6-209.6,54.5-208.8,54.4-208.1z M70.6-207.3c0,0.2,0,0.3,0,0.5
						c-0.1,1.1-0.4,2.2-1,3.1c-0.7,1.1-1.8,1.3-2.9,1.5c-1.1,0.1-2.2,0-3.3-0.2c-1.1-0.2-2.2-0.8-2.9-1.8c-0.7-1.1-1.2-2.4-1.4-3.7
						c-0.1-0.7-0.2-1.5-0.1-2.2c0-0.4,0.1-0.9,0.3-1.3c0.2-0.3,0.4-0.5,0.7-0.7c0.5-0.2,1.1-0.3,1.6-0.4c1.1-0.2,2.2-0.4,3.4-0.5
						c1.3-0.1,2.6,0,3.9,0.3c0.5,0.1,1,0.6,1.3,1.1c0.3,0.6,0.4,1.3,0.5,2C70.6-208.9,70.6-208.1,70.6-207.3z"/>
					<path class="st17" d="M53.6-212.2c-0.5-0.2-1.1-0.3-1.6-0.4c-1.1-0.2-2.2-0.4-3.4-0.4c-1.3-0.1-2.6,0-3.9,0.3
						c-0.5,0.1-1,0.6-1.3,1.1c-0.3,0.6-0.4,1.3-0.5,2c0,0.8-0.1,1.5,0,2.3c0,0.2,0,0.3,0,0.5c0.1,1.1,0.4,2.2,1,3.1
						c0.7,1.1,1.8,1.3,2.9,1.4c1.1,0.1,2.2,0,3.3-0.2c1.1-0.3,2.2-0.8,2.9-1.8c0.7-1.1,1.2-2.4,1.4-3.7c0.1-0.7,0.2-1.5,0.1-2.2
						c0-0.4-0.1-0.9-0.3-1.3C54.1-211.8,53.9-212.1,53.6-212.2z"/>
					<path class="st17" d="M60-212.2c0.5-0.2,1.1-0.3,1.6-0.4c1.1-0.2,2.2-0.4,3.4-0.5c1.3-0.1,2.6,0,3.9,0.3c0.5,0.1,1,0.6,1.3,1.1
						c0.3,0.6,0.4,1.3,0.5,2c0,0.8,0.1,1.5,0,2.3c0,0.2,0,0.3,0,0.5c-0.1,1.1-0.4,2.2-1,3.1c-0.7,1.1-1.8,1.3-2.9,1.5
						c-1.1,0.1-2.2,0-3.3-0.2c-1.1-0.2-2.2-0.8-2.9-1.8c-0.7-1.1-1.2-2.4-1.4-3.7c-0.1-0.7-0.2-1.5-0.1-2.2c0-0.4,0.1-0.9,0.3-1.3
						C59.4-211.8,59.7-212.1,60-212.2z"/>
					<path class="st23" d="M73.4-210.8l-1.2-0.9c0,0.4,0,0.7,0,0.7c-0.1,0.1-0.2,0.2-0.2,0.4l1.3,0.3h0.1l0.2-0.3
						C73.5-210.8,73.4-210.8,73.4-210.8z"/>
					<path class="st23" d="M41.4-210.9c0,0,0-0.3,0-0.8l-1.3,1c0,0,0,0,0,0.1l0.2,0.3c0,0,0,0,0.1,0l1.3-0.3
						C41.6-210.8,41.5-210.9,41.4-210.9z"/>
				</g>
			</g>
		</g>
	</g>
	<g>
		<defs>
			<rect id="SVGID_5_" x="-15.2" y="-249.4" width="141.1" height="159.4"/>
		</defs>
		<clipPath id="SVGID_6_">
			<use xlink:href="#SVGID_5_"  style="overflow:visible;"/>
		</clipPath>
		<g class="st37">
			<path class="st38" d="M76.1-110.9h-0.8c0,0-0.1,0-0.1-0.1l0,0c0,0,0-0.1,0.1-0.1h0.8c0,0,0.1,0,0.1,0.1L76.1-110.9
				C76.2-110.9,76.1-110.9,76.1-110.9z"/>
		</g>
	</g>
	<g>
		<defs>
			<rect id="SVGID_7_" x="-15.2" y="-249.4" width="141.1" height="159.4"/>
		</defs>
		<clipPath id="SVGID_8_">
			<use xlink:href="#SVGID_7_"  style="overflow:visible;"/>
		</clipPath>
		<rect x="-5" y="-105.1" class="st39" width="121.2" height="0.5"/>
	</g>
</g>
<path class="st0" d="M143.1-185.4"/>
<path class="st0" d="M157.4-176.4"/>
<path class="st0" d="M118.3-222.4"/>
<g>
	<rect x="34.8" y="-155.6" class="st17" width="43.3" height="49.9"/>
	<g>
		<path class="st40" d="M46.5-147.1h-0.4l-0.2-1h-1l-0.2,1h-0.4l0,0l0.9-4.6h0.4L46.5-147.1z M45.8-148.6l-0.4-2.5l-0.4,2.5H45.8z"
			/>
		<path class="st40" d="M49.1-147.4c0,0.1,0,0.2-0.1,0.2c-0.1,0.1-0.2,0.1-0.3,0.1h-1.3c-0.1,0-0.2,0-0.3-0.1
			c-0.1-0.1-0.1-0.1-0.1-0.2v-3.9c0-0.1,0-0.2,0.1-0.2c0.1-0.1,0.2-0.1,0.3-0.1h1.3c0.1,0,0.2,0,0.3,0.1c0.1,0.1,0.1,0.1,0.1,0.2
			v1.1h-0.5v-1h-1.1v3.8h1.1v-1.6h-0.5v-0.4h1V-147.4z"/>
		<path class="st40" d="M52.1-147.1h-0.5l-0.9-2.4l0.1-0.1h0.8v-1.7h-1.2v4.2H50v-4.6h1.7c0.1,0,0.2,0,0.3,0.1
			c0.1,0.1,0.1,0.1,0.1,0.2v1.7c0,0.2-0.2,0.3-0.5,0.3h-0.1c-0.1,0-0.1,0-0.1,0C51.5-148.6,51.8-147.9,52.1-147.1z"/>
		<path class="st40" d="M54.4-147.1h-1.7v-4.6h1.6v0.4h-1.2v1.7h1.2v0.4h-1.1v1.8h1.2V-147.1z"/>
		<path class="st40" d="M56.8-147.1h-1.7v-4.6h1.6v0.4h-1.2v1.7h1.1v0.4h-1.1v1.8h1.2L56.8-147.1L56.8-147.1z"/>
		<path class="st40" d="M60-147.1h-0.4v-2.9c0,0,0-0.2,0-0.4l-0.8,2.8h-0.1l-0.8-2.8c0,0.2,0,0.3,0,0.4v2.9h-0.4v-4.6h0.4l0.8,3v0.1
			v-0.1l0.8-3h0.4L60-147.1L60-147.1z"/>
		<path class="st40" d="M62.5-147.1h-1.7v-4.6h1.6v0.4h-1.1v1.7h1.1v0.4h-1.1v1.8h1.2V-147.1z"/>
		<path class="st40" d="M65.3-147.1H65l-1.4-3.4v3.4h-0.4v-4.6h0.3l1.3,3.3v-3.3h0.5V-147.1z"/>
		<path class="st40" d="M67.8-151.3H67v4.2h-0.4v-4.2h-0.8v-0.4h2C67.8-151.8,67.8-151.3,67.8-151.3z"/>
	</g>
	<rect x="40.2" y="-144.2" class="st41" width="15.8" height="2.1"/>
	<rect x="40.2" y="-141.1" class="st41" width="33.1" height="0.7"/>
	<rect x="40.2" y="-139.6" class="st41" width="33.1" height="0.7"/>
	<rect x="40.2" y="-138.2" class="st41" width="33.1" height="0.7"/>
	<rect x="40.2" y="-136.8" class="st41" width="13.8" height="0.7"/>
	<rect x="40.2" y="-134.4" class="st41" width="15.8" height="2.1"/>
	<rect x="40.2" y="-131.2" class="st41" width="33.1" height="0.7"/>
	<rect x="40.2" y="-129.8" class="st41" width="33.1" height="0.7"/>
	<rect x="40.2" y="-128.4" class="st41" width="33.1" height="0.7"/>
	<rect x="40.2" y="-127.1" class="st41" width="24.4" height="0.7"/>
	<rect x="40.2" y="-124.6" class="st41" width="15.8" height="2.1"/>
	<rect x="40.2" y="-121.4" class="st41" width="33.1" height="0.7"/>
	<rect x="40.2" y="-120.1" class="st41" width="33.1" height="0.7"/>
	<rect x="40.2" y="-118.6" class="st41" width="33.1" height="0.7"/>
	<rect x="40.2" y="-117.2" class="st41" width="6" height="0.7"/>
	<rect x="37.9" y="-112.9" class="st41" width="11" height="1.4"/>
	<rect x="49.5" y="-111.6" class="st41" width="11" height="0.1"/>
	<rect x="62.3" y="-111.6" class="st41" width="11" height="0.1"/>
	<rect x="38.5" y="-108.4" class="st41" width="30.5" height="0.5"/>
	<rect x="38.5" y="-107.6" class="st41" width="15.8" height="0.5"/>
	<path class="st23" d="M55.1-112.9c-0.1-0.1-0.2-0.1-0.3-0.1l0,0c1.7-0.4,3.5-0.8,5.2-1.3l0,0v-0.2l0,0c-1.7,0.5-3.4,0.9-5.1,1.3
		l0,0c0.1-0.2,0.2-0.3,0.3-0.5c0-0.1,0-0.2-0.1-0.2c-1,0.3-1.9,0.8-2.7,1.4c-0.1-0.1-0.1-0.1-0.2-0.2c0.5-0.7,1-1.5,1.5-2.2
		c0.1-0.1-0.1-0.2-0.2-0.2c-0.5,0.3-1.1,0.5-1.7,0.4c-0.3,0-0.7-0.1-0.9,0.1c-0.2,0.1-0.4,0.4-0.3,0.6c0,0.1,0.3,0.1,0.2-0.1
		c-0.1-0.2,10.2-0.4,10.4-0.4c0.3-0.1-9.4,0-9.1,0c0.4,0,0.8-0.1,1.1-0.2l0,0c-0.4,0.6-0.9,1.3-1.3,1.9l0,0c-0.3-0.1-0.6-0.1-1-0.2
		c-0.4-0.1-0.9-0.2-1.3,0c-0.4,0.3-0.1,0.8,0.1,1.1c0.2,0.4,0.5,0.7,0.9,1c0.1,0,0.1,0,0.2,0c0.4-0.6,0.8-1.1,1.2-1.7l0,0
		c0.1,0,0.2,0,0.3,0.1c0.1,0,0.1,0,0.2,0s0.1,0,0.2-0.1c0.2-0.2,0.4-0.3,0.6-0.4c0.5-0.3,1-0.5,1.5-0.7l0,0
		c-0.1,0.1-0.1,0.2-0.2,0.4l0,0c-0.1,0-0.2,0-0.3,0.1c-0.1,0-0.1,0.2,0,0.2l0,0c0,0.3,0,0.2,0,0.6l-1.1,0.1l0,0h-0.1
		c-0.1,0-0.1,0.1-0.1,0.1c0,0.1,0.1,0.1,0.1,0.1s0,0,0.1,0l0,0c0.1,0,0.1,0.2,0.1,0.2c0,0.1,0,0.2,0,0.2c0,0.1,0,0.2,0,0.3
		c-0.1,0.4-0.2,0.8-0.4,1.1c-0.1,0.1,0.1,0.2,0.2,0.1c0.4-0.7,0.8-1.4,1.2-2.1l0,0c0.2,0,0.3,0,0.5-0.1c0.1,0,0.2,0,0.3,0
		c0.1,0,0.2,0,0.2,0c0.1-0.1,0.2-0.2,0.2-0.3C55.3-112.8,55.2-112.9,55.1-112.9z M50.7-111.1C50.6-111.1,50.6-111.1,50.7-111.1
		c-0.3-0.3-0.6-0.6-0.8-1c-0.1-0.2-0.2-0.4-0.2-0.6c0.1-0.2,0.3-0.2,0.5-0.2c0.3,0,0.5,0.1,0.8,0.1c0.2,0,0.5,0.1,0.7,0.1l0,0
		C51.3-112.1,51-111.6,50.7-111.1z M53.5-112.1L53.5-112.1c0.1-0.1,0.3-0.1,0.4-0.1l0,0c-0.1,0.2-0.3,0.5-0.4,0.7l0,0
		C53.5-111.6,53.6-111.9,53.5-112.1z M55.1-112.6c-0.1,0-0.1,0-0.2,0c-0.2,0-0.4,0-0.5,0.1l0,0l0.3-0.5l0,0c0.1,0,0.2,0.1,0.2,0.1
		C55-112.8,55.1-112.6,55.1-112.6L55.1-112.6z"/>
</g>
<g>
	<g>
		<g>
			<g>
				<g>
					<defs>
						<rect id="SVGID_9_" x="62.3" y="-117.6" width="9.4" height="9.8"/>
					</defs>
					<clipPath id="SVGID_10_">
						<use xlink:href="#SVGID_9_"  style="overflow:visible;"/>
					</clipPath>
					<g class="st42">
						<g>
							<g>
								<g>
									<defs>
										<rect id="SVGID_11_" x="62.3" y="-117.6" width="9.4" height="9.8"/>
									</defs>
									<clipPath id="SVGID_12_">
										<use xlink:href="#SVGID_11_"  style="overflow:visible;"/>
									</clipPath>
									<path class="st43" d="M62.5-112.8c0-0.6,0-1.3,0-1.9c0-0.4,0.2-0.6,0.5-0.8c1.2-0.7,2.4-1.3,3.6-1.9c0.2-0.1,0.6-0.1,0.8,0
										c1.2,0.6,2.4,1.3,3.6,1.9c0.3,0.2,0.5,0.5,0.5,0.8c0,1.3,0,2.6,0,3.9c0,0.4-0.2,0.7-0.5,0.8c-1.1,0.6-2.3,1.3-3.5,1.9
										c-0.3,0.2-0.7,0.2-1,0c-1.1-0.6-2.3-1.3-3.5-1.9c-0.4-0.2-0.5-0.5-0.5-0.9C62.5-111.4,62.5-112.1,62.5-112.8"/>
								</g>
							</g>
						</g>
						<g>
							<g>
								<g>
									<defs>
										<rect id="SVGID_13_" x="62.3" y="-117.6" width="9.4" height="9.8"/>
									</defs>
									<clipPath id="SVGID_14_">
										<use xlink:href="#SVGID_13_"  style="overflow:visible;"/>
									</clipPath>
									<path class="st44" d="M63.1-112.8c0-0.6,0-1.1,0-1.7c0-0.3,0.2-0.6,0.4-0.7c1-0.6,2.1-1.1,3.1-1.7c0.2-0.1,0.5-0.1,0.7,0
										c1.1,0.6,2.1,1.1,3.1,1.7c0.3,0.2,0.4,0.4,0.4,0.7c0,1.1,0,2.3,0,3.4c0,0.4-0.2,0.6-0.5,0.8c-1,0.6-2,1.1-3,1.7
										c-0.3,0.2-0.6,0.2-0.9,0c-1-0.6-2-1.1-3-1.7c-0.3-0.2-0.5-0.4-0.4-0.8C63.1-111.6,63.1-112.2,63.1-112.8 M63.5-112.8
										c0,0.5,0,1,0,1.5c0,0.3,0.1,0.4,0.3,0.6c0.9,0.5,1.8,1,2.8,1.5c0.2,0.1,0.5,0.1,0.6,0c0.9-0.5,1.9-1,2.8-1.5
										c0.2-0.1,0.3-0.3,0.3-0.6c0-1,0-2.1,0-3c0-0.3-0.2-0.5-0.4-0.6c-0.9-0.5-1.8-1-2.7-1.5c-0.2-0.1-0.4-0.2-0.7,0
										c-0.9,0.5-1.8,1-2.8,1.5c-0.1,0.1-0.2,0.3-0.2,0.5C63.6-113.9,63.5-113.2,63.5-112.8"/>
								</g>
							</g>
						</g>
						<g>
							<g>
								<g>
									<defs>
										<rect id="SVGID_15_" x="62.3" y="-117.6" width="9.4" height="9.8"/>
									</defs>
									<clipPath id="SVGID_16_">
										<use xlink:href="#SVGID_15_"  style="overflow:visible;"/>
									</clipPath>
									<polygon class="st45" points="65,-113.9 65,-112.6 67,-114.4 69,-112.6 69,-113.9 67,-115.6 									"/>
								</g>
							</g>
						</g>
						<g>
							<g>
								<g>
									<defs>
										<rect id="SVGID_17_" x="62.3" y="-117.6" width="9.4" height="9.8"/>
									</defs>
									<clipPath id="SVGID_18_">
										<use xlink:href="#SVGID_17_"  style="overflow:visible;"/>
									</clipPath>
									<rect x="66.5" y="-114.6" class="st46" width="1" height="4.5"/>
								</g>
							</g>
						</g>
					</g>
				</g>
			</g>
		</g>
	</g>
</g>
<path class="st1" d="M11,110.9c-10.2,9.5-11,25.4-1.5,35.7s25.4,11,35.7,1.5s11-25.4,1.5-35.7C37.3,102.1,21.2,101.4,11,110.9z
	 M30.9,132.7c-1.7,1.5-4.4,1.5-6.1-0.2c-1.5-1.7-1.5-4.4,0.2-6.1c1.7-1.5,4.4-1.5,6.1,0.2C32.8,128.3,32.8,131,30.9,132.7z"/>
<g>
	<g>
		<g>
			<g>
				<defs>
					<rect id="SVGID_19_" x="5.5" y="106.3" width="45" height="46.9"/>
				</defs>
				<clipPath id="SVGID_20_">
					<use xlink:href="#SVGID_19_"  style="overflow:visible;"/>
				</clipPath>
				<g class="st47">
					<g>
						<g>
							<defs>
								<rect id="SVGID_21_" x="5.5" y="106.3" width="45" height="46.9"/>
							</defs>
							<clipPath id="SVGID_22_">
								<use xlink:href="#SVGID_21_"  style="overflow:visible;"/>
							</clipPath>
							<path class="st48" d="M6.4,129.5c0-3,0-6.1,0-9.1c0-1.7,0.8-3,2.5-4c5.7-3.2,11.4-6.5,17.3-9.3c1.1-0.6,2.8-0.6,4,0
								c5.7,2.8,11.4,6.3,17.3,9.3c1.5,0.8,2.5,2.3,2.5,4c0,6.3,0,12.5,0,18.8c0,1.7-0.8,3.2-2.5,4c-5.5,3-11,6.1-16.7,9.1
								c-1.5,0.8-3.2,0.8-4.7,0c-5.5-3-11-6.1-16.7-9.1c-1.7-0.9-2.5-2.3-2.5-4.2C6.6,135.7,6.4,132.5,6.4,129.5"/>
						</g>
					</g>
					<g>
						<g>
							<defs>
								<rect id="SVGID_23_" x="5.5" y="106.3" width="45" height="46.9"/>
							</defs>
							<clipPath id="SVGID_24_">
								<use xlink:href="#SVGID_23_"  style="overflow:visible;"/>
							</clipPath>
							<path class="st49" d="M9.3,129.5c0-2.7,0-5.3,0-8c0-1.5,0.8-2.7,2.1-3.4c4.9-2.8,9.9-5.5,15-8.2c0.9-0.4,2.5-0.4,3.4,0
								c5.1,2.8,10.1,5.5,15,8.4c1.5,0.8,2.1,1.9,2.1,3.4c0,5.3,0,10.8,0,16.3c0,1.7-0.8,2.8-2.3,3.6c-4.7,2.7-9.7,5.3-14.4,8
								c-1.3,0.8-2.8,0.8-4.2,0c-4.7-2.7-9.7-5.3-14.6-8c-1.5-0.8-2.3-1.9-2.1-3.8C9.4,135,9.3,132.1,9.3,129.5 M11.5,129.7
								c0,2.5,0,4.9,0,7.4c0,1.3,0.6,2.1,1.5,2.7c4.4,2.5,8.7,4.9,13.3,7.4c0.8,0.4,2.3,0.4,2.8,0c4.6-2.3,8.9-4.9,13.3-7.4
								c1.1-0.6,1.5-1.5,1.5-2.7c0-4.9,0-9.9,0-14.6c0-1.3-0.8-2.3-1.9-2.8c-4.4-2.3-8.7-4.9-13.1-7.2c-1.1-0.6-2.1-0.8-3.2,0
								c-4.4,2.5-8.7,4.9-13.3,7.4c-0.6,0.4-1.1,1.3-1.1,2.5C11.7,124.5,11.5,127.2,11.5,129.7"/>
						</g>
					</g>
					<g>
						<g>
							<defs>
								<rect id="SVGID_25_" x="5.5" y="106.3" width="45" height="46.9"/>
							</defs>
							<clipPath id="SVGID_26_">
								<use xlink:href="#SVGID_25_"  style="overflow:visible;"/>
							</clipPath>
							<polygon class="st50" points="18.4,124.2 18.4,130.2 28,122.1 37.7,130.2 37.7,124.2 28,116 							"/>
						</g>
					</g>
					<g>
						<g>
							<defs>
								<rect id="SVGID_27_" x="5.5" y="106.3" width="45" height="46.9"/>
							</defs>
							<clipPath id="SVGID_28_">
								<use xlink:href="#SVGID_27_"  style="overflow:visible;"/>
							</clipPath>
							<rect x="25.8" y="120.7" class="st51" width="4.7" height="21.4"/>
						</g>
					</g>
				</g>
			</g>
		</g>
	</g>
</g>
<g>
	<path class="st1" d="M130,160H-0.1V0H130V160z M1.2,158.4h127.3V1.8H1.2V158.4z"/>
</g>
<g>
	<g>
		<path class="st17" d="M-535.1,90.7L-535.1,90.7c-0.2,0-0.4,0.1-0.4,0.3v6.4c0,0.2,0.1,0.3,0.3,0.3l0,0c0.2,0,0.3-0.1,0.3-0.3V91
			C-534.7,90.8-534.9,90.7-535.1,90.7z"/>
		<path class="st17" d="M-533.1,88.9L-533.1,88.9c-0.2,0-0.4,0.1-0.4,0.3v9.9c0,0.2,0.1,0.3,0.3,0.3l0,0c0.2,0,0.3-0.1,0.3-0.3v-9.9
			C-532.8,89-533,88.9-533.1,88.9z"/>
		<path class="st17" d="M-531.2,89.8L-531.2,89.8c-0.2,0-0.4,0.1-0.4,0.3v8.2c0,0.2,0.1,0.3,0.3,0.3l0,0c0.2,0,0.3-0.1,0.3-0.3v-8.2
			C-530.9,89.9-531,89.8-531.2,89.8z"/>
		<path class="st17" d="M-529.3,90.2L-529.3,90.2c-0.2,0-0.4,0.1-0.4,0.3v7.2c0,0.2,0.1,0.3,0.3,0.3l0,0c0.2,0,0.3-0.1,0.3-0.3v-7.2
			C-529,90.4-529.1,90.2-529.3,90.2z"/>
		<path class="st17" d="M-527.4,89.8L-527.4,89.8c-0.2,0-0.4,0.1-0.4,0.3v8c0,0.2,0.1,0.3,0.3,0.3l0,0c0.2,0,0.3-0.1,0.3-0.3v-8
			C-527.1,90-527.2,89.8-527.4,89.8z"/>
		<path class="st17" d="M-525.5,87.5L-525.5,87.5c-0.2,0-0.4,0.1-0.4,0.3v12.7c0,0.2,0.1,0.3,0.3,0.3l0,0c0.2,0,0.3-0.1,0.3-0.3
			V87.8C-525.1,87.6-525.3,87.5-525.5,87.5z"/>
		<path class="st17" d="M-523.6,89.5c-0.2,0-0.3,0.1-0.3,0.3v8.7c0,0.2,0.1,0.3,0.3,0.3c0.2,0,0.3-0.1,0.3-0.3v-8.6
			C-523.3,89.7-523.4,89.5-523.6,89.5z"/>
		<path class="st17" d="M-521.6,91.4L-521.6,91.4c-0.2,0-0.4,0.1-0.4,0.3v4.8c0,0.2,0.1,0.3,0.3,0.3l0,0c0.2,0,0.3-0.1,0.3-0.3v-4.8
			C-521.3,91.6-521.4,91.4-521.6,91.4z"/>
		<path class="st17" d="M-515.9,91.4L-515.9,91.4c-0.2,0-0.4,0.1-0.4,0.3v4.8c0,0.2,0.1,0.3,0.3,0.3l0,0c0.2,0,0.3-0.1,0.3-0.3v-4.8
			C-515.6,91.6-515.7,91.4-515.9,91.4z"/>
		<path class="st17" d="M-519.7,90L-519.7,90c-0.2,0-0.4,0.1-0.4,0.3V98c0,0.2,0.1,0.3,0.3,0.3l0,0c0.2,0,0.3-0.1,0.3-0.3v-7.7
			C-519.4,90.1-519.5,90-519.7,90z"/>
		<path class="st17" d="M-517.8,88.6L-517.8,88.6c-0.2,0-0.4,0.1-0.4,0.3v10.4c0,0.2,0.1,0.3,0.3,0.3l0,0c0.2,0,0.3-0.1,0.3-0.3
			V88.9C-517.5,88.8-517.6,88.6-517.8,88.6z"/>
		<path class="st17" d="M-512,90.7L-512,90.7c-0.2,0-0.4,0.1-0.4,0.3v6.3c0,0.2,0.1,0.3,0.3,0.3l0,0c0.2,0,0.3-0.1,0.3-0.3V91
			C-511.7,90.8-511.8,90.7-512,90.7z"/>
		<path class="st17" d="M-513.9,89.8L-513.9,89.8c-0.2,0-0.4,0.1-0.4,0.3v8.1c0,0.2,0.1,0.3,0.3,0.3l0,0c0.2,0,0.3-0.1,0.3-0.3v-8.1
			C-513.6,90-513.8,89.8-513.9,89.8z"/>
	</g>
	<g>
		<path class="st17" d="M-505,86.2c0-2.5-0.5-4.9-1.5-7.2c-0.5-1.1-1-2.2-1.7-3.1c-0.1-0.1-0.2-0.2-0.2-0.3c-0.6-0.9-1.3-1.7-2-2.4
			c-0.8-0.8-1.8-1.6-2.7-2.3c-1-0.7-2.1-1.2-3.1-1.7c-2.3-1-4.7-1.5-7.2-1.5s-4.9,0.5-7.2,1.5c-1.1,0.5-2.2,1-3.1,1.7
			c-1,0.7-1.9,1.4-2.7,2.3c-0.7,0.7-1.4,1.6-2,2.4c-0.1,0.1-0.2,0.2-0.2,0.3c-0.7,1-1.2,2.1-1.7,3.1c-1,2.3-1.5,4.7-1.5,7.2h1.5
			c0-4,1.4-7.8,3.8-10.7c3.1-3.9,7.9-6.3,13.2-6.3s10.1,2.5,13.2,6.3c2.4,2.9,3.8,6.6,3.8,10.7H-505z"/>
		<path class="st17" d="M-504.6,86.2h-2.4c-0.9,0-1.7,0.8-1.7,1.7v10.7c0,0.9,0.8,1.7,1.7,1.7h2.3c0.9,0,1.7-0.8,1.7-1.7V88
			C-502.9,87-503.7,86.2-504.6,86.2z"/>
		<path class="st17" d="M-540.2,86.2h-2.3c-0.9,0-1.7,0.8-1.7,1.7v10.7c0,0.9,0.8,1.7,1.7,1.7h2.3c0.9,0,1.7-0.8,1.7-1.7V88
			C-538.5,87-539.2,86.2-540.2,86.2z"/>
	</g>
</g>
<path class="st0" d="M-456.3,123.5"/>
<g>
	<g>
		<path class="st0" d="M-539,104c0.4,0,0.8,0.1,1.1,0.2c0.3,0.1,0.7,0.3,0.9,0.6c0.3,0.3,0.5,0.6,0.6,0.9c0.1,0.4,0.2,0.7,0.2,1.1
			v4.1c0,0.8-0.3,1.5-0.9,2.1l-0.4,0.5l0.4,0.4c0.6,0.5,0.9,1.2,0.9,2v7h-0.4c-0.1,0-0.2,0-0.3-0.1c-0.1-0.1-0.1-0.2-0.1-0.3V116
			c0-0.6-0.2-1.1-0.6-1.4c-0.4-0.4-0.9-0.6-1.4-0.6h-1.5v8.6c0,0.1,0,0.2-0.1,0.3c-0.1,0.1-0.2,0.1-0.3,0.1h-0.4v-19H-539z
			 M-540.5,113.1h1.5c0.6,0,1.1-0.2,1.4-0.6c0.4-0.4,0.6-0.9,0.6-1.4V107c0-0.6-0.2-1-0.6-1.4c-0.4-0.4-0.9-0.6-1.4-0.6h-1.5V113.1z
			"/>
		<path class="st0" d="M-534.8,104h4.6v0.5c0,0.1,0,0.2-0.1,0.3c-0.1,0.1-0.2,0.1-0.3,0.1h-3.4v8.2h3.3v0.4c0,0.1,0,0.2-0.1,0.3
			c-0.1,0.1-0.2,0.1-0.3,0.1h-2.9v8.2h3.4c0.1,0,0.2,0,0.3,0.1c0.1,0.1,0.1,0.2,0.1,0.3v0.4h-4.6V104z"/>
		<path class="st0" d="M-526.5,104c0.3,0,0.7,0.1,1,0.2s0.6,0.3,0.8,0.6c0.2,0.2,0.4,0.5,0.6,0.8c0.1,0.3,0.2,0.6,0.2,1v2.4h-0.4
			c-0.1,0-0.2,0-0.3-0.1c-0.1-0.1-0.1-0.2-0.1-0.3v-2c0-0.5-0.2-0.9-0.5-1.2c-0.3-0.3-0.8-0.5-1.2-0.5c-0.5,0-0.9,0.2-1.2,0.5
			c-0.3,0.3-0.5,0.8-0.5,1.2v13.7c0,0.5,0.2,0.9,0.5,1.2c0.3,0.4,0.7,0.5,1.2,0.5s0.9-0.2,1.2-0.5s0.5-0.8,0.5-1.2v-2
			c0-0.1,0-0.2,0.1-0.3c0.1-0.1,0.2-0.1,0.3-0.1h0.4v2.4c0,0.4-0.1,0.7-0.2,1c-0.1,0.3-0.3,0.6-0.6,0.8c-0.2,0.2-0.5,0.4-0.8,0.6
			c-0.3,0.1-0.7,0.2-1,0.2c-0.4,0-0.7-0.1-1-0.2s-0.6-0.3-0.8-0.6c-0.2-0.2-0.4-0.5-0.6-0.8c-0.1-0.3-0.2-0.7-0.2-1v-13.7
			c0-0.3,0.1-0.7,0.2-1c0.1-0.3,0.3-0.6,0.6-0.8c0.2-0.2,0.5-0.4,0.8-0.6C-527.2,104.1-526.9,104-526.5,104z"/>
		<path class="st0" d="M-520.1,104c0.3,0,0.7,0.1,1,0.2c0.3,0.1,0.6,0.3,0.8,0.6c0.2,0.2,0.4,0.5,0.6,0.8c0.1,0.3,0.2,0.6,0.2,1
			v13.7c0,0.4-0.1,0.7-0.2,1c-0.1,0.3-0.3,0.6-0.6,0.8c-0.2,0.2-0.5,0.4-0.8,0.6c-0.3,0.1-0.7,0.2-1,0.2c-0.4,0-0.7-0.1-1-0.2
			c-0.3-0.1-0.6-0.3-0.8-0.6c-0.2-0.2-0.4-0.5-0.6-0.8c-0.1-0.3-0.2-0.7-0.2-1v-13.7c0-0.3,0.1-0.7,0.2-1s0.3-0.6,0.6-0.8
			c0.2-0.2,0.5-0.4,0.8-0.6C-520.7,104.1-520.4,104-520.1,104z M-520.1,122.1c0.5,0,0.9-0.2,1.2-0.5c0.3-0.3,0.5-0.8,0.5-1.2v-13.8
			c0-0.5-0.2-0.9-0.5-1.2c-0.3-0.3-0.8-0.5-1.2-0.5c-0.5,0-0.9,0.2-1.2,0.5s-0.5,0.8-0.5,1.2v13.7c0,0.5,0.2,0.9,0.5,1.2
			C-520.9,121.9-520.5,122.1-520.1,122.1z"/>
		<path class="st0" d="M-513.8,104c0.4,0,0.8,0.1,1.1,0.2s0.7,0.3,0.9,0.6c0.3,0.3,0.5,0.6,0.6,0.9c0.2,0.4,0.2,0.8,0.2,1.2v4.1
			c0,0.8-0.3,1.5-0.9,2.1l-0.4,0.4l0.4,0.4c0.6,0.5,0.9,1.2,0.9,2v7h-0.4c-0.1,0-0.2,0-0.3-0.1c-0.1-0.1-0.1-0.2-0.1-0.3V116
			c0-0.6-0.2-1.1-0.6-1.4c-0.4-0.4-0.9-0.6-1.4-0.6h-1.5v8.6c0,0.1,0,0.2-0.1,0.3c-0.1,0.1-0.2,0.1-0.3,0.1h-0.4v-19H-513.8z
			 M-515.3,113.1h1.5c0.6,0,1.1-0.2,1.4-0.6c0.4-0.4,0.6-0.9,0.6-1.4V107c0-0.6-0.2-1-0.6-1.4c-0.4-0.4-0.9-0.6-1.4-0.6h-1.5V113.1z
			"/>
		<path class="st0" d="M-507.4,104c0.4,0,0.8,0.1,1.1,0.2c0.3,0.1,0.7,0.3,0.9,0.6c0.3,0.3,0.5,0.6,0.6,0.9c0.1,0.4,0.2,0.7,0.2,1.1
			v13.1c0,0.4-0.1,0.8-0.2,1.1c-0.1,0.3-0.4,0.7-0.6,0.9c-0.3,0.3-0.6,0.5-0.9,0.6c-0.3,0.1-0.7,0.2-1.1,0.2h-2.3V104H-507.4z
			 M-508.8,122.1h1.5c0.6,0,1.1-0.2,1.4-0.6c0.4-0.4,0.6-0.9,0.6-1.4v-13.2c0-0.6-0.2-1-0.6-1.4s-0.9-0.6-1.4-0.6h-1.5V122.1z"/>
	</g>
	<g>
		<path class="st17" d="M-528.8,129c0.4-0.1,0.8-0.1,1.2-0.1c0.3,0,0.5,0,0.8,0c0.2,0,0.5,0,0.7,0.1c0.3,0,0.5,0.2,0.8,0.4
			c0.1,0.1,0.2,0.3,0.1,0.5c-0.1,0.2-0.3,0.3-0.4,0.1c-0.2-0.2-0.4-0.3-0.7-0.3c-0.4-0.1-0.8,0-1.2,0c-0.6,0-1.2,0.1-1.8,0.2
			c-0.3,0.1-0.6,0.1-0.9,0.2c-0.3,0.1-0.6,0.1-0.9,0.2c-0.1,0-0.1,0-0.2,0c-0.3,0-0.5-0.1-0.5-0.4c0-0.1,0-0.2-0.1-0.3
			c0-0.1,0.1-0.2,0.2-0.2c0.1,0,0.3,0,0.4,0c0.3,0,0.6-0.1,0.9-0.1c0.2,0,0.4-0.2,0.4-0.4c0.2-0.9,0.5-1.9,0.8-2.8
			c0.1-0.3,0.2-0.6,0.4-0.9c0.3-0.5,0.6-1,0.8-1.5c0-0.1,0.1-0.1,0.1-0.2c0.1-0.2,0.2-0.2,0.4-0.1c0.1,0,0.1,0,0.1,0.1
			c0.2,0.1,0.3,0.4,0.2,0.6c-0.3,0.5-0.6,1-0.9,1.5c-0.2,0.4-0.4,0.8-0.5,1.3c-0.2,0.6-0.4,1.2-0.5,1.8c0,0.1-0.1,0.2,0,0.4
			C-529,129-528.9,129-528.8,129z"/>
		<path class="st17" d="M-525.4,125.3c0.1-0.1,0.1-0.2,0.2-0.1c0.1,0,0.3,0.1,0.4,0.2c0.1,0.1,0.1,0.1,0.1,0.2s-0.1,0.2-0.2,0.3
			c-0.2,0.1-0.3,0.3-0.4,0.4c-0.1,0.1-0.2,0.3-0.2,0.4c-0.1,0.1-0.1,0.3-0.2,0.4c0,0.1,0,0.2,0.1,0.3c0,0,0.1,0,0.1,0.1
			c0.1,0.1,0.1,0.2,0,0.3c-0.2,0.1-0.4,0.2-0.6,0.1c-0.1,0-0.2-0.1-0.2-0.1c-0.1-0.1-0.2-0.3-0.3-0.4c-0.1,0.1-0.3,0.3-0.4,0.4
			s-0.2,0.2-0.3,0.2c-0.2,0.1-0.3,0-0.5-0.1c-0.1-0.1-0.2-0.2-0.2-0.3c-0.1-0.1-0.1-0.2-0.1-0.3c0.1-0.5,0.2-1,0.5-1.5
			c0.2-0.3,0.4-0.5,0.7-0.6c0.3-0.2,0.7-0.1,1,0.1c0.1,0.1,0.1,0.1,0.3,0.2C-525.5,125.3-525.5,125.3-525.4,125.3z M-527.1,127
			c0.2-0.2,0.3-0.3,0.5-0.5c0.1-0.2,0.3-0.4,0.5-0.4c0.1,0,0.1-0.2,0.1-0.3c-0.1-0.2-0.2-0.3-0.5-0.1l-0.1,0.1
			c-0.3,0.3-0.5,0.8-0.6,1.3C-527.1,127-527.1,127-527.1,127z"/>
		<path class="st17" d="M-523.1,125.1c0.3-0.3,0.7-0.3,1,0c0.2,0.1,0.3,0.4,0.3,0.6c0,0.9-0.4,1.7-1.1,2.3c-0.1,0.1-0.2,0.1-0.3,0.2
			c-0.2,0.1-0.4,0.1-0.6,0l-0.1-0.1c0,0.1,0,0.1-0.1,0.2c-0.1,0.2-0.3,0.3-0.4,0.2c-0.2-0.1-0.4-0.3-0.4-0.5c0-0.1,0-0.3,0-0.4
			c0.1-0.6,0.3-1.2,0.6-1.7c0.5-1,1-2,1.5-3c0.2-0.4,0.5-0.8,0.7-1.2c0,0,0-0.1,0.1-0.1c0.2-0.3,0.4-0.3,0.7-0.1
			c0.1,0.1,0.2,0.3,0.1,0.4c-0.5,0.5-0.8,1.1-1.1,1.7s-0.6,1.1-0.9,1.7c0,0.1-0.1,0.2-0.1,0.2l0,0
			C-523.3,125.2-523.2,125.1-523.1,125.1z M-522.5,125.5c-0.1-0.1-0.2,0-0.3,0.1c-0.3,0.2-0.5,0.6-0.7,0.9c-0.1,0.2-0.2,0.3-0.3,0.5
			c0.2,0.2,0.2,0.2,0.3,0.5C-522.9,127.1-522.4,126.2-522.5,125.5z"/>
		<path class="st17" d="M-520.8,126.9c0,0.1,0,0.2,0.1,0.3c0.1,0.1,0.2,0,0.3,0c0.1,0,0.3,0,0.4,0s0.1,0.1,0.1,0.2s-0.1,0.2-0.1,0.2
			c-0.1,0-0.1,0.1-0.2,0.1c-0.4,0.3-0.8,0.1-1-0.2c-0.2-0.3-0.4-0.6-0.3-1c0.2-0.6,0.5-1,0.9-1.4c0.5-0.4,1.2-0.3,1.4,0.3
			c0.1,0.2,0,0.4-0.1,0.5c-0.1,0.2-0.3,0.3-0.5,0.4s-0.5,0.1-0.7,0c0,0-0.1-0.1-0.2-0.1C-520.7,126.5-520.8,126.7-520.8,126.9z
			 M-519.9,125.7c-0.1,0.1-0.2,0.1-0.2,0.2c-0.1,0,0,0.1,0,0.1c0.1,0,0.2-0.1,0.4-0.3C-519.8,125.7-519.9,125.7-519.9,125.7z"/>
		<path class="st17" d="M-518.3,128.3c0.1,0.1,0.1,0.2,0.1,0.3c-0.1,0.1-0.1,0.2-0.3,0.2c-0.1,0-0.2,0-0.3-0.1
			c-0.3-0.2-0.4-0.4-0.4-0.7c0-0.8,0.2-1.5,0.5-2.2c0.3-0.8,0.8-1.6,1.3-2.4c0.1-0.1,0.2-0.2,0.3-0.4c0.1-0.1,0.2-0.1,0.3-0.1
			c0.1,0,0.3,0.1,0.4,0.2c0.1,0.1,0.1,0.2,0,0.3c-0.3,0.2-0.4,0.6-0.6,0.9c-0.4,0.6-0.8,1.3-1,2C-518.2,127-518.3,127.6-518.3,128.3
			C-518.4,128.3-518.4,128.3-518.3,128.3z"/>
	</g>
</g>
</svg>
