<?xml version="1.0" encoding="utf-8"?>
<!-- Generator: Adobe Illustrator 25.0.0, SVG Export Plug-In . SVG Version: 6.00 Build 0)  -->
<svg version="1.1" id="Layer_1" xmlns="http://www.w3.org/2000/svg" xmlns:xlink="http://www.w3.org/1999/xlink" x="0px" y="0px"
	 viewBox="0 0 1500 1500" style="enable-background:new 0 0 1500 1500;" xml:space="preserve">
<style type="text/css">
	.st0{fill:none;stroke:#FFFFFF;stroke-width:100;stroke-miterlimit:10;}
	.st1{fill:#D84440;}
</style>
<g>
	<path d="M1349.5,1328.5"/>
	<path class="st0" d="M1349.5,1328.5"/>
</g>
<g>
	<path class="st1" d="M576.6,843.1c0,60.6,65.7,110.4,146.3,110.4s146.3-49.8,146.3-110.4V196.8c82.7,20.6,161.1,57.4,230,109.3
		C1074.7,170.9,910.4,69.1,810.8,65.9V186v569.4c-24.4-14.1-55.1-22.7-89-22.7C642.3,732.6,576.6,781.4,576.6,843.1z"/>
	<path class="st1" d="M932.6,308.3v279.3c7.4,6.5,13.8,11.9,20.1,19.5c125.1,127.7,127.2,333.4,7.4,464.4c-4.2,4.3-10.6,4.3-14.8,0
		c-4.2-4.3-4.2-10.8,0-14.1c112.3-122.3,110.2-316.1-7.4-435.1c-2.1-2.2-4.2-4.3-6.4-5.4v214.3c0,4.3,0,8.7,0,13
		c0,124.5-102.8,224.1-225.7,215.4c-103.9-7.6-187.6-93.1-195-200.3c-8.5-125.6,89-230.6,209.8-230.6c8.5,0,15.9,0,24.4,1.1v-97.4
		c-8.5-1.1-15.9-1.1-24.4-1.1c-78.4,0-156.9,30.3-216.2,92c-116.6,120.2-118.7,312.8-7.4,435.1c4.2,4.3,4.2,10.8,0,14.1
		c-4.2,4.3-10.6,4.3-14.8,0c-119.8-131-117.6-336.6,7.4-464.4c69.9-71.4,163.2-103.9,254.4-96.3V267.2c-8.5,0-15.9-1.1-24.4-1.1
		c-313.7,0-567,262-562.8,584.5c4.2,310.7,251.2,564,555.3,568.3c314.8,4.3,571.2-255.5,571.2-575.9
		C1285.6,600.6,1140.4,392.8,932.6,308.3z M392.1,1180.8c-4.2,4.3-10.6,4.3-14.8,0c-85.8-90.9-132.5-211.1-132.5-338.8
		c0-131,49.8-253.3,139.9-345.3c4.2-4.3,11.7-4.3,15.9,1.1c3.2,4.3,2.1,9.7-1.1,14.1C313.7,600.6,266,717.5,266,843.1
		c0,121.2,44.5,236,127.2,323.7C396.4,1171,396.4,1177.5,392.1,1180.8z M428.2,1144c-4.2,4.3-10.6,4.3-14.8,0
		c-159-171-156.9-442.7,7.4-610.5c4.2-4.3,11.7-4.3,15.9,1.1c3.2,4.3,2.1,9.7-1.1,14.1c-155.8,160.2-157.9,418.9-6.4,581.3
		C431.4,1134.2,431.4,1140.7,428.2,1144z M464.2,1108.3c-4.2,4.3-10.6,4.3-14.8,0c-139.9-150.5-137.8-389.7,7.4-538
		c4.2-4.3,11.7-4.3,15.9,1.1c3.2,4.3,2.1,9.7-1.1,14.1c-136.7,139.6-138.8,365.9-6.4,508.7C467.4,1097.4,467.4,1103.9,464.2,1108.3z
		 M981.4,1108.3c-4.2-4.3-4.2-10.8,0-14.1c131.4-142.9,129.3-368-6.4-508.7c-3.2-3.2-4.2-9.7-1.1-14.1c4.2-5.4,10.6-5.4,15.9-1.1
		c144.1,148.3,147.3,386.4,7.4,538C992,1111.5,985.6,1111.5,981.4,1108.3z M1017.4,1144c-4.2-4.3-4.2-10.8,0-14.1
		c72.1-77.9,112.3-179.7,112.3-286.8c0-111.5-42.4-215.4-118.7-294.4c-4.2-4.3-4.2-11.9,1.1-16.2c4.2-3.2,9.5-2.2,13.8,1.1
		C1106.5,615.7,1151,726.2,1151,842c0,113.7-41.3,219.7-117.6,302C1028,1148.3,1021.7,1148.3,1017.4,1144z M1068.3,1180.8
		c-4.2,4.3-10.6,4.3-14.8,0c-4.2-4.3-4.2-10.8,0-14.1c81.6-87.7,127.2-202.4,127.2-323.7c0-124.5-47.7-242.5-133.5-331.2
		c-3.2-3.2-4.2-9.7-1.1-14.1c4.2-5.4,10.6-5.4,15.9-1.1c90.1,92,139.9,215.4,139.9,345.3C1200.8,969.7,1153.1,1089.9,1068.3,1180.8z
		"/>
</g>
</svg>
