<?xml version="1.0" encoding="utf-8"?>
<!-- Generator: Adobe Illustrator 25.0.0, SVG Export Plug-In . SVG Version: 6.00 Build 0)  -->
<svg version="1.1" id="Layer_1" xmlns="http://www.w3.org/2000/svg" xmlns:xlink="http://www.w3.org/1999/xlink" x="0px" y="0px"
	 viewBox="0 0 1500 1500" style="enable-background:new 0 0 1500 1500;" xml:space="preserve">
<style type="text/css">
	.st0{fill:none;stroke:#FFFFFF;stroke-width:100;stroke-miterlimit:10;}
	.st1{fill-rule:evenodd;clip-rule:evenodd;fill:#53B67B;}
	.st2{fill:#D84440;}
</style>
<g>
	<path d="M1349.5,1328.5"/>
	<path class="st0" d="M1349.5,1328.5"/>
</g>
<g>
	<path class="st1" d="M728.4,653.8h55.4v43.8h-49c-0.5,9.5-2.4,18.9-5.6,27.8c-3.1,7.2-7.4,13.8-12.7,19.6
		c5.7-1.4,11.6-2.1,17.5-2.3c8.3,0.3,16.5,1.5,24.5,3.6c10.7,2.8,21.7,4.4,32.7,4.9c5.8,0.1,11.6-0.5,17.4-1.7
		c6.8-1.7,13.3-4.1,19.6-7.1l24.5,54.5c-10.1,5.2-20.8,9.3-31.8,12.3c-9.6,2.4-19.5,3.5-29.4,3.4c-13.3-0.3-26.5-2.3-39.2-6
		c-19.3-5.3-31.3-8.3-36-9.2c-4.9-0.8-9.9-1.2-15-1.2c-15.7,0-33,5.5-52,16.4l-23.6-52c25.7-18.3,38.5-36.6,38.5-55
		c0-1,0-3.7-0.4-8.2h-38.1v-43.8h27.3c-4.6-16-7.3-25.3-7.8-27.9c-0.9-4.8-1.3-9.6-1.3-14.4c-0.2-14.6,4.1-28.8,12.2-40.9
		c7.7-11.8,18.9-21,32-26.3c17.1-6.2,35.3-8.9,53.4-8.2c16.8-0.6,33.5,1.8,49.5,7.1c12.4,4.7,23.2,12.9,31.1,23.5
		c8.7,11.6,14.7,25,17.5,39.2l-69.9,11c-3.5-13.1-7.5-21.7-12.1-25.8c-9.2-8.7-23.7-8.4-32.6,0.6c-4.6,5.4-7,12.5-6.5,19.6
		c0,4.4,0.4,8.7,1.3,13c0.8,4.2,3.8,14,8.7,29.4V653.8z M739.1,431.7c138.1,0,250,111.9,250,250s-111.9,250-250,250
		s-250-111.9-250-250S601,431.7,739.1,431.7z"/>
	<g>
		<path class="st2" d="M32.8,652.1c34.1-41.2,69.8-78.6,106.8-112.3c167.3-152.3,365.9-233.6,570.7-237.7
			c76.6-1.5,153.9,7.8,230.6,28.2L872,399.2c-53.5-10.7-107-15.5-160-14.4c-184.5,3.7-364.3,77.7-516.5,216.3l0,0
			c-27.1,24.7-53.2,51.2-78.2,79.6c47.5,55.1,100.4,102.7,157,142.7c34.9,24.6,71.1,46.4,108.5,65.2l-61.4,61.4
			c-32.5-17.6-64.1-37.2-94.8-58.8c-71.7-50.6-137.9-112.4-195.8-185C17.8,689.9,19,666.8,32.8,652.1L32.8,652.1L32.8,652.1z
			 M1162.1,422c51.6,29.5,102.3,64.5,151.6,105.2c45.2,37.3,89.1,79,131.2,125.3c13.6,14.9,14.2,37,2.6,52.6
			c-48.2,68.1-103.6,126.2-164.2,174.6c-151.6,121-335.8,180.6-522.3,181.5c-94.2,0.5-196-21.5-196-39.6l52.7-55.2
			c47.4,8.2,95.3,12.2,143,12c168.3-0.7,334.4-54.5,471.1-163.6c46.7-37.2,89.9-81,128.7-131.3c-32.5-33.9-65.7-64.7-99.3-92.4
			c-52-42.9-105.5-78.9-160-108.2L1162.1,422L1162.1,422z M738.7,428.2c31.1,0,60.9,5.6,88.4,15.9l-66.4,66.4
			c-7.2-0.9-14.6-1.4-22-1.4c-47.6,0-90.7,19.3-121.9,50.5s-50.5,74.3-50.5,121.9c0,7.5,0.5,14.8,1.4,22l-66.4,66.4
			c-10.3-27.5-15.9-57.3-15.9-88.4c0-70,28.4-133.3,74.2-179.1C605.4,456.6,668.7,428.2,738.7,428.2L738.7,428.2z M979.9,604.1
			c7.8,24.4,12,50.4,12,77.4c0,69.9-28.4,133.3-74.2,179.1c-45.9,45.8-109.2,74.2-179.1,74.2c-27,0-53-4.2-77.4-12.1l69-69
			c2.8,0.1,5.6,0.2,8.4,0.2c47.6,0,90.7-19.3,121.9-50.5c31.2-31.2,50.5-74.3,50.5-121.9c0-2.8-0.1-5.6-0.2-8.4L979.9,604.1
			L979.9,604.1z"/>
	</g>
	<path class="st2" d="M798.2,1056.8"/>
	<path class="st2" d="M798.2,1056.8"/>
	<g>
		<path class="st2" d="M623.5,828.9l-35.3-35.3l442.6-442.6l35.3,35.4L623.5,828.9L623.5,828.9z"/>
	</g>
	<g>
		<path class="st2" d="M422,1030.4L386.6,995l442.6-442.6l35.3,35.4L422,1030.4L422,1030.4z"/>
	</g>
</g>
</svg>
