<svg xmlns="http://www.w3.org/2000/svg" width="70.054" height="70.054" viewBox="0 0 70.054 70.054">
  <g>
    <ellipse cx="35.027" cy="35.027" fill="rgb(236,236,236)" rx="35.027" ry="35.027"/>
    <ellipse cx="35.019" cy="29.317" fill="rgb(255,255,255)" rx="13.622" ry="17.622"/>
    <path fill="rgb(255,255,255)" fill-rule="evenodd" d="M35.01873945 48.18225562c-11.4054054 0-21.4054054 3.45945946-27.2972973 8.75675676 6.43243243 7.94594594 16.27027027 13.08108108 27.2972973 13.08108108 11.02702702 0 20.86486486-5.08108108 27.2972973-13.08108108-5.8918919-5.24324324-15.94594595-8.75675676-27.2972973-8.75675676z"/>
    <path fill="rgb(255,255,255)" fill-rule="evenodd" d="M36.53225296 57.2633367h-3.02702703c-2.86486486 0-5.1891892-2.32432432-5.1891892-5.18918919V40.23630968c0-2.86486487 2.32432434-5.1891892 5.1891892-5.1891892h3.02702703c2.86486487 0 5.1891892 2.32432433 5.1891892 5.1891892v11.83783783c0 2.86486487-2.32432433 5.1891892-5.1891892 5.1891892v-1e-8z"/>
    <path fill="rgb(255,255,255)" fill-rule="evenodd" d="M23.23495566 30.12820156c.8108108 2.27027028.4864865 4.4864865-.7027027 4.86486487-1.1891892.37837838-2.75675676-1.13513513-3.56756757-3.4054054-.8108108-2.27027027-.48648648-4.48648649.7027027-4.86486487 1.1891892-.43243243 2.81081082 1.08108108 3.56756757 3.4054054z"/>
    <ellipse cx="48.848" cy="30.86" fill="rgb(255,255,255)" rx="4.378" ry="2.27" transform="rotate(-71.000075 48.8475653 30.8597348)"/>
    <path fill="rgb(255,255,255)" fill-rule="evenodd" d="M23.0727935 30.02009346c-1.78378378-3.24324324-3.56756757-6.64864865-3.5135135-10.32432432.1081081-3.67567568 2.86486485-7.56756757 6.54054053-7.4054054.64864865 0 1.2972973.16216215 1.8918919.05405404 1.24324323-.16216216 2.2162162-1.24324324 3.24324323-2 2.32432433-1.72972973 5.56756757-2.1081081 8.21621622-1.02702702 1.67567568.64864865 3.08108108 1.83783784 4.64864865 2.5945946 3.02702703 1.4054054 6.7027027 1.2972973 9.62162162-.37837839-.5945946 1.13513514-1.62162162 2.05405406-2.8108108 2.4864865 1.08108107.32432431 2.3243243.32432431 3.4054054-.1081081-.64864865 1.18918917-1.72972974 2.1081081-2.97297298 2.59459458.91891892.05405405 1.83783784.1081081 2.8108108.21621621-.8108108 1.13513514-1.94594593 2-3.24324323 2.4864865.75675676 0 1.45945946.05405404 2.21621622.05405404-.54054055 1.62162162-1.94594595 2.91891892-3.62162163 3.2972973h1.4054054c-1.56756756 2.21621622-3.08108107 4.43243243-4.64864864 6.7027027-.43243243.64864865-.91891892 1.2972973-1.56756757 1.72972973-.54054054.32432433-1.1891892.4864865-1.78378378.64864865-4.5945946 1.02702703-9.2972973 1.35135135-13.94594595.91891892-1.62162162-.16216216-3.24324324-.43243243-4.54054054-1.4054054-1.24324324-.97297298-1.94594594-2.91891892-1.08108108-4.21621622"/>
    <path fill="rgb(255,255,255)" fill-rule="evenodd" d="M26.20792864 51.53360697c.00042702-.00728648.00085946-.01456756.0012919-.02185405-.1123784-.17332973-.20415677-.36378919-.27156217-.57274054.09856216-.09856216.2170973-.19712973.33132432-.2956919.1211081-1.54107567.32436757-3.08215134.64164865-4.62322702.91891892 1.02702703 2.4864865 1.1891892 3.83783784 1.24324324 2.1081081.10810811 4.2162162.16216217 6.27027027.27027027.27027027 1.4054054.43243243 3.13513514-.5945946 4.10810811-.48648648.4864865-1.13513513.7027027-1.78378378.86486487-1.4054054.37837837-2.86486487.5945946-4.32432433.5945946-1.51403783 0-3.31797297-.37272433-4.1068162-1.58942163.01716215-.28947568.0370162-.57895676.05976215-.86843243.0737081-.0636.14561622-.1271946.20921622-.1907946"/>
    <path fill="rgb(255,255,255)" fill-rule="evenodd" d="M43.7754962 51.53360697c-.00042702-.00728648-.00085946-.01456756-.0012919-.02185405.11237839-.17332973.20415677-.36378919.27156217-.57274054-.09856216-.09856216-.2170973-.19712973-.33132432-.2956919-.1211081-1.54107567-.32436757-3.08215134-.64164865-4.62322702-.91891892 1.02702703-2.4864865 1.1891892-3.83783784 1.24324324-2.1081081.10810811-4.2162162.16216217-6.27027027.27027027-.27027027 1.4054054-.43243243 3.13513514.5945946 4.10810811.48648648.4864865 1.13513513.7027027 1.78378378.86486487 1.4054054.37837837 2.86486487.5945946 4.32432433.5945946 1.51403783 0 3.31797297-.37272433 4.1068162-1.58942163-.01716215-.28947568-.0370162-.57895676-.05976215-.86843243-.0737081-.0636-.14561622-.1271946-.20921622-.1907946"/>
  </g>
</svg>
