<?xml version="1.0" encoding="utf-8"?>
<!-- Generator: Adobe Illustrator 25.0.0, SVG Export Plug-In . SVG Version: 6.00 Build 0)  -->
<svg version="1.1" id="Layer_1" xmlns="http://www.w3.org/2000/svg" xmlns:xlink="http://www.w3.org/1999/xlink" x="0px" y="0px"
	 viewBox="0 0 130 160" style="enable-background:new 0 0 130 160;" xml:space="preserve">
<style type="text/css">
	.st0{fill:url(#SVGID_1_);}
	.st1{fill:url(#SVGID_2_);}
	.st2{fill:url(#SVGID_3_);}
	.st3{fill:url(#SVGID_4_);}
	.st4{fill:url(#SVGID_5_);}
	.st5{fill:url(#SVGID_6_);}
	.st6{fill:url(#SVGID_7_);}
	.st7{fill:url(#SVGID_8_);}
	.st8{fill:url(#SVGID_9_);}
	.st9{fill:url(#SVGID_10_);}
	.st10{fill-rule:evenodd;clip-rule:evenodd;fill:#DA4341;}
	.st11{fill-rule:evenodd;clip-rule:evenodd;fill:#FFFFFF;}
	.st12{clip-path:url(#SVGID_12_);}
	.st13{clip-path:url(#SVGID_14_);fill:#FFFFFF;}
	.st14{clip-path:url(#SVGID_14_);fill:#D84440;}
	.st15{fill:url(#SVGID_15_);}
	.st16{fill:#FFFFFF;}
</style>
<g>
	<radialGradient id="SVGID_1_" cx="64.6113" cy="68.2873" r="128.6782" gradientUnits="userSpaceOnUse">
		<stop  offset="5.617570e-02" style="stop-color:#B41518"/>
		<stop  offset="0.6359" style="stop-color:#E0211F"/>
	</radialGradient>
	<path class="st0" d="M40.4,86.9c0.7,1,0.6,2.3-0.4,3.1c-1,0.7-2.3,0.6-3.1-0.4c-1-1.3-2-2.7-2.8-4.3c-0.8-1.5-1.6-3-2.2-4.6
		c-2.4-6-3-12.3-2-18.3c1-6.2,3.5-12,7.5-16.9c0.8-0.9,2.1-1.1,3.1-0.3c0.9,0.8,1.1,2.1,0.3,3.1c-3.4,4.3-5.7,9.4-6.5,14.8
		c-0.8,5.2-0.3,10.8,1.8,16.1c0.6,1.4,1.2,2.8,1.9,4.1C38.6,84.5,39.5,85.7,40.4,86.9L40.4,86.9z M89.3,48.2
		c-0.8-0.9-0.6-2.3,0.3-3.1c0.9-0.8,2.3-0.6,3.1,0.3c1.1,1.4,2.1,2.9,3.1,4.5c0.9,1.6,1.7,3.2,2.4,4.9c2.3,5.9,2.9,12.1,2.1,18
		c-0.9,6.1-3.3,11.8-7.1,16.7c-0.7,1-2.1,1.1-3.1,0.4c-1-0.7-1.1-2.1-0.4-3.1c3.3-4.3,5.5-9.4,6.2-14.7c0.8-5.2,0.2-10.6-1.8-15.8
		c-0.6-1.5-1.3-2.9-2.1-4.3C91.2,50.8,90.3,49.5,89.3,48.2L89.3,48.2z"/>
	<radialGradient id="SVGID_2_" cx="64.6123" cy="68.2874" r="128.676" gradientUnits="userSpaceOnUse">
		<stop  offset="5.617570e-02" style="stop-color:#B41518"/>
		<stop  offset="0.6359" style="stop-color:#E0211F"/>
	</radialGradient>
	<path class="st1" d="M18.4,104.3c0.7,0.9,0.6,2.3-0.4,3.1c-0.9,0.7-2.3,0.6-3.1-0.4c-2-2.5-3.7-5.1-5.3-7.8
		c-1.6-2.7-2.9-5.6-4.1-8.5c-4.2-10.8-5.3-22-3.7-32.6C3.5,47,8,36.6,14.9,27.8c0.7-0.9,2.1-1.1,3.1-0.4c0.9,0.7,1.1,2.1,0.4,3.1
		C11.9,38.7,7.7,48.4,6.2,58.7C4.7,68.6,5.7,79,9.6,89.1c1.1,2.8,2.4,5.4,3.8,8C14.9,99.6,16.6,102.1,18.4,104.3L18.4,104.3z
		 M111.6,30.5c-0.8-0.9-0.6-2.3,0.4-3.1c0.9-0.8,2.3-0.6,3.1,0.4c2,2.5,3.7,5.1,5.3,7.8c1.5,2.7,2.9,5.6,4.1,8.6
		c4.2,10.8,5.3,22,3.7,32.6c-1.7,11-6.2,21.5-13.1,30.2c-0.7,0.9-2.1,1.1-3.1,0.4c-0.9-0.8-1.1-2.1-0.4-3.1
		c6.4-8.1,10.7-17.9,12.2-28.2c1.5-9.9,0.5-20.4-3.4-30.4c-1.1-2.8-2.4-5.4-3.8-8C115.1,35.2,113.4,32.8,111.6,30.5L111.6,30.5z"/>
	<radialGradient id="SVGID_3_" cx="64.6118" cy="68.2873" r="128.6761" gradientUnits="userSpaceOnUse">
		<stop  offset="5.617570e-02" style="stop-color:#B41518"/>
		<stop  offset="0.6359" style="stop-color:#E0211F"/>
	</radialGradient>
	<path class="st2" d="M104.4,36.2c-0.7-0.9-0.6-2.3,0.4-3.1c0.9-0.7,2.3-0.6,3.1,0.4c1.7,2.1,3.2,4.4,4.5,6.7
		c1.3,2.3,2.5,4.8,3.5,7.3c3.6,9.2,4.5,18.8,3.2,27.9c-1.4,9.4-5.3,18.4-11.2,25.9c-0.7,0.9-2.1,1.1-3.1,0.4
		c-0.9-0.7-1.1-2.1-0.4-3.1c5.4-6.9,9-15.1,10.3-23.8c1.3-8.4,0.4-17.2-2.9-25.7c-0.9-2.3-2-4.6-3.2-6.7
		C107.3,40.2,105.9,38.1,104.4,36.2L104.4,36.2z M25.6,98.6c0.7,0.9,0.6,2.3-0.4,3.1c-0.9,0.7-2.3,0.6-3.1-0.4
		c-1.7-2.1-3.2-4.4-4.5-6.7c-1.3-2.3-2.5-4.8-3.5-7.3c-3.6-9.2-4.5-18.8-3.2-27.9C12.3,50,16.2,41,22.1,33.5
		c0.7-0.9,2.1-1.1,3.1-0.4c0.9,0.7,1.1,2.1,0.4,3.1c-5.4,6.9-9,15.1-10.3,23.8c-1.3,8.4-0.4,17.2,2.9,25.7c0.9,2.3,2,4.6,3.2,6.7
		C22.7,94.7,24.1,96.7,25.6,98.6L25.6,98.6z"/>
	<radialGradient id="SVGID_4_" cx="64.6117" cy="68.2869" r="128.6765" gradientUnits="userSpaceOnUse">
		<stop  offset="5.617570e-02" style="stop-color:#B41518"/>
		<stop  offset="0.6359" style="stop-color:#E0211F"/>
	</radialGradient>
	<path class="st3" d="M96.9,42.2c-0.7-0.9-0.6-2.3,0.4-3.1c0.9-0.7,2.3-0.6,3.1,0.4c1.4,1.8,2.6,3.6,3.7,5.5c1.1,1.9,2.1,3.9,2.9,6
		c3,7.6,3.7,15.5,2.6,23c-1.2,7.8-4.4,15.1-9.2,21.3c-0.8,0.9-2.1,1.1-3.1,0.4c-0.9-0.7-1.1-2.1-0.4-3.1c4.4-5.6,7.3-12.2,8.3-19.2
		c1-6.8,0.3-13.9-2.3-20.7c-0.7-1.9-1.6-3.7-2.6-5.4C99.2,45.4,98.1,43.8,96.9,42.2L96.9,42.2z M33.1,92.6c0.7,0.9,0.6,2.3-0.4,3.1
		c-0.9,0.7-2.3,0.6-3.1-0.4c-1.4-1.8-2.6-3.6-3.7-5.5c-1.1-1.9-2.1-3.9-2.9-6c-3-7.6-3.7-15.5-2.6-23c1.2-7.8,4.4-15.1,9.2-21.3
		c0.8-0.9,2.1-1.1,3.1-0.4c0.9,0.7,1.1,2.1,0.4,3.1c-4.4,5.6-7.3,12.2-8.3,19.2c-1,6.8-0.3,13.9,2.3,20.7c0.7,1.9,1.6,3.7,2.6,5.4
		C30.8,89.4,31.9,91.1,33.1,92.6L33.1,92.6z"/>
	<radialGradient id="SVGID_5_" cx="64.6108" cy="68.2872" r="128.6793" gradientUnits="userSpaceOnUse">
		<stop  offset="5.617570e-02" style="stop-color:#B41518"/>
		<stop  offset="0.6359" style="stop-color:#E0211F"/>
	</radialGradient>
	<path class="st4" d="M97.1,42.5c-1.6-1.9-2.5-3.9-2.8-5.9c-0.3-2.2,0.4-4.2,1.9-5.6c0.1-0.1,0.2-0.2,0.3-0.2
		c1.5-1.2,3.2-1.8,5.3-1.4c1.8,0.3,3.6,1.4,5.5,3.5c0.2,0.2,0.4,0.4,0.6,0.7l-3.4,2.8c-0.2-0.2-0.3-0.4-0.4-0.5
		c-1.2-1.3-2.2-2-3.1-2.1c-0.6-0.1-1.2,0.1-1.7,0.5c0,0-0.1,0.1-0.1,0.1c-0.4,0.4-0.6,1.1-0.5,1.9c0.1,1.1,0.7,2.4,1.7,3.6
		L97.1,42.5L97.1,42.5z"/>
	<radialGradient id="SVGID_6_" cx="64.6128" cy="68.2875" r="128.6746" gradientUnits="userSpaceOnUse">
		<stop  offset="5.617570e-02" style="stop-color:#B41518"/>
		<stop  offset="0.6359" style="stop-color:#E0211F"/>
	</radialGradient>
	<path class="st5" d="M107.9,101.3c-1.1,1.4-1.7,2.7-1.8,3.8c-0.1,0.7,0.1,1.3,0.5,1.6c0.1,0.1,0,0,0.1,0.1h0c0.5,0.4,1,0.5,1.6,0.4
		c0.9-0.3,2-1.1,3.3-2.7c0.1-0.1,0.2-0.3,0.4-0.4l3.4,2.7c-0.1,0.2-0.3,0.4-0.4,0.5c-1.9,2.3-3.7,3.6-5.5,4.1
		c-2.1,0.6-3.9,0.1-5.5-1.1l0,0c-0.2-0.1-0.1-0.1-0.2-0.1c-1.7-1.4-2.3-3.3-2.1-5.5c0.2-1.9,1.2-4,2.8-6L107.9,101.3L107.9,101.3z"
		/>
	<radialGradient id="SVGID_7_" cx="64.613" cy="68.2874" r="128.6735" gradientUnits="userSpaceOnUse">
		<stop  offset="5.617570e-02" style="stop-color:#B41518"/>
		<stop  offset="0.6359" style="stop-color:#E0211F"/>
	</radialGradient>
	<path class="st6" d="M93.1,89.6c-1.1,1.4-1.8,2.8-1.9,4c-0.1,0.8,0,1.4,0.4,1.7v0c0.1,0.1-0.1-0.1,0.1,0c0.5,0.4,1,0.5,1.6,0.4
		c0.9-0.3,2-1.1,3.3-2.7c0.1-0.1,0.2-0.3,0.3-0.4l3.4,2.7c-0.1,0.2-0.3,0.4-0.4,0.5c-1.9,2.3-3.8,3.6-5.5,4.1
		c-2.1,0.6-3.9,0.1-5.5-1.1c-0.1,0,0,0-0.1-0.1l0,0c-1.7-1.4-2.3-3.4-2-5.7c0.3-2,1.3-4.2,2.8-6.2L93.1,89.6L93.1,89.6z"/>
	<radialGradient id="SVGID_8_" cx="64.6136" cy="68.2872" r="128.6785" gradientUnits="userSpaceOnUse">
		<stop  offset="5.617570e-02" style="stop-color:#B41518"/>
		<stop  offset="0.6359" style="stop-color:#E0211F"/>
	</radialGradient>
	<path class="st7" d="M29.6,39.7c1-1.2,1.6-2.5,1.7-3.6c0.1-0.8-0.1-1.5-0.5-1.9c0,0-0.1,0-0.1-0.1c-0.5-0.4-1-0.6-1.7-0.5
		c-0.9,0.2-1.9,0.8-3.1,2.1c-0.1,0.1-0.3,0.3-0.4,0.5l-3.4-2.8c0.2-0.2,0.4-0.4,0.6-0.7c1.9-2.1,3.8-3.2,5.5-3.5
		c2-0.4,3.8,0.2,5.3,1.4c0.1,0.1,0.2,0.1,0.3,0.2c1.6,1.4,2.2,3.4,1.9,5.6c-0.2,1.9-1.2,4-2.8,5.9L29.6,39.7L29.6,39.7z"/>
	<radialGradient id="SVGID_9_" cx="64.6122" cy="68.2875" r="128.6753" gradientUnits="userSpaceOnUse">
		<stop  offset="5.617570e-02" style="stop-color:#B41518"/>
		<stop  offset="0.6359" style="stop-color:#E0211F"/>
	</radialGradient>
	<path class="st8" d="M25.6,98.6c1.6,2,2.5,4.1,2.8,6c0.3,2.2-0.4,4.2-2.1,5.5c0,0,0,0-0.2,0.1l0,0c-1.6,1.3-3.4,1.7-5.5,1.1
		c-1.7-0.5-3.6-1.8-5.5-4.1c-0.1-0.2-0.3-0.3-0.4-0.5l3.4-2.7c0.1,0.1,0.2,0.3,0.4,0.4c1.3,1.6,2.4,2.4,3.3,2.7
		c0.6,0.2,1.1,0,1.6-0.4h0c0.1-0.1-0.1,0,0.1-0.1c0.4-0.4,0.6-0.9,0.5-1.6c-0.1-1.1-0.8-2.4-1.8-3.8L25.6,98.6L25.6,98.6z"/>
	<radialGradient id="SVGID_10_" cx="64.6131" cy="68.2874" r="128.6757" gradientUnits="userSpaceOnUse">
		<stop  offset="5.617570e-02" style="stop-color:#B41518"/>
		<stop  offset="0.6359" style="stop-color:#E0211F"/>
	</radialGradient>
	<path class="st9" d="M40.4,86.9c1.6,2,2.6,4.2,2.8,6.2c0.3,2.3-0.3,4.3-2,5.7l0,0c-0.2,0.2-0.1,0.1-0.2,0.1
		c-1.6,1.3-3.4,1.7-5.5,1.1c-1.7-0.5-3.6-1.8-5.5-4.1c-0.1-0.2-0.3-0.3-0.4-0.5l3.4-2.7c0.1,0.1,0.2,0.3,0.4,0.4
		c1.3,1.6,2.4,2.4,3.3,2.7c0.6,0.2,1.1,0,1.6-0.4c0.1-0.1,0,0,0.1,0v0c0.4-0.3,0.5-1,0.4-1.7c-0.2-1.2-0.8-2.6-1.9-4L40.4,86.9
		L40.4,86.9z"/>
</g>
<path class="st10" d="M92,67.8c0,0.3,0,0.5,0,0.8c-0.4,14.6-12.4,26.2-27,26.2c-14.8,0-26.8-11.8-27-26.5c0-0.2,0-0.3,0-0.5
	c0-0.3,0-0.5,0-0.8c0.4-14.6,12.4-26.2,27-26.2c14.8,0,26.8,11.8,27,26.5C92,67.5,92,67.6,92,67.8z"/>
<path class="st11" d="M92,67.8c0,0.3,0,0.5,0,0.8l-2,0.2l-2.3,1.4c-0.2,0.1-0.5,0.1-0.7-0.1l-1.5-1.8l-1.3,2.5
	c-0.1,0.2-0.2,0.3-0.4,0.3c-0.2,0-0.3-0.1-0.5-0.2l-2.3-3.2l-1.5,2c-0.1,0.2-0.3,0.2-0.5,0.2c-0.2,0-0.3-0.1-0.4-0.3l-1.2-2.3
	L76.7,75c0,0.2-0.2,0.4-0.4,0.5c-0.2,0-0.5-0.1-0.5-0.4l-2.1-6.5L73,78.6c0,0.2-0.2,0.4-0.4,0.5c-0.2,0-0.5-0.1-0.5-0.3l-2.5-7.1
	L68,83c0,0.2-0.2,0.4-0.5,0.4c-0.2,0-0.5-0.1-0.5-0.4l-3.8-13.5l-0.7,5.7c0,0.2-0.2,0.4-0.5,0.4c-0.2,0-0.5-0.1-0.5-0.3L59,68.1
	l-0.8,11.1c0,0.2-0.2,0.4-0.5,0.5c-0.2,0-0.5-0.1-0.5-0.4l-2.6-9.4l-0.7,5.4c0,0.2-0.2,0.4-0.4,0.4c-0.2,0-0.5-0.1-0.5-0.3l-2.5-5.7
	l-1.2,1.3c-0.1,0.1-0.2,0.2-0.4,0.2c-0.2,0-0.3-0.1-0.4-0.2l-2.1-2.9l-1.1,2.2c-0.1,0.2-0.2,0.3-0.4,0.3c-0.2,0-0.3,0-0.5-0.2
	l-2.2-2.8l-1.5,0.7c-0.1,0-0.2,0.1-0.2,0.1H38c0-0.2,0-0.3,0-0.5c0-0.3,0-0.5,0-0.8l2-0.2l2.3-1.4c0.2-0.1,0.5-0.1,0.7,0.1l1.5,1.8
	l1.3-2.5c0.1-0.2,0.2-0.3,0.4-0.3c0.2,0,0.3,0.1,0.4,0.2l2.3,3.2l1.5-2c0.1-0.1,0.3-0.2,0.4-0.2c0.2,0,0.3,0.1,0.4,0.3l1.2,2.3
	l0.8-7.8c0-0.2,0.2-0.4,0.5-0.5c0.2,0,0.5,0.1,0.5,0.3l2.1,6.5L57,57c0-0.2,0.2-0.4,0.4-0.5c0.2,0,0.5,0.1,0.5,0.3l2.5,7.1L62,52.6
	c0-0.2,0.2-0.4,0.5-0.4c0.3,0,0.5,0.1,0.5,0.4L66.7,67l0.7-6.7c0-0.2,0.2-0.4,0.4-0.5c0.2,0,0.5,0.1,0.5,0.3l2.5,7.2l0.8-11.1
	c0-0.3,0.2-0.4,0.5-0.5c0.2,0,0.5,0.1,0.5,0.4l2.6,9.4l0.7-5.4c0-0.2,0.2-0.4,0.4-0.4c0.2,0,0.5,0.1,0.5,0.3l2.5,5.7l1.2-1.3
	c0.1-0.1,0.2-0.2,0.4-0.2c0.2,0,0.3,0.1,0.4,0.2l2.1,2.9l1.1-2.2c0.1-0.2,0.2-0.3,0.4-0.3c0.2,0,0.3,0.1,0.4,0.2l2.2,2.8l1.5-0.7
	c0.1,0,0.1-0.1,0.2-0.1H92C92,67.5,92,67.6,92,67.8z"/>
<g>
	<g>
		<defs>
			<rect id="SVGID_11_" x="48.3" y="50.5" width="33.8" height="33.8"/>
		</defs>
		<clipPath id="SVGID_12_">
			<use xlink:href="#SVGID_11_"  style="overflow:visible;"/>
		</clipPath>
		<g class="st12">
			<defs>
				<rect id="SVGID_13_" x="48.3" y="50.5" width="33.8" height="33.8"/>
			</defs>
			<clipPath id="SVGID_14_">
				<use xlink:href="#SVGID_13_"  style="overflow:visible;"/>
			</clipPath>
			<path class="st13" d="M49,67.3c0-2.2,0-4.4,0-6.6c0-1.3,0.6-2.2,1.8-2.9c4.3-2.3,8.5-4.6,12.9-6.7c0.8-0.4,2.2-0.4,3,0
				c4.3,2.1,8.6,4.5,12.9,6.7c1.2,0.6,1.8,1.6,1.8,2.9c0,4.5,0,9,0,13.5c0,1.3-0.6,2.3-1.9,2.9c-4.2,2.2-8.3,4.4-12.5,6.6
				c-1.2,0.6-2.4,0.6-3.6,0c-4.2-2.2-8.3-4.4-12.5-6.6c-1.3-0.7-1.9-1.6-1.9-3C49.1,71.8,49,69.5,49,67.3"/>
			<path class="st14" d="M51.1,67.2c0-1.9,0-3.8,0-5.8c0-1.1,0.5-1.9,1.5-2.5c3.7-2,7.4-4,11.2-5.9c0.7-0.3,1.9-0.3,2.6,0
				C70.2,55,73.9,57,77.6,59c1.1,0.6,1.6,1.4,1.6,2.5c0,3.9,0,7.8,0,11.8c0,1.2-0.6,2-1.7,2.6c-3.6,1.9-7.2,3.8-10.8,5.8
				c-1,0.6-2.1,0.6-3.1,0c-3.6-1.9-7.2-3.8-10.9-5.8c-1.1-0.6-1.7-1.4-1.6-2.7C51.2,71.2,51.1,69.2,51.1,67.2 M52.8,67.4
				c0,1.8,0,3.5,0,5.3c0,0.9,0.4,1.5,1.2,1.9c3.3,1.8,6.6,3.6,10,5.3c0.6,0.3,1.7,0.3,2.2,0c3.4-1.7,6.7-3.5,10-5.3
				c0.8-0.4,1.2-1.1,1.2-1.9c0-3.5,0-7.1,0-10.6c0-0.9-0.5-1.6-1.4-2c-3.3-1.7-6.5-3.5-9.8-5.2c-0.8-0.4-1.6-0.5-2.4,0
				c-3.3,1.8-6.6,3.5-9.9,5.3c-0.8,0.4-1.2,1-1.2,1.9C52.9,63.7,52.8,65.6,52.8,67.4"/>
			<polygon class="st14" points="57.9,63.4 57.9,67.8 65.2,61.9 72.5,67.8 72.5,63.4 65.2,57.5 			"/>
			<rect x="63.4" y="60.9" class="st14" width="3.6" height="15.5"/>
		</g>
	</g>
</g>
<linearGradient id="SVGID_15_" gradientUnits="userSpaceOnUse" x1="38.9381" y1="123.0008" x2="91.865" y2="123.0008">
	<stop  offset="0" style="stop-color:#E62320"/>
	<stop  offset="1" style="stop-color:#960C13"/>
</linearGradient>
<path class="st15" d="M91.9,120.3c0-4.8-3.9-8.6-8.6-8.6H47.6c-4.8,0-8.6,3.9-8.6,8.6v5.3c0,4.8,3.9,8.6,8.6,8.6h35.7
	c4.8,0,8.6-3.9,8.6-8.6V120.3z"/>
<path class="st16" d="M52,115.9v11.1h5.8v2.3h-8.4v-13.4H52z"/>
<path class="st16" d="M62.3,116.2c0,0.8-0.6,1.4-1.3,1.4c-0.8,0-1.3-0.6-1.3-1.4s0.6-1.4,1.3-1.4C61.7,114.8,62.3,115.4,62.3,116.2z
	 M62.2,119.1v10.3h-2.5v-10.3H62.2z"/>
<path class="st16" d="M66.3,119.1l2.7,7.8l2.6-7.8h2.5l-3.9,10.3h-2.6l-4-10.3L66.3,119.1z"/>
<path class="st16" d="M84.5,125.1h-7.6c0.3,1.5,1.4,2.3,2.9,2.3c1.1,0,2-0.4,2.8-1.2l1.3,1.4c-1,1.1-2.5,1.8-4.3,1.8
	c-3.2,0-5.3-2.1-5.3-5.2c0-3.1,2.2-5.2,5.2-5.2C83.1,119,84.7,121.4,84.5,125.1z M82.2,123.5c-0.1-1.5-1.1-2.5-2.6-2.5
	c-1.5,0-2.5,1-2.7,2.5H82.2z"/>
</svg>
