<?xml version="1.0" encoding="utf-8"?>
<!-- Generator: Adobe Illustrator 25.0.0, SVG Export Plug-In . SVG Version: 6.00 Build 0)  -->
<svg version="1.1" id="Layer_1" xmlns="http://www.w3.org/2000/svg" xmlns:xlink="http://www.w3.org/1999/xlink" x="0px" y="0px"
	 viewBox="0 0 500 500" style="enable-background:new 0 0 500 500;" xml:space="preserve">
<style type="text/css">
	.st0{fill:#D74341;}
	.st1{fill:#53B67B;}
	.st2{clip-path:url(#SVGID_2_);}
	.st3{clip-path:url(#SVGID_4_);fill:#FFFFFF;}
	.st4{clip-path:url(#SVGID_6_);fill:#D84441;}
	.st5{clip-path:url(#SVGID_8_);fill:#D84441;}
	.st6{clip-path:url(#SVGID_10_);fill:#D84441;}
</style>
<path class="st0" d="M-257.8,245.8"/>
<path class="st0" d="M32.3,147"/>
<path class="st1" d="M137.3,317.7c0-4,2.6-6.8,6.7-6.8s6.7,2.6,6.7,6.8v149.7h145.9V317.7c0-4,2.6-6.8,6.7-6.8c4,0,6.7,2.6,6.7,6.8
	v149.7h46.4V304.2c0-36.9-29.9-66.9-66.3-66.9h-13.4l-52.9,95.5L173,237.3h-15.7c-36.6,0-66.3,30.2-66.3,66.9v163.2h46.4V317.7
	H137.3z M225.8,219c-44.7,0-81.5-33.3-87.7-76.7c0.9,2,2.4,3.4,4,4.9c9.7,9.8,25.9,9.8,35.6,0c1.5-1.6,2.9-3.4,4-4.9
	c8.9-15.6,25.7-26.4,44.3-26.4c27.9,0,51.1,22.8,51.1,51.6S254.3,219,225.8,219z M204.6,256.6c0-10.7,8.6-19.3,19.1-19.3
	s19.1,8.6,19.1,19.3c0,10.7-8.6,19.3-19.1,19.3S204.6,267.2,204.6,256.6z"/>
<path class="st0" d="M225.8,219c-44.7,0-81.5-33.3-87.7-76.7c0.9,2,2.4,3.4,4,4.9c9.7,9.8,25.9,9.8,35.6,0c1.5-1.6,2.9-3.4,4-4.9
	c8.9-15.6,25.7-26.4,44.3-26.4c27.9,0,51.1,22.8,51.1,51.6S254.3,219,225.8,219"/>
<g>
	<g>
		<g>
			<defs>
				<rect id="SVGID_1_" x="175.2" y="354.3" width="97" height="98.5"/>
			</defs>
			<clipPath id="SVGID_2_">
				<use xlink:href="#SVGID_1_"  style="overflow:visible;"/>
			</clipPath>
			<g class="st2">
				<g>
					<g>
						<defs>
							<rect id="SVGID_3_" x="175.2" y="354.3" width="97" height="98.5"/>
						</defs>
						<clipPath id="SVGID_4_">
							<use xlink:href="#SVGID_3_"  style="overflow:visible;"/>
						</clipPath>
						<path class="st3" d="M177.6,403.3c0-6.5,0-13.1,0-19.1c0-3.7,1.9-6.5,5.3-8.4c12.4-6.5,24.4-13.5,37.3-19.6
							c2.4-1.4,6.2-1.4,8.6,0c12.4,6.1,24.8,13.1,37.3,19.6c3.3,1.9,5.3,4.7,5.3,8.4c0,13.1,0,26.1,0,39.2c0,3.7-1.9,6.5-5.3,8.4
							c-11.9,6.5-23.9,13.1-35.8,19.1c-3.3,1.9-6.7,1.9-10.5,0c-11.9-6.5-23.9-13.1-35.8-19.1c-3.8-1.9-5.3-4.7-5.3-8.9
							C177.6,416.4,177.6,409.8,177.6,403.3"/>
					</g>
				</g>
				<g>
					<g>
						<defs>
							<rect id="SVGID_5_" x="175.2" y="354.3" width="97" height="98.5"/>
						</defs>
						<clipPath id="SVGID_6_">
							<use xlink:href="#SVGID_5_"  style="overflow:visible;"/>
						</clipPath>
						<path class="st4" d="M183.3,403.3c0-5.6,0-11.2,0-16.8c0-3.3,1.4-5.6,4.3-7.5c10.5-6.1,21.5-11.7,32-17.3
							c1.9-0.9,5.3-0.9,7.6,0c11,6.1,21.5,11.7,32,17.7c3.3,1.9,4.8,4.2,4.8,7.5c0,11.2,0,22.9,0,34.5c0,3.7-1.9,6.1-4.8,7.5
							c-10.5,5.6-20.5,11.2-31.1,16.8c-2.9,1.9-6.2,1.9-9.1,0c-10.5-5.6-20.5-11.2-31.5-16.8c-3.3-1.9-4.8-4.2-4.8-7.9
							C183.8,415,183.3,408.9,183.3,403.3 M188.1,403.8c0,5.1,0,10.3,0,15.4c0,2.8,1,4.2,3.3,5.6c9.6,5.1,19.1,10.7,28.7,15.4
							c1.9,0.9,4.8,0.9,6.2,0c9.6-5.1,19.1-10.3,28.7-15.4c2.4-1.4,3.3-3.3,3.3-5.6c0-10.3,0-20.5,0-30.8c0-2.8-1.4-4.7-3.8-6.1
							c-9.6-5.1-18.6-10.3-28.2-15.4c-2.4-1.4-4.8-1.4-6.7,0c-9.6,5.1-19.1,10.3-28.7,15.4c-2.4,1.4-3.3,2.8-3.3,5.6
							C188.6,393,188.1,398.6,188.1,403.8"/>
					</g>
				</g>
				<g>
					<g>
						<defs>
							<rect id="SVGID_7_" x="175.2" y="354.3" width="97" height="98.5"/>
						</defs>
						<clipPath id="SVGID_8_">
							<use xlink:href="#SVGID_7_"  style="overflow:visible;"/>
						</clipPath>
						<polygon class="st5" points="202.9,392.1 202.9,404.7 223.9,387.4 245,404.7 245,392.1 223.9,374.8 						"/>
					</g>
				</g>
				<g>
					<g>
						<defs>
							<rect id="SVGID_9_" x="175.2" y="354.3" width="97" height="98.5"/>
						</defs>
						<clipPath id="SVGID_10_">
							<use xlink:href="#SVGID_9_"  style="overflow:visible;"/>
						</clipPath>
						<rect x="218.7" y="384.6" class="st6" width="10.5" height="45.3"/>
					</g>
				</g>
			</g>
		</g>
	</g>
</g>
<path class="st1" d="M359.7,65.3l-28.7,40.1l-18.4-20.2c-2-2.3-2-5.7,0.2-7.9c2.3-2.1,5.7-2,7.9,0.2l9.3,10.2l20.7-28.9
	c1.8-2.4,5.2-3.1,7.8-1.3C360.9,59.3,361.5,62.9,359.7,65.3z M403.4,93.6c3.8,3.7,2,10.1-2.9,11.3l-17.4,4.5l4.9,17.4
	c1.4,5-3.3,9.7-8.2,8.3l-16.9-4.9l24.2,48.6l-20.2-5.8l-5.6,18.9L334.4,138l-26.8,53.9L302,173l-20.2,5.8l24.2-48.6l-16.9,4.9
	c-5,1.4-9.6-3.4-8.2-8.3l4.9-17.4l-17.4-4.5c-5-1.2-6.7-7.6-2.9-11.3L278.1,81l-12.8-12.6c-3.8-3.7-2-10.1,2.9-11.3l17.4-4.5
	l-4.9-17.4c-1.4-5,3.3-9.7,8.2-8.3l17.2,5l4.5-17.6c1.2-5,7.7-6.7,11.2-3l12.5,13l12.5-13c3.6-3.8,10-2,11.2,3l4.5,17.6l17.2-5
	c5-1.4,9.6,3.4,8.2,8.3l-4.9,17.4l17.4,4.5c5,1.2,6.7,7.6,2.9,11.3L390.7,81L403.4,93.6z M377.7,81c0-23.4-18.8-42.2-41.8-42.2
	c-23.1,0-41.8,18.9-41.8,42.3s18.7,42.2,41.8,42.2C359,123.3,377.7,104.3,377.7,81z"/>
<path class="st0" d="M359.7,65.4l-28.7,40.1l-18.4-20.2c-2-2.3-2-5.7,0.2-7.9c2.3-2.1,5.7-2,7.9,0.2l9.3,10.2l20.7-28.9
	c1.8-2.4,5.2-3.1,7.8-1.3C360.9,59.3,361.5,62.9,359.7,65.4z"/>
</svg>
