<?xml version="1.0" encoding="utf-8"?>
<!-- Generator: Adobe Illustrator 25.0.0, SVG Export Plug-In . SVG Version: 6.00 Build 0)  -->
<svg version="1.1" id="Layer_1" xmlns="http://www.w3.org/2000/svg" xmlns:xlink="http://www.w3.org/1999/xlink" x="0px" y="0px"
	 viewBox="0 0 130 160" style="enable-background:new 0 0 130 160;" xml:space="preserve">
<style type="text/css">
	.st0{fill:#D74340;}
	.st1{fill:url(#SVGID_1_);}
	.st2{fill:url(#SVGID_2_);}
	.st3{fill:url(#SVGID_3_);}
	.st4{fill:#231F20;}
	.st5{fill:url(#SVGID_4_);}
	.st6{fill:url(#SVGID_5_);}
	.st7{fill:url(#SVGID_6_);}
	.st8{fill:url(#SVGID_7_);}
	.st9{fill:#BE1E2D;}
	.st10{fill:#2DB78E;}
	.st11{fill:#FFFFFF;}
	.st12{clip-path:url(#SVGID_9_);}
	.st13{clip-path:url(#SVGID_11_);fill:#FFFFFF;}
	.st14{clip-path:url(#SVGID_13_);fill:#D84440;}
	.st15{clip-path:url(#SVGID_15_);fill:#D84440;}
	.st16{clip-path:url(#SVGID_17_);fill:#D84440;}
</style>
<path class="st0" d="M29,5.7c0,0,79.1,46.5,58.9,48.2c-20.2,1.7,28.7,74.3,10.6,68.6c-18-5.8-29.3,3.5-14.6,19.1S32.5,121.8,40,96.1
	s-4.4-47.8-16.6-67.7S12.6-4.3,29,5.7z"/>
<g>
</g>
<radialGradient id="SVGID_1_" cx="65.733" cy="70.3835" r="47.9826" gradientTransform="matrix(0.8821 0 0 0.8821 -13.0366 16.8522)" gradientUnits="userSpaceOnUse">
	<stop  offset="0.245" style="stop-color:#333333"/>
	<stop  offset="0.7384" style="stop-color:#252525"/>
	<stop  offset="1" style="stop-color:#1C1C1C"/>
</radialGradient>
<rect x="2.6" y="36.6" class="st1" width="84.6" height="84.6"/>
<g>
	
		<linearGradient id="SVGID_2_" gradientUnits="userSpaceOnUse" x1="-114.1483" y1="670.1924" x2="-114.1483" y2="750.9838" gradientTransform="matrix(0.737 -0.6759 0.6759 0.737 -309.0022 -521.5807)">
		<stop  offset="0" style="stop-color:#58595B"/>
		<stop  offset="0.9946" style="stop-color:#414042"/>
	</linearGradient>
	<path class="st2" d="M59.6,49.3c-16.4,15-17.5,40.4-2.5,56.8s40.4,17.5,56.8,2.5s17.5-40.4,2.5-56.8S76,34.3,59.6,49.3z M88.2,80.4
		c-0.8,0.8-2.1,0.7-2.9-0.1c-0.8-0.8-0.7-2.1,0.1-2.9c0.8-0.8,2.1-0.7,2.9,0.1C89.1,78.4,89,79.6,88.2,80.4z"/>
	
		<linearGradient id="SVGID_3_" gradientUnits="userSpaceOnUse" x1="-153.8666" y1="710.0826" x2="-74.43" y2="710.0826" gradientTransform="matrix(0.737 -0.6759 0.6759 0.737 -309.0022 -521.5807)">
		<stop  offset="0" style="stop-color:#000000"/>
		<stop  offset="9.114455e-02" style="stop-color:#0B0B0B"/>
		<stop  offset="0.2501" style="stop-color:#272728"/>
		<stop  offset="0.371" style="stop-color:#414042"/>
		<stop  offset="0.4892" style="stop-color:#58595B"/>
		<stop  offset="0.6075" style="stop-color:#414042"/>
		<stop  offset="0.6331" style="stop-color:#3B3A3C"/>
		<stop  offset="0.7859" style="stop-color:#1B1A1B"/>
		<stop  offset="0.9137" style="stop-color:#070707"/>
		<stop  offset="1" style="stop-color:#000000"/>
	</linearGradient>
	<path class="st3" d="M60,49.6c-16.2,14.8-17.3,40-2.4,56.1s40,17.3,56.1,2.4s17.3-40,2.4-56.1C101.3,35.9,76.1,34.8,60,49.6z
		 M88.2,80.4c-0.8,0.8-2.1,0.7-2.9-0.1c-0.8-0.8-0.7-2.1,0.1-2.9c0.8-0.8,2.1-0.7,2.9,0.1C89.1,78.4,89,79.6,88.2,80.4z"/>
	<g>
		<path class="st4" d="M99.1,92.3c-1.8,1.7-3.9,2.9-6.2,3.7c-2.2,0.8-4.5,1.1-6.9,1c-2.4-0.1-4.7-0.7-6.8-1.6
			c-2.2-1-4.2-2.4-5.9-4.3c-1.7-1.8-2.9-3.9-3.7-6.2c-0.8-2.2-1.1-4.5-1-6.9c0.1-2.4,0.7-4.7,1.6-6.8c1-2.2,2.4-4.2,4.3-5.9
			c1.8-1.7,3.9-2.9,6.2-3.7c2.2-0.8,4.5-1.1,6.9-1c2.4,0.1,4.7,0.7,6.8,1.6c2.2,1,4.2,2.4,5.9,4.3c1.7,1.8,2.9,3.9,3.7,6.2
			c0.8,2.2,1.1,4.5,1,6.9s-0.7,4.7-1.6,6.8C102.4,88.7,101,90.7,99.1,92.3z M74.7,65.7c-7.3,6.7-7.8,18.1-1.1,25.4
			s18.1,7.8,25.4,1.1s7.8-18.1,1.1-25.4C93.4,59.5,82,59,74.7,65.7z"/>
	</g>
	<g>
		
			<linearGradient id="SVGID_4_" gradientUnits="userSpaceOnUse" x1="-139.1882" y1="710.0826" x2="-89.1084" y2="710.0826" gradientTransform="matrix(0.737 -0.6759 0.6759 0.737 -309.0022 -521.5807)">
			<stop  offset="0" style="stop-color:#231F20"/>
			<stop  offset="1" style="stop-color:#000000"/>
		</linearGradient>
		<path class="st5" d="M103.7,97.4c-2.5,2.3-5.4,4-8.5,5.1c-3.1,1.1-6.2,1.6-9.5,1.4c-3.2-0.1-6.4-0.9-9.3-2.2c-3-1.4-5.8-3.4-8-5.9
			c-2.3-2.5-4-5.4-5.1-8.5c-1.1-3.1-1.6-6.2-1.4-9.5c0.1-3.2,0.9-6.4,2.2-9.3c1.4-3,3.4-5.8,5.9-8c2.5-2.3,5.4-4,8.5-5.1
			c3.1-1.1,6.2-1.6,9.5-1.4c3.2,0.1,6.4,0.9,9.3,2.2c3,1.4,5.8,3.4,8,5.9c2.3,2.5,4,5.4,5.1,8.5c1.1,3.1,1.6,6.2,1.4,9.5
			c-0.1,3.2-0.9,6.4-2.2,9.3C108.2,92.4,106.2,95.1,103.7,97.4z M70.1,60.7c-10.1,9.2-10.7,24.9-1.5,35c9.2,10.1,24.9,10.7,35,1.5
			s10.7-24.9,1.5-35C95.8,52.1,80.1,51.4,70.1,60.7z"/>
	</g>
	<g>
		
			<linearGradient id="SVGID_5_" gradientUnits="userSpaceOnUse" x1="-142.8756" y1="710.0826" x2="-85.421" y2="710.0826" gradientTransform="matrix(0.737 -0.6759 0.6759 0.737 -309.0022 -521.5807)">
			<stop  offset="0" style="stop-color:#231F20"/>
			<stop  offset="1" style="stop-color:#000000"/>
		</linearGradient>
		<path class="st6" d="M106.2,100.1c-2.9,2.6-6.1,4.6-9.8,5.9c-1.7,0.6-3.6,1.1-5.4,1.3c-1.8,0.3-3.7,0.4-5.5,0.3
			c-1.8-0.1-3.7-0.3-5.5-0.8c-1.8-0.4-3.6-1-5.3-1.8c-3.5-1.6-6.6-3.9-9.2-6.7c-2.6-2.9-4.6-6.1-5.9-9.8c-0.6-1.7-1.1-3.6-1.3-5.4
			c-0.3-1.8-0.4-3.7-0.3-5.5c0.1-1.8,0.3-3.7,0.8-5.5c0.4-1.8,1-3.6,1.8-5.3c1.6-3.5,3.9-6.6,6.7-9.2c2.9-2.6,6.1-4.6,9.8-5.9
			c1.7-0.6,3.6-1.1,5.4-1.3c1.8-0.3,3.7-0.4,5.5-0.3c1.8,0.1,3.7,0.3,5.5,0.8c1.8,0.4,3.6,1,5.3,1.8c3.5,1.6,6.6,3.9,9.2,6.7
			c2.6,2.9,4.6,6.1,5.9,9.8c0.6,1.7,1.1,3.6,1.3,5.4c0.3,1.8,0.4,3.7,0.3,5.5c-0.1,1.8-0.3,3.7-0.8,5.5c-0.4,1.8-1,3.6-1.8,5.3
			C111.3,94.4,109.1,97.5,106.2,100.1z M67.6,57.9C56,68.5,55.3,86.6,65.9,98.1c10.6,11.6,28.6,12.3,40.2,1.7s12.3-28.6,1.7-40.2
			S79.2,47.3,67.6,57.9z"/>
	</g>
	<g>
		
			<linearGradient id="SVGID_6_" gradientUnits="userSpaceOnUse" x1="-146.9884" y1="710.0826" x2="-81.3083" y2="710.0826" gradientTransform="matrix(0.737 -0.6759 0.6759 0.737 -309.0022 -521.5807)">
			<stop  offset="0" style="stop-color:#231F20"/>
			<stop  offset="1" style="stop-color:#000000"/>
		</linearGradient>
		<path class="st7" d="M109,103.1c-3.3,3-7,5.3-11.2,6.7c-2,0.7-4.1,1.2-6.2,1.5c-2.1,0.3-4.2,0.4-6.3,0.3c-2.1-0.1-4.2-0.4-6.2-0.9
			c-2.1-0.5-4.1-1.2-6-2.1c-4-1.8-7.5-4.4-10.5-7.7c-3-3.3-5.3-7-6.7-11.2c-0.7-2-1.2-4.1-1.5-6.2c-0.3-2.1-0.4-4.2-0.3-6.3
			c0.1-2.1,0.4-4.2,0.9-6.2c0.5-2.1,1.2-4.1,2.1-6c1.8-4,4.4-7.5,7.7-10.5c3.3-3,7-5.3,11.2-6.7c2-0.7,4.1-1.2,6.2-1.5
			c2.1-0.3,4.2-0.4,6.3-0.3s4.2,0.4,6.2,0.9c2.1,0.5,4.1,1.2,6,2.1c4,1.8,7.5,4.4,10.5,7.7c3,3.3,5.3,7,6.7,11.2
			c0.7,2,1.2,4.1,1.5,6.2c0.3,2.1,0.4,4.2,0.3,6.3c-0.1,2.1-0.4,4.2-0.9,6.2c-0.5,2.1-1.2,4.1-2.1,6
			C114.9,96.6,112.3,100.1,109,103.1z M64.8,54.9c-13.2,12.1-14.1,32.8-2,46s32.8,14.1,46,2s14.1-32.8,2-46S78,42.8,64.8,54.9z"/>
	</g>
	<g>
		
			<linearGradient id="SVGID_7_" gradientUnits="userSpaceOnUse" x1="-151.243" y1="710.0826" x2="-77.0536" y2="710.0826" gradientTransform="matrix(0.737 -0.6759 0.6759 0.737 -309.0022 -521.5807)">
			<stop  offset="0" style="stop-color:#231F20"/>
			<stop  offset="1" style="stop-color:#000000"/>
		</linearGradient>
		<path class="st8" d="M111.9,106.2c-1.9,1.7-3.9,3.2-6,4.5c-2.1,1.3-4.3,2.3-6.6,3.1c-2.2,0.8-4.6,1.4-7,1.7
			c-2.3,0.3-4.7,0.5-7.1,0.4c-2.4-0.1-4.7-0.4-7-1c-2.3-0.6-4.6-1.3-6.8-2.3c-2.2-1-4.3-2.2-6.3-3.7c-2-1.5-3.9-3.1-5.6-5
			s-3.2-3.9-4.5-6c-1.3-2.1-2.3-4.3-3.1-6.6c-0.8-2.2-1.4-4.6-1.7-7c-0.3-2.3-0.5-4.7-0.4-7.1c0.1-2.4,0.4-4.7,1-7
			c0.6-2.3,1.3-4.6,2.3-6.8c1-2.2,2.2-4.3,3.7-6.3c1.5-2,3.1-3.9,5-5.6c1.9-1.7,3.9-3.2,6-4.5c2.1-1.3,4.3-2.3,6.6-3.1
			c2.2-0.8,4.6-1.4,7-1.7c2.3-0.3,4.7-0.5,7.1-0.4c2.4,0.1,4.7,0.4,7,1c2.3,0.6,4.6,1.3,6.8,2.3c2.2,1,4.3,2.2,6.3,3.7
			c2,1.5,3.9,3.1,5.6,5s3.2,3.9,4.5,6c1.3,2.1,2.3,4.3,3.1,6.6c0.8,2.2,1.4,4.6,1.7,7c0.3,2.3,0.5,4.7,0.4,7.1c-0.1,2.4-0.4,4.7-1,7
			c-0.6,2.3-1.3,4.6-2.3,6.8c-1,2.2-2.2,4.3-3.7,6.3C115.4,102.7,113.7,104.5,111.9,106.2z M61.9,51.8c-15,13.7-16,37-2.3,52
			c13.7,15,37,16,52,2.3c15-13.7,16-37,2.3-52S76.9,38.1,61.9,51.8z"/>
	</g>
	<g>
		<path class="st9" d="M96.5,89.4c-1.4,1.3-3.1,2.3-4.9,2.9c-1.7,0.6-3.6,0.9-5.4,0.8c-1.9-0.1-3.6-0.5-5.3-1.3
			c-1.7-0.8-3.3-1.9-4.6-3.3s-2.3-3.1-2.9-4.9c-0.6-1.7-0.9-3.6-0.8-5.4c0.1-1.9,0.5-3.6,1.3-5.3c0.8-1.7,1.9-3.3,3.3-4.6
			c1.4-1.3,3.1-2.3,4.9-2.9c1.7-0.6,3.6-0.9,5.4-0.8c1.9,0.1,3.6,0.5,5.3,1.3c1.7,0.8,3.3,1.9,4.6,3.3c1.3,1.4,2.3,3.1,2.9,4.9
			c0.6,1.7,0.9,3.6,0.8,5.4c-0.1,1.9-0.5,3.6-1.3,5.3C99,86.6,97.9,88.1,96.5,89.4z M77.8,69.1C72.4,74,72,82.5,77,87.9
			c5,5.4,13.4,5.8,18.9,0.8c5.4-5,5.8-13.4,0.8-18.9S83.2,64.1,77.8,69.1z"/>
	</g>
	<path class="st10" d="M78.6,70c-4.9,4.5-5.3,12.2-0.7,17.1s12.2,5.3,17.1,0.7c4.9-4.5,5.3-12.2,0.7-17.1
		C91.2,65.8,83.6,65.4,78.6,70z M88.2,80.4c-0.8,0.8-2.1,0.7-2.9-0.1c-0.8-0.8-0.7-2.1,0.1-2.9c0.8-0.8,2.1-0.7,2.9,0.1
		C89.1,78.4,89,79.6,88.2,80.4z"/>
	<g>
		<path class="st11" d="M94.6,87.4c-1.1,1-2.5,1.8-3.9,2.4c-1.4,0.5-2.9,0.7-4.3,0.7c-1.5-0.1-2.9-0.4-4.3-1
			c-1.4-0.6-2.6-1.5-3.7-2.7s-1.8-2.5-2.4-3.9c-0.5-1.4-0.7-2.9-0.7-4.3c0.1-1.5,0.4-2.9,1-4.3c0.6-1.4,1.5-2.6,2.7-3.7
			s2.5-1.8,3.9-2.4c1.4-0.5,2.9-0.7,4.3-0.7c1.5,0.1,2.9,0.4,4.3,1c1.4,0.6,2.6,1.5,3.7,2.7c1,1.1,1.8,2.5,2.4,3.9
			c0.5,1.4,0.7,2.9,0.7,4.3c-0.1,1.5-0.4,2.9-1,4.3C96.6,85.1,95.7,86.3,94.6,87.4z M79.2,70.6c-4.6,4.2-4.9,11.3-0.7,15.9
			c4.2,4.6,11.3,4.9,15.9,0.7c4.6-4.2,4.9-11.3,0.7-15.9C90.9,66.7,83.8,66.4,79.2,70.6z"/>
	</g>
	<g>
		<path class="st11" d="M94.1,86.9c-1.1,1-2.3,1.7-3.7,2.2c-1.3,0.5-2.7,0.7-4.1,0.6c-1.4-0.1-2.8-0.4-4-1c-1.3-0.6-2.5-1.5-3.5-2.5
			c-1-1.1-1.7-2.3-2.2-3.7c-0.5-1.3-0.7-2.7-0.6-4.1c0.1-1.4,0.4-2.8,1-4c0.6-1.3,1.5-2.5,2.5-3.5c1.1-1,2.3-1.7,3.7-2.2
			c1.3-0.5,2.7-0.7,4.1-0.6c1.4,0.1,2.8,0.4,4,1c1.3,0.6,2.5,1.5,3.5,2.5c1,1.1,1.7,2.3,2.2,3.7c0.5,1.3,0.7,2.7,0.6,4.1
			c-0.1,1.4-0.4,2.8-1,4C96.1,84.7,95.2,85.9,94.1,86.9z M79.7,71.1c-4.3,3.9-4.6,10.7-0.6,15s10.7,4.6,15,0.6
			c4.3-3.9,4.6-10.7,0.6-15S84,67.1,79.7,71.1z"/>
	</g>
	<g>
		<path class="st11" d="M89.2,81.5c-1.5,1.3-3.7,1.2-5.1-0.2s-1.2-3.7,0.2-5.1c1.5-1.3,3.7-1.2,5.1,0.2
			C90.8,77.9,90.7,80.2,89.2,81.5z M84.5,76.4c-1.4,1.2-1.5,3.4-0.2,4.7c1.2,1.4,3.4,1.5,4.7,0.2c1.4-1.2,1.5-3.4,0.2-4.7
			C88,75.3,85.9,75.2,84.5,76.4z"/>
	</g>
</g>
<path class="st10" d="M77.8,69.1c-5.4,5-5.8,13.4-0.8,18.8s13.4,5.8,18.8,0.8c5.4-5,5.8-13.4,0.8-18.8
	C91.7,64.5,83.2,64.1,77.8,69.1z M88.3,80.6c-0.9,0.8-2.3,0.8-3.2-0.1c-0.8-0.9-0.8-2.3,0.1-3.2c0.9-0.8,2.3-0.8,3.2,0.1
	C89.3,78.3,89.3,79.7,88.3,80.6z"/>
<g>
	<g>
		<g>
			<defs>
				<rect id="SVGID_8_" x="74.9" y="66.7" width="23.7" height="24.7"/>
			</defs>
			<clipPath id="SVGID_9_">
				<use xlink:href="#SVGID_8_"  style="overflow:visible;"/>
			</clipPath>
			<g class="st12">
				<g>
					<defs>
						<rect id="SVGID_10_" x="74.9" y="66.7" width="23.7" height="24.7"/>
					</defs>
					<clipPath id="SVGID_11_">
						<use xlink:href="#SVGID_10_"  style="overflow:visible;"/>
					</clipPath>
					<path class="st13" d="M75.4,78.9c0-1.6,0-3.2,0-4.8c0-0.9,0.4-1.6,1.3-2.1c3-1.7,6-3.4,9.1-4.9c0.6-0.3,1.5-0.3,2.1,0
						c3,1.5,6,3.3,9.1,4.9c0.8,0.4,1.3,1.2,1.3,2.1c0,3.3,0,6.6,0,9.9c0,0.9-0.4,1.7-1.3,2.1c-2.9,1.6-5.8,3.2-8.8,4.8
						c-0.8,0.4-1.7,0.4-2.5,0c-2.9-1.6-5.8-3.2-8.8-4.8c-0.9-0.5-1.3-1.2-1.3-2.2C75.5,82.2,75.4,80.5,75.4,78.9"/>
				</g>
				<g>
					<defs>
						<rect id="SVGID_12_" x="74.9" y="66.7" width="23.7" height="24.7"/>
					</defs>
					<clipPath id="SVGID_13_">
						<use xlink:href="#SVGID_12_"  style="overflow:visible;"/>
					</clipPath>
					<path class="st14" d="M76.9,78.9c0-1.4,0-2.8,0-4.2c0-0.8,0.4-1.4,1.1-1.8c2.6-1.5,5.2-2.9,7.9-4.3c0.5-0.2,1.3-0.2,1.8,0
						c2.7,1.5,5.3,2.9,7.9,4.4c0.8,0.4,1.1,1,1.1,1.8c0,2.8,0,5.7,0,8.6c0,0.9-0.4,1.5-1.2,1.9c-2.5,1.4-5.1,2.8-7.6,4.2
						c-0.7,0.4-1.5,0.4-2.2,0c-2.5-1.4-5.1-2.8-7.7-4.2c-0.8-0.4-1.2-1-1.1-2C77,81.8,76.9,80.3,76.9,78.9 M78.1,79
						c0,1.3,0,2.6,0,3.9c0,0.7,0.3,1.1,0.8,1.4c2.3,1.3,4.6,2.6,7,3.9c0.4,0.2,1.2,0.2,1.5,0c2.4-1.2,4.7-2.6,7-3.9
						c0.6-0.3,0.8-0.8,0.8-1.4c0-2.6,0-5.2,0-7.7c0-0.7-0.4-1.2-1-1.5c-2.3-1.2-4.6-2.6-6.9-3.8c-0.6-0.3-1.1-0.4-1.7,0
						c-2.3,1.3-4.6,2.6-7,3.9C78.3,74,78,74.5,78,75.1C78.2,76.3,78.1,77.7,78.1,79"/>
				</g>
				<g>
					<defs>
						<rect id="SVGID_14_" x="74.9" y="66.7" width="23.7" height="24.7"/>
					</defs>
					<clipPath id="SVGID_15_">
						<use xlink:href="#SVGID_14_"  style="overflow:visible;"/>
					</clipPath>
					<polygon class="st15" points="81.7,76.1 81.7,79.3 86.8,75 91.9,79.3 91.9,76.1 86.8,71.8 					"/>
				</g>
				<g>
					<defs>
						<rect id="SVGID_16_" x="74.9" y="66.7" width="23.7" height="24.7"/>
					</defs>
					<clipPath id="SVGID_17_">
						<use xlink:href="#SVGID_16_"  style="overflow:visible;"/>
					</clipPath>
					<rect x="85.6" y="74.3" class="st16" width="2.5" height="11.3"/>
				</g>
			</g>
		</g>
	</g>
</g>
<g>
	<path class="st10" d="M84.4,118.3H5.6V39.5h78.8V118.3z M6.4,117.5h77.1V40.4H6.4V117.5z"/>
</g>
<g>
	<g>
		<path class="st11" d="M32.9,73.2L32.9,73.2c-0.2,0-0.4,0.1-0.4,0.3v6.4c0,0.2,0.1,0.3,0.3,0.3h0c0.2,0,0.3-0.1,0.3-0.3v-6.4
			C33.3,73.3,33.1,73.2,32.9,73.2z"/>
		<path class="st11" d="M34.9,71.4L34.9,71.4c-0.2,0-0.4,0.1-0.4,0.3v9.9c0,0.2,0.1,0.3,0.3,0.3h0c0.2,0,0.3-0.1,0.3-0.3v-9.9
			C35.2,71.5,35,71.4,34.9,71.4z"/>
		<path class="st11" d="M36.8,72.3L36.8,72.3c-0.2,0-0.4,0.1-0.4,0.3v8.2c0,0.2,0.1,0.3,0.3,0.3h0c0.2,0,0.3-0.1,0.3-0.3v-8.2
			C37.1,72.4,37,72.3,36.8,72.3z"/>
		<path class="st11" d="M38.7,72.7L38.7,72.7c-0.2,0-0.4,0.1-0.4,0.3v7.2c0,0.2,0.1,0.3,0.3,0.3h0c0.2,0,0.3-0.1,0.3-0.3V73
			C39,72.9,38.9,72.7,38.7,72.7z"/>
		<path class="st11" d="M40.6,72.3L40.6,72.3c-0.2,0-0.4,0.1-0.4,0.3v8c0,0.2,0.1,0.3,0.3,0.3h0c0.2,0,0.3-0.1,0.3-0.3v-8
			C40.9,72.5,40.8,72.3,40.6,72.3z"/>
		<path class="st11" d="M42.5,70L42.5,70c-0.2,0-0.4,0.1-0.4,0.3V83c0,0.2,0.1,0.3,0.3,0.3h0c0.2,0,0.3-0.1,0.3-0.3V70.3
			C42.9,70.1,42.7,70,42.5,70z"/>
		<path class="st11" d="M44.4,72c-0.2,0-0.3,0.1-0.3,0.3V81c0,0.2,0.1,0.3,0.3,0.3c0.2,0,0.3-0.1,0.3-0.3v-8.6
			C44.7,72.2,44.6,72,44.4,72z"/>
		<path class="st11" d="M46.4,73.9L46.4,73.9c-0.2,0-0.4,0.1-0.4,0.3v4.8c0,0.2,0.1,0.3,0.3,0.3h0c0.2,0,0.3-0.1,0.3-0.3v-4.8
			C46.7,74.1,46.6,73.9,46.4,73.9z"/>
		<path class="st11" d="M52.1,73.9L52.1,73.9c-0.2,0-0.4,0.1-0.4,0.3v4.8c0,0.2,0.1,0.3,0.3,0.3h0c0.2,0,0.3-0.1,0.3-0.3v-4.8
			C52.4,74.1,52.3,73.9,52.1,73.9z"/>
		<path class="st11" d="M48.3,72.5L48.3,72.5c-0.2,0-0.4,0.1-0.4,0.3v7.7c0,0.2,0.1,0.3,0.3,0.3h0c0.2,0,0.3-0.1,0.3-0.3v-7.7
			C48.6,72.6,48.5,72.5,48.3,72.5z"/>
		<path class="st11" d="M50.2,71.1L50.2,71.1c-0.2,0-0.4,0.1-0.4,0.3v10.4c0,0.2,0.1,0.3,0.3,0.3h0c0.2,0,0.3-0.1,0.3-0.3V71.4
			C50.5,71.3,50.4,71.1,50.2,71.1z"/>
		<path class="st11" d="M56,73.2L56,73.2c-0.2,0-0.4,0.1-0.4,0.3v6.3c0,0.2,0.1,0.3,0.3,0.3h0c0.2,0,0.3-0.1,0.3-0.3v-6.3
			C56.3,73.3,56.2,73.2,56,73.2z"/>
		<path class="st11" d="M54.1,72.3L54.1,72.3c-0.2,0-0.4,0.1-0.4,0.3v8.1c0,0.2,0.1,0.3,0.3,0.3h0c0.2,0,0.3-0.1,0.3-0.3v-8.1
			C54.4,72.5,54.2,72.3,54.1,72.3z"/>
	</g>
	<g>
		<path class="st11" d="M63,68.7c0-2.5-0.5-4.9-1.5-7.2c-0.5-1.1-1-2.2-1.7-3.1c-0.1-0.1-0.2-0.2-0.2-0.3c-0.6-0.9-1.3-1.7-2-2.4
			c-0.8-0.8-1.8-1.6-2.7-2.3c-1-0.7-2.1-1.2-3.1-1.7c-2.3-1-4.7-1.5-7.2-1.5c-2.5,0-4.9,0.5-7.2,1.5c-1.1,0.5-2.2,1-3.1,1.7
			c-1,0.7-1.9,1.4-2.7,2.3c-0.7,0.7-1.4,1.6-2,2.4c-0.1,0.1-0.2,0.2-0.2,0.3c-0.7,1-1.2,2.1-1.7,3.1c-1,2.3-1.5,4.7-1.5,7.2h1.5
			c0-4,1.4-7.8,3.8-10.7c3.1-3.9,7.9-6.3,13.2-6.3c5.3,0,10.1,2.5,13.2,6.3c2.4,2.9,3.8,6.6,3.8,10.7H63z"/>
		<path class="st11" d="M63.4,68.7H61c-0.9,0-1.7,0.8-1.7,1.7v10.7c0,0.9,0.8,1.7,1.7,1.7h2.3c0.9,0,1.7-0.8,1.7-1.7V70.5
			C65.1,69.5,64.3,68.7,63.4,68.7z"/>
		<path class="st11" d="M27.8,68.7h-2.3c-0.9,0-1.7,0.8-1.7,1.7v10.7c0,0.9,0.8,1.7,1.7,1.7h2.3c0.9,0,1.7-0.8,1.7-1.7V70.5
			C29.5,69.5,28.8,68.7,27.8,68.7z"/>
	</g>
</g>
<path class="st0" d="M111.7,106"/>
<g>
	<g>
		<path class="st0" d="M29,86.5c0.4,0,0.8,0.1,1.1,0.2c0.3,0.1,0.7,0.3,0.9,0.6c0.3,0.3,0.5,0.6,0.6,0.9c0.1,0.4,0.2,0.7,0.2,1.1
			v4.1c0,0.8-0.3,1.5-0.9,2.1L30.5,96l0.4,0.4c0.6,0.5,0.9,1.2,0.9,2v7h-0.4c-0.1,0-0.2,0-0.3-0.1c-0.1-0.1-0.1-0.2-0.1-0.3v-6.5
			c0-0.6-0.2-1.1-0.6-1.4c-0.4-0.4-0.9-0.6-1.4-0.6h-1.5v8.6c0,0.1,0,0.2-0.1,0.3c-0.1,0.1-0.2,0.1-0.3,0.1h-0.4V86.5H29z
			 M27.5,95.6H29c0.6,0,1.1-0.2,1.4-0.6c0.4-0.4,0.6-0.9,0.6-1.4v-4.1c0-0.6-0.2-1-0.6-1.4c-0.4-0.4-0.9-0.6-1.4-0.6h-1.5V95.6z"/>
		<path class="st0" d="M33.2,86.5h4.6V87c0,0.1,0,0.2-0.1,0.3c-0.1,0.1-0.2,0.1-0.3,0.1H34v8.2h3.3V96c0,0.1,0,0.2-0.1,0.3
			c-0.1,0.1-0.2,0.1-0.3,0.1H34v8.2h3.4c0.1,0,0.2,0,0.3,0.1c0.1,0.1,0.1,0.2,0.1,0.3v0.4h-4.6V86.5z"/>
		<path class="st0" d="M41.5,86.5c0.3,0,0.7,0.1,1,0.2c0.3,0.1,0.6,0.3,0.8,0.6c0.2,0.2,0.4,0.5,0.6,0.8c0.1,0.3,0.2,0.6,0.2,1v2.4
			h-0.4c-0.1,0-0.2,0-0.3-0.1c-0.1-0.1-0.1-0.2-0.1-0.3v-2c0-0.5-0.2-0.9-0.5-1.2c-0.3-0.3-0.8-0.5-1.2-0.5c-0.5,0-0.9,0.2-1.2,0.5
			c-0.3,0.3-0.5,0.8-0.5,1.2v13.7c0,0.5,0.2,0.9,0.5,1.2c0.3,0.4,0.7,0.5,1.2,0.5c0.5,0,0.9-0.2,1.2-0.5c0.3-0.3,0.5-0.8,0.5-1.2v-2
			c0-0.1,0-0.2,0.1-0.3c0.1-0.1,0.2-0.1,0.3-0.1h0.4v2.4c0,0.4-0.1,0.7-0.2,1c-0.1,0.3-0.3,0.6-0.6,0.8c-0.2,0.2-0.5,0.4-0.8,0.6
			c-0.3,0.1-0.7,0.2-1,0.2c-0.4,0-0.7-0.1-1-0.2c-0.3-0.1-0.6-0.3-0.8-0.6c-0.2-0.2-0.4-0.5-0.6-0.8c-0.1-0.3-0.2-0.7-0.2-1V89.1
			c0-0.3,0.1-0.7,0.2-1c0.1-0.3,0.3-0.6,0.6-0.8c0.2-0.2,0.5-0.4,0.8-0.6C40.8,86.6,41.1,86.5,41.5,86.5z"/>
		<path class="st0" d="M47.9,86.5c0.3,0,0.7,0.1,1,0.2c0.3,0.1,0.6,0.3,0.8,0.6c0.2,0.2,0.4,0.5,0.6,0.8c0.1,0.3,0.2,0.6,0.2,1v13.7
			c0,0.4-0.1,0.7-0.2,1c-0.1,0.3-0.3,0.6-0.6,0.8c-0.2,0.2-0.5,0.4-0.8,0.6c-0.3,0.1-0.7,0.2-1,0.2c-0.4,0-0.7-0.1-1-0.2
			c-0.3-0.1-0.6-0.3-0.8-0.6c-0.2-0.2-0.4-0.5-0.6-0.8c-0.1-0.3-0.2-0.7-0.2-1V89.1c0-0.3,0.1-0.7,0.2-1c0.1-0.3,0.3-0.6,0.6-0.8
			c0.2-0.2,0.5-0.4,0.8-0.6C47.3,86.6,47.6,86.5,47.9,86.5z M47.9,104.6c0.5,0,0.9-0.2,1.2-0.5c0.3-0.3,0.5-0.8,0.5-1.2V89.1
			c0-0.5-0.2-0.9-0.5-1.2c-0.3-0.3-0.8-0.5-1.2-0.5c-0.5,0-0.9,0.2-1.2,0.5c-0.3,0.3-0.5,0.8-0.5,1.2v13.7c0,0.5,0.2,0.9,0.5,1.2
			C47.1,104.4,47.5,104.6,47.9,104.6z"/>
		<path class="st0" d="M54.2,86.5c0.4,0,0.8,0.1,1.1,0.2c0.3,0.1,0.7,0.3,0.9,0.6c0.3,0.3,0.5,0.6,0.6,0.9C57,88.6,57,89,57,89.4
			v4.1c0,0.8-0.3,1.5-0.9,2.1L55.7,96l0.4,0.4c0.6,0.5,0.9,1.2,0.9,2v7h-0.4c-0.1,0-0.2,0-0.3-0.1c-0.1-0.1-0.1-0.2-0.1-0.3v-6.5
			c0-0.6-0.2-1.1-0.6-1.4c-0.4-0.4-0.9-0.6-1.4-0.6h-1.5v8.6c0,0.1,0,0.2-0.1,0.3c-0.1,0.1-0.2,0.1-0.3,0.1h-0.4V86.5H54.2z
			 M52.7,95.6h1.5c0.6,0,1.1-0.2,1.4-0.6c0.4-0.4,0.6-0.9,0.6-1.4v-4.1c0-0.6-0.2-1-0.6-1.4c-0.4-0.4-0.9-0.6-1.4-0.6h-1.5V95.6z"/>
		<path class="st0" d="M60.6,86.5c0.4,0,0.8,0.1,1.1,0.2c0.3,0.1,0.7,0.3,0.9,0.6c0.3,0.3,0.5,0.6,0.6,0.9c0.1,0.4,0.2,0.7,0.2,1.1
			v13.1c0,0.4-0.1,0.8-0.2,1.1c-0.1,0.3-0.4,0.7-0.6,0.9c-0.3,0.3-0.6,0.5-0.9,0.6c-0.3,0.1-0.7,0.2-1.1,0.2h-2.3V86.5H60.6z
			 M59.2,104.6h1.5c0.6,0,1.1-0.2,1.4-0.6c0.4-0.4,0.6-0.9,0.6-1.4V89.4c0-0.6-0.2-1-0.6-1.4c-0.4-0.4-0.9-0.6-1.4-0.6h-1.5V104.6z"
			/>
	</g>
	<g>
		<path class="st11" d="M39.2,111.5c0.4-0.1,0.8-0.1,1.2-0.1c0.3,0,0.5,0,0.8,0c0.2,0,0.5,0,0.7,0.1c0.3,0,0.5,0.2,0.8,0.4
			c0.1,0.1,0.2,0.3,0.1,0.5c-0.1,0.2-0.3,0.3-0.4,0.1c-0.2-0.2-0.4-0.3-0.7-0.3c-0.4-0.1-0.8,0-1.2,0c-0.6,0-1.2,0.1-1.8,0.2
			c-0.3,0.1-0.6,0.1-0.9,0.2c-0.3,0.1-0.6,0.1-0.9,0.2c-0.1,0-0.1,0-0.2,0c-0.3,0-0.5-0.1-0.5-0.4c0-0.1,0-0.2-0.1-0.3
			c0-0.1,0.1-0.2,0.2-0.2c0.1,0,0.3,0,0.4,0c0.3,0,0.6-0.1,0.9-0.1c0.2,0,0.4-0.2,0.4-0.4c0.2-0.9,0.5-1.9,0.8-2.8
			c0.1-0.3,0.2-0.6,0.4-0.9c0.3-0.5,0.6-1,0.8-1.5c0-0.1,0.1-0.1,0.1-0.2c0.1-0.2,0.2-0.2,0.4-0.1c0.1,0,0.1,0,0.1,0.1
			c0.2,0.1,0.3,0.4,0.2,0.6c-0.3,0.5-0.6,1-0.9,1.5c-0.2,0.4-0.4,0.8-0.5,1.3c-0.2,0.6-0.4,1.2-0.5,1.8c0,0.1-0.1,0.2,0,0.4
			C39,111.5,39.1,111.5,39.2,111.5z"/>
		<path class="st11" d="M42.6,107.8c0.1-0.1,0.1-0.2,0.2-0.1c0.1,0,0.3,0.1,0.4,0.2c0.1,0.1,0.1,0.1,0.1,0.2c0,0.1-0.1,0.2-0.2,0.3
			c-0.2,0.1-0.3,0.3-0.4,0.4c-0.1,0.1-0.2,0.3-0.2,0.4c-0.1,0.1-0.1,0.3-0.2,0.4c0,0.1,0,0.2,0.1,0.3c0,0,0.1,0,0.1,0.1
			c0.1,0.1,0.1,0.2,0,0.3c-0.2,0.1-0.4,0.2-0.6,0.1c-0.1,0-0.2-0.1-0.2-0.1c-0.1-0.1-0.2-0.3-0.3-0.4c-0.1,0.1-0.3,0.3-0.4,0.4
			c-0.1,0.1-0.2,0.2-0.3,0.2c-0.2,0.1-0.3,0-0.5-0.1c-0.1-0.1-0.2-0.2-0.2-0.3c-0.1-0.1-0.1-0.2-0.1-0.3c0.1-0.5,0.2-1,0.5-1.5
			c0.2-0.3,0.4-0.5,0.7-0.6c0.3-0.2,0.7-0.1,1,0.1c0.1,0.1,0.1,0.1,0.3,0.2C42.5,107.8,42.5,107.8,42.6,107.8z M40.9,109.5
			c0.2-0.2,0.3-0.3,0.5-0.5c0.1-0.2,0.3-0.4,0.5-0.4c0.1,0,0.1-0.2,0.1-0.3c-0.1-0.2-0.2-0.3-0.5-0.1c0,0-0.1,0.1-0.1,0.1
			c-0.3,0.3-0.5,0.8-0.6,1.3C40.9,109.5,40.9,109.5,40.9,109.5z"/>
		<path class="st11" d="M44.9,107.6c0.3-0.3,0.7-0.3,1,0c0.2,0.1,0.3,0.4,0.3,0.6c0,0.9-0.4,1.7-1.1,2.3c-0.1,0.1-0.2,0.1-0.3,0.2
			c-0.2,0.1-0.4,0.1-0.6,0c0,0-0.1-0.1-0.1-0.1c0,0.1,0,0.1-0.1,0.2c-0.1,0.2-0.3,0.3-0.4,0.2c-0.2-0.1-0.4-0.3-0.4-0.5
			c0-0.1,0-0.3,0-0.4c0.1-0.6,0.3-1.2,0.6-1.7c0.5-1,1-2,1.5-3c0.2-0.4,0.5-0.8,0.7-1.2c0,0,0-0.1,0.1-0.1c0.2-0.3,0.4-0.3,0.7-0.1
			c0.1,0.1,0.2,0.3,0.1,0.4c-0.5,0.5-0.8,1.1-1.1,1.7c-0.3,0.6-0.6,1.1-0.9,1.7c0,0.1-0.1,0.2-0.1,0.2c0,0,0,0,0,0
			C44.7,107.7,44.8,107.6,44.9,107.6z M45.5,108c-0.1-0.1-0.2,0-0.3,0.1c-0.3,0.2-0.5,0.6-0.7,0.9c-0.1,0.2-0.2,0.3-0.3,0.5
			c0.2,0.2,0.2,0.2,0.3,0.5C45.1,109.6,45.6,108.7,45.5,108z"/>
		<path class="st11" d="M47.2,109.4c0,0.1,0,0.2,0.1,0.3c0.1,0.1,0.2,0,0.3,0c0.1,0,0.3,0,0.4,0c0.1,0,0.1,0.1,0.1,0.2
			c0,0.1-0.1,0.2-0.1,0.2c-0.1,0-0.1,0.1-0.2,0.1c-0.4,0.3-0.8,0.1-1-0.2c-0.2-0.3-0.4-0.6-0.3-1c0.2-0.6,0.5-1,0.9-1.4
			c0.5-0.4,1.2-0.3,1.4,0.3c0.1,0.2,0,0.4-0.1,0.5c-0.1,0.2-0.3,0.3-0.5,0.4c-0.2,0.1-0.5,0.1-0.7,0c0,0-0.1-0.1-0.2-0.1
			C47.3,109,47.2,109.2,47.2,109.4z M48.1,108.2c-0.1,0.1-0.2,0.1-0.2,0.2c-0.1,0,0,0.1,0,0.1c0.1,0,0.2-0.1,0.4-0.3
			C48.2,108.2,48.1,108.2,48.1,108.2z"/>
		<path class="st11" d="M49.7,110.8c0.1,0.1,0.1,0.2,0.1,0.3c-0.1,0.1-0.1,0.2-0.3,0.2c-0.1,0-0.2,0-0.3-0.1
			c-0.3-0.2-0.4-0.4-0.4-0.7c0-0.8,0.2-1.5,0.5-2.2c0.3-0.8,0.8-1.6,1.3-2.4c0.1-0.1,0.2-0.2,0.3-0.4c0.1-0.1,0.2-0.1,0.3-0.1
			c0.1,0,0.3,0.1,0.4,0.2c0.1,0.1,0.1,0.2,0,0.3c-0.3,0.2-0.4,0.6-0.6,0.9c-0.4,0.6-0.8,1.3-1,2c-0.2,0.6-0.3,1.2-0.3,1.9
			C49.6,110.8,49.6,110.8,49.7,110.8z"/>
	</g>
</g>
<circle class="st11" cx="86.8" cy="78.9" r="2.1"/>
</svg>
