<svg xmlns="http://www.w3.org/2000/svg" width="20.538" height="20.538" viewBox="0 0 20.538 20.538">
  <g>
    <path fill="rgb(69,69,115)" fill-rule="evenodd" d="M10.26900843 4.43566874c6 0 9.75 5.33331298 9.91662597 5.58331298.08337403.16668702.08337403.33337403 0 .5-.16662597.25-4.75 5.58337403-9.91662597 5.58337403-5.16674805 0-9.75-5.33337403-9.91674805-5.58337403-.16662598-.16662597-.16662598-.41662597 0-.5.16674805-.25 4.75-5.58331298 9.91674805-5.58331298zm-9 5.83331298c1 1.083313 4.91662597 5 9 5 4.16662597 0 8.08337402-4 9.08337402-5-.83337402-1.08331298-4.25-5-9.08337402-5-4.08337403 0-8 3.91668702-9 5z"/>
    <path fill="rgb(69,69,115)" fill-rule="evenodd" d="M6.9356344 10.26898172c0-1.83331298 1.5-3.33331298 3.33337403-3.33331298 1.83325195 0 3.33325195 1.5 3.33325195 3.33331298 0 1.83337403-1.5 3.33337403-3.33325195 3.33337403-1.83337403 0-3.33337403-1.5-3.33337403-3.33337403zm.83337403 0c0 1.41668702 1.08337402 2.5 2.5 2.5 1.41662597 0 2.5-1.08331298 2.5-2.5 0-1.416687-1.08337403-2.5-2.5-2.5-1.41662598 0-2.5 1.083313-2.5 2.5z"/>
    <path fill="none" d="M18.1856484 2.35231505L2.35231504 18.1856484"/>
  </g>
</svg>
