<?xml version="1.0" encoding="utf-8"?>
<!-- Generator: Adobe Illustrator 25.0.0, SVG Export Plug-In . SVG Version: 6.00 Build 0)  -->
<svg version="1.1" id="Layer_1" xmlns="http://www.w3.org/2000/svg" xmlns:xlink="http://www.w3.org/1999/xlink" x="0px" y="0px"
	 viewBox="0 0 1500 1500" style="enable-background:new 0 0 1500 1500;" xml:space="preserve">
<style type="text/css">
	.st0{fill:none;stroke:#FFFFFF;stroke-width:100;stroke-miterlimit:10;}
	.st1{fill:#D84440;}
	.st2{fill:#FFFFFF;}
</style>
<g>
	<path d="M1349.5,1328.5"/>
	<path class="st0" d="M1349.5,1328.5"/>
</g>
<g>
	<path class="st1" d="M1344.5,749.8c0-58.1,78.8-125.7,64.5-179.3c-14.8-55.4-117.3-74.5-145.4-123c-28.5-49.2,5.9-147.5-34-187.4
		c-39.9-39.9-138.2-5.5-187.4-34c-48.5-28.1-67.6-130.6-123-145.4c-53.6-14.3-121.2,64.5-179.3,64.5c-58.1,0-125.7-78.8-179.3-64.5
		c-55.4,14.8-74.5,117.3-123,145.4c-49.2,28.5-147.5-5.9-187.4,34c-39.9,39.9-5.5,138.2-34,187.4c-28.1,48.5-130.6,67.6-145.4,123
		c-14.3,53.6,64.5,121.2,64.5,179.3c0,58.1-78.8,125.7-64.5,179.3c14.8,55.4,117.3,74.5,145.4,123c28.5,49.2-5.9,147.5,34,187.4
		c39.9,39.9,138.2,5.5,187.4,34c48.5,28.1,67.6,130.6,123,145.4c53.6,14.3,121.2-64.5,179.3-64.5c58.1,0,125.7,78.8,179.3,64.5
		c55.4-14.8,74.5-117.3,123-145.4c49.2-28.5,147.5,5.9,187.4-34c39.9-39.9,5.5-138.2,34-187.4c28.1-48.5,130.6-67.6,145.4-123
		C1423.3,875.6,1344.5,807.9,1344.5,749.8z"/>
</g>
<path class="st2" d="M730.5,994.1l-176-191.8c-12.5-13.3-11.9-34.1,1.4-46.6c13.3-12.5,34.1-11.9,46.6,1.4l120,132.4l259.1-375.7
	c10.3-15,30.9-18.8,45.9-8.4c15,10.3,18.8,30.9,8.4,45.9L730.5,994.1z"/>
</svg>
