<?xml version="1.0" encoding="utf-8"?>
<!-- Generator: Adobe Illustrator 25.0.0, SVG Export Plug-In . SVG Version: 6.00 Build 0)  -->
<svg version="1.1" id="Layer_1" xmlns="http://www.w3.org/2000/svg" xmlns:xlink="http://www.w3.org/1999/xlink" x="0px" y="0px"
	 viewBox="0 0 130 160" style="enable-background:new 0 0 130 160;" xml:space="preserve">
<style type="text/css">
	.st0{fill:#D74340;}
	.st1{fill:#E6E7E8;}
	.st2{fill:#414042;}
	.st3{fill:#D0D2D3;}
	.st4{fill:#53B67B;}
	.st5{fill:#2F2E41;}
	.st6{fill:#3F3D56;}
	.st7{fill:#EA5F57;}
	.st8{fill:#FFFFFF;}
	.st9{fill:#FF0000;}
	.st10{fill:#282828;}
	.st11{clip-path:url(#SVGID_2_);}
	.st12{clip-path:url(#SVGID_4_);fill:#FFFFFF;}
	.st13{clip-path:url(#SVGID_6_);fill:#D84440;}
	.st14{clip-path:url(#SVGID_8_);fill:#D84440;}
	.st15{clip-path:url(#SVGID_10_);fill:#D84440;}
	.st16{fill:#E1E1E1;}
	.st17{fill:#F5F5F5;}
	.st18{opacity:0.3;}
	.st19{fill:#ECECEC;}
	.st20{fill:#FF725E;}
	.st21{fill:#FAFAFA;}
	.st22{fill:#263238;}
	.st23{fill:#FFBE9D;}
	.st24{fill:#FF9A6C;}
	.st25{fill:#375A64;}
	.st26{fill:#106299;}
</style>
<path class="st0" d="M114.5,11.3C70.9,25.8,59.5,33.5,60.3,37.7C61.4,44.2,90,39.8,96,53c4.3,9.5-8.5,17.3-10.4,42.6
	c-0.4,6-1.5,20.6,5.9,25.1c5.8,3.5,14.4-0.7,15.1,0.9c0.5,1.3-5.1,5.1-10.7,7.7c-29.5,13.9-71.2,3-71.1-2.5c0-1.1,1.8-1.4,4.1-2.8
	c17.3-10.8,13.9-58.7,2.6-96.6c-3.4-11.4-5.4-15-3.2-19.1C36.1-5.9,78.5,2,114.5,11.3z"/>
<g>
	<g>
		<path class="st1" d="M126.6,132h-21.3l0,0c1.3-3.3,4.4-5.5,8-5.5h5.3C122.1,126.6,125.3,128.7,126.6,132L126.6,132z"/>
	</g>
	<g>
		<path class="st2" d="M126.6,132.3L126.6,132.3h-21.3c-0.1,0-0.2,0-0.2-0.1c0-0.1-0.1-0.2,0-0.2c1.3-3.4,4.6-5.6,8.2-5.6h5.3
			c3.6,0,6.9,2.2,8.2,5.6c0,0,0.1,0.1,0.1,0.2C126.9,132.2,126.7,132.3,126.6,132.3z M105.7,131.8h20.5c-1.3-3-4.3-4.9-7.6-4.9h-5.3
			C110,126.9,107,128.8,105.7,131.8z"/>
	</g>
</g>
<g>
	<g>
		<polygon class="st3" points="79,107.1 65.4,107.1 51.8,107.1 49.6,128.7 65.4,128.7 81.1,128.7 		"/>
	</g>
	<g>
		<path class="st2" d="M81.1,129H49.6c-0.1,0-0.1,0-0.2-0.1c-0.1-0.1-0.1-0.1-0.1-0.2l2.1-21.7c0-0.1,0.1-0.2,0.3-0.2H79
			c0.1,0,0.2,0.1,0.3,0.2l2.1,21.7c0,0.1,0,0.2-0.1,0.2C81.3,129,81.2,129,81.1,129z M49.9,128.4h30.8l-2-20.9H52L49.9,128.4z"/>
	</g>
	<g>
		<path class="st1" d="M1.7,97.6v6.3c0,3.8,2.5,6.9,5.6,6.9H123c3.1,0,5.6-3,5.6-6.9v-6.3H1.7z"/>
	</g>
	<g>
		<path class="st2" d="M128.8,98.6H1.9c-0.1,0-0.3-0.1-0.3-0.4V21.5c0-4,2.7-7.1,5.8-7.1h115.6c3.3,0,5.8,3.3,5.8,7.1v76.7
			C129.1,98.5,129,98.6,128.8,98.6z M2.2,98h126.3V21.5c0-3.6-2.4-6.5-5.3-6.5H7.5c-3,0-5.3,2.9-5.3,6.5C2.2,21.5,2.2,98,2.2,98z"/>
	</g>
	<g>
		<path class="st2" d="M122.7,95H8.1c-0.1,0-0.3-0.1-0.3-0.4V22c0-0.1,0.1-0.4,0.3-0.4h114.6c0.1,0,0.3,0.1,0.3,0.4v72.6
			C122.9,94.8,122.8,95,122.7,95z M8.4,94.3h114.1v-72H8.4V94.3z"/>
	</g>
	<g>
		<path class="st2" d="M123.2,111.8H7.5c-3.3,0-5.8-3.3-5.8-7.1v-6.3C1.7,98.2,1.8,98,2,98h126.8c0.1,0,0.3,0.1,0.3,0.4v6.3
			C129.1,108.5,126.4,111.8,123.2,111.8z M2.2,98.6v5.9c0,3.6,2.4,6.5,5.3,6.5h115.6c3,0,5.3-2.9,5.3-6.5v-5.9H2.2z"/>
	</g>
	<g>
		<path class="st4" d="M122.8,14.6H7.2c-3.1,0-5.6,3-5.6,6.9v76.7l0,0h6.1h120.8V21.5C128.5,17.8,126,14.6,122.8,14.6z"/>
	</g>
	<g>
		<path class="st1" d="M65.4,128.4H40.1c-1.2,0-2.2,1-2.2,2.2l0,0c0,1.2,1,2.2,2.2,2.2h25.3h25.3c1.2,0,2.2-1,2.2-2.2l0,0
			c0-1.2-1-2.2-2.2-2.2H65.4z"/>
	</g>
	<g>
		<path class="st2" d="M90.7,133.1H40.1c-1.4,0-2.5-1.1-2.5-2.5s1.1-2.5,2.5-2.5h50.6c1.4,0,2.5,1.1,2.5,2.5S92,133.1,90.7,133.1z
			 M40.1,128.6c-1.1,0-2,0.8-2,1.9s0.9,1.9,2,1.9h50.6c1.1,0,2-0.8,2-1.9s-0.9-1.9-2-1.9H40.1z"/>
	</g>
	<g>
		<path class="st2" d="M127,132.6H1.9c-0.1,0-0.3-0.1-0.3-0.2s0.1-0.2,0.3-0.2H127c0.1,0,0.3,0.1,0.3,0.2S127.1,132.6,127,132.6z"/>
	</g>
	<ellipse class="st5" cx="10.7" cy="24.6" rx="0.5" ry="0.6"/>
	<ellipse class="st5" cx="12.2" cy="24.6" rx="0.5" ry="0.6"/>
	<ellipse class="st5" cx="13.7" cy="24.6" rx="0.5" ry="0.6"/>
	<path class="st5" d="M116.1,95H8.4V23.1H122V95H116.1z M8.6,94.7h113.1V23.3H8.6V94.7z"/>
	<polygon class="st5" points="8.5,25.7 116.1,25.7 121.9,26 8.5,26 	"/>
	<rect x="10.2" y="28.7" class="st5" width="4" height="0.4"/>
	<rect x="10.2" y="30" class="st5" width="4" height="0.4"/>
	<rect x="10.2" y="31.3" class="st5" width="4" height="0.4"/>
	<path class="st5" d="M79.9,30.4H39V28h40.9V30.4z M39.2,30.2h40.5v-1.9H39.2C39.2,28.3,39.2,30.2,39.2,30.2z"/>
	<path class="st5" d="M90.1,86.8H15V34.7h75V86.8z M15.2,86.6h74.6V34.9H15.2V86.6z"/>
	<path class="st6" d="M24.1,80.2v1.5l-1.6-1.5h-0.1l0,0v3c0,0,0,0.1,0.1,0.1l0,0l1.6-1.5v1.5l0,0h0.5l0,0v-3.1l0,0H24.1L24.1,80.2z"
		/>
	<path class="st6" d="M19.8,83.5h-0.5c0,0-0.1,0-0.1-0.1l0,0v-3.1c0,0,0-0.1,0.1-0.1l0,0h0.5c0,0,0.1,0,0.1,0.1l0,0L19.8,83.5
		C19.9,83.5,19.9,83.5,19.8,83.5L19.8,83.5z M21.1,83.5h-0.5c0,0-0.1,0-0.1-0.1l0,0v-3.1c0,0,0-0.1,0.1-0.1l0,0h0.5
		c0,0,0.1,0,0.1,0.1l0,0L21.1,83.5L21.1,83.5L21.1,83.5L21.1,83.5z"/>
	<path class="st2" d="M16.4,80.3v3.1c0,0,0,0.1,0.1,0.1l0,0l1.7-1.6v-0.1l0,0L16.4,80.3C16.4,80.2,16.4,80.2,16.4,80.3
		C16.4,80.2,16.4,80.3,16.4,80.3z"/>
	<rect x="16.8" y="78.1" class="st5" width="72.2" height="0.4"/>
	<rect x="16.8" y="78.1" class="st7" width="11.1" height="0.6"/>
	<g>
		<g>
			<polygon class="st8" points="74,83.3 74,83.3 74,88.1 75.2,87.2 76.5,89.9 77.1,89.5 77.7,89.1 76.3,86.5 77.6,85.6 			"/>
		</g>
		<g>
			<path class="st2" d="M76.5,90L76.5,90L76.5,90l-1.4-2.7L74,88.1h-0.1c0,0-0.1,0-0.1-0.1l0.1-4.7c0,0,0-0.1,0.1-0.1h0.1l3.7,2.3
				c0,0,0.1,0,0.1,0.1c0,0,0,0.1-0.1,0.1l-1.3,0.8l1.3,2.5c0,0,0,0,0,0.1c0,0,0,0,0,0.1L76.5,90C76.6,90,76.5,90,76.5,90z
				 M75.2,87.1L75.2,87.1C75.2,87.1,75.2,87.2,75.2,87.1l1.4,2.7l1-0.6l-1.3-2.5v-0.1l1.1-0.7l-3.4-2.1L74,88.1L75.2,87.1
				C75.1,87.1,75.1,87.1,75.2,87.1z"/>
		</g>
	</g>
</g>
<g>
	<g>
		<path class="st9" d="M38.1,37.4c-0.3-0.9-1-1.5-2.1-1.8c-1.7-0.3-9-0.3-9-0.3s-6.9,0-9,0.3c-1,0.3-1.7,0.9-2.1,1.8
			c-0.3,1.5-0.3,4.9-0.3,4.9s0,3.4,0.3,4.9c0.3,0.9,1,1.5,2.1,1.8c1.7,0.3,9,0.3,9,0.3s6.9,0,9-0.3c1-0.3,1.7-0.9,2.1-1.8
			c0.3-1.5,0.3-4.9,0.3-4.9S38.4,38.9,38.1,37.4z"/>
		<polygon class="st8" points="24.9,45.3 30.8,42.3 24.9,39.3 		"/>
	</g>
	<g>
		<path class="st10" d="M48.8,48.1c-0.3-0.3-0.7-0.6-1-1.2c-0.3-0.6-0.3-1.2-0.3-2.1v-1.2c0-0.9,0-1.8,0.3-2.1
			c0.3-0.6,0.7-0.9,1-1.2c0.3-0.3,1-0.3,1.7-0.3c0.7,0,1.4,0,1.7,0.3c0.3,0.3,0.7,0.6,1,1.2c0.3,0.6,0.3,1.2,0.3,2.1v1.2
			c0,0.9,0,1.8-0.3,2.1c-0.3,0.6-0.7,0.9-1,1.2c-0.3,0.3-1,0.3-1.7,0.3C49.9,48.4,49.2,48.1,48.8,48.1z M51.3,46.6
			c0-0.3,0.3-0.6,0.3-1.5v-2.7c0-0.6,0-1.2-0.3-1.5c0-0.3-0.3-0.3-0.7-0.3c-0.3,0-0.3,0-0.7,0.3c0,0.3-0.3,0.6-0.3,1.5V45
			c0,0.6,0,1.2,0.3,1.5c0,0.3,0.3,0.3,0.7,0.3C50.9,46.9,51.3,46.9,51.3,46.6z"/>
		<path class="st10" d="M83.1,44.4v0.3c0,0.6,0,0.9,0,1.2c0,0.3,0,0.6,0.3,0.6c0,0,0.3,0.3,0.7,0.3c0.3,0,0.7,0,0.7-0.3
			c0-0.3,0.3-0.6,0.3-1.2h2.1v0.3c0,0.9-0.3,1.5-0.7,1.8c-0.3,0.3-1.4,0.6-2.1,0.6c-1,0-1.7-0.3-2.4-0.9c-1-0.3-1-1.2-1-2.4v-1.5
			c0-1.2,0.3-2.1,0.7-2.7c0.3-0.6,1.4-0.9,2.4-0.9c0.7,0,1.4,0,1.7,0.3c0.3,0.3,0.7,0.6,1,1.2c0,0.6,0.3,1.2,0.3,2.1v1.5h-4.2V44.4z
			 M83.5,40.8c0,0-0.3,0.3-0.3,0.6c0,0.3,0,0.6,0,1.2v0.6h1.7v-0.6c0-0.6,0-0.9,0-1.2c0-0.3,0-0.6-0.3-0.6c0,0-0.3-0.3-0.7-0.3
			C83.8,40.8,83.5,40.8,83.5,40.8z"/>
		<path class="st10" d="M43.3,44.4l-2.4-8.2h2.1l1,3.7c0.3,0.9,0.3,1.5,0.3,2.4l0,0c0-0.3,0.3-1.2,0.3-2.4l1-3.7h2.1l-2.4,8.2v4
			h-2.1C43.3,48.4,43.3,44.4,43.3,44.4z"/>
		<path class="st10" d="M60.9,39.6v8.8h-1.7l-0.3-1.2l0,0c-0.3,0.9-1,1.2-2.1,1.2c-0.7,0-1-0.3-1.4-0.6c-0.3-0.3-0.3-0.9-0.3-1.8
			v-6.4h2.1V46c0,0.3,0,0.6,0,0.9s0.3,0.3,0.3,0.3c0.3,0,0.3,0,0.7-0.3c0.3,0,0.3-0.3,0.3-0.3v-7H60.9z"/>
		<path class="st10" d="M72.4,39.6v8.8h-1.7l-0.3-1.2l0,0c-0.3,0.9-1,1.2-2.1,1.2c-0.7,0-1-0.3-1.4-0.6c-0.3-0.3-0.3-0.9-0.3-1.8
			v-6.4h2.1V46c0,0.3,0,0.6,0,0.9s0.3,0.3,0.3,0.3c0.3,0,0.3,0,0.7-0.3c0.3,0,0.3-0.3,0.3-0.3v-7H72.4z"/>
		<path class="st10" d="M66.8,37.7h-2.1v10.4h-2.1V37.7h-2.4v-1.5h6.6V37.7z"/>
		<path class="st10" d="M79.6,40.8c0-0.6-0.3-0.9-0.7-1.2c-0.3-0.3-0.7-0.3-1.4-0.3c-0.3,0-0.7,0-1,0.3s-0.7,0.6-0.7,0.9l0,0v-4.6
			h-2.1v12.5h1.7l0.3-0.9l0,0c0,0.3,0.3,0.6,0.7,0.6c0.3,0.3,0.7,0.3,1,0.3c0.7,0,1.4-0.3,1.7-0.9c0.3-0.6,0.7-1.5,0.7-2.7v-1.5
			C80,42.3,80,41.4,79.6,40.8z M77.6,44.4c0,0.6,0,1.2,0,1.5c0,0.3,0,0.6-0.3,0.9c0,0-0.3,0.3-0.7,0.3c-0.3,0-0.3,0-0.3,0l-0.3-0.3
			V42c0-0.3,0.3-0.3,0.3-0.6c0.3,0,0.3-0.3,0.7-0.3c0.3,0,0.3,0,0.7,0.3c0,0.3,0.3,0.3,0.3,0.9c0,0.3,0,0.9,0,1.5v0.6H77.6z"/>
	</g>
</g>
<path class="st0" d="M-15.6,267.6"/>
<g>
	<g>
		<g>
			<g>
				<defs>
					<rect id="SVGID_1_" x="91.6" y="63.9" width="29" height="30.3"/>
				</defs>
				<clipPath id="SVGID_2_">
					<use xlink:href="#SVGID_1_"  style="overflow:visible;"/>
				</clipPath>
				<g class="st11">
					<g>
						<g>
							<defs>
								<rect id="SVGID_3_" x="91.6" y="63.9" width="29" height="30.3"/>
							</defs>
							<clipPath id="SVGID_4_">
								<use xlink:href="#SVGID_3_"  style="overflow:visible;"/>
							</clipPath>
							<path class="st12" d="M92.2,78.8c0-2,0-3.9,0-5.9c0-1.1,0.5-2,1.6-2.6c3.7-2.1,7.4-4.2,11.2-6c0.7-0.4,1.8-0.4,2.6,0
								c3.7,1.8,7.4,4,11.2,6c1,0.5,1.6,1.5,1.6,2.6c0,4,0,8.1,0,12.1c0,1.1-0.5,2.1-1.6,2.6c-3.6,2-7.1,3.9-10.8,5.9
								c-1,0.5-2.1,0.5-3.1,0c-3.6-2-7.1-3.9-10.8-5.9c-1.1-0.6-1.6-1.5-1.6-2.7C92.3,82.9,92.2,80.8,92.2,78.8"/>
						</g>
					</g>
					<g>
						<g>
							<defs>
								<rect id="SVGID_5_" x="91.6" y="63.9" width="29" height="30.3"/>
							</defs>
							<clipPath id="SVGID_6_">
								<use xlink:href="#SVGID_5_"  style="overflow:visible;"/>
							</clipPath>
							<path class="st13" d="M94,78.8c0-1.7,0-3.4,0-5.1c0-1,0.5-1.7,1.3-2.2c3.2-1.8,6.4-3.6,9.7-5.3c0.6-0.2,1.6-0.2,2.2,0
								c3.3,1.8,6.5,3.6,9.7,5.4c1,0.5,1.3,1.2,1.3,2.2c0,3.4,0,7,0,10.5c0,1.1-0.5,1.8-1.5,2.3c-3.1,1.7-6.3,3.4-9.3,5.1
								c-0.9,0.5-1.8,0.5-2.7,0c-3.1-1.7-6.3-3.4-9.4-5.1c-1-0.5-1.5-1.2-1.3-2.5C94.2,82.4,94,80.5,94,78.8 M95.5,78.9
								c0,1.6,0,3.2,0,4.8c0,0.9,0.4,1.3,1,1.7c2.8,1.6,5.6,3.2,8.6,4.8c0.5,0.2,1.5,0.2,1.8,0c2.9-1.5,5.8-3.2,8.6-4.8
								c0.7-0.4,1-1,1-1.7c0-3.2,0-6.4,0-9.4c0-0.9-0.5-1.5-1.2-1.8c-2.8-1.5-5.6-3.2-8.5-4.7c-0.7-0.4-1.3-0.5-2.1,0
								c-2.8,1.6-5.6,3.2-8.6,4.8c-0.4,0.2-0.7,0.9-0.7,1.6C95.6,75.6,95.5,77.3,95.5,78.9"/>
						</g>
					</g>
					<g>
						<g>
							<defs>
								<rect id="SVGID_7_" x="91.6" y="63.9" width="29" height="30.3"/>
							</defs>
							<clipPath id="SVGID_8_">
								<use xlink:href="#SVGID_7_"  style="overflow:visible;"/>
							</clipPath>
							<polygon class="st14" points="99.9,75.4 99.9,79.3 106.2,74 112.4,79.3 112.4,75.4 106.2,70.1 							"/>
						</g>
					</g>
					<g>
						<g>
							<defs>
								<rect id="SVGID_9_" x="91.6" y="63.9" width="29" height="30.3"/>
							</defs>
							<clipPath id="SVGID_10_">
								<use xlink:href="#SVGID_9_"  style="overflow:visible;"/>
							</clipPath>
							<rect x="104.7" y="73.2" class="st15" width="3.1" height="13.9"/>
						</g>
					</g>
				</g>
			</g>
		</g>
	</g>
</g>
<g>
	<g>
		<g>
			<g>
				<g>
					<path class="st16" d="M83.5,70c0,0,0.8-0.4,1.8-1c1-0.5,1.8-0.9,1.8-0.9c0,0-0.8,0.4-1.8,1C84.3,69.6,83.5,70,83.5,70z"/>
				</g>
			</g>
		</g>
	</g>
	<g>
		<g>
			<g>
				<g>
					<path class="st16" d="M42.3,76.1c0,0-0.6,0.3-1.3,0.7c-0.7,0.4-1.3,0.7-1.3,0.7"/>
				</g>
			</g>
		</g>
		<g>
			<g>
				<g>
					<path class="st16" d="M44.4,78.2c0.2,0.8,0.4,1.4,0.4,1.4"/>
				</g>
			</g>
		</g>
	</g>
	<g>
		<g>
			<g>
				<g>
					<g>
						<g>
							<g>
								<polygon class="st17" points="41,68.3 34.9,70.8 32.6,64.8 38.7,62.3 								"/>
							</g>
						</g>
					</g>
				</g>
			</g>
			<g>
				<g>
					<g>
						<g>
							<g>
								<polygon class="st16" points="35.2,70.1 35.7,66.3 37.8,67.7 38.3,66.3 40.4,68 								"/>
							</g>
						</g>
					</g>
				</g>
			</g>
			<g>
				<g>
					<g>
						<g>
							<g>
								<path class="st16" d="M37.4,64.9c0.1,0.2,0,0.5-0.3,0.6c-0.2,0.1-0.5,0-0.6-0.3c-0.1-0.2,0-0.5,0.3-0.6
									C37.1,64.5,37.3,64.7,37.4,64.9z"/>
							</g>
						</g>
					</g>
				</g>
			</g>
			<g>
				<g>
					<g>
						<g class="st18">
							<g>
								<g>
									<path class="st16" d="M40.4,68C40.4,68,40.4,68,40.4,68C40.4,68,40.3,67.9,40.4,68c-0.1-0.2-0.1-0.2-0.1-0.4
										c-0.1-0.2-0.2-0.6-0.4-1c-0.3-0.9-0.8-2.1-1.4-3.6l0,0c-1.5,0.6-3.3,1.3-5.2,2.1c0,0,0-0.1,0,0l0,0l0,0l0,0l0,0l0,0l0,0
										l0,0.1l0.1,0.2c0,0.1,0.1,0.2,0.1,0.3c0.1,0.2,0.2,0.4,0.3,0.7c0.2,0.4,0.3,0.9,0.5,1.3c0.3,0.8,0.6,1.6,0.9,2.4l0,0
										c1.5-0.6,2.8-1.1,3.7-1.5c0.5-0.2,0.8-0.3,1.1-0.4C40.1,68.1,40.2,68.1,40.4,68C40.3,68,40.3,68,40.4,68
										C40.4,68,40.4,68,40.4,68C40.4,68,40.4,68,40.4,68C40.3,68,40.3,68,40.4,68c-0.2,0.1-0.2,0.1-0.4,0.2
										c-0.2,0.1-0.6,0.2-1,0.4c-0.9,0.4-2.2,0.9-3.7,1.5l0,0l0,0c-0.3-0.7-0.6-1.5-0.9-2.4c-0.2-0.4-0.3-0.9-0.5-1.3
										c-0.1-0.2-0.2-0.4-0.3-0.7c0-0.1-0.1-0.2-0.1-0.3l-0.1-0.2l0-0.1l0,0l0,0l0,0l0,0l0,0l0,0c0,0,0-0.1,0,0
										c1.9-0.8,3.7-1.5,5.2-2.1l0,0l0,0c0.6,1.5,1.1,2.8,1.4,3.6c0.2,0.4,0.3,0.8,0.4,1C40.3,67.8,40.3,67.9,40.4,68
										C40.4,67.9,40.4,68,40.4,68C40.4,68,40.4,68,40.4,68z"/>
								</g>
							</g>
						</g>
					</g>
				</g>
			</g>
		</g>
	</g>
	<g>
		<path class="st19" d="M73.7,78.7l-0.3-0.2c-0.2-0.1-0.3-0.3-0.4-0.6l-0.2-1c-0.2-0.7-0.8-1.1-1.4-1.1l-0.1-0.4
			c0-0.1-0.1-0.2-0.2-0.1l0,0c-0.1,0-0.2,0.1-0.1,0.2l0.1,0.4c-0.6,0.2-1,0.9-0.9,1.6l0.2,1c0,0.2,0,0.4-0.1,0.6L70,79.6l1.3-0.3
			c0.1,0.1,0.2,0.2,0.4,0.2c0.2,0,0.4-0.1,0.6-0.2c0.1-0.1,0.1-0.2,0.1-0.3L73.7,78.7z"/>
	</g>
	<g>
		<g>
			<g>
				<g>
					<g>
						<g>
							<g>
								<g>
									<polygon class="st17" points="74.4,51 80.3,54.9 77.8,59 71.9,54.9 									"/>
								</g>
							</g>
						</g>
						<g>
							<g>
								<g>
									<path class="st20" d="M74.4,51l4.2-0.4c0.2,0,0.3,0.1,0.4,0.3l1.2,4"/>
								</g>
							</g>
						</g>
						<g>
							<g>
								<g>
									<path class="st16" d="M74.4,51l4.2-0.4c0.2,0,0.3,0.1,0.4,0.3l1.2,4"/>
								</g>
							</g>
						</g>
						<g>
							<g>
								<g>
									<g>
										<path class="st16" d="M71.9,54.9c0,0,0.8-0.2,1.8-0.5c1-0.2,1.8-0.4,1.8-0.4c0,0-0.8,0.2-1.8,0.5
											C72.7,54.7,71.9,54.9,71.9,54.9z"/>
									</g>
								</g>
							</g>
						</g>
						<g>
							<g>
								<g>
									<g>
										<path class="st16" d="M77.8,59c0,0-0.1-0.8-0.3-1.8c-0.1-1-0.2-1.8-0.2-1.8c0,0,0.1,0.8,0.3,1.8
											C77.7,58.2,77.8,59,77.8,59z"/>
									</g>
								</g>
							</g>
						</g>
						<g>
							<polygon class="st16" points="74.4,51 75.8,55.3 80.3,54.9 							"/>
						</g>
					</g>
					<g>
						<g>
							<g>
								<g>
									<polygon class="st21" points="74.6,51.4 75.8,49.6 80.9,52.9 79.7,54.9 75.8,55.2 									"/>
								</g>
								<g>
									<g>
										<path class="st16" d="M74.6,51.4C74.6,51.4,74.6,51.5,74.6,51.4c0,0.1,0.1,0.2,0.1,0.3c0.1,0.2,0.1,0.4,0.3,0.8
											c0.2,0.7,0.5,1.6,0.9,2.8l0,0c1.1-0.1,2.4-0.2,3.9-0.3l0,0c0.2-0.4,0.5-0.8,0.7-1.2c0.2-0.3,0.3-0.5,0.5-0.8l0,0
											c-2.1-1.4-3.9-2.6-5.1-3.4l0,0c-0.4,0.6-0.7,1-0.9,1.4c-0.1,0.2-0.2,0.3-0.2,0.4C74.7,51.3,74.6,51.4,74.6,51.4
											C74.6,51.4,74.6,51.4,74.6,51.4S74.6,51.4,74.6,51.4c0-0.1,0.1-0.1,0.1-0.1c0.1-0.1,0.1-0.2,0.2-0.4
											c0.2-0.3,0.5-0.8,0.9-1.4l0,0l0,0c1.2,0.8,3.1,2,5.1,3.4l0,0l0,0c-0.2,0.3-0.3,0.5-0.5,0.8c-0.2,0.4-0.5,0.8-0.7,1.2l0,0
											l0,0c-1.4,0.1-2.7,0.2-3.9,0.3l0,0l0,0c-0.4-1.2-0.7-2.1-0.9-2.8c-0.1-0.3-0.2-0.6-0.2-0.8C74.7,51.6,74.6,51.5,74.6,51.4
											C74.6,51.5,74.6,51.4,74.6,51.4z"/>
									</g>
								</g>
							</g>
						</g>
					</g>
				</g>
			</g>
		</g>
		<g>
			<g>
				<path class="st16" d="M79.5,53.3c0,0-0.8-0.5-1.8-1.1C76.8,51.6,76,51,76,51c0,0,0.8,0.5,1.8,1.1C78.7,52.8,79.5,53.3,79.5,53.3
					z"/>
			</g>
		</g>
		<g>
			<g>
				<path class="st16" d="M79.2,53.8c0,0-0.8-0.5-1.8-1.1c-1-0.6-1.7-1.2-1.7-1.2s0.8,0.5,1.8,1.1C78.4,53.3,79.2,53.8,79.2,53.8z"
					/>
			</g>
		</g>
		<g>
			<g>
				<path class="st16" d="M78.8,54.4c0,0-0.8-0.5-1.8-1.1c-1-0.6-1.7-1.2-1.7-1.2c0,0,0.8,0.5,1.8,1.1C78,53.9,78.8,54.4,78.8,54.4z
					"/>
			</g>
		</g>
		<g>
			<g>
				<path class="st16" d="M78.4,55c0,0-0.8-0.5-1.7-1.1c-0.9-0.6-1.7-1.1-1.6-1.1c0,0,0.8,0.5,1.7,1.1C77.6,54.5,78.4,55,78.4,55z"
					/>
			</g>
		</g>
		<g>
			<g>
				<path class="st16" d="M77.4,55.1C77.4,55.1,77.3,55.1,77.4,55.1c-0.1-0.1-0.2-0.1-0.3-0.2c-0.2-0.1-0.4-0.3-0.7-0.5
					c-0.3-0.2-0.5-0.4-0.7-0.5c-0.1-0.1-0.2-0.1-0.2-0.1c0,0-0.1-0.1-0.1-0.1c0,0,0,0,0.1,0c0.1,0,0.1,0.1,0.2,0.1
					c0.2,0.1,0.4,0.3,0.7,0.5c0.3,0.2,0.5,0.3,0.7,0.5C77.2,55,77.3,55,77.4,55.1C77.4,55.1,77.4,55.1,77.4,55.1z"/>
			</g>
		</g>
		<g>
			<g>
				<path class="st16" d="M76.4,55.2c0,0-0.2-0.1-0.4-0.2c-0.2-0.1-0.4-0.3-0.4-0.3c0,0,0.2,0.1,0.4,0.2
					C76.2,55.1,76.4,55.2,76.4,55.2z"/>
			</g>
		</g>
	</g>
	<g>
		<g>
			<g>
				<g>
					<path class="st19" d="M54.1,54.5l-0.9,1.4l-0.3-0.1l-2.6,1.7l-0.5-1.4c0,0,1.5-0.4,1.8-0.9c0.3-0.5,0-0.6,0-0.6l0.7-0.7
						L54.1,54.5z"/>
				</g>
			</g>
			<g>
				<g>
					<g>
						<g>
							<g>
								<path class="st19" d="M53.5,51.4c0,0-1-0.4-2.3-2c-1.3-1.6-1.8-3.7-2-3.7c-0.2,0-0.9-0.5-2.8,2.7c-1.9,3.2-1.4,4-1.1,4
									c0.3,0,2.4-0.3,3.7,0c1.3,0.3,2.8,1.2,2.8,1.2L53.5,51.4z"/>
							</g>
						</g>
						<g>
							<g>
								<path class="st16" d="M55.6,53.6l-0.4,0.7l-0.2,0.3c-0.3,0.4-0.8,0.5-1.2,0.3l-2.2-1.1l1.7-2.9l2.1,1.5
									C55.7,52.7,55.8,53.2,55.6,53.6z"/>
							</g>
						</g>
						<g>
							<g>
								<path class="st16" d="M46.5,48.5c-1,1.7-1.5,3.3-1.2,3.5c0.4,0.2,1.5-1,2.5-2.7c1-1.7,1.5-3.3,1.2-3.5
									C48.6,45.6,47.5,46.8,46.5,48.5z"/>
							</g>
						</g>
					</g>
					<g>
						<g>
							<path class="st19" d="M55.1,53.7c0,0-0.3-0.1-0.7-0.4c-0.3-0.2-0.6-0.4-0.6-0.4c0,0,0.3,0.1,0.7,0.4
								C54.8,53.5,55.1,53.7,55.1,53.7z"/>
						</g>
					</g>
					<g>
						<g>
							<path class="st19" d="M55.3,53.3c0,0-0.3-0.1-0.6-0.3c-0.3-0.2-0.6-0.4-0.5-0.4c0,0,0.3,0.1,0.6,0.3
								C55.1,53.1,55.3,53.3,55.3,53.3z"/>
						</g>
					</g>
					<g>
						<g>
							<path class="st19" d="M54.8,54.1c0,0-0.1,0-0.2-0.1c-0.1,0-0.1-0.1-0.2-0.1c-0.1,0-0.1-0.1-0.2-0.1c-0.3-0.2-0.6-0.4-0.5-0.4
								c0,0,0.3,0.1,0.6,0.3c0.1,0,0.2,0.1,0.2,0.1c0.1,0,0.1,0.1,0.2,0.1C54.7,54.1,54.8,54.1,54.8,54.1z"/>
						</g>
					</g>
					<g>
						<g>
							<path class="st21" d="M48.2,48.3c0,0-0.9-0.7-1.5,0.5C46,50,47,50.3,47,50.3C47.4,49.8,47.8,49.1,48.2,48.3z"/>
						</g>
					</g>
					<g>
						<g>
							<path class="st16" d="M49.3,46.9c0,0,0,0.1-0.1,0.2c0,0.2-0.1,0.4-0.2,0.6c-0.1,0.1-0.1,0.3-0.2,0.4c0,0.1-0.1,0.2-0.1,0.2
								c0,0,0,0.1-0.1,0.1c0,0,0,0.1-0.1,0.1c-0.1,0.2-0.2,0.3-0.3,0.5c0,0,0,0.1-0.1,0.1c0,0-0.1,0.1-0.1,0.1
								c-0.1,0.1-0.1,0.2-0.2,0.3C48,49.8,48,49.9,47.9,50c0,0-0.1,0.1-0.1,0.1c0,0-0.1,0.1-0.1,0.1c-0.1,0.2-0.2,0.3-0.4,0.5
								c0,0-0.1,0.1-0.1,0.1c0,0-0.1,0.1-0.1,0.1c-0.1,0.1-0.1,0.1-0.2,0.2c-0.1,0.1-0.2,0.2-0.3,0.3c-0.2,0.2-0.4,0.3-0.5,0.5
								C46.1,52,46,52.1,46,52.1c0,0,0.1-0.1,0.2-0.2c0.1-0.1,0.3-0.3,0.5-0.5c0.1-0.1,0.2-0.2,0.3-0.3c0.1-0.1,0.1-0.1,0.2-0.2
								c0,0,0.1-0.1,0.1-0.1c0,0,0.1-0.1,0.1-0.1c0.1-0.1,0.2-0.3,0.3-0.5c0,0,0.1-0.1,0.1-0.1c0,0,0.1-0.1,0.1-0.1
								c0.1-0.1,0.1-0.2,0.2-0.3c0.1-0.1,0.1-0.2,0.2-0.3c0,0,0.1-0.1,0.1-0.1c0,0,0-0.1,0.1-0.1c0.1-0.2,0.2-0.4,0.3-0.5
								c0,0,0-0.1,0.1-0.1c0,0,0-0.1,0.1-0.1c0-0.1,0.1-0.2,0.1-0.2c0.1-0.2,0.1-0.3,0.2-0.4c0.1-0.3,0.2-0.5,0.2-0.6
								C49.3,47,49.3,46.9,49.3,46.9z"/>
						</g>
					</g>
				</g>
			</g>
		</g>
		<g>
			<g>
				<path class="st19" d="M44.4,49.4c0,0-0.7,0-1.5-0.1c-0.8,0-1.5-0.1-1.5-0.1c0,0,0.7,0,1.5,0.1C43.7,49.3,44.4,49.4,44.4,49.4z"
					/>
			</g>
		</g>
		<g>
			<g>
				<path class="st19" d="M45.1,47.4c0,0-0.8-0.4-1.7-0.9c-0.9-0.5-1.7-0.9-1.7-0.9c0,0,0.8,0.4,1.7,0.9
					C44.3,47,45.1,47.4,45.1,47.4z"/>
			</g>
		</g>
		<g>
			<g>
				<path class="st19" d="M46.2,46.1c0,0-0.2-0.6-0.4-1.3c-0.2-0.7-0.3-1.3-0.3-1.3c0,0,0.2,0.6,0.4,1.3
					C46.1,45.5,46.2,46.1,46.2,46.1z"/>
			</g>
		</g>
	</g>
	<g>
		<g>
			<g>
				<path class="st19" d="M72.3,47.8c-0.1-0.2-0.2-0.4-0.4-0.6c-0.2-0.1-0.4-0.2-0.6-0.2c-0.2,0-0.5,0.1-0.6,0.2
					c-0.1,0.1-0.2,0.2-0.2,0.4c-0.1-0.1-0.2-0.2-0.3-0.2c-0.2-0.1-0.5-0.1-0.7,0c-0.2,0.1-0.4,0.2-0.5,0.4c-0.1,0.2-0.2,0.4-0.2,0.7
					c0,0.3,0.1,0.6,0.3,0.8c0.2,0.2,0.5,0.4,0.8,0.5c0.5,0.2,1.1,0.4,1.1,0.4s0.4-0.4,0.8-0.8c0.2-0.2,0.4-0.4,0.5-0.7
					C72.4,48.4,72.4,48.1,72.3,47.8z"/>
			</g>
		</g>
	</g>
	<g>
		<g>
			<g>
				<path class="st19" d="M68.3,45.4c0-0.1,0-0.3-0.1-0.4c-0.1-0.1-0.2-0.2-0.3-0.3c-0.1-0.1-0.3,0-0.4,0c-0.1,0-0.1,0.1-0.2,0.2
					c0-0.1-0.1-0.1-0.1-0.2c-0.1-0.1-0.2-0.2-0.4-0.1c-0.1,0-0.3,0.1-0.4,0.2c-0.1,0.1-0.2,0.2-0.2,0.3c0,0.2,0,0.4,0,0.5
					c0.1,0.2,0.2,0.3,0.3,0.4c0.2,0.2,0.5,0.4,0.5,0.4s0.3-0.2,0.6-0.3c0.2-0.1,0.3-0.2,0.4-0.3C68.2,45.7,68.2,45.5,68.3,45.4z"/>
			</g>
		</g>
	</g>
	<g>
		<g>
			<g>
				<path class="st19" d="M51.4,75.6c-0.1-0.1-0.1-0.2-0.3-0.3c-0.1-0.1-0.2-0.1-0.4-0.1c-0.1,0-0.3,0.1-0.4,0.2
					c-0.1,0.1-0.1,0.1-0.1,0.2c-0.1-0.1-0.1-0.1-0.2-0.1c-0.1,0-0.3,0-0.4,0c-0.1,0.1-0.2,0.2-0.3,0.3c-0.1,0.1-0.1,0.3-0.1,0.4
					c0,0.2,0.1,0.3,0.2,0.5c0.1,0.1,0.3,0.2,0.5,0.2c0.3,0.1,0.7,0.2,0.7,0.2s0.2-0.3,0.4-0.5c0.1-0.1,0.2-0.3,0.3-0.5
					C51.5,75.9,51.4,75.7,51.4,75.6z"/>
			</g>
		</g>
	</g>
	<g>
		<g>
			<g>
				<g>
					<path class="st16" d="M87.1,57.8c0,0,0-0.2-0.1-0.5c0-0.2-0.1-0.3-0.2-0.5c-0.1-0.2-0.3-0.4-0.5-0.6c-0.2-0.2-0.5-0.3-0.8-0.4
						c-0.3-0.1-0.7-0.1-1,0c-0.2,0.1-0.3,0.1-0.5,0.2c-0.1,0.1-0.2,0.1-0.2,0.2c-0.1,0.1-0.1,0.1-0.2,0.2c-0.2,0.3-0.4,0.7-0.4,1.1
						c0,0.4,0.1,0.8,0.3,1.2c0.1,0.1,0.1,0.2,0.2,0.2c0.1,0.1,0.1,0.1,0.2,0.2c0.1,0.1,0.3,0.2,0.5,0.3c0.3,0.1,0.7,0.2,1,0.1
						c0.3,0,0.6-0.2,0.8-0.3c0.2-0.2,0.4-0.4,0.5-0.5c0.1-0.2,0.2-0.4,0.2-0.5C87.1,58,87.1,57.8,87.1,57.8
						C87.1,57.8,87.1,57.8,87.1,57.8c0,0.1,0,0.1,0,0.1c0,0,0,0.1,0,0.2c0,0.1,0,0.1,0,0.2c0,0.2-0.1,0.3-0.2,0.5
						c-0.1,0.2-0.3,0.4-0.5,0.6c-0.2,0.2-0.5,0.3-0.8,0.3c-0.3,0-0.7,0-1-0.1c-0.2-0.1-0.3-0.2-0.5-0.3c-0.1-0.1-0.1-0.1-0.2-0.2
						c-0.1-0.1-0.1-0.2-0.2-0.2c-0.2-0.3-0.4-0.8-0.3-1.2c0-0.4,0.2-0.9,0.4-1.2c0.1-0.1,0.1-0.2,0.2-0.2c0.1-0.1,0.2-0.1,0.2-0.2
						c0.2-0.1,0.3-0.2,0.5-0.3c0.4-0.1,0.7-0.1,1,0c0.3,0.1,0.6,0.2,0.8,0.4c0.2,0.2,0.4,0.4,0.5,0.6c0.1,0.2,0.2,0.4,0.2,0.5
						c0,0.1,0,0.1,0,0.2c0,0.1,0,0.1,0,0.2C87.1,57.7,87.1,57.8,87.1,57.8C87.1,57.8,87.1,57.8,87.1,57.8z"/>
					<path class="st16" d="M85.2,59.8c-0.2,0-0.5,0-0.8-0.1c-0.2-0.1-0.3-0.2-0.5-0.3c-0.1,0-0.1-0.1-0.2-0.2l0,0l0,0
						c-0.1-0.1-0.1-0.1-0.2-0.2c-0.2-0.3-0.4-0.8-0.3-1.2c0-0.4,0.2-0.9,0.4-1.2c0.1-0.1,0.1-0.1,0.2-0.2l0,0l0,0
						c0.1-0.1,0.1-0.1,0.2-0.2c0.2-0.1,0.3-0.2,0.5-0.3c0.4-0.1,0.8-0.1,1.1,0c0.3,0.1,0.6,0.2,0.8,0.4c0.2,0.2,0.4,0.4,0.5,0.6
						c0.1,0.2,0.2,0.4,0.2,0.6c0,0.1,0,0.1,0,0.2l0,0c0,0.1,0,0.1,0,0.2l0,0.1c0,0,0,0,0,0c0,0,0,0,0,0l0,0.1c0,0.1,0,0.1,0,0.2l0,0
						c0,0.1,0,0.1,0,0.2c0,0.2-0.1,0.4-0.2,0.5c-0.1,0.2-0.3,0.4-0.5,0.6c-0.3,0.2-0.6,0.3-0.9,0.4C85.4,59.8,85.3,59.8,85.2,59.8z
						 M85.2,55.8c-0.2,0-0.4,0-0.6,0.1c-0.2,0.1-0.3,0.1-0.5,0.2c-0.1,0-0.1,0.1-0.2,0.1l-0.1,0.1c-0.1,0.1-0.1,0.1-0.2,0.2
						c-0.2,0.3-0.4,0.7-0.4,1.1c0,0.4,0.1,0.8,0.3,1.1c0,0.1,0.1,0.1,0.1,0.2l0,0l0,0c0.1,0.1,0.1,0.1,0.2,0.2
						c0.1,0.1,0.3,0.2,0.5,0.3c0.4,0.2,0.7,0.2,1,0.1c0.3,0,0.6-0.2,0.8-0.3c0.2-0.1,0.4-0.3,0.5-0.5c0.1-0.2,0.2-0.3,0.2-0.5
						c0.1-0.2,0.1-0.4,0.1-0.4c0,0,0,0,0,0c0,0,0,0,0,0c0-0.1,0-0.2,0-0.4c0-0.2-0.1-0.3-0.2-0.5c-0.1-0.2-0.3-0.4-0.5-0.6
						c-0.2-0.2-0.5-0.3-0.8-0.4C85.5,55.8,85.3,55.8,85.2,55.8z"/>
				</g>
			</g>
		</g>
		<g>
			<g>
				<g>
					<path class="st16" d="M86.5,59.2c0,0,0.4,0.4,0.9,1c0.5,0.5,0.9,1,0.9,1c0,0-0.4-0.4-0.9-1C86.8,59.7,86.5,59.3,86.5,59.2z"/>
					<path class="st16" d="M88.3,61.3L88.3,61.3c0,0-0.1,0-1-1c-0.9-1-0.9-1-0.9-1l0,0l0,0c0,0,0,0,0.3,0.3c0.2,0.2,0.4,0.4,0.6,0.7
						c0.2,0.3,0.5,0.5,0.6,0.7C88.3,61.2,88.3,61.2,88.3,61.3L88.3,61.3z"/>
				</g>
			</g>
		</g>
	</g>
	<g>
		<g>
			<g>
				<g>
					<g>
						<g>
							<g>
								<path class="st19" d="M42.1,55.2l-0.4,0.2l-1.3-0.8l-0.3-0.8c0,0-0.6,0.2-0.1,1.2c0.5,1,0.3,0.8,0.3,0.8S39,56.2,39,56.4
									c0,0.1,0.4,1.4,0.7,2.1c0.1,0.3,0.5,0.6,0.8,0.5c0,0,0.1,0,0.1,0c0.3-0.1,1.8-1,1.8-1l0.7-0.3L42.1,55.2z"/>
							</g>
						</g>
					</g>
				</g>
			</g>
			<g>
				<g>
					<g>
						<g>
							<g>
								<polygon class="st19" points="43.1,54.6 43.9,57.3 43.2,57.6 42.2,55 								"/>
							</g>
						</g>
					</g>
				</g>
			</g>
		</g>
	</g>
	<g>
		<g>
			<path class="st20" d="M80.8,73.4h-36c-3.3,0-5.9-2.7-5.9-5.9v0c0-3.3,2.7-5.9,5.9-5.9h36c3.3,0,5.9,2.7,5.9,5.9v0
				C86.7,70.7,84,73.4,80.8,73.4z"/>
		</g>
		<g class="st18">
			<path d="M80.8,73.4h-36c-3.3,0-5.9-2.7-5.9-5.9v0c0-3.3,2.7-5.9,5.9-5.9h36c3.3,0,5.9,2.7,5.9,5.9v0C86.7,70.7,84,73.4,80.8,73.4
				z"/>
		</g>
		<g>
			<path class="st20" d="M80.8,72.4h-36c-3.3,0-5.9-2.7-5.9-5.9v0c0-3.3,2.7-5.9,5.9-5.9h36c3.3,0,5.9,2.7,5.9,5.9v0
				C86.7,69.7,84,72.4,80.8,72.4z"/>
		</g>
		<g class="st18">
			<g>
				<path d="M73.7,60.5c0,0-0.3,0-0.4,0c-0.5,0-1.3,0-1.3,0l-0.6,1.1c0.1,0.3,0.3,0.6,0.6,0.7c0.2,0,0.3,0,0.5-0.1
					c0.4-0.1,0.7-0.3,1-0.5c0.2-0.1,0.3-0.3,0.4-0.6C74,60.9,73.9,60.6,73.7,60.5z"/>
			</g>
		</g>
		<g>
			<path class="st8" d="M45.9,68l0.2-0.6c0.3,0.2,0.8,0.4,1.2,0.4c0.6,0,0.8-0.2,0.8-0.5c0-0.8-2.2-0.3-2.2-1.7
				c0-0.6,0.5-1.1,1.5-1.1c0.5,0,0.9,0.1,1.3,0.3l-0.2,0.6c-0.3-0.2-0.7-0.3-1-0.3c-0.6,0-0.8,0.2-0.8,0.5c0,0.8,2.2,0.3,2.2,1.7
				c0,0.6-0.5,1.1-1.5,1.1C46.8,68.5,46.2,68.3,45.9,68z"/>
			<path class="st8" d="M52.4,65.5v2.9h-0.6v-0.4c-0.2,0.3-0.6,0.4-0.9,0.4c-0.7,0-1.2-0.4-1.2-1.3v-1.7h0.7v1.6
				c0,0.5,0.2,0.8,0.7,0.8c0.5,0,0.8-0.3,0.8-0.9v-1.5H52.4z"/>
			<path class="st8" d="M56.3,67c0,0.9-0.6,1.5-1.5,1.5c-0.4,0-0.7-0.1-1-0.4v0.4h-0.6v-4.1h0.7v1.5c0.2-0.3,0.6-0.4,0.9-0.4
				C55.7,65.5,56.3,66.1,56.3,67z M55.6,67c0-0.6-0.4-0.9-0.9-0.9c-0.5,0-0.9,0.4-0.9,0.9c0,0.6,0.4,0.9,0.9,0.9
				C55.3,67.9,55.6,67.5,55.6,67z"/>
			<path class="st8" d="M56.6,68.2l0.3-0.5c0.3,0.2,0.6,0.3,1,0.3c0.4,0,0.6-0.1,0.6-0.3c0-0.6-1.8,0-1.8-1.2c0-0.6,0.5-0.9,1.3-0.9
				c0.4,0,0.8,0.1,1.1,0.3l-0.3,0.5C58.5,66.1,58.3,66,58,66c-0.4,0-0.6,0.1-0.6,0.3c0,0.6,1.8,0.1,1.8,1.2c0,0.5-0.5,0.9-1.3,0.9
				C57.4,68.5,56.9,68.3,56.6,68.2z"/>
			<path class="st8" d="M59.5,67c0-0.9,0.6-1.5,1.6-1.5c0.6,0,1,0.2,1.2,0.7l-0.5,0.3c-0.2-0.3-0.4-0.4-0.7-0.4
				c-0.5,0-0.9,0.4-0.9,0.9c0,0.6,0.4,0.9,0.9,0.9c0.3,0,0.5-0.1,0.7-0.4l0.5,0.3c-0.2,0.4-0.7,0.7-1.2,0.7
				C60.2,68.5,59.5,67.9,59.5,67z"/>
			<path class="st8" d="M64.6,65.5v0.7c-0.1,0-0.1,0-0.2,0c-0.5,0-0.8,0.3-0.8,0.9v1.4h-0.7v-2.9h0.6v0.4
				C63.7,65.6,64.1,65.5,64.6,65.5z"/>
			<path class="st8" d="M65,64.6c0-0.2,0.2-0.4,0.4-0.4c0.2,0,0.4,0.2,0.4,0.4c0,0.2-0.2,0.4-0.4,0.4C65.2,65,65,64.8,65,64.6z
				 M65.1,65.5h0.7v2.9h-0.7V65.5z"/>
			<path class="st8" d="M69.8,67c0,0.9-0.6,1.5-1.5,1.5c-0.4,0-0.7-0.1-1-0.4v0.4h-0.6v-4.1h0.7v1.5c0.2-0.3,0.6-0.4,0.9-0.4
				C69.1,65.5,69.8,66.1,69.8,67z M69.1,67c0-0.6-0.4-0.9-0.9-0.9c-0.5,0-0.9,0.4-0.9,0.9c0,0.6,0.4,0.9,0.9,0.9
				C68.7,67.9,69.1,67.5,69.1,67z"/>
			<path class="st8" d="M73.1,67.2h-2.3c0.1,0.4,0.4,0.7,0.9,0.7c0.3,0,0.6-0.1,0.8-0.3l0.4,0.4c-0.3,0.3-0.7,0.5-1.2,0.5
				c-1,0-1.6-0.6-1.6-1.5c0-0.9,0.6-1.5,1.5-1.5c0.8,0,1.5,0.6,1.5,1.5C73.1,67,73.1,67.1,73.1,67.2z M70.8,66.7h1.6
				c-0.1-0.4-0.4-0.7-0.8-0.7C71.2,66,70.9,66.3,70.8,66.7z"/>
			<path class="st8" d="M73.6,68.1c0-0.2,0.2-0.4,0.4-0.4c0.2,0,0.4,0.2,0.4,0.4c0,0.2-0.2,0.4-0.4,0.4
				C73.8,68.5,73.6,68.3,73.6,68.1z M73.7,64.6h0.8l-0.1,2.6h-0.5L73.7,64.6z"/>
		</g>
		<g class="st18">
			<g>
				<path d="M52.9,61.7c-0.1-0.3-0.4-1-0.6-1.2c0,0-1.8,0-1.8,0l0.9,3.1c0.3,0.2,0.4,0.5,0.5,0.8c0.1,0.3,0.2,0.6,0.4,0.8
					c0.2,0.2,0.6,0.3,0.8,0c0.2-0.3,0-0.6,0-1c0-0.3,0.2-0.6,0.3-1C53.3,62.8,53.1,62.2,52.9,61.7z"/>
			</g>
		</g>
		<g>
			<path class="st8" d="M80,68.1l-0.3-0.3c-0.2-0.2-0.2-0.4-0.2-0.6l0-1c0-0.7-0.5-1.3-1.1-1.4l0-0.4c0-0.1-0.1-0.2-0.2-0.2l0,0
				c-0.1,0-0.2,0.1-0.2,0.2l0,0.4c-0.7,0.1-1.2,0.7-1.2,1.4l0,1c0,0.2-0.1,0.4-0.2,0.6l-0.3,0.4l1.4,0c0.1,0.1,0.2,0.3,0.3,0.3
				c0.2,0.1,0.4,0,0.6-0.1c0.1-0.1,0.1-0.1,0.1-0.2L80,68.1z"/>
		</g>
	</g>
	<g>
		<g>
			<g>
				<g>
					<g>
						<g>
							<g>
								<path class="st22" d="M66.7,50.9c0.1-0.3,0.3-0.7,0.3-1c0-0.4-0.2-0.7-0.5-0.9c-0.3-0.1-0.6-0.1-0.9-0.2
									c-0.4-0.1-0.6-0.5-0.8-0.8c-0.2-0.4-0.3-0.8-0.6-1c-0.4-0.4-1-0.4-1.4-0.2c-0.3-0.2-0.8-0.3-1.1-0.3c-0.5,0-1,0.1-1.4,0.4
									c-0.3,0.3-0.4,0.6-0.7,0.9c-0.4,0.3-1,0.1-1.5,0.1c-0.1,0-0.2,0-0.3,0.1c0,0.1,0,0.2,0.1,0.3c0.1,0.3,0.3,0.6,0.4,0.8
									c-0.2,0.1-0.5,0.1-0.7,0c0,0.6,0.3,1.1,0.7,1.5c-0.1-0.1-0.2,0-0.3,0.1c0,0.1,0,0.2,0,0.3c0.2,0.7,0.7,1.3,1.3,1.5
									c0.6,0.3,1.4,0.3,2,0l2.9,0.1c0.1,0.2,0.3,0.4,0.5,0.5c0.3-0.3,0.4-0.4,0.4-0.4c0.2,0.1,0,0.1,0.2,0.1
									c0.4,0.2,0.9-0.1,1-0.5c0-0.2,0.1-0.3,0.2-0.5c0.1-0.1,0.3-0.2,0.4-0.2c0.2-0.1,0.4-0.3,0.5-0.6
									C67.1,51.2,66.8,51.1,66.7,50.9z"/>
							</g>
							<g>
								<g>
									<g>
										<g>
											<g>
												<path class="st23" d="M59.5,49.8c0-1.5,1.1-2.7,2.6-2.8l0.1,0c1.6,0,2.4,1.3,2.4,2.9l0.2,7.3l-3.5,0.3l-0.1-2.4
													c0,0-1.5-0.1-1.6-1.6C59.5,52.7,59.5,51.2,59.5,49.8z"/>
											</g>
										</g>
									</g>
								</g>
							</g>
							<g>
								<g>
									<g>
										<g>
											<g>
												<path class="st22" d="M60.3,51c0,0.1,0.1,0.2,0.2,0.2c0.1,0,0.2-0.1,0.2-0.2c0-0.1-0.1-0.2-0.2-0.2
													C60.4,50.8,60.3,50.9,60.3,51z"/>
											</g>
										</g>
									</g>
								</g>
							</g>
							<g>
								<g>
									<g>
										<g>
											<g>
												<path class="st22" d="M60,50.4c0,0,0.2-0.1,0.4-0.1c0.2,0,0.4,0.1,0.4,0.1c0,0,0-0.1-0.1-0.1c-0.1,0-0.2-0.1-0.3-0.1
													c-0.1,0-0.3,0.1-0.3,0.1C60,50.4,60,50.4,60,50.4z"/>
											</g>
										</g>
									</g>
								</g>
							</g>
							<g>
								<g>
									<g>
										<g>
											<g>
												<path class="st22" d="M61.5,52.3c0,0-0.1,0-0.4,0c-0.1,0-0.1,0-0.1,0c0,0,0-0.1,0-0.2c0-0.1,0.1-0.3,0.1-0.5
													c0.2-0.7,0.3-1.2,0.3-1.2c0,0-0.2,0.5-0.4,1.2c0,0.2-0.1,0.3-0.1,0.5c0,0.1,0,0.1,0,0.2c0,0,0.1,0.1,0.1,0.1
													c0,0,0.1,0,0.1,0C61.4,52.3,61.5,52.3,61.5,52.3z"/>
											</g>
										</g>
									</g>
								</g>
							</g>
							<g>
								<g>
									<g>
										<g>
											<g>
												<path class="st22" d="M59.9,49.9c0.1,0,0.2,0,0.5,0c0.2,0,0.4,0,0.5,0c0,0,0-0.1-0.1-0.1c-0.1,0-0.2-0.1-0.4-0.1
													c-0.2,0-0.3,0.1-0.4,0.1C59.9,49.8,59.9,49.8,59.9,49.9z"/>
											</g>
										</g>
									</g>
								</g>
							</g>
							<g>
								<g>
									<g>
										<g>
											<g>
												<path class="st23" d="M64.5,51c0,0,1-0.4,1,0.7c0,1-1,0.9-1,0.8C64.6,52.5,64.5,51,64.5,51z"/>
											</g>
										</g>
									</g>
								</g>
							</g>
							<g>
								<g>
									<g>
										<g>
											<g>
												<path class="st24" d="M64.8,52.1C64.8,52.1,64.8,52.1,64.8,52.1c0.1,0,0.1,0,0.2,0c0.1,0,0.2-0.2,0.2-0.4
													c0-0.1,0-0.2-0.1-0.3c0-0.1-0.1-0.1-0.1-0.1c-0.1,0-0.1,0-0.1,0.1c0,0,0,0,0,0.1c0,0,0,0,0-0.1c0,0,0,0,0-0.1
													c0,0,0.1,0,0.1,0c0.1,0,0.2,0.1,0.2,0.2c0,0.1,0.1,0.2,0.1,0.3c0,0.2-0.1,0.4-0.2,0.5C64.9,52.2,64.9,52.2,64.8,52.1
													C64.8,52.2,64.8,52.1,64.8,52.1z"/>
											</g>
										</g>
									</g>
								</g>
							</g>
							<g>
								<path class="st22" d="M64.9,48.7c0,0-0.1-0.4-0.4-0.8c-0.5-0.8-1.7-1.1-2.4-1c-0.7,0.1-1.4,0.6-2,0.8
									c-0.4,0.2-0.7,0.6-0.6,0.9c-0.3,0.1-0.5,0.2-0.8,0.2c0,0,0,0.4,0.2,0.5l0.7,0.4c0.9,0.1,2.4-0.8,2.7-1
									c0.3-0.2,0.6-0.5,0.9-0.7c-0.3,0.8,0.6,0.6,0.6,0.9c-0.3,1.1,0.6,1.4,0.6,1.4l0,0.9c0,0.2,0.1,0.4,0.3,0.4c0,0,0,0,0,0
									s0.3-0.4,0.3-0.6C65,50.4,65,49.2,64.9,48.7z"/>
							</g>
							<g>
								<g>
									<g>
										<g>
											<g>
												<path class="st24" d="M61.2,55.1c0,0,1,0,1.9-0.7c0,0-0.4,1.1-1.9,1.1L61.2,55.1z"/>
											</g>
										</g>
									</g>
								</g>
							</g>
							<g>
								<g>
									<g>
										<g>
											<g>
												<path class="st22" d="M62.4,50.8c0,0.1,0.1,0.2,0.2,0.2c0.1,0,0.2-0.1,0.2-0.2c0-0.1-0.1-0.2-0.2-0.2
													C62.5,50.6,62.4,50.7,62.4,50.8z"/>
											</g>
										</g>
									</g>
								</g>
							</g>
							<g>
								<g>
									<g>
										<g>
											<g>
												<path class="st22" d="M62.2,50.3c0,0,0.2-0.1,0.5-0.1c0.2,0,0.4,0.1,0.5,0.1c0,0,0-0.1-0.1-0.1
													c-0.1-0.1-0.2-0.1-0.4-0.1c-0.2,0-0.3,0-0.4,0.1C62.2,50.2,62.2,50.3,62.2,50.3z"/>
											</g>
										</g>
									</g>
								</g>
							</g>
							<g>
								<g>
									<g>
										<g>
											<g>
												<path class="st22" d="M62.2,49.6c0,0.1,0.3,0,0.5,0.1c0.3,0,0.5,0.1,0.5,0.1c0,0,0-0.1-0.1-0.1
													c-0.1-0.1-0.2-0.1-0.4-0.1c-0.2,0-0.3,0-0.4,0C62.2,49.5,62.2,49.5,62.2,49.6z"/>
											</g>
										</g>
									</g>
								</g>
							</g>
						</g>
					</g>
				</g>
				<g>
					<g>
						<g>
							<g>
								<g>
									<g>
										<path class="st24" d="M61.5,52.7c0.1-0.1,0.5-0.1,0.6-0.2l0.1,0l0,0c0.1,0.1,0.1,0.3,0,0.4c-0.1,0.1-0.2,0.2-0.3,0.2
											c-0.1,0-0.2,0-0.2,0C61.7,53.1,61.5,53.1,61.5,52.7"/>
									</g>
								</g>
							</g>
						</g>
					</g>
					<g>
						<g>
							<path class="st22" d="M61.9,53.2c0,0,0.1,0,0.2-0.1c0.1,0,0.1-0.1,0.1-0.2c0-0.1,0-0.2,0-0.3c0,0,0,0,0,0l0,0
								c-0.2,0-0.4,0.1-0.6,0.1c-0.1,0-0.2,0-0.2,0c0,0,0.1,0,0.2-0.1c0.1,0,0.3-0.1,0.6-0.1l0,0l0,0c0,0,0,0,0,0c0,0.1,0,0.2,0,0.3
								c0,0.1-0.1,0.2-0.2,0.2C62.1,53.2,62,53.2,61.9,53.2C61.9,53.2,61.9,53.2,61.9,53.2z"/>
						</g>
					</g>
				</g>
			</g>
			<g>
				<g>
					<path class="st25" d="M66.5,51.8C66.5,51.8,66.5,51.8,66.5,51.8c-0.1,0-0.2-0.1-0.2-0.1c0-0.1-0.1-0.2-0.1-0.3
						c0-0.1,0-0.2,0-0.4c0-0.1,0-0.3,0-0.5c0-0.1-0.1-0.1-0.1-0.2c-0.1-0.1-0.1-0.1-0.2-0.1c-0.1,0-0.2-0.1-0.3-0.1
						c-0.1-0.1-0.2-0.1-0.2-0.2c-0.1-0.2-0.1-0.4-0.1-0.6c0-0.1-0.1-0.2-0.1-0.3c-0.1-0.1-0.1-0.1-0.2-0.2c-0.1,0-0.2,0-0.3,0
						c-0.1,0-0.2-0.1-0.3-0.1c-0.1-0.1-0.1-0.2-0.1-0.3c0-0.1,0-0.2-0.1-0.3c0-0.1,0-0.2-0.1-0.2c0-0.1-0.1-0.1-0.1-0.2
						c-0.2-0.2-0.4-0.3-0.6-0.3c-0.2,0-0.2,0-0.2,0c0,0,0.1,0,0.2,0c0.2,0,0.4,0.1,0.6,0.3c0,0.1,0.1,0.1,0.1,0.2
						c0,0.1,0.1,0.1,0.1,0.2c0,0.1,0,0.2,0.1,0.3c0,0.1,0.1,0.2,0.1,0.2c0.1,0.1,0.1,0.1,0.2,0.1c0.1,0,0.2,0,0.3,0
						c0.1,0,0.2,0.1,0.3,0.2c0.1,0.1,0.1,0.2,0.1,0.3c0,0.2,0,0.4,0.1,0.6c0,0.1,0.1,0.2,0.2,0.2c0.1,0.1,0.2,0.1,0.2,0.1
						c0.1,0,0.2,0.1,0.2,0.1c0.1,0.1,0.1,0.1,0.1,0.2c0.1,0.2,0,0.3,0,0.5c0,0.1,0,0.3,0,0.4c0,0.1,0,0.2,0.1,0.3
						C66.4,51.8,66.5,51.8,66.5,51.8z"/>
				</g>
			</g>
			<g>
				<g>
					<path class="st25" d="M58.3,48.2C58.3,48.2,58.3,48.2,58.3,48.2c0.1,0.1,0.1,0.1,0.2,0.1c0.1,0.1,0.3,0.2,0.5,0.3
						c0.2,0.1,0.5,0.1,0.8,0c0.1-0.1,0.3-0.1,0.4-0.3c0.1-0.1,0.2-0.3,0.3-0.5c0.1-0.2,0.2-0.3,0.3-0.4c0.1-0.1,0.3-0.2,0.4-0.3
						c0.3-0.1,0.6-0.1,0.8-0.1c0.2,0,0.4,0.1,0.5,0.2c0.1,0,0.1,0.1,0.1,0.1c0,0,0,0,0,0c0,0,0,0-0.1,0c0,0-0.1,0-0.1-0.1
						c-0.1,0-0.3-0.1-0.5-0.2c-0.2,0-0.5,0-0.8,0.1c-0.1,0.1-0.3,0.1-0.4,0.2c-0.1,0.1-0.2,0.3-0.3,0.4c-0.1,0.2-0.2,0.3-0.3,0.5
						c-0.1,0.1-0.3,0.2-0.4,0.3c-0.3,0.1-0.6,0.1-0.8,0c-0.2-0.1-0.4-0.2-0.5-0.3C58.4,48.3,58.4,48.2,58.3,48.2
						C58.3,48.2,58.3,48.2,58.3,48.2z"/>
				</g>
			</g>
			<g>
				<g>
					<path class="st25" d="M57.9,49.5c0,0,0.1,0.1,0.2,0.1c0.1,0.1,0.3,0.2,0.5,0.2c0.2,0.1,0.4,0.1,0.6,0c0.1,0,0.2,0,0.2,0
						c0,0,0,0-0.1,0c0,0-0.1,0-0.2,0c-0.1,0-0.4,0-0.6,0c-0.2-0.1-0.4-0.2-0.5-0.2C58.1,49.7,58,49.6,57.9,49.5
						C58,49.6,57.9,49.5,57.9,49.5z"/>
				</g>
			</g>
			<g>
				<g>
					<path class="st25" d="M58.8,50.4c0,0,0.2,0.1,0.4,0.1c0.2,0,0.4,0,0.4,0c0,0-0.2,0-0.4,0C58.9,50.5,58.8,50.4,58.8,50.4z"/>
				</g>
			</g>
		</g>
		<g>
			<g>
				<g>
					<g>
						<path class="st26" d="M61.3,56l-2.9,0.8l-3.1,2.3l0.8,1.5l14.8,0c0,0-0.5-2-0.7-2.6c-0.3-0.9-0.6-1.2-1-1.5
							c-0.1-0.1-0.4-0.3-0.5-0.3c-0.6-0.1-3.3-0.8-3.8-0.7c0,0-0.6,1.3-1.9,1.3C61.7,56.6,61.3,56,61.3,56z"/>
					</g>
				</g>
				<g>
					<g>
						<g>
							<path class="st22" d="M67.3,58.3c0,0,0-0.1,0.1-0.3c0.1-0.2,0.2-0.4,0.5-0.6c0.2-0.2,0.4-0.4,0.6-0.5
								c0.2-0.1,0.3-0.2,0.3-0.2c0,0-0.1,0.1-0.3,0.2c-0.2,0.1-0.4,0.3-0.6,0.5c-0.2,0.2-0.4,0.5-0.4,0.7
								C67.4,58.1,67.3,58.2,67.3,58.3C67.3,58.3,67.3,58.3,67.3,58.3z"/>
						</g>
					</g>
				</g>
				<g>
					<g>
						<g>
							<path class="st22" d="M58.4,59.9c0,0,0-0.1,0-0.3c0-0.2,0-0.5,0-0.8c0-0.3-0.1-0.6-0.1-0.8c0-0.2,0-0.3-0.1-0.3
								c0,0,0,0.1,0,0.3c0,0.2,0,0.5,0.1,0.8c0,0.3,0,0.5,0,0.8C58.4,59.8,58.4,59.9,58.4,59.9z"/>
						</g>
					</g>
				</g>
				<g class="st18">
					<g>
						<g>
							<path d="M57.6,60.3c0.2-0.1,0.5-0.2,0.7-0.3c0.2-0.2,0.3-0.5,0.2-0.7c0.3,0.8,1.2,1.3,2,1.3l-3.5,0
								C57.1,60.4,57.3,60.4,57.6,60.3z"/>
						</g>
					</g>
				</g>
			</g>
		</g>
		<g>
			<g>
				<g>
					<path class="st23" d="M74.2,60.6c0,0-0.4-0.5-0.5-0.6c-0.2-0.1-0.4-0.1-0.5,0C73,60.1,73,60.1,73,60.1s-0.6-0.3-0.8-0.1
						c0,0-0.5-0.3-0.8,0c0,0-0.4-0.3-0.6,0c-0.2,0.2-0.2,0.6-0.1,0.8s0.2,0.9,0.4,0.9c0,0,0.3,0,0.4-0.1c0-0.2,0.1-0.3,0.1-0.3
						s0.1,0.6,0.3,0.7c0.1,0,0.4,0,0.4-0.3c0,0,0.1,0.2,0.3,0.1c0.1-0.1,0.3-0.2,0.3-0.3c0-0.2,0-0.3,0-0.3s0.1,0.2,0.2,0.2
						c0.1-0.1,0.2,0,0.3-0.3c0.1-0.2,0.2-0.6,0.2-0.6H74.2z"/>
				</g>
			</g>
			<g>
				<g>
					<g>
						<path class="st24" d="M72.8,61.2c0,0,0-0.1-0.1-0.2c0-0.1,0-0.3,0-0.4c0-0.2,0.1-0.3,0.2-0.4c0.1-0.1,0.1-0.1,0.1-0.1
							c0,0-0.1,0-0.1,0.1c-0.1,0.1-0.2,0.2-0.2,0.4c0,0.2,0,0.3,0,0.5C72.8,61.2,72.8,61.2,72.8,61.2z"/>
					</g>
				</g>
			</g>
			<g>
				<g>
					<g>
						<path class="st24" d="M72.2,60c0,0,0,0.1-0.1,0.2c0,0.2-0.1,0.4,0,0.6c0,0.2,0.1,0.5,0.1,0.6c0.1,0.2,0.1,0.2,0.1,0.2
							c0,0-0.1-0.4-0.2-0.9C72.1,60.4,72.2,60,72.2,60z"/>
					</g>
				</g>
			</g>
			<g>
				<g>
					<g>
						<path class="st24" d="M71.4,60.1c0,0-0.1,0.3,0,0.7c0,0.4,0.1,0.7,0.2,0.6c0,0-0.1-0.3-0.1-0.7C71.4,60.4,71.4,60.1,71.4,60.1
							z"/>
					</g>
				</g>
			</g>
		</g>
		<g>
			<g>
				<path class="st23" d="M69.2,60.2c0-0.1,0.1-0.1,0.1-0.1c0.1,0,0.3,0,0.4,0.1c0.1,0.1,0.2,0.2,0.3,0.4l-0.8,0
					C69.3,60.4,69.2,60.3,69.2,60.2z"/>
			</g>
		</g>
		<g>
			<g>
				<path class="st23" d="M49.3,60.8c0-0.5,0.3-0.9,0.7-1.2l0,0c0.3-0.2,0.7-0.2,1.1-0.1l1.5,0.5c0.1,0.1,2.6-0.9,2.6-0.9l0.8,1.5
					l-4.8,0c0.3,0.4,0.8,0.9,0.8,0.9l0.3,1.1l0,1c-0.2,0.1-0.4-0.2-0.4-0.2l-0.1,0.3l0.1,0.3c0,0,0.4,1.1,0.4,1.3
					c0,0.1-0.1,0.1-0.1,0.1c-0.1,0-0.2-0.1-0.3-0.2l-0.6-1.2c0,0-0.5-0.1-0.7-0.3c-0.2-0.2-0.4-0.5-0.4-0.5l-0.3,0c0,0-0.1,0-0.1,0
					c-0.2-0.1-0.3-0.2-0.3-0.4l-0.2-0.8C49.2,61.6,49.3,61.2,49.3,60.8z"/>
			</g>
			<g>
				<g>
					<g>
						<path class="st24" d="M50.7,62.9c0,0,0.1,0.2,0.2,0.5c0.1,0.3,0.3,0.5,0.3,0.4c0,0-0.1-0.2-0.3-0.5
							C50.8,63.2,50.7,62.9,50.7,62.9z"/>
					</g>
				</g>
			</g>
			<g>
				<g>
					<g>
						<path class="st24" d="M50,62.8c0,0,0,0.1,0.1,0.3c0.1,0.1,0.2,0.2,0.2,0.2c0,0-0.1-0.1-0.2-0.3C50.1,62.9,50,62.8,50,62.8z"/>
					</g>
				</g>
			</g>
			<g>
				<g>
					<g>
						<path class="st24" d="M52,64.1c0,0,0-0.1-0.1-0.3c-0.1-0.2-0.1-0.4-0.2-0.7c0-0.1-0.1-0.3-0.1-0.4c0-0.1,0-0.2,0-0.3
							c0-0.2,0.1-0.3,0.1-0.3c0,0,0,0-0.1,0.1c0,0-0.1,0.1-0.1,0.2c0,0.1,0,0.2,0,0.3c0,0.1,0.1,0.3,0.1,0.4
							c0.1,0.3,0.1,0.5,0.2,0.7C51.9,64,52,64.1,52,64.1z"/>
					</g>
				</g>
			</g>
			<g>
				<g>
					<g>
						<path class="st24" d="M51.7,62.2c0,0,0,0.1,0.1,0.2c0.1,0.1,0.1,0.3,0.1,0.5c0,0.1,0,0.2,0,0.3c0,0.1,0.1,0.2,0.1,0.2
							c0.1,0.1,0.2,0.1,0.2,0.1c0,0-0.1-0.1-0.1-0.1c0,0-0.1-0.1-0.1-0.2c0-0.1,0-0.2,0-0.3c0-0.2-0.1-0.4-0.2-0.5
							C51.7,62.3,51.7,62.2,51.7,62.2z"/>
					</g>
				</g>
			</g>
			<g>
				<g>
					<g>
						<path class="st24" d="M51.3,60.6c0,0-0.2-0.2-0.3-0.4c-0.2-0.2-0.3-0.4-0.3-0.4c0,0,0,0.1,0.1,0.1c0,0.1,0.1,0.2,0.2,0.3
							C51.1,60.4,51.3,60.6,51.3,60.6z"/>
					</g>
				</g>
			</g>
		</g>
		<g class="st18">
			<polygon points="67,60.6 67.1,59.2 66.1,60.6 			"/>
		</g>
		<g>
			<g>
				<path class="st22" d="M67,60.6c0,0,0-0.4,0-0.8c0-0.5,0.1-0.8,0.1-0.8c0,0,0,0.4,0,0.8C67.1,60.2,67,60.6,67,60.6z"/>
			</g>
		</g>
		<g>
			<g>
				<path class="st8" d="M66.7,55.7C66.7,55.7,66.8,55.7,66.7,55.7c0,0.2,0,0.2,0,0.3c-0.1,0.1-0.2,0.2-0.3,0.2
					c-0.2,0.1-0.3,0.1-0.5,0c-0.1,0-0.2,0-0.3,0c-0.1,0-0.2,0-0.3,0.1c-0.1,0.1-0.2,0.2-0.2,0.3c-0.1,0.1-0.1,0.2-0.1,0.4
					c0,0.1-0.1,0.3-0.1,0.4c0,0.1-0.1,0.3-0.2,0.4c-0.2,0.2-0.5,0.4-0.8,0.4c-0.3,0-0.6-0.1-0.8-0.3c-0.1-0.1-0.2-0.2-0.3-0.3
					c-0.1-0.1-0.1-0.2-0.3-0.3c-0.1-0.1-0.2-0.1-0.4-0.1c-0.1,0-0.2,0-0.4,0.1c-0.1,0-0.2,0-0.3,0c-0.1,0-0.2,0-0.3-0.1
					c-0.2-0.1-0.3-0.2-0.5-0.3c-0.1-0.1-0.2-0.3-0.2-0.4c0-0.1,0-0.1,0-0.1c0,0,0-0.1,0-0.1c0,0,0-0.1,0-0.1c0,0,0,0,0,0
					c0,0,0,0.1,0.1,0.3c0,0.1,0.1,0.2,0.2,0.4c0.1,0.1,0.3,0.2,0.4,0.3c0.1,0,0.2,0.1,0.3,0c0.1,0,0.2,0,0.3,0
					c0.1,0,0.2-0.1,0.4-0.1c0.1,0,0.3,0,0.4,0.1c0.1,0.1,0.2,0.2,0.3,0.3c0.1,0.1,0.2,0.2,0.3,0.3c0.2,0.2,0.5,0.3,0.8,0.3
					c0.3,0,0.6-0.2,0.8-0.4c0.2-0.2,0.2-0.5,0.3-0.8c0-0.1,0.1-0.3,0.1-0.4c0.1-0.1,0.1-0.2,0.2-0.3c0.1-0.1,0.2-0.1,0.3-0.1
					c0.1,0,0.2,0,0.3,0c0.2,0,0.4,0,0.5,0c0.2,0,0.3-0.1,0.3-0.2C66.7,55.9,66.8,55.8,66.7,55.7C66.7,55.7,66.7,55.7,66.7,55.7z"/>
			</g>
		</g>
		<g>
			<g>
				<path class="st8" d="M62.3,60.5C62.3,60.5,62.3,60.4,62.3,60.5c0-0.1,0-0.2-0.1-0.2c0-0.2-0.1-0.4-0.3-0.6
					c0-0.1-0.1-0.1-0.1-0.2c-0.1-0.1-0.1-0.1-0.2-0.1c-0.1-0.1-0.3-0.1-0.5-0.1c-0.2,0-0.4,0.1-0.6,0.1c-0.2,0-0.4,0.1-0.6,0.1
					c-0.2,0-0.5-0.1-0.6-0.2c-0.2-0.2-0.2-0.4-0.2-0.6c0-0.2,0-0.4,0-0.6c0-0.2,0-0.3,0-0.5c0-0.3-0.2-0.5-0.3-0.6
					c-0.1-0.1-0.2-0.1-0.2-0.1c0,0,0,0,0,0c0,0,0,0,0,0c0,0,0.1,0,0.2,0.1c0.1,0.1,0.3,0.3,0.3,0.6c0,0.1,0,0.3,0,0.5
					c0,0.2,0,0.4,0,0.5c0,0.2,0.1,0.4,0.2,0.5c0.1,0.1,0.4,0.2,0.6,0.2c0.2,0,0.4,0,0.6-0.1c0.2,0,0.4-0.1,0.6-0.1
					c0.2,0,0.4,0,0.5,0.1c0.1,0,0.1,0.1,0.2,0.1c0.1,0.1,0.1,0.1,0.1,0.2c0.2,0.3,0.2,0.5,0.3,0.6C62.3,60.3,62.3,60.3,62.3,60.5
					C62.3,60.4,62.3,60.5,62.3,60.5z"/>
			</g>
		</g>
		<g>
			<g>
				<path class="st8" d="M67.1,59.3c0,0-0.1-0.1-0.4-0.2c-0.1,0-0.3,0-0.5,0c-0.2,0-0.4,0.1-0.5,0.2c-0.2,0.1-0.3,0.2-0.4,0.4
					c-0.1,0.1-0.2,0.3-0.2,0.4c0,0.1,0,0.2,0,0.3c0,0.1,0,0.1,0,0.1c0,0,0,0,0,0c0,0,0,0,0-0.1c0-0.1,0-0.2,0-0.3
					c0-0.1,0.1-0.3,0.2-0.4c0.1-0.1,0.3-0.3,0.4-0.4c0.2-0.1,0.4-0.2,0.6-0.2c0.2,0,0.3,0,0.5,0C66.9,59.1,67,59.2,67.1,59.3
					C67.1,59.2,67.1,59.2,67.1,59.3C67.1,59.3,67.1,59.3,67.1,59.3z"/>
			</g>
		</g>
		<g>
			<g>
				<path class="st8" d="M68.1,56.8c0,0,0,0-0.1-0.1c0-0.1,0-0.2,0-0.3c0-0.1,0.1-0.2,0.1-0.3c0-0.1,0.1-0.1,0.1-0.1
					c0,0-0.1,0.1-0.2,0.4C68.1,56.6,68.1,56.8,68.1,56.8z"/>
			</g>
		</g>
		<g>
			<g>
				<path class="st8" d="M70.3,58.6C70.4,58.6,70.3,58.6,70.3,58.6c0,0.1,0,0.1-0.1,0.2c0,0.1-0.1,0.2-0.3,0.3
					c-0.1,0.1-0.3,0.2-0.6,0.3c-0.2,0-0.5,0-0.8-0.1c-0.1,0-0.3-0.1-0.4-0.1c-0.1,0-0.2,0-0.4,0.1c-0.2,0.1-0.4,0.2-0.5,0.3
					c-0.1,0.1-0.2,0.3-0.2,0.4c0,0.1,0,0.2-0.1,0.1c0,0,0,0,0,0c0,0,0-0.1,0-0.1c0-0.1,0.1-0.2,0.2-0.4c0.1-0.1,0.3-0.3,0.5-0.4
					c0.1,0,0.2-0.1,0.4-0.1c0.1,0,0.3,0,0.4,0.1c0.3,0.1,0.5,0.1,0.8,0.1c0.2,0,0.4-0.1,0.6-0.3c0.1-0.1,0.2-0.2,0.3-0.3
					C70.3,58.7,70.3,58.6,70.3,58.6z"/>
			</g>
		</g>
		<g>
			<g>
				<path class="st8" d="M58.2,60.3C58.2,60.3,58.2,60.3,58.2,60.3c-0.1,0-0.1,0-0.1,0c-0.1,0-0.2,0-0.3-0.1
					c-0.1-0.1-0.3-0.2-0.4-0.3c-0.1-0.1-0.1-0.2-0.1-0.3c0-0.1,0-0.2-0.1-0.3c0-0.2-0.1-0.4-0.2-0.6c-0.1-0.1-0.3-0.2-0.4-0.2
					c-0.1,0-0.3,0-0.3,0c-0.1,0-0.1,0-0.1,0c0,0,0,0,0.1,0c0.1,0,0.2,0,0.3,0c0.1,0,0.3,0.1,0.4,0.2c0.1,0.1,0.1,0.2,0.1,0.3
					c0,0.1,0,0.2,0.1,0.3c0,0.1,0,0.2,0.1,0.3c0,0.1,0.1,0.2,0.1,0.3c0.1,0.2,0.2,0.3,0.4,0.3C58,60.3,58.2,60.3,58.2,60.3z"/>
			</g>
		</g>
	</g>
	<g>
		<g>
			<g>
				<g>
					<path class="st19" d="M62,76c0.2,0.4,0.3,0.8,0.3,0.8h0.5v0l2,0l0,0c0,0,0.3-1.6,0.4-2.1c0.1-0.4,0.3-1.3,0-1.7
						c-0.1-0.1-0.3-0.2-0.5-0.2c-0.1,0-0.2,0.1-0.2,0.3c0,0,0-0.6-0.4-0.6c-0.4,0-0.4,0.3-0.4,0.3s-0.1-0.6-0.5-0.6
						c0,0-0.3,0-0.4,0.3v-0.2v-1c0-0.2-0.2-0.5-0.4-0.5c-0.2,0-0.5,0.2-0.5,0.4l0,2.8l-0.7-0.9c-0.2-0.2-0.6-0.1-0.6,0.1
						c0,0-0.1,0.3,0.1,0.6C60.8,74.2,62,76,62,76z"/>
				</g>
				<g>
					<g>
						<path class="st22" d="M62,76C62,76,61.9,76,62,76c-0.1-0.1-0.1-0.1-0.1-0.2c-0.1-0.1-0.2-0.3-0.3-0.5
							c-0.1-0.2-0.3-0.5-0.5-0.8c-0.1-0.2-0.2-0.3-0.3-0.5c-0.1-0.1-0.1-0.2-0.1-0.3c0-0.1,0-0.2,0-0.4l0,0c0-0.1,0.1-0.1,0.1-0.2
							c0.1,0,0.1-0.1,0.2-0.1c0.1,0,0.2,0,0.2,0.1c0,0,0,0,0,0c0,0,0,0,0,0c0,0,0,0.1,0.1,0.1c0.2,0.2,0.4,0.5,0.6,0.8l0,0
							c0-0.8,0-1.6,0-2.5c0-0.1,0-0.1,0-0.2c0-0.1,0-0.1,0-0.2c0-0.1,0.1-0.2,0.2-0.3c0.1-0.1,0.2-0.1,0.3-0.1
							c0.1,0,0.2,0.1,0.3,0.2c0,0.1,0.1,0.1,0.1,0.2c0,0.1,0,0.1,0,0.2c0,0.1,0,0.2,0,0.4c0,0.2,0,0.5,0,0.7l0,0
							c0-0.1,0.1-0.2,0.2-0.3c0,0,0.1,0,0.1-0.1c0,0,0,0,0.1,0c0,0,0,0,0.1,0c0.1,0,0.2,0.1,0.2,0.1c0.1,0.1,0.2,0.3,0.2,0.5l0,0
							c0-0.1,0.1-0.2,0.2-0.3c0.1,0,0.1,0,0.2,0c0,0,0.1,0,0.1,0l0,0l0,0c0.1,0,0.2,0.1,0.2,0.2c0,0.1,0.1,0.2,0.1,0.3l0,0
							c0-0.1,0.1-0.2,0.2-0.3c0.1,0,0.2,0,0.3,0c0.1,0,0.1,0.1,0.1,0.1c0,0,0.1,0.1,0.1,0.1c0,0.1,0.1,0.2,0.1,0.3
							c0,0.4-0.1,0.9-0.1,1.2c-0.1,0.4-0.1,0.8-0.2,1.1c-0.1,0.4-0.1,0.7-0.2,1l0,0c0,0,0,0,0,0l0,0c-0.8,0-1.5,0-2,0l0,0v0v0l0,0
							c-0.2,0-0.3,0-0.5,0l0,0l0,0c0-0.3-0.1-0.5-0.2-0.6C62,76.2,62,76.1,62,76C62,76,62,76,62,76s0,0.1,0.1,0.2
							c0.1,0.1,0.1,0.3,0.2,0.6l0,0c0.1,0,0.3,0,0.5,0l0,0v0v0l0,0c0.5,0,1.2,0,2,0l0,0l0,0c0,0,0,0,0,0l0,0c0.1-0.3,0.1-0.7,0.2-1
							c0.1-0.4,0.1-0.7,0.2-1.1c0.1-0.4,0.2-0.8,0.1-1.2c0-0.1,0-0.2-0.1-0.3c0,0,0-0.1-0.1-0.1c0,0-0.1-0.1-0.1-0.1
							c-0.1,0-0.2,0-0.3,0c-0.1,0-0.2,0.1-0.2,0.2l0,0.2l0-0.2c0-0.1,0-0.2-0.1-0.3c0-0.1-0.1-0.2-0.2-0.2c-0.1,0-0.2,0-0.3,0
							c-0.1,0-0.2,0.1-0.2,0.2l0,0.2l0-0.2c0-0.2-0.1-0.3-0.2-0.5c-0.1-0.1-0.3-0.2-0.5-0.1c-0.1,0.1-0.2,0.1-0.2,0.2l0,0.1l0-0.2
							c0-0.2,0-0.5,0-0.7c0-0.1,0-0.2,0-0.4c0-0.1,0-0.1,0-0.2c0-0.1,0-0.1-0.1-0.2c-0.1-0.1-0.2-0.2-0.3-0.2c-0.1,0-0.2,0-0.3,0.1
							c-0.1,0.1-0.2,0.2-0.2,0.3c0,0.1,0,0.1,0,0.2c0,0.1,0,0.1,0,0.2c0,0.9,0,1.8,0,2.5l0,0.1l0,0c-0.2-0.3-0.4-0.5-0.6-0.8
							c0-0.1-0.1-0.1-0.1-0.2c-0.1,0-0.1-0.1-0.2,0c-0.1,0-0.1,0-0.2,0.1c-0.1,0-0.1,0.1-0.1,0.1l0,0l0,0c0,0.1,0,0.2,0,0.3
							c0,0.1,0.1,0.2,0.1,0.3c0.1,0.2,0.2,0.4,0.3,0.5c0.2,0.3,0.4,0.6,0.5,0.8c0.1,0.2,0.3,0.4,0.3,0.5C61.9,75.9,61.9,75.9,62,76
							C61.9,76,62,76,62,76z"/>
					</g>
				</g>
			</g>
			<g>
				<g>
					<path class="st19" d="M64.8,77.6h-2.6c-0.2,0-0.4-0.2-0.4-0.4v0c0-0.2,0.2-0.4,0.4-0.4h2.6c0.2,0,0.4,0.2,0.4,0.4v0
						C65.1,77.4,65,77.6,64.8,77.6z"/>
				</g>
				<g>
					<g>
						<path class="st22" d="M64.8,77.6C64.8,77.6,64.8,77.6,64.8,77.6c0.1,0,0.2-0.1,0.3-0.1c0,0,0.1-0.1,0.1-0.1c0-0.1,0-0.1,0-0.2
							c0-0.1-0.1-0.3-0.3-0.3c-0.7,0-1.6,0-2.6,0c-0.1,0-0.2,0.1-0.3,0.2c0,0.1,0,0.1,0,0.2c0,0.1,0,0.1,0,0.2
							c0.1,0.1,0.2,0.2,0.3,0.2c0.1,0,0.2,0,0.3,0c0.4,0,0.8,0,1.2,0c0.3,0,0.6,0,0.8,0C64.6,77.5,64.7,77.5,64.8,77.6
							C64.8,77.6,64.8,77.6,64.8,77.6S64.8,77.6,64.8,77.6c-0.1,0-0.2,0-0.3,0c-0.2,0-0.5,0-0.8,0c-0.3,0-0.7,0-1.2,0
							c-0.1,0-0.2,0-0.3,0c-0.1,0-0.2-0.1-0.3-0.2c0-0.1,0-0.1,0-0.2c0-0.1,0-0.1,0-0.2c0.1-0.1,0.2-0.2,0.3-0.2c1,0,1.9,0,2.6,0
							c0.2,0,0.3,0.2,0.3,0.3c0,0.1,0,0.1,0,0.2c0,0.1,0,0.1-0.1,0.1C65,77.5,64.9,77.5,64.8,77.6C64.8,77.6,64.8,77.6,64.8,77.6z"
							/>
					</g>
				</g>
			</g>
			<g>
				<g>
					<path class="st22" d="M62.7,73.6c0,0,0-0.2,0-0.5c0-0.3,0-0.5,0-0.5c0,0,0,0.2,0,0.5C62.7,73.3,62.7,73.6,62.7,73.6z"/>
				</g>
			</g>
			<g>
				<g>
					<path class="st22" d="M63.6,73.5c0,0,0-0.1,0-0.3c0-0.2,0-0.3,0-0.3c0,0,0,0.1,0,0.3C63.6,73.4,63.6,73.5,63.6,73.5z"/>
				</g>
			</g>
			<g>
				<g>
					<path class="st22" d="M64.4,73.8c0,0,0-0.1,0-0.3c0-0.2,0-0.3,0-0.3c0,0,0,0.1,0,0.3C64.5,73.6,64.4,73.8,64.4,73.8z"/>
				</g>
			</g>
		</g>
		<g>
			<g>
				<path class="st22" d="M61.6,70.9c0,0-0.2-0.1-0.5-0.2c-0.3-0.1-0.5-0.3-0.5-0.3c0,0,0.2,0.1,0.5,0.2
					C61.4,70.7,61.6,70.8,61.6,70.9z"/>
			</g>
		</g>
		<g>
			<g>
				<path class="st22" d="M62.1,70.6c0,0-0.1-0.3-0.1-0.7c-0.1-0.4-0.1-0.7-0.1-0.7c0,0,0.1,0.3,0.1,0.7
					C62.1,70.3,62.1,70.6,62.1,70.6z"/>
			</g>
		</g>
		<g>
			<g>
				<path class="st22" d="M62.6,70.7c0,0,0.1-0.2,0.3-0.5c0.2-0.3,0.3-0.5,0.3-0.5c0,0-0.1,0.2-0.3,0.5
					C62.8,70.5,62.6,70.7,62.6,70.7z"/>
			</g>
		</g>
	</g>
</g>
<path class="st0" d="M92.5,115.1"/>
<path class="st0" d="M168.6,121.8"/>
</svg>
