<?xml version="1.0" encoding="utf-8"?>
<!-- Generator: Adobe Illustrator 25.0.0, SVG Export Plug-In . SVG Version: 6.00 Build 0)  -->
<svg version="1.1" id="Layer_1" xmlns="http://www.w3.org/2000/svg" xmlns:xlink="http://www.w3.org/1999/xlink" x="0px" y="0px"
	 viewBox="0 0 130 160" style="enable-background:new 0 0 130 160;" xml:space="preserve">
<style type="text/css">
	.st0{fill:#E6E7E8;}
	.st1{fill:#414042;}
	.st2{fill:#D0D2D3;}
	.st3{fill:#53B67B;}
	.st4{fill:#B0CDE8;}
	.st5{fill:#EA5F57;}
	.st6{fill:#FFFFFF;}
	.st7{fill:#3F6477;}
	.st8{fill:#517991;}
	.st9{fill:#F7B88D;}
	.st10{fill:#DA4441;}
	.st11{fill:#E5A87F;}
	.st12{fill:#2D505E;}
	.st13{fill:#FFCCA9;}
	.st14{fill:#EFAC7F;}
	.st15{fill:#A3C7E2;}
	.st16{fill:#DB514D;}
	.st17{fill:#1D353F;}
	.st18{fill:#6C63FF;}
	.st19{fill:#2F2E41;}
	.st20{fill:#3F3D56;}
	.st21{fill:#F2F2F2;}
	.st22{fill:#FF0000;}
	.st23{fill:#282828;}
</style>
<g>
	<g>
		<path class="st0" d="M127.7,125.5h-21.3l0,0c1.3-3.3,4.4-5.5,8-5.5h5.3C123.2,120.1,126.4,122.2,127.7,125.5L127.7,125.5z"/>
	</g>
	<g>
		<path class="st1" d="M127.7,125.8C127.7,125.8,127.7,125.8,127.7,125.8h-21.3c-0.1,0-0.2,0-0.2-0.1c0-0.1-0.1-0.2,0-0.2
			c1.3-3.4,4.6-5.6,8.2-5.6h5.3c3.6,0,6.9,2.2,8.2,5.6c0,0,0.1,0.1,0.1,0.2C128,125.7,127.8,125.8,127.7,125.8z M106.8,125.3h20.5
			c-1.3-3-4.3-4.9-7.6-4.9h-5.3C111.1,120.4,108.1,122.3,106.8,125.3z"/>
	</g>
</g>
<g>
	<g>
		<polygon class="st2" points="78.6,104.8 64.8,104.8 51.1,104.8 48.9,122.7 64.8,122.7 80.7,122.7 		"/>
	</g>
	<g>
		<path class="st1" d="M80.7,122.9H48.9c-0.1,0-0.1,0-0.2-0.1c-0.1-0.1-0.1-0.1-0.1-0.2l2.1-17.9c0-0.1,0.1-0.2,0.3-0.2h27.6
			c0.1,0,0.2,0.1,0.3,0.2l2.1,17.9c0,0.1,0,0.2-0.1,0.2C80.9,122.9,80.8,122.9,80.7,122.9z M49.2,122.4h31.2l-2-17.3H51.3
			L49.2,122.4z"/>
	</g>
	<g>
		<path class="st0" d="M0.4,97v5.2c0,3.1,2.5,5.7,5.7,5.7h117c3.1,0,5.7-2.5,5.7-5.7V97H0.4z"/>
	</g>
	<g>
		<path class="st1" d="M129,97.8H0.6c-0.1,0-0.3-0.1-0.3-0.3V34.1c0-3.3,2.7-5.9,5.9-5.9h117c3.3,0,5.9,2.7,5.9,5.9v63.4
			C129.3,97.7,129.2,97.8,129,97.8z M0.9,97.3h127.8V34.1c0-3-2.4-5.4-5.4-5.4H6.3c-3,0-5.4,2.4-5.4,5.4V97.3z"/>
	</g>
	<g>
		<path class="st1" d="M122.8,94.8H6.9c-0.1,0-0.3-0.1-0.3-0.3v-60c0-0.1,0.1-0.3,0.3-0.3h115.9c0.1,0,0.3,0.1,0.3,0.3v60
			C123,94.7,122.9,94.8,122.8,94.8z M7.2,94.3h115.4V34.8H7.2V94.3z"/>
	</g>
	<g>
		<path class="st1" d="M123.3,108.7H6.3c-3.3,0-5.9-2.7-5.9-5.9v-5.2c0-0.1,0.1-0.3,0.3-0.3H129c0.1,0,0.3,0.1,0.3,0.3v5.2
			C129.3,106,126.6,108.7,123.3,108.7z M0.9,97.8v4.9c0,3,2.4,5.4,5.4,5.4h117c3,0,5.4-2.4,5.4-5.4v-4.9H0.9z"/>
	</g>
	<g>
		<path class="st3" d="M123.3,28.4H6.3c-3.1,0-5.7,2.5-5.7,5.7v63.4h0h6.2H129V34.1C129,31,126.5,28.4,123.3,28.4z"/>
	</g>
	<g>
		<g>
			<path class="st4" d="M101.8,44.3v-1c0-0.1-0.1-0.2-0.2-0.2h-0.9c-0.1-0.5-0.3-1-0.5-1.4l0.6-0.7c0.1-0.1,0.1-0.2,0-0.2l-0.7-0.7
				c-0.1-0.1-0.2-0.1-0.2,0l-0.6,0.7c0,0,0,0,0,0c-0.4-0.3-0.8-0.5-1.3-0.6v-0.9c0-0.1-0.1-0.2-0.2-0.2h-0.9c-0.1,0-0.2,0.1-0.2,0.2
				v0.9c-0.5,0.1-0.9,0.3-1.3,0.6l0,0l-0.6-0.7c-0.1-0.1-0.2-0.1-0.2,0L94,40.8c-0.1,0.1-0.1,0.2,0,0.2l0.6,0.7
				c-0.3,0.4-0.5,0.9-0.5,1.4h-0.9c-0.1,0-0.2,0.1-0.2,0.2v1c0,0.1,0.1,0.2,0.2,0.2H94c0.1,0.5,0.3,1,0.5,1.4c0,0,0,0,0,0L94,46.6
				c-0.1,0.1-0.1,0.2,0,0.2l0.7,0.7c0.1,0.1,0.2,0.1,0.2,0l0.6-0.7l0,0c0.4,0.3,0.8,0.5,1.3,0.6v0.9c0,0.1,0.1,0.2,0.2,0.2h0.9
				c0.1,0,0.2-0.1,0.2-0.2v-0.9c0.5-0.1,0.9-0.3,1.3-0.6c0,0,0,0,0,0l0.6,0.7c0.1,0.1,0.2,0.1,0.2,0l0.7-0.7c0.1-0.1,0.1-0.2,0-0.2
				l-0.6-0.7c0,0,0,0,0,0c0.3-0.4,0.5-0.9,0.5-1.4h0.9C101.7,44.5,101.8,44.4,101.8,44.3z M97.4,45.9c-1.1,0-1.9-0.9-1.9-2.1
				s0.9-2.1,1.9-2.1c1.1,0,1.9,0.9,1.9,2.1S98.5,45.9,97.4,45.9z"/>
		</g>
		<g>
			<path class="st5" d="M106.4,48.3v-0.7c0-0.1,0-0.1-0.1-0.1h-0.6c-0.1-0.3-0.2-0.7-0.4-0.9l0.4-0.4c0,0,0-0.1,0-0.2l-0.4-0.5
				c0,0-0.1,0-0.1,0l-0.4,0.4c0,0,0,0,0,0c-0.3-0.2-0.6-0.3-0.9-0.4v-0.6c0-0.1,0-0.1-0.1-0.1h-0.6c-0.1,0-0.1,0-0.1,0.1v0.6
				c-0.3,0.1-0.6,0.2-0.9,0.4c0,0,0,0,0,0l-0.4-0.4c0,0-0.1,0-0.1,0l-0.4,0.5c0,0,0,0.1,0,0.2l0.4,0.4c-0.2,0.3-0.3,0.6-0.4,0.9
				h-0.6c-0.1,0-0.1,0-0.1,0.1v0.7c0,0.1,0,0.1,0.1,0.1h0.6c0.1,0.3,0.2,0.7,0.4,0.9c0,0,0,0,0,0l-0.4,0.4c0,0,0,0.1,0,0.2l0.4,0.5
				c0,0,0.1,0,0.1,0l0.4-0.4l0,0c0.3,0.2,0.6,0.3,0.9,0.4v0.6c0,0.1,0,0.1,0.1,0.1h0.6c0.1,0,0.1,0,0.1-0.1v-0.6
				c0.3-0.1,0.6-0.2,0.9-0.4l0,0l0.4,0.4c0,0,0.1,0,0.1,0l0.4-0.5c0,0,0-0.1,0-0.2l-0.4-0.4c0,0,0,0,0,0c0.2-0.3,0.3-0.6,0.4-0.9
				h0.6C106.3,48.4,106.4,48.3,106.4,48.3z M103.5,49.3c-0.7,0-1.3-0.6-1.3-1.4c0-0.8,0.6-1.4,1.3-1.4c0.7,0,1.3,0.6,1.3,1.4
				C104.7,48.7,104.2,49.3,103.5,49.3z"/>
		</g>
		<g>
			<path class="st4" d="M106.1,42.3l-0.1-0.5c0,0,0-0.1-0.1-0.1l-0.4,0.1c-0.1-0.2-0.2-0.4-0.3-0.6l0.2-0.3c0,0,0-0.1,0-0.1
				l-0.3-0.3c0,0-0.1,0-0.1,0l-0.2,0.3c0,0,0,0,0,0c-0.2-0.1-0.4-0.2-0.6-0.2l-0.1-0.4c0,0,0-0.1-0.1-0.1l-0.4,0.1
				c0,0-0.1,0-0.1,0.1l0.1,0.4c-0.2,0.1-0.4,0.2-0.6,0.4c0,0,0,0,0,0l-0.3-0.3c0,0-0.1,0-0.1,0l-0.3,0.4c0,0,0,0.1,0,0.1l0.3,0.3
				c-0.1,0.2-0.2,0.4-0.2,0.7l-0.4,0.1c0,0-0.1,0-0.1,0.1l0.1,0.5c0,0,0,0.1,0.1,0.1l0.4-0.1c0.1,0.2,0.2,0.4,0.3,0.6c0,0,0,0,0,0
				l-0.2,0.3c0,0,0,0.1,0,0.1l0.3,0.3c0,0,0.1,0,0.1,0l0.2-0.3l0,0c0.2,0.1,0.4,0.2,0.6,0.2l0.1,0.4c0,0,0,0.1,0.1,0.1l0.4-0.1
				c0,0,0.1,0,0.1-0.1l-0.1-0.4c0.2-0.1,0.4-0.2,0.6-0.4c0,0,0,0,0,0l0.3,0.3c0,0,0.1,0,0.1,0l0.3-0.4c0,0,0-0.1,0-0.1l-0.3-0.3
				c0,0,0,0,0,0c0.1-0.2,0.2-0.4,0.2-0.7L106.1,42.3C106.1,42.4,106.1,42.3,106.1,42.3z M104.2,43.3c-0.5,0.1-0.9-0.3-1-0.8
				c-0.1-0.5,0.3-1,0.8-1.1c0.5-0.1,0.9,0.3,1,0.8C105,42.7,104.7,43.2,104.2,43.3z"/>
		</g>
	</g>
	<g>
		<g>
			<path class="st1" d="M97.9,48.6h-0.9c-0.1,0-0.2-0.1-0.2-0.3v-0.8c-0.4-0.1-0.9-0.3-1.2-0.5l-0.6,0.6c-0.1,0.1-0.2,0.1-0.3,0
				l-0.7-0.7c-0.1-0.1-0.1-0.3,0-0.4l0.6-0.6c-0.2-0.4-0.4-0.8-0.5-1.3h-0.8c-0.1,0-0.2-0.1-0.2-0.3v-1c0-0.1,0.1-0.3,0.2-0.3H94
				c0.1-0.5,0.3-0.9,0.5-1.3l-0.6-0.6c-0.1-0.1-0.1-0.3,0-0.4l0.7-0.7c0.1-0.1,0.2-0.1,0.3,0l0.6,0.6c0.4-0.3,0.8-0.5,1.2-0.5v-0.8
				c0-0.1,0.1-0.3,0.2-0.3h0.9c0.1,0,0.2,0.1,0.2,0.3v0.8c0.4,0.1,0.9,0.3,1.2,0.5l0.6-0.6c0.1-0.1,0.2-0.1,0.3,0l0.7,0.7
				c0.1,0.1,0.1,0.3,0,0.4l-0.6,0.6c0.2,0.4,0.4,0.8,0.5,1.3h0.8c0.1,0,0.2,0.1,0.2,0.3v1c0,0.1-0.1,0.3-0.2,0.3h-0.8
				c-0.1,0.5-0.3,0.9-0.5,1.3l0.6,0.6c0.1,0.1,0.1,0.3,0,0.4l-0.7,0.7c-0.1,0.1-0.2,0.1-0.3,0L99.3,47c-0.4,0.3-0.8,0.5-1.2,0.5v0.8
				C98.1,48.5,98,48.6,97.9,48.6z M95.5,46.8C95.5,46.8,95.5,46.8,95.5,46.8c0.4,0.3,0.9,0.5,1.3,0.6c0,0,0.1,0,0.1,0.1v0.9
				c0,0,0,0.1,0.1,0.1h0.9c0,0,0.1,0,0.1-0.1v-0.9c0,0,0-0.1,0.1-0.1c0.5-0.1,0.9-0.3,1.3-0.6c0,0,0.1,0,0.1,0l0.6,0.7
				c0,0,0.1,0,0.1,0l0.7-0.7c0,0,0-0.1,0-0.1l-0.6-0.7c0,0,0-0.1,0-0.1c0.3-0.4,0.4-0.9,0.5-1.4c0,0,0-0.1,0.1-0.1h0.9
				c0,0,0.1,0,0.1-0.1v-1c0,0,0-0.1-0.1-0.1h-0.9c0,0-0.1,0-0.1-0.1c-0.1-0.5-0.3-1-0.5-1.4c0,0,0-0.1,0-0.1l0.6-0.7c0,0,0,0,0-0.1
				c0,0,0,0,0-0.1l-0.7-0.7c0,0-0.1,0-0.1,0l-0.6,0.7c0,0-0.1,0-0.1,0c-0.4-0.3-0.8-0.5-1.3-0.6c0,0-0.1,0-0.1-0.1v-0.9
				c0,0,0-0.1-0.1-0.1h-0.9c0,0-0.1,0-0.1,0.1v0.9c0,0,0,0.1-0.1,0.1c-0.5,0.1-0.9,0.3-1.3,0.6c0,0-0.1,0-0.1,0l-0.6-0.7
				c0,0-0.1,0-0.1,0L94,40.9c0,0,0,0.1,0,0.1l0.6,0.7c0,0,0,0.1,0,0.1c-0.3,0.4-0.4,0.9-0.5,1.4c0,0,0,0.1-0.1,0.1h-0.9
				c0,0-0.1,0-0.1,0.1v1c0,0,0,0.1,0.1,0.1H94c0,0,0.1,0,0.1,0.1c0.1,0.5,0.3,1,0.5,1.4c0,0,0,0.1,0,0.1L94,46.6c0,0,0,0.1,0,0.1
				l0.7,0.7c0,0,0.1,0,0.1,0L95.5,46.8C95.4,46.8,95.4,46.8,95.5,46.8z M97.4,46c-1.1,0-2-1-2-2.1c0-1.2,0.9-2.1,2-2.1
				c1.1,0,2,1,2,2.1C99.4,45,98.5,46,97.4,46z M97.4,41.9c-1,0-1.8,0.9-1.8,2s0.8,2,1.8,2c1,0,1.8-0.9,1.8-2S98.4,41.9,97.4,41.9z"
				/>
		</g>
		<g>
			<path class="st1" d="M103.8,51.1h-0.6c-0.1,0-0.2-0.1-0.2-0.2v-0.5c-0.3-0.1-0.5-0.2-0.8-0.3l-0.4,0.4c-0.1,0.1-0.2,0.1-0.3,0
				l-0.4-0.5c-0.1-0.1-0.1-0.2,0-0.3l0.4-0.4c-0.2-0.3-0.3-0.5-0.3-0.8h-0.5c-0.1,0-0.2-0.1-0.2-0.2v-0.7c0-0.1,0.1-0.2,0.2-0.2h0.5
				c0.1-0.3,0.2-0.6,0.3-0.8l-0.4-0.4c-0.1-0.1-0.1-0.2,0-0.3l0.4-0.5c0.1-0.1,0.2-0.1,0.3,0l0.4,0.4c0.2-0.2,0.5-0.3,0.8-0.3v-0.5
				c0-0.1,0.1-0.2,0.2-0.2h0.6c0.1,0,0.2,0.1,0.2,0.2v0.5c0.3,0.1,0.5,0.2,0.8,0.3l0.4-0.4c0.1-0.1,0.2-0.1,0.3,0l0.4,0.5
				c0,0,0.1,0.1,0.1,0.1c0,0.1,0,0.1-0.1,0.1l-0.4,0.4c0.2,0.3,0.3,0.5,0.3,0.8h0.5c0.1,0,0.2,0.1,0.2,0.2v0.7
				c0,0.1-0.1,0.2-0.2,0.2h-0.5c-0.1,0.3-0.2,0.6-0.3,0.8l0.4,0.4c0,0,0.1,0.1,0.1,0.1c0,0.1,0,0.1-0.1,0.1l-0.4,0.5
				c-0.1,0.1-0.2,0.1-0.3,0l-0.4-0.4c-0.2,0.2-0.5,0.3-0.8,0.3v0.5C104,51.1,103.9,51.1,103.8,51.1z M102.2,49.8
				C102.2,49.8,102.2,49.9,102.2,49.8c0.3,0.2,0.6,0.3,0.9,0.4c0,0,0.1,0,0.1,0.1v0.6c0,0,0,0,0,0h0.6c0,0,0,0,0,0v-0.6
				c0,0,0-0.1,0.1-0.1c0.3-0.1,0.6-0.2,0.8-0.4c0,0,0.1,0,0.1,0l0.4,0.4l0.1,0.1l-0.1-0.1l0.4-0.5v0l-0.4-0.4c0,0,0-0.1,0-0.1
				c0.2-0.3,0.3-0.6,0.3-0.9c0,0,0-0.1,0.1-0.1h0.6c0,0,0,0,0,0v-0.7c0,0,0,0,0,0h-0.6c0,0-0.1,0-0.1-0.1c-0.1-0.3-0.2-0.6-0.3-0.9
				c0,0,0-0.1,0-0.1l0.4-0.4v0l-0.4-0.5c0,0,0,0,0,0c0,0,0,0,0,0l-0.4,0.4c0,0-0.1,0-0.1,0c-0.3-0.2-0.5-0.3-0.8-0.4
				c0,0-0.1,0-0.1-0.1v-0.6c0,0,0,0,0,0h-0.6c0,0,0,0,0,0v0.6c0,0,0,0.1-0.1,0.1c-0.3,0.1-0.6,0.2-0.8,0.4c0,0-0.1,0-0.1,0l-0.4-0.4
				c0,0,0,0,0,0c0,0,0,0,0,0l-0.4,0.5c0,0,0,0,0,0l0.4,0.4c0,0,0,0.1,0,0.1c-0.2,0.3-0.3,0.6-0.3,0.9c0,0,0,0.1-0.1,0.1h-0.6
				c0,0,0,0,0,0v0.7c0,0,0,0,0,0h0.6c0,0,0.1,0,0.1,0.1c0.1,0.3,0.2,0.6,0.3,0.9c0,0,0,0.1,0,0.1l-0.4,0.4c0,0,0,0,0,0l0.4,0.5
				l0.1,0.1l-0.1-0.1L102.2,49.8C102.1,49.9,102.2,49.8,102.2,49.8z M103.5,49.4c-0.7,0-1.3-0.7-1.3-1.5s0.6-1.5,1.3-1.5
				c0.7,0,1.3,0.7,1.3,1.5S104.2,49.4,103.5,49.4z M103.5,46.6c-0.7,0-1.2,0.6-1.2,1.3c0,0.7,0.5,1.3,1.2,1.3c0.7,0,1.2-0.6,1.2-1.3
				C104.7,47.2,104.1,46.6,103.5,46.6z"/>
		</g>
		<g>
			<path class="st1" d="M104.1,44.6c-0.1,0-0.1-0.1-0.2-0.1l0-0.4c-0.2,0-0.4-0.1-0.5-0.2l-0.2,0.3c-0.1,0.1-0.2,0.1-0.2,0l-0.3-0.3
				c-0.1-0.1-0.1-0.2,0-0.2l0.2-0.3c-0.1-0.2-0.2-0.3-0.3-0.5l-0.3,0c0,0,0,0,0,0c-0.1,0-0.1-0.1-0.2-0.1l-0.1-0.5c0,0,0-0.1,0-0.1
				c0,0,0.1-0.1,0.1-0.1l0.3,0c0-0.2,0.1-0.4,0.1-0.6l-0.3-0.2c-0.1-0.1-0.1-0.2,0-0.2l0.3-0.4c0.1-0.1,0.2-0.1,0.2,0l0.3,0.2
				c0.1-0.1,0.3-0.2,0.5-0.3l0-0.4c0,0,0-0.1,0-0.1c0,0,0.1-0.1,0.1-0.1L104,40c0,0,0,0,0,0c0.1,0,0.1,0.1,0.2,0.1l0,0.4
				c0.2,0,0.4,0.1,0.5,0.2l0.2-0.3c0.1-0.1,0.2-0.1,0.2,0l0.3,0.3c0.1,0.1,0.1,0.2,0,0.2l-0.2,0.3c0.1,0.2,0.2,0.3,0.3,0.5l0.3,0
				c0,0,0,0,0,0c0.1,0,0.1,0.1,0.2,0.1l0.1,0.5c0,0,0,0.1,0,0.1c0,0-0.1,0.1-0.1,0.1l-0.3,0c0,0.2-0.1,0.4-0.1,0.6l0.3,0.2
				c0,0,0.1,0.1,0.1,0.1c0,0,0,0.1,0,0.1l-0.3,0.4c-0.1,0.1-0.2,0.1-0.2,0l-0.3-0.2c-0.1,0.1-0.3,0.2-0.5,0.3l0,0.4
				c0,0.1,0,0.2-0.1,0.2L104.1,44.6C104.1,44.6,104.1,44.6,104.1,44.6z M103.4,43.8C103.4,43.8,103.4,43.8,103.4,43.8
				c0.2,0.1,0.4,0.2,0.6,0.2c0,0,0.1,0,0.1,0.1l0.1,0.4l0.4-0.1l-0.1-0.4c0,0,0-0.1,0.1-0.1c0.2-0.1,0.4-0.2,0.5-0.3
				c0,0,0.1,0,0.1,0l0.3,0.3l0.2-0.3l-0.3-0.3c0,0,0-0.1,0-0.1c0.1-0.2,0.2-0.4,0.2-0.7c0,0,0-0.1,0.1-0.1l0.4-0.1l-0.1-0.4
				l-0.4,0.1c0,0-0.1,0-0.1-0.1c-0.1-0.2-0.2-0.4-0.3-0.6c0,0,0-0.1,0-0.1l0.2-0.3l-0.3-0.3l-0.2,0.3c0,0-0.1,0-0.1,0
				c-0.2-0.1-0.4-0.2-0.6-0.2c0,0-0.1,0-0.1-0.1l0-0.4l-0.4,0.1l0,0.4c0,0,0,0.1-0.1,0.1c-0.2,0.1-0.4,0.2-0.5,0.3c0,0-0.1,0-0.1,0
				l-0.3-0.3l-0.2,0.3l0.3,0.3c0,0,0,0.1,0,0.1c-0.1,0.2-0.2,0.4-0.2,0.7c0,0,0,0.1-0.1,0.1l-0.4,0.1l0.1,0.4l0.4-0.1
				c0,0,0.1,0,0.1,0.1c0.1,0.2,0.2,0.4,0.3,0.6c0,0,0,0.1,0,0.1l-0.2,0.3l0.3,0.3L103.4,43.8C103.3,43.8,103.3,43.8,103.4,43.8z
				 M104.1,43.4c-0.5,0-0.9-0.4-1-0.9c-0.1-0.6,0.3-1.1,0.8-1.2c0.5-0.1,1,0.3,1.1,0.9c0,0.3,0,0.6-0.2,0.8
				c-0.2,0.2-0.4,0.4-0.6,0.4C104.2,43.4,104.1,43.4,104.1,43.4z M104.1,41.5c0,0-0.1,0-0.1,0c-0.4,0.1-0.7,0.5-0.7,1
				c0.1,0.5,0.5,0.8,0.9,0.7c0.2,0,0.4-0.1,0.5-0.3c0.1-0.2,0.2-0.4,0.2-0.6C104.8,41.8,104.5,41.5,104.1,41.5z"/>
		</g>
	</g>
	<g>
		<path class="st0" d="M64.8,122.4H39.2c-1.2,0-2.2,0.8-2.2,1.8l0,0c0,1,1,1.8,2.2,1.8h25.6h25.6c1.2,0,2.2-0.8,2.2-1.8l0,0
			c0-1-1-1.8-2.2-1.8H64.8z"/>
	</g>
	<g>
		<path class="st1" d="M90.4,126.3H39.2c-1.4,0-2.5-0.9-2.5-2.1s1.1-2.1,2.5-2.1h51.2c1.4,0,2.5,0.9,2.5,2.1S91.8,126.3,90.4,126.3z
			 M39.2,122.6c-1.1,0-2,0.7-2,1.6c0,0.9,0.9,1.6,2,1.6h51.2c1.1,0,2-0.7,2-1.6c0-0.9-0.9-1.6-2-1.6H39.2z"/>
	</g>
	<g>
		<g>
			<path class="st5" d="M84.2,55.6h1.9c0.8,0,1.5,0.7,1.5,1.5v0.5c0,0.7-0.5,1.4-1.3,1.5l0.6,1.1l-1.8-1.1h-0.9
				c-0.8,0-1.5-0.7-1.5-1.5v-0.5C82.7,56.3,83.3,55.6,84.2,55.6z"/>
		</g>
		<g>
			<g>
				<path class="st6" d="M86.4,57.3c0,0.1,0.1,0.3,0.3,0.3s0.3-0.1,0.3-0.3c0-0.1-0.1-0.3-0.3-0.3S86.4,57.2,86.4,57.3z"/>
			</g>
			<g>
				<circle class="st6" cx="85.6" cy="57.3" r="0.3"/>
			</g>
			<g>
				<circle class="st6" cx="84.6" cy="57.3" r="0.3"/>
			</g>
			<g>
				<circle class="st6" cx="83.6" cy="57.3" r="0.3"/>
			</g>
		</g>
		<g>
			<path class="st1" d="M86.9,60.2C86.9,60.2,86.9,60.2,86.9,60.2l-1.8-1.1h-0.9c-0.9,0-1.5-0.7-1.5-1.5v-0.5c0-0.9,0.7-1.5,1.5-1.5
				h1.9c0.9,0,1.5,0.7,1.5,1.5v0.5c0,0.7-0.5,1.4-1.2,1.5L86.9,60.2C86.9,60.2,86.9,60.2,86.9,60.2C86.9,60.2,86.9,60.2,86.9,60.2
				C86.9,60.2,86.9,60.2,86.9,60.2z M84.2,55.6c-0.8,0-1.5,0.7-1.5,1.5v0.5c0,0.8,0.7,1.5,1.5,1.5h0.9c0,0,0,0,0,0l1.7,1.1l-0.5-1
				c0,0,0,0,0,0c0,0,0,0,0,0c0.7-0.1,1.2-0.7,1.2-1.5v-0.5c0-0.8-0.7-1.5-1.5-1.5H84.2z"/>
		</g>
		<g>
			<g>
				<path class="st1" d="M86.6,57.6c-0.2,0-0.3-0.1-0.3-0.3c0-0.2,0.1-0.3,0.3-0.3c0.2,0,0.3,0.1,0.3,0.3
					C86.9,57.5,86.8,57.6,86.6,57.6z M86.6,57.1c-0.1,0-0.2,0.1-0.2,0.2c0,0.1,0.1,0.2,0.2,0.2c0.1,0,0.2-0.1,0.2-0.2
					C86.9,57.2,86.8,57.1,86.6,57.1z"/>
			</g>
			<g>
				<path class="st1" d="M85.6,57.6c-0.2,0-0.3-0.1-0.3-0.3c0-0.2,0.1-0.3,0.3-0.3c0.2,0,0.3,0.1,0.3,0.3
					C85.9,57.5,85.8,57.6,85.6,57.6z M85.6,57.1c-0.1,0-0.2,0.1-0.2,0.2c0,0.1,0.1,0.2,0.2,0.2c0.1,0,0.2-0.1,0.2-0.2
					C85.9,57.2,85.8,57.1,85.6,57.1z"/>
			</g>
			<g>
				<path class="st1" d="M84.6,57.6c-0.2,0-0.3-0.1-0.3-0.3c0-0.2,0.1-0.3,0.3-0.3c0.2,0,0.3,0.1,0.3,0.3
					C84.9,57.5,84.8,57.6,84.6,57.6z M84.6,57.1c-0.1,0-0.2,0.1-0.2,0.2c0,0.1,0.1,0.2,0.2,0.2c0.1,0,0.2-0.1,0.2-0.2
					C84.8,57.2,84.7,57.1,84.6,57.1z"/>
			</g>
			<g>
				<path class="st1" d="M83.6,57.6c-0.2,0-0.3-0.1-0.3-0.3c0-0.2,0.1-0.3,0.3-0.3c0.2,0,0.3,0.1,0.3,0.3
					C83.9,57.5,83.8,57.6,83.6,57.6z M83.6,57.1c-0.1,0-0.2,0.1-0.2,0.2c0,0.1,0.1,0.2,0.2,0.2c0.1,0,0.2-0.1,0.2-0.2
					C83.8,57.2,83.7,57.1,83.6,57.1z"/>
			</g>
		</g>
		<g>
			<path class="st4" d="M83.2,54.2h-2.1c-0.9,0-1.7,0.7-1.7,1.7v0.5c0,0.8,0.6,1.5,1.4,1.6l-0.6,1.3l2-1.2h1c0.9,0,1.7-0.7,1.7-1.7
				v-0.5C84.9,54.9,84.1,54.2,83.2,54.2z"/>
		</g>
		<g>
			<g>
				<circle class="st6" cx="80.5" cy="56.1" r="0.3"/>
			</g>
			<g>
				<circle class="st6" cx="81.6" cy="56.1" r="0.3"/>
			</g>
			<g>
				<circle class="st6" cx="82.7" cy="56.1" r="0.3"/>
			</g>
			<g>
				<circle class="st6" cx="83.8" cy="56.1" r="0.3"/>
			</g>
		</g>
		<g>
			<path class="st1" d="M80.2,59.3C80.2,59.3,80.2,59.3,80.2,59.3C80.2,59.3,80.2,59.2,80.2,59.3l0.6-1.3c-0.8-0.2-1.4-0.9-1.4-1.7
				v-0.5c0-0.9,0.8-1.7,1.7-1.7h2.1c0.9,0,1.7,0.8,1.7,1.7v0.5c0,0.9-0.8,1.7-1.7,1.7h-1L80.2,59.3C80.2,59.3,80.2,59.3,80.2,59.3z
				 M81.1,54.2c-0.9,0-1.6,0.7-1.6,1.6v0.5c0,0.8,0.6,1.5,1.4,1.6c0,0,0,0,0,0c0,0,0,0,0,0l-0.6,1.2l1.9-1.2c0,0,0,0,0,0h1
				c0.9,0,1.6-0.7,1.6-1.6v-0.5c0-0.9-0.7-1.6-1.6-1.6H81.1z"/>
		</g>
		<g>
			<g>
				<path class="st1" d="M80.5,56.4c-0.2,0-0.3-0.1-0.3-0.3c0-0.2,0.1-0.3,0.3-0.3s0.3,0.1,0.3,0.3C80.8,56.3,80.7,56.4,80.5,56.4z
					 M80.5,55.8c-0.1,0-0.3,0.1-0.3,0.3c0,0.1,0.1,0.3,0.3,0.3c0.1,0,0.3-0.1,0.3-0.3C80.7,56,80.6,55.8,80.5,55.8z"/>
			</g>
			<g>
				<path class="st1" d="M81.6,56.4c-0.2,0-0.3-0.1-0.3-0.3c0-0.2,0.1-0.3,0.3-0.3s0.3,0.1,0.3,0.3C81.9,56.3,81.8,56.4,81.6,56.4z
					 M81.6,55.8c-0.1,0-0.3,0.1-0.3,0.3c0,0.1,0.1,0.3,0.3,0.3s0.3-0.1,0.3-0.3C81.9,56,81.7,55.8,81.6,55.8z"/>
			</g>
			<g>
				<path class="st1" d="M82.7,56.4c-0.2,0-0.3-0.1-0.3-0.3c0-0.2,0.1-0.3,0.3-0.3s0.3,0.1,0.3,0.3C83,56.3,82.9,56.4,82.7,56.4z
					 M82.7,55.8c-0.1,0-0.3,0.1-0.3,0.3c0,0.1,0.1,0.3,0.3,0.3c0.1,0,0.3-0.1,0.3-0.3C83,56,82.9,55.8,82.7,55.8z"/>
			</g>
			<g>
				<path class="st1" d="M83.8,56.4c-0.2,0-0.3-0.1-0.3-0.3c0-0.2,0.1-0.3,0.3-0.3s0.3,0.1,0.3,0.3C84.2,56.3,84,56.4,83.8,56.4z
					 M83.8,55.8c-0.1,0-0.3,0.1-0.3,0.3c0,0.1,0.1,0.3,0.3,0.3s0.3-0.1,0.3-0.3C84.1,56,84,55.8,83.8,55.8z"/>
			</g>
		</g>
	</g>
	<g>
		<g>
			<path class="st7" d="M70.4,64.5h-6.9v-1.4c0-0.4,0.3-0.7,0.7-0.7h5.5c0.4,0,0.7,0.3,0.7,0.7V64.5z"/>
		</g>
		<g>
			<path class="st1" d="M70.4,64.5h-6.9c0,0-0.1,0-0.1-0.1v-1.4c0-0.4,0.3-0.8,0.8-0.8h5.5c0.4,0,0.8,0.3,0.8,0.8L70.4,64.5
				C70.5,64.5,70.4,64.5,70.4,64.5z M63.5,64.4h6.8v-1.3c0-0.3-0.3-0.6-0.6-0.6h-5.5c-0.3,0-0.6,0.3-0.6,0.6V64.4z"/>
		</g>
		<g>
			<path class="st8" d="M61.7,63.9c0,0-1.2,0.5-1.2,2.4c0,1.8,1.2,2.4,1.2,2.4h2.4v-2.4v-2.4H61.7z"/>
		</g>
		<g>
			<path class="st1" d="M64.1,68.7h-2.4c0,0,0,0,0,0c0,0-1.2-0.6-1.2-2.4c0-1.9,1.2-2.4,1.2-2.4c0,0,0,0,0,0h2.4c0,0,0.1,0,0.1,0.1
				L64.1,68.7C64.2,68.6,64.1,68.7,64.1,68.7z M61.7,68.5H64v-4.6h-2.3c-0.1,0.1-1.1,0.6-1.1,2.3C60.6,67.9,61.6,68.4,61.7,68.5z"/>
		</g>
		<g>
			<path class="st7" d="M71.1,69.2h-8.2c-0.1,0-0.3-0.1-0.3-0.3v-5.1c0-0.1,0.1-0.3,0.3-0.3h8.2c0.1,0,0.3,0.1,0.3,0.3V69
				C71.4,69.1,71.2,69.2,71.1,69.2z"/>
		</g>
		<g>
			<path class="st7" d="M68.2,62.8h-2.8v-1c0-0.6,0.5-1.1,1.1-1.1h1.7V62.8z"/>
		</g>
		<g>
			<path class="st1" d="M71.1,69.3h-8.2c-0.2,0-0.3-0.2-0.3-0.3v-5.1c0-0.2,0.2-0.3,0.3-0.3h8.2c0.2,0,0.3,0.2,0.3,0.3V69
				C71.4,69.2,71.3,69.3,71.1,69.3z M62.9,63.7c-0.1,0-0.2,0.1-0.2,0.2V69c0,0.1,0.1,0.2,0.2,0.2h8.2c0.1,0,0.2-0.1,0.2-0.2v-5.1
				c0-0.1-0.1-0.2-0.2-0.2H62.9z"/>
		</g>
		<g>
			<path class="st1" d="M68.2,62.9h-2.8c0,0-0.1,0-0.1-0.1v-1c0-0.7,0.6-1.2,1.2-1.2h1.7c0,0,0.1,0,0.1,0.1L68.2,62.9
				C68.3,62.9,68.2,62.9,68.2,62.9z M65.4,62.7h2.7v-1.9h-1.6c-0.6,0-1.1,0.5-1.1,1.1V62.7z"/>
		</g>
		<g>
			<path class="st9" d="M69.8,76.6c-0.2-0.8-1.1-1.3-1.9-1.1c-0.2,0.1-0.5,0.1-0.8,0.2l0.1-1.4h-0.3c-0.3,0-0.6,0.2-0.6,0.5L66.1,76
				c-2.3,0.5-5.3,1-6.6,0.8c-1.9-0.4-5.8-2.9-7.2-3.8c-0.7-0.5-1.7-0.3-2.2,0.4c-0.5,0.7-0.3,1.7,0.4,2.2c0.5,0.4,5.4,3.7,8.3,4.3
				c0.4,0.1,1,0.1,1.5,0.1c3.2,0,7.7-1.2,8.3-1.4C69.5,78.3,70,77.5,69.8,76.6z"/>
		</g>
		<g>
			<path class="st1" d="M60.4,80c-0.6,0-1.1,0-1.5-0.1c-2.9-0.6-7.8-3.9-8.4-4.3c-0.7-0.5-0.9-1.5-0.4-2.3c0.3-0.4,0.8-0.7,1.4-0.7
				c0.3,0,0.6,0.1,0.9,0.3c1.3,0.9,5.2,3.4,7.1,3.8c0.2,0,0.5,0.1,0.9,0.1c1.8,0,4.5-0.6,5.6-0.8l0.1-1.1c0-0.3,0.3-0.6,0.7-0.6h0.3
				c0,0,0,0,0.1,0c0,0,0,0,0,0.1l-0.1,1.3c0.2-0.1,0.5-0.1,0.7-0.2c0.1,0,0.3-0.1,0.4-0.1c0.7,0,1.4,0.5,1.6,1.2
				c0.1,0.4,0.1,0.9-0.2,1.2c-0.2,0.4-0.6,0.7-1,0.8C68.2,78.8,63.6,80,60.4,80z M51.4,72.8c-0.5,0-0.9,0.2-1.2,0.6
				c-0.5,0.7-0.3,1.6,0.4,2.1c0.5,0.4,5.4,3.7,8.3,4.2c0.4,0.1,0.9,0.1,1.5,0.1c3.2,0,7.8-1.2,8.3-1.4c0.4-0.1,0.7-0.4,0.9-0.7
				c0.2-0.3,0.2-0.7,0.1-1.1c-0.2-0.6-0.8-1.1-1.4-1.1c-0.1,0-0.3,0-0.4,0.1c-0.2,0.1-0.5,0.1-0.8,0.2c0,0,0,0-0.1,0c0,0,0,0,0-0.1
				l0.1-1.3h-0.2c-0.3,0-0.5,0.2-0.5,0.5L66.2,76c0,0,0,0.1-0.1,0.1c-1.1,0.3-3.9,0.8-5.7,0.8c-0.4,0-0.7,0-0.9-0.1
				c-1.9-0.4-5.9-2.9-7.2-3.8C52,72.9,51.7,72.8,51.4,72.8z"/>
		</g>
		<g>
			<g>
				<path class="st9" d="M24.9,77.3c-0.1,0-0.3,0-0.4,0c-1.4-0.1-2.7-0.9-3.9-2.5c-2.4-3.2-4.1-9.7-2.3-16.5
					c0.2-0.8,1.1-1.3,1.9-1.1c0.8,0.2,1.3,1.1,1.1,1.9c-1.4,5.5-0.2,11.2,1.8,13.9c0.7,0.9,1.2,1.2,1.5,1.2c2.5,0.1,4-1.4,4-1.5
					c0.6-0.6,1.6-0.7,2.2-0.1c0.6,0.6,0.7,1.6,0.1,2.2C30.8,75,28.5,77.3,24.9,77.3z"/>
			</g>
		</g>
		<g>
			<g>
				<path class="st1" d="M24.9,77.4c-0.1,0-0.3,0-0.4,0c-1.4-0.1-2.8-0.9-3.9-2.5c-2.4-3.2-4.1-9.8-2.4-16.6
					c0.2-0.7,0.8-1.2,1.6-1.2c0.1,0,0.3,0,0.4,0.1c0.4,0.1,0.8,0.4,1,0.8c0.2,0.4,0.3,0.8,0.2,1.2c-1.4,5.5-0.2,11.1,1.8,13.8
					c0.7,0.9,1.2,1.2,1.5,1.2c2.4,0.1,3.9-1.4,4-1.5c0.3-0.3,0.7-0.5,1.2-0.5c0.4,0,0.8,0.2,1.1,0.4c0.3,0.3,0.5,0.7,0.5,1.1
					c0,0.4-0.1,0.9-0.4,1.2C30.8,75,28.6,77.4,24.9,77.4z M19.7,57.2c-0.7,0-1.3,0.5-1.4,1.1c-1.7,6.8,0,13.3,2.3,16.4
					c1.1,1.5,2.5,2.4,3.8,2.5c3.9,0.2,6.3-2.3,6.4-2.5c0.3-0.3,0.4-0.7,0.4-1.1c0-0.4-0.2-0.8-0.5-1c-0.3-0.3-0.6-0.4-1-0.4
					c-0.4,0-0.8,0.2-1.1,0.5c-0.1,0.1-1.6,1.6-4.1,1.5c-0.3,0-0.9-0.4-1.6-1.3c-2-2.7-3.3-8.4-1.9-13.9c0.1-0.4,0-0.8-0.2-1.1
					c-0.2-0.3-0.5-0.6-0.9-0.7C20,57.2,19.8,57.2,19.7,57.2z"/>
			</g>
		</g>
		<g>
			<g>
				<path class="st7" d="M67.4,81.5C67.4,81.5,67.4,81.5,67.4,81.5c-0.7,0-1.1-0.6-1.1-1.2L67.1,67c0-0.6,0.6-1.1,1.2-1
					c0.6,0,1.1,0.6,1,1.2l-0.8,13.4C68.5,81,68,81.5,67.4,81.5z"/>
			</g>
		</g>
		<g>
			<path class="st10" d="M38,67.5c0,0-1.5,0.2-2.7,0.3c-1.2,0.2-8.5,4.5-8.5,4.5l2.2,4.6l3.2-0.9l-0.9,16.3h17.5l-0.6-16.8l2.7,1.6
				l2.3-4.6c0,0-6.8-4.2-8.6-4.7c-1.9-0.5-4.1-0.5-4.1-0.5L38,67.5z"/>
		</g>
		<g>
			<path class="st1" d="M48.7,92.4C48.7,92.4,48.7,92.4,48.7,92.4H31.2c0,0,0,0-0.1,0c0,0,0,0,0-0.1L32,76.2L28.9,77
				c0,0-0.1,0-0.1,0l-2.2-4.6c0,0,0-0.1,0-0.1c0.3-0.2,7.3-4.3,8.5-4.5c1.2-0.2,2.7-0.3,2.7-0.3l2.5-0.2c0,0,2.2,0.1,4.1,0.5
				c1.9,0.5,8.4,4.5,8.7,4.7c0,0,0,0.1,0,0.1l-2.3,4.6c0,0,0,0,0,0c0,0,0,0-0.1,0l-2.6-1.5l0.6,16.7C48.8,92.3,48.8,92.3,48.7,92.4
				C48.8,92.4,48.8,92.4,48.7,92.4z M31.3,92.3h17.3L48,75.5c0,0,0-0.1,0-0.1c0,0,0.1,0,0.1,0l2.7,1.5l2.3-4.5
				c-0.7-0.4-6.8-4.2-8.6-4.6c-1.9-0.5-4-0.5-4-0.5L38,67.5c0,0-1.5,0.2-2.7,0.3c-1.1,0.2-7.7,4-8.4,4.4l2.1,4.5l3.1-0.8
				c0,0,0,0,0.1,0c0,0,0,0,0,0.1L31.3,92.3z"/>
		</g>
		<g>
			<path class="st9" d="M39.8,70.2L39.8,70.2c-0.9,0-1.7-0.7-1.7-1.7v-3h3.3v3C41.5,69.4,40.7,70.2,39.8,70.2z"/>
		</g>
		<g>
			<path class="st11" d="M40.9,67.2L40.9,67.2c-1,0-1.9-0.2-2.7-0.6v0.7c0.6,0.4,1.7,0.9,2.7,0.8c0.2,0,0.4,0,0.6-0.1v-0.9
				C41.3,67.2,41.1,67.2,40.9,67.2z"/>
		</g>
		<g>
			<path class="st1" d="M39.8,70.3c-1,0-1.7-0.8-1.7-1.7v-3c0,0,0-0.1,0.1-0.1h3.3c0,0,0.1,0,0.1,0.1v3
				C41.5,69.5,40.8,70.3,39.8,70.3z M38.2,65.6v2.9c0,0.9,0.7,1.6,1.6,1.6c0.9,0,1.6-0.7,1.6-1.6v-2.9H38.2z"/>
		</g>
		<g>
			<path class="st8" d="M72.3,69.2h-8.2c-0.1,0-0.3-0.1-0.3-0.3v-5.1c0-0.1,0.1-0.3,0.3-0.3h8.2c0.1,0,0.3,0.1,0.3,0.3V69
				C72.6,69.1,72.4,69.2,72.3,69.2z"/>
		</g>
		<g>
			<path class="st12" d="M70.7,68.2h-4.9c-0.1,0-0.3-0.1-0.3-0.3v-3c0-0.1,0.1-0.3,0.3-0.3h4.9c0.1,0,0.3,0.1,0.3,0.3v3
				C70.9,68.1,70.8,68.2,70.7,68.2z"/>
		</g>
		<g>
			<path class="st8" d="M71.6,64.5h-6.9v-1.4c0-0.4,0.3-0.7,0.7-0.7h5.5c0.4,0,0.7,0.3,0.7,0.7V64.5z"/>
		</g>
		<g>
			<path class="st8" d="M69.4,62.8h-2.8v-1c0-0.6,0.5-1.1,1.1-1.1h0.5c0.6,0,1.1,0.5,1.1,1.1V62.8z"/>
		</g>
		<g>
			<path class="st1" d="M72.3,69.3h-8.2c-0.2,0-0.3-0.2-0.3-0.3v-5.1c0-0.2,0.2-0.3,0.3-0.3h8.2c0.2,0,0.3,0.2,0.3,0.3V69
				C72.6,69.2,72.5,69.3,72.3,69.3z M64.1,63.7c-0.1,0-0.2,0.1-0.2,0.2V69c0,0.1,0.1,0.2,0.2,0.2h8.2c0.1,0,0.2-0.1,0.2-0.2v-5.1
				c0-0.1-0.1-0.2-0.2-0.2H64.1z"/>
		</g>
		<g>
			<path class="st1" d="M70.7,68.3h-4.9c-0.2,0-0.3-0.2-0.3-0.3v-3c0-0.2,0.2-0.3,0.3-0.3h4.9c0.2,0,0.3,0.2,0.3,0.3v3
				C71,68.1,70.8,68.3,70.7,68.3z M65.8,64.8c-0.1,0-0.2,0.1-0.2,0.2v3c0,0.1,0.1,0.2,0.2,0.2h4.9c0.1,0,0.2-0.1,0.2-0.2v-3
				c0-0.1-0.1-0.2-0.2-0.2H65.8z"/>
		</g>
		<g>
			<path class="st1" d="M71.6,63.7h-6.9c0,0-0.1,0-0.1-0.1v-0.5c0-0.4,0.3-0.8,0.8-0.8h5.5c0.4,0,0.8,0.3,0.8,0.8L71.6,63.7
				C71.7,63.7,71.6,63.7,71.6,63.7z M64.7,63.5h6.8v-0.4c0-0.3-0.3-0.6-0.6-0.6h-5.5c-0.3,0-0.6,0.3-0.6,0.6V63.5z"/>
		</g>
		<g>
			<path class="st1" d="M69.4,62.5h-2.8c0,0-0.1,0-0.1-0.1v-0.6c0-0.7,0.6-1.2,1.2-1.2h0.5c0.7,0,1.2,0.6,1.2,1.2L69.4,62.5
				C69.5,62.5,69.4,62.5,69.4,62.5z M66.6,62.3h2.7v-0.5c0-0.6-0.5-1.1-1.1-1.1h-0.5c-0.6,0-1.1,0.5-1.1,1.1V62.3z"/>
		</g>
		<g>
			<path class="st1" d="M67.4,81.6C67.4,81.6,67.4,81.6,67.4,81.6c-0.4,0-0.7-0.2-0.9-0.4c-0.2-0.2-0.3-0.5-0.3-0.8l0.6-11.1
				c0,0,0-0.1,0.1-0.1h2.2c0,0,0,0,0.1,0c0,0,0,0,0,0.1l-0.6,11.2C68.6,81.1,68.1,81.6,67.4,81.6z M67.1,69.3l-0.6,11
				c0,0.3,0.1,0.5,0.3,0.7c0.2,0.2,0.4,0.3,0.7,0.3c0.6,0,1-0.4,1.1-1l0.6-11.1H67.1z"/>
		</g>
		<g>
			<path class="st13" d="M67.8,75.6C67.8,75.6,67.8,75.6,67.8,75.6c-0.8,0.2-1.2,1-1.1,1.7l0,0.2c0.2,0.8,1,1.3,1.8,1.1
				c0,0,0.1,0,0.1,0c0.9-0.2,1.4-1.2,1.1-2C69.5,75.7,68.6,75.3,67.8,75.6z"/>
		</g>
		<g>
			<path class="st1" d="M68.2,78.7C68.2,78.7,68.2,78.7,68.2,78.7c-0.7,0-1.4-0.5-1.5-1.2l0-0.2c-0.2-0.8,0.3-1.6,1.1-1.8l0,0.1
				l0-0.1c0.1,0,0.3-0.1,0.5-0.1c0.7,0,1.3,0.4,1.6,1.1c0.2,0.4,0.1,0.9-0.1,1.3c-0.2,0.4-0.6,0.7-1,0.8l-0.1,0
				C68.5,78.7,68.3,78.7,68.2,78.7z M68.2,75.6c-0.1,0-0.3,0-0.4,0.1c0,0,0,0,0,0c-0.7,0.2-1.2,0.9-1,1.6l0,0.2
				c0.1,0.6,0.7,1.1,1.4,1.1c0,0,0,0,0,0c0.1,0,0.2,0,0.4,0l0.1,0c0.4-0.1,0.7-0.4,0.9-0.7c0.2-0.4,0.2-0.8,0.1-1.2
				C69.5,76,68.9,75.6,68.2,75.6z"/>
		</g>
		<g>
			<path class="st1" d="M33.6,61l0.2,1.1c0.3,1.7,1.4,3.1,2.9,3.9l1.8,0.9c0,0-1.6-6.8-1.7-6.8S33.6,61,33.6,61z"/>
		</g>
		<g>
			<path class="st1" d="M38.5,66.8C38.5,66.8,38.4,66.8,38.5,66.8L36.6,66c-1.6-0.8-2.7-2.2-3-3.9L33.5,61c0,0,0-0.1,0.1-0.1
				c0,0,3.1-1,3.2-1c0,0,0,0,0,0c0.1,0,0.1,0,1,3.5C38.1,65,38.5,66.7,38.5,66.8C38.5,66.8,38.5,66.8,38.5,66.8
				C38.5,66.8,38.5,66.8,38.5,66.8z M33.7,61l0.2,1c0.3,1.7,1.4,3.1,2.9,3.8l1.6,0.8c-0.6-2.5-1.4-6.1-1.6-6.6
				C36.3,60.2,34.1,60.9,33.7,61z"/>
		</g>
		<g>
			<path class="st9" d="M40.9,67.2L40.9,67.2c-3.4,0-6.1-2.7-6.1-6.1v-3.3c0-3.4,2.7-6.1,6.1-6.1h0c3.4,0,6.1,2.7,6.1,6.1v3.3
				C47,64.5,44.2,67.2,40.9,67.2z"/>
		</g>
		<g>
			<path class="st14" d="M34.8,57.9h-1.1c-0.4,0-0.8,0.4-0.8,0.8v1c0,0.8,0.7,1.5,1.5,1.5h0.4V57.9z"/>
		</g>
		<g>
			<path class="st14" d="M47.7,57.9H47v3.3c0,0,0,0,0,0H47c0.8,0,1.5-0.7,1.5-1.5v-1C48.5,58.3,48.2,57.9,47.7,57.9z"/>
		</g>
		<g>
			<path class="st1" d="M34.8,61.3h-0.4c-0.9,0-1.6-0.7-1.6-1.6v-1c0-0.5,0.4-0.9,0.9-0.9h1.1c0,0,0.1,0,0.1,0.1L34.8,61.3
				C34.9,61.2,34.8,61.3,34.8,61.3z M33.7,58c-0.4,0-0.7,0.3-0.7,0.7v1c0,0.8,0.6,1.4,1.4,1.4h0.4V58H33.7z"/>
		</g>
		<g>
			<path class="st1" d="M47,61.3L47,61.3c-0.1,0-0.2,0-0.2-0.1l0-3.3c0,0,0-0.1,0.1-0.1h0.8c0.5,0,0.9,0.4,0.9,0.9v1
				C48.6,60.6,47.9,61.3,47,61.3z M47,61.1L47,61.1c0.8,0,1.4-0.6,1.4-1.4v-1c0-0.4-0.3-0.7-0.7-0.7H47V61.1z"/>
		</g>
		<g>
			<path class="st1" d="M40.9,67.3c-3.4,0-6.2-2.8-6.2-6.2v-3.3c0-3.4,2.8-6.2,6.2-6.2c3.4,0,6.2,2.8,6.2,6.2v3.3
				C47,64.6,44.3,67.3,40.9,67.3z M40.9,51.9c-3.3,0-6,2.7-6,6v3.3c0,3.3,2.7,6,6,6c3.3,0,6-2.7,6-6v-3.3
				C46.9,54.6,44.2,51.9,40.9,51.9z"/>
		</g>
		<g>
			<circle class="st1" cx="38.5" cy="59.1" r="0.8"/>
		</g>
		<g>
			<circle class="st1" cx="44.3" cy="59.1" r="0.8"/>
		</g>
		<g>
			<g>
				<path class="st1" d="M36.9,58.1C36.8,58.1,36.8,58,36.9,58.1c-0.2-0.1-0.2-0.2-0.1-0.3c0,0,0.7-0.8,1.6-0.8
					c1,0.1,1.3,0.4,1.3,0.5c0,0.1,0,0.2-0.1,0.2c-0.1,0-0.2,0-0.2-0.1l0,0c0,0-0.2-0.3-1.1-0.3C37.5,57.3,37,58,37,58
					C37,58,36.9,58.1,36.9,58.1z"/>
			</g>
		</g>
		<g>
			<g>
				<path class="st1" d="M43,58C43,58,43,58,43,58c-0.1,0-0.2-0.1-0.1-0.2c0,0,0.2-0.5,1.2-0.8c0.9-0.3,1.7,0.4,1.7,0.4
					c0.1,0.1,0.1,0.2,0,0.2c-0.1,0.1-0.2,0.1-0.2,0c0,0-0.7-0.6-1.5-0.3c-0.8,0.2-1,0.6-1,0.6C43.1,57.9,43.1,58,43,58z"/>
			</g>
		</g>
		<g>
			<path class="st6" d="M38.4,61.8l5.7,0.2l0,0.1c-0.1,1.4-1.3,2.5-2.8,2.5l-0.3,0C39.5,64.6,38.3,63.3,38.4,61.8L38.4,61.8z"/>
		</g>
		<g>
			<path class="st1" d="M41.4,64.7l-0.3,0c-0.8,0-1.5-0.3-2-0.9c-0.5-0.5-0.8-1.3-0.8-2c0,0,0,0,0-0.1c0,0,0,0,0.1,0l5.7,0.2
				c0,0,0,0,0.1,0c0,0,0,0,0,0.1l0,0.1C44,63.6,42.8,64.7,41.4,64.7z M38.4,61.9c0,0.7,0.3,1.3,0.7,1.8c0.5,0.5,1.2,0.8,1.9,0.8
				l0.3,0c1.4,0,2.5-1,2.6-2.4l0,0L38.4,61.9z"/>
		</g>
		<g>
			<path class="st1" d="M42.3,48.3h-4.2c-1.3,0-2.5,0.9-2.9,2.2c-1.2,0-2.2,1-2.2,2.2v5.6l1.7,0V59l0.5-0.5c0.5-0.4,0.8-1,0.9-1.7
				l0.4-2.1l9.1,0.9l0.3,1.9c0,0.3,0.1,0.5,0.2,0.7l0.2,0.5c0.1,0.2,0.3,0.3,0.5,0.3l0,0v-0.6l0,0c0.5,0,0.9-0.4,0.9-0.8v-3.9
				C47.8,50.7,45.4,48.3,42.3,48.3z"/>
		</g>
		<g>
			<path class="st1" d="M47,59.2C46.9,59.2,46.9,59.2,47,59.2c-0.2,0-0.4-0.2-0.5-0.4l-0.2-0.5c-0.1-0.2-0.2-0.5-0.2-0.8l-0.3-1.8
				l-9-0.9l-0.4,2.1c-0.1,0.6-0.4,1.2-0.9,1.7l-0.5,0.5c0,0-0.1,0-0.1,0c0,0,0,0,0-0.1v-0.7l-1.6,0c0,0-0.1,0-0.1-0.1v-5.6
				c0-1.2,1-2.2,2.2-2.2c0.4-1.3,1.6-2.2,3-2.2h4.2c3.1,0,5.5,2.5,5.5,5.5v3.9c0,0.2-0.1,0.5-0.3,0.7c-0.2,0.2-0.4,0.3-0.6,0.3
				L47,59.2C47,59.1,47,59.1,47,59.2C47,59.1,47,59.2,47,59.2z M36.6,54.7C36.6,54.7,36.6,54.7,36.6,54.7l9.2,0.9c0,0,0.1,0,0.1,0.1
				l0.3,1.9c0,0.3,0.1,0.5,0.2,0.7l0.2,0.5c0.1,0.1,0.2,0.2,0.3,0.3v-0.5c0,0,0,0,0-0.1c0,0,0,0,0.1,0l0,0c0.2,0,0.4-0.1,0.5-0.2
				c0.1-0.1,0.2-0.3,0.2-0.5v-3.9c0-3-2.4-5.4-5.4-5.4h-4.2c-1.3,0-2.5,0.9-2.8,2.1c0,0,0,0.1-0.1,0.1c-1.1,0-2.1,0.9-2.1,2.1v5.5
				l1.6,0c0,0,0.1,0,0.1,0.1v0.6l0.4-0.3c0.5-0.4,0.8-1,0.9-1.6L36.6,54.7C36.5,54.7,36.5,54.7,36.6,54.7z"/>
		</g>
		<g>
			<path class="st11" d="M45.7,55.7l-9.1-0.9c0,0,5.5,1.7,9.3,1.7L45.7,55.7z"/>
		</g>
	</g>
	<g>
		<g>
			<path class="st4" d="M88.3,80.2H71.9c-0.2,0-0.3-0.2-0.3-0.4v-3.9c0-0.2,0.2-0.4,0.3-0.4h16.4c0.2,0,0.3,0.2,0.3,0.4v3.9
				C88.7,80,88.5,80.2,88.3,80.2z"/>
		</g>
		<g>
			<path class="st15" d="M71.6,77.8v1.9c0,0.2,0.2,0.4,0.3,0.4h16.4c0.2,0,0.3-0.2,0.3-0.4v-1.9H71.6z"/>
		</g>
		<g>
			<g>
				<path class="st5" d="M73.3,76.5c-0.1-0.1-0.2,0-0.2,0.1v1.2V79c0,0.1,0.1,0.2,0.2,0.1l1.5-1.2c0.1-0.1,0.1-0.2,0-0.3L73.3,76.5z
					"/>
			</g>
			<g>
				<g>
					<path class="st16" d="M73.3,79.1l1.5-1.2c0.1-0.1,0.1-0.2,0-0.3l-0.2-0.2l-1.1,0.9c-0.1,0.1-0.2,0.1-0.4,0l0,0V79
						C73.1,79.1,73.2,79.2,73.3,79.1z"/>
				</g>
				<g>
					<path class="st17" d="M76.6,78.1c0,0.1,0,0.3-0.1,0.3c-0.1,0.1-0.2,0.1-0.4,0.1c-0.1,0-0.3,0-0.4-0.1v-0.3
						c0.1,0,0.2,0.1,0.2,0.1c0.1,0,0.1,0,0.2,0c0.1,0,0.1,0,0.1,0c0,0,0.1-0.1,0.1-0.1c0,0,0-0.1,0-0.1c0,0,0,0-0.1-0.1
						c0,0-0.1-0.1-0.2-0.1c-0.1,0-0.1-0.1-0.2-0.1c0,0-0.1-0.1-0.1-0.1c0-0.1,0-0.1,0-0.2c0-0.1,0-0.2,0.1-0.3
						c0.1-0.1,0.2-0.1,0.3-0.1c0.1,0,0.1,0,0.2,0c0.1,0,0.1,0,0.2,0.1l-0.1,0.3c-0.1,0-0.1-0.1-0.2-0.1c0,0-0.1,0-0.1,0
						c-0.1,0-0.1,0-0.1,0c0,0,0,0.1,0,0.1c0,0,0,0.1,0,0.1c0,0,0,0,0.1,0.1c0,0,0.1,0.1,0.2,0.1c0.1,0.1,0.2,0.1,0.3,0.2
						C76.6,77.9,76.6,78,76.6,78.1z"/>
					<path class="st17" d="M78.2,77v1c0,0.1,0,0.2-0.1,0.3c0,0.1-0.1,0.2-0.2,0.2c-0.1,0-0.2,0.1-0.3,0.1c-0.2,0-0.3-0.1-0.4-0.2
						c-0.1-0.1-0.1-0.2-0.1-0.4v-1h0.3v1c0,0.1,0,0.2,0.1,0.3c0,0.1,0.1,0.1,0.2,0.1c0.1,0,0.2,0,0.2-0.1c0-0.1,0.1-0.1,0.1-0.3v-1
						H78.2z"/>
					<path class="st17" d="M78.7,77h0.4c0.2,0,0.3,0,0.4,0.1c0.1,0.1,0.1,0.2,0.1,0.3c0,0.1,0,0.2-0.1,0.2c0,0.1-0.1,0.1-0.2,0.1v0
						c0.1,0,0.1,0.1,0.2,0.1c0,0.1,0.1,0.1,0.1,0.2c0,0.1,0,0.3-0.1,0.3c-0.1,0.1-0.2,0.1-0.4,0.1h-0.5V77z M79,77.6h0.2
						c0.1,0,0.1,0,0.2,0c0,0,0.1-0.1,0.1-0.1c0-0.1,0-0.1-0.1-0.1c0,0-0.1,0-0.2,0H79V77.6z M79,77.8v0.4h0.2c0.1,0,0.1,0,0.2-0.1
						c0,0,0.1-0.1,0.1-0.2c0-0.1-0.1-0.2-0.2-0.2H79z"/>
					<path class="st17" d="M81,78.1c0,0.1,0,0.3-0.1,0.3c-0.1,0.1-0.2,0.1-0.4,0.1c-0.1,0-0.3,0-0.4-0.1v-0.3c0.1,0,0.2,0.1,0.2,0.1
						c0.1,0,0.1,0,0.2,0c0.1,0,0.1,0,0.1,0c0,0,0.1-0.1,0.1-0.1c0,0,0-0.1,0-0.1c0,0,0,0-0.1-0.1c0,0-0.1-0.1-0.2-0.1
						c-0.1,0-0.1-0.1-0.2-0.1c0,0-0.1-0.1-0.1-0.1c0-0.1,0-0.1,0-0.2c0-0.1,0-0.2,0.1-0.3c0.1-0.1,0.2-0.1,0.3-0.1
						c0.1,0,0.1,0,0.2,0c0.1,0,0.1,0,0.2,0.1l-0.1,0.3c-0.1,0-0.1-0.1-0.2-0.1c0,0-0.1,0-0.1,0c-0.1,0-0.1,0-0.1,0c0,0,0,0.1,0,0.1
						c0,0,0,0.1,0,0.1c0,0,0,0,0.1,0.1c0,0,0.1,0.1,0.2,0.1c0.1,0.1,0.2,0.1,0.3,0.2C81,77.9,81,78,81,78.1z"/>
					<path class="st17" d="M82,77.2c-0.1,0-0.2,0-0.3,0.1c-0.1,0.1-0.1,0.2-0.1,0.4c0,0.3,0.1,0.5,0.3,0.5c0.1,0,0.2,0,0.3-0.1v0.3
						c-0.1,0.1-0.2,0.1-0.4,0.1c-0.2,0-0.4-0.1-0.5-0.2c-0.1-0.1-0.2-0.3-0.2-0.6c0-0.2,0-0.3,0.1-0.4c0.1-0.1,0.1-0.2,0.2-0.3
						s0.2-0.1,0.3-0.1c0.1,0,0.3,0,0.4,0.1l-0.1,0.3c-0.1,0-0.1-0.1-0.2-0.1C82.1,77.2,82.1,77.2,82,77.2z"/>
					<path class="st17" d="M83.1,77.9v0.6h-0.3V77h0.4c0.2,0,0.3,0,0.4,0.1c0.1,0.1,0.1,0.2,0.1,0.4c0,0.1,0,0.2-0.1,0.2
						c0,0.1-0.1,0.1-0.2,0.2c0.2,0.4,0.3,0.6,0.4,0.7h-0.3l-0.3-0.6H83.1z M83.1,77.7L83.1,77.7c0.2,0,0.3,0,0.3-0.1
						c0,0,0.1-0.1,0.1-0.2c0-0.1,0-0.1-0.1-0.2c0,0-0.1,0-0.2,0h-0.1V77.7z"/>
					<path class="st17" d="M84.3,78.5V77h0.3v1.6H84.3z"/>
					<path class="st17" d="M85.1,77h0.4c0.2,0,0.3,0,0.4,0.1c0.1,0.1,0.1,0.2,0.1,0.3c0,0.1,0,0.2-0.1,0.2c0,0.1-0.1,0.1-0.2,0.1v0
						c0.1,0,0.1,0.1,0.2,0.1c0,0.1,0.1,0.1,0.1,0.2c0,0.1,0,0.3-0.1,0.3c-0.1,0.1-0.2,0.1-0.4,0.1h-0.5V77z M85.4,77.6h0.2
						c0.1,0,0.1,0,0.2,0c0,0,0.1-0.1,0.1-0.1c0-0.1,0-0.1-0.1-0.1c0,0-0.1,0-0.2,0h-0.2V77.6z M85.4,77.8v0.4h0.2
						c0.1,0,0.1,0,0.2-0.1c0,0,0.1-0.1,0.1-0.2c0-0.1-0.1-0.2-0.2-0.2H85.4z"/>
					<path class="st17" d="M87.4,78.5h-0.8V77h0.8v0.3h-0.5v0.3h0.5v0.3h-0.5v0.4h0.5V78.5z"/>
				</g>
			</g>
		</g>
		<g>
			<path class="st1" d="M88.3,80.2H71.9c-0.2,0-0.4-0.2-0.4-0.5v-3.9c0-0.3,0.2-0.5,0.4-0.5h16.4c0.2,0,0.4,0.2,0.4,0.5v3.9
				C88.7,80,88.6,80.2,88.3,80.2z M71.9,75.6c-0.2,0-0.3,0.1-0.3,0.3v3.9c0,0.2,0.1,0.3,0.3,0.3h16.4c0.2,0,0.3-0.1,0.3-0.3v-3.9
				c0-0.2-0.1-0.3-0.3-0.3H71.9z"/>
		</g>
		<g>
			<g>
				<path class="st1" d="M73.2,79.2L73.2,79.2c-0.1,0-0.2-0.1-0.2-0.2v-2.3c0-0.1,0.1-0.2,0.2-0.2c0,0,0.1,0,0.1,0l1.5,1.2
					c0.1,0,0.1,0.1,0.1,0.2c0,0.1,0,0.1-0.1,0.2l-1.5,1.2C73.3,79.2,73.3,79.2,73.2,79.2z M73.2,76.6c0,0-0.1,0-0.1,0.1V79
					c0,0.1,0,0.1,0.1,0.1l0,0c0,0,0,0,0,0l1.5-1.2c0,0,0,0,0-0.1c0,0,0-0.1,0-0.1L73.2,76.6C73.2,76.6,73.2,76.6,73.2,76.6z"/>
			</g>
		</g>
	</g>
	<g>
		<path class="st1" d="M127.2,125.9H0.6c-0.1,0-0.3-0.1-0.3-0.2c0-0.1,0.1-0.2,0.3-0.2h126.6c0.1,0,0.3,0.1,0.3,0.2
			C127.5,125.8,127.3,125.9,127.2,125.9z"/>
	</g>
	<circle class="st18" cx="9.5" cy="36.7" r="0.5"/>
	<circle class="st18" cx="11" cy="36.7" r="0.5"/>
	<circle class="st18" cx="12.5" cy="36.7" r="0.5"/>
	<path class="st19" d="M111.5,94.8H8.4V35.4h103.2V94.8z M8.6,94.6h102.7v-59H8.6V94.6z"/>
	<rect x="8.5" y="37.6" class="st19" width="103" height="0.2"/>
	<rect x="9" y="40.1" class="st19" width="4" height="0.3"/>
	<rect x="9" y="41.1" class="st19" width="4" height="0.3"/>
	<rect x="9" y="42.2" class="st19" width="4" height="0.3"/>
	<path class="st19" d="M79.5,41.5H38.1v-2h41.4V41.5z M38.3,41.3h41v-1.6h-41V41.3z"/>
	<path class="st19" d="M89.8,88.1H13.9V45h75.9V88.1z M14.1,87.9h75.5V45.2H14.1V87.9z"/>
	<path class="st20" d="M23.1,82.6v1.2l-1.6-1.2c0,0-0.1,0-0.1,0c0,0,0,0,0,0v2.5c0,0,0,0.1,0.1,0.1c0,0,0,0,0,0l1.6-1.2v1.2
		c0,0,0,0,0,0h0.5c0,0,0,0,0,0v-2.6c0,0,0,0,0,0L23.1,82.6C23.1,82.6,23.1,82.6,23.1,82.6z"/>
	<path class="st20" d="M18.7,85.3h-0.5c0,0-0.1,0-0.1-0.1c0,0,0,0,0,0v-2.6c0,0,0-0.1,0.1-0.1c0,0,0,0,0,0h0.5c0,0,0.1,0,0.1,0.1
		c0,0,0,0,0,0L18.7,85.3C18.8,85.3,18.8,85.3,18.7,85.3C18.7,85.3,18.7,85.3,18.7,85.3z M20,85.3h-0.5c0,0-0.1,0-0.1-0.1
		c0,0,0,0,0,0v-2.6c0,0,0-0.1,0.1-0.1c0,0,0,0,0,0H20c0,0,0.1,0,0.1,0.1c0,0,0,0,0,0L20,85.3C20,85.3,20,85.3,20,85.3
		C20,85.3,20,85.3,20,85.3L20,85.3z"/>
	<path class="st1" d="M15.3,82.7v2.6c0,0,0,0.1,0.1,0.1c0,0,0,0,0,0l1.7-1.3c0,0,0-0.1,0-0.1c0,0,0,0,0,0L15.3,82.7
		C15.3,82.6,15.3,82.6,15.3,82.7C15.3,82.6,15.3,82.7,15.3,82.7z"/>
	<rect x="15.7" y="80.9" class="st19" width="73" height="0.3"/>
	<rect x="15.7" y="80.9" class="st5" width="11.2" height="0.5"/>
	<rect x="15.4" y="88.6" class="st21" width="29.6" height="1.4"/>
	<rect x="15.4" y="91.7" class="st21" width="6.5" height="1.4"/>
	<g>
		<g>
			<polygon class="st6" points="73.5,85.2 73.5,85.2 73.5,89.1 74.8,88.4 76.1,90.6 76.7,90.3 77.3,90 75.9,87.8 77.2,87.1 			"/>
		</g>
		<g>
			<path class="st1" d="M76.1,90.7C76.1,90.7,76.1,90.7,76.1,90.7C76.1,90.7,76.1,90.7,76.1,90.7l-1.4-2.2l-1.2,0.6c0,0-0.1,0-0.1,0
				c0,0-0.1,0-0.1-0.1l0.1-3.9c0,0,0-0.1,0.1-0.1c0,0,0.1,0,0.1,0l3.7,1.9c0,0,0.1,0,0.1,0.1c0,0,0,0.1-0.1,0.1L76,87.8l1.3,2.1
				c0,0,0,0,0,0.1c0,0,0,0,0,0.1L76.1,90.7C76.2,90.7,76.1,90.7,76.1,90.7z M74.8,88.3C74.8,88.3,74.8,88.3,74.8,88.3
				C74.8,88.3,74.8,88.4,74.8,88.3l1.4,2.2l1-0.5l-1.3-2.1c0,0,0-0.1,0-0.1l1.1-0.6l-3.4-1.7l-0.1,3.6L74.8,88.3
				C74.7,88.3,74.7,88.3,74.8,88.3z"/>
		</g>
	</g>
</g>
<rect x="17.4" y="135.8" class="st6" width="25.5" height="9.6"/>
<g>
	<g>
		<path class="st22" d="M21.6,39.2c-0.1-0.3-0.3-0.5-0.6-0.6c-0.5-0.1-2.6-0.1-2.6-0.1s-2,0-2.6,0.1c-0.3,0.1-0.5,0.3-0.6,0.6
			c-0.1,0.5-0.1,1.6-0.1,1.6s0,1.1,0.1,1.6c0.1,0.3,0.3,0.5,0.6,0.6c0.5,0.1,2.6,0.1,2.6,0.1s2,0,2.6-0.1c0.3-0.1,0.5-0.3,0.6-0.6
			c0.1-0.5,0.1-1.6,0.1-1.6S21.7,39.7,21.6,39.2z"/>
		<polygon class="st6" points="17.8,41.8 19.5,40.8 17.8,39.8 		"/>
	</g>
	<g>
		<path class="st23" d="M24.7,42.7c-0.1-0.1-0.2-0.2-0.3-0.4c-0.1-0.2-0.1-0.4-0.1-0.7v-0.4c0-0.3,0-0.6,0.1-0.7
			c0.1-0.2,0.2-0.3,0.3-0.4c0.1-0.1,0.3-0.1,0.5-0.1c0.2,0,0.4,0,0.5,0.1c0.1,0.1,0.2,0.2,0.3,0.4c0.1,0.2,0.1,0.4,0.1,0.7v0.4
			c0,0.3,0,0.6-0.1,0.7c-0.1,0.2-0.2,0.3-0.3,0.4c-0.1,0.1-0.3,0.1-0.5,0.1C25,42.8,24.8,42.7,24.7,42.7z M25.4,42.2
			c0-0.1,0.1-0.2,0.1-0.5v-0.9c0-0.2,0-0.4-0.1-0.5c0-0.1-0.1-0.1-0.2-0.1c-0.1,0-0.1,0-0.2,0.1c0,0.1-0.1,0.2-0.1,0.5v0.9
			c0,0.2,0,0.4,0.1,0.5c0,0.1,0.1,0.1,0.2,0.1C25.3,42.3,25.4,42.3,25.4,42.2z"/>
		<path class="st23" d="M34.6,41.5v0.1c0,0.2,0,0.3,0,0.4c0,0.1,0,0.2,0.1,0.2c0,0,0.1,0.1,0.2,0.1c0.1,0,0.2,0,0.2-0.1
			c0-0.1,0.1-0.2,0.1-0.4l0.6,0c0,0,0,0.1,0,0.1c0,0.3-0.1,0.5-0.2,0.6c-0.1,0.1-0.4,0.2-0.6,0.2c-0.3,0-0.5-0.1-0.7-0.3
			C34,42.3,34,42,34,41.6v-0.5c0-0.4,0.1-0.7,0.2-0.9c0.1-0.2,0.4-0.3,0.7-0.3c0.2,0,0.4,0,0.5,0.1c0.1,0.1,0.2,0.2,0.3,0.4
			c0,0.2,0.1,0.4,0.1,0.7v0.5H34.6z M34.7,40.3c0,0-0.1,0.1-0.1,0.2c0,0.1,0,0.2,0,0.4v0.2h0.5v-0.2c0-0.2,0-0.3,0-0.4
			c0-0.1,0-0.2-0.1-0.2c0,0-0.1-0.1-0.2-0.1C34.8,40.3,34.7,40.3,34.7,40.3z"/>
		<path class="st23" d="M23.1,41.5l-0.7-2.7H23l0.3,1.2c0.1,0.3,0.1,0.5,0.1,0.8h0c0-0.1,0.1-0.4,0.1-0.8l0.3-1.2h0.6l-0.7,2.7v1.3
			h-0.6V41.5z"/>
		<path class="st23" d="M28.2,39.9v2.9h-0.5l-0.1-0.4h0c-0.1,0.3-0.3,0.4-0.6,0.4c-0.2,0-0.3-0.1-0.4-0.2c-0.1-0.1-0.1-0.3-0.1-0.6
			v-2.1h0.6V42c0,0.1,0,0.2,0,0.3c0,0.1,0.1,0.1,0.1,0.1c0.1,0,0.1,0,0.2-0.1c0.1,0,0.1-0.1,0.1-0.1v-2.3H28.2z"/>
		<path class="st23" d="M31.5,39.9v2.9H31l-0.1-0.4h0c-0.1,0.3-0.3,0.4-0.6,0.4c-0.2,0-0.3-0.1-0.4-0.2c-0.1-0.1-0.1-0.3-0.1-0.6
			v-2.1h0.6V42c0,0.1,0,0.2,0,0.3c0,0.1,0.1,0.1,0.1,0.1c0.1,0,0.1,0,0.2-0.1c0.1,0,0.1-0.1,0.1-0.1v-2.3H31.5z"/>
		<path class="st23" d="M29.9,39.3h-0.6v3.4h-0.6v-3.4H28v-0.5h1.9V39.3z"/>
		<path class="st23" d="M33.6,40.3c0-0.2-0.1-0.3-0.2-0.4c-0.1-0.1-0.2-0.1-0.4-0.1c-0.1,0-0.2,0-0.3,0.1c-0.1,0.1-0.2,0.2-0.2,0.3
			h0l0-1.5h-0.6v4.1h0.5l0.1-0.3h0c0,0.1,0.1,0.2,0.2,0.2c0.1,0.1,0.2,0.1,0.3,0.1c0.2,0,0.4-0.1,0.5-0.3c0.1-0.2,0.2-0.5,0.2-0.9
			v-0.5C33.7,40.8,33.7,40.5,33.6,40.3z M33,41.5c0,0.2,0,0.4,0,0.5c0,0.1,0,0.2-0.1,0.3c0,0-0.1,0.1-0.2,0.1c-0.1,0-0.1,0-0.1,0
			c0,0-0.1-0.1-0.1-0.1v-1.6c0-0.1,0.1-0.1,0.1-0.2c0.1,0,0.1-0.1,0.2-0.1c0.1,0,0.1,0,0.2,0.1c0,0.1,0.1,0.1,0.1,0.3
			c0,0.1,0,0.3,0,0.5V41.5z"/>
	</g>
</g>
</svg>
