<svg xmlns="http://www.w3.org/2000/svg" xmlns:xlink="http://www.w3.org/1999/xlink" width="101.007" height="66.998" viewBox="0 0 101.007 66.998">
  <defs>
    <linearGradient id="linearGradient-2" x1="29.24" x2="29.24" y1="34.615" y2="39.445" gradientUnits="userSpaceOnUse">
      <stop offset="0" stop-color="rgb(244,26,45)"/>
      <stop offset="1" stop-color="rgb(183,2,22)"/>
    </linearGradient>
    <linearGradient id="linearGradient-4" x1="15.262" x2="15.262" y1="40.105" y2="54.509" gradientUnits="userSpaceOnUse">
      <stop offset="0" stop-color="rgb(56,55,96)"/>
      <stop offset="1" stop-color="rgb(3,3,6)"/>
    </linearGradient>
    <linearGradient id="linearGradient-6" x1="29.453" x2="29.453" y1="40.105" y2="54.439" gradientUnits="userSpaceOnUse">
      <stop offset="0" stop-color="rgb(56,55,96)"/>
      <stop offset="1" stop-color="rgb(3,3,6)"/>
    </linearGradient>
    <linearGradient id="linearGradient-8" x1="44.425" x2="44.425" y1="39.467" y2="54.368" gradientUnits="userSpaceOnUse">
      <stop offset="0" stop-color="rgb(56,55,96)"/>
      <stop offset="1" stop-color="rgb(3,3,6)"/>
    </linearGradient>
    <linearGradient id="linearGradient-10" x1="58.581" x2="58.581" y1="40.177" y2="54.581" gradientUnits="userSpaceOnUse">
      <stop offset="0" stop-color="rgb(56,55,96)"/>
      <stop offset="1" stop-color="rgb(3,3,6)"/>
    </linearGradient>
    <linearGradient id="linearGradient-12" x1="73.623" x2="73.623" y1="39.325" y2="54.368" gradientUnits="userSpaceOnUse">
      <stop offset="0" stop-color="rgb(56,55,96)"/>
      <stop offset="1" stop-color="rgb(3,3,6)"/>
    </linearGradient>
    <linearGradient id="linearGradient-14" x1="89.482" x2="89.482" y1="40.177" y2="55.165" gradientUnits="userSpaceOnUse">
      <stop offset="0" stop-color="rgb(56,55,96)"/>
      <stop offset="1" stop-color="rgb(3,3,6)"/>
    </linearGradient>
    <linearGradient id="linearGradient-16" x1="89.517" x2="89.517" y1="46.048" y2="49.174" gradientUnits="userSpaceOnUse">
      <stop offset="0" stop-color="rgb(244,26,45)"/>
      <stop offset="1" stop-color="rgb(183,2,22)"/>
    </linearGradient>
    <path id="path-19" fill-rule="evenodd" d="M6.02207506 13.18984547s-3.25607064 1.1589404-3.69757175 5.29801325c-.4415011 4.13907285 0-8.44370861 0-8.44370861s.33112583.8830022 3.69757175 3.14569536z"/>
    <filter id="filter-20" width="200%" height="200%" x="-50%" y="-50%" color-interpolation-filters="sRGB" filterUnits="userSpaceOnUse">
      <feOffset dx="0" dy="2" in="SourceAlpha" result="shadow-1-feOffset-shadow"/>
      <feGaussianBlur in="shadow-1-feOffset-shadow" result="shadow-1-feGaussianBlur-shadow" stdDeviation=".602"/>
      <feColorMatrix in="shadow-1-feGaussianBlur-shadow" result="shadow-1-feColorMatrix-shadow" type="matrix" values="0 0 0 0 0  0 0 0 0 0  0 0 0 0 0  0 0 0 0.25 0"/>
    </filter>
    <linearGradient id="linearGradient-21" x1="3.914" x2="3.914" y1="10.049" y2="22.627" gradientUnits="userSpaceOnUse">
      <stop offset="0" stop-color="rgb(230,177,38)"/>
      <stop offset="1" stop-color="rgb(221,89,48)"/>
    </linearGradient>
    <path id="path-22" fill-rule="evenodd" d="M3.7593819 20.14348786s-1.98675497 9.602649 9.98896247 9.10596026c0 0-12.74834437 3.64238411-11.9205298-9.10596026H3.7593819z"/>
    <filter id="filter-23" width="200%" height="200%" x="-50%" y="-50%" color-interpolation-filters="sRGB" filterUnits="userSpaceOnUse">
      <feOffset dx="0" dy="2" in="SourceAlpha" result="shadow-1-feOffset-shadow"/>
      <feGaussianBlur in="shadow-1-feOffset-shadow" result="shadow-1-feGaussianBlur-shadow" stdDeviation=".301"/>
      <feColorMatrix in="shadow-1-feGaussianBlur-shadow" result="shadow-1-feColorMatrix-shadow" type="matrix" values="0 0 0 0 0  0 0 0 0 0  0 0 0 0 0  0 0 0 0.25 0"/>
    </filter>
    <linearGradient id="linearGradient-24" x1="7.256" x2="7.256" y1="20.149" y2="32.892" gradientUnits="userSpaceOnUse">
      <stop offset="0" stop-color="rgb(56,55,96)"/>
      <stop offset="1" stop-color="rgb(3,3,6)"/>
    </linearGradient>
    <path id="path-25" fill-rule="evenodd" d="M94.81898455 15.28697572S89.63134658 12.3620309 68.05298013 12.803532c0 0-6.73289183-6.45695364-19.53642384-8.0022075 0 0-12.19646799-.99337749-28.4768212 4.41501103 0 0-4.9668874 1.82119205-12.74834436 3.4768212 0 0-3.80794702-2.48344372-4.24944813-4.02869758 0 0 4.02869758 1.49006623 13.3554084-.77262693 0 0 21.57836644-7.89183223 37.52759381-4.24944812 0 0 9.4370861 1.93156732 15.45253863 6.51214128 0-.11037528 17.05298014-.4415011 25.4415011 5.13245033z"/>
    <filter id="filter-26" width="200%" height="200%" x="-50%" y="-50%" color-interpolation-filters="sRGB" filterUnits="userSpaceOnUse">
      <feOffset dx="0" dy="2" in="SourceAlpha" result="shadow-1-feOffset-shadow"/>
      <feGaussianBlur in="shadow-1-feOffset-shadow" result="shadow-1-feGaussianBlur-shadow" stdDeviation=".301"/>
      <feColorMatrix in="shadow-1-feGaussianBlur-shadow" result="shadow-1-feColorMatrix-shadow" type="matrix" values="0 0 0 0 0  0 0 0 0 0  0 0 0 0 0  0 0 0 0.25 0"/>
    </filter>
    <linearGradient id="linearGradient-27" x1="48.081" x2="48.081" y1=".006" y2="15.287" gradientUnits="userSpaceOnUse">
      <stop offset="0" stop-color="rgb(56,55,96)"/>
      <stop offset="1" stop-color="rgb(3,3,6)"/>
    </linearGradient>
    <path id="path-28" fill-rule="evenodd" d="M89.9624724 15.50772627c1.65562915 1.65562914 1.76600442 2.26269316 1.76600442 2.26269316 5.29801325.22075055 6.45695364 2.15231788 6.51214128 2.3178808-2.59381898-5.73951436-8.05739514-4.58057396-8.2781457-4.58057396z"/>
    <filter id="filter-29" width="200%" height="200%" x="-50%" y="-50%" color-interpolation-filters="sRGB" filterUnits="userSpaceOnUse">
      <feOffset dx="0" dy="2" in="SourceAlpha" result="shadow-1-feOffset-shadow"/>
      <feGaussianBlur in="shadow-1-feOffset-shadow" result="shadow-1-feGaussianBlur-shadow" stdDeviation=".602"/>
      <feColorMatrix in="shadow-1-feGaussianBlur-shadow" result="shadow-1-feColorMatrix-shadow" type="matrix" values="0 0 0 0 0  0 0 0 0 0  0 0 0 0 0  0 0 0 0.25 0"/>
    </filter>
    <linearGradient id="linearGradient-30" x1="94.1" x2="94.1" y1="14.316" y2="20.062" gradientUnits="userSpaceOnUse">
      <stop offset="0" stop-color="rgb(244,26,45)"/>
      <stop offset="1" stop-color="rgb(183,2,22)"/>
    </linearGradient>
    <path id="path-31" fill-rule="evenodd" d="M45.64679912 13.35540839h19.37086092s-8.38852097-7.1192053-16.11479028-6.73289183c0 0 8.49889624 1.71081677 10.7615894 5.18763797 0-.11037528-14.01766004 1.54525386-14.01766004 1.54525386z"/>
    <filter id="filter-32" width="200%" height="200%" x="-50%" y="-50%" color-interpolation-filters="sRGB" filterUnits="userSpaceOnUse">
      <feOffset dx="0" dy="2" in="SourceAlpha" result="shadow-1-feOffset-shadow"/>
      <feGaussianBlur in="shadow-1-feOffset-shadow" result="shadow-1-feGaussianBlur-shadow" stdDeviation=".301"/>
      <feColorMatrix in="shadow-1-feGaussianBlur-shadow" result="shadow-1-feColorMatrix-shadow" type="matrix" values="0 0 0 0 0  0 0 0 0 0  0 0 0 0 0  0 0 0 0.25 0"/>
    </filter>
    <linearGradient id="linearGradient-33" x1="55.153" x2="55.153" y1="6.239" y2="13.355" gradientUnits="userSpaceOnUse">
      <stop offset="0" stop-color="rgb(56,55,96)"/>
      <stop offset="1" stop-color="rgb(3,3,6)"/>
    </linearGradient>
    <path id="path-34" fill-rule="evenodd" d="M43.1633554 13.35540839V7.45033113s-11.09271522-.4415011-18.15673288 2.64900662c0 0 5.40838852-4.19426049 19.09492273-4.02869757l-.93818984 7.2847682z"/>
    <filter id="filter-35" width="200%" height="200%" x="-50%" y="-50%" color-interpolation-filters="sRGB" filterUnits="userSpaceOnUse">
      <feOffset dx="0" dy="2" in="SourceAlpha" result="shadow-1-feOffset-shadow"/>
      <feGaussianBlur in="shadow-1-feOffset-shadow" result="shadow-1-feGaussianBlur-shadow" stdDeviation=".301"/>
      <feColorMatrix in="shadow-1-feGaussianBlur-shadow" result="shadow-1-feColorMatrix-shadow" type="matrix" values="0 0 0 0 0  0 0 0 0 0  0 0 0 0 0  0 0 0 0.25 0"/>
    </filter>
    <linearGradient id="linearGradient-36" x1="34.377" x2="34.377" y1="5.908" y2="13.355" gradientUnits="userSpaceOnUse">
      <stop offset="0" stop-color="rgb(56,55,96)"/>
      <stop offset="1" stop-color="rgb(3,3,6)"/>
    </linearGradient>
    <path id="path-37" fill-rule="evenodd" d="M98.29580574 21.24724062s-6.29139073 6.01545254 1.71081678 8.4437086h-6.6777042s-.22075055-7.89183222 4.96688742-8.4437086z"/>
    <filter id="filter-38" width="200%" height="200%" x="-50%" y="-50%" color-interpolation-filters="sRGB" filterUnits="userSpaceOnUse">
      <feOffset dx="0" dy="2" in="SourceAlpha" result="shadow-1-feOffset-shadow"/>
      <feGaussianBlur in="shadow-1-feOffset-shadow" result="shadow-1-feGaussianBlur-shadow" stdDeviation=".301"/>
      <feColorMatrix in="shadow-1-feGaussianBlur-shadow" result="shadow-1-feColorMatrix-shadow" type="matrix" values="0 0 0 0 0  0 0 0 0 0  0 0 0 0 0  0 0 0 0.25 0"/>
    </filter>
    <linearGradient id="linearGradient-39" x1="95.931" x2="95.931" y1="21.251" y2="29.691" gradientUnits="userSpaceOnUse">
      <stop offset="0" stop-color="rgb(56,55,96)"/>
      <stop offset="1" stop-color="rgb(3,3,6)"/>
    </linearGradient>
    <path id="path-40" fill-rule="evenodd" d="M77.26931567 30.57395143C74.73068433 28.0353201 74.23399558 24.06181015 76 20.86092715c1.76600442-3.200883 5.46357616-4.74613686 8.94039735-3.9183223-3.75275938-1.3245033-7.89183223.05518764-9.98896247 3.4768212-2.09713024 3.42163355-1.65562914 7.72626931 1.1589404 10.59602649 2.81456953 2.86975717 7.17439293 3.31125828 10.59602649 1.26931567-3.25607064 1.43487859-6.95364239.77262693-9.4370861-1.71081678z"/>
    <filter id="filter-41" width="200%" height="200%" x="-50%" y="-50%" color-interpolation-filters="sRGB" filterUnits="userSpaceOnUse">
      <feOffset dx="0" dy="2" in="SourceAlpha" result="shadow-1-feOffset-shadow"/>
      <feGaussianBlur in="shadow-1-feOffset-shadow" result="shadow-1-feGaussianBlur-shadow" stdDeviation=".301"/>
      <feColorMatrix in="shadow-1-feGaussianBlur-shadow" result="shadow-1-feColorMatrix-shadow" type="matrix" values="0 0 0 0 0  0 0 0 0 0  0 0 0 0 0  0 0 0 0.25 0"/>
    </filter>
    <linearGradient id="linearGradient-42" x1="79.652" x2="79.652" y1="15.626" y2="34.327" gradientUnits="userSpaceOnUse">
      <stop offset="0" stop-color="rgb(56,55,96)"/>
      <stop offset="1" stop-color="rgb(3,3,6)"/>
    </linearGradient>
    <path id="path-43" fill-rule="evenodd" d="M82.89845276 17.99117126c3.9183197 0 7.11921692 3.20088196 7.11921692 7.11920166s-3.20089722 7.11921692-7.11921692 7.11921692c-3.9183197 0-7.11920166-3.20089721-7.11920166-7.11921692 0-4.02868652 3.14569092-7.11920166 7.11920166-7.11920166zm-.11036682.38630677c.82781982 0 1.71081543.16555786 2.53863525.49668884-.2207489 1.04856873-1.98675537 4.02870178-2.53863525 4.24945068-.4414978 0-2.48344422-3.0353241-2.70419312-4.1390686.82781983-.38632202 1.82119751-.60707092 2.70419312-.60707092zm3.86312866 1.1589508c.38632202.2207489.66226196.49668885.9382019.77262879 1.04855347 1.04856872 1.6556244 2.31788635 1.8763733 3.86312866-.93818665.16557312-1.76600647.2207489-2.70419312.2207489-.49668884 0-1.76600647-.05517578-2.20750427-.2207489-.27593994-.16555786-.11038208-.6622467.11036682-1.21412659 0-.05519104.05519104-.11036682.05519104-.16555786.11038208-.05519104.11038208-.2207489.16557312-.27593994.49668884-1.04856873 1.04855347-2.04194641 1.76599121-2.98013306zm-7.83665466.2207489c-.2207489.2207489-.49668885.33113099-.71743775.55187989-1.15893554 1.15893554-1.76600647 2.53863525-1.93156433 4.1390686.99337769.05519104 4.24945068.2207489 4.74613953-.27593994.05519104-.05519104.05519104-.16555786.16555786-.2207489.33113098-.6622467-1.8763733-3.80795288-2.26269531-4.19425965zm8.3333435 10.4304657l.4414978-.4414978c1.04856873-1.04856873 1.6556244-2.42826843 1.93156434-3.80795288v-.2207489c-.55187989-.27593994-4.63575745-.2207489-4.96688843.27593994-.16555786.38630676.60707092 1.82118225.82781982 2.15231323.4414978.77262879 1.04856873 1.54525757 1.49006653 2.20750427.05519104-.11036682.11038208-.16555786.27593994-.16555786zm-8.9955902-.4414978c-1.04856873-1.04856873-1.71081544-2.42825317-1.93156434-3.80795288.49668884-.2207489 2.04194641-.2207489 2.70419312-.2207489.55187988 0 1.93156433.05519104 2.2626953.27593994.05519105.99337768-.93818664 2.53863525-1.6004486 3.53201294l-.05517578.05517578c-.05519104.05519104-.16557312.22076416-.2207489.27593994-.16557312.2207489-.22076416.33113098-.33113098.55187988v.05519104c-.33113098-.2207489-.6622467-.4414978-.82781983-.71743774zm2.15232848 1.43486023c.16555786-.55186462 1.93156433-4.3598175 2.64900208-4.19425964.49668884.05519104 2.48344421 3.31126403 2.5938263 4.13908386-1.71081544.77261352-3.53201295.77261352-5.24282838.05517578z"/>
    <filter id="filter-44" width="200%" height="200%" x="-50%" y="-50%" color-interpolation-filters="sRGB" filterUnits="userSpaceOnUse">
      <feOffset dx="0" dy="2" in="SourceAlpha" result="shadow-1-feOffset-shadow"/>
      <feGaussianBlur in="shadow-1-feOffset-shadow" result="shadow-1-feGaussianBlur-shadow" stdDeviation=".602"/>
      <feColorMatrix in="shadow-1-feGaussianBlur-shadow" result="shadow-1-feColorMatrix-shadow" type="matrix" values="0 0 0 0 0  0 0 0 0 0  0 0 0 0 0  0 0 0 0.25 0"/>
    </filter>
    <linearGradient id="linearGradient-45" x1="82.767" x2="82.767" y1="17.997" y2="32.23" gradientUnits="userSpaceOnUse">
      <stop offset="0" stop-color="rgb(212,212,212)"/>
      <stop offset="1" stop-color="rgb(147,147,147)"/>
    </linearGradient>
    <path id="path-47" fill-rule="evenodd" d="M18.60485651 30.68432671c-2.53863134-2.53863135-3.14569536-6.51214128-1.3245033-9.65783664 1.82119204-3.14569537 5.40838851-4.74613687 8.94039734-3.9183223-3.75275938-1.32450331-7.89183223.05518764-9.98896247 3.4768212-2.09713024 3.42163355-1.65562914 7.7262693 1.1589404 10.59602648 2.81456953 2.86975718 7.17439293 3.31125828 10.59602649 1.26931568-3.200883 1.3245033-6.95364239.71743929-9.38189846-1.76600442z"/>
    <filter id="filter-48" width="200%" height="200%" x="-50%" y="-50%" color-interpolation-filters="sRGB" filterUnits="userSpaceOnUse">
      <feOffset dx="0" dy="2" in="SourceAlpha" result="shadow-1-feOffset-shadow"/>
      <feGaussianBlur in="shadow-1-feOffset-shadow" result="shadow-1-feGaussianBlur-shadow" stdDeviation=".301"/>
      <feColorMatrix in="shadow-1-feGaussianBlur-shadow" result="shadow-1-feColorMatrix-shadow" type="matrix" values="0 0 0 0 0  0 0 0 0 0  0 0 0 0 0  0 0 0 0.25 0"/>
    </filter>
    <linearGradient id="linearGradient-49" x1="20.933" x2="20.933" y1="15.791" y2="34.492" gradientUnits="userSpaceOnUse">
      <stop offset="0" stop-color="rgb(56,55,96)"/>
      <stop offset="1" stop-color="rgb(3,3,6)"/>
    </linearGradient>
    <path id="path-50" fill-rule="evenodd" d="M24.12361145 18.0463623c3.9183197 0 7.11921692 3.20088196 7.11921692 7.11920166s-3.20089722 7.11920166-7.11921692 7.11920166c-3.9183197 0-7.11920166-3.20088195-7.11920166-7.11920166.05519104-4.02868652 3.20088196-7.11920166 7.11920166-7.11920166zm-2.81455994.99337769c1.71081543-.77262878 3.64237976-.77262878 5.29801941-.16555786-.2207489 1.04855347-1.98675537 4.02868652-2.53863525 4.24943542-.4414978.11038208-2.48344421-3.03530883-2.75938416-4.08387756zm6.56732178.55186462c.38632202.2207489.66226196.49668885.9382019.77262879 1.04855347 1.1037445 1.71081544 2.37306213 1.8763733 3.86312866-.93818665.16557312-1.76600647.2207489-2.70419312.2207489-.49668884 0-1.76600647-.05517578-2.20750427-.2207489-.27593994-.16555786-.11038208-.6622467.11036682-1.21412659 0-.05519104.05519104-.11036682.05519104-.16555786.11038208-.05519104.11038208-.2207489.16557312-.27593994.49668884-1.04856872 1.1037445-2.04194641 1.76599121-2.98013306zm-7.78144836.22076416c-.2207489.2207489-.49668885.33113099-.71743775.55187989-1.15893554 1.15893554-1.76600647 2.53863525-1.93156433 4.1390686.99337769.05519104 4.24945069.2207489 4.74613953-.27593994.05519104-.05519104.05519104-.16555786.16555786-.2207489.27593994-.6622467-1.93156433-3.75276184-2.26269531-4.19425965zm8.27815246 10.4304657l.4414978-.4414978c1.04856873-1.04856873 1.71081544-2.3730774 1.93156434-3.80795288v-.2207489c-.55186463-.27593994-4.63575745-.2207489-4.96688843.27593994-.16555786.38630676.60707092 1.82118225.82781982 2.15231323.4414978.77262879 1.04856873 1.54525757 1.49006653 2.20750427.05519104-.11036682.2207489-.16555786.27593994-.16555786zm-8.9955902-.44151306c-1.04856873-1.04856872-1.71081544-2.42825317-1.93156434-3.80795288.49668884-.2207489 2.04194641-.2207489 2.70419312-.2207489.55187988 0 1.93156433.05519104 2.2626953.27593994.05519105.8829956-.71743773 2.15231323-1.3796997 3.14569092-.11036682.16555786-.16555786.33113098-.27592468.4414978-.05519104.16557312-.16557312.22076416-.2207489.27593994-.16557312.2207489-.22076416.33113098-.33113098.55187989v.05519104c-.27593994-.2207489-.55187989-.49668885-.82781983-.71743775zm4.74613952 1.9315796c-.82781983 0-1.76600647-.16557313-2.53863525-.49668885.11038208-.55187988 1.93156433-4.30464173 2.59382629-4.24945069.60705566.05519104 2.48344421 3.31124878 2.70419311 4.08387757-.9382019.44151306-1.8211975.66226196-2.75938415.66226196z"/>
    <filter id="filter-51" width="200%" height="200%" x="-50%" y="-50%" color-interpolation-filters="sRGB" filterUnits="userSpaceOnUse">
      <feOffset dx="0" dy="2" in="SourceAlpha" result="shadow-1-feOffset-shadow"/>
      <feGaussianBlur in="shadow-1-feOffset-shadow" result="shadow-1-feGaussianBlur-shadow" stdDeviation=".602"/>
      <feColorMatrix in="shadow-1-feGaussianBlur-shadow" result="shadow-1-feColorMatrix-shadow" type="matrix" values="0 0 0 0 0  0 0 0 0 0  0 0 0 0 0  0 0 0 0.25 0"/>
    </filter>
    <linearGradient id="linearGradient-52" x1="23.992" x2="23.992" y1="18.052" y2="32.285" gradientUnits="userSpaceOnUse">
      <stop offset="0" stop-color="rgb(212,212,212)"/>
      <stop offset="1" stop-color="rgb(147,147,147)"/>
    </linearGradient>
    <path id="path-54" fill-rule="evenodd" d="M51.93818985 18.10154525c4.13907284-.05518763 7.78145695-.33112582 11.9205298-.16556291 3.9183223.22075055 6.18101545 4.02869757 4.41501103 7.94701987-.4415011-5.46357616-1.21412803-6.78807947-6.18101545-6.78807947-3.53200883 0-16.83222958 0-20.3642384-.05518764"/>
    <filter id="filter-55" width="200%" height="200%" x="-50%" y="-50%" color-interpolation-filters="sRGB" filterUnits="userSpaceOnUse">
      <feOffset dx="0" dy="2" in="SourceAlpha" result="shadow-1-feOffset-shadow"/>
      <feGaussianBlur in="shadow-1-feOffset-shadow" result="shadow-1-feGaussianBlur-shadow" stdDeviation=".301"/>
      <feColorMatrix in="shadow-1-feGaussianBlur-shadow" result="shadow-1-feColorMatrix-shadow" type="matrix" values="0 0 0 0 0  0 0 0 0 0  0 0 0 0 0  0 0 0 0.25 0"/>
    </filter>
    <linearGradient id="linearGradient-56" x1="55.622" x2="55.622" y1="17.774" y2="25.883" gradientUnits="userSpaceOnUse">
      <stop offset="0" stop-color="rgb(56,55,96)"/>
      <stop offset="1" stop-color="rgb(3,3,6)"/>
    </linearGradient>
    <path id="path-57" fill-rule="evenodd" d="M34.60927152 24.44812362s.4415011 3.97350993 19.37086093 3.03532009h1.49006623s-5.90507727 2.3178808-16.83222959.93818984c-.22075055 0-.33112582-.05518763-.55187637-.16556291-.22075056-.11037528-3.58719647-.93818985-3.4768212-3.80794702z"/>
    <filter id="filter-58" width="200%" height="200%" x="-50%" y="-50%" color-interpolation-filters="sRGB" filterUnits="userSpaceOnUse">
      <feOffset dx="0" dy="2" in="SourceAlpha" result="shadow-1-feOffset-shadow"/>
      <feGaussianBlur in="shadow-1-feOffset-shadow" result="shadow-1-feGaussianBlur-shadow" stdDeviation=".301"/>
      <feColorMatrix in="shadow-1-feGaussianBlur-shadow" result="shadow-1-feColorMatrix-shadow" type="matrix" values="0 0 0 0 0  0 0 0 0 0  0 0 0 0 0  0 0 0 0.25 0"/>
    </filter>
    <linearGradient id="linearGradient-59" x1="44.791" x2="44.791" y1="24.45" y2="29.801" gradientUnits="userSpaceOnUse">
      <stop offset="0" stop-color="rgb(56,55,96)"/>
      <stop offset="1" stop-color="rgb(3,3,6)"/>
    </linearGradient>
    <linearGradient id="linearGradient-61" x1="10.777" x2="12.586" y1="61.315" y2="65.193" gradientUnits="userSpaceOnUse">
      <stop offset="0" stop-color="rgb(244,26,45)"/>
      <stop offset="1" stop-color="rgb(183,2,22)"/>
    </linearGradient>
    <linearGradient id="linearGradient-63" x1="14.677" x2="15.896" y1="62.584" y2="65.199" gradientUnits="userSpaceOnUse">
      <stop offset="0" stop-color="rgb(244,26,45)"/>
      <stop offset="1" stop-color="rgb(183,2,22)"/>
    </linearGradient>
    <linearGradient id="linearGradient-65" x1="14.027" x2="15.287" y1="60.787" y2="63.491" gradientUnits="userSpaceOnUse">
      <stop offset="0" stop-color="rgb(244,26,45)"/>
      <stop offset="1" stop-color="rgb(183,2,22)"/>
    </linearGradient>
    <linearGradient id="linearGradient-67" x1="13.38" x2="14.607" y1="59.037" y2="61.67" gradientUnits="userSpaceOnUse">
      <stop offset="0" stop-color="rgb(244,26,45)"/>
      <stop offset="1" stop-color="rgb(183,2,22)"/>
    </linearGradient>
    <linearGradient id="linearGradient-69" x1="14.636" x2="14.636" y1="65.978" y2="66.818" gradientUnits="userSpaceOnUse">
      <stop offset="0" stop-color="rgb(244,26,45)"/>
      <stop offset="1" stop-color="rgb(183,2,22)"/>
    </linearGradient>
    <linearGradient id="linearGradient-71" x1="57.748" x2="57.748" y1="59.296" y2="66.938" gradientUnits="userSpaceOnUse">
      <stop offset="0" stop-color="rgb(56,55,96)"/>
      <stop offset="1" stop-color="rgb(3,3,6)"/>
    </linearGradient>
  </defs>
  <g>
    <g>
      <g>
        <ellipse cx="29.256" cy="37.031" fill="url(#linearGradient-2)" rx="2.428" ry="2.428"/>
        <g>
          <g>
            <path fill="url(#linearGradient-4)" fill-rule="evenodd" d="M9.0022075 51.76600442c.05518764.71743929.33112583 1.82119205 1.04856513 1.82119205h.77262693c.16556291 0 .16556291.05518764.16556291.16556291v.55187638c0 .05518764 0 .16556292-.22075055.16556292s-.77262693-.05518764-2.20750552-.05518764H6.02207506c-.16556292 0-.22075056 0-.22075056-.22075055v-.49668875c0-.05518763 0-.16556291.16556292-.16556291h.77262693c.66225165 0 .82781457-.93818985.93818984-1.54525386.22075056-1.43487859.33112583-6.12582782.33112583-6.45695365V42.4392936c0-.93818985-.22075055-1.49006623-1.04856512-1.49006623h-.66225165c-.16556292 0-.16556292-.05518763-.16556292-.16556291v-.55187638c0-.05518764 0-.16556291.16556292-.16556291.22075055 0 .71743929.05518763 3.03532008.05518763.93818985 0 1.54525387-.05518763 1.76600442-.05518763s.33112583 0 .49668874.33112582c1.26931567 3.42163356 2.70419426 6.6777042 3.80794702 9.65783665.22075055-.33112583 1.71081678-4.02869757 1.82119205-4.30463576.05518764-.22075056 2.0419426-4.96688742 2.20750552-5.29801325.05518764-.22075055.2759382-.22075055.93818985-.22075055 3.14569536 0 3.75275938-.05518764 3.97350993-.05518764.05518764 0 .16556291.05518764.16556291.22075055v.49668875c0 .1655629 0 .22075055-.1655629.22075055h-.82781458c-.4415011 0-.49668874.33112582-.49668874.77262693 0 .27593819 0 5.18763797.05518764 5.62913907 0 .4415011.05518764 4.74613687.05518764 5.13245033 0 .77262693.22075055 1.04856512.4415011 1.04856512h.93818984c.16556292 0 .16556292.05518764.16556292.16556292v.49668874c0 .16556291 0 .22075055-.22075055.22075055-.2759382-.16556291-.66225166-.16556291-2.98013245-.16556291h-3.0353201c-.1655629 0-.1655629-.05518764-.1655629-.22075055v-.49668875c0-.05518763 0-.16556291.1655629-.16556291h1.1589404c.33112583 0 .49668875-.16556291.55187639-.7174393 0-.22075055.05518763-3.80794701.05518763-5.2428256v-5.9602649h-.16556291c-.22075055.33112583-2.42825607 5.73951435-2.7593819 6.51214128-.4415011.93818984-2.20750552 5.29801324-2.26269316 5.5187638-.05518763.16556291-.22075055.4415011-.49668874.4415011-.16556291 0-.27593819-.16556291-.33112583-.33112583-.05518763-.16556291-2.70419426-6.34657836-2.81456953-6.6777042-.33112583-.93818984-2.20750552-5.40838851-2.3178808-5.62913907-.05518763.2759382-.16556291 5.29801325-.16556291 5.5187638s0 2.98013245.11037528 4.8013245z"/>
            <path fill="url(#linearGradient-6)" fill-rule="evenodd" d="M27.98675497 45.97130243c0-.49668874-.05518764-4.02869757-.05518764-4.30463576-.05518764-.49668875-.22075055-.7174393-.66225166-.7174393h-.93818984c-.05518764 0-.16556292-.05518763-.16556292-.16556291v-.55187638c0-.05518764.05518764-.16556291.16556292-.16556291.22075055 0 1.26931567.05518763 3.200883.05518763 2.0419426 0 2.70419426-.05518763 2.92494481-.05518763.05518764 0 .16556292.05518763.16556292.22075055v.55187638c0 .05518764-.05518764.16556291-.16556292.16556291h-.55187638c-.49668874 0-.77262693.16556291-.77262693.49668874 0 .22075055-.05518764 4.6357616-.05518764 4.8013245v1.54525387c0 .22075055.05518764 4.74613686.05518764 4.96688742 0 .66225165.2759382.71743929.7174393.71743929h.77262693c.05518763 0 .16556291.05518764.16556291.16556291v.55187638c0 .05518764-.05518764.16556292-.22075055.16556292-.2759382-.05518764-1.04856512-.05518764-2.98013245-.05518764-2.0419426 0-2.92494481.05518764-3.200883.05518764-.05518764 0-.16556292-.05518764-.16556292-.16556292v-.55187638c0-.05518763.05518764-.16556291.16556292-.16556291h.55187638c.4415011 0 .77262693-.05518764.93818984-.55187638.05518764-.27593819.05518764-4.63576159.05518764-5.68432671v-1.32450331h.05518764z"/>
            <path fill="url(#linearGradient-8)" fill-rule="evenodd" d="M41.45254517 48.89624634c-.16555787.4414978-1.15893555 3.09051513-1.15893555 3.75276184 0 .4414978.2207489.93818664.82780456.93818664h.717453c.2207489 0 .2207489.11038208.2207489.16555787v.44151306c0 .16555786 0 .2207489-.2207489.2207489-.27593993 0-1.04856872-.05519104-2.70420837-.05519104-1.43487548 0-1.93156433.05519104-2.20750427.05519104-.16555786 0-.16555786-.11038208-.16555786-.27593994v-.33113098c0-.16555787 0-.2207489.16555786-.2207489h.49668884c.49668885 0 .88301087-.27593995 1.32450867-.82781983.27593994-.4414978 1.65562439-3.9183197 2.31788635-5.62913513.16555786-.4414978 1.76599121-4.69094849 1.93156433-5.18763733.0087738-.03509522.01893616-.07019043.0291748-.10549927.0541382-.18682861.11006165-.37986755-.0291748-.61193848-.11038208-.05519104-.16557312-.2207489-.16557312-.27593994s.05519104-.16555786.22076416-.2207489c.6622467-.16555786 1.93156434-.6622467 2.20750428-.99337768.05517578-.05519104.11036682-.2207489.27593994-.2207489.16555786 0 .16555786.11038208.2207489.33113098.33111572 1.26931762 1.93156433 5.68432617 2.26268005 6.9536438.38632202 1.5452423 1.76600647 5.2428131 2.04194641 5.73950195.38632203.66226196.88301087.9382019 1.15895081.9382019h.6622467c.16555787 0 .16555787.05517578.16555787.2207489v.33111573c0 .11038208 0 .27593994-.2207489.27593994-.33111573 0-.77262879-.05517578-3.31124879-.05517578-1.6004486 0-2.31788635.05517578-2.75938415.05517578-.2207489 0-.2207489-.11036682-.2207489-.27593994v-.38630677c0-.05519104 0-.2207489.16555786-.2207489h.6622467c.55187989 0 .71743775-.2207489.55187989-.71743774-.2207489-.71743775-.93818665-3.256073-1.21412659-3.97351074h-4.24945068v.16555786zm4.08387756-.77262879c-.2207489-.55187988-1.3244934-4.74613952-1.49006653-5.24282837-.05519104-.27593994-.11036682-.4414978-.2207489-.4414978-.16555786 0-.2207489.05519104-.2207489.27593994-.05519104.27593994-1.76600647 4.96688843-1.98675537 5.46357727h3.9183197v-.05519104z"/>
            <path fill="url(#linearGradient-10)" fill-rule="evenodd" d="M52.98675497 41.9977925c0-.7174393-.16556292-.99337749-.55187638-.99337749h-.93818985c-.16556291 0-.16556291-.05518764-.16556291-.22075055v-.49668874c0-.16556292 0-.16556292.22075055-.16556292s1.21412804.05518764 3.25607064.05518764c1.76600441 0 2.70419426-.05518764 2.92494481-.05518764.16556292 0 .22075055.05518764.22075055.16556292v.55187638c0 .05518764 0 .16556291-.16556291.16556291h-.7174393c-.71743929 0-.99337748.33112583-1.04856511.77262693 0 .22075055-.05518764 1.54525387-.05518764 2.53863135v1.26931567c0 1.04856512.05518764 3.53200883.05518764 4.19426049 0 .93818984.22075055 1.76600441.66225165 2.3178808.66225166.77262692 1.54525386 1.15894039 2.4834437 1.15894039.7174393 0 1.76600442-.33112583 2.3178808-.82781457.77262694-.7174393 1.26931568-1.76600441 1.26931568-3.25607064v-3.03532009c0-1.71081677-.22075055-3.80794702-.2759382-4.30463576-.05518763-.49668874-.4415011-.82781457-.71743929-.82781457h-.60706401c-.16556292 0-.16556292-.05518764-.16556292-.16556291v-.49668874c0-.05518764 0-.16556292.16556292-.16556292.22075055 0 1.1589404.05518764 2.4834437.05518764 1.04856513 0 1.71081678-.05518764 1.93156733-.05518764.22075056 0 .22075056.05518764.22075056.22075055v.4415011c0 .16556292 0 .22075056-.16556292.22075056h-.60706402c-.77262693 0-.77262693.55187638-.82781457.77262693-.05518763.27593819-.05518763 2.98013245-.05518763 3.25607064 0 .2759382-.05518764 3.75275938-.05518764 4.52538631-.16556292 1.65562914-.66225166 2.92494482-1.71081678 3.75275939-.82781457.77262693-2.20750552 1.21412803-3.53200883 1.21412803-.93818984 0-2.20750552-.16556291-3.03532009-.49668874-.93818984-.4415011-1.82119205-1.32450331-2.26269315-2.64900662-.33112583-.82781457-.4415011-2.20750552-.4415011-4.74613687-.11037528 0-.11037528-4.69094923-.11037528-4.69094923z"/>
            <path fill="url(#linearGradient-12)" fill-rule="evenodd" d="M72.19205298 41.16997792h-.66225166c-.66225165 0-1.82119205 0-2.70419426.2759382-.33112582.33112582-1.21412803 1.54525386-1.71081677 2.26269315-.05518764.05518764-.16556292.16556292-.22075055.16556292l-.4415011-.16556292c-.05518765 0-.05518765-.16556291-.05518765-.22075055.22075056-.82781457.82781457-3.4768212.93818985-3.80794702.05518764-.27593819.16556291-.33112583.27593819-.33112583.11037527 0 .22075055.05518764.33112583.2759382.22075055.27593818.55187638.4415011 1.26931567.49668873 1.04856512.05518764 1.93156733.16556292 3.97350993.16556292h1.1589404c2.20750552 0 3.03532009-.05518764 3.80794702-.16556292.4415011 0 1.21412804-.27593819 1.43487859-.49668874s.27593819-.27593819.4415011-.27593819c.16556292 0 .22075055.05518764.22075055.2759382.05518764.4415011.4415011 2.9249448.55187638 3.97350993 0 .05518763 0 .1655629-.05518763.22075055l-.4415011.16556291c-.05518765 0-.16556292-.05518764-.22075056-.22075055-.4415011-.7174393-1.21412804-1.76600442-1.71081678-2.20750552-.49668874-.27593819-2.26269315-.33112583-2.70419426-.33112583h-.66225165v11.64459161c.05518763.49668875.22075055.77262694.71743929.77262694h.93818985c.22075055 0 .22075055.05518763.22075055.22075055v.4415011c0 .05518764 0 .16556292-.22075055.16556292-.22075056 0-.82781457-.05518764-3.0353201-.05518764-2.15231787 0-2.9249448.05518764-3.200883.05518764-.1655629 0-.22075055-.05518764-.22075055-.22075056v-.33112582c0-.16556292 0-.22075056.16556292-.22075056h.99337748c.4415011 0 .66225166-.22075055.7174393-.55187638.05518763-.4415011.05518763-6.51214128.05518763-6.89845474l.05518764-5.0772627z"/>
          </g>
          <g>
            <path fill="url(#linearGradient-14)" fill-rule="evenodd" d="M89.4657898 40.17659607c-4.08389283 0-7.50552369 3.31126404-7.50552369 7.50552368 0 4.1390686 3.31126404 7.56069946 7.50552368 7.50550842 4.19425965 0 7.50550843-3.31124878 7.50550843-7.50550842-.05517578-4.19425964-3.36643982-7.50552368-7.50550843-7.50552368zm-.00001526 1.6004486c2.48344421 0 4.52539062 1.54525758 5.46357727 3.6975708H84.0573883c.77262878-2.15231322 2.92494201-3.6975708 5.40838623-3.6975708zm-5.794693 6.34657288c.2207489 0 .33113098-.05519104.55187989-.05519104h.33111572c2.20751953.05519104 3.97351074 1.93156433 3.97351074 4.19425965v.55187988c0 .2207489-.05517578.33113098-.16555786.55187988-2.59381104-.44151306-4.47019959-2.5938263-4.69094849-5.24282837zm6.89845276 5.24282837c-.11036682-.2207489-.11036682-.33113098-.16555786-.55187988h.05519104v-.55187988c0-2.26269532 1.76600647-4.1390686 3.97351074-4.19425965h.33111573c.22076416 0 .33113098 0 .55187988.05519104-.2207489 2.59381104-2.20750427 4.80131531-4.74613953 5.24282837z"/>
            <path fill="url(#linearGradient-16)" fill-rule="evenodd" d="M89.46578366 49.17218543c-.82781457 0-1.49006622-.7174393-1.49006622-1.54525386 0-.82781457.7174393-1.54525387 1.49006622-1.54525387.82781457 0 1.54525387.7174393 1.54525387 1.54525387s-.66225166 1.54525386-1.54525387 1.54525386z"/>
          </g>
        </g>
      </g>
      <g>
        <rect width="99.338" height="31.015" x="1.662" y="2.594" fill="none" rx="0" ry="0"/>
        <g>
          <path fill="none" d="M1.66225166 2.59381898v31.01545254H101V2.59381898H1.66225166z"/>
          <g>
            <g>
              <use fill="black" stroke="black" stroke-opacity="0" stroke-width="0" filter="url(#filter-20)" xlink:href="#path-19"/>
              <use fill="url(#linearGradient-21)" xlink:href="#path-19"/>
            </g>
            <g>
              <use fill="black" stroke="black" stroke-opacity="0" stroke-width="0" filter="url(#filter-23)" xlink:href="#path-22"/>
              <use fill="url(#linearGradient-24)" xlink:href="#path-22"/>
            </g>
            <g>
              <use fill="black" stroke="black" stroke-opacity="0" stroke-width="0" filter="url(#filter-26)" xlink:href="#path-25"/>
              <use fill="url(#linearGradient-27)" xlink:href="#path-25"/>
            </g>
            <g>
              <use fill="black" stroke="black" stroke-opacity="0" stroke-width="0" filter="url(#filter-29)" xlink:href="#path-28"/>
              <use fill="url(#linearGradient-30)" xlink:href="#path-28"/>
            </g>
            <g>
              <use fill="black" stroke="black" stroke-opacity="0" stroke-width="0" filter="url(#filter-32)" xlink:href="#path-31"/>
              <use fill="url(#linearGradient-33)" xlink:href="#path-31"/>
            </g>
            <g>
              <use fill="black" stroke="black" stroke-opacity="0" stroke-width="0" filter="url(#filter-35)" xlink:href="#path-34"/>
              <use fill="url(#linearGradient-36)" xlink:href="#path-34"/>
            </g>
            <g>
              <use fill="black" stroke="black" stroke-opacity="0" stroke-width="0" filter="url(#filter-38)" xlink:href="#path-37"/>
              <use fill="url(#linearGradient-39)" xlink:href="#path-37"/>
            </g>
            <g>
              <use fill="black" stroke="black" stroke-opacity="0" stroke-width="0" filter="url(#filter-41)" xlink:href="#path-40"/>
              <use fill="url(#linearGradient-42)" xlink:href="#path-40"/>
            </g>
            <g>
              <use fill="black" stroke="black" stroke-opacity="0" stroke-width="0" filter="url(#filter-44)" xlink:href="#path-43"/>
              <use fill="url(#linearGradient-45)" xlink:href="#path-43"/>
            </g>
            <ellipse cx="82.898" cy="25.055" fill="rgb(138,138,138)" rx="1.545" ry="1.545"/>
            <g>
              <use fill="black" stroke="black" stroke-opacity="0" stroke-width="0" filter="url(#filter-48)" xlink:href="#path-47"/>
              <use fill="url(#linearGradient-49)" xlink:href="#path-47"/>
            </g>
            <g>
              <use fill="black" stroke="black" stroke-opacity="0" stroke-width="0" filter="url(#filter-51)" xlink:href="#path-50"/>
              <use fill="url(#linearGradient-52)" xlink:href="#path-50"/>
            </g>
            <ellipse cx="24.124" cy="25.11" fill="rgb(138,138,138)" rx="1.545" ry="1.545"/>
            <g>
              <use fill="black" stroke="black" stroke-opacity="0" stroke-width="0" filter="url(#filter-55)" xlink:href="#path-54"/>
              <use fill="url(#linearGradient-56)" xlink:href="#path-54"/>
            </g>
            <g>
              <use fill="black" stroke="black" stroke-opacity="0" stroke-width="0" filter="url(#filter-58)" xlink:href="#path-57"/>
              <use fill="url(#linearGradient-59)" xlink:href="#path-57"/>
            </g>
          </g>
        </g>
      </g>
    </g>
    <g>
      <g>
        <g>
          <path fill="url(#linearGradient-61)" fill-rule="evenodd" d="M12.85426337 62.01932734l-.60706402-.60706402c-.05518764-.05518763-.16556292-.05518763-.22075055 0l-3.09050773 2.59381899c-.16556291.16556291-.27593819.38631346-.27593819.60706402 0 .22075055.05518764.4415011.22075055.60706401l.16556292.16556292c.1655629.16556291.38631346.22075055.60706401.22075055s.49668874-.11037528.60706402-.27593819l2.59381899-3.09050773c.05518763-.11037527.05518763-.16556291 0-.22075055z" transform="rotate(25.000018 10.78472694 63.48179975)"/>
          <path fill="url(#linearGradient-63)" fill-rule="evenodd" d="M15.80701786 62.83089408c-.27593819-.27593819-.7174393-.27593819-.99337748 0l-1.37969095 1.37969095c-.27593819.2759382-.27593819.7174393 0 .99337749.16556291.1655629.38631347.27593819.66225166.27593819s.49668874-.11037528.66225165-.2759382l1.04856512-1.04856512c.38631347-.38631346.38631347-.93818984 0-1.3245033z" transform="rotate(25.000018 14.67567128 64.0174283)"/>
          <path fill="url(#linearGradient-65)" fill-rule="evenodd" d="M14.27429123 60.78054186c-.05518764.05518763-.11037528.16556291-.16556292.22075055l-1.37969095 1.37969095c-.05518764.05518764-.11037527.11037527-.22075055.16556291l1.21412804 1.21412804c.05518763-.05518764.11037527-.16556292.16556291-.22075055l1.37969095-1.37969095c.05518764-.05518764.11037528-.11037528.22075055-.16556292l-1.21412803-1.21412803z" transform="rotate(25.000018 13.99835304 62.27060808)"/>
          <path fill="url(#linearGradient-67)" fill-rule="evenodd" d="M14.56924764 59.41834993c-.33112583-.33112583-.93818984-.33112583-1.26931567 0l-1.04856512 1.04856512c-.33112583.33112582-.33112583.93818984 0 1.26931567.11037527.11037528.27593819.22075055.49668874.22075055.16556291 0 .33112583-.05518764.49668874-.22075055l1.37969095-1.37969095c.22075055-.27593819.22075055-.7174393-.05518764-.93818984z" transform="rotate(25.000018 13.38271343 60.52210269)"/>
        </g>
        <path fill="url(#linearGradient-69)" fill-rule="evenodd" d="M16.27949247 66.00441501h-3.25607064c-.66225165 0-1.1589404-.05518764-1.1589404.60706402 0 .11037527.11037528.22075055.22075056.22075055h5.13245033c.11037528 0 .22075055-.11037528.22075055-.22075055 0-.66225166-.55187638-.60706402-1.1589404-.60706402z"/>
      </g>
      <path fill="url(#linearGradient-71)" fill-rule="evenodd" d="M56.51127625 60.37528076c.38630676-.16555786.99337768-.16555786 1.32450866-.16555786h.16555786v5.96026611c0 .16555786-.11038208.27590943-.33113098.27590943h-.49668884c-.05519104 0-.05519104.0552063-.05519104.11038208v.16555786c0 .0552063.05519104.11038208.11038208.11038208.11038208 0 .55187988-.05517578 1.6004486-.05517578 1.10374451 0 1.4348755.05517578 1.54524232.05517578.11038208 0 .11038208 0 .11038208-.05517578v-.22076416c0-.05517578 0-.11038208-.11038208-.11038208h-.4414978c-.2207489 0-.33113099-.11035157-.33113099-.3862915V60.2097229h.33113098c.2207489 0 1.10375977 0 1.37968445.16555786.22076416.22073364.60707093.77261353.82781983 1.10375977.05519104.11035156.05519104.11035156.11038208.11035156l.2207489-.05517578c.05519104-.05517578.05519104-.05517578.05519104-.11038208-.05519104-.55187988-.22076416-1.76599121-.27593994-1.98675537 0-.11038208-.05519104-.16555786-.11038208-.16555786s-.11036682.05517578-.2207489.16555786c-.11038208.16555786-.49668885.27593994-.71743775.27593994-.4414978 0-.82781982.05517578-1.93156433.05517578h-.55187988c-1.04856873 0-1.4348755 0-1.98675537-.05517578-.38630677-.05517578-.55187989-.11038208-.6622467-.27593994-.05519105-.11038208-.05519105-.16555786-.16557313-.16555786-.11036682 0-.11036682.05517578-.16555786.16555786-.05519104.22076416-.38630676 1.49008178-.49668884 1.93157959 0 .05517578 0 .11038208.05519104.11038208l.2207489.05517578c.05519104 0 .05519104 0 .11036682-.05517578.22076416-.33114624.66226196-.9382019.88301087-1.10375977zm-32.78144837 3.6975708c-.05519104.22076416-.55187988 1.54525757-.55187988 1.8763733 0 .22076415.11036682.4414978.38630676.4414978h.33113098c.11038208 0 .11038208.0552063.11038208.0552063v.22073364c0 .0552063 0 .11038208-.11038208.11038208s-.55187988-.05517578-1.32450866-.05517578c-.71743775 0-.93818665.05517578-1.10374451.05517578-.05519104 0-.05519104-.05517578-.05519104-.11038208v-.16555786c0-.05517578 0-.11038208.05519104-.11038208h.27593994c.2207489 0 .49668884-.16555787.6622467-.4414978.16555787-.22073365.82781983-1.93154908 1.15893555-2.8145752.05519104-.22073364.88301086-2.3178711.99337769-2.59381104.05519104-.11038208.05519104-.22073364 0-.33111572-.05517578-.0552063-.05517578-.11038208-.05517578-.11038208 0-.05517578 0-.05517578.11036682-.11038208.33113098-.05517578.93818664-.33111572 1.10375976-.49667358.05517578-.0552063.05517578-.11038208.11036682-.11038208.05519104 0 .05519104.05517578.11038208.16555786.16555786.60705566.93818665 2.86975097 1.15893555 3.47683716.2207489.77261352.8829956 2.64898681.99337769 2.86975097.16555786.33111572.4414978.4414978.55187988.4414978h.33111572c.05519104 0 .05519104.05517579.05519104.11038209v.16555786c0 .05517578 0 .11038208-.11036682.11038208-.16557312 0-.38632202-.0552063-1.65563965-.0552063-.82780456 0-1.15893555.0552063-1.37968445.0552063-.11038208 0-.11038208-.0552063-.11038208-.11038208v-.16555786c0-.0552063 0-.11038209.05519104-.11038209h.27593994c.27593995 0 .33113099-.11038208.27593995-.33111572-.11038208-.33114624-.49668885-1.65563965-.60707093-1.98675537h-2.04193115v.05517578zm21.35762024 1.93154907c-.717453-.66226196-1.10375977-1.8211975-1.10375977-2.64901733 0-1.04855347.33113099-1.93154907 1.04856873-2.70419311.55187988-.60705567 1.37968445-1.04855347 2.64900208-1.04855347.88301086 0 1.65562438.22076416 1.98675537.4414978.10809326.03604126.14561462.04852295.17399597.0375061.01509094-.00585937.02760315-.01837158.04675293-.0375061l.05519104-.27593994c0-.05517578.05519104-.05517578.16555786-.05517578.16557312 0 .16557312 0 .16557312.16555786s.16555786 1.8763733.2207489 2.15231323c0 .05517578 0 .11038208-.05519104.11038208l-.2207489.05517578c-.05519104 0-.11038208 0-.11038208-.11038208-.11036682-.3862915-.38630676-.8829956-.77262879-1.3244934-.4414978-.4414978-.93818664-.77261353-1.71081542-.77261353-1.4348755 0-2.04193116 1.3244934-2.04193116 2.8145752 0 .60705566.16555786 1.82116699.8829956 2.59381103.66224671.66223145 1.2141266.77261353 1.54525758.77261353 1.15893554 0 1.98675537-.49667359 2.31787109-1.04855347.05519104-.0552063.11038208-.11038208.16557312-.0552063l.16555786.16558838c.05519104 0 .05519104.05517578 0 .11035156-.55187988.82781983-1.54525757 1.65563965-2.92494201 1.65563965-1.32450867-.05517578-1.98675538-.4414978-2.64900208-.99337769zm28.9183197-2.64901733c0 1.434906.71743775 2.48345947 1.4348755 2.92495728.77262877.49667358 1.65563964.66226196 2.37307738.60705566 1.54524231 0 2.37306214-.55187988 3.03530884-1.37966919.55187988-.66226196.77262879-1.434906.77262879-2.15234375 0-1.37966919-.60705567-2.37304687-1.37968445-2.98013306-.82781983-.66223144-1.60044861-.77261352-2.42825318-.77261352-.88301086 0-1.98675537.22076416-2.86976623 1.26931763-.77262879.9382019-.93818665 1.87637329-.93818665 2.48342895zm18.76379395-1.32446289c.05519104.49667358.05519104.99337769.05519104 1.8763733l.05519104.77261352c-.11038208-.11035157-1.54525757-1.93154908-1.71081543-2.09710694-.33113098-.38632202-2.26269531-2.75939941-2.31788635-2.8145752-.05519104-.0552063-.16555787-.11038207-.27593995-.11038207H86.4229889c-.05519104 0-.05519104 0-.05519104.05517578v.27593994s0 .0552063.05519104.0552063h.27593994c.49668885 0 .82780457.55187988.82780457 1.15893555v.8829956c0 1.49008179-.11036682 3.09051514-.11036682 3.256073-.05519104.66226196-.2207489.99337768-.4414978.99337768h-.33113099c-.05519104 0-.05519104 0-.05519104.05517579v.27593994c0 .11038208 0 .11038208.05519104.11038208.11036682 0 .77262879-.05517578 1.10374451-.05517578.44151306 0 1.04856873.05517578 1.1589508.05517578.05519105 0 .05519105 0 .05519105-.05517578v-.22076416c0-.05517578 0-.11038208-.05519104-.11038208h-.27593995c-.38632202 0-.60707092-.33111573-.60707092-.8829956 0-.38632203-.11036682-1.60043336-.11036682-2.42825318V61.0927185h.05519104c.2207489.33111572 1.60043335 2.04193115 1.76599121 2.2626953.2207489.22076417.99337769 1.21414185 1.71083069 2.04193116.60705566.71743774 1.1037445 1.21414185 1.26930237 1.3796997.11038208.11038209.2207489.16555787.38632202.16555787.16555786 0 .16555786-.16555786.16555786-.33111572v-1.71081543c0-1.32449341.16555786-3.58718872.2207489-4.24945069 0-.38632202.11038208-.55187988.27593994-.55187988h.2207489c.05519104 0 .05519104-.05517578.05519104-.11038208v-.22073364c0-.0552063 0-.0552063-.11038208-.0552063-.11036682 0-.33111572.0552063-.93818664.0552063-.71743775 0-1.04856873-.0552063-1.15893555-.0552063-.11038208 0-.11038208 0-.11038208.0552063v.27593994c0 .05517578 0 .11035156.05519104.11035156h.33113098c.27593994 0 .49668885.11038208.55187989.38632202.05517578.11038208.11036682 1.10375977.11036682 1.49008179zm-59.5474701-1.8764038c.2207489 0 .27593995.16555785.27593995.4967041v2.31787109c0 1.26931762.05519104 1.93157959.2207489 2.37307739.2207489.66223144.6622467 1.10372925 1.15893554 1.3244934.44151307.22076417 1.10375977.27593995 1.54525757.27593995.6622467 0 1.32450867-.22076416 1.76600647-.60705567.49668885-.4414978.77262879-1.04858398.82781983-1.8764038.05517578-.3862915.05517578-2.09710694.05517578-2.26269532v-1.65560913c.05519104-.11038208.05519104-.38632202.44151306-.38632202h.33111572c.05519104 0 .05519104-.05517578.05519104-.11038208v-.22073364c0-.0552063 0-.11038208-.11038208-.11038208-.11036682 0-.38630676.05517578-.93818664.05517578-.6622467 0-1.10374451-.05517578-1.21412659-.05517578-.05519104 0-.05519104 0-.05519104.05517578v.27593994s0 .0552063.05519104.0552063h.33113098c.16555786 0 .33111572.16555786.38630676.4414978.05519104.22073365.16557312 1.32449341.16557312 2.15231324v1.54525756c0 .71743775-.22076416 1.26931763-.60707092 1.60043335-.27593994.27593994-.77262878.4414978-1.15893555.4414978-.49668884 0-.93818664-.16555786-1.26931762-.55187988-.2207489-.27593994-.33113098-.71743774-.33113098-1.15893554 0-.33111573-.05519104-1.54525757-.05519104-2.09713745v-1.93154908c.05519104-.22076416.22076416-.38632202.55187988-.38632202h.33113098c.05519104 0 .05519104 0 .05519104-.05517578v-.27593994c0-.0552063-.05519104-.0552063-.11038208-.0552063-.11036682 0-.55187988.0552063-1.43487549.0552063-1.04856872 0-1.54525757-.0552063-1.65562439-.0552063-.11038208 0-.11038208 0-.11038208.0552063v.22073364c0 .11038208 0 .11038208.05519104.11038208h.4414978zm33.77482605.33114623c0-.22076416-.11036682-.33111572-.33111572-.33111572h-.49668884c-.05519104 0-.05519104 0-.05519104-.0552063v-.27593994c0-.05517578.05519104-.05517578.05519104-.05517578.11036682 0 .60705566.05517578 1.60043335.05517578.99337768 0 1.32450867-.05517578 1.49006653-.05517578.05519104 0 .05519104.05517578.05519104.11038208v.27593994c0 .05517578-.05519104.05517578-.05519104.05517578h-.33111573c-.27593994 0-.38632202.05517578-.38632202.27593994 0 .11038208-.05519104 2.3178711-.05519104 2.42825318v.77264404c0 .11035156.05519104 2.37304687.05519104 2.48342895 0 .33111573.16557312.33111573.33113098.33111573h.38630677c.05519104 0 .05519104 0 .05519104.0552063v.27593994c0 .05517578-.05519104.05517578-.11036682.05517578-.11038208 0-.49668885-.05517578-1.43489075-.05517578-1.04855347 0-1.49006653.05517578-1.60043335.05517578-.05519104 0-.05519104 0-.05519104-.05517578v-.27593994c0-.0552063.05519104-.0552063.05519104-.0552063h.27593994c.2207489 0 .38630676-.05517578.4414978-.27593995 0-.16555786.05519104-2.31787109.05519104-2.81454467v-.77264405s.05517578-2.04193115.05517578-2.15231323zm13.024292 2.98013306c0-2.15231323-1.4348755-3.36645508-2.26269532-3.36645508-.01565551 0-.03269958-.00027466-.05107116-.00057983-.2407074-.00390625-.70942688-.01150513-1.2734375.55245971-.60705567.55187989-.8829956 1.60046387-.8829956 2.42825318 0 2.53863525 1.43487548 3.42163086 2.2626953 3.42163086 1.8763733-.05517578 2.20750428-2.2626648 2.20750428-3.03530884zm-54.96688843-2.42825318c-.05519104-.16558837-.05519104-.22076416-.11036682-.22076416-.05519104 0-.11038208.05517579-.11038208.11038208-.05519104.11038208-.8829956 2.48342896-.99337769 2.70419312h1.96679688c-.1449585-.42767334-.64785767-2.33181763-.7526703-2.59381104z"/>
    </g>
  </g>
</svg>
